<?xml version="1.0" encoding="utf-8"?>
<!-- Generator: Adobe Illustrator 16.0.4, SVG Export Plug-In . SVG Version: 6.00 Build 0)  -->
<!DOCTYPE svg PUBLIC "-//W3C//DTD SVG 1.1//EN" "http://www.w3.org/Graphics/SVG/1.1/DTD/svg11.dtd">
<svg version="1.1" xmlns="http://www.w3.org/2000/svg" xmlns:xlink="http://www.w3.org/1999/xlink" x="0px" y="0px"
	 width="1247.24px" height="396.85px" viewBox="0 0 1247.24 396.85" enable-background="new 0 0 1247.24 396.85"
	 xml:space="preserve">
<g id="Layer_6">
	<rect x="-3.667" y="-3.667" width="1250.907" height="400.516"/>
</g>
<g id="Layer_5">
	<g>
		<path fill="#F1F2F2" d="M213.912,64.667c5.669,0,57.833,0.333,61.833,0.333c8.334,0,13,6,13,6l-13.913,12.5l-55.167-0.167
			L205.079,68C205.079,68,208.912,64.667,213.912,64.667z"/>
		<path fill="#F1F2F2" d="M295.079,86.667l-3.829,45.208L280,142.75l-8.088-9.25l4-47.667l14.667-13.167
			C290.579,72.667,295.412,79,295.079,86.667z"/>
		<path fill="#F1F2F2" d="M279.625,146.625l9.207,11.208c0,0-3.398,49.305-3.753,55c-0.5,8-5.167,10.5-5.167,10.5l-14.246-17.001
			l3.5-49L279.625,146.625z"/>
		<path fill="#F1F2F2" d="M264.079,208.5l13.833,16.5c0,0-3.334,3.5-11.5,3.5c-5.843,0-57.167,0-64.833,0c-8.5,0-12-4.5-12-4.5
			l17.167-15.333L264.079,208.5z"/>
		<path fill="#F1F2F2" d="M201.5,146.625l8.75,9.875l-5.338,50.167l-17.833,15c0,0-3.833-6.001-3-12.667s6.296-52.625,6.296-52.625
			L201.5,146.625z"/>
		<path fill="#F1F2F2" d="M218.166,85.333L212.75,133l-10.625,9.75l-9.046-9.417c0,0,5.167-46.833,5.833-53.5
			c0.654-6.544,4.333-10.167,4.333-10.167L218.166,85.333z"/>
		<polygon fill="#F1F2F2" points="203.745,144.833 213.832,135.667 270.332,136 277.5,144.5 267.125,155.125 212.666,154.667 		"/>
	</g>
	<g>
		<path fill="#F1F2F2" d="M469.03,64.667c5.669,0,57.832,0.333,61.832,0.333c8.334,0,13,6,13,6L529.95,83.5l-55.166-0.167
			L460.197,68C460.197,68,464.03,64.667,469.03,64.667z"/>
		<path fill="#F1F2F2" d="M550.196,86.667l-3.828,45.208l-11.25,10.875l-8.088-9.25l4-47.667l14.666-13.167
			C545.696,72.667,550.53,79,550.196,86.667z"/>
		<path fill="#F1F2F2" d="M534.743,146.625l9.207,11.208c0,0-3.398,49.305-3.754,55c-0.5,8-5.166,10.5-5.166,10.5l-14.246-17.001
			l3.5-49L534.743,146.625z"/>
		<path fill="#F1F2F2" d="M519.196,208.5L533.03,225c0,0-3.334,3.5-11.5,3.5c-5.844,0-57.167,0-64.833,0c-8.5,0-12-4.5-12-4.5
			l17.166-15.333L519.196,208.5z"/>
		<path fill="#F1F2F2" d="M456.618,146.625l8.75,9.875l-5.338,50.167l-17.833,15c0,0-3.833-6.001-3-12.667
			s6.296-52.625,6.296-52.625L456.618,146.625z"/>
		<path fill="#F1F2F2" d="M473.284,85.333L467.868,133l-10.625,9.75l-9.046-9.417c0,0,5.166-46.833,5.833-53.5
			c0.654-6.544,4.333-10.167,4.333-10.167L473.284,85.333z"/>
		<polygon fill="#F1F2F2" points="458.863,144.833 468.95,135.667 525.45,136 532.618,144.5 522.243,155.125 467.784,154.667 		"/>
	</g>
	<g>
		<path fill="#F1F2F2" d="M724.148,64.667c5.669,0,57.832,0.333,61.832,0.333c8.334,0,13,6,13,6l-13.912,12.5l-55.166-0.167
			L715.315,68C715.315,68,719.148,64.667,724.148,64.667z"/>
		<path fill="#F1F2F2" d="M805.314,86.667l-3.828,45.208l-11.25,10.875l-8.088-9.25l4-47.667l14.666-13.167
			C800.814,72.667,805.648,79,805.314,86.667z"/>
		<path fill="#F1F2F2" d="M789.861,146.625l9.207,11.208c0,0-3.398,49.305-3.754,55c-0.5,8-5.166,10.5-5.166,10.5l-14.246-17.001
			l3.5-49L789.861,146.625z"/>
		<path fill="#F1F2F2" d="M774.314,208.5l13.834,16.5c0,0-3.334,3.5-11.5,3.5c-5.844,0-57.167,0-64.833,0c-8.5,0-12-4.5-12-4.5
			l17.166-15.333L774.314,208.5z"/>
		<path fill="#F1F2F2" d="M711.736,146.625l8.75,9.875l-5.338,50.167l-17.833,15c0,0-3.833-6.001-3-12.667
			s6.296-52.625,6.296-52.625L711.736,146.625z"/>
		<path fill="#F1F2F2" d="M728.402,85.333L722.986,133l-10.625,9.75l-9.046-9.417c0,0,5.166-46.833,5.833-53.5
			c0.654-6.544,4.333-10.167,4.333-10.167L728.402,85.333z"/>
		<polygon fill="#F1F2F2" points="713.981,144.833 724.068,135.667 780.568,136 787.736,144.5 777.361,155.125 722.902,154.667 		
			"/>
	</g>
	<g>
		<path fill="#F1F2F2" d="M979.267,64.667c5.669,0,57.832,0.333,61.832,0.333c8.334,0,13,6,13,6l-13.912,12.5l-55.166-0.167
			L970.434,68C970.434,68,974.267,64.667,979.267,64.667z"/>
		<path fill="#F1F2F2" d="M1060.433,86.667l-3.828,45.208l-11.25,10.875l-8.088-9.25l4-47.667l14.666-13.167
			C1055.933,72.667,1060.767,79,1060.433,86.667z"/>
		<path fill="#F1F2F2" d="M1044.979,146.625l9.207,11.208c0,0-3.398,49.305-3.754,55c-0.5,8-5.166,10.5-5.166,10.5l-14.246-17.001
			l3.5-49L1044.979,146.625z"/>
		<path fill="#F1F2F2" d="M1029.433,208.5l13.834,16.5c0,0-3.334,3.5-11.5,3.5c-5.844,0-57.167,0-64.833,0c-8.5,0-12-4.5-12-4.5
			l17.166-15.333L1029.433,208.5z"/>
		<path fill="#F1F2F2" d="M966.854,146.625l8.75,9.875l-5.338,50.167l-17.833,15c0,0-3.833-6.001-3-12.667
			s6.296-52.625,6.296-52.625L966.854,146.625z"/>
		<path fill="#F1F2F2" d="M983.521,85.333L978.104,133l-10.625,9.75l-9.046-9.417c0,0,5.166-46.833,5.833-53.5
			c0.654-6.544,4.333-10.167,4.333-10.167L983.521,85.333z"/>
		<polygon fill="#F1F2F2" points="969.1,144.833 979.187,135.667 1035.687,136 1042.854,144.5 1032.479,155.125 978.021,154.667 		
			"/>
	</g>
	<rect x="127.559" y="257.953" fill="#F1F2F2" width="226.772" height="70.866"/>
	<rect x="382.677" y="257.953" fill="#F1F2F2" width="226.772" height="70.866"/>
	<rect x="637.795" y="257.953" fill="#F1F2F2" width="226.771" height="70.866"/>
	<rect x="892.913" y="257.953" fill="#F1F2F2" width="226.771" height="70.866"/>
</g>
</svg>
