  0
SECTION
  2
HEADER
  9
$ACADVER
  1
AC1018
  9
$ACADMAINTVER
 70
     0
  9
$DWGCODEPAGE
  3
ANSI_932
  9
$INSBASE
 10
0.0
 20
0.0
 30
0.0
  9
$EXTMIN
 10
1.000000000000000E+20
 20
1.000000000000000E+20
 30
1.000000000000000E+20
  9
$EXTMAX
 10
-1.000000000000000E+20
 20
-1.000000000000000E+20
 30
-1.000000000000000E+20
  9
$LIMMIN
 10
0.0
 20
0.0
  9
$LIMMAX
 10
12.0
 20
9.0
  9
$ORTHOMODE
 70
     0
  9
$REGENMODE
 70
     1
  9
$FILLMODE
 70
     1
  9
$QTEXTMODE
 70
     0
  9
$MIRRTEXT
 70
     1
  9
$LTSCALE
 40
1.0
  9
$ATTMODE
 70
     1
  9
$TEXTSIZE
 40
0.2
  9
$TRACEWID
 40
0.05
  9
$TEXTSTYLE
  7
Standard
  9
$CLAYER
  8
0
  9
$CELTYPE
  6
ByLayer
  9
$CECOLOR
 62
   256
  9
$CELTSCALE
 40
1.0
  9
$DISPSILH
 70
     0
  9
$DIMSCALE
 40
1.0
  9
$DIMASZ
 40
0.18
  9
$DIMEXO
 40
0.0625
  9
$DIMDLI
 40
0.38
  9
$DIMRND
 40
0.0
  9
$DIMDLE
 40
0.0
  9
$DIMEXE
 40
0.18
  9
$DIMTP
 40
0.0
  9
$DIMTM
 40
0.0
  9
$DIMTXT
 40
0.18
  9
$DIMCEN
 40
0.09
  9
$DIMTSZ
 40
0.0
  9
$DIMTOL
 70
     0
  9
$DIMLIM
 70
     0
  9
$DIMTIH
 70
     1
  9
$DIMTOH
 70
     1
  9
$DIMSE1
 70
     0
  9
$DIMSE2
 70
     0
  9
$DIMTAD
 70
     0
  9
$DIMZIN
 70
     0
  9
$DIMBLK
  1

  9
$DIMASO
 70
     1
  9
$DIMSHO
 70
     1
  9
$DIMPOST
  1

  9
$DIMAPOST
  1

  9
$DIMALT
 70
     0
  9
$DIMALTD
 70
     2
  9
$DIMALTF
 40
25.4
  9
$DIMLFAC
 40
1.0
  9
$DIMTOFL
 70
     0
  9
$DIMTVP
 40
0.0
  9
$DIMTIX
 70
     0
  9
$DIMSOXD
 70
     0
  9
$DIMSAH
 70
     0
  9
$DIMBLK1
  1

  9
$DIMBLK2
  1

  9
$DIMSTYLE
  2
Standard
  9
$DIMCLRD
 70
     0
  9
$DIMCLRE
 70
     0
  9
$DIMCLRT
 70
     0
  9
$DIMTFAC
 40
1.0
  9
$DIMGAP
 40
0.09
  9
$DIMJUST
 70
     0
  9
$DIMSD1
 70
     0
  9
$DIMSD2
 70
     0
  9
$DIMTOLJ
 70
     1
  9
$DIMTZIN
 70
     0
  9
$DIMALTZ
 70
     0
  9
$DIMALTTZ
 70
     0
  9
$DIMUPT
 70
     0
  9
$DIMDEC
 70
     4
  9
$DIMTDEC
 70
     4
  9
$DIMALTU
 70
     2
  9
$DIMALTTD
 70
     2
  9
$DIMTXSTY
  7
Standard
  9
$DIMAUNIT
 70
     0
  9
$DIMADEC
 70
     0
  9
$DIMALTRND
 40
0.0
  9
$DIMAZIN
 70
     0
  9
$DIMDSEP
 70
    46
  9
$DIMATFIT
 70
     3
  9
$DIMFRAC
 70
     0
  9
$DIMLDRBLK
  1

  9
$DIMLUNIT
 70
     2
  9
$DIMLWD
 70
    -2
  9
$DIMLWE
 70
    -2
  9
$DIMTMOVE
 70
     0
  9
$LUNITS
 70
     2
  9
$LUPREC
 70
     4
  9
$SKETCHINC
 40
0.1
  9
$FILLETRAD
 40
0.5
  9
$AUNITS
 70
     0
  9
$AUPREC
 70
     0
  9
$MENU
  1
.
  9
$ELEVATION
 40
0.0
  9
$PELEVATION
 40
0.0
  9
$THICKNESS
 40
0.0
  9
$LIMCHECK
 70
     0
  9
$CHAMFERA
 40
0.5
  9
$CHAMFERB
 40
0.5
  9
$CHAMFERC
 40
1.0
  9
$CHAMFERD
 40
0.0
  9
$SKPOLY
 70
     0
  9
$TDCREATE
 40
2458275.024571759
  9
$TDUCREATE
 40
2458274.982905093
  9
$TDUPDATE
 40
2458275.024571771
  9
$TDUUPDATE
 40
2458274.982905104
  9
$TDINDWG
 40
0.0000000116
  9
$TDUSRTIMER
 40
0.0000000116
  9
$USRTIMER
 70
     1
  9
$ANGBASE
 50
0.0
  9
$ANGDIR
 70
     0
  9
$PDMODE
 70
     0
  9
$PDSIZE
 40
0.0
  9
$PLINEWID
 40
0.0
  9
$SPLFRAME
 70
     0
  9
$SPLINETYPE
 70
     6
  9
$SPLINESEGS
 70
     8
  9
$HANDSEED
  5
CE
  9
$SURFTAB1
 70
     6
  9
$SURFTAB2
 70
     6
  9
$SURFTYPE
 70
     6
  9
$SURFU
 70
     6
  9
$SURFV
 70
     6
  9
$UCSBASE
  2

  9
$UCSNAME
  2

  9
$UCSORG
 10
0.0
 20
0.0
 30
0.0
  9
$UCSXDIR
 10
1.0
 20
0.0
 30
0.0
  9
$UCSYDIR
 10
0.0
 20
1.0
 30
0.0
  9
$UCSORTHOREF
  2

  9
$UCSORTHOVIEW
 70
     0
  9
$UCSORGTOP
 10
0.0
 20
0.0
 30
0.0
  9
$UCSORGBOTTOM
 10
0.0
 20
0.0
 30
0.0
  9
$UCSORGLEFT
 10
0.0
 20
0.0
 30
0.0
  9
$UCSORGRIGHT
 10
0.0
 20
0.0
 30
0.0
  9
$UCSORGFRONT
 10
0.0
 20
0.0
 30
0.0
  9
$UCSORGBACK
 10
0.0
 20
0.0
 30
0.0
  9
$PUCSBASE
  2

  9
$PUCSNAME
  2

  9
$PUCSORG
 10
0.0
 20
0.0
 30
0.0
  9
$PUCSXDIR
 10
1.0
 20
0.0
 30
0.0
  9
$PUCSYDIR
 10
0.0
 20
1.0
 30
0.0
  9
$PUCSORTHOREF
  2

  9
$PUCSORTHOVIEW
 70
     0
  9
$PUCSORGTOP
 10
0.0
 20
0.0
 30
0.0
  9
$PUCSORGBOTTOM
 10
0.0
 20
0.0
 30
0.0
  9
$PUCSORGLEFT
 10
0.0
 20
0.0
 30
0.0
  9
$PUCSORGRIGHT
 10
0.0
 20
0.0
 30
0.0
  9
$PUCSORGFRONT
 10
0.0
 20
0.0
 30
0.0
  9
$PUCSORGBACK
 10
0.0
 20
0.0
 30
0.0
  9
$USERI1
 70
     0
  9
$USERI2
 70
     0
  9
$USERI3
 70
     0
  9
$USERI4
 70
     0
  9
$USERI5
 70
     0
  9
$USERR1
 40
0.0
  9
$USERR2
 40
0.0
  9
$USERR3
 40
0.0
  9
$USERR4
 40
0.0
  9
$USERR5
 40
0.0
  9
$WORLDVIEW
 70
     1
  9
$SHADEDGE
 70
     3
  9
$SHADEDIF
 70
    70
  9
$TILEMODE
 70
     1
  9
$MAXACTVP
 70
    64
  9
$PINSBASE
 10
0.0
 20
0.0
 30
0.0
  9
$PLIMCHECK
 70
     0
  9
$PEXTMIN
 10
1.000000000000000E+20
 20
1.000000000000000E+20
 30
1.000000000000000E+20
  9
$PEXTMAX
 10
-1.000000000000000E+20
 20
-1.000000000000000E+20
 30
-1.000000000000000E+20
  9
$PLIMMIN
 10
0.0
 20
0.0
  9
$PLIMMAX
 10
12.0
 20
9.0
  9
$UNITMODE
 70
     0
  9
$VISRETAIN
 70
     1
  9
$PLINEGEN
 70
     0
  9
$PSLTSCALE
 70
     1
  9
$TREEDEPTH
 70
  3020
  9
$CMLSTYLE
  2
Standard
  9
$CMLJUST
 70
     0
  9
$CMLSCALE
 40
1.0
  9
$PROXYGRAPHICS
 70
     1
  9
$MEASUREMENT
 70
     0
  9
$CELWEIGHT
370
    -1
  9
$ENDCAPS
280
     0
  9
$JOINSTYLE
280
     0
  9
$LWDISPLAY
290
     1
  9
$INSUNITS
 70
     1
  9
$HYPERLINKBASE
  1

  9
$STYLESHEET
  1

  9
$XEDIT
290
     1
  9
$CEPSNTYPE
380
     0
  9
$PSTYLEMODE
290
     1
  9
$FINGERPRINTGUID
  2
{F63716CD-361E-74E7-C63E-551890FE1CEE}
  9
$VERSIONGUID
  2
{FAEB1C32-E019-11D5-929B-00C0DF256EC4}
  9
$EXTNAMES
290
     1
  9
$PSVPSCALE
 40
0.0
  9
$OLESTARTUP
290
     0
  9
$SORTENTS
280
   127
  9
$INDEXCTL
280
     0
  9
$HIDETEXT
280
     1
  9
$XCLIPFRAME
290
     0
  9
$HALOGAP
280
     0
  9
$OBSCOLOR
 70
   257
  9
$OBSLTYPE
280
     0
  9
$INTERSECTIONDISPLAY
280
     0
  9
$INTERSECTIONCOLOR
 70
   257
  9
$DIMASSOC
280
     2
  9
$PROJECTNAME
  1

  0
ENDSEC
  0
SECTION
  2
CLASSES
  0
CLASS
  1
ACDBDICTIONARYWDFLT
  2
AcDbDictionaryWithDefault
  3
ObjectDBX Classes
 90
        0
 91
        3
280
     0
281
     0
  0
CLASS
  1
VISUALSTYLE
  2
AcDbVisualStyle
  3
ObjectDBX Classes
 90
     4095
 91
        3
280
     0
281
     0
  0
ENDSEC
  0
SECTION
  2
TABLES
  0
TABLE
  2
VPORT
  5
8
330
0
100
AcDbSymbolTable
 70
     1
  0
VPORT
  5
29
330
8
100
AcDbSymbolTableRecord
100
AcDbViewportTableRecord
  2
*Active
 70
     0
 10
0.0
 20
0.0
 11
1.0
 21
1.0
 12
0.0
 22
0.0
 13
0.0
 23
0.0
 14
0.5
 24
0.5
 15
0.5
 25
0.5
 16
0.0
 26
0.0
 36
1.0
 17
219.9993190639238
 27
-69.99986163614587
 37
0.0
 40
139.9997232722917
 41
3.142853627446638
 42
50.0
 43
0.0
 44
0.0
 50
0.0
 51
0.0
 71
     0
 72
   100
 73
     1
 74
     3
 75
     0
 76
     0
 77
     0
 78
     0
281
     0
 65
     1
110
0.0
120
0.0
130
0.0
111
1.0
121
0.0
131
0.0
112
0.0
122
1.0
132
0.0
 79
     0
146
0.0
  0
ENDTAB
  0
TABLE
  2
LTYPE
  5
5
330
0
100
AcDbSymbolTable
 70
     1
  0
LTYPE
  5
14
330
5
100
AcDbSymbolTableRecord
100
AcDbLinetypeTableRecord
  2
ByBlock
 70
     0
  3

 72
    65
 73
     0
 40
0.0
  0
LTYPE
  5
15
330
5
100
AcDbSymbolTableRecord
100
AcDbLinetypeTableRecord
  2
ByLayer
 70
     0
  3

 72
    65
 73
     0
 40
0.0
  0
LTYPE
  5
16
330
5
100
AcDbSymbolTableRecord
100
AcDbLinetypeTableRecord
  2
Continuous
 70
     0
  3
Solid line
 72
    65
 73
     0
 40
0.0
  0
ENDTAB
  0
TABLE
  2
LAYER
  5
2
330
0
100
AcDbSymbolTable
 70
     3
  0
LAYER
  5
10
330
2
100
AcDbSymbolTableRecord
100
AcDbLayerTableRecord
  2
0
 70
     0
 62
     7
  6
Continuous
370
    -3
390
F
  0
LAYER
  5
3B
330
2
100
AcDbSymbolTableRecord
100
AcDbLayerTableRecord
  2
Layer 6
 70
     0
 62
     7
  6
Continuous
370
    -3
390
F
  0
LAYER
  5
44
330
2
100
AcDbSymbolTableRecord
100
AcDbLayerTableRecord
  2
Layer 5
 70
     0
 62
     7
  6
Continuous
370
    -3
390
F
  0
ENDTAB
  0
TABLE
  2
STYLE
  5
3
330
0
100
AcDbSymbolTable
 70
     1
  0
STYLE
  5
11
330
3
100
AcDbSymbolTableRecord
100
AcDbTextStyleTableRecord
  2
Standard
 70
     0
 40
0.0
 41
1.0
 50
0.0
 71
     0
 42
0.2
  3
txt
  4

  0
ENDTAB
  0
TABLE
  2
VIEW
  5
6
330
0
100
AcDbSymbolTable
 70
     0
  0
ENDTAB
  0
TABLE
  2
UCS
  5
7
330
0
100
AcDbSymbolTable
 70
     0
  0
ENDTAB
  0
TABLE
  2
APPID
  5
9
330
0
100
AcDbSymbolTable
 70
     1
  0
APPID
  5
12
330
9
100
AcDbSymbolTableRecord
100
AcDbRegAppTableRecord
  2
ACAD
 70
     0
  0
ENDTAB
  0
TABLE
  2
DIMSTYLE
  5
A
330
0
100
AcDbSymbolTable
 70
     1
100
AcDbDimStyleTable
  0
DIMSTYLE
105
27
330
A
100
AcDbSymbolTableRecord
100
AcDbDimStyleTableRecord
  2
Standard
 70
     0
340
11
  0
ENDTAB
  0
TABLE
  2
BLOCK_RECORD
  5
1
330
0
100
AcDbSymbolTable
 70
     5
  0
BLOCK_RECORD
  5
1F
330
1
100
AcDbSymbolTableRecord
100
AcDbBlockTableRecord
  2
*Model_Space
340
22
  0
BLOCK_RECORD
  5
1B
330
1
100
AcDbSymbolTableRecord
100
AcDbBlockTableRecord
  2
*Paper_Space
340
1E
  0
BLOCK_RECORD
  5
23
330
1
100
AcDbSymbolTableRecord
100
AcDbBlockTableRecord
  2
*Paper_Space0
340
26
  0
BLOCK_RECORD
  5
45
330
1
100
AcDbSymbolTableRecord
100
AcDbBlockTableRecord
  2
block 2
340
0
102
{BLKREFS
331
46
102
}
  0
BLOCK_RECORD
  5
5F
330
1
100
AcDbSymbolTableRecord
100
AcDbBlockTableRecord
  2
block 3
340
0
102
{BLKREFS
331
60
102
}
  0
BLOCK_RECORD
  5
79
330
1
100
AcDbSymbolTableRecord
100
AcDbBlockTableRecord
  2
block 4
340
0
102
{BLKREFS
331
7A
102
}
  0
BLOCK_RECORD
  5
93
330
1
100
AcDbSymbolTableRecord
100
AcDbBlockTableRecord
  2
block 5
340
0
102
{BLKREFS
331
94
102
}
  0
ENDTAB
  0
ENDSEC
  0
SECTION
  2
BLOCKS
  0
BLOCK
  5
20
330
1F
100
AcDbEntity
  8
0
100
AcDbBlockBegin
  2
*Model_Space
 70
     0
 71
     0
 10
0.0
 20
0.0
 30
0.0
  3
*Model_Space
  1

  0
ENDBLK
  5
21
330
1F
100
AcDbEntity
  8
0
100
AcDbBlockEnd
  0
BLOCK
  5
1C
330
1B
100
AcDbEntity
 67
     1
  8
0
100
AcDbBlockBegin
  2
*Paper_Space
 70
     0
 71
     0
 10
0.0
 20
0.0
 30
0.0
  3
*Paper_Space
  1

  0
ENDBLK
  5
1D
330
1B
100
AcDbEntity
 67
     1
  8
0
100
AcDbBlockEnd
  0
BLOCK
  5
24
330
23
100
AcDbEntity
  8
0
100
AcDbBlockBegin
  2
*Paper_Space0
 70
     0
 71
     0
 10
0.0
 20
0.0
 30
0.0
  3
*Paper_Space0
  1

  0
ENDBLK
  5
25
330
23
100
AcDbEntity
  8
0
100
AcDbBlockEnd
  0
BLOCK
  5
47
330
45
100
AcDbEntity
  8
0
100
AcDbBlockBegin
  2
block 2
 70
     0
 71
     0
 10
0.0
 20
0.0
 30
0.0
  3
block 2
  1

  0
SPLINE
  5
49
330
45
100
AcDbEntity
  8
Layer 5
370
     0
100
AcDbSpline
210
0.0
220
0.0
230
1.0
 70
    11
 71
     3
 72
    23
 73
    19
 74
     0
 42
0.0000000001
 43
0.0000000001
 40
0.0
 40
0.0
 40
0.0
 40
0.0
 40
1.0
 40
1.0
 40
1.0
 40
2.0
 40
2.0
 40
2.0
 40
3.0
 40
3.0
 40
3.0
 40
4.0
 40
4.0
 40
4.0
 40
5.0
 40
5.0
 40
5.0
 40
6.0
 40
6.0
 40
6.0
 40
6.0
 10
75.46326631142932
 20
-22.8130777937759
 30
0.0
 10
77.46314424061686
 20
-22.8130777937759
 30
0.0
 10
95.86546628462739
 20
-22.93055554982292
 30
0.0
 10
97.27657739538571
 20
-22.93055554982292
 30
0.0
 10
100.2166218824979
 20
-22.93055554982292
 30
0.0
 10
101.8626885053503
 20
-25.04722221596042
 30
0.0
 10
101.8626885053503
 20
-25.04722221596042
 30
0.0
 10
101.8626885053503
 20
-25.04722221596042
 30
0.0
 10
96.95463322228912
 20
-29.45694443708021
 30
0.0
 10
96.95463322228912
 20
-29.45694443708021
 30
0.0
 10
96.95463322228912
 20
-29.45694443708021
 30
0.0
 10
77.49311657133853
 20
-29.3982055590567
 30
0.0
 10
77.49311657133853
 20
-29.3982055590567
 30
0.0
 10
77.49311657133853
 20
-29.3982055590567
 30
0.0
 10
72.34717744502085
 20
-23.98888888289167
 30
0.0
 10
72.34717744502085
 20
-23.98888888289167
 30
0.0
 10
72.34717744502085
 20
-23.98888888289167
 30
0.0
 10
73.69937742298141
 20
-22.8130777937759
 30
0.0
 10
75.46326631142932
 20
-22.8130777937759
 30
0.0
  0
HATCH
  5
4A
330
45
100
AcDbEntity
  8
Layer 5
 62
     7
420
 15856114
100
AcDbHatch
 10
0.0
 20
0.0
 30
0.0
210
0.0
220
0.0
230
1.0
  2
SOLID
 70
     1
 71
     0
 91
        1
 92
        1
 93
        1
 72
     4
 94
        3
 73
     0
 74
     1
 95
       23
 96
       19
 40
0.0
 40
0.0
 40
0.0
 40
0.0
 40
1.0
 40
1.0
 40
1.0
 40
2.0
 40
2.0
 40
2.0
 40
3.0
 40
3.0
 40
3.0
 40
4.0
 40
4.0
 40
4.0
 40
5.0
 40
5.0
 40
5.0
 40
6.0
 40
6.0
 40
6.0
 40
6.0
 10
75.46326631142932
 20
-22.8130777937759
 10
77.46314424061686
 20
-22.8130777937759
 10
95.86546628462739
 20
-22.93055554982292
 10
97.27657739538571
 20
-22.93055554982292
 10
100.2166218824979
 20
-22.93055554982292
 10
101.8626885053503
 20
-25.04722221596042
 10
101.8626885053503
 20
-25.04722221596042
 10
101.8626885053503
 20
-25.04722221596042
 10
96.95463322228912
 20
-29.45694443708021
 10
96.95463322228912
 20
-29.45694443708021
 10
96.95463322228912
 20
-29.45694443708021
 10
77.49311657133853
 20
-29.3982055590567
 10
77.49311657133853
 20
-29.3982055590567
 10
77.49311657133853
 20
-29.3982055590567
 10
72.34717744502085
 20
-23.98888888289167
 10
72.34717744502085
 20
-23.98888888289167
 10
72.34717744502085
 20
-23.98888888289167
 10
73.69937742298141
 20
-22.8130777937759
 10
75.46326631142932
 20
-22.8130777937759
 97
        0
 75
     2
 76
     1
 98
        0
  0
SPLINE
  5
4B
330
45
100
AcDbEntity
  8
Layer 5
370
     0
100
AcDbSpline
210
0.0
220
0.0
230
1.0
 70
    11
 71
     3
 72
    23
 73
    19
 74
     0
 42
0.0000000001
 43
0.0000000001
 40
0.0
 40
0.0
 40
0.0
 40
0.0
 40
1.0
 40
1.0
 40
1.0
 40
2.0
 40
2.0
 40
2.0
 40
3.0
 40
3.0
 40
3.0
 40
4.0
 40
4.0
 40
4.0
 40
5.0
 40
5.0
 40
5.0
 40
6.0
 40
6.0
 40
6.0
 40
6.0
 10
104.0971774370833
 20
-30.57418890294673
 30
0.0
 10
104.0971774370833
 20
-30.57418890294673
 30
0.0
 10
102.7465277520912
 20
-46.5225694328138
 30
0.0
 10
102.7465277520912
 20
-46.5225694328138
 30
0.0
 10
102.7465277520912
 20
-46.5225694328138
 30
0.0
 10
98.77777775308334
 20
-50.35902776518802
 30
0.0
 10
98.77777775308334
 20
-50.35902776518802
 30
0.0
 10
98.77777775308334
 20
-50.35902776518802
 30
0.0
 10
95.92437741742516
 20
-47.09583332155938
 30
0.0
 10
95.92437741742516
 20
-47.09583332155938
 30
0.0
 10
95.92437741742516
 20
-47.09583332155938
 30
0.0
 10
97.33548852818349
 20
-30.28015000328066
 30
0.0
 10
97.33548852818349
 20
-30.28015000328066
 30
0.0
 10
97.33548852818349
 20
-30.28015000328066
 30
0.0
 10
102.5096774374802
 20
-25.63530001529256
 30
0.0
 10
102.5096774374802
 20
-25.63530001529256
 30
0.0
 10
102.5096774374802
 20
-25.63530001529256
 30
0.0
 10
104.2146551931304
 20
-27.86961669225135
 30
0.0
 10
104.0971774370833
 20
-30.57418890294673
 30
0.0
  0
HATCH
  5
4C
330
45
100
AcDbEntity
  8
Layer 5
 62
     7
420
 15856114
100
AcDbHatch
 10
0.0
 20
0.0
 30
0.0
210
0.0
220
0.0
230
1.0
  2
SOLID
 70
     1
 71
     0
 91
        1
 92
        1
 93
        1
 72
     4
 94
        3
 73
     0
 74
     1
 95
       23
 96
       19
 40
0.0
 40
0.0
 40
0.0
 40
0.0
 40
1.0
 40
1.0
 40
1.0
 40
2.0
 40
2.0
 40
2.0
 40
3.0
 40
3.0
 40
3.0
 40
4.0
 40
4.0
 40
4.0
 40
5.0
 40
5.0
 40
5.0
 40
6.0
 40
6.0
 40
6.0
 40
6.0
 10
104.0971774370833
 20
-30.57418890294673
 10
104.0971774370833
 20
-30.57418890294673
 10
102.7465277520912
 20
-46.5225694328138
 10
102.7465277520912
 20
-46.5225694328138
 10
102.7465277520912
 20
-46.5225694328138
 10
98.77777775308334
 20
-50.35902776518802
 10
98.77777775308334
 20
-50.35902776518802
 10
98.77777775308334
 20
-50.35902776518802
 10
95.92437741742516
 20
-47.09583332155938
 10
95.92437741742516
 20
-47.09583332155938
 10
95.92437741742516
 20
-47.09583332155938
 10
97.33548852818349
 20
-30.28015000328066
 10
97.33548852818349
 20
-30.28015000328066
 10
97.33548852818349
 20
-30.28015000328066
 10
102.5096774374802
 20
-25.63530001529256
 10
102.5096774374802
 20
-25.63530001529256
 10
102.5096774374802
 20
-25.63530001529256
 10
104.2146551931304
 20
-27.86961669225135
 10
104.0971774370833
 20
-30.57418890294673
 97
        0
 75
     2
 76
     1
 98
        0
  0
SPLINE
  5
4D
330
45
100
AcDbEntity
  8
Layer 5
370
     0
100
AcDbSpline
210
0.0
220
0.0
230
1.0
 70
    11
 71
     3
 72
    23
 73
    19
 74
     0
 42
0.0000000001
 43
0.0000000001
 40
0.0
 40
0.0
 40
0.0
 40
0.0
 40
1.0
 40
1.0
 40
1.0
 40
2.0
 40
2.0
 40
2.0
 40
3.0
 40
3.0
 40
3.0
 40
4.0
 40
4.0
 40
4.0
 40
5.0
 40
5.0
 40
5.0
 40
6.0
 40
6.0
 40
6.0
 40
6.0
 10
98.64548608644975
 20
-51.72604165373516
 30
0.0
 10
98.64548608644975
 20
-51.72604165373516
 30
0.0
 10
101.8935221099433
 20
-55.68014999693066
 30
0.0
 10
101.8935221099433
 20
-55.68014999693066
 30
0.0
 10
101.8935221099433
 20
-55.68014999693066
 30
0.0
 10
100.6948011358506
 20
-73.0739203376343
 30
0.0
 10
100.5693996601875
 20
-75.083100024632
 30
0.0
 10
100.3930107713427
 20
-77.90532224614867
 30
0.0
 10
98.74659963894183
 20
-78.78726669037263
 30
0.0
 10
98.74659963894183
 20
-78.78726669037263
 30
0.0
 10
98.74659963894183
 20
-78.78726669037263
 30
0.0
 10
93.72089434505936
 20
-72.78969996010119
 30
0.0
 10
93.72089434505936
 20
-72.78969996010119
 30
0.0
 10
93.72089434505936
 20
-72.78969996010119
 30
0.0
 10
94.9556165669729
 20
-55.50376110808587
 30
0.0
 10
94.9556165669729
 20
-55.50376110808587
 30
0.0
 10
94.9556165669729
 20
-55.50376110808587
 30
0.0
 10
98.64548608644975
 20
-51.72604165373516
 30
0.0
 10
98.64548608644975
 20
-51.72604165373516
 30
0.0
  0
HATCH
  5
4E
330
45
100
AcDbEntity
  8
Layer 5
 62
     7
420
 15856114
100
AcDbHatch
 10
0.0
 20
0.0
 30
0.0
210
0.0
220
0.0
230
1.0
  2
SOLID
 70
     1
 71
     0
 91
        1
 92
        1
 93
        1
 72
     4
 94
        3
 73
     0
 74
     1
 95
       23
 96
       19
 40
0.0
 40
0.0
 40
0.0
 40
0.0
 40
1.0
 40
1.0
 40
1.0
 40
2.0
 40
2.0
 40
2.0
 40
3.0
 40
3.0
 40
3.0
 40
4.0
 40
4.0
 40
4.0
 40
5.0
 40
5.0
 40
5.0
 40
6.0
 40
6.0
 40
6.0
 40
6.0
 10
98.64548608644975
 20
-51.72604165373516
 10
98.64548608644975
 20
-51.72604165373516
 10
101.8935221099433
 20
-55.68014999693066
 10
101.8935221099433
 20
-55.68014999693066
 10
101.8935221099433
 20
-55.68014999693066
 10
100.6948011358506
 20
-73.0739203376343
 10
100.5693996601875
 20
-75.083100024632
 10
100.3930107713427
 20
-77.90532224614867
 10
98.74659963894183
 20
-78.78726669037263
 10
98.74659963894183
 20
-78.78726669037263
 10
98.74659963894183
 20
-78.78726669037263
 10
93.72089434505936
 20
-72.78969996010119
 10
93.72089434505936
 20
-72.78969996010119
 10
93.72089434505936
 20
-72.78969996010119
 10
94.9556165669729
 20
-55.50376110808587
 10
94.9556165669729
 20
-55.50376110808587
 10
94.9556165669729
 20
-55.50376110808587
 10
98.64548608644975
 20
-51.72604165373516
 10
98.64548608644975
 20
-51.72604165373516
 97
        0
 75
     2
 76
     1
 98
        0
  0
SPLINE
  5
4F
330
45
100
AcDbEntity
  8
Layer 5
370
     0
100
AcDbSpline
210
0.0
220
0.0
230
1.0
 70
    11
 71
     3
 72
    23
 73
    19
 74
     0
 42
0.0000000001
 43
0.0000000001
 40
0.0
 40
0.0
 40
0.0
 40
0.0
 40
1.0
 40
1.0
 40
1.0
 40
2.0
 40
2.0
 40
2.0
 40
3.0
 40
3.0
 40
3.0
 40
4.0
 40
4.0
 40
4.0
 40
5.0
 40
5.0
 40
5.0
 40
6.0
 40
6.0
 40
6.0
 40
6.0
 10
93.16106632870627
 20
-73.55416664827813
 30
0.0
 10
93.16106632870627
 20
-73.55416664827813
 30
0.0
 10
98.04104408356265
 20
-79.37499998015625
 30
0.0
 10
98.04104408356265
 20
-79.37499998015625
 30
0.0
 10
98.04104408356265
 20
-79.37499998015625
 30
0.0
 10
96.86488848489837
 20
-80.60972220206979
 30
0.0
 10
93.98409964013246
 20
-80.60972220206979
 30
0.0
 10
91.92289901130748
 20
-80.60972220206979
 30
0.0
 10
73.81702743380269
 20
-80.60972220206979
 30
0.0
 10
71.1124552231073
 20
-80.60972220206979
 30
0.0
 10
68.11384411274585
 20
-80.60972220206979
 30
0.0
 10
66.87912189083231
 20
-79.02222220246666
 30
0.0
 10
66.87912189083231
 20
-79.02222220246666
 30
0.0
 10
66.87912189083231
 20
-79.02222220246666
 30
0.0
 10
72.93508298957873
 20
-73.6130777810759
 30
0.0
 10
72.93508298957873
 20
-73.6130777810759
 30
0.0
 10
72.93508298957873
 20
-73.6130777810759
 30
0.0
 10
93.16106632870627
 20
-73.55416664827813
 30
0.0
 10
93.16106632870627
 20
-73.55416664827813
 30
0.0
  0
HATCH
  5
50
330
45
100
AcDbEntity
  8
Layer 5
 62
     7
420
 15856114
100
AcDbHatch
 10
0.0
 20
0.0
 30
0.0
210
0.0
220
0.0
230
1.0
  2
SOLID
 70
     1
 71
     0
 91
        1
 92
        1
 93
        1
 72
     4
 94
        3
 73
     0
 74
     1
 95
       23
 96
       19
 40
0.0
 40
0.0
 40
0.0
 40
0.0
 40
1.0
 40
1.0
 40
1.0
 40
2.0
 40
2.0
 40
2.0
 40
3.0
 40
3.0
 40
3.0
 40
4.0
 40
4.0
 40
4.0
 40
5.0
 40
5.0
 40
5.0
 40
6.0
 40
6.0
 40
6.0
 40
6.0
 10
93.16106632870627
 20
-73.55416664827813
 10
93.16106632870627
 20
-73.55416664827813
 10
98.04104408356265
 20
-79.37499998015625
 10
98.04104408356265
 20
-79.37499998015625
 10
98.04104408356265
 20
-79.37499998015625
 10
96.86488848489837
 20
-80.60972220206979
 10
93.98409964013246
 20
-80.60972220206979
 10
91.92289901130748
 20
-80.60972220206979
 10
73.81702743380269
 20
-80.60972220206979
 10
71.1124552231073
 20
-80.60972220206979
 10
68.11384411274585
 20
-80.60972220206979
 10
66.87912189083231
 20
-79.02222220246666
 10
66.87912189083231
 20
-79.02222220246666
 10
66.87912189083231
 20
-79.02222220246666
 10
72.93508298957873
 20
-73.6130777810759
 10
72.93508298957873
 20
-73.6130777810759
 10
72.93508298957873
 20
-73.6130777810759
 10
93.16106632870627
 20
-73.55416664827813
 10
93.16106632870627
 20
-73.55416664827813
 97
        0
 75
     2
 76
     1
 98
        0
  0
SPLINE
  5
51
330
45
100
AcDbEntity
  8
Layer 5
370
     0
100
AcDbSpline
210
0.0
220
0.0
230
1.0
 70
    11
 71
     3
 72
    23
 73
    19
 74
     0
 42
0.0000000001
 43
0.0000000001
 40
0.0
 40
0.0
 40
0.0
 40
0.0
 40
1.0
 40
1.0
 40
1.0
 40
2.0
 40
2.0
 40
2.0
 40
3.0
 40
3.0
 40
3.0
 40
4.0
 40
4.0
 40
4.0
 40
5.0
 40
5.0
 40
5.0
 40
6.0
 40
6.0
 40
6.0
 40
6.0
 10
71.08472220445104
 20
-51.72604165373516
 30
0.0
 10
71.08472220445104
 20
-51.72604165373516
 30
0.0
 10
74.1715277592349
 20
-55.20972220841979
 30
0.0
 10
74.1715277592349
 20
-55.20972220841979
 30
0.0
 10
74.1715277592349
 20
-55.20972220841979
 30
0.0
 10
72.28826631222307
 20
-72.90752222569674
 30
0.0
 10
72.28826631222307
 20
-72.90752222569674
 30
0.0
 10
72.28826631222307
 20
-72.90752222569674
 30
0.0
 10
65.99717744660835
 20
-78.19918889104048
 30
0.0
 10
65.99717744660835
 20
-78.19918889104048
 30
0.0
 10
65.99717744660835
 20
-78.19918889104048
 30
0.0
 10
64.64497746864778
 20
-76.08217771535446
 30
0.0
 10
64.9388441135396
 20
-73.73055553712292
 30
0.0
 10
65.23271075843141
 20
-71.37893335889139
 30
0.0
 10
67.16006942765443
 20
-55.1656249862086
 30
0.0
 10
67.16006942765443
 20
-55.1656249862086
 30
0.0
 10
67.16006942765443
 20
-55.1656249862086
 30
0.0
 10
71.08472220445104
 20
-51.72604165373516
 30
0.0
 10
71.08472220445104
 20
-51.72604165373516
 30
0.0
  0
HATCH
  5
52
330
45
100
AcDbEntity
  8
Layer 5
 62
     7
420
 15856114
100
AcDbHatch
 10
0.0
 20
0.0
 30
0.0
210
0.0
220
0.0
230
1.0
  2
SOLID
 70
     1
 71
     0
 91
        1
 92
        1
 93
        1
 72
     4
 94
        3
 73
     0
 74
     1
 95
       23
 96
       19
 40
0.0
 40
0.0
 40
0.0
 40
0.0
 40
1.0
 40
1.0
 40
1.0
 40
2.0
 40
2.0
 40
2.0
 40
3.0
 40
3.0
 40
3.0
 40
4.0
 40
4.0
 40
4.0
 40
5.0
 40
5.0
 40
5.0
 40
6.0
 40
6.0
 40
6.0
 40
6.0
 10
71.08472220445104
 20
-51.72604165373516
 10
71.08472220445104
 20
-51.72604165373516
 10
74.1715277592349
 20
-55.20972220841979
 10
74.1715277592349
 20
-55.20972220841979
 10
74.1715277592349
 20
-55.20972220841979
 10
72.28826631222307
 20
-72.90752222569674
 10
72.28826631222307
 20
-72.90752222569674
 10
72.28826631222307
 20
-72.90752222569674
 10
65.99717744660835
 20
-78.19918889104048
 10
65.99717744660835
 20
-78.19918889104048
 10
65.99717744660835
 20
-78.19918889104048
 10
64.64497746864778
 20
-76.08217771535446
 10
64.9388441135396
 20
-73.73055553712292
 10
65.23271075843141
 20
-71.37893335889139
 10
67.16006942765443
 20
-55.1656249862086
 10
67.16006942765443
 20
-55.1656249862086
 10
67.16006942765443
 20
-55.1656249862086
 10
71.08472220445104
 20
-51.72604165373516
 10
71.08472220445104
 20
-51.72604165373516
 97
        0
 75
     2
 76
     1
 98
        0
  0
SPLINE
  5
53
330
45
100
AcDbEntity
  8
Layer 5
370
     0
100
AcDbSpline
210
0.0
220
0.0
230
1.0
 70
    11
 71
     3
 72
    23
 73
    19
 74
     0
 42
0.0000000001
 43
0.0000000001
 40
0.0
 40
0.0
 40
0.0
 40
0.0
 40
1.0
 40
1.0
 40
1.0
 40
2.0
 40
2.0
 40
2.0
 40
3.0
 40
3.0
 40
3.0
 40
4.0
 40
4.0
 40
4.0
 40
5.0
 40
5.0
 40
5.0
 40
6.0
 40
6.0
 40
6.0
 40
6.0
 10
76.96394990480415
 20
-30.10376111443587
 30
0.0
 10
76.96394990480415
 20
-30.10376111443587
 30
0.0
 10
75.05347220345885
 20
-46.91944443271458
 30
0.0
 10
75.05347220345885
 20
-46.91944443271458
 30
0.0
 10
75.05347220345885
 20
-46.91944443271458
 30
0.0
 10
71.30520831550703
 20
-50.35902776518802
 30
0.0
 10
71.30520831550703
 20
-50.35902776518802
 30
0.0
 10
71.30520831550703
 20
-50.35902776518802
 30
0.0
 10
68.11384411274585
 20
-47.03709444353587
 30
0.0
 10
68.11384411274585
 20
-47.03709444353587
 30
0.0
 10
68.11384411274585
 20
-47.03709444353587
 30
0.0
 10
69.93647187921728
 20
-30.51527777014896
 30
0.0
 10
70.17159964608558
 20
-28.16348333714316
 30
0.0
 10
70.40242104359731
 20
-25.85492485247724
 30
0.0
 10
71.70036076766519
 20
-24.57696668222382
 30
0.0
 10
71.70036076766519
 20
-24.57696668222382
 30
0.0
 10
71.70036076766519
 20
-24.57696668222382
 30
0.0
 10
76.96394990480415
 20
-30.10376111443587
 30
0.0
 10
76.96394990480415
 20
-30.10376111443587
 30
0.0
  0
HATCH
  5
54
330
45
100
AcDbEntity
  8
Layer 5
 62
     7
420
 15856114
100
AcDbHatch
 10
0.0
 20
0.0
 30
0.0
210
0.0
220
0.0
230
1.0
  2
SOLID
 70
     1
 71
     0
 91
        1
 92
        1
 93
        1
 72
     4
 94
        3
 73
     0
 74
     1
 95
       23
 96
       19
 40
0.0
 40
0.0
 40
0.0
 40
0.0
 40
1.0
 40
1.0
 40
1.0
 40
2.0
 40
2.0
 40
2.0
 40
3.0
 40
3.0
 40
3.0
 40
4.0
 40
4.0
 40
4.0
 40
5.0
 40
5.0
 40
5.0
 40
6.0
 40
6.0
 40
6.0
 40
6.0
 10
76.96394990480415
 20
-30.10376111443587
 10
76.96394990480415
 20
-30.10376111443587
 10
75.05347220345885
 20
-46.91944443271458
 10
75.05347220345885
 20
-46.91944443271458
 10
75.05347220345885
 20
-46.91944443271458
 10
71.30520831550703
 20
-50.35902776518802
 10
71.30520831550703
 20
-50.35902776518802
 10
71.30520831550703
 20
-50.35902776518802
 10
68.11384411274585
 20
-47.03709444353587
 10
68.11384411274585
 20
-47.03709444353587
 10
68.11384411274585
 20
-47.03709444353587
 10
69.93647187921728
 20
-30.51527777014896
 10
70.17159964608558
 20
-28.16348333714316
 10
70.40242104359731
 20
-25.85492485247724
 10
71.70036076766519
 20
-24.57696668222382
 10
71.70036076766519
 20
-24.57696668222382
 10
71.70036076766519
 20
-24.57696668222382
 10
76.96394990480415
 20
-30.10376111443587
 10
76.96394990480415
 20
-30.10376111443587
 97
        0
 75
     2
 76
     1
 98
        0
  0
POLYLINE
  5
55
330
45
100
AcDbEntity
  8
Layer 5
370
     0
100
AcDb2dPolyline
 66
     1
 10
0.0
 20
0.0
 30
0.0
  0
VERTEX
  5
56
330
55
100
AcDbEntity
  8
Layer 5
370
     0
100
AcDbVertex
100
AcDb2dVertex
 10
71.87674965650999
 20
-51.09403888696608
 30
0.0
  0
VERTEX
  5
57
330
55
100
AcDbEntity
  8
Layer 5
370
     0
100
AcDbVertex
100
AcDb2dVertex
 10
75.43518878322455
 20
-47.86012775496205
 30
0.0
  0
VERTEX
  5
58
330
55
100
AcDbEntity
  8
Layer 5
370
     0
100
AcDbVertex
100
AcDb2dVertex
 10
95.367133222686
 20
-47.97777776578334
 30
0.0
  0
VERTEX
  5
59
330
55
100
AcDbEntity
  8
Layer 5
370
     0
100
AcDbVertex
100
AcDb2dVertex
 10
97.89583330885938
 20
-50.9763888761448
 30
0.0
  0
VERTEX
  5
5A
330
55
100
AcDbEntity
  8
Layer 5
370
     0
100
AcDbVertex
100
AcDb2dVertex
 10
94.23576386532996
 20
-54.72465276409662
 30
0.0
  0
VERTEX
  5
5B
330
55
100
AcDbEntity
  8
Layer 5
370
     0
100
AcDbVertex
100
AcDb2dVertex
 10
75.02367212751145
 20
-54.56290553106414
 30
0.0
  0
VERTEX
  5
5C
330
55
100
AcDbEntity
  8
Layer 5
370
     0
100
AcDbVertex
100
AcDb2dVertex
 10
71.87674965650999
 20
-51.09403888696608
 30
0.0
  0
SEQEND
  5
5D
330
55
100
AcDbEntity
  8
Layer 5
370
     0
  0
HATCH
  5
5E
330
45
100
AcDbEntity
  8
Layer 5
 62
     7
420
 15856114
100
AcDbHatch
 10
0.0
 20
0.0
 30
0.0
210
0.0
220
0.0
230
1.0
  2
SOLID
 70
     1
 71
     0
 91
        1
 92
        1
 93
        6
 72
     1
 10
71.87674965650999
 20
-51.09403888696608
 11
75.43518878322455
 21
-47.86012775496205
 72
     1
 10
75.43518878322455
 20
-47.86012775496205
 11
95.367133222686
 21
-47.97777776578334
 72
     1
 10
95.367133222686
 20
-47.97777776578334
 11
97.89583330885938
 21
-50.9763888761448
 72
     1
 10
97.89583330885938
 20
-50.9763888761448
 11
94.23576386532996
 21
-54.72465276409662
 72
     1
 10
94.23576386532996
 20
-54.72465276409662
 11
75.02367212751145
 21
-54.56290553106414
 72
     1
 10
75.02367212751145
 20
-54.56290553106414
 11
71.87674965650999
 21
-51.09403888696608
 97
        0
 75
     2
 76
     1
 98
        0
  0
ENDBLK
  5
48
330
45
100
AcDbEntity
  8
0
100
AcDbBlockEnd
  0
BLOCK
  5
61
330
5F
100
AcDbEntity
  8
0
100
AcDbBlockBegin
  2
block 3
 70
     0
 71
     0
 10
0.0
 20
0.0
 30
0.0
  3
block 3
  1

  0
SPLINE
  5
63
330
5F
100
AcDbEntity
  8
Layer 5
370
     0
100
AcDbSpline
210
0.0
220
0.0
230
1.0
 70
    11
 71
     3
 72
    23
 73
    19
 74
     0
 42
0.0000000001
 43
0.0000000001
 40
0.0
 40
0.0
 40
0.0
 40
0.0
 40
1.0
 40
1.0
 40
1.0
 40
2.0
 40
2.0
 40
2.0
 40
3.0
 40
3.0
 40
3.0
 40
4.0
 40
4.0
 40
4.0
 40
5.0
 40
5.0
 40
5.0
 40
6.0
 40
6.0
 40
6.0
 40
6.0
 10
165.4634575324189
 20
-22.8130777937759
 30
0.0
 10
167.4633354616064
 20
-22.8130777937759
 30
0.0
 10
185.8653129960684
 20
-22.93055554982292
 30
0.0
 10
187.2764241068267
 20
-22.93055554982292
 30
0.0
 10
190.2164685939389
 20
-22.93055554982292
 30
0.0
 10
191.8625352167913
 20
-25.04722221596042
 30
0.0
 10
191.8625352167913
 20
-25.04722221596042
 30
0.0
 10
191.8625352167913
 20
-25.04722221596042
 30
0.0
 10
186.9546521885044
 20
-29.45694443708021
 30
0.0
 10
186.9546521885044
 20
-29.45694443708021
 30
0.0
 10
186.9546521885044
 20
-29.45694443708021
 30
0.0
 10
167.4933077923281
 20
-29.3982055590567
 30
0.0
 10
167.4933077923281
 20
-29.3982055590567
 30
0.0
 10
167.4933077923281
 20
-29.3982055590567
 30
0.0
 10
162.3473686660104
 20
-23.98888888289167
 30
0.0
 10
162.3473686660104
 20
-23.98888888289167
 30
0.0
 10
162.3473686660104
 20
-23.98888888289167
 30
0.0
 10
163.6995686439709
 20
-22.8130777937759
 30
0.0
 10
165.4634575324189
 20
-22.8130777937759
 30
0.0
  0
HATCH
  5
64
330
5F
100
AcDbEntity
  8
Layer 5
 62
     7
420
 15856114
100
AcDbHatch
 10
0.0
 20
0.0
 30
0.0
210
0.0
220
0.0
230
1.0
  2
SOLID
 70
     1
 71
     0
 91
        1
 92
        1
 93
        1
 72
     4
 94
        3
 73
     0
 74
     1
 95
       23
 96
       19
 40
0.0
 40
0.0
 40
0.0
 40
0.0
 40
1.0
 40
1.0
 40
1.0
 40
2.0
 40
2.0
 40
2.0
 40
3.0
 40
3.0
 40
3.0
 40
4.0
 40
4.0
 40
4.0
 40
5.0
 40
5.0
 40
5.0
 40
6.0
 40
6.0
 40
6.0
 40
6.0
 10
165.4634575324189
 20
-22.8130777937759
 10
167.4633354616064
 20
-22.8130777937759
 10
185.8653129960684
 20
-22.93055554982292
 10
187.2764241068267
 20
-22.93055554982292
 10
190.2164685939389
 20
-22.93055554982292
 10
191.8625352167913
 20
-25.04722221596042
 10
191.8625352167913
 20
-25.04722221596042
 10
191.8625352167913
 20
-25.04722221596042
 10
186.9546521885044
 20
-29.45694443708021
 10
186.9546521885044
 20
-29.45694443708021
 10
186.9546521885044
 20
-29.45694443708021
 10
167.4933077923281
 20
-29.3982055590567
 10
167.4933077923281
 20
-29.3982055590567
 10
167.4933077923281
 20
-29.3982055590567
 10
162.3473686660104
 20
-23.98888888289167
 10
162.3473686660104
 20
-23.98888888289167
 10
162.3473686660104
 20
-23.98888888289167
 10
163.6995686439709
 20
-22.8130777937759
 10
165.4634575324189
 20
-22.8130777937759
 97
        0
 75
     2
 76
     1
 98
        0
  0
SPLINE
  5
65
330
5F
100
AcDbEntity
  8
Layer 5
370
     0
100
AcDbSpline
210
0.0
220
0.0
230
1.0
 70
    11
 71
     3
 72
    23
 73
    19
 74
     0
 42
0.0000000001
 43
0.0000000001
 40
0.0
 40
0.0
 40
0.0
 40
0.0
 40
1.0
 40
1.0
 40
1.0
 40
2.0
 40
2.0
 40
2.0
 40
3.0
 40
3.0
 40
3.0
 40
4.0
 40
4.0
 40
4.0
 40
5.0
 40
5.0
 40
5.0
 40
6.0
 40
6.0
 40
6.0
 40
6.0
 10
194.0970241485244
 20
-30.57418890294673
 30
0.0
 10
194.0970241485244
 20
-30.57418890294673
 30
0.0
 10
192.7465467183064
 20
-46.5225694328138
 30
0.0
 10
192.7465467183064
 20
-46.5225694328138
 30
0.0
 10
192.7465467183064
 20
-46.5225694328138
 30
0.0
 10
188.7777967192986
 20
-50.35902776518802
 30
0.0
 10
188.7777967192986
 20
-50.35902776518802
 30
0.0
 10
188.7777967192986
 20
-50.35902776518802
 30
0.0
 10
185.9245686384147
 20
-47.09583332155938
 30
0.0
 10
185.9245686384147
 20
-47.09583332155938
 30
0.0
 10
185.9245686384147
 20
-47.09583332155938
 30
0.0
 10
187.335679749173
 20
-30.28015000328066
 30
0.0
 10
187.335679749173
 20
-30.28015000328066
 30
0.0
 10
187.335679749173
 20
-30.28015000328066
 30
0.0
 10
192.5095241489212
 20
-25.63530001529256
 30
0.0
 10
192.5095241489212
 20
-25.63530001529256
 30
0.0
 10
192.5095241489212
 20
-25.63530001529256
 30
0.0
 10
194.2148464141199
 20
-27.86961669225135
 30
0.0
 10
194.0970241485244
 20
-30.57418890294673
 30
0.0
  0
HATCH
  5
66
330
5F
100
AcDbEntity
  8
Layer 5
 62
     7
420
 15856114
100
AcDbHatch
 10
0.0
 20
0.0
 30
0.0
210
0.0
220
0.0
230
1.0
  2
SOLID
 70
     1
 71
     0
 91
        1
 92
        1
 93
        1
 72
     4
 94
        3
 73
     0
 74
     1
 95
       23
 96
       19
 40
0.0
 40
0.0
 40
0.0
 40
0.0
 40
1.0
 40
1.0
 40
1.0
 40
2.0
 40
2.0
 40
2.0
 40
3.0
 40
3.0
 40
3.0
 40
4.0
 40
4.0
 40
4.0
 40
5.0
 40
5.0
 40
5.0
 40
6.0
 40
6.0
 40
6.0
 40
6.0
 10
194.0970241485244
 20
-30.57418890294673
 10
194.0970241485244
 20
-30.57418890294673
 10
192.7465467183064
 20
-46.5225694328138
 10
192.7465467183064
 20
-46.5225694328138
 10
192.7465467183064
 20
-46.5225694328138
 10
188.7777967192986
 20
-50.35902776518802
 10
188.7777967192986
 20
-50.35902776518802
 10
188.7777967192986
 20
-50.35902776518802
 10
185.9245686384147
 20
-47.09583332155938
 10
185.9245686384147
 20
-47.09583332155938
 10
185.9245686384147
 20
-47.09583332155938
 10
187.335679749173
 20
-30.28015000328066
 10
187.335679749173
 20
-30.28015000328066
 10
187.335679749173
 20
-30.28015000328066
 10
192.5095241489212
 20
-25.63530001529256
 10
192.5095241489212
 20
-25.63530001529256
 10
192.5095241489212
 20
-25.63530001529256
 10
194.2148464141199
 20
-27.86961669225135
 10
194.0970241485244
 20
-30.57418890294673
 97
        0
 75
     2
 76
     1
 98
        0
  0
SPLINE
  5
67
330
5F
100
AcDbEntity
  8
Layer 5
370
     0
100
AcDbSpline
210
0.0
220
0.0
230
1.0
 70
    11
 71
     3
 72
    23
 73
    19
 74
     0
 42
0.0000000001
 43
0.0000000001
 40
0.0
 40
0.0
 40
0.0
 40
0.0
 40
1.0
 40
1.0
 40
1.0
 40
2.0
 40
2.0
 40
2.0
 40
3.0
 40
3.0
 40
3.0
 40
4.0
 40
4.0
 40
4.0
 40
5.0
 40
5.0
 40
5.0
 40
6.0
 40
6.0
 40
6.0
 40
6.0
 10
188.645505052665
 20
-51.72604165373516
 30
0.0
 10
188.645505052665
 20
-51.72604165373516
 30
0.0
 10
191.8935410761586
 20
-55.68014999693066
 30
0.0
 10
191.8935410761586
 20
-55.68014999693066
 30
0.0
 10
191.8935410761586
 20
-55.68014999693066
 30
0.0
 10
190.6946478472916
 20
-73.0739203376343
 30
0.0
 10
190.5692463716285
 20
-75.083100024632
 30
0.0
 10
190.3928574827837
 20
-77.90532224614867
 30
0.0
 10
188.7467908599314
 20
-78.78726669037263
 30
0.0
 10
188.7467908599314
 20
-78.78726669037263
 30
0.0
 10
188.7467908599314
 20
-78.78726669037263
 30
0.0
 10
183.7210855660489
 20
-72.78969996010119
 30
0.0
 10
183.7210855660489
 20
-72.78969996010119
 30
0.0
 10
183.7210855660489
 20
-72.78969996010119
 30
0.0
 10
184.9558077879624
 20
-55.50376110808587
 30
0.0
 10
184.9558077879624
 20
-55.50376110808587
 30
0.0
 10
184.9558077879624
 20
-55.50376110808587
 30
0.0
 10
188.645505052665
 20
-51.72604165373516
 30
0.0
 10
188.645505052665
 20
-51.72604165373516
 30
0.0
  0
HATCH
  5
68
330
5F
100
AcDbEntity
  8
Layer 5
 62
     7
420
 15856114
100
AcDbHatch
 10
0.0
 20
0.0
 30
0.0
210
0.0
220
0.0
230
1.0
  2
SOLID
 70
     1
 71
     0
 91
        1
 92
        1
 93
        1
 72
     4
 94
        3
 73
     0
 74
     1
 95
       23
 96
       19
 40
0.0
 40
0.0
 40
0.0
 40
0.0
 40
1.0
 40
1.0
 40
1.0
 40
2.0
 40
2.0
 40
2.0
 40
3.0
 40
3.0
 40
3.0
 40
4.0
 40
4.0
 40
4.0
 40
5.0
 40
5.0
 40
5.0
 40
6.0
 40
6.0
 40
6.0
 40
6.0
 10
188.645505052665
 20
-51.72604165373516
 10
188.645505052665
 20
-51.72604165373516
 10
191.8935410761586
 20
-55.68014999693066
 10
191.8935410761586
 20
-55.68014999693066
 10
191.8935410761586
 20
-55.68014999693066
 10
190.6946478472916
 20
-73.0739203376343
 10
190.5692463716285
 20
-75.083100024632
 10
190.3928574827837
 20
-77.90532224614867
 10
188.7467908599314
 20
-78.78726669037263
 10
188.7467908599314
 20
-78.78726669037263
 10
188.7467908599314
 20
-78.78726669037263
 10
183.7210855660489
 20
-72.78969996010119
 10
183.7210855660489
 20
-72.78969996010119
 10
183.7210855660489
 20
-72.78969996010119
 10
184.9558077879624
 20
-55.50376110808587
 10
184.9558077879624
 20
-55.50376110808587
 10
184.9558077879624
 20
-55.50376110808587
 10
188.645505052665
 20
-51.72604165373516
 10
188.645505052665
 20
-51.72604165373516
 97
        0
 75
     2
 76
     1
 98
        0
  0
SPLINE
  5
69
330
5F
100
AcDbEntity
  8
Layer 5
370
     0
100
AcDbSpline
210
0.0
220
0.0
230
1.0
 70
    11
 71
     3
 72
    23
 73
    19
 74
     0
 42
0.0000000001
 43
0.0000000001
 40
0.0
 40
0.0
 40
0.0
 40
0.0
 40
1.0
 40
1.0
 40
1.0
 40
2.0
 40
2.0
 40
2.0
 40
3.0
 40
3.0
 40
3.0
 40
4.0
 40
4.0
 40
4.0
 40
5.0
 40
5.0
 40
5.0
 40
6.0
 40
6.0
 40
6.0
 40
6.0
 10
183.1609130401473
 20
-73.55416664827813
 30
0.0
 10
183.1609130401473
 20
-73.55416664827813
 30
0.0
 10
188.0412353045522
 20
-79.37499998015625
 30
0.0
 10
188.0412353045522
 20
-79.37499998015625
 30
0.0
 10
188.0412353045522
 20
-79.37499998015625
 30
0.0
 10
186.8650797058879
 20
-80.60972220206979
 30
0.0
 10
183.984290861122
 20
-80.60972220206979
 30
0.0
 10
181.9227457227485
 20
-80.60972220206979
 30
0.0
 10
163.817046400018
 20
-80.60972220206979
 30
0.0
 10
161.1126464440968
 20
-80.60972220206979
 30
0.0
 10
158.1140353337354
 20
-80.60972220206979
 30
0.0
 10
156.8793131118219
 20
-79.02222220246666
 30
0.0
 10
156.8793131118219
 20
-79.02222220246666
 30
0.0
 10
156.8793131118219
 20
-79.02222220246666
 30
0.0
 10
162.935101955794
 20
-73.6130777810759
 30
0.0
 10
162.935101955794
 20
-73.6130777810759
 30
0.0
 10
162.935101955794
 20
-73.6130777810759
 30
0.0
 10
183.1609130401473
 20
-73.55416664827813
 30
0.0
 10
183.1609130401473
 20
-73.55416664827813
 30
0.0
  0
HATCH
  5
6A
330
5F
100
AcDbEntity
  8
Layer 5
 62
     7
420
 15856114
100
AcDbHatch
 10
0.0
 20
0.0
 30
0.0
210
0.0
220
0.0
230
1.0
  2
SOLID
 70
     1
 71
     0
 91
        1
 92
        1
 93
        1
 72
     4
 94
        3
 73
     0
 74
     1
 95
       23
 96
       19
 40
0.0
 40
0.0
 40
0.0
 40
0.0
 40
1.0
 40
1.0
 40
1.0
 40
2.0
 40
2.0
 40
2.0
 40
3.0
 40
3.0
 40
3.0
 40
4.0
 40
4.0
 40
4.0
 40
5.0
 40
5.0
 40
5.0
 40
6.0
 40
6.0
 40
6.0
 40
6.0
 10
183.1609130401473
 20
-73.55416664827813
 10
183.1609130401473
 20
-73.55416664827813
 10
188.0412353045522
 20
-79.37499998015625
 10
188.0412353045522
 20
-79.37499998015625
 10
188.0412353045522
 20
-79.37499998015625
 10
186.8650797058879
 20
-80.60972220206979
 10
183.984290861122
 20
-80.60972220206979
 10
181.9227457227485
 20
-80.60972220206979
 10
163.817046400018
 20
-80.60972220206979
 10
161.1126464440968
 20
-80.60972220206979
 10
158.1140353337354
 20
-80.60972220206979
 10
156.8793131118219
 20
-79.02222220246666
 10
156.8793131118219
 20
-79.02222220246666
 10
156.8793131118219
 20
-79.02222220246666
 10
162.935101955794
 20
-73.6130777810759
 10
162.935101955794
 20
-73.6130777810759
 10
162.935101955794
 20
-73.6130777810759
 10
183.1609130401473
 20
-73.55416664827813
 10
183.1609130401473
 20
-73.55416664827813
 97
        0
 75
     2
 76
     1
 98
        0
  0
SPLINE
  5
6B
330
5F
100
AcDbEntity
  8
Layer 5
370
     0
100
AcDbSpline
210
0.0
220
0.0
230
1.0
 70
    11
 71
     3
 72
    23
 73
    19
 74
     0
 42
0.0000000001
 43
0.0000000001
 40
0.0
 40
0.0
 40
0.0
 40
0.0
 40
1.0
 40
1.0
 40
1.0
 40
2.0
 40
2.0
 40
2.0
 40
3.0
 40
3.0
 40
3.0
 40
4.0
 40
4.0
 40
4.0
 40
5.0
 40
5.0
 40
5.0
 40
6.0
 40
6.0
 40
6.0
 40
6.0
 10
161.0847411706663
 20
-51.72604165373516
 30
0.0
 10
161.0847411706663
 20
-51.72604165373516
 30
0.0
 10
164.1715467254502
 20
-55.20972220841979
 30
0.0
 10
164.1715467254502
 20
-55.20972220841979
 30
0.0
 10
164.1715467254502
 20
-55.20972220841979
 30
0.0
 10
162.2884575332126
 20
-72.90752222569674
 30
0.0
 10
162.2884575332126
 20
-72.90752222569674
 30
0.0
 10
162.2884575332126
 20
-72.90752222569674
 30
0.0
 10
155.9973686675979
 20
-78.19918889104048
 30
0.0
 10
155.9973686675979
 20
-78.19918889104048
 30
0.0
 10
155.9973686675979
 20
-78.19918889104048
 30
0.0
 10
154.6451686896373
 20
-76.08217771535446
 30
0.0
 10
154.9390353345291
 20
-73.73055553712292
 30
0.0
 10
155.2329019794209
 20
-71.37893335889139
 30
0.0
 10
157.1600883938697
 20
-55.1656249862086
 30
0.0
 10
157.1600883938697
 20
-55.1656249862086
 30
0.0
 10
157.1600883938697
 20
-55.1656249862086
 30
0.0
 10
161.0847411706663
 20
-51.72604165373516
 30
0.0
 10
161.0847411706663
 20
-51.72604165373516
 30
0.0
  0
HATCH
  5
6C
330
5F
100
AcDbEntity
  8
Layer 5
 62
     7
420
 15856114
100
AcDbHatch
 10
0.0
 20
0.0
 30
0.0
210
0.0
220
0.0
230
1.0
  2
SOLID
 70
     1
 71
     0
 91
        1
 92
        1
 93
        1
 72
     4
 94
        3
 73
     0
 74
     1
 95
       23
 96
       19
 40
0.0
 40
0.0
 40
0.0
 40
0.0
 40
1.0
 40
1.0
 40
1.0
 40
2.0
 40
2.0
 40
2.0
 40
3.0
 40
3.0
 40
3.0
 40
4.0
 40
4.0
 40
4.0
 40
5.0
 40
5.0
 40
5.0
 40
6.0
 40
6.0
 40
6.0
 40
6.0
 10
161.0847411706663
 20
-51.72604165373516
 10
161.0847411706663
 20
-51.72604165373516
 10
164.1715467254502
 20
-55.20972220841979
 10
164.1715467254502
 20
-55.20972220841979
 10
164.1715467254502
 20
-55.20972220841979
 10
162.2884575332126
 20
-72.90752222569674
 10
162.2884575332126
 20
-72.90752222569674
 10
162.2884575332126
 20
-72.90752222569674
 10
155.9973686675979
 20
-78.19918889104048
 10
155.9973686675979
 20
-78.19918889104048
 10
155.9973686675979
 20
-78.19918889104048
 10
154.6451686896373
 20
-76.08217771535446
 10
154.9390353345291
 20
-73.73055553712292
 10
155.2329019794209
 20
-71.37893335889139
 10
157.1600883938697
 20
-55.1656249862086
 10
157.1600883938697
 20
-55.1656249862086
 10
157.1600883938697
 20
-55.1656249862086
 10
161.0847411706663
 20
-51.72604165373516
 10
161.0847411706663
 20
-51.72604165373516
 97
        0
 75
     2
 76
     1
 98
        0
  0
SPLINE
  5
6D
330
5F
100
AcDbEntity
  8
Layer 5
370
     0
100
AcDbSpline
210
0.0
220
0.0
230
1.0
 70
    11
 71
     3
 72
    23
 73
    19
 74
     0
 42
0.0000000001
 43
0.0000000001
 40
0.0
 40
0.0
 40
0.0
 40
0.0
 40
1.0
 40
1.0
 40
1.0
 40
2.0
 40
2.0
 40
2.0
 40
3.0
 40
3.0
 40
3.0
 40
4.0
 40
4.0
 40
4.0
 40
5.0
 40
5.0
 40
5.0
 40
6.0
 40
6.0
 40
6.0
 40
6.0
 10
166.9641411257937
 20
-30.10376111443587
 30
0.0
 10
166.9641411257937
 20
-30.10376111443587
 30
0.0
 10
165.0534911696741
 20
-46.91944443271458
 30
0.0
 10
165.0534911696741
 20
-46.91944443271458
 30
0.0
 10
165.0534911696741
 20
-46.91944443271458
 30
0.0
 10
161.3052272817223
 20
-50.35902776518802
 30
0.0
 10
161.3052272817223
 20
-50.35902776518802
 30
0.0
 10
161.3052272817223
 20
-50.35902776518802
 30
0.0
 10
158.1140353337354
 20
-47.03709444353587
 30
0.0
 10
158.1140353337354
 20
-47.03709444353587
 30
0.0
 10
158.1140353337354
 20
-47.03709444353587
 30
0.0
 10
159.9364908454326
 20
-30.51527777014896
 30
0.0
 10
160.1717908670751
 20
-28.16348333714316
 30
0.0
 10
160.4026122645868
 20
-25.85492485247724
 30
0.0
 10
161.7003797338805
 20
-24.57696668222382
 30
0.0
 10
161.7003797338805
 20
-24.57696668222382
 30
0.0
 10
161.7003797338805
 20
-24.57696668222382
 30
0.0
 10
166.9641411257937
 20
-30.10376111443587
 30
0.0
 10
166.9641411257937
 20
-30.10376111443587
 30
0.0
  0
HATCH
  5
6E
330
5F
100
AcDbEntity
  8
Layer 5
 62
     7
420
 15856114
100
AcDbHatch
 10
0.0
 20
0.0
 30
0.0
210
0.0
220
0.0
230
1.0
  2
SOLID
 70
     1
 71
     0
 91
        1
 92
        1
 93
        1
 72
     4
 94
        3
 73
     0
 74
     1
 95
       23
 96
       19
 40
0.0
 40
0.0
 40
0.0
 40
0.0
 40
1.0
 40
1.0
 40
1.0
 40
2.0
 40
2.0
 40
2.0
 40
3.0
 40
3.0
 40
3.0
 40
4.0
 40
4.0
 40
4.0
 40
5.0
 40
5.0
 40
5.0
 40
6.0
 40
6.0
 40
6.0
 40
6.0
 10
166.9641411257937
 20
-30.10376111443587
 10
166.9641411257937
 20
-30.10376111443587
 10
165.0534911696741
 20
-46.91944443271458
 10
165.0534911696741
 20
-46.91944443271458
 10
165.0534911696741
 20
-46.91944443271458
 10
161.3052272817223
 20
-50.35902776518802
 10
161.3052272817223
 20
-50.35902776518802
 10
161.3052272817223
 20
-50.35902776518802
 10
158.1140353337354
 20
-47.03709444353587
 10
158.1140353337354
 20
-47.03709444353587
 10
158.1140353337354
 20
-47.03709444353587
 10
159.9364908454326
 20
-30.51527777014896
 10
160.1717908670751
 20
-28.16348333714316
 10
160.4026122645868
 20
-25.85492485247724
 10
161.7003797338805
 20
-24.57696668222382
 10
161.7003797338805
 20
-24.57696668222382
 10
161.7003797338805
 20
-24.57696668222382
 10
166.9641411257937
 20
-30.10376111443587
 10
166.9641411257937
 20
-30.10376111443587
 97
        0
 75
     2
 76
     1
 98
        0
  0
POLYLINE
  5
6F
330
5F
100
AcDbEntity
  8
Layer 5
370
     0
100
AcDb2dPolyline
 66
     1
 10
0.0
 20
0.0
 30
0.0
  0
VERTEX
  5
70
330
6F
100
AcDbEntity
  8
Layer 5
370
     0
100
AcDbVertex
100
AcDb2dVertex
 10
161.8767686227253
 20
-51.09403888696608
 30
0.0
  0
VERTEX
  5
71
330
6F
100
AcDbEntity
  8
Layer 5
370
     0
100
AcDbVertex
100
AcDb2dVertex
 10
165.4352077494398
 20
-47.86012775496205
 30
0.0
  0
VERTEX
  5
72
330
6F
100
AcDbEntity
  8
Layer 5
370
     0
100
AcDbVertex
100
AcDb2dVertex
 10
185.3671521889013
 20
-47.97777776578334
 30
0.0
  0
VERTEX
  5
73
330
6F
100
AcDbEntity
  8
Layer 5
370
     0
100
AcDbVertex
100
AcDb2dVertex
 10
187.8958522750746
 20
-50.9763888761448
 30
0.0
  0
VERTEX
  5
74
330
6F
100
AcDbEntity
  8
Layer 5
370
     0
100
AcDbVertex
100
AcDb2dVertex
 10
184.2357828315452
 20
-54.72465276409662
 30
0.0
  0
VERTEX
  5
75
330
6F
100
AcDbEntity
  8
Layer 5
370
     0
100
AcDbVertex
100
AcDb2dVertex
 10
165.023863348501
 20
-54.56290553106414
 30
0.0
  0
VERTEX
  5
76
330
6F
100
AcDbEntity
  8
Layer 5
370
     0
100
AcDbVertex
100
AcDb2dVertex
 10
161.8767686227253
 20
-51.09403888696608
 30
0.0
  0
SEQEND
  5
77
330
6F
100
AcDbEntity
  8
Layer 5
370
     0
  0
HATCH
  5
78
330
5F
100
AcDbEntity
  8
Layer 5
 62
     7
420
 15856114
100
AcDbHatch
 10
0.0
 20
0.0
 30
0.0
210
0.0
220
0.0
230
1.0
  2
SOLID
 70
     1
 71
     0
 91
        1
 92
        1
 93
        6
 72
     1
 10
161.8767686227253
 20
-51.09403888696608
 11
165.4352077494398
 21
-47.86012775496205
 72
     1
 10
165.4352077494398
 20
-47.86012775496205
 11
185.3671521889013
 21
-47.97777776578334
 72
     1
 10
185.3671521889013
 20
-47.97777776578334
 11
187.8958522750746
 21
-50.9763888761448
 72
     1
 10
187.8958522750746
 20
-50.9763888761448
 11
184.2357828315452
 21
-54.72465276409662
 72
     1
 10
184.2357828315452
 20
-54.72465276409662
 11
165.023863348501
 21
-54.56290553106414
 72
     1
 10
165.023863348501
 20
-54.56290553106414
 11
161.8767686227253
 21
-51.09403888696608
 97
        0
 75
     2
 76
     1
 98
        0
  0
ENDBLK
  5
62
330
5F
100
AcDbEntity
  8
0
100
AcDbBlockEnd
  0
BLOCK
  5
7B
330
79
100
AcDbEntity
  8
0
100
AcDbBlockBegin
  2
block 4
 70
     0
 71
     0
 10
0.0
 20
0.0
 30
0.0
  3
block 4
  1

  0
SPLINE
  5
7D
330
79
100
AcDbEntity
  8
Layer 5
370
     0
100
AcDbSpline
210
0.0
220
0.0
230
1.0
 70
    11
 71
     3
 72
    23
 73
    19
 74
     0
 42
0.0000000001
 43
0.0000000001
 40
0.0
 40
0.0
 40
0.0
 40
0.0
 40
1.0
 40
1.0
 40
1.0
 40
2.0
 40
2.0
 40
2.0
 40
3.0
 40
3.0
 40
3.0
 40
4.0
 40
4.0
 40
4.0
 40
5.0
 40
5.0
 40
5.0
 40
6.0
 40
6.0
 40
6.0
 40
6.0
 10
255.4634764986342
 20
-22.8130777937759
 30
0.0
 10
257.4633544278217
 20
-22.8130777937759
 30
0.0
 10
275.8653319622837
 20
-22.93055554982292
 30
0.0
 10
277.276443073042
 20
-22.93055554982292
 30
0.0
 10
280.2164875601542
 20
-22.93055554982292
 30
0.0
 10
281.8625541830066
 20
-25.04722221596042
 30
0.0
 10
281.8625541830066
 20
-25.04722221596042
 30
0.0
 10
281.8625541830066
 20
-25.04722221596042
 30
0.0
 10
276.9546711547197
 20
-29.45694443708021
 30
0.0
 10
276.9546711547197
 20
-29.45694443708021
 30
0.0
 10
276.9546711547197
 20
-29.45694443708021
 30
0.0
 10
257.4933267585433
 20
-29.3982055590567
 30
0.0
 10
257.4933267585433
 20
-29.3982055590567
 30
0.0
 10
257.4933267585433
 20
-29.3982055590567
 30
0.0
 10
252.3473876322257
 20
-23.98888888289167
 30
0.0
 10
252.3473876322257
 20
-23.98888888289167
 30
0.0
 10
252.3473876322257
 20
-23.98888888289167
 30
0.0
 10
253.6995876101862
 20
-22.8130777937759
 30
0.0
 10
255.4634764986342
 20
-22.8130777937759
 30
0.0
  0
HATCH
  5
7E
330
79
100
AcDbEntity
  8
Layer 5
 62
     7
420
 15856114
100
AcDbHatch
 10
0.0
 20
0.0
 30
0.0
210
0.0
220
0.0
230
1.0
  2
SOLID
 70
     1
 71
     0
 91
        1
 92
        1
 93
        1
 72
     4
 94
        3
 73
     0
 74
     1
 95
       23
 96
       19
 40
0.0
 40
0.0
 40
0.0
 40
0.0
 40
1.0
 40
1.0
 40
1.0
 40
2.0
 40
2.0
 40
2.0
 40
3.0
 40
3.0
 40
3.0
 40
4.0
 40
4.0
 40
4.0
 40
5.0
 40
5.0
 40
5.0
 40
6.0
 40
6.0
 40
6.0
 40
6.0
 10
255.4634764986342
 20
-22.8130777937759
 10
257.4633544278217
 20
-22.8130777937759
 10
275.8653319622837
 20
-22.93055554982292
 10
277.276443073042
 20
-22.93055554982292
 10
280.2164875601542
 20
-22.93055554982292
 10
281.8625541830066
 20
-25.04722221596042
 10
281.8625541830066
 20
-25.04722221596042
 10
281.8625541830066
 20
-25.04722221596042
 10
276.9546711547197
 20
-29.45694443708021
 10
276.9546711547197
 20
-29.45694443708021
 10
276.9546711547197
 20
-29.45694443708021
 10
257.4933267585433
 20
-29.3982055590567
 10
257.4933267585433
 20
-29.3982055590567
 10
257.4933267585433
 20
-29.3982055590567
 10
252.3473876322257
 20
-23.98888888289167
 10
252.3473876322257
 20
-23.98888888289167
 10
252.3473876322257
 20
-23.98888888289167
 10
253.6995876101862
 20
-22.8130777937759
 10
255.4634764986342
 20
-22.8130777937759
 97
        0
 75
     2
 76
     1
 98
        0
  0
SPLINE
  5
7F
330
79
100
AcDbEntity
  8
Layer 5
370
     0
100
AcDbSpline
210
0.0
220
0.0
230
1.0
 70
    11
 71
     3
 72
    23
 73
    19
 74
     0
 42
0.0000000001
 43
0.0000000001
 40
0.0
 40
0.0
 40
0.0
 40
0.0
 40
1.0
 40
1.0
 40
1.0
 40
2.0
 40
2.0
 40
2.0
 40
3.0
 40
3.0
 40
3.0
 40
4.0
 40
4.0
 40
4.0
 40
5.0
 40
5.0
 40
5.0
 40
6.0
 40
6.0
 40
6.0
 40
6.0
 10
284.0970431147396
 20
-30.57418890294673
 30
0.0
 10
284.0970431147396
 20
-30.57418890294673
 30
0.0
 10
282.7465656845217
 20
-46.5225694328138
 30
0.0
 10
282.7465656845217
 20
-46.5225694328138
 30
0.0
 10
282.7465656845217
 20
-46.5225694328138
 30
0.0
 10
278.7778156855139
 20
-50.35902776518802
 30
0.0
 10
278.7778156855139
 20
-50.35902776518802
 30
0.0
 10
278.7778156855139
 20
-50.35902776518802
 30
0.0
 10
275.9245876046299
 20
-47.09583332155938
 30
0.0
 10
275.9245876046299
 20
-47.09583332155938
 30
0.0
 10
275.9245876046299
 20
-47.09583332155938
 30
0.0
 10
277.3356987153883
 20
-30.28015000328066
 30
0.0
 10
277.3356987153883
 20
-30.28015000328066
 30
0.0
 10
277.3356987153883
 20
-30.28015000328066
 30
0.0
 10
282.5095431151365
 20
-25.63530001529256
 30
0.0
 10
282.5095431151365
 20
-25.63530001529256
 30
0.0
 10
282.5095431151365
 20
-25.63530001529256
 30
0.0
 10
284.2148653803352
 20
-27.86961669225135
 30
0.0
 10
284.0970431147396
 20
-30.57418890294673
 30
0.0
  0
HATCH
  5
80
330
79
100
AcDbEntity
  8
Layer 5
 62
     7
420
 15856114
100
AcDbHatch
 10
0.0
 20
0.0
 30
0.0
210
0.0
220
0.0
230
1.0
  2
SOLID
 70
     1
 71
     0
 91
        1
 92
        1
 93
        1
 72
     4
 94
        3
 73
     0
 74
     1
 95
       23
 96
       19
 40
0.0
 40
0.0
 40
0.0
 40
0.0
 40
1.0
 40
1.0
 40
1.0
 40
2.0
 40
2.0
 40
2.0
 40
3.0
 40
3.0
 40
3.0
 40
4.0
 40
4.0
 40
4.0
 40
5.0
 40
5.0
 40
5.0
 40
6.0
 40
6.0
 40
6.0
 40
6.0
 10
284.0970431147396
 20
-30.57418890294673
 10
284.0970431147396
 20
-30.57418890294673
 10
282.7465656845217
 20
-46.5225694328138
 10
282.7465656845217
 20
-46.5225694328138
 10
282.7465656845217
 20
-46.5225694328138
 10
278.7778156855139
 20
-50.35902776518802
 10
278.7778156855139
 20
-50.35902776518802
 10
278.7778156855139
 20
-50.35902776518802
 10
275.9245876046299
 20
-47.09583332155938
 10
275.9245876046299
 20
-47.09583332155938
 10
275.9245876046299
 20
-47.09583332155938
 10
277.3356987153883
 20
-30.28015000328066
 10
277.3356987153883
 20
-30.28015000328066
 10
277.3356987153883
 20
-30.28015000328066
 10
282.5095431151365
 20
-25.63530001529256
 10
282.5095431151365
 20
-25.63530001529256
 10
282.5095431151365
 20
-25.63530001529256
 10
284.2148653803352
 20
-27.86961669225135
 10
284.0970431147396
 20
-30.57418890294673
 97
        0
 75
     2
 76
     1
 98
        0
  0
SPLINE
  5
81
330
79
100
AcDbEntity
  8
Layer 5
370
     0
100
AcDbSpline
210
0.0
220
0.0
230
1.0
 70
    11
 71
     3
 72
    23
 73
    19
 74
     0
 42
0.0000000001
 43
0.0000000001
 40
0.0
 40
0.0
 40
0.0
 40
0.0
 40
1.0
 40
1.0
 40
1.0
 40
2.0
 40
2.0
 40
2.0
 40
3.0
 40
3.0
 40
3.0
 40
4.0
 40
4.0
 40
4.0
 40
5.0
 40
5.0
 40
5.0
 40
6.0
 40
6.0
 40
6.0
 40
6.0
 10
278.6455240188803
 20
-51.72604165373516
 30
0.0
 10
278.6455240188803
 20
-51.72604165373516
 30
0.0
 10
281.8935600423738
 20
-55.68014999693066
 30
0.0
 10
281.8935600423738
 20
-55.68014999693066
 30
0.0
 10
281.8935600423738
 20
-55.68014999693066
 30
0.0
 10
280.6946668135069
 20
-73.0739203376343
 30
0.0
 10
280.5692653378438
 20
-75.083100024632
 30
0.0
 10
280.392876448999
 20
-77.90532224614867
 30
0.0
 10
278.7468098261467
 20
-78.78726669037263
 30
0.0
 10
278.7468098261467
 20
-78.78726669037263
 30
0.0
 10
278.7468098261467
 20
-78.78726669037263
 30
0.0
 10
273.7211045322642
 20
-72.78969996010119
 30
0.0
 10
273.7211045322642
 20
-72.78969996010119
 30
0.0
 10
273.7211045322642
 20
-72.78969996010119
 30
0.0
 10
274.9558267541777
 20
-55.50376110808587
 30
0.0
 10
274.9558267541777
 20
-55.50376110808587
 30
0.0
 10
274.9558267541777
 20
-55.50376110808587
 30
0.0
 10
278.6455240188803
 20
-51.72604165373516
 30
0.0
 10
278.6455240188803
 20
-51.72604165373516
 30
0.0
  0
HATCH
  5
82
330
79
100
AcDbEntity
  8
Layer 5
 62
     7
420
 15856114
100
AcDbHatch
 10
0.0
 20
0.0
 30
0.0
210
0.0
220
0.0
230
1.0
  2
SOLID
 70
     1
 71
     0
 91
        1
 92
        1
 93
        1
 72
     4
 94
        3
 73
     0
 74
     1
 95
       23
 96
       19
 40
0.0
 40
0.0
 40
0.0
 40
0.0
 40
1.0
 40
1.0
 40
1.0
 40
2.0
 40
2.0
 40
2.0
 40
3.0
 40
3.0
 40
3.0
 40
4.0
 40
4.0
 40
4.0
 40
5.0
 40
5.0
 40
5.0
 40
6.0
 40
6.0
 40
6.0
 40
6.0
 10
278.6455240188803
 20
-51.72604165373516
 10
278.6455240188803
 20
-51.72604165373516
 10
281.8935600423738
 20
-55.68014999693066
 10
281.8935600423738
 20
-55.68014999693066
 10
281.8935600423738
 20
-55.68014999693066
 10
280.6946668135069
 20
-73.0739203376343
 10
280.5692653378438
 20
-75.083100024632
 10
280.392876448999
 20
-77.90532224614867
 10
278.7468098261467
 20
-78.78726669037263
 10
278.7468098261467
 20
-78.78726669037263
 10
278.7468098261467
 20
-78.78726669037263
 10
273.7211045322642
 20
-72.78969996010119
 10
273.7211045322642
 20
-72.78969996010119
 10
273.7211045322642
 20
-72.78969996010119
 10
274.9558267541777
 20
-55.50376110808587
 10
274.9558267541777
 20
-55.50376110808587
 10
274.9558267541777
 20
-55.50376110808587
 10
278.6455240188803
 20
-51.72604165373516
 10
278.6455240188803
 20
-51.72604165373516
 97
        0
 75
     2
 76
     1
 98
        0
  0
SPLINE
  5
83
330
79
100
AcDbEntity
  8
Layer 5
370
     0
100
AcDbSpline
210
0.0
220
0.0
230
1.0
 70
    11
 71
     3
 72
    23
 73
    19
 74
     0
 42
0.0000000001
 43
0.0000000001
 40
0.0
 40
0.0
 40
0.0
 40
0.0
 40
1.0
 40
1.0
 40
1.0
 40
2.0
 40
2.0
 40
2.0
 40
3.0
 40
3.0
 40
3.0
 40
4.0
 40
4.0
 40
4.0
 40
5.0
 40
5.0
 40
5.0
 40
6.0
 40
6.0
 40
6.0
 40
6.0
 10
273.1609320063625
 20
-73.55416664827813
 30
0.0
 10
273.1609320063625
 20
-73.55416664827813
 30
0.0
 10
278.0412542707675
 20
-79.37499998015625
 30
0.0
 10
278.0412542707675
 20
-79.37499998015625
 30
0.0
 10
278.0412542707675
 20
-79.37499998015625
 30
0.0
 10
276.8650986721032
 20
-80.60972220206979
 30
0.0
 10
273.9843098273373
 20
-80.60972220206979
 30
0.0
 10
271.9227646889638
 20
-80.60972220206979
 30
0.0
 10
253.8170653662332
 20
-80.60972220206979
 30
0.0
 10
251.1126654103121
 20
-80.60972220206979
 30
0.0
 10
248.1140542999507
 20
-80.60972220206979
 30
0.0
 10
246.8793320780371
 20
-79.02222220246666
 30
0.0
 10
246.8793320780371
 20
-79.02222220246666
 30
0.0
 10
246.8793320780371
 20
-79.02222220246666
 30
0.0
 10
252.9351209220093
 20
-73.6130777810759
 30
0.0
 10
252.9351209220093
 20
-73.6130777810759
 30
0.0
 10
252.9351209220093
 20
-73.6130777810759
 30
0.0
 10
273.1609320063625
 20
-73.55416664827813
 30
0.0
 10
273.1609320063625
 20
-73.55416664827813
 30
0.0
  0
HATCH
  5
84
330
79
100
AcDbEntity
  8
Layer 5
 62
     7
420
 15856114
100
AcDbHatch
 10
0.0
 20
0.0
 30
0.0
210
0.0
220
0.0
230
1.0
  2
SOLID
 70
     1
 71
     0
 91
        1
 92
        1
 93
        1
 72
     4
 94
        3
 73
     0
 74
     1
 95
       23
 96
       19
 40
0.0
 40
0.0
 40
0.0
 40
0.0
 40
1.0
 40
1.0
 40
1.0
 40
2.0
 40
2.0
 40
2.0
 40
3.0
 40
3.0
 40
3.0
 40
4.0
 40
4.0
 40
4.0
 40
5.0
 40
5.0
 40
5.0
 40
6.0
 40
6.0
 40
6.0
 40
6.0
 10
273.1609320063625
 20
-73.55416664827813
 10
273.1609320063625
 20
-73.55416664827813
 10
278.0412542707675
 20
-79.37499998015625
 10
278.0412542707675
 20
-79.37499998015625
 10
278.0412542707675
 20
-79.37499998015625
 10
276.8650986721032
 20
-80.60972220206979
 10
273.9843098273373
 20
-80.60972220206979
 10
271.9227646889638
 20
-80.60972220206979
 10
253.8170653662332
 20
-80.60972220206979
 10
251.1126654103121
 20
-80.60972220206979
 10
248.1140542999507
 20
-80.60972220206979
 10
246.8793320780371
 20
-79.02222220246666
 10
246.8793320780371
 20
-79.02222220246666
 10
246.8793320780371
 20
-79.02222220246666
 10
252.9351209220093
 20
-73.6130777810759
 10
252.9351209220093
 20
-73.6130777810759
 10
252.9351209220093
 20
-73.6130777810759
 10
273.1609320063625
 20
-73.55416664827813
 10
273.1609320063625
 20
-73.55416664827813
 97
        0
 75
     2
 76
     1
 98
        0
  0
SPLINE
  5
85
330
79
100
AcDbEntity
  8
Layer 5
370
     0
100
AcDbSpline
210
0.0
220
0.0
230
1.0
 70
    11
 71
     3
 72
    23
 73
    19
 74
     0
 42
0.0000000001
 43
0.0000000001
 40
0.0
 40
0.0
 40
0.0
 40
0.0
 40
1.0
 40
1.0
 40
1.0
 40
2.0
 40
2.0
 40
2.0
 40
3.0
 40
3.0
 40
3.0
 40
4.0
 40
4.0
 40
4.0
 40
5.0
 40
5.0
 40
5.0
 40
6.0
 40
6.0
 40
6.0
 40
6.0
 10
251.0847601368816
 20
-51.72604165373516
 30
0.0
 10
251.0847601368816
 20
-51.72604165373516
 30
0.0
 10
254.1715656916654
 20
-55.20972220841979
 30
0.0
 10
254.1715656916654
 20
-55.20972220841979
 30
0.0
 10
254.1715656916654
 20
-55.20972220841979
 30
0.0
 10
252.2884764994279
 20
-72.90752222569674
 30
0.0
 10
252.2884764994279
 20
-72.90752222569674
 30
0.0
 10
252.2884764994279
 20
-72.90752222569674
 30
0.0
 10
245.9973876338132
 20
-78.19918889104048
 30
0.0
 10
245.9973876338132
 20
-78.19918889104048
 30
0.0
 10
245.9973876338132
 20
-78.19918889104048
 30
0.0
 10
244.6451876558526
 20
-76.08217771535446
 30
0.0
 10
244.9390543007444
 20
-73.73055553712292
 30
0.0
 10
245.2329209456362
 20
-71.37893335889139
 30
0.0
 10
247.160107360085
 20
-55.1656249862086
 30
0.0
 10
247.160107360085
 20
-55.1656249862086
 30
0.0
 10
247.160107360085
 20
-55.1656249862086
 30
0.0
 10
251.0847601368816
 20
-51.72604165373516
 30
0.0
 10
251.0847601368816
 20
-51.72604165373516
 30
0.0
  0
HATCH
  5
86
330
79
100
AcDbEntity
  8
Layer 5
 62
     7
420
 15856114
100
AcDbHatch
 10
0.0
 20
0.0
 30
0.0
210
0.0
220
0.0
230
1.0
  2
SOLID
 70
     1
 71
     0
 91
        1
 92
        1
 93
        1
 72
     4
 94
        3
 73
     0
 74
     1
 95
       23
 96
       19
 40
0.0
 40
0.0
 40
0.0
 40
0.0
 40
1.0
 40
1.0
 40
1.0
 40
2.0
 40
2.0
 40
2.0
 40
3.0
 40
3.0
 40
3.0
 40
4.0
 40
4.0
 40
4.0
 40
5.0
 40
5.0
 40
5.0
 40
6.0
 40
6.0
 40
6.0
 40
6.0
 10
251.0847601368816
 20
-51.72604165373516
 10
251.0847601368816
 20
-51.72604165373516
 10
254.1715656916654
 20
-55.20972220841979
 10
254.1715656916654
 20
-55.20972220841979
 10
254.1715656916654
 20
-55.20972220841979
 10
252.2884764994279
 20
-72.90752222569674
 10
252.2884764994279
 20
-72.90752222569674
 10
252.2884764994279
 20
-72.90752222569674
 10
245.9973876338132
 20
-78.19918889104048
 10
245.9973876338132
 20
-78.19918889104048
 10
245.9973876338132
 20
-78.19918889104048
 10
244.6451876558526
 20
-76.08217771535446
 10
244.9390543007444
 20
-73.73055553712292
 10
245.2329209456362
 20
-71.37893335889139
 10
247.160107360085
 20
-55.1656249862086
 10
247.160107360085
 20
-55.1656249862086
 10
247.160107360085
 20
-55.1656249862086
 10
251.0847601368816
 20
-51.72604165373516
 10
251.0847601368816
 20
-51.72604165373516
 97
        0
 75
     2
 76
     1
 98
        0
  0
SPLINE
  5
87
330
79
100
AcDbEntity
  8
Layer 5
370
     0
100
AcDbSpline
210
0.0
220
0.0
230
1.0
 70
    11
 71
     3
 72
    23
 73
    19
 74
     0
 42
0.0000000001
 43
0.0000000001
 40
0.0
 40
0.0
 40
0.0
 40
0.0
 40
1.0
 40
1.0
 40
1.0
 40
2.0
 40
2.0
 40
2.0
 40
3.0
 40
3.0
 40
3.0
 40
4.0
 40
4.0
 40
4.0
 40
5.0
 40
5.0
 40
5.0
 40
6.0
 40
6.0
 40
6.0
 40
6.0
 10
256.964160092009
 20
-30.10376111443587
 30
0.0
 10
256.964160092009
 20
-30.10376111443587
 30
0.0
 10
255.0535101358894
 20
-46.91944443271458
 30
0.0
 10
255.0535101358894
 20
-46.91944443271458
 30
0.0
 10
255.0535101358894
 20
-46.91944443271458
 30
0.0
 10
251.3052462479376
 20
-50.35902776518802
 30
0.0
 10
251.3052462479376
 20
-50.35902776518802
 30
0.0
 10
251.3052462479376
 20
-50.35902776518802
 30
0.0
 10
248.1140542999507
 20
-47.03709444353587
 30
0.0
 10
248.1140542999507
 20
-47.03709444353587
 30
0.0
 10
248.1140542999507
 20
-47.03709444353587
 30
0.0
 10
249.9365098116478
 20
-30.51527777014896
 30
0.0
 10
250.1718098332904
 20
-28.16348333714316
 30
0.0
 10
250.4026312308021
 20
-25.85492485247724
 30
0.0
 10
251.7003987000957
 20
-24.57696668222382
 30
0.0
 10
251.7003987000957
 20
-24.57696668222382
 30
0.0
 10
251.7003987000957
 20
-24.57696668222382
 30
0.0
 10
256.964160092009
 20
-30.10376111443587
 30
0.0
 10
256.964160092009
 20
-30.10376111443587
 30
0.0
  0
HATCH
  5
88
330
79
100
AcDbEntity
  8
Layer 5
 62
     7
420
 15856114
100
AcDbHatch
 10
0.0
 20
0.0
 30
0.0
210
0.0
220
0.0
230
1.0
  2
SOLID
 70
     1
 71
     0
 91
        1
 92
        1
 93
        1
 72
     4
 94
        3
 73
     0
 74
     1
 95
       23
 96
       19
 40
0.0
 40
0.0
 40
0.0
 40
0.0
 40
1.0
 40
1.0
 40
1.0
 40
2.0
 40
2.0
 40
2.0
 40
3.0
 40
3.0
 40
3.0
 40
4.0
 40
4.0
 40
4.0
 40
5.0
 40
5.0
 40
5.0
 40
6.0
 40
6.0
 40
6.0
 40
6.0
 10
256.964160092009
 20
-30.10376111443587
 10
256.964160092009
 20
-30.10376111443587
 10
255.0535101358894
 20
-46.91944443271458
 10
255.0535101358894
 20
-46.91944443271458
 10
255.0535101358894
 20
-46.91944443271458
 10
251.3052462479376
 20
-50.35902776518802
 10
251.3052462479376
 20
-50.35902776518802
 10
251.3052462479376
 20
-50.35902776518802
 10
248.1140542999507
 20
-47.03709444353587
 10
248.1140542999507
 20
-47.03709444353587
 10
248.1140542999507
 20
-47.03709444353587
 10
249.9365098116478
 20
-30.51527777014896
 10
250.1718098332904
 20
-28.16348333714316
 10
250.4026312308021
 20
-25.85492485247724
 10
251.7003987000957
 20
-24.57696668222382
 10
251.7003987000957
 20
-24.57696668222382
 10
251.7003987000957
 20
-24.57696668222382
 10
256.964160092009
 20
-30.10376111443587
 10
256.964160092009
 20
-30.10376111443587
 97
        0
 75
     2
 76
     1
 98
        0
  0
POLYLINE
  5
89
330
79
100
AcDbEntity
  8
Layer 5
370
     0
100
AcDb2dPolyline
 66
     1
 10
0.0
 20
0.0
 30
0.0
  0
VERTEX
  5
8A
330
89
100
AcDbEntity
  8
Layer 5
370
     0
100
AcDbVertex
100
AcDb2dVertex
 10
251.8767875889405
 20
-51.09403888696608
 30
0.0
  0
VERTEX
  5
8B
330
89
100
AcDbEntity
  8
Layer 5
370
     0
100
AcDbVertex
100
AcDb2dVertex
 10
255.4352267156551
 20
-47.86012775496205
 30
0.0
  0
VERTEX
  5
8C
330
89
100
AcDbEntity
  8
Layer 5
370
     0
100
AcDbVertex
100
AcDb2dVertex
 10
275.3671711551166
 20
-47.97777776578334
 30
0.0
  0
VERTEX
  5
8D
330
89
100
AcDbEntity
  8
Layer 5
370
     0
100
AcDbVertex
100
AcDb2dVertex
 10
277.8958712412899
 20
-50.9763888761448
 30
0.0
  0
VERTEX
  5
8E
330
89
100
AcDbEntity
  8
Layer 5
370
     0
100
AcDbVertex
100
AcDb2dVertex
 10
274.2358017977605
 20
-54.72465276409662
 30
0.0
  0
VERTEX
  5
8F
330
89
100
AcDbEntity
  8
Layer 5
370
     0
100
AcDbVertex
100
AcDb2dVertex
 10
255.0238823147163
 20
-54.56290553106414
 30
0.0
  0
VERTEX
  5
90
330
89
100
AcDbEntity
  8
Layer 5
370
     0
100
AcDbVertex
100
AcDb2dVertex
 10
251.8767875889405
 20
-51.09403888696608
 30
0.0
  0
SEQEND
  5
91
330
89
100
AcDbEntity
  8
Layer 5
370
     0
  0
HATCH
  5
92
330
79
100
AcDbEntity
  8
Layer 5
 62
     7
420
 15856114
100
AcDbHatch
 10
0.0
 20
0.0
 30
0.0
210
0.0
220
0.0
230
1.0
  2
SOLID
 70
     1
 71
     0
 91
        1
 92
        1
 93
        6
 72
     1
 10
251.8767875889405
 20
-51.09403888696608
 11
255.4352267156551
 21
-47.86012775496205
 72
     1
 10
255.4352267156551
 20
-47.86012775496205
 11
275.3671711551166
 21
-47.97777776578334
 72
     1
 10
275.3671711551166
 20
-47.97777776578334
 11
277.8958712412899
 21
-50.9763888761448
 72
     1
 10
277.8958712412899
 20
-50.9763888761448
 11
274.2358017977605
 21
-54.72465276409662
 72
     1
 10
274.2358017977605
 20
-54.72465276409662
 11
255.0238823147163
 21
-54.56290553106414
 72
     1
 10
255.0238823147163
 20
-54.56290553106414
 11
251.8767875889405
 21
-51.09403888696608
 97
        0
 75
     2
 76
     1
 98
        0
  0
ENDBLK
  5
7C
330
79
100
AcDbEntity
  8
0
100
AcDbBlockEnd
  0
BLOCK
  5
95
330
93
100
AcDbEntity
  8
0
100
AcDbBlockBegin
  2
block 5
 70
     0
 71
     0
 10
0.0
 20
0.0
 30
0.0
  3
block 5
  1

  0
SPLINE
  5
97
330
93
100
AcDbEntity
  8
Layer 5
370
     0
100
AcDbSpline
210
0.0
220
0.0
230
1.0
 70
    11
 71
     3
 72
    23
 73
    19
 74
     0
 42
0.0000000001
 43
0.0000000001
 40
0.0
 40
0.0
 40
0.0
 40
0.0
 40
1.0
 40
1.0
 40
1.0
 40
2.0
 40
2.0
 40
2.0
 40
3.0
 40
3.0
 40
3.0
 40
4.0
 40
4.0
 40
4.0
 40
5.0
 40
5.0
 40
5.0
 40
6.0
 40
6.0
 40
6.0
 40
6.0
 10
345.4634954648494
 20
-22.8130777937759
 30
0.0
 10
347.463373394037
 20
-22.8130777937759
 30
0.0
 10
365.865350928499
 20
-22.93055554982292
 30
0.0
 10
367.2764620392573
 20
-22.93055554982292
 30
0.0
 10
370.2165065263695
 20
-22.93055554982292
 30
0.0
 10
371.8625731492219
 20
-25.04722221596042
 30
0.0
 10
371.8625731492219
 20
-25.04722221596042
 30
0.0
 10
371.8625731492219
 20
-25.04722221596042
 30
0.0
 10
366.954690120935
 20
-29.45694443708021
 30
0.0
 10
366.954690120935
 20
-29.45694443708021
 30
0.0
 10
366.954690120935
 20
-29.45694443708021
 30
0.0
 10
347.4933457247586
 20
-29.3982055590567
 30
0.0
 10
347.4933457247586
 20
-29.3982055590567
 30
0.0
 10
347.4933457247586
 20
-29.3982055590567
 30
0.0
 10
342.347406598441
 20
-23.98888888289167
 30
0.0
 10
342.347406598441
 20
-23.98888888289167
 30
0.0
 10
342.347406598441
 20
-23.98888888289167
 30
0.0
 10
343.6996065764015
 20
-22.8130777937759
 30
0.0
 10
345.4634954648494
 20
-22.8130777937759
 30
0.0
  0
HATCH
  5
98
330
93
100
AcDbEntity
  8
Layer 5
 62
     7
420
 15856114
100
AcDbHatch
 10
0.0
 20
0.0
 30
0.0
210
0.0
220
0.0
230
1.0
  2
SOLID
 70
     1
 71
     0
 91
        1
 92
        1
 93
        1
 72
     4
 94
        3
 73
     0
 74
     1
 95
       23
 96
       19
 40
0.0
 40
0.0
 40
0.0
 40
0.0
 40
1.0
 40
1.0
 40
1.0
 40
2.0
 40
2.0
 40
2.0
 40
3.0
 40
3.0
 40
3.0
 40
4.0
 40
4.0
 40
4.0
 40
5.0
 40
5.0
 40
5.0
 40
6.0
 40
6.0
 40
6.0
 40
6.0
 10
345.4634954648494
 20
-22.8130777937759
 10
347.463373394037
 20
-22.8130777937759
 10
365.865350928499
 20
-22.93055554982292
 10
367.2764620392573
 20
-22.93055554982292
 10
370.2165065263695
 20
-22.93055554982292
 10
371.8625731492219
 20
-25.04722221596042
 10
371.8625731492219
 20
-25.04722221596042
 10
371.8625731492219
 20
-25.04722221596042
 10
366.954690120935
 20
-29.45694443708021
 10
366.954690120935
 20
-29.45694443708021
 10
366.954690120935
 20
-29.45694443708021
 10
347.4933457247586
 20
-29.3982055590567
 10
347.4933457247586
 20
-29.3982055590567
 10
347.4933457247586
 20
-29.3982055590567
 10
342.347406598441
 20
-23.98888888289167
 10
342.347406598441
 20
-23.98888888289167
 10
342.347406598441
 20
-23.98888888289167
 10
343.6996065764015
 20
-22.8130777937759
 10
345.4634954648494
 20
-22.8130777937759
 97
        0
 75
     2
 76
     1
 98
        0
  0
SPLINE
  5
99
330
93
100
AcDbEntity
  8
Layer 5
370
     0
100
AcDbSpline
210
0.0
220
0.0
230
1.0
 70
    11
 71
     3
 72
    23
 73
    19
 74
     0
 42
0.0000000001
 43
0.0000000001
 40
0.0
 40
0.0
 40
0.0
 40
0.0
 40
1.0
 40
1.0
 40
1.0
 40
2.0
 40
2.0
 40
2.0
 40
3.0
 40
3.0
 40
3.0
 40
4.0
 40
4.0
 40
4.0
 40
5.0
 40
5.0
 40
5.0
 40
6.0
 40
6.0
 40
6.0
 40
6.0
 10
374.0970620809549
 20
-30.57418890294673
 30
0.0
 10
374.0970620809549
 20
-30.57418890294673
 30
0.0
 10
372.746584650737
 20
-46.5225694328138
 30
0.0
 10
372.746584650737
 20
-46.5225694328138
 30
0.0
 10
372.746584650737
 20
-46.5225694328138
 30
0.0
 10
368.7778346517292
 20
-50.35902776518802
 30
0.0
 10
368.7778346517292
 20
-50.35902776518802
 30
0.0
 10
368.7778346517292
 20
-50.35902776518802
 30
0.0
 10
365.9246065708452
 20
-47.09583332155938
 30
0.0
 10
365.9246065708452
 20
-47.09583332155938
 30
0.0
 10
365.9246065708452
 20
-47.09583332155938
 30
0.0
 10
367.3357176816036
 20
-30.28015000328066
 30
0.0
 10
367.3357176816036
 20
-30.28015000328066
 30
0.0
 10
367.3357176816036
 20
-30.28015000328066
 30
0.0
 10
372.5095620813518
 20
-25.63530001529256
 30
0.0
 10
372.5095620813518
 20
-25.63530001529256
 30
0.0
 10
372.5095620813518
 20
-25.63530001529256
 30
0.0
 10
374.2148843465505
 20
-27.86961669225135
 30
0.0
 10
374.0970620809549
 20
-30.57418890294673
 30
0.0
  0
HATCH
  5
9A
330
93
100
AcDbEntity
  8
Layer 5
 62
     7
420
 15856114
100
AcDbHatch
 10
0.0
 20
0.0
 30
0.0
210
0.0
220
0.0
230
1.0
  2
SOLID
 70
     1
 71
     0
 91
        1
 92
        1
 93
        1
 72
     4
 94
        3
 73
     0
 74
     1
 95
       23
 96
       19
 40
0.0
 40
0.0
 40
0.0
 40
0.0
 40
1.0
 40
1.0
 40
1.0
 40
2.0
 40
2.0
 40
2.0
 40
3.0
 40
3.0
 40
3.0
 40
4.0
 40
4.0
 40
4.0
 40
5.0
 40
5.0
 40
5.0
 40
6.0
 40
6.0
 40
6.0
 40
6.0
 10
374.0970620809549
 20
-30.57418890294673
 10
374.0970620809549
 20
-30.57418890294673
 10
372.746584650737
 20
-46.5225694328138
 10
372.746584650737
 20
-46.5225694328138
 10
372.746584650737
 20
-46.5225694328138
 10
368.7778346517292
 20
-50.35902776518802
 10
368.7778346517292
 20
-50.35902776518802
 10
368.7778346517292
 20
-50.35902776518802
 10
365.9246065708452
 20
-47.09583332155938
 10
365.9246065708452
 20
-47.09583332155938
 10
365.9246065708452
 20
-47.09583332155938
 10
367.3357176816036
 20
-30.28015000328066
 10
367.3357176816036
 20
-30.28015000328066
 10
367.3357176816036
 20
-30.28015000328066
 10
372.5095620813518
 20
-25.63530001529256
 10
372.5095620813518
 20
-25.63530001529256
 10
372.5095620813518
 20
-25.63530001529256
 10
374.2148843465505
 20
-27.86961669225135
 10
374.0970620809549
 20
-30.57418890294673
 97
        0
 75
     2
 76
     1
 98
        0
  0
SPLINE
  5
9B
330
93
100
AcDbEntity
  8
Layer 5
370
     0
100
AcDbSpline
210
0.0
220
0.0
230
1.0
 70
    11
 71
     3
 72
    23
 73
    19
 74
     0
 42
0.0000000001
 43
0.0000000001
 40
0.0
 40
0.0
 40
0.0
 40
0.0
 40
1.0
 40
1.0
 40
1.0
 40
2.0
 40
2.0
 40
2.0
 40
3.0
 40
3.0
 40
3.0
 40
4.0
 40
4.0
 40
4.0
 40
5.0
 40
5.0
 40
5.0
 40
6.0
 40
6.0
 40
6.0
 40
6.0
 10
368.6455429850956
 20
-51.72604165373516
 30
0.0
 10
368.6455429850956
 20
-51.72604165373516
 30
0.0
 10
371.8935790085891
 20
-55.68014999693066
 30
0.0
 10
371.8935790085891
 20
-55.68014999693066
 30
0.0
 10
371.8935790085891
 20
-55.68014999693066
 30
0.0
 10
370.6946857797222
 20
-73.0739203376343
 30
0.0
 10
370.5692843040591
 20
-75.083100024632
 30
0.0
 10
370.3928954152143
 20
-77.90532224614867
 30
0.0
 10
368.7468287923619
 20
-78.78726669037263
 30
0.0
 10
368.7468287923619
 20
-78.78726669037263
 30
0.0
 10
368.7468287923619
 20
-78.78726669037263
 30
0.0
 10
363.7211234984795
 20
-72.78969996010119
 30
0.0
 10
363.7211234984795
 20
-72.78969996010119
 30
0.0
 10
363.7211234984795
 20
-72.78969996010119
 30
0.0
 10
364.955845720393
 20
-55.50376110808587
 30
0.0
 10
364.955845720393
 20
-55.50376110808587
 30
0.0
 10
364.955845720393
 20
-55.50376110808587
 30
0.0
 10
368.6455429850956
 20
-51.72604165373516
 30
0.0
 10
368.6455429850956
 20
-51.72604165373516
 30
0.0
  0
HATCH
  5
9C
330
93
100
AcDbEntity
  8
Layer 5
 62
     7
420
 15856114
100
AcDbHatch
 10
0.0
 20
0.0
 30
0.0
210
0.0
220
0.0
230
1.0
  2
SOLID
 70
     1
 71
     0
 91
        1
 92
        1
 93
        1
 72
     4
 94
        3
 73
     0
 74
     1
 95
       23
 96
       19
 40
0.0
 40
0.0
 40
0.0
 40
0.0
 40
1.0
 40
1.0
 40
1.0
 40
2.0
 40
2.0
 40
2.0
 40
3.0
 40
3.0
 40
3.0
 40
4.0
 40
4.0
 40
4.0
 40
5.0
 40
5.0
 40
5.0
 40
6.0
 40
6.0
 40
6.0
 40
6.0
 10
368.6455429850956
 20
-51.72604165373516
 10
368.6455429850956
 20
-51.72604165373516
 10
371.8935790085891
 20
-55.68014999693066
 10
371.8935790085891
 20
-55.68014999693066
 10
371.8935790085891
 20
-55.68014999693066
 10
370.6946857797222
 20
-73.0739203376343
 10
370.5692843040591
 20
-75.083100024632
 10
370.3928954152143
 20
-77.90532224614867
 10
368.7468287923619
 20
-78.78726669037263
 10
368.7468287923619
 20
-78.78726669037263
 10
368.7468287923619
 20
-78.78726669037263
 10
363.7211234984795
 20
-72.78969996010119
 10
363.7211234984795
 20
-72.78969996010119
 10
363.7211234984795
 20
-72.78969996010119
 10
364.955845720393
 20
-55.50376110808587
 10
364.955845720393
 20
-55.50376110808587
 10
364.955845720393
 20
-55.50376110808587
 10
368.6455429850956
 20
-51.72604165373516
 10
368.6455429850956
 20
-51.72604165373516
 97
        0
 75
     2
 76
     1
 98
        0
  0
SPLINE
  5
9D
330
93
100
AcDbEntity
  8
Layer 5
370
     0
100
AcDbSpline
210
0.0
220
0.0
230
1.0
 70
    11
 71
     3
 72
    23
 73
    19
 74
     0
 42
0.0000000001
 43
0.0000000001
 40
0.0
 40
0.0
 40
0.0
 40
0.0
 40
1.0
 40
1.0
 40
1.0
 40
2.0
 40
2.0
 40
2.0
 40
3.0
 40
3.0
 40
3.0
 40
4.0
 40
4.0
 40
4.0
 40
5.0
 40
5.0
 40
5.0
 40
6.0
 40
6.0
 40
6.0
 40
6.0
 10
363.1609509725778
 20
-73.55416664827813
 30
0.0
 10
363.1609509725778
 20
-73.55416664827813
 30
0.0
 10
368.0412732369828
 20
-79.37499998015625
 30
0.0
 10
368.0412732369828
 20
-79.37499998015625
 30
0.0
 10
368.0412732369828
 20
-79.37499998015625
 30
0.0
 10
366.8651176383185
 20
-80.60972220206979
 30
0.0
 10
363.9843287935525
 20
-80.60972220206979
 30
0.0
 10
361.922783655179
 20
-80.60972220206979
 30
0.0
 10
343.8170843324485
 20
-80.60972220206979
 30
0.0
 10
341.1126843765274
 20
-80.60972220206979
 30
0.0
 10
338.1140732661659
 20
-80.60972220206979
 30
0.0
 10
336.8793510442524
 20
-79.02222220246666
 30
0.0
 10
336.8793510442524
 20
-79.02222220246666
 30
0.0
 10
336.8793510442524
 20
-79.02222220246666
 30
0.0
 10
342.9351398882246
 20
-73.6130777810759
 30
0.0
 10
342.9351398882246
 20
-73.6130777810759
 30
0.0
 10
342.9351398882246
 20
-73.6130777810759
 30
0.0
 10
363.1609509725778
 20
-73.55416664827813
 30
0.0
 10
363.1609509725778
 20
-73.55416664827813
 30
0.0
  0
HATCH
  5
9E
330
93
100
AcDbEntity
  8
Layer 5
 62
     7
420
 15856114
100
AcDbHatch
 10
0.0
 20
0.0
 30
0.0
210
0.0
220
0.0
230
1.0
  2
SOLID
 70
     1
 71
     0
 91
        1
 92
        1
 93
        1
 72
     4
 94
        3
 73
     0
 74
     1
 95
       23
 96
       19
 40
0.0
 40
0.0
 40
0.0
 40
0.0
 40
1.0
 40
1.0
 40
1.0
 40
2.0
 40
2.0
 40
2.0
 40
3.0
 40
3.0
 40
3.0
 40
4.0
 40
4.0
 40
4.0
 40
5.0
 40
5.0
 40
5.0
 40
6.0
 40
6.0
 40
6.0
 40
6.0
 10
363.1609509725778
 20
-73.55416664827813
 10
363.1609509725778
 20
-73.55416664827813
 10
368.0412732369828
 20
-79.37499998015625
 10
368.0412732369828
 20
-79.37499998015625
 10
368.0412732369828
 20
-79.37499998015625
 10
366.8651176383185
 20
-80.60972220206979
 10
363.9843287935525
 20
-80.60972220206979
 10
361.922783655179
 20
-80.60972220206979
 10
343.8170843324485
 20
-80.60972220206979
 10
341.1126843765274
 20
-80.60972220206979
 10
338.1140732661659
 20
-80.60972220206979
 10
336.8793510442524
 20
-79.02222220246666
 10
336.8793510442524
 20
-79.02222220246666
 10
336.8793510442524
 20
-79.02222220246666
 10
342.9351398882246
 20
-73.6130777810759
 10
342.9351398882246
 20
-73.6130777810759
 10
342.9351398882246
 20
-73.6130777810759
 10
363.1609509725778
 20
-73.55416664827813
 10
363.1609509725778
 20
-73.55416664827813
 97
        0
 75
     2
 76
     1
 98
        0
  0
SPLINE
  5
9F
330
93
100
AcDbEntity
  8
Layer 5
370
     0
100
AcDbSpline
210
0.0
220
0.0
230
1.0
 70
    11
 71
     3
 72
    23
 73
    19
 74
     0
 42
0.0000000001
 43
0.0000000001
 40
0.0
 40
0.0
 40
0.0
 40
0.0
 40
1.0
 40
1.0
 40
1.0
 40
2.0
 40
2.0
 40
2.0
 40
3.0
 40
3.0
 40
3.0
 40
4.0
 40
4.0
 40
4.0
 40
5.0
 40
5.0
 40
5.0
 40
6.0
 40
6.0
 40
6.0
 40
6.0
 10
341.0847791030969
 20
-51.72604165373516
 30
0.0
 10
341.0847791030969
 20
-51.72604165373516
 30
0.0
 10
344.1715846578807
 20
-55.20972220841979
 30
0.0
 10
344.1715846578807
 20
-55.20972220841979
 30
0.0
 10
344.1715846578807
 20
-55.20972220841979
 30
0.0
 10
342.2884954656432
 20
-72.90752222569674
 30
0.0
 10
342.2884954656432
 20
-72.90752222569674
 30
0.0
 10
342.2884954656432
 20
-72.90752222569674
 30
0.0
 10
335.9974066000285
 20
-78.19918889104048
 30
0.0
 10
335.9974066000285
 20
-78.19918889104048
 30
0.0
 10
335.9974066000285
 20
-78.19918889104048
 30
0.0
 10
334.6452066220679
 20
-76.08217771535446
 30
0.0
 10
334.9390732669597
 20
-73.73055553712292
 30
0.0
 10
335.2329399118515
 20
-71.37893335889139
 30
0.0
 10
337.1601263263003
 20
-55.1656249862086
 30
0.0
 10
337.1601263263003
 20
-55.1656249862086
 30
0.0
 10
337.1601263263003
 20
-55.1656249862086
 30
0.0
 10
341.0847791030969
 20
-51.72604165373516
 30
0.0
 10
341.0847791030969
 20
-51.72604165373516
 30
0.0
  0
HATCH
  5
A0
330
93
100
AcDbEntity
  8
Layer 5
 62
     7
420
 15856114
100
AcDbHatch
 10
0.0
 20
0.0
 30
0.0
210
0.0
220
0.0
230
1.0
  2
SOLID
 70
     1
 71
     0
 91
        1
 92
        1
 93
        1
 72
     4
 94
        3
 73
     0
 74
     1
 95
       23
 96
       19
 40
0.0
 40
0.0
 40
0.0
 40
0.0
 40
1.0
 40
1.0
 40
1.0
 40
2.0
 40
2.0
 40
2.0
 40
3.0
 40
3.0
 40
3.0
 40
4.0
 40
4.0
 40
4.0
 40
5.0
 40
5.0
 40
5.0
 40
6.0
 40
6.0
 40
6.0
 40
6.0
 10
341.0847791030969
 20
-51.72604165373516
 10
341.0847791030969
 20
-51.72604165373516
 10
344.1715846578807
 20
-55.20972220841979
 10
344.1715846578807
 20
-55.20972220841979
 10
344.1715846578807
 20
-55.20972220841979
 10
342.2884954656432
 20
-72.90752222569674
 10
342.2884954656432
 20
-72.90752222569674
 10
342.2884954656432
 20
-72.90752222569674
 10
335.9974066000285
 20
-78.19918889104048
 10
335.9974066000285
 20
-78.19918889104048
 10
335.9974066000285
 20
-78.19918889104048
 10
334.6452066220679
 20
-76.08217771535446
 10
334.9390732669597
 20
-73.73055553712292
 10
335.2329399118515
 20
-71.37893335889139
 10
337.1601263263003
 20
-55.1656249862086
 10
337.1601263263003
 20
-55.1656249862086
 10
337.1601263263003
 20
-55.1656249862086
 10
341.0847791030969
 20
-51.72604165373516
 10
341.0847791030969
 20
-51.72604165373516
 97
        0
 75
     2
 76
     1
 98
        0
  0
SPLINE
  5
A1
330
93
100
AcDbEntity
  8
Layer 5
370
     0
100
AcDbSpline
210
0.0
220
0.0
230
1.0
 70
    11
 71
     3
 72
    23
 73
    19
 74
     0
 42
0.0000000001
 43
0.0000000001
 40
0.0
 40
0.0
 40
0.0
 40
0.0
 40
1.0
 40
1.0
 40
1.0
 40
2.0
 40
2.0
 40
2.0
 40
3.0
 40
3.0
 40
3.0
 40
4.0
 40
4.0
 40
4.0
 40
5.0
 40
5.0
 40
5.0
 40
6.0
 40
6.0
 40
6.0
 40
6.0
 10
346.9641790582243
 20
-30.10376111443587
 30
0.0
 10
346.9641790582243
 20
-30.10376111443587
 30
0.0
 10
345.0535291021047
 20
-46.91944443271458
 30
0.0
 10
345.0535291021047
 20
-46.91944443271458
 30
0.0
 10
345.0535291021047
 20
-46.91944443271458
 30
0.0
 10
341.3052652141529
 20
-50.35902776518802
 30
0.0
 10
341.3052652141529
 20
-50.35902776518802
 30
0.0
 10
341.3052652141529
 20
-50.35902776518802
 30
0.0
 10
338.1140732661659
 20
-47.03709444353587
 30
0.0
 10
338.1140732661659
 20
-47.03709444353587
 30
0.0
 10
338.1140732661659
 20
-47.03709444353587
 30
0.0
 10
339.9365287778631
 20
-30.51527777014896
 30
0.0
 10
340.1718287995056
 20
-28.16348333714316
 30
0.0
 10
340.4026501970174
 20
-25.85492485247724
 30
0.0
 10
341.700417666311
 20
-24.57696668222382
 30
0.0
 10
341.700417666311
 20
-24.57696668222382
 30
0.0
 10
341.700417666311
 20
-24.57696668222382
 30
0.0
 10
346.9641790582243
 20
-30.10376111443587
 30
0.0
 10
346.9641790582243
 20
-30.10376111443587
 30
0.0
  0
HATCH
  5
A2
330
93
100
AcDbEntity
  8
Layer 5
 62
     7
420
 15856114
100
AcDbHatch
 10
0.0
 20
0.0
 30
0.0
210
0.0
220
0.0
230
1.0
  2
SOLID
 70
     1
 71
     0
 91
        1
 92
        1
 93
        1
 72
     4
 94
        3
 73
     0
 74
     1
 95
       23
 96
       19
 40
0.0
 40
0.0
 40
0.0
 40
0.0
 40
1.0
 40
1.0
 40
1.0
 40
2.0
 40
2.0
 40
2.0
 40
3.0
 40
3.0
 40
3.0
 40
4.0
 40
4.0
 40
4.0
 40
5.0
 40
5.0
 40
5.0
 40
6.0
 40
6.0
 40
6.0
 40
6.0
 10
346.9641790582243
 20
-30.10376111443587
 10
346.9641790582243
 20
-30.10376111443587
 10
345.0535291021047
 20
-46.91944443271458
 10
345.0535291021047
 20
-46.91944443271458
 10
345.0535291021047
 20
-46.91944443271458
 10
341.3052652141529
 20
-50.35902776518802
 10
341.3052652141529
 20
-50.35902776518802
 10
341.3052652141529
 20
-50.35902776518802
 10
338.1140732661659
 20
-47.03709444353587
 10
338.1140732661659
 20
-47.03709444353587
 10
338.1140732661659
 20
-47.03709444353587
 10
339.9365287778631
 20
-30.51527777014896
 10
340.1718287995056
 20
-28.16348333714316
 10
340.4026501970174
 20
-25.85492485247724
 10
341.700417666311
 20
-24.57696668222382
 10
341.700417666311
 20
-24.57696668222382
 10
341.700417666311
 20
-24.57696668222382
 10
346.9641790582243
 20
-30.10376111443587
 10
346.9641790582243
 20
-30.10376111443587
 97
        0
 75
     2
 76
     1
 98
        0
  0
POLYLINE
  5
A3
330
93
100
AcDbEntity
  8
Layer 5
370
     0
100
AcDb2dPolyline
 66
     1
 10
0.0
 20
0.0
 30
0.0
  0
VERTEX
  5
A4
330
A3
100
AcDbEntity
  8
Layer 5
370
     0
100
AcDbVertex
100
AcDb2dVertex
 10
341.8768065551558
 20
-51.09403888696608
 30
0.0
  0
VERTEX
  5
A5
330
A3
100
AcDbEntity
  8
Layer 5
370
     0
100
AcDbVertex
100
AcDb2dVertex
 10
345.4352456818704
 20
-47.86012775496205
 30
0.0
  0
VERTEX
  5
A6
330
A3
100
AcDbEntity
  8
Layer 5
370
     0
100
AcDbVertex
100
AcDb2dVertex
 10
365.3671901213318
 20
-47.97777776578334
 30
0.0
  0
VERTEX
  5
A7
330
A3
100
AcDbEntity
  8
Layer 5
370
     0
100
AcDbVertex
100
AcDb2dVertex
 10
367.8958902075052
 20
-50.9763888761448
 30
0.0
  0
VERTEX
  5
A8
330
A3
100
AcDbEntity
  8
Layer 5
370
     0
100
AcDbVertex
100
AcDb2dVertex
 10
364.2358207639758
 20
-54.72465276409662
 30
0.0
  0
VERTEX
  5
A9
330
A3
100
AcDbEntity
  8
Layer 5
370
     0
100
AcDbVertex
100
AcDb2dVertex
 10
345.0239012809316
 20
-54.56290553106414
 30
0.0
  0
VERTEX
  5
AA
330
A3
100
AcDbEntity
  8
Layer 5
370
     0
100
AcDbVertex
100
AcDb2dVertex
 10
341.8768065551558
 20
-51.09403888696608
 30
0.0
  0
SEQEND
  5
AB
330
A3
100
AcDbEntity
  8
Layer 5
370
     0
  0
HATCH
  5
AC
330
93
100
AcDbEntity
  8
Layer 5
 62
     7
420
 15856114
100
AcDbHatch
 10
0.0
 20
0.0
 30
0.0
210
0.0
220
0.0
230
1.0
  2
SOLID
 70
     1
 71
     0
 91
        1
 92
        1
 93
        6
 72
     1
 10
341.8768065551558
 20
-51.09403888696608
 11
345.4352456818704
 21
-47.86012775496205
 72
     1
 10
345.4352456818704
 20
-47.86012775496205
 11
365.3671901213318
 21
-47.97777776578334
 72
     1
 10
365.3671901213318
 20
-47.97777776578334
 11
367.8958902075052
 21
-50.9763888761448
 72
     1
 10
367.8958902075052
 20
-50.9763888761448
 11
364.2358207639758
 21
-54.72465276409662
 72
     1
 10
364.2358207639758
 20
-54.72465276409662
 11
345.0239012809316
 21
-54.56290553106414
 72
     1
 10
345.0239012809316
 20
-54.56290553106414
 11
341.8768065551558
 21
-51.09403888696608
 97
        0
 75
     2
 76
     1
 98
        0
  0
ENDBLK
  5
96
330
93
100
AcDbEntity
  8
0
100
AcDbBlockEnd
  0
ENDSEC
  0
SECTION
  2
ENTITIES
  0
POLYLINE
  5
3C
330
1F
100
AcDbEntity
  8
Layer 6
370
     0
100
AcDb2dPolyline
 66
     1
 10
0.0
 20
0.0
 30
0.0
  0
VERTEX
  5
3D
330
3C
100
AcDbEntity
  8
Layer 6
370
     0
100
AcDbVertex
100
AcDb2dVertex
 10
439.9986381278476
 20
-139.9997232722917
 30
0.0
  0
VERTEX
  5
3E
330
3C
100
AcDbEntity
  8
Layer 6
370
     0
100
AcDbVertex
100
AcDb2dVertex
 10
-1.293461099937051
 20
-139.9997232722917
 30
0.0
  0
VERTEX
  5
3F
330
3C
100
AcDbEntity
  8
Layer 6
370
     0
100
AcDbVertex
100
AcDb2dVertex
 10
-1.293461099937051
 20
1.293461099937051
 30
0.0
  0
VERTEX
  5
40
330
3C
100
AcDbEntity
  8
Layer 6
370
     0
100
AcDbVertex
100
AcDb2dVertex
 10
439.9986381278476
 20
1.293461099937051
 30
0.0
  0
VERTEX
  5
41
330
3C
100
AcDbEntity
  8
Layer 6
370
     0
100
AcDbVertex
100
AcDb2dVertex
 10
439.9986381278476
 20
-139.9997232722917
 30
0.0
  0
SEQEND
  5
42
330
3C
100
AcDbEntity
  8
Layer 6
370
     0
  0
HATCH
  5
43
330
1F
100
AcDbEntity
  8
Layer 6
 62
   179
420
  2301728
100
AcDbHatch
 10
0.0
 20
0.0
 30
0.0
210
0.0
220
0.0
230
1.0
  2
SOLID
 70
     1
 71
     0
 91
        1
 92
        1
 93
        4
 72
     1
 10
439.9986381278476
 20
-139.9997232722917
 11
-1.293461099937076
 21
-139.9997232722917
 72
     1
 10
-1.293461099937051
 20
-139.9997232722917
 11
-1.293461099937051
 21
1.293461099937048
 72
     1
 10
-1.293461099937051
 20
1.293461099937051
 11
439.9986381278476
 21
1.293461099937051
 72
     1
 10
439.9986381278476
 20
1.293461099937051
 11
439.9986381278476
 21
-139.9997232722917
 97
        0
 75
     2
 76
     1
 98
        0
  0
INSERT
  5
46
330
1F
100
AcDbEntity
  8
Layer 5
100
AcDbBlockReference
  2
block 2
 10
0.0
 20
0.0
 30
0.0
  0
INSERT
  5
60
330
1F
100
AcDbEntity
  8
Layer 5
100
AcDbBlockReference
  2
block 3
 10
0.0
 20
0.0
 30
0.0
  0
INSERT
  5
7A
330
1F
100
AcDbEntity
  8
Layer 5
100
AcDbBlockReference
  2
block 4
 10
0.0
 20
0.0
 30
0.0
  0
INSERT
  5
94
330
1F
100
AcDbEntity
  8
Layer 5
100
AcDbBlockReference
  2
block 5
 10
0.0
 20
0.0
 30
0.0
  0
POLYLINE
  5
AD
330
1F
100
AcDbEntity
  8
Layer 5
370
     0
100
AcDb2dPolyline
 66
     1
 10
0.0
 20
0.0
 30
0.0
  0
VERTEX
  5
AE
330
AD
100
AcDbEntity
  8
Layer 5
370
     0
100
AcDbVertex
100
AcDb2dVertex
 10
125.0001220390625
 20
-116.0001545933958
 30
0.0
  0
VERTEX
  5
AF
330
AD
100
AcDbEntity
  8
Layer 5
370
     0
100
AcDbVertex
100
AcDb2dVertex
 10
45.00000948310764
 20
-116.0001545933958
 30
0.0
  0
VERTEX
  5
B0
330
AD
100
AcDbEntity
  8
Layer 5
370
     0
100
AcDbVertex
100
AcDb2dVertex
 10
45.00000948310764
 20
-91.0001301855833
 30
0.0
  0
VERTEX
  5
B1
330
AD
100
AcDbEntity
  8
Layer 5
370
     0
100
AcDbVertex
100
AcDb2dVertex
 10
125.0001220390625
 20
-91.0001301855833
 30
0.0
  0
VERTEX
  5
B2
330
AD
100
AcDbEntity
  8
Layer 5
370
     0
100
AcDbVertex
100
AcDb2dVertex
 10
125.0001220390625
 20
-116.0001545933958
 30
0.0
  0
SEQEND
  5
B3
330
AD
100
AcDbEntity
  8
Layer 5
370
     0
  0
HATCH
  5
B4
330
1F
100
AcDbEntity
  8
Layer 5
 62
     7
420
 15856114
100
AcDbHatch
 10
0.0
 20
0.0
 30
0.0
210
0.0
220
0.0
230
1.0
  2
SOLID
 70
     1
 71
     0
 91
        1
 92
        1
 93
        4
 72
     1
 10
125.0001220390625
 20
-116.0001545933958
 11
45.00000948310763
 21
-116.0001545933958
 72
     1
 10
45.00000948310764
 20
-116.0001545933958
 11
45.00000948310764
 21
-91.0001301855833
 72
     1
 10
45.00000948310764
 20
-91.0001301855833
 11
125.0001220390625
 21
-91.0001301855833
 72
     1
 10
125.0001220390625
 20
-91.0001301855833
 11
125.0001220390625
 21
-116.0001545933958
 97
        0
 75
     2
 76
     1
 98
        0
  0
POLYLINE
  5
B5
330
1F
100
AcDbEntity
  8
Layer 5
370
     0
100
AcDb2dPolyline
 66
     1
 10
0.0
 20
0.0
 30
0.0
  0
VERTEX
  5
B6
330
B5
100
AcDbEntity
  8
Layer 5
370
     0
100
AcDbVertex
100
AcDb2dVertex
 10
215.0001410052778
 20
-116.0001545933958
 30
0.0
  0
VERTEX
  5
B7
330
B5
100
AcDbEntity
  8
Layer 5
370
     0
100
AcDbVertex
100
AcDb2dVertex
 10
134.9998561945486
 20
-116.0001545933958
 30
0.0
  0
VERTEX
  5
B8
330
B5
100
AcDbEntity
  8
Layer 5
370
     0
100
AcDbVertex
100
AcDb2dVertex
 10
134.9998561945486
 20
-91.0001301855833
 30
0.0
  0
VERTEX
  5
B9
330
B5
100
AcDbEntity
  8
Layer 5
370
     0
100
AcDbVertex
100
AcDb2dVertex
 10
215.0001410052778
 20
-91.0001301855833
 30
0.0
  0
VERTEX
  5
BA
330
B5
100
AcDbEntity
  8
Layer 5
370
     0
100
AcDbVertex
100
AcDb2dVertex
 10
215.0001410052778
 20
-116.0001545933958
 30
0.0
  0
SEQEND
  5
BB
330
B5
100
AcDbEntity
  8
Layer 5
370
     0
  0
HATCH
  5
BC
330
1F
100
AcDbEntity
  8
Layer 5
 62
     7
420
 15856114
100
AcDbHatch
 10
0.0
 20
0.0
 30
0.0
210
0.0
220
0.0
230
1.0
  2
SOLID
 70
     1
 71
     0
 91
        1
 92
        1
 93
        4
 72
     1
 10
215.0001410052778
 20
-116.0001545933958
 11
134.9998561945486
 21
-116.0001545933958
 72
     1
 10
134.9998561945486
 20
-116.0001545933958
 11
134.9998561945486
 21
-91.0001301855833
 72
     1
 10
134.9998561945486
 20
-91.0001301855833
 11
215.0001410052778
 21
-91.0001301855833
 72
     1
 10
215.0001410052778
 20
-91.0001301855833
 11
215.0001410052778
 21
-116.0001545933958
 97
        0
 75
     2
 76
     1
 98
        0
  0
POLYLINE
  5
BD
330
1F
100
AcDbEntity
  8
Layer 5
370
     0
100
AcDb2dPolyline
 66
     1
 10
0.0
 20
0.0
 30
0.0
  0
VERTEX
  5
BE
330
BD
100
AcDbEntity
  8
Layer 5
370
     0
100
AcDbVertex
100
AcDb2dVertex
 10
304.9998154619445
 20
-116.0001545933958
 30
0.0
  0
VERTEX
  5
BF
330
BD
100
AcDbEntity
  8
Layer 5
370
     0
100
AcDbVertex
100
AcDb2dVertex
 10
224.9998751607639
 20
-116.0001545933958
 30
0.0
  0
VERTEX
  5
C0
330
BD
100
AcDbEntity
  8
Layer 5
370
     0
100
AcDbVertex
100
AcDb2dVertex
 10
224.9998751607639
 20
-91.0001301855833
 30
0.0
  0
VERTEX
  5
C1
330
BD
100
AcDbEntity
  8
Layer 5
370
     0
100
AcDbVertex
100
AcDb2dVertex
 10
304.9998154619445
 20
-91.0001301855833
 30
0.0
  0
VERTEX
  5
C2
330
BD
100
AcDbEntity
  8
Layer 5
370
     0
100
AcDbVertex
100
AcDb2dVertex
 10
304.9998154619445
 20
-116.0001545933958
 30
0.0
  0
SEQEND
  5
C3
330
BD
100
AcDbEntity
  8
Layer 5
370
     0
  0
HATCH
  5
C4
330
1F
100
AcDbEntity
  8
Layer 5
 62
     7
420
 15856114
100
AcDbHatch
 10
0.0
 20
0.0
 30
0.0
210
0.0
220
0.0
230
1.0
  2
SOLID
 70
     1
 71
     0
 91
        1
 92
        1
 93
        4
 72
     1
 10
304.9998154619445
 20
-116.0001545933958
 11
224.9998751607639
 21
-116.0001545933958
 72
     1
 10
224.9998751607639
 20
-116.0001545933958
 11
224.9998751607639
 21
-91.0001301855833
 72
     1
 10
224.9998751607639
 20
-91.0001301855833
 11
304.9998154619445
 21
-91.0001301855833
 72
     1
 10
304.9998154619445
 20
-91.0001301855833
 11
304.9998154619445
 21
-116.0001545933958
 97
        0
 75
     2
 76
     1
 98
        0
  0
POLYLINE
  5
C5
330
1F
100
AcDbEntity
  8
Layer 5
370
     0
100
AcDb2dPolyline
 66
     1
 10
0.0
 20
0.0
 30
0.0
  0
VERTEX
  5
C6
330
C5
100
AcDbEntity
  8
Layer 5
370
     0
100
AcDbVertex
100
AcDb2dVertex
 10
394.9998344281598
 20
-116.0001545933958
 30
0.0
  0
VERTEX
  5
C7
330
C5
100
AcDbEntity
  8
Layer 5
370
     0
100
AcDbVertex
100
AcDb2dVertex
 10
314.9998941269792
 20
-116.0001545933958
 30
0.0
  0
VERTEX
  5
C8
330
C5
100
AcDbEntity
  8
Layer 5
370
     0
100
AcDbVertex
100
AcDb2dVertex
 10
314.9998941269792
 20
-91.0001301855833
 30
0.0
  0
VERTEX
  5
C9
330
C5
100
AcDbEntity
  8
Layer 5
370
     0
100
AcDbVertex
100
AcDb2dVertex
 10
394.9998344281598
 20
-91.0001301855833
 30
0.0
  0
VERTEX
  5
CA
330
C5
100
AcDbEntity
  8
Layer 5
370
     0
100
AcDbVertex
100
AcDb2dVertex
 10
394.9998344281598
 20
-116.0001545933958
 30
0.0
  0
SEQEND
  5
CB
330
C5
100
AcDbEntity
  8
Layer 5
370
     0
  0
HATCH
  5
CC
330
1F
100
AcDbEntity
  8
Layer 5
 62
     7
420
 15856114
100
AcDbHatch
 10
0.0
 20
0.0
 30
0.0
210
0.0
220
0.0
230
1.0
  2
SOLID
 70
     1
 71
     0
 91
        1
 92
        1
 93
        4
 72
     1
 10
394.9998344281598
 20
-116.0001545933958
 11
314.9998941269792
 21
-116.0001545933958
 72
     1
 10
314.9998941269792
 20
-116.0001545933958
 11
314.9998941269792
 21
-91.0001301855833
 72
     1
 10
314.9998941269792
 20
-91.0001301855833
 11
394.9998344281598
 21
-91.0001301855833
 72
     1
 10
394.9998344281598
 20
-91.0001301855833
 11
394.9998344281598
 21
-116.0001545933958
 97
        0
 75
     2
 76
     1
 98
        0
  0
ENDSEC
  0
SECTION
  2
OBJECTS
  0
DICTIONARY
  5
C
330
0
100
AcDbDictionary
281
     1
  3
ACAD_GROUP
350
D
  3
ACAD_LAYOUT
350
1A
  3
ACAD_MLINESTYLE
350
17
  3
ACAD_PLOTSETTINGS
350
19
  3
ACAD_PLOTSTYLENAME
350
E
  3
ACAD_TABLESTYLE
350
CD
  3
ACAD_VISUALSTYLE
350
2A
  0
DICTIONARY
  5
D
102
{ACAD_REACTORS
330
C
102
}
330
C
100
AcDbDictionary
281
     1
  0
DICTIONARY
  5
1A
102
{ACAD_REACTORS
330
C
102
}
330
C
100
AcDbDictionary
281
     1
  3
Layout1
350
1E
  3
Layout2
350
26
  3
Model
350
22
  0
DICTIONARY
  5
17
102
{ACAD_REACTORS
330
C
102
}
330
C
100
AcDbDictionary
281
     1
  3
Standard
350
18
  0
DICTIONARY
  5
19
102
{ACAD_REACTORS
330
C
102
}
330
C
100
AcDbDictionary
281
     1
  0
ACDBDICTIONARYWDFLT
  5
E
102
{ACAD_REACTORS
330
C
102
}
330
C
100
AcDbDictionary
281
     1
  3
Normal
350
F
100
AcDbDictionaryWithDefault
340
F
  0
DICTIONARY
  5
CD
102
{ACAD_REACTORS
330
C
102
}
330
C
100
AcDbDictionary
281
     1
  0
DICTIONARY
  5
2A
102
{ACAD_REACTORS
330
C
102
}
330
C
100
AcDbDictionary
281
     1
  3
2dWireframe
350
2F
  3
3D Hidden
350
31
  3
3dWireframe
350
30
  3
Basic
350
32
  3
Brighten
350
36
  3
ColorChange
350
3A
  3
Conceptual
350
34
  3
Dim
350
35
  3
Facepattern
350
39
  3
Flat
350
2B
  3
FlatWithEdges
350
2C
  3
Gouraud
350
2D
  3
GouraudWithEdges
350
2E
  3
Linepattern
350
38
  3
Realistic
350
33
  3
Thicken
350
37
  0
LAYOUT
  5
1E
102
{ACAD_REACTORS
330
1A
102
}
330
1A
100
AcDbPlotSettings
  1

  2
none_device
  4

  6

 40
0.0
 41
0.0
 42
0.0
 43
0.0
 44
0.0
 45
0.0
 46
0.0
 47
0.0
 48
0.0
 49
0.0
140
0.0
141
0.0
142
1.0
143
1.0
 70
   688
 72
     0
 73
     0
 74
     5
  7

 75
    16
 76
     0
 77
     2
 78
   300
147
1.0
148
0.0
149
0.0
100
AcDbLayout
  1
Layout1
 70
     1
 71
     1
 10
0.0
 20
0.0
 11
12.0
 21
9.0
 12
0.0
 22
0.0
 32
0.0
 14
1.000000000000000E+20
 24
1.000000000000000E+20
 34
1.000000000000000E+20
 15
-1.000000000000000E+20
 25
-1.000000000000000E+20
 35
-1.000000000000000E+20
146
0.0
 13
0.0
 23
0.0
 33
0.0
 16
1.0
 26
0.0
 36
0.0
 17
0.0
 27
1.0
 37
0.0
 76
     0
330
1B
  0
LAYOUT
  5
26
102
{ACAD_REACTORS
330
1A
102
}
330
1A
100
AcDbPlotSettings
  1

  2
none_device
  4

  6

 40
0.0
 41
0.0
 42
0.0
 43
0.0
 44
0.0
 45
0.0
 46
0.0
 47
0.0
 48
0.0
 49
0.0
140
0.0
141
0.0
142
1.0
143
1.0
 70
   688
 72
     0
 73
     0
 74
     5
  7

 75
    16
 76
     0
 77
     2
 78
   300
147
1.0
148
0.0
149
0.0
100
AcDbLayout
  1
Layout2
 70
     1
 71
     2
 10
0.0
 20
0.0
 11
0.0
 21
0.0
 12
0.0
 22
0.0
 32
0.0
 14
0.0
 24
0.0
 34
0.0
 15
0.0
 25
0.0
 35
0.0
146
0.0
 13
0.0
 23
0.0
 33
0.0
 16
1.0
 26
0.0
 36
0.0
 17
0.0
 27
1.0
 37
0.0
 76
     0
330
23
  0
LAYOUT
  5
22
102
{ACAD_REACTORS
330
1A
102
}
330
1A
100
AcDbPlotSettings
  1

  2
none_device
  4

  6

 40
0.0
 41
0.0
 42
0.0
 43
0.0
 44
0.0
 45
0.0
 46
0.0
 47
0.0
 48
0.0
 49
0.0
140
0.0
141
0.0
142
1.0
143
1.0
 70
  1712
 72
     0
 73
     0
 74
     0
  7

 75
     0
 76
     0
 77
     2
 78
   300
147
1.0
148
0.0
149
0.0
100
AcDbLayout
  1
Model
 70
     1
 71
     0
 10
0.0
 20
0.0
 11
12.0
 21
9.0
 12
0.0
 22
0.0
 32
0.0
 14
1.000000000000000E+20
 24
1.000000000000000E+20
 34
1.000000000000000E+20
 15
-1.000000000000000E+20
 25
-1.000000000000000E+20
 35
-1.000000000000000E+20
146
0.0
 13
0.0
 23
0.0
 33
0.0
 16
1.0
 26
0.0
 36
0.0
 17
0.0
 27
1.0
 37
0.0
 76
     0
330
1F
331
29
  0
MLINESTYLE
  5
18
102
{ACAD_REACTORS
330
17
102
}
330
17
100
AcDbMlineStyle
  2
Standard
 70
     0
  3

 62
   256
 51
90.0
 52
90.0
 71
     2
 49
0.5
 62
   256
  6
BYLAYER
 49
-0.5
 62
   256
  6
BYLAYER
  0
ACDBPLACEHOLDER
  5
F
102
{ACAD_REACTORS
330
E
102
}
330
E
  0
VISUALSTYLE
  5
2F
102
{ACAD_REACTORS
330
2A
102
}
330
2A
100
AcDbVisualStyle
  2
2dWireframe
 70
     4
 71
     0
 72
     2
 73
     0
 90
        0
 40
-0.6
 41
-30.0
 62
     5
 63
     7
421
 16777215
 74
     1
 91
        4
 64
     7
 65
   257
 75
     1
175
     1
 42
1.0
 92
        0
 66
   257
 43
1.0
 76
     1
 77
     6
 78
     2
 67
     7
 79
     5
170
     0
171
     0
290
     0
174
     0
 93
        1
 44
0.0
173
     0
291
     0
 45
0.0
1001
ACAD
1000
AcDbSavedByObjectVersion
1070
     0
  0
VISUALSTYLE
  5
31
102
{ACAD_REACTORS
330
2A
102
}
330
2A
100
AcDbVisualStyle
  2
3D Hidden
 70
     6
 71
     1
 72
     2
 73
     2
 90
        0
 40
-0.6
 41
-30.0
 62
     5
 63
     7
421
 16777215
 74
     2
 91
        2
 64
     7
 65
   257
 75
     2
175
     1
 42
40.0
 92
        0
 66
   257
 43
1.0
 76
     1
 77
     6
 78
     2
 67
     7
 79
     3
170
     0
171
     0
290
     0
174
     0
 93
        1
 44
0.0
173
     0
291
     0
 45
0.0
1001
ACAD
1000
AcDbSavedByObjectVersion
1070
     0
  0
VISUALSTYLE
  5
30
102
{ACAD_REACTORS
330
2A
102
}
330
2A
100
AcDbVisualStyle
  2
3dWireframe
 70
     5
 71
     0
 72
     2
 73
     0
 90
        0
 40
-0.6
 41
-30.0
 62
     5
 63
     7
421
 16777215
 74
     1
 91
        4
 64
     7
 65
   257
 75
     1
175
     1
 42
1.0
 92
        0
 66
   257
 43
1.0
 76
     1
 77
     6
 78
     2
 67
     7
 79
     5
170
     0
171
     0
290
     0
174
     0
 93
        1
 44
0.0
173
     0
291
     0
 45
0.0
1001
ACAD
1000
AcDbSavedByObjectVersion
1070
     0
  0
VISUALSTYLE
  5
32
102
{ACAD_REACTORS
330
2A
102
}
330
2A
100
AcDbVisualStyle
  2
Basic
 70
     7
 71
     1
 72
     0
 73
     1
 90
        0
 40
-0.6
 41
-30.0
 62
     5
 63
     7
421
 16777215
 74
     0
 91
        4
 64
     7
 65
   257
 75
     1
175
     1
 42
1.0
 92
        8
 66
     7
 43
1.0
 76
     1
 77
     6
 78
     2
 67
     7
 79
     5
170
     0
171
     0
290
     0
174
     0
 93
        1
 44
0.0
173
     0
291
     1
 45
0.0
1001
ACAD
1000
AcDbSavedByObjectVersion
1070
     0
  0
VISUALSTYLE
  5
36
102
{ACAD_REACTORS
330
2A
102
}
330
2A
100
AcDbVisualStyle
  2
Brighten
 70
    12
 71
     2
 72
     2
 73
     0
 90
        0
 40
-0.6
 41
-30.0
 62
     5
 63
     7
421
 16777215
 74
     1
 91
        4
 64
     7
 65
   257
 75
     1
175
     1
 42
1.0
 92
        8
 66
     7
 43
1.0
 76
     1
 77
     6
 78
     2
 67
     7
 79
     5
170
     0
171
     0
290
     0
174
     0
 93
        1
 44
50.0
173
     0
291
     1
 45
0.0
1001
ACAD
1000
AcDbSavedByObjectVersion
1070
     0
  0
VISUALSTYLE
  5
3A
102
{ACAD_REACTORS
330
2A
102
}
330
2A
100
AcDbVisualStyle
  2
ColorChange
 70
    16
 71
     2
 72
     2
 73
     3
 90
        0
 40
-0.6
 41
-30.0
 62
     5
 63
     8
421
  8421504
 74
     1
 91
        4
 64
     7
 65
   257
 75
     1
175
     1
 42
1.0
 92
        8
 66
     8
424
  8421504
 43
1.0
 76
     1
 77
     6
 78
     2
 67
     7
 79
     5
170
     0
171
     0
290
     0
174
     0
 93
        1
 44
0.0
173
     0
291
     1
 45
0.0
1001
ACAD
1000
AcDbSavedByObjectVersion
1070
     0
  0
VISUALSTYLE
  5
34
102
{ACAD_REACTORS
330
2A
102
}
330
2A
100
AcDbVisualStyle
  2
Conceptual
 70
     9
 71
     3
 72
     2
 73
     0
 90
        0
 40
-0.6
 41
-30.0
 62
     5
 63
     7
421
 16777215
 74
     2
 91
        2
 64
     7
 65
   257
 75
     1
175
     1
 42
40.0
 92
        8
 66
     7
 43
1.0
 76
     1
 77
     6
 78
     2
 67
     7
 79
     3
170
     0
171
     0
290
     0
174
     0
 93
        1
 44
0.0
173
     0
291
     0
 45
0.0
1001
ACAD
1000
AcDbSavedByObjectVersion
1070
     0
  0
VISUALSTYLE
  5
35
102
{ACAD_REACTORS
330
2A
102
}
330
2A
100
AcDbVisualStyle
  2
Dim
 70
    11
 71
     2
 72
     2
 73
     0
 90
        0
 40
-0.6
 41
-30.0
 62
     5
 63
     7
421
 16777215
 74
     1
 91
        4
 64
     7
 65
   257
 75
     1
175
     1
 42
1.0
 92
        8
 66
     7
 43
1.0
 76
     1
 77
     6
 78
     2
 67
     7
 79
     5
170
     0
171
     0
290
     0
174
     0
 93
        1
 44
-50.0
173
     0
291
     1
 45
0.0
1001
ACAD
1000
AcDbSavedByObjectVersion
1070
     0
  0
VISUALSTYLE
  5
39
102
{ACAD_REACTORS
330
2A
102
}
330
2A
100
AcDbVisualStyle
  2
Facepattern
 70
    15
 71
     2
 72
     2
 73
     0
 90
        0
 40
-0.6
 41
-30.0
 62
     5
 63
     7
421
 16777215
 74
     1
 91
        4
 64
     7
 65
   257
 75
     1
175
     1
 42
1.0
 92
        8
 66
     7
 43
1.0
 76
     1
 77
     6
 78
     2
 67
     7
 79
     5
170
     0
171
     0
290
     0
174
     0
 93
        1
 44
0.0
173
     0
291
     1
 45
0.0
1001
ACAD
1000
AcDbSavedByObjectVersion
1070
     0
  0
VISUALSTYLE
  5
2B
102
{ACAD_REACTORS
330
2A
102
}
330
2A
100
AcDbVisualStyle
  2
Flat
 70
     0
 71
     2
 72
     1
 73
     1
 90
        2
 40
-0.6
 41
30.0
 62
     5
 63
     7
421
 16777215
 74
     0
 91
        4
 64
     7
 65
   257
 75
     1
175
     1
 42
1.0
 92
        8
 66
     7
 43
1.0
 76
     1
 77
     6
 78
     2
 67
     7
 79
     5
170
     0
171
     0
290
     0
174
     0
 93
       13
 44
0.0
173
     0
291
     1
 45
0.0
1001
ACAD
1000
AcDbSavedByObjectVersion
1070
     0
  0
VISUALSTYLE
  5
2C
102
{ACAD_REACTORS
330
2A
102
}
330
2A
100
AcDbVisualStyle
  2
FlatWithEdges
 70
     1
 71
     2
 72
     1
 73
     1
 90
        2
 40
-0.6
 41
30.0
 62
     5
 63
     7
421
 16777215
 74
     1
 91
        4
 64
     7
 65
   257
 75
     1
175
     1
 42
1.0
 92
        0
 66
   257
 43
1.0
 76
     1
 77
     6
 78
     2
 67
     7
 79
     5
170
     0
171
     0
290
     0
174
     0
 93
       13
 44
0.0
173
     0
291
     1
 45
0.0
1001
ACAD
1000
AcDbSavedByObjectVersion
1070
     0
  0
VISUALSTYLE
  5
2D
102
{ACAD_REACTORS
330
2A
102
}
330
2A
100
AcDbVisualStyle
  2
Gouraud
 70
     2
 71
     2
 72
     2
 73
     1
 90
        2
 40
-0.6
 41
30.0
 62
     5
 63
     7
421
 16777215
 74
     0
 91
        4
 64
     7
 65
   257
 75
     1
175
     1
 42
1.0
 92
        0
 66
     7
 43
1.0
 76
     1
 77
     6
 78
     2
 67
     7
 79
     5
170
     0
171
     0
290
     0
174
     0
 93
       13
 44
0.0
173
     0
291
     1
 45
0.0
1001
ACAD
1000
AcDbSavedByObjectVersion
1070
     0
  0
VISUALSTYLE
  5
2E
102
{ACAD_REACTORS
330
2A
102
}
330
2A
100
AcDbVisualStyle
  2
GouraudWithEdges
 70
     3
 71
     2
 72
     2
 73
     1
 90
        2
 40
-0.6
 41
30.0
 62
     5
 63
     7
421
 16777215
 74
     1
 91
        4
 64
     7
 65
   257
 75
     1
175
     1
 42
1.0
 92
        0
 66
   257
 43
1.0
 76
     1
 77
     6
 78
     2
 67
     7
 79
     5
170
     0
171
     0
290
     0
174
     0
 93
       13
 44
0.0
173
     0
291
     1
 45
0.0
1001
ACAD
1000
AcDbSavedByObjectVersion
1070
     0
  0
VISUALSTYLE
  5
38
102
{ACAD_REACTORS
330
2A
102
}
330
2A
100
AcDbVisualStyle
  2
Linepattern
 70
    14
 71
     2
 72
     2
 73
     0
 90
        0
 40
-0.6
 41
-30.0
 62
     5
 63
     7
421
 16777215
 74
     1
 91
        4
 64
     7
 65
   257
 75
     7
175
     7
 42
1.0
 92
        8
 66
     7
 43
1.0
 76
     1
 77
     6
 78
     2
 67
     7
 79
     5
170
     0
171
     0
290
     0
174
     0
 93
        1
 44
0.0
173
     0
291
     1
 45
0.0
1001
ACAD
1000
AcDbSavedByObjectVersion
1070
     0
  0
VISUALSTYLE
  5
33
102
{ACAD_REACTORS
330
2A
102
}
330
2A
100
AcDbVisualStyle
  2
Realistic
 70
     8
 71
     2
 72
     2
 73
     0
 90
        0
 40
-0.6
 41
-30.0
 62
     5
 63
     7
421
 16777215
 74
     1
 91
        0
 64
     7
 65
   257
 75
     1
175
     1
 42
1.0
 92
        8
 66
     8
424
  7895160
 43
1.0
 76
     1
 77
     6
 78
     2
 67
     7
 79
     5
170
     0
171
     0
290
     0
174
     0
 93
       13
 44
0.0
173
     0
291
     0
 45
0.0
1001
ACAD
1000
AcDbSavedByObjectVersion
1070
     0
  0
VISUALSTYLE
  5
37
102
{ACAD_REACTORS
330
2A
102
}
330
2A
100
AcDbVisualStyle
  2
Thicken
 70
    13
 71
     2
 72
     2
 73
     0
 90
        0
 40
-0.6
 41
-30.0
 62
     5
 63
     7
421
 16777215
 74
     1
 91
        4
 64
     7
 65
   257
 75
     1
175
     1
 42
1.0
 92
       12
 66
     7
 43
1.0
 76
     1
 77
     6
 78
     2
 67
     7
 79
     5
170
     0
171
     0
290
     0
174
     0
 93
        1
 44
0.0
173
     0
291
     1
 45
0.0
1001
ACAD
1000
AcDbSavedByObjectVersion
1070
     0
  0
ENDSEC
  0
EOF
