<?xml version="1.0" encoding="utf-8"?>
<!-- Generator: Adobe Illustrator 16.0.4, SVG Export Plug-In . SVG Version: 6.00 Build 0)  -->
<!DOCTYPE svg PUBLIC "-//W3C//DTD SVG 1.1//EN" "http://www.w3.org/Graphics/SVG/1.1/DTD/svg11.dtd">
<svg version="1.1" id="Layer_1" xmlns="http://www.w3.org/2000/svg" xmlns:xlink="http://www.w3.org/1999/xlink" x="0px" y="0px"
	 width="1020.47px" height="102.05px" viewBox="0 0 1020.47 102.05" enable-background="new 0 0 1020.47 102.05"
	 xml:space="preserve">
<g>
	<path d="M81.973,23.451h12.745l2.521,47.884H85.43l-1.368-25.274h-0.216l-7.705,20.45H67.5l-7.633-19.73H59.58l-1.368,24.554
		H46.474l2.736-47.884H62.1l9.865,27.218h0.288L81.973,23.451z"/>
	<path d="M134.245,63.559l0.792,7.776h-10.225l-0.504-3.384l-0.432-0.072c-2.16,3.385-5.544,4.536-9.289,4.536
		c-11.017,0-13.825-8.856-13.825-17.857c0-12.673,6.408-21.17,19.514-21.17c2.592,0,8.137,0.648,13.969,2.88V63.559z
		 M122.292,42.389c-0.792-0.288-2.016-0.504-3.312-0.504c-4.68,0-6.264,5.617-6.264,11.809c0,5.545,1.008,10.152,5.184,10.152
		c2.809,0,4.393-2.016,4.393-4.104V42.389z"/>
	<path d="M162.826,67.879c-1.872,3.023-4.824,4.536-8.929,4.536c-12.097,0-14.185-9.433-14.185-17.714
		c0-12.457,6.696-21.313,18.073-21.313c1.584,0,2.592,0.144,3.457,0.36V21.291h11.953v42.196l0.792,7.849h-10.081l-0.648-3.456
		H162.826z M161.242,42.46c-0.792-0.288-1.728-0.504-2.808-0.504c-5.617,0-6.769,6.408-6.769,11.809c0,5.545,1.08,10.08,5.04,10.08
		c2.809,0,4.537-2.088,4.537-3.96V42.46z"/>
	<path d="M210.13,68.383c-0.36,0.359-5.761,4.104-13.825,4.104c-12.673,0-17.642-7.633-17.642-18.577
		c0-10.441,6.192-20.522,18.505-20.522c7.561,0,12.601,3.672,12.601,11.233c0,10.441-11.809,12.53-18.866,12.961
		c0.288,3.24,2.736,5.904,7.129,5.904c3.456,0,6.625-1.512,8.929-3.024L210.13,68.383z M196.521,41.812
		c-3.6,0-5.977,3.528-6.192,8.497c3.888-0.216,9-2.016,9-5.544C199.329,42.964,198.249,41.812,196.521,41.812z"/>
	<path d="M276.586,34.468c1.368,4.752,2.448,11.233,2.448,16.562c0,13.321-5.473,21.242-16.273,21.242
		c-5.329,0-8.137-1.945-9.865-4.753c-3.024,3.528-6.625,4.753-11.161,4.753c-8.425,0-13.033-4.249-13.033-13.033V34.468h12.097
		v23.69c0,3.24,0.432,4.896,2.808,4.896c2.448,0,3.889-1.729,3.889-4.537v-24.05h12.025V57.51c0,3.456,0.072,5.545,2.808,5.545
		c3.816,0,4.752-5.904,4.752-11.81c0-5.256-1.08-11.809-2.304-16.777H276.586z"/>
	<path d="M291.054,17.979c3.816,0,6.409,2.664,6.409,5.977c0,3.456-2.592,5.976-6.409,5.976c-3.96,0-6.408-2.52-6.408-5.976
		C284.646,20.643,287.094,17.979,291.054,17.979z M285.006,71.335V34.468h12.097v36.867H285.006z"/>
	<path d="M316.183,21.291v13.177h9V43.9h-9v14.545c0,3.961,1.872,4.969,4.32,4.969c1.368,0,2.664-0.504,3.888-1.152l2.592,7.561
		c-2.232,1.441-6.192,2.665-10.225,2.665c-12.241,0-12.745-7.129-12.745-14.329V21.291H316.183z"/>
	<path d="M330.437,71.335V21.291h12.025v15.193c2.088-1.872,4.896-3.096,8.208-3.096c7.561,0,11.665,4.249,11.665,12.961v24.986
		h-12.025V47.933c0-3.24-0.648-5.329-3.312-5.329c-2.952,0-4.536,2.232-4.536,5.112v23.618H330.437z"/>
	<path d="M484.442,21.291h12.098v13.825c1.584-0.936,4.104-1.728,6.912-1.728c8.929,0,14.474,5.904,14.474,17.93
		c0,14.041-6.625,21.17-18.363,21.17c-5.472,0-11.953-1.368-15.121-3.024V21.291z M496.54,63.414c1.08,0.432,2.376,0.721,3.6,0.721
		c4.681,0,5.761-4.393,5.761-11.233c0-5.833-0.936-11.017-5.688-11.017c-2.017,0-3.672,1.368-3.672,3.457V63.414z"/>
	<path d="M554.932,63.198c0,2.017,0,7.921-0.215,10.081c-1.08,11.521-6.77,17.209-17.354,17.209c-8.209,0-12.529-3.816-12.529-9.937
		c0-4.896,2.592-8.929,7.129-12.241c-6.121-1.152-9.002-5.473-9.002-11.449V34.468h12.098v20.737c0,3.889,0.215,6.337,3.672,6.337
		c2.377,0,4.104-1.8,4.104-4.824v-22.25h12.098V63.198z M543.123,67.951c-3.744,2.231-7.488,5.4-7.488,10.584
		c0,1.801,0.936,3.457,3.24,3.457c3.312,0,4.248-3.169,4.248-7.921V67.951z"/>
	<path d="M588.41,21.291v13.177h9V43.9h-9v14.545c0,3.961,1.871,4.969,4.32,4.969c1.367,0,2.664-0.504,3.889-1.152l2.592,7.561
		c-2.232,1.441-6.193,2.665-10.225,2.665c-12.242,0-12.746-7.129-12.746-14.329V21.291H588.41z"/>
	<path d="M602.664,71.335V21.291h12.023v15.193c2.09-1.872,4.896-3.096,8.209-3.096c7.561,0,11.666,4.249,11.666,12.961v24.986
		h-12.025V47.933c0-3.24-0.648-5.329-3.312-5.329c-2.951,0-4.537,2.232-4.537,5.112v23.618H602.664z"/>
	<path d="M671.137,68.383c-0.359,0.359-5.76,4.104-13.824,4.104c-12.674,0-17.643-7.633-17.643-18.577
		c0-10.441,6.193-20.522,18.506-20.522c7.561,0,12.602,3.672,12.602,11.233c0,10.441-11.809,12.53-18.865,12.961
		c0.287,3.24,2.736,5.904,7.129,5.904c3.455,0,6.623-1.512,8.928-3.024L671.137,68.383z M657.527,41.812
		c-3.6,0-5.975,3.528-6.191,8.497c3.889-0.216,9-2.016,9-5.544C660.336,42.964,659.256,41.812,657.527,41.812z"/>
	<path d="M691.148,57.078c3.312,2.088,9.578,4.393,13.682,4.393c2.664,0,4.969-0.865,4.969-4.177c0-2.952-3.096-3.96-7.273-5.185
		c-6.119-1.872-13.752-4.825-13.752-14.473c0-9.649,7.488-15.049,17.426-15.049c6.84,0,13.32,3.024,17.568,7.128l-6.408,8.137
		c-3.816-2.808-7.848-4.896-11.16-4.896c-2.305,0-4.537,1.08-4.537,3.745c0,3.024,3.312,4.104,7.777,5.544
		c6.553,2.088,13.609,4.968,13.609,14.617c0,10.01-7.633,15.338-18.291,15.338c-7.199,0-14.689-2.881-17.785-4.969L691.148,57.078z"
		/>
	<path d="M741.693,71.335h-12.385V23.451h17.139c11.088,0,18.506,3.384,18.506,13.609c0,6.048-3.674,10.297-7.418,12.169
		c1.297,0.648,2.449,2.016,3.168,3.744l8.066,18.362h-13.25l-6.625-15.193c-0.791-1.8-1.943-2.736-3.816-2.736h-3.385V71.335z
		 M746.375,43.9c3.672,0,5.904-1.872,5.904-5.833c0-3.96-2.377-4.968-6.84-4.968h-3.746V43.9H746.375z"/>
	<path d="M774.092,57.078c3.312,2.088,9.576,4.393,13.682,4.393c2.664,0,4.969-0.865,4.969-4.177c0-2.952-3.098-3.96-7.273-5.185
		c-6.121-1.872-13.754-4.825-13.754-14.473c0-9.649,7.49-15.049,17.426-15.049c6.842,0,13.322,3.024,17.57,7.128l-6.408,8.137
		c-3.816-2.808-7.85-4.896-11.162-4.896c-2.305,0-4.535,1.08-4.535,3.745c0,3.024,3.311,4.104,7.775,5.544
		c6.553,2.088,13.609,4.968,13.609,14.617c0,10.01-7.633,15.338-18.289,15.338c-7.201,0-14.689-2.881-17.785-4.969L774.092,57.078z"
		/>
	<path d="M862.078,23.451v10.801h-13.25v37.083h-12.312V34.252h-12.744V23.451H862.078z"/>
	<path d="M887.781,68.383c-0.359,0.359-5.76,4.104-13.826,4.104c-12.672,0-17.641-7.633-17.641-18.577
		c0-10.441,6.193-20.522,18.506-20.522c7.561,0,12.602,3.672,12.602,11.233c0,10.441-11.811,12.53-18.867,12.961
		c0.289,3.24,2.736,5.904,7.129,5.904c3.457,0,6.625-1.512,8.93-3.024L887.781,68.383z M874.172,41.812
		c-3.6,0-5.977,3.528-6.193,8.497c3.889-0.216,9.002-2.016,9.002-5.544C876.98,42.964,875.9,41.812,874.172,41.812z"/>
	<path d="M923.637,63.559l0.791,7.776h-10.225l-0.504-3.384l-0.432-0.072c-2.16,3.385-5.545,4.536-9.289,4.536
		c-11.018,0-13.826-8.856-13.826-17.857c0-12.673,6.41-21.17,19.514-21.17c2.594,0,8.137,0.648,13.971,2.88V63.559z M911.684,42.389
		c-0.793-0.288-2.018-0.504-3.312-0.504c-4.682,0-6.266,5.617-6.266,11.809c0,5.545,1.01,10.152,5.186,10.152
		c2.809,0,4.393-2.016,4.393-4.104V42.389z"/>
	<path d="M931.121,71.335V41.884l-0.865-7.417h9.938l0.793,3.888c2.23-3.024,5.184-4.968,9.936-4.968
		c4.176,0,7.561,1.44,9.506,4.752c2.16-2.952,5.256-4.752,9.863-4.752c7.057,0,11.377,3.96,11.377,12.745v25.202h-12.023V48.221
		c0-3.241-0.434-5.617-3.312-5.617c-2.809,0-3.961,2.232-3.961,5.329v23.402h-12.025V48.221c0-3.168-0.287-5.617-3.24-5.617
		c-2.879,0-3.959,2.232-3.959,5.4v23.33H931.121z"/>
</g>
</svg>
