G75*
%MOIN*%
%OFA0B0*%
%FSLAX25Y25*%
%IPPOS*%
%LPD*%
%AMOC8*
5,1,8,0,0,1.08239X$1,22.5*
%
%ADD10C,0.13398*%
%ADD11C,0.06000*%
%ADD12C,0.06800*%
%ADD13R,0.06706X0.04343*%
%ADD14C,0.08200*%
%ADD15R,0.05918X0.06706*%
%ADD16R,0.06706X0.05918*%
%ADD17C,0.04800*%
%ADD18C,0.04762*%
D10*
X0021800Y0141800D03*
X0046800Y0386800D03*
X0286800Y0386800D03*
X0311800Y0141800D03*
D11*
X0026800Y0024400D02*
X0026800Y0019200D01*
X0036800Y0019200D02*
X0036800Y0024400D01*
X0046800Y0024400D02*
X0046800Y0019200D01*
X0056800Y0019200D02*
X0056800Y0024400D01*
X0066800Y0024400D02*
X0066800Y0019200D01*
X0106800Y0019200D02*
X0106800Y0024400D01*
X0116800Y0024400D02*
X0116800Y0019200D01*
X0126800Y0019200D02*
X0126800Y0024400D01*
X0136800Y0024400D02*
X0136800Y0019200D01*
X0146800Y0019200D02*
X0146800Y0024400D01*
X0186800Y0024400D02*
X0186800Y0019200D01*
X0196800Y0019200D02*
X0196800Y0024400D01*
X0206800Y0024400D02*
X0206800Y0019200D01*
X0216800Y0019200D02*
X0216800Y0024400D01*
X0226800Y0024400D02*
X0226800Y0019200D01*
X0266800Y0019200D02*
X0266800Y0024400D01*
X0276800Y0024400D02*
X0276800Y0019200D01*
X0286800Y0019200D02*
X0286800Y0024400D01*
X0296800Y0024400D02*
X0296800Y0019200D01*
X0306800Y0019200D02*
X0306800Y0024400D01*
X0306800Y0119200D02*
X0306800Y0124400D01*
X0296800Y0124400D02*
X0296800Y0119200D01*
X0286800Y0119200D02*
X0286800Y0124400D01*
X0276800Y0124400D02*
X0276800Y0119200D01*
X0266800Y0119200D02*
X0266800Y0124400D01*
X0226800Y0124400D02*
X0226800Y0119200D01*
X0216800Y0119200D02*
X0216800Y0124400D01*
X0206800Y0124400D02*
X0206800Y0119200D01*
X0196800Y0119200D02*
X0196800Y0124400D01*
X0186800Y0124400D02*
X0186800Y0119200D01*
X0146800Y0119200D02*
X0146800Y0124400D01*
X0136800Y0124400D02*
X0136800Y0119200D01*
X0126800Y0119200D02*
X0126800Y0124400D01*
X0116800Y0124400D02*
X0116800Y0119200D01*
X0106800Y0119200D02*
X0106800Y0124400D01*
X0066800Y0124400D02*
X0066800Y0119200D01*
X0056800Y0119200D02*
X0056800Y0124400D01*
X0046800Y0124400D02*
X0046800Y0119200D01*
X0036800Y0119200D02*
X0036800Y0124400D01*
X0026800Y0124400D02*
X0026800Y0119200D01*
D12*
X0024800Y0311800D02*
X0018800Y0311800D01*
X0018800Y0321800D02*
X0024800Y0321800D01*
X0024800Y0331800D02*
X0018800Y0331800D01*
X0018800Y0341800D02*
X0024800Y0341800D01*
X0024800Y0351800D02*
X0018800Y0351800D01*
X0018800Y0361800D02*
X0024800Y0361800D01*
X0024800Y0371800D02*
X0018800Y0371800D01*
X0018800Y0381800D02*
X0024800Y0381800D01*
X0024800Y0391800D02*
X0018800Y0391800D01*
X0308800Y0391800D02*
X0314800Y0391800D01*
X0314800Y0381800D02*
X0308800Y0381800D01*
X0308800Y0371800D02*
X0314800Y0371800D01*
X0314800Y0361800D02*
X0308800Y0361800D01*
X0308800Y0351800D02*
X0314800Y0351800D01*
X0314800Y0341800D02*
X0308800Y0341800D01*
X0308800Y0331800D02*
X0314800Y0331800D01*
X0314800Y0321800D02*
X0308800Y0321800D01*
X0308800Y0311800D02*
X0314800Y0311800D01*
D13*
X0236446Y0320304D03*
X0236446Y0333296D03*
X0217154Y0333296D03*
X0217154Y0320304D03*
X0186446Y0370304D03*
X0186446Y0383296D03*
X0167154Y0383296D03*
X0167154Y0370304D03*
X0126446Y0333296D03*
X0126446Y0320304D03*
X0107154Y0320304D03*
X0107154Y0333296D03*
X0157154Y0283296D03*
X0157154Y0270304D03*
X0176446Y0270304D03*
X0176446Y0283296D03*
X0207154Y0233296D03*
X0207154Y0220304D03*
X0226446Y0220304D03*
X0226446Y0233296D03*
X0166446Y0183296D03*
X0166446Y0170304D03*
X0147154Y0170304D03*
X0147154Y0183296D03*
X0116446Y0220304D03*
X0116446Y0233296D03*
X0097154Y0233296D03*
X0097154Y0220304D03*
D14*
X0161800Y0011800D03*
X0171800Y0011800D03*
D15*
X0213060Y0246800D03*
X0220540Y0246800D03*
X0223060Y0346800D03*
X0230540Y0346800D03*
X0120540Y0346800D03*
X0113060Y0346800D03*
X0110540Y0246800D03*
X0103060Y0246800D03*
D16*
X0181800Y0180540D03*
X0181800Y0173060D03*
X0191800Y0273060D03*
X0191800Y0280540D03*
X0201800Y0373060D03*
X0201800Y0380540D03*
D17*
X0211100Y0373100D03*
X0196700Y0365000D03*
X0230900Y0373100D03*
X0257900Y0316400D03*
X0318200Y0286700D03*
X0247100Y0221000D03*
X0221000Y0189500D03*
X0218300Y0203900D03*
X0203900Y0181400D03*
X0197600Y0196700D03*
X0186800Y0198500D03*
X0172400Y0201200D03*
X0186800Y0213800D03*
X0201200Y0231800D03*
X0188600Y0238100D03*
X0164300Y0241700D03*
X0162500Y0219200D03*
X0142700Y0232700D03*
X0122900Y0219200D03*
X0097700Y0238100D03*
X0111200Y0264200D03*
X0081500Y0277700D03*
X0081500Y0296600D03*
X0068000Y0315500D03*
X0060800Y0284900D03*
X0046400Y0244400D03*
X0026600Y0297500D03*
X0088700Y0202100D03*
X0069800Y0188600D03*
X0076100Y0164300D03*
X0074300Y0149900D03*
X0084200Y0136400D03*
X0059000Y0132800D03*
X0111200Y0169700D03*
X0113900Y0139100D03*
X0131000Y0128300D03*
X0156200Y0158000D03*
X0148100Y0161600D03*
X0158900Y0107600D03*
X0206600Y0111200D03*
X0243500Y0159800D03*
X0257000Y0178700D03*
X0267800Y0184100D03*
X0225500Y0175100D03*
X0161600Y0050000D03*
X0161600Y0039200D03*
X0146300Y0303800D03*
X0151700Y0309200D03*
D18*
X0151800Y0336800D03*
X0191800Y0301800D03*
X0136800Y0261800D03*
X0091800Y0261800D03*
X0086800Y0311800D03*
X0091800Y0331800D03*
X0076800Y0381800D03*
X0101800Y0206800D03*
X0091800Y0181800D03*
X0061800Y0176800D03*
X0096800Y0086800D03*
X0086800Y0031800D03*
X0041800Y0041800D03*
X0246800Y0056800D03*
X0266800Y0206800D03*
X0296800Y0331800D03*
M02*
