G75*
%MOIN*%
%OFA0B0*%
%FSLAX25Y25*%
%IPPOS*%
%LPD*%
%AMOC8*
5,1,8,0,0,1.08239X$1,22.5*
%
%ADD10C,0.12998*%
%ADD11C,0.06146*%
%ADD12C,0.06800*%
%ADD13OC8,0.07000*%
%ADD14C,0.06000*%
%ADD15C,0.00450*%
%ADD16C,0.06343*%
%ADD17C,0.11620*%
%ADD18C,0.13200*%
%ADD19C,0.00552*%
%ADD20C,0.08200*%
%ADD21C,0.10400*%
%ADD22OC8,0.10400*%
%ADD23C,0.07400*%
D10*
X0061800Y0027333D03*
X0266800Y0047333D03*
X0386800Y0027333D03*
X0266800Y0157333D03*
X0361800Y0217333D03*
X0066800Y0217333D03*
D11*
X0080800Y0218052D02*
X0080800Y0216615D01*
X0090800Y0216615D02*
X0090800Y0218052D01*
X0100800Y0218052D02*
X0100800Y0216615D01*
X0110800Y0216615D02*
X0110800Y0218052D01*
X0120800Y0218052D02*
X0120800Y0216615D01*
X0130800Y0216615D02*
X0130800Y0218052D01*
X0140800Y0218052D02*
X0140800Y0216615D01*
X0150800Y0216615D02*
X0150800Y0218052D01*
X0160800Y0218052D02*
X0160800Y0216615D01*
X0170800Y0216615D02*
X0170800Y0218052D01*
X0186800Y0218052D02*
X0186800Y0216615D01*
X0196800Y0216615D02*
X0196800Y0218052D01*
X0206800Y0218052D02*
X0206800Y0216615D01*
X0216800Y0216615D02*
X0216800Y0218052D01*
X0226800Y0218052D02*
X0226800Y0216615D01*
X0236800Y0216615D02*
X0236800Y0218052D01*
X0246800Y0218052D02*
X0246800Y0216615D01*
X0256800Y0216615D02*
X0256800Y0218052D01*
X0276800Y0218052D02*
X0276800Y0216615D01*
X0286800Y0216615D02*
X0286800Y0218052D01*
X0296800Y0218052D02*
X0296800Y0216615D01*
X0306800Y0216615D02*
X0306800Y0218052D01*
X0316800Y0218052D02*
X0316800Y0216615D01*
X0326800Y0216615D02*
X0326800Y0218052D01*
X0336800Y0218052D02*
X0336800Y0216615D01*
X0346800Y0216615D02*
X0346800Y0218052D01*
X0346800Y0028052D02*
X0346800Y0026615D01*
X0336800Y0026615D02*
X0336800Y0028052D01*
X0326800Y0028052D02*
X0326800Y0026615D01*
X0316800Y0026615D02*
X0316800Y0028052D01*
X0306800Y0028052D02*
X0306800Y0026615D01*
X0296800Y0026615D02*
X0296800Y0028052D01*
X0276800Y0028052D02*
X0276800Y0026615D01*
X0266800Y0026615D02*
X0266800Y0028052D01*
X0256800Y0028052D02*
X0256800Y0026615D01*
X0246800Y0026615D02*
X0246800Y0028052D01*
X0236800Y0028052D02*
X0236800Y0026615D01*
X0226800Y0026615D02*
X0226800Y0028052D01*
X0216800Y0028052D02*
X0216800Y0026615D01*
X0206800Y0026615D02*
X0206800Y0028052D01*
X0356800Y0028052D02*
X0356800Y0026615D01*
X0366800Y0026615D02*
X0366800Y0028052D01*
D12*
X0197600Y0067333D02*
X0196000Y0067333D01*
X0196000Y0077333D02*
X0197600Y0077333D01*
X0197600Y0087333D02*
X0196000Y0087333D01*
X0196000Y0097333D02*
X0197600Y0097333D01*
X0197600Y0107333D02*
X0196000Y0107333D01*
X0196000Y0117333D02*
X0197600Y0117333D01*
X0197600Y0127333D02*
X0196000Y0127333D01*
X0196000Y0137333D02*
X0197600Y0137333D01*
X0197600Y0147333D02*
X0196000Y0147333D01*
X0196000Y0157333D02*
X0197600Y0157333D01*
X0196800Y0181533D02*
X0196800Y0183133D01*
X0186800Y0183133D02*
X0186800Y0181533D01*
X0176800Y0181533D02*
X0176800Y0183133D01*
X0166800Y0183133D02*
X0166800Y0181533D01*
X0156800Y0181533D02*
X0156800Y0183133D01*
X0146800Y0183133D02*
X0146800Y0181533D01*
X0136800Y0181533D02*
X0136800Y0183133D01*
X0126800Y0183133D02*
X0126800Y0181533D01*
X0126000Y0157333D02*
X0127600Y0157333D01*
X0127600Y0147333D02*
X0126000Y0147333D01*
X0126000Y0137333D02*
X0127600Y0137333D01*
X0127600Y0127333D02*
X0126000Y0127333D01*
X0126000Y0117333D02*
X0127600Y0117333D01*
X0127600Y0107333D02*
X0126000Y0107333D01*
X0126000Y0097333D02*
X0127600Y0097333D01*
X0127600Y0087333D02*
X0126000Y0087333D01*
X0126000Y0077333D02*
X0127600Y0077333D01*
X0127600Y0067333D02*
X0126000Y0067333D01*
X0106800Y0096533D02*
X0106800Y0098133D01*
X0096800Y0098133D02*
X0096800Y0096533D01*
X0086800Y0096533D02*
X0086800Y0098133D01*
X0064300Y0098133D02*
X0064300Y0096533D01*
X0054300Y0096533D02*
X0054300Y0098133D01*
X0031800Y0098133D02*
X0031800Y0096533D01*
X0021800Y0096533D02*
X0021800Y0098133D01*
X0126800Y0028133D02*
X0126800Y0026533D01*
X0136800Y0026533D02*
X0136800Y0028133D01*
X0146800Y0028133D02*
X0146800Y0026533D01*
X0156800Y0026533D02*
X0156800Y0028133D01*
X0166800Y0028133D02*
X0166800Y0026533D01*
X0176800Y0026533D02*
X0176800Y0028133D01*
X0186800Y0028133D02*
X0186800Y0026533D01*
X0206800Y0181533D02*
X0206800Y0183133D01*
D13*
X0376800Y0187333D03*
X0386800Y0187333D03*
X0386800Y0197333D03*
X0376800Y0197333D03*
X0376800Y0207333D03*
X0386800Y0207333D03*
X0386800Y0217333D03*
X0376800Y0217333D03*
X0376800Y0177333D03*
X0386800Y0177333D03*
X0386800Y0167333D03*
X0376800Y0167333D03*
X0376800Y0157333D03*
X0386800Y0157333D03*
X0386800Y0147333D03*
X0376800Y0147333D03*
X0376800Y0137333D03*
X0386800Y0137333D03*
X0386800Y0127333D03*
X0376800Y0127333D03*
X0376800Y0117333D03*
X0386800Y0117333D03*
X0386800Y0107333D03*
X0376800Y0107333D03*
X0376800Y0097333D03*
X0386800Y0097333D03*
X0386800Y0087333D03*
X0376800Y0087333D03*
X0376800Y0077333D03*
X0386800Y0077333D03*
X0386800Y0067333D03*
X0376800Y0067333D03*
X0376800Y0057333D03*
X0386800Y0057333D03*
X0386800Y0047333D03*
X0376800Y0047333D03*
D14*
X0247500Y0067333D02*
X0246100Y0067333D01*
X0246100Y0077333D02*
X0247500Y0077333D01*
X0247500Y0087333D02*
X0246100Y0087333D01*
X0246100Y0097333D02*
X0247500Y0097333D01*
X0247500Y0107333D02*
X0246100Y0107333D01*
X0246100Y0117333D02*
X0247500Y0117333D01*
X0247500Y0127333D02*
X0246100Y0127333D01*
X0246100Y0137333D02*
X0247500Y0137333D01*
X0247500Y0147333D02*
X0246100Y0147333D01*
X0246100Y0157333D02*
X0247500Y0157333D01*
X0217500Y0157333D02*
X0216100Y0157333D01*
X0216100Y0147333D02*
X0217500Y0147333D01*
X0217500Y0137333D02*
X0216100Y0137333D01*
X0216100Y0127333D02*
X0217500Y0127333D01*
X0217500Y0117333D02*
X0216100Y0117333D01*
X0216100Y0107333D02*
X0217500Y0107333D01*
X0217500Y0097333D02*
X0216100Y0097333D01*
X0216100Y0087333D02*
X0217500Y0087333D01*
X0217500Y0077333D02*
X0216100Y0077333D01*
X0216100Y0067333D02*
X0217500Y0067333D01*
D15*
X0177625Y0066058D02*
X0177625Y0068608D01*
X0185575Y0068608D01*
X0185575Y0066058D01*
X0177625Y0066058D01*
X0177625Y0066507D02*
X0185575Y0066507D01*
X0185575Y0066956D02*
X0177625Y0066956D01*
X0177625Y0067405D02*
X0185575Y0067405D01*
X0185575Y0067854D02*
X0177625Y0067854D01*
X0177625Y0068303D02*
X0185575Y0068303D01*
X0177625Y0071058D02*
X0177625Y0073608D01*
X0185575Y0073608D01*
X0185575Y0071058D01*
X0177625Y0071058D01*
X0177625Y0071507D02*
X0185575Y0071507D01*
X0185575Y0071956D02*
X0177625Y0071956D01*
X0177625Y0072405D02*
X0185575Y0072405D01*
X0185575Y0072854D02*
X0177625Y0072854D01*
X0177625Y0073303D02*
X0185575Y0073303D01*
X0177625Y0076058D02*
X0177625Y0078608D01*
X0185575Y0078608D01*
X0185575Y0076058D01*
X0177625Y0076058D01*
X0177625Y0076507D02*
X0185575Y0076507D01*
X0185575Y0076956D02*
X0177625Y0076956D01*
X0177625Y0077405D02*
X0185575Y0077405D01*
X0185575Y0077854D02*
X0177625Y0077854D01*
X0177625Y0078303D02*
X0185575Y0078303D01*
X0177625Y0081058D02*
X0177625Y0083608D01*
X0185575Y0083608D01*
X0185575Y0081058D01*
X0177625Y0081058D01*
X0177625Y0081507D02*
X0185575Y0081507D01*
X0185575Y0081956D02*
X0177625Y0081956D01*
X0177625Y0082405D02*
X0185575Y0082405D01*
X0185575Y0082854D02*
X0177625Y0082854D01*
X0177625Y0083303D02*
X0185575Y0083303D01*
X0177625Y0086058D02*
X0177625Y0088608D01*
X0185575Y0088608D01*
X0185575Y0086058D01*
X0177625Y0086058D01*
X0177625Y0086507D02*
X0185575Y0086507D01*
X0185575Y0086956D02*
X0177625Y0086956D01*
X0177625Y0087405D02*
X0185575Y0087405D01*
X0185575Y0087854D02*
X0177625Y0087854D01*
X0177625Y0088303D02*
X0185575Y0088303D01*
X0177625Y0091058D02*
X0177625Y0093608D01*
X0185575Y0093608D01*
X0185575Y0091058D01*
X0177625Y0091058D01*
X0177625Y0091507D02*
X0185575Y0091507D01*
X0185575Y0091956D02*
X0177625Y0091956D01*
X0177625Y0092405D02*
X0185575Y0092405D01*
X0185575Y0092854D02*
X0177625Y0092854D01*
X0177625Y0093303D02*
X0185575Y0093303D01*
X0177625Y0096058D02*
X0177625Y0098608D01*
X0185575Y0098608D01*
X0185575Y0096058D01*
X0177625Y0096058D01*
X0177625Y0096507D02*
X0185575Y0096507D01*
X0185575Y0096956D02*
X0177625Y0096956D01*
X0177625Y0097405D02*
X0185575Y0097405D01*
X0185575Y0097854D02*
X0177625Y0097854D01*
X0177625Y0098303D02*
X0185575Y0098303D01*
X0177625Y0101058D02*
X0177625Y0103608D01*
X0185575Y0103608D01*
X0185575Y0101058D01*
X0177625Y0101058D01*
X0177625Y0101507D02*
X0185575Y0101507D01*
X0185575Y0101956D02*
X0177625Y0101956D01*
X0177625Y0102405D02*
X0185575Y0102405D01*
X0185575Y0102854D02*
X0177625Y0102854D01*
X0177625Y0103303D02*
X0185575Y0103303D01*
X0177625Y0106058D02*
X0177625Y0108608D01*
X0185575Y0108608D01*
X0185575Y0106058D01*
X0177625Y0106058D01*
X0177625Y0106507D02*
X0185575Y0106507D01*
X0185575Y0106956D02*
X0177625Y0106956D01*
X0177625Y0107405D02*
X0185575Y0107405D01*
X0185575Y0107854D02*
X0177625Y0107854D01*
X0177625Y0108303D02*
X0185575Y0108303D01*
X0177625Y0111058D02*
X0177625Y0113608D01*
X0185575Y0113608D01*
X0185575Y0111058D01*
X0177625Y0111058D01*
X0177625Y0111507D02*
X0185575Y0111507D01*
X0185575Y0111956D02*
X0177625Y0111956D01*
X0177625Y0112405D02*
X0185575Y0112405D01*
X0185575Y0112854D02*
X0177625Y0112854D01*
X0177625Y0113303D02*
X0185575Y0113303D01*
X0138025Y0113608D02*
X0138025Y0111058D01*
X0138025Y0113608D02*
X0145975Y0113608D01*
X0145975Y0111058D01*
X0138025Y0111058D01*
X0138025Y0111507D02*
X0145975Y0111507D01*
X0145975Y0111956D02*
X0138025Y0111956D01*
X0138025Y0112405D02*
X0145975Y0112405D01*
X0145975Y0112854D02*
X0138025Y0112854D01*
X0138025Y0113303D02*
X0145975Y0113303D01*
X0138025Y0108608D02*
X0138025Y0106058D01*
X0138025Y0108608D02*
X0145975Y0108608D01*
X0145975Y0106058D01*
X0138025Y0106058D01*
X0138025Y0106507D02*
X0145975Y0106507D01*
X0145975Y0106956D02*
X0138025Y0106956D01*
X0138025Y0107405D02*
X0145975Y0107405D01*
X0145975Y0107854D02*
X0138025Y0107854D01*
X0138025Y0108303D02*
X0145975Y0108303D01*
X0138025Y0103608D02*
X0138025Y0101058D01*
X0138025Y0103608D02*
X0145975Y0103608D01*
X0145975Y0101058D01*
X0138025Y0101058D01*
X0138025Y0101507D02*
X0145975Y0101507D01*
X0145975Y0101956D02*
X0138025Y0101956D01*
X0138025Y0102405D02*
X0145975Y0102405D01*
X0145975Y0102854D02*
X0138025Y0102854D01*
X0138025Y0103303D02*
X0145975Y0103303D01*
X0138025Y0098608D02*
X0138025Y0096058D01*
X0138025Y0098608D02*
X0145975Y0098608D01*
X0145975Y0096058D01*
X0138025Y0096058D01*
X0138025Y0096507D02*
X0145975Y0096507D01*
X0145975Y0096956D02*
X0138025Y0096956D01*
X0138025Y0097405D02*
X0145975Y0097405D01*
X0145975Y0097854D02*
X0138025Y0097854D01*
X0138025Y0098303D02*
X0145975Y0098303D01*
X0138025Y0093608D02*
X0138025Y0091058D01*
X0138025Y0093608D02*
X0145975Y0093608D01*
X0145975Y0091058D01*
X0138025Y0091058D01*
X0138025Y0091507D02*
X0145975Y0091507D01*
X0145975Y0091956D02*
X0138025Y0091956D01*
X0138025Y0092405D02*
X0145975Y0092405D01*
X0145975Y0092854D02*
X0138025Y0092854D01*
X0138025Y0093303D02*
X0145975Y0093303D01*
X0138025Y0088608D02*
X0138025Y0086058D01*
X0138025Y0088608D02*
X0145975Y0088608D01*
X0145975Y0086058D01*
X0138025Y0086058D01*
X0138025Y0086507D02*
X0145975Y0086507D01*
X0145975Y0086956D02*
X0138025Y0086956D01*
X0138025Y0087405D02*
X0145975Y0087405D01*
X0145975Y0087854D02*
X0138025Y0087854D01*
X0138025Y0088303D02*
X0145975Y0088303D01*
X0138025Y0083608D02*
X0138025Y0081058D01*
X0138025Y0083608D02*
X0145975Y0083608D01*
X0145975Y0081058D01*
X0138025Y0081058D01*
X0138025Y0081507D02*
X0145975Y0081507D01*
X0145975Y0081956D02*
X0138025Y0081956D01*
X0138025Y0082405D02*
X0145975Y0082405D01*
X0145975Y0082854D02*
X0138025Y0082854D01*
X0138025Y0083303D02*
X0145975Y0083303D01*
X0138025Y0078608D02*
X0138025Y0076058D01*
X0138025Y0078608D02*
X0145975Y0078608D01*
X0145975Y0076058D01*
X0138025Y0076058D01*
X0138025Y0076507D02*
X0145975Y0076507D01*
X0145975Y0076956D02*
X0138025Y0076956D01*
X0138025Y0077405D02*
X0145975Y0077405D01*
X0145975Y0077854D02*
X0138025Y0077854D01*
X0138025Y0078303D02*
X0145975Y0078303D01*
X0138025Y0073608D02*
X0138025Y0071058D01*
X0138025Y0073608D02*
X0145975Y0073608D01*
X0145975Y0071058D01*
X0138025Y0071058D01*
X0138025Y0071507D02*
X0145975Y0071507D01*
X0145975Y0071956D02*
X0138025Y0071956D01*
X0138025Y0072405D02*
X0145975Y0072405D01*
X0145975Y0072854D02*
X0138025Y0072854D01*
X0138025Y0073303D02*
X0145975Y0073303D01*
X0138025Y0068608D02*
X0138025Y0066058D01*
X0138025Y0068608D02*
X0145975Y0068608D01*
X0145975Y0066058D01*
X0138025Y0066058D01*
X0138025Y0066507D02*
X0145975Y0066507D01*
X0145975Y0066956D02*
X0138025Y0066956D01*
X0138025Y0067405D02*
X0145975Y0067405D01*
X0145975Y0067854D02*
X0138025Y0067854D01*
X0138025Y0068303D02*
X0145975Y0068303D01*
X0323025Y0144208D02*
X0325575Y0144208D01*
X0325575Y0136258D01*
X0323025Y0136258D01*
X0323025Y0144208D01*
X0323025Y0136707D02*
X0325575Y0136707D01*
X0325575Y0137156D02*
X0323025Y0137156D01*
X0323025Y0137605D02*
X0325575Y0137605D01*
X0325575Y0138054D02*
X0323025Y0138054D01*
X0323025Y0138503D02*
X0325575Y0138503D01*
X0325575Y0138952D02*
X0323025Y0138952D01*
X0323025Y0139401D02*
X0325575Y0139401D01*
X0325575Y0139850D02*
X0323025Y0139850D01*
X0323025Y0140299D02*
X0325575Y0140299D01*
X0325575Y0140748D02*
X0323025Y0140748D01*
X0323025Y0141197D02*
X0325575Y0141197D01*
X0325575Y0141646D02*
X0323025Y0141646D01*
X0323025Y0142095D02*
X0325575Y0142095D01*
X0325575Y0142544D02*
X0323025Y0142544D01*
X0323025Y0142993D02*
X0325575Y0142993D01*
X0325575Y0143442D02*
X0323025Y0143442D01*
X0323025Y0143891D02*
X0325575Y0143891D01*
X0328025Y0144208D02*
X0330575Y0144208D01*
X0330575Y0136258D01*
X0328025Y0136258D01*
X0328025Y0144208D01*
X0328025Y0136707D02*
X0330575Y0136707D01*
X0330575Y0137156D02*
X0328025Y0137156D01*
X0328025Y0137605D02*
X0330575Y0137605D01*
X0330575Y0138054D02*
X0328025Y0138054D01*
X0328025Y0138503D02*
X0330575Y0138503D01*
X0330575Y0138952D02*
X0328025Y0138952D01*
X0328025Y0139401D02*
X0330575Y0139401D01*
X0330575Y0139850D02*
X0328025Y0139850D01*
X0328025Y0140299D02*
X0330575Y0140299D01*
X0330575Y0140748D02*
X0328025Y0140748D01*
X0328025Y0141197D02*
X0330575Y0141197D01*
X0330575Y0141646D02*
X0328025Y0141646D01*
X0328025Y0142095D02*
X0330575Y0142095D01*
X0330575Y0142544D02*
X0328025Y0142544D01*
X0328025Y0142993D02*
X0330575Y0142993D01*
X0330575Y0143442D02*
X0328025Y0143442D01*
X0328025Y0143891D02*
X0330575Y0143891D01*
X0333025Y0144208D02*
X0335575Y0144208D01*
X0335575Y0136258D01*
X0333025Y0136258D01*
X0333025Y0144208D01*
X0333025Y0136707D02*
X0335575Y0136707D01*
X0335575Y0137156D02*
X0333025Y0137156D01*
X0333025Y0137605D02*
X0335575Y0137605D01*
X0335575Y0138054D02*
X0333025Y0138054D01*
X0333025Y0138503D02*
X0335575Y0138503D01*
X0335575Y0138952D02*
X0333025Y0138952D01*
X0333025Y0139401D02*
X0335575Y0139401D01*
X0335575Y0139850D02*
X0333025Y0139850D01*
X0333025Y0140299D02*
X0335575Y0140299D01*
X0335575Y0140748D02*
X0333025Y0140748D01*
X0333025Y0141197D02*
X0335575Y0141197D01*
X0335575Y0141646D02*
X0333025Y0141646D01*
X0333025Y0142095D02*
X0335575Y0142095D01*
X0335575Y0142544D02*
X0333025Y0142544D01*
X0333025Y0142993D02*
X0335575Y0142993D01*
X0335575Y0143442D02*
X0333025Y0143442D01*
X0333025Y0143891D02*
X0335575Y0143891D01*
X0338025Y0144208D02*
X0340575Y0144208D01*
X0340575Y0136258D01*
X0338025Y0136258D01*
X0338025Y0144208D01*
X0338025Y0136707D02*
X0340575Y0136707D01*
X0340575Y0137156D02*
X0338025Y0137156D01*
X0338025Y0137605D02*
X0340575Y0137605D01*
X0340575Y0138054D02*
X0338025Y0138054D01*
X0338025Y0138503D02*
X0340575Y0138503D01*
X0340575Y0138952D02*
X0338025Y0138952D01*
X0338025Y0139401D02*
X0340575Y0139401D01*
X0340575Y0139850D02*
X0338025Y0139850D01*
X0338025Y0140299D02*
X0340575Y0140299D01*
X0340575Y0140748D02*
X0338025Y0140748D01*
X0338025Y0141197D02*
X0340575Y0141197D01*
X0340575Y0141646D02*
X0338025Y0141646D01*
X0338025Y0142095D02*
X0340575Y0142095D01*
X0340575Y0142544D02*
X0338025Y0142544D01*
X0338025Y0142993D02*
X0340575Y0142993D01*
X0340575Y0143442D02*
X0338025Y0143442D01*
X0338025Y0143891D02*
X0340575Y0143891D01*
X0340575Y0168408D02*
X0338025Y0168408D01*
X0340575Y0168408D02*
X0340575Y0160458D01*
X0338025Y0160458D01*
X0338025Y0168408D01*
X0338025Y0160907D02*
X0340575Y0160907D01*
X0340575Y0161356D02*
X0338025Y0161356D01*
X0338025Y0161805D02*
X0340575Y0161805D01*
X0340575Y0162254D02*
X0338025Y0162254D01*
X0338025Y0162703D02*
X0340575Y0162703D01*
X0340575Y0163152D02*
X0338025Y0163152D01*
X0338025Y0163601D02*
X0340575Y0163601D01*
X0340575Y0164050D02*
X0338025Y0164050D01*
X0338025Y0164499D02*
X0340575Y0164499D01*
X0340575Y0164948D02*
X0338025Y0164948D01*
X0338025Y0165397D02*
X0340575Y0165397D01*
X0340575Y0165846D02*
X0338025Y0165846D01*
X0338025Y0166295D02*
X0340575Y0166295D01*
X0340575Y0166744D02*
X0338025Y0166744D01*
X0338025Y0167193D02*
X0340575Y0167193D01*
X0340575Y0167642D02*
X0338025Y0167642D01*
X0338025Y0168091D02*
X0340575Y0168091D01*
X0335575Y0168408D02*
X0333025Y0168408D01*
X0335575Y0168408D02*
X0335575Y0160458D01*
X0333025Y0160458D01*
X0333025Y0168408D01*
X0333025Y0160907D02*
X0335575Y0160907D01*
X0335575Y0161356D02*
X0333025Y0161356D01*
X0333025Y0161805D02*
X0335575Y0161805D01*
X0335575Y0162254D02*
X0333025Y0162254D01*
X0333025Y0162703D02*
X0335575Y0162703D01*
X0335575Y0163152D02*
X0333025Y0163152D01*
X0333025Y0163601D02*
X0335575Y0163601D01*
X0335575Y0164050D02*
X0333025Y0164050D01*
X0333025Y0164499D02*
X0335575Y0164499D01*
X0335575Y0164948D02*
X0333025Y0164948D01*
X0333025Y0165397D02*
X0335575Y0165397D01*
X0335575Y0165846D02*
X0333025Y0165846D01*
X0333025Y0166295D02*
X0335575Y0166295D01*
X0335575Y0166744D02*
X0333025Y0166744D01*
X0333025Y0167193D02*
X0335575Y0167193D01*
X0335575Y0167642D02*
X0333025Y0167642D01*
X0333025Y0168091D02*
X0335575Y0168091D01*
X0330575Y0168408D02*
X0328025Y0168408D01*
X0330575Y0168408D02*
X0330575Y0160458D01*
X0328025Y0160458D01*
X0328025Y0168408D01*
X0328025Y0160907D02*
X0330575Y0160907D01*
X0330575Y0161356D02*
X0328025Y0161356D01*
X0328025Y0161805D02*
X0330575Y0161805D01*
X0330575Y0162254D02*
X0328025Y0162254D01*
X0328025Y0162703D02*
X0330575Y0162703D01*
X0330575Y0163152D02*
X0328025Y0163152D01*
X0328025Y0163601D02*
X0330575Y0163601D01*
X0330575Y0164050D02*
X0328025Y0164050D01*
X0328025Y0164499D02*
X0330575Y0164499D01*
X0330575Y0164948D02*
X0328025Y0164948D01*
X0328025Y0165397D02*
X0330575Y0165397D01*
X0330575Y0165846D02*
X0328025Y0165846D01*
X0328025Y0166295D02*
X0330575Y0166295D01*
X0330575Y0166744D02*
X0328025Y0166744D01*
X0328025Y0167193D02*
X0330575Y0167193D01*
X0330575Y0167642D02*
X0328025Y0167642D01*
X0328025Y0168091D02*
X0330575Y0168091D01*
X0325575Y0168408D02*
X0323025Y0168408D01*
X0325575Y0168408D02*
X0325575Y0160458D01*
X0323025Y0160458D01*
X0323025Y0168408D01*
X0323025Y0160907D02*
X0325575Y0160907D01*
X0325575Y0161356D02*
X0323025Y0161356D01*
X0323025Y0161805D02*
X0325575Y0161805D01*
X0325575Y0162254D02*
X0323025Y0162254D01*
X0323025Y0162703D02*
X0325575Y0162703D01*
X0325575Y0163152D02*
X0323025Y0163152D01*
X0323025Y0163601D02*
X0325575Y0163601D01*
X0325575Y0164050D02*
X0323025Y0164050D01*
X0323025Y0164499D02*
X0325575Y0164499D01*
X0325575Y0164948D02*
X0323025Y0164948D01*
X0323025Y0165397D02*
X0325575Y0165397D01*
X0325575Y0165846D02*
X0323025Y0165846D01*
X0323025Y0166295D02*
X0325575Y0166295D01*
X0325575Y0166744D02*
X0323025Y0166744D01*
X0323025Y0167193D02*
X0325575Y0167193D01*
X0325575Y0167642D02*
X0323025Y0167642D01*
X0323025Y0168091D02*
X0325575Y0168091D01*
D16*
X0281800Y0109833D03*
X0291800Y0104833D03*
X0281800Y0099833D03*
X0291800Y0094833D03*
X0281800Y0089833D03*
X0291800Y0084833D03*
X0281800Y0079833D03*
X0291800Y0074833D03*
D17*
X0282312Y0060333D03*
X0328800Y0060333D03*
X0328800Y0124333D03*
X0282312Y0124333D03*
D18*
X0316800Y0114833D03*
X0316800Y0069833D03*
D19*
X0303023Y0145210D02*
X0298057Y0145210D01*
X0303023Y0145210D02*
X0303023Y0139456D01*
X0298057Y0139456D01*
X0298057Y0145210D01*
X0298057Y0140007D02*
X0303023Y0140007D01*
X0303023Y0140558D02*
X0298057Y0140558D01*
X0298057Y0141109D02*
X0303023Y0141109D01*
X0303023Y0141660D02*
X0298057Y0141660D01*
X0298057Y0142211D02*
X0303023Y0142211D01*
X0303023Y0142762D02*
X0298057Y0142762D01*
X0298057Y0143313D02*
X0303023Y0143313D01*
X0303023Y0143864D02*
X0298057Y0143864D01*
X0298057Y0144415D02*
X0303023Y0144415D01*
X0303023Y0144966D02*
X0298057Y0144966D01*
X0295543Y0145210D02*
X0290577Y0145210D01*
X0295543Y0145210D02*
X0295543Y0139456D01*
X0290577Y0139456D01*
X0290577Y0145210D01*
X0290577Y0140007D02*
X0295543Y0140007D01*
X0295543Y0140558D02*
X0290577Y0140558D01*
X0290577Y0141109D02*
X0295543Y0141109D01*
X0295543Y0141660D02*
X0290577Y0141660D01*
X0290577Y0142211D02*
X0295543Y0142211D01*
X0295543Y0142762D02*
X0290577Y0142762D01*
X0290577Y0143313D02*
X0295543Y0143313D01*
X0295543Y0143864D02*
X0290577Y0143864D01*
X0290577Y0144415D02*
X0295543Y0144415D01*
X0295543Y0144966D02*
X0290577Y0144966D01*
X0290577Y0165210D02*
X0295543Y0165210D01*
X0295543Y0159456D01*
X0290577Y0159456D01*
X0290577Y0165210D01*
X0290577Y0160007D02*
X0295543Y0160007D01*
X0295543Y0160558D02*
X0290577Y0160558D01*
X0290577Y0161109D02*
X0295543Y0161109D01*
X0295543Y0161660D02*
X0290577Y0161660D01*
X0290577Y0162211D02*
X0295543Y0162211D01*
X0295543Y0162762D02*
X0290577Y0162762D01*
X0290577Y0163313D02*
X0295543Y0163313D01*
X0295543Y0163864D02*
X0290577Y0163864D01*
X0290577Y0164415D02*
X0295543Y0164415D01*
X0295543Y0164966D02*
X0290577Y0164966D01*
X0298057Y0165210D02*
X0303023Y0165210D01*
X0303023Y0159456D01*
X0298057Y0159456D01*
X0298057Y0165210D01*
X0298057Y0160007D02*
X0303023Y0160007D01*
X0303023Y0160558D02*
X0298057Y0160558D01*
X0298057Y0161109D02*
X0303023Y0161109D01*
X0303023Y0161660D02*
X0298057Y0161660D01*
X0298057Y0162211D02*
X0303023Y0162211D01*
X0303023Y0162762D02*
X0298057Y0162762D01*
X0298057Y0163313D02*
X0303023Y0163313D01*
X0303023Y0163864D02*
X0298057Y0163864D01*
X0298057Y0164415D02*
X0303023Y0164415D01*
X0303023Y0164966D02*
X0298057Y0164966D01*
X0238023Y0185210D02*
X0233057Y0185210D01*
X0238023Y0185210D02*
X0238023Y0179456D01*
X0233057Y0179456D01*
X0233057Y0185210D01*
X0233057Y0180007D02*
X0238023Y0180007D01*
X0238023Y0180558D02*
X0233057Y0180558D01*
X0233057Y0181109D02*
X0238023Y0181109D01*
X0238023Y0181660D02*
X0233057Y0181660D01*
X0233057Y0182211D02*
X0238023Y0182211D01*
X0238023Y0182762D02*
X0233057Y0182762D01*
X0233057Y0183313D02*
X0238023Y0183313D01*
X0238023Y0183864D02*
X0233057Y0183864D01*
X0233057Y0184415D02*
X0238023Y0184415D01*
X0238023Y0184966D02*
X0233057Y0184966D01*
X0230543Y0185210D02*
X0225577Y0185210D01*
X0230543Y0185210D02*
X0230543Y0179456D01*
X0225577Y0179456D01*
X0225577Y0185210D01*
X0225577Y0180007D02*
X0230543Y0180007D01*
X0230543Y0180558D02*
X0225577Y0180558D01*
X0225577Y0181109D02*
X0230543Y0181109D01*
X0230543Y0181660D02*
X0225577Y0181660D01*
X0225577Y0182211D02*
X0230543Y0182211D01*
X0230543Y0182762D02*
X0225577Y0182762D01*
X0225577Y0183313D02*
X0230543Y0183313D01*
X0230543Y0183864D02*
X0225577Y0183864D01*
X0225577Y0184415D02*
X0230543Y0184415D01*
X0230543Y0184966D02*
X0225577Y0184966D01*
X0061423Y0068556D02*
X0061423Y0063590D01*
X0061423Y0068556D02*
X0067177Y0068556D01*
X0067177Y0063590D01*
X0061423Y0063590D01*
X0061423Y0064141D02*
X0067177Y0064141D01*
X0067177Y0064692D02*
X0061423Y0064692D01*
X0061423Y0065243D02*
X0067177Y0065243D01*
X0067177Y0065794D02*
X0061423Y0065794D01*
X0061423Y0066345D02*
X0067177Y0066345D01*
X0067177Y0066896D02*
X0061423Y0066896D01*
X0061423Y0067447D02*
X0067177Y0067447D01*
X0067177Y0067998D02*
X0061423Y0067998D01*
X0061423Y0068549D02*
X0067177Y0068549D01*
X0061423Y0061076D02*
X0061423Y0056110D01*
X0061423Y0061076D02*
X0067177Y0061076D01*
X0067177Y0056110D01*
X0061423Y0056110D01*
X0061423Y0056661D02*
X0067177Y0056661D01*
X0067177Y0057212D02*
X0061423Y0057212D01*
X0061423Y0057763D02*
X0067177Y0057763D01*
X0067177Y0058314D02*
X0061423Y0058314D01*
X0061423Y0058865D02*
X0067177Y0058865D01*
X0067177Y0059416D02*
X0061423Y0059416D01*
X0061423Y0059967D02*
X0067177Y0059967D01*
X0067177Y0060518D02*
X0061423Y0060518D01*
X0061423Y0061069D02*
X0067177Y0061069D01*
D20*
X0021900Y0038308D02*
X0021900Y0036358D01*
X0041600Y0036358D02*
X0041600Y0038308D01*
X0086900Y0038308D02*
X0086900Y0036358D01*
X0106600Y0036358D02*
X0106600Y0038308D01*
D21*
X0016800Y0207333D03*
D22*
X0036800Y0207333D03*
D23*
X0036800Y0177333D03*
X0046800Y0177333D03*
X0056800Y0177333D03*
X0066800Y0177333D03*
X0076800Y0177333D03*
X0086800Y0177333D03*
X0096800Y0177333D03*
X0106800Y0177333D03*
X0106800Y0167333D03*
X0096800Y0167333D03*
X0086800Y0167333D03*
X0076800Y0167333D03*
X0066800Y0167333D03*
X0056800Y0167333D03*
X0046800Y0167333D03*
X0036800Y0167333D03*
X0026800Y0167333D03*
X0016800Y0167333D03*
X0016800Y0157333D03*
X0026800Y0157333D03*
X0036800Y0157333D03*
X0046800Y0157333D03*
X0056800Y0157333D03*
X0066800Y0157333D03*
X0076800Y0157333D03*
X0086800Y0157333D03*
X0096800Y0157333D03*
X0106800Y0157333D03*
X0106800Y0147333D03*
X0096800Y0147333D03*
X0086800Y0147333D03*
X0076800Y0147333D03*
X0066800Y0147333D03*
X0056800Y0147333D03*
X0046800Y0147333D03*
X0036800Y0147333D03*
X0026800Y0147333D03*
X0016800Y0147333D03*
X0016800Y0137333D03*
X0026800Y0137333D03*
X0036800Y0137333D03*
X0046800Y0137333D03*
X0056800Y0137333D03*
X0066800Y0137333D03*
X0076800Y0137333D03*
X0086800Y0137333D03*
X0096800Y0137333D03*
X0106800Y0137333D03*
X0106800Y0127333D03*
X0096800Y0127333D03*
X0086800Y0127333D03*
X0076800Y0127333D03*
X0066800Y0127333D03*
X0056800Y0127333D03*
X0046800Y0127333D03*
X0036800Y0127333D03*
X0026800Y0127333D03*
X0016800Y0127333D03*
X0016800Y0177333D03*
X0026800Y0177333D03*
M02*
