%
M48
M72
T01C0.01600
T02C0.02362
T03C0.03200
T04C0.03346
T05C0.03543
T06C0.03740
T07C0.03937
T08C0.04000
T09C0.05200
T10C0.07480
T11C0.12598
T12C0.12800
%
T01
X70000Y58533
X141200Y116133
X140400Y120533
X134800Y120533
X182400Y116133
X183200Y120533
X188800Y120533
X155600Y161733
X126000Y167333
X214000Y171733
X239600Y177333
X243200Y197333
X309600Y180133
X312400Y171733
X341600Y180133
X338800Y189733
X341600Y192933
X338800Y200133
X343600Y203333
X369600Y190133
X315200Y191733
X335200Y149333
X275600Y92533
X240000Y57333
X189600Y57333
X32000Y162533
T02
X261800Y137333
T03
X246800Y137333
X246800Y127333
X246800Y117333
X246800Y107333
X246800Y97333
X246800Y87333
X246800Y77333
X246800Y67333
X216800Y67333
X216800Y77333
X216800Y87333
X216800Y97333
X216800Y107333
X216800Y117333
X216800Y127333
X216800Y137333
X216800Y147333
X216800Y157333
X246800Y157333
X246800Y147333
T04
X246800Y217333
X256800Y217333
X236800Y217333
X226800Y217333
X216800Y217333
X206800Y217333
X196800Y217333
X186800Y217333
X170800Y217333
X160800Y217333
X150800Y217333
X140800Y217333
X130800Y217333
X120800Y217333
X110800Y217333
X100800Y217333
X90800Y217333
X80800Y217333
X276800Y217333
X286800Y217333
X296800Y217333
X306800Y217333
X316800Y217333
X326800Y217333
X336800Y217333
X346800Y217333
X346800Y27333
X336800Y27333
X326800Y27333
X316800Y27333
X306800Y27333
X296800Y27333
X276800Y27333
X266800Y27333
X256800Y27333
X246800Y27333
X236800Y27333
X226800Y27333
X216800Y27333
X206800Y27333
X356800Y27333
X366800Y27333
T05
X291800Y74833
X281800Y79833
X291800Y84833
X281800Y89833
X291800Y94833
X281800Y99833
X291800Y104833
X281800Y109833
T06
X376800Y107333
X386800Y107333
X386800Y97333
X376800Y97333
X376800Y87333
X386800Y87333
X386800Y77333
X376800Y77333
X376800Y67333
X386800Y67333
X386800Y57333
X376800Y57333
X376800Y47333
X386800Y47333
X386800Y117333
X376800Y117333
X376800Y127333
X386800Y127333
X386800Y137333
X376800Y137333
X376800Y147333
X386800Y147333
X386800Y157333
X376800Y157333
X376800Y167333
X386800Y167333
X386800Y177333
X376800Y177333
X376800Y187333
X386800Y187333
X386800Y197333
X376800Y197333
X376800Y207333
X386800Y207333
X386800Y217333
X376800Y217333
T07
X106800Y177333
X96800Y177333
X86800Y177333
X76800Y177333
X66800Y177333
X56800Y177333
X46800Y177333
X36800Y177333
X26800Y177333
X16800Y177333
X16800Y167333
X26800Y167333
X36800Y167333
X46800Y167333
X56800Y167333
X66800Y167333
X76800Y167333
X86800Y167333
X96800Y167333
X106800Y167333
X106800Y157333
X96800Y157333
X86800Y157333
X76800Y157333
X66800Y157333
X56800Y157333
X46800Y157333
X36800Y157333
X26800Y157333
X16800Y157333
X16800Y147333
X26800Y147333
X36800Y147333
X46800Y147333
X56800Y147333
X66800Y147333
X76800Y147333
X86800Y147333
X96800Y147333
X106800Y147333
X106800Y137333
X96800Y137333
X86800Y137333
X76800Y137333
X66800Y137333
X56800Y137333
X46800Y137333
X36800Y137333
X26800Y137333
X16800Y137333
X16800Y127333
X26800Y127333
X36800Y127333
X46800Y127333
X56800Y127333
X66800Y127333
X76800Y127333
X86800Y127333
X96800Y127333
X106800Y127333
T08
X126800Y127333
X126800Y117333
X126800Y107333
X126800Y97333
X126800Y87333
X126800Y77333
X126800Y67333
X106800Y97333
X96800Y97333
X86800Y97333
X64300Y97333
X54300Y97333
X31800Y97333
X21800Y97333
X126800Y137333
X126800Y147333
X126800Y157333
X126800Y182333
X136800Y182333
X146800Y182333
X156800Y182333
X166800Y182333
X176800Y182333
X186800Y182333
X196800Y182333
X206800Y182333
X196800Y157333
X196800Y147333
X196800Y137333
X196800Y127333
X196800Y117333
X196800Y107333
X196800Y97333
X196800Y87333
X196800Y77333
X196800Y67333
X186800Y27333
X176800Y27333
X166800Y27333
X156800Y27333
X146800Y27333
X136800Y27333
X126800Y27333
X36800Y207333
X16800Y207333
T09
X21900Y37333
X41600Y37333
X86900Y37333
X106600Y37333
T10
X282312Y60333
X328800Y60333
X328800Y124333
X282312Y124333
T11
X266800Y157333
X361800Y217333
X266800Y47333
X386800Y27333
X61800Y27333
X66800Y217333
T12
X316800Y114833
X316800Y69833
M30
