G75*
%MOIN*%
%OFA0B0*%
%FSLAX25Y25*%
%IPPOS*%
%LPD*%
%AMOC8*
5,1,8,0,0,1.08239X$1,22.5*
%
%ADD10C,0.01000*%
%ADD11C,0.01200*%
%ADD12C,0.01600*%
%ADD13C,0.00700*%
%ADD14C,0.00600*%
%ADD15C,0.00500*%
%ADD16C,0.00900*%
%ADD17C,0.00000*%
%ADD18C,0.00800*%
%ADD19C,0.00400*%
%ADD20C,0.00200*%
%ADD21C,0.00039*%
%ADD22R,0.02500X0.09000*%
D10*
X0010737Y0017333D02*
X0392863Y0017333D01*
X0392987Y0017335D01*
X0393110Y0017341D01*
X0393234Y0017350D01*
X0393356Y0017364D01*
X0393479Y0017381D01*
X0393601Y0017403D01*
X0393722Y0017428D01*
X0393842Y0017457D01*
X0393961Y0017489D01*
X0394080Y0017526D01*
X0394197Y0017566D01*
X0394312Y0017609D01*
X0394427Y0017657D01*
X0394539Y0017708D01*
X0394650Y0017762D01*
X0394760Y0017820D01*
X0394867Y0017881D01*
X0394973Y0017946D01*
X0395076Y0018014D01*
X0395177Y0018085D01*
X0395276Y0018159D01*
X0395373Y0018236D01*
X0395467Y0018317D01*
X0395558Y0018400D01*
X0395647Y0018486D01*
X0395733Y0018575D01*
X0395816Y0018666D01*
X0395897Y0018760D01*
X0395974Y0018857D01*
X0396048Y0018956D01*
X0396119Y0019057D01*
X0396187Y0019160D01*
X0396252Y0019266D01*
X0396313Y0019373D01*
X0396371Y0019483D01*
X0396425Y0019594D01*
X0396476Y0019706D01*
X0396524Y0019821D01*
X0396567Y0019936D01*
X0396607Y0020053D01*
X0396644Y0020172D01*
X0396676Y0020291D01*
X0396705Y0020411D01*
X0396730Y0020532D01*
X0396752Y0020654D01*
X0396769Y0020777D01*
X0396783Y0020899D01*
X0396792Y0021023D01*
X0396798Y0021146D01*
X0396800Y0021270D01*
X0396800Y0221333D01*
X0390800Y0227333D01*
X0010737Y0227333D01*
X0010613Y0227331D01*
X0010490Y0227325D01*
X0010366Y0227316D01*
X0010244Y0227302D01*
X0010121Y0227285D01*
X0009999Y0227263D01*
X0009878Y0227238D01*
X0009758Y0227209D01*
X0009639Y0227177D01*
X0009520Y0227140D01*
X0009403Y0227100D01*
X0009288Y0227057D01*
X0009173Y0227009D01*
X0009061Y0226958D01*
X0008950Y0226904D01*
X0008840Y0226846D01*
X0008733Y0226785D01*
X0008627Y0226720D01*
X0008524Y0226652D01*
X0008423Y0226581D01*
X0008324Y0226507D01*
X0008227Y0226430D01*
X0008133Y0226349D01*
X0008042Y0226266D01*
X0007953Y0226180D01*
X0007867Y0226091D01*
X0007784Y0226000D01*
X0007703Y0225906D01*
X0007626Y0225809D01*
X0007552Y0225710D01*
X0007481Y0225609D01*
X0007413Y0225506D01*
X0007348Y0225400D01*
X0007287Y0225293D01*
X0007229Y0225183D01*
X0007175Y0225072D01*
X0007124Y0224960D01*
X0007076Y0224845D01*
X0007033Y0224730D01*
X0006993Y0224613D01*
X0006956Y0224494D01*
X0006924Y0224375D01*
X0006895Y0224255D01*
X0006870Y0224134D01*
X0006848Y0224012D01*
X0006831Y0223889D01*
X0006817Y0223767D01*
X0006808Y0223643D01*
X0006802Y0223520D01*
X0006800Y0223396D01*
X0006800Y0021270D01*
X0006802Y0021146D01*
X0006808Y0021023D01*
X0006817Y0020899D01*
X0006831Y0020777D01*
X0006848Y0020654D01*
X0006870Y0020532D01*
X0006895Y0020411D01*
X0006924Y0020291D01*
X0006956Y0020172D01*
X0006993Y0020053D01*
X0007033Y0019936D01*
X0007076Y0019821D01*
X0007124Y0019706D01*
X0007175Y0019594D01*
X0007229Y0019483D01*
X0007287Y0019373D01*
X0007348Y0019266D01*
X0007413Y0019160D01*
X0007481Y0019057D01*
X0007552Y0018956D01*
X0007626Y0018857D01*
X0007703Y0018760D01*
X0007784Y0018666D01*
X0007867Y0018575D01*
X0007953Y0018486D01*
X0008042Y0018400D01*
X0008133Y0018317D01*
X0008227Y0018236D01*
X0008324Y0018159D01*
X0008423Y0018085D01*
X0008524Y0018014D01*
X0008627Y0017946D01*
X0008733Y0017881D01*
X0008840Y0017820D01*
X0008950Y0017762D01*
X0009061Y0017708D01*
X0009173Y0017657D01*
X0009288Y0017609D01*
X0009403Y0017566D01*
X0009520Y0017526D01*
X0009639Y0017489D01*
X0009758Y0017457D01*
X0009878Y0017428D01*
X0009999Y0017403D01*
X0010121Y0017381D01*
X0010244Y0017364D01*
X0010366Y0017350D01*
X0010490Y0017341D01*
X0010613Y0017335D01*
X0010737Y0017333D01*
X0163300Y0041833D02*
X0163300Y0047438D01*
X0166102Y0047438D01*
X0167037Y0046504D01*
X0167037Y0044636D01*
X0166102Y0043702D01*
X0163300Y0043702D01*
X0169377Y0042767D02*
X0169377Y0046504D01*
X0170311Y0047438D01*
X0172180Y0047438D01*
X0173114Y0046504D01*
X0173114Y0042767D01*
X0172180Y0041833D01*
X0170311Y0041833D01*
X0169377Y0042767D01*
X0175454Y0041833D02*
X0175454Y0047438D01*
X0179191Y0047438D02*
X0179191Y0041833D01*
X0177323Y0043702D01*
X0175454Y0041833D01*
X0181532Y0041833D02*
X0185268Y0041833D01*
X0187609Y0041833D02*
X0187609Y0047438D01*
X0190411Y0047438D01*
X0191345Y0046504D01*
X0191345Y0044636D01*
X0190411Y0043702D01*
X0187609Y0043702D01*
X0189477Y0043702D02*
X0191345Y0041833D01*
X0183400Y0044636D02*
X0181532Y0044636D01*
X0181532Y0047438D02*
X0181532Y0041833D01*
X0181532Y0047438D02*
X0185268Y0047438D01*
X0222400Y0046970D02*
X0222400Y0043233D01*
X0222400Y0046036D02*
X0226137Y0046036D01*
X0226137Y0046970D02*
X0224268Y0048838D01*
X0222400Y0046970D01*
X0226137Y0046970D02*
X0226137Y0043233D01*
X0228477Y0043233D02*
X0228477Y0048838D01*
X0232214Y0043233D01*
X0232214Y0048838D01*
X0234554Y0046970D02*
X0236423Y0048838D01*
X0238291Y0046970D01*
X0238291Y0043233D01*
X0240632Y0043233D02*
X0244368Y0043233D01*
X0246709Y0044167D02*
X0247643Y0043233D01*
X0249511Y0043233D01*
X0250445Y0044167D01*
X0250445Y0047904D01*
X0249511Y0048838D01*
X0247643Y0048838D01*
X0246709Y0047904D01*
X0246709Y0044167D01*
X0252786Y0044167D02*
X0253720Y0043233D01*
X0255588Y0043233D01*
X0256522Y0044167D01*
X0256522Y0046036D01*
X0254654Y0046036D01*
X0252786Y0047904D02*
X0252786Y0044167D01*
X0252786Y0047904D02*
X0253720Y0048838D01*
X0255588Y0048838D01*
X0256522Y0047904D01*
X0240632Y0048838D02*
X0240632Y0043233D01*
X0238291Y0046036D02*
X0234554Y0046036D01*
X0234554Y0046970D02*
X0234554Y0043233D01*
X0277095Y0043233D02*
X0278963Y0043233D01*
X0278029Y0043233D02*
X0278029Y0048838D01*
X0277095Y0048838D02*
X0278963Y0048838D01*
X0281146Y0048838D02*
X0284883Y0043233D01*
X0284883Y0048838D01*
X0281146Y0048838D02*
X0281146Y0043233D01*
X0353195Y0110333D02*
X0353195Y0113136D01*
X0354129Y0114070D01*
X0357866Y0114070D01*
X0358800Y0113136D01*
X0358800Y0110333D01*
X0353195Y0110333D01*
X0353195Y0116411D02*
X0353195Y0118279D01*
X0353195Y0117345D02*
X0358800Y0117345D01*
X0358800Y0116411D02*
X0358800Y0118279D01*
X0357866Y0120462D02*
X0354129Y0120462D01*
X0353195Y0121396D01*
X0353195Y0123264D01*
X0354129Y0124198D01*
X0355998Y0124198D02*
X0355998Y0122330D01*
X0355998Y0124198D02*
X0357866Y0124198D01*
X0358800Y0123264D01*
X0358800Y0121396D01*
X0357866Y0120462D01*
X0358800Y0126539D02*
X0358800Y0128407D01*
X0358800Y0127473D02*
X0353195Y0127473D01*
X0353195Y0126539D02*
X0353195Y0128407D01*
X0353195Y0130591D02*
X0353195Y0134327D01*
X0353195Y0132459D02*
X0358800Y0132459D01*
X0358800Y0136668D02*
X0355063Y0136668D01*
X0353195Y0138536D01*
X0355063Y0140404D01*
X0358800Y0140404D01*
X0358800Y0142745D02*
X0353195Y0142745D01*
X0355998Y0140404D02*
X0355998Y0136668D01*
X0358800Y0142745D02*
X0358800Y0146482D01*
X0332011Y0176633D02*
X0332011Y0182238D01*
X0328275Y0182238D02*
X0332011Y0176633D01*
X0328275Y0176633D02*
X0328275Y0182238D01*
X0325934Y0181304D02*
X0325000Y0182238D01*
X0323132Y0182238D01*
X0322198Y0181304D01*
X0322198Y0177567D01*
X0323132Y0176633D01*
X0325000Y0176633D01*
X0325934Y0177567D01*
X0325934Y0181304D01*
X0320014Y0182238D02*
X0318146Y0182238D01*
X0319080Y0182238D02*
X0319080Y0176633D01*
X0318146Y0176633D02*
X0320014Y0176633D01*
X0313937Y0176633D02*
X0313937Y0182238D01*
X0312069Y0182238D02*
X0315805Y0182238D01*
X0309728Y0180370D02*
X0309728Y0176633D01*
X0309728Y0179436D02*
X0305992Y0179436D01*
X0305992Y0180370D02*
X0305992Y0176633D01*
X0303651Y0177567D02*
X0302717Y0176633D01*
X0300849Y0176633D01*
X0299915Y0177567D01*
X0299915Y0181304D01*
X0300849Y0182238D01*
X0302717Y0182238D01*
X0303651Y0181304D01*
X0305992Y0180370D02*
X0307860Y0182238D01*
X0309728Y0180370D01*
X0297731Y0182238D02*
X0295863Y0182238D01*
X0296797Y0182238D02*
X0296797Y0176633D01*
X0295863Y0176633D02*
X0297731Y0176633D01*
X0293522Y0176633D02*
X0293522Y0182238D01*
X0289786Y0182238D02*
X0293522Y0176633D01*
X0289786Y0176633D02*
X0289786Y0182238D01*
X0287445Y0182238D02*
X0287445Y0177567D01*
X0286511Y0176633D01*
X0284643Y0176633D01*
X0283709Y0177567D01*
X0283709Y0182238D01*
X0281368Y0182238D02*
X0281368Y0176633D01*
X0277632Y0176633D02*
X0277632Y0182238D01*
X0279500Y0180370D01*
X0281368Y0182238D01*
X0275291Y0182238D02*
X0275291Y0176633D01*
X0271554Y0176633D02*
X0271554Y0182238D01*
X0273423Y0180370D01*
X0275291Y0182238D01*
X0269214Y0181304D02*
X0269214Y0177567D01*
X0268280Y0176633D01*
X0266411Y0176633D01*
X0265477Y0177567D01*
X0265477Y0181304D01*
X0266411Y0182238D01*
X0268280Y0182238D01*
X0269214Y0181304D01*
X0263137Y0181304D02*
X0262202Y0182238D01*
X0260334Y0182238D01*
X0259400Y0181304D01*
X0259400Y0177567D01*
X0260334Y0176633D01*
X0262202Y0176633D01*
X0263137Y0177567D01*
X0185691Y0192033D02*
X0185691Y0197638D01*
X0183823Y0195770D01*
X0181954Y0197638D01*
X0181954Y0192033D01*
X0179614Y0192033D02*
X0179614Y0197638D01*
X0175877Y0197638D02*
X0175877Y0192033D01*
X0177745Y0193902D01*
X0179614Y0192033D01*
X0173537Y0194836D02*
X0173537Y0196704D01*
X0172602Y0197638D01*
X0169800Y0197638D01*
X0169800Y0192033D01*
X0169800Y0193902D02*
X0172602Y0193902D01*
X0173537Y0194836D01*
D11*
X0166800Y0194833D02*
X0125800Y0194833D01*
X0122300Y0198333D01*
X0188800Y0194833D02*
X0232800Y0194833D01*
X0236800Y0198833D01*
X0247300Y0183333D02*
X0251800Y0178833D01*
X0256800Y0178833D01*
X0335300Y0178833D02*
X0342300Y0178833D01*
X0346800Y0183333D01*
X0356300Y0203333D02*
X0360300Y0207333D01*
X0356300Y0203333D02*
X0356300Y0149333D01*
X0356300Y0107833D02*
X0356300Y0061833D01*
X0360300Y0057833D01*
X0331200Y0044233D02*
X0328900Y0046533D01*
X0287600Y0046533D01*
X0219300Y0046533D02*
X0207300Y0046533D01*
X0204500Y0043733D01*
X0376800Y0222333D02*
X0376800Y0224833D01*
X0386800Y0224833D01*
X0386800Y0222333D01*
D12*
X0259300Y0202333D02*
X0256800Y0202333D01*
X0256800Y0199833D01*
X0259300Y0202333D01*
X0256800Y0197333D01*
X0254300Y0202333D01*
X0256800Y0199833D01*
X0256800Y0202333D02*
X0254300Y0202333D01*
X0249300Y0197333D02*
X0246800Y0199833D01*
X0246800Y0197333D01*
X0249300Y0197333D01*
X0246800Y0202333D01*
X0244300Y0197333D01*
X0246800Y0199833D01*
X0246800Y0197333D02*
X0244300Y0197333D01*
D13*
X0244046Y0193109D02*
X0248950Y0189840D01*
X0248950Y0193109D02*
X0244046Y0189840D01*
X0244046Y0187953D02*
X0244046Y0184683D01*
X0244046Y0186318D02*
X0248950Y0186318D01*
X0254046Y0187135D02*
X0254046Y0184683D01*
X0258950Y0184683D01*
X0257315Y0184683D02*
X0257315Y0187135D01*
X0256498Y0187953D01*
X0254863Y0187953D01*
X0254046Y0187135D01*
X0257315Y0186318D02*
X0258950Y0187953D01*
X0258950Y0189840D02*
X0254046Y0193109D01*
X0254046Y0189840D02*
X0258950Y0193109D01*
X0274046Y0193109D02*
X0278950Y0189840D01*
X0278950Y0193109D02*
X0274046Y0189840D01*
X0274046Y0187953D02*
X0274046Y0184683D01*
X0274046Y0186318D02*
X0278950Y0186318D01*
X0284046Y0187135D02*
X0284046Y0184683D01*
X0288950Y0184683D01*
X0287315Y0184683D02*
X0287315Y0187135D01*
X0286498Y0187953D01*
X0284863Y0187953D01*
X0284046Y0187135D01*
X0287315Y0186318D02*
X0288950Y0187953D01*
X0288950Y0189840D02*
X0284046Y0193109D01*
X0284863Y0194996D02*
X0284046Y0195813D01*
X0284046Y0197448D01*
X0284863Y0198266D01*
X0285681Y0198266D01*
X0286498Y0197448D01*
X0287315Y0198266D01*
X0288133Y0198266D01*
X0288950Y0197448D01*
X0288950Y0195813D01*
X0288133Y0194996D01*
X0288950Y0193109D02*
X0284046Y0189840D01*
X0286498Y0196631D02*
X0286498Y0197448D01*
X0278950Y0197448D02*
X0278950Y0195813D01*
X0278133Y0194996D01*
X0276498Y0196631D02*
X0276498Y0197448D01*
X0277315Y0198266D01*
X0278133Y0198266D01*
X0278950Y0197448D01*
X0276498Y0197448D02*
X0275681Y0198266D01*
X0274863Y0198266D01*
X0274046Y0197448D01*
X0274046Y0195813D01*
X0274863Y0194996D01*
X0275681Y0201683D02*
X0274046Y0203318D01*
X0278950Y0203318D01*
X0278950Y0201683D02*
X0278950Y0204953D01*
X0276498Y0206840D02*
X0276498Y0210109D01*
X0278950Y0209292D02*
X0274046Y0209292D01*
X0276498Y0206840D01*
X0284046Y0206840D02*
X0286498Y0206840D01*
X0285681Y0208474D01*
X0285681Y0209292D01*
X0286498Y0210109D01*
X0288133Y0210109D01*
X0288950Y0209292D01*
X0288950Y0207657D01*
X0288133Y0206840D01*
X0288950Y0204953D02*
X0288950Y0201683D01*
X0288950Y0203318D02*
X0284046Y0203318D01*
X0285681Y0201683D01*
X0284046Y0206840D02*
X0284046Y0210109D01*
X0294046Y0210109D02*
X0294863Y0208474D01*
X0296498Y0206840D01*
X0296498Y0209292D01*
X0297315Y0210109D01*
X0298133Y0210109D01*
X0298950Y0209292D01*
X0298950Y0207657D01*
X0298133Y0206840D01*
X0296498Y0206840D01*
X0298950Y0204953D02*
X0298950Y0201683D01*
X0298950Y0203318D02*
X0294046Y0203318D01*
X0295681Y0201683D01*
X0295681Y0198266D02*
X0294863Y0198266D01*
X0294046Y0197448D01*
X0294046Y0195813D01*
X0294863Y0194996D01*
X0294046Y0193109D02*
X0298950Y0189840D01*
X0298950Y0193109D02*
X0294046Y0189840D01*
X0294046Y0187953D02*
X0294046Y0184683D01*
X0294046Y0186318D02*
X0298950Y0186318D01*
X0304046Y0187135D02*
X0304046Y0184683D01*
X0308950Y0184683D01*
X0307315Y0184683D02*
X0307315Y0187135D01*
X0306498Y0187953D01*
X0304863Y0187953D01*
X0304046Y0187135D01*
X0307315Y0186318D02*
X0308950Y0187953D01*
X0308950Y0189840D02*
X0304046Y0193109D01*
X0304863Y0194996D02*
X0304046Y0195813D01*
X0304046Y0197448D01*
X0304863Y0198266D01*
X0305681Y0198266D01*
X0308950Y0194996D01*
X0308950Y0198266D01*
X0314046Y0196631D02*
X0318950Y0196631D01*
X0318950Y0194996D02*
X0318950Y0198266D01*
X0315681Y0194996D02*
X0314046Y0196631D01*
X0314046Y0193109D02*
X0318950Y0189840D01*
X0318950Y0193109D02*
X0314046Y0189840D01*
X0314046Y0187953D02*
X0314046Y0184683D01*
X0314046Y0186318D02*
X0318950Y0186318D01*
X0324046Y0187135D02*
X0324046Y0184683D01*
X0328950Y0184683D01*
X0327315Y0184683D02*
X0327315Y0187135D01*
X0326498Y0187953D01*
X0324863Y0187953D01*
X0324046Y0187135D01*
X0327315Y0186318D02*
X0328950Y0187953D01*
X0328950Y0189840D02*
X0324046Y0193109D01*
X0325681Y0194996D02*
X0324046Y0196631D01*
X0328950Y0196631D01*
X0328950Y0194996D02*
X0328950Y0198266D01*
X0334046Y0196631D02*
X0335681Y0198266D01*
X0338950Y0198266D01*
X0336498Y0198266D02*
X0336498Y0194996D01*
X0335681Y0194996D02*
X0334046Y0196631D01*
X0335681Y0194996D02*
X0338950Y0194996D01*
X0338133Y0193109D02*
X0334863Y0193109D01*
X0334046Y0192292D01*
X0334046Y0189840D01*
X0338950Y0189840D01*
X0338950Y0192292D01*
X0338133Y0193109D01*
X0338133Y0187953D02*
X0338950Y0187135D01*
X0338950Y0185501D01*
X0338133Y0184683D01*
X0336498Y0185501D02*
X0335681Y0184683D01*
X0334863Y0184683D01*
X0334046Y0185501D01*
X0334046Y0187135D01*
X0334863Y0187953D01*
X0336498Y0187135D02*
X0337315Y0187953D01*
X0338133Y0187953D01*
X0336498Y0187135D02*
X0336498Y0185501D01*
X0344046Y0185501D02*
X0344863Y0184683D01*
X0345681Y0184683D01*
X0346498Y0185501D01*
X0346498Y0187135D01*
X0347315Y0187953D01*
X0348133Y0187953D01*
X0348950Y0187135D01*
X0348950Y0185501D01*
X0348133Y0184683D01*
X0344046Y0185501D02*
X0344046Y0187135D01*
X0344863Y0187953D01*
X0344863Y0189840D02*
X0348133Y0189840D01*
X0348950Y0190657D01*
X0348950Y0192292D01*
X0348133Y0193109D01*
X0348950Y0194996D02*
X0344046Y0194996D01*
X0344863Y0193109D02*
X0344046Y0192292D01*
X0344046Y0190657D01*
X0344863Y0189840D01*
X0348950Y0194996D02*
X0348950Y0198266D01*
X0348950Y0201683D02*
X0345681Y0204953D01*
X0344863Y0204953D01*
X0344046Y0204135D01*
X0344046Y0202501D01*
X0344863Y0201683D01*
X0348950Y0201683D02*
X0348950Y0204953D01*
X0348950Y0206840D02*
X0348950Y0210109D01*
X0348950Y0208474D02*
X0344046Y0208474D01*
X0345681Y0206840D01*
X0338950Y0207657D02*
X0338133Y0206840D01*
X0334863Y0210109D01*
X0338133Y0210109D01*
X0338950Y0209292D01*
X0338950Y0207657D01*
X0338133Y0206840D02*
X0334863Y0206840D01*
X0334046Y0207657D01*
X0334046Y0209292D01*
X0334863Y0210109D01*
X0328950Y0209292D02*
X0328950Y0207657D01*
X0328133Y0206840D01*
X0326498Y0207657D02*
X0326498Y0210109D01*
X0328133Y0210109D02*
X0324863Y0210109D01*
X0324046Y0209292D01*
X0324046Y0207657D01*
X0324863Y0206840D01*
X0325681Y0206840D01*
X0326498Y0207657D01*
X0328950Y0209292D02*
X0328133Y0210109D01*
X0328950Y0204953D02*
X0328950Y0201683D01*
X0328950Y0203318D02*
X0324046Y0203318D01*
X0325681Y0201683D01*
X0318950Y0201683D02*
X0318950Y0204953D01*
X0318950Y0203318D02*
X0314046Y0203318D01*
X0315681Y0201683D01*
X0315681Y0206840D02*
X0314863Y0206840D01*
X0314046Y0207657D01*
X0314046Y0209292D01*
X0314863Y0210109D01*
X0315681Y0210109D01*
X0316498Y0209292D01*
X0316498Y0207657D01*
X0315681Y0206840D01*
X0316498Y0207657D02*
X0317315Y0206840D01*
X0318133Y0206840D01*
X0318950Y0207657D01*
X0318950Y0209292D01*
X0318133Y0210109D01*
X0317315Y0210109D01*
X0316498Y0209292D01*
X0308950Y0206840D02*
X0308133Y0206840D01*
X0304863Y0210109D01*
X0304046Y0210109D01*
X0304046Y0206840D01*
X0308950Y0204953D02*
X0308950Y0201683D01*
X0308950Y0203318D02*
X0304046Y0203318D01*
X0305681Y0201683D01*
X0298950Y0198266D02*
X0298950Y0194996D01*
X0295681Y0198266D01*
X0304046Y0189840D02*
X0308950Y0193109D01*
X0324046Y0189840D02*
X0328950Y0193109D01*
X0334863Y0201683D02*
X0334046Y0202501D01*
X0334046Y0204135D01*
X0334863Y0204953D01*
X0335681Y0204953D01*
X0338950Y0201683D01*
X0338950Y0204953D01*
X0362150Y0205183D02*
X0365419Y0208453D01*
X0365419Y0209270D01*
X0364602Y0210088D01*
X0362967Y0210088D01*
X0362150Y0209270D01*
X0362150Y0205183D02*
X0365419Y0205183D01*
X0367306Y0205183D02*
X0370576Y0208453D01*
X0370576Y0209270D01*
X0369758Y0210088D01*
X0368124Y0210088D01*
X0367306Y0209270D01*
X0367306Y0205183D02*
X0370576Y0205183D01*
X0369758Y0200088D02*
X0367306Y0197635D01*
X0370576Y0197635D01*
X0369758Y0195183D02*
X0369758Y0200088D01*
X0365419Y0199270D02*
X0365419Y0198453D01*
X0362150Y0195183D01*
X0365419Y0195183D01*
X0365419Y0199270D02*
X0364602Y0200088D01*
X0362967Y0200088D01*
X0362150Y0199270D01*
X0362967Y0190088D02*
X0362150Y0189270D01*
X0362967Y0190088D02*
X0364602Y0190088D01*
X0365419Y0189270D01*
X0365419Y0188453D01*
X0362150Y0185183D01*
X0365419Y0185183D01*
X0367306Y0186001D02*
X0367306Y0187635D01*
X0369758Y0187635D01*
X0370576Y0186818D01*
X0370576Y0186001D01*
X0369758Y0185183D01*
X0368124Y0185183D01*
X0367306Y0186001D01*
X0367306Y0187635D02*
X0368941Y0189270D01*
X0370576Y0190088D01*
X0369758Y0180088D02*
X0370576Y0179270D01*
X0370576Y0178453D01*
X0369758Y0177635D01*
X0368124Y0177635D01*
X0367306Y0178453D01*
X0367306Y0179270D01*
X0368124Y0180088D01*
X0369758Y0180088D01*
X0369758Y0177635D02*
X0370576Y0176818D01*
X0370576Y0176001D01*
X0369758Y0175183D01*
X0368124Y0175183D01*
X0367306Y0176001D01*
X0367306Y0176818D01*
X0368124Y0177635D01*
X0365419Y0178453D02*
X0365419Y0179270D01*
X0364602Y0180088D01*
X0362967Y0180088D01*
X0362150Y0179270D01*
X0365419Y0178453D02*
X0362150Y0175183D01*
X0365419Y0175183D01*
X0364602Y0170088D02*
X0362967Y0170088D01*
X0362150Y0169270D01*
X0363785Y0167635D02*
X0364602Y0167635D01*
X0365419Y0166818D01*
X0365419Y0166001D01*
X0364602Y0165183D01*
X0362967Y0165183D01*
X0362150Y0166001D01*
X0364602Y0167635D02*
X0365419Y0168453D01*
X0365419Y0169270D01*
X0364602Y0170088D01*
X0367306Y0169270D02*
X0368124Y0170088D01*
X0369758Y0170088D01*
X0370576Y0169270D01*
X0367306Y0166001D01*
X0368124Y0165183D01*
X0369758Y0165183D01*
X0370576Y0166001D01*
X0370576Y0169270D01*
X0367306Y0169270D02*
X0367306Y0166001D01*
X0368124Y0160088D02*
X0367306Y0159270D01*
X0368124Y0160088D02*
X0369758Y0160088D01*
X0370576Y0159270D01*
X0370576Y0158453D01*
X0367306Y0155183D01*
X0370576Y0155183D01*
X0365419Y0156001D02*
X0364602Y0155183D01*
X0362967Y0155183D01*
X0362150Y0156001D01*
X0363785Y0157635D02*
X0364602Y0157635D01*
X0365419Y0156818D01*
X0365419Y0156001D01*
X0364602Y0157635D02*
X0365419Y0158453D01*
X0365419Y0159270D01*
X0364602Y0160088D01*
X0362967Y0160088D01*
X0362150Y0159270D01*
X0362967Y0150088D02*
X0364602Y0150088D01*
X0365419Y0149270D01*
X0365419Y0148453D01*
X0364602Y0147635D01*
X0365419Y0146818D01*
X0365419Y0146001D01*
X0364602Y0145183D01*
X0362967Y0145183D01*
X0362150Y0146001D01*
X0363785Y0147635D02*
X0364602Y0147635D01*
X0367306Y0147635D02*
X0369758Y0150088D01*
X0369758Y0145183D01*
X0370576Y0147635D02*
X0367306Y0147635D01*
X0362967Y0150088D02*
X0362150Y0149270D01*
X0362967Y0140088D02*
X0364602Y0140088D01*
X0365419Y0139270D01*
X0365419Y0138453D01*
X0364602Y0137635D01*
X0365419Y0136818D01*
X0365419Y0136001D01*
X0364602Y0135183D01*
X0362967Y0135183D01*
X0362150Y0136001D01*
X0363785Y0137635D02*
X0364602Y0137635D01*
X0367306Y0137635D02*
X0368941Y0139270D01*
X0370576Y0140088D01*
X0369758Y0137635D02*
X0367306Y0137635D01*
X0367306Y0136001D01*
X0368124Y0135183D01*
X0369758Y0135183D01*
X0370576Y0136001D01*
X0370576Y0136818D01*
X0369758Y0137635D01*
X0362967Y0140088D02*
X0362150Y0139270D01*
X0362967Y0130088D02*
X0364602Y0130088D01*
X0365419Y0129270D01*
X0365419Y0128453D01*
X0364602Y0127635D01*
X0365419Y0126818D01*
X0365419Y0126001D01*
X0364602Y0125183D01*
X0362967Y0125183D01*
X0362150Y0126001D01*
X0363785Y0127635D02*
X0364602Y0127635D01*
X0367306Y0126818D02*
X0367306Y0126001D01*
X0368124Y0125183D01*
X0369758Y0125183D01*
X0370576Y0126001D01*
X0370576Y0126818D01*
X0369758Y0127635D01*
X0368124Y0127635D01*
X0367306Y0128453D01*
X0367306Y0129270D01*
X0368124Y0130088D01*
X0369758Y0130088D01*
X0370576Y0129270D01*
X0370576Y0128453D01*
X0369758Y0127635D01*
X0368124Y0127635D02*
X0367306Y0126818D01*
X0362967Y0130088D02*
X0362150Y0129270D01*
X0364602Y0120088D02*
X0362150Y0117635D01*
X0365419Y0117635D01*
X0367306Y0116001D02*
X0370576Y0119270D01*
X0370576Y0116001D01*
X0369758Y0115183D01*
X0368124Y0115183D01*
X0367306Y0116001D01*
X0367306Y0119270D01*
X0368124Y0120088D01*
X0369758Y0120088D01*
X0370576Y0119270D01*
X0364602Y0120088D02*
X0364602Y0115183D01*
X0364602Y0110088D02*
X0362150Y0107635D01*
X0365419Y0107635D01*
X0367306Y0109270D02*
X0368124Y0110088D01*
X0369758Y0110088D01*
X0370576Y0109270D01*
X0370576Y0108453D01*
X0367306Y0105183D01*
X0370576Y0105183D01*
X0364602Y0105183D02*
X0364602Y0110088D01*
X0364602Y0100088D02*
X0362150Y0097635D01*
X0365419Y0097635D01*
X0367306Y0097635D02*
X0369758Y0100088D01*
X0369758Y0095183D01*
X0370576Y0097635D02*
X0367306Y0097635D01*
X0364602Y0095183D02*
X0364602Y0100088D01*
X0364602Y0090088D02*
X0362150Y0087635D01*
X0365419Y0087635D01*
X0367306Y0087635D02*
X0367306Y0086001D01*
X0368124Y0085183D01*
X0369758Y0085183D01*
X0370576Y0086001D01*
X0370576Y0086818D01*
X0369758Y0087635D01*
X0367306Y0087635D01*
X0368941Y0089270D01*
X0370576Y0090088D01*
X0364602Y0090088D02*
X0364602Y0085183D01*
X0364602Y0080088D02*
X0362150Y0077635D01*
X0365419Y0077635D01*
X0367306Y0076818D02*
X0368124Y0077635D01*
X0369758Y0077635D01*
X0370576Y0076818D01*
X0370576Y0076001D01*
X0369758Y0075183D01*
X0368124Y0075183D01*
X0367306Y0076001D01*
X0367306Y0076818D01*
X0368124Y0077635D02*
X0367306Y0078453D01*
X0367306Y0079270D01*
X0368124Y0080088D01*
X0369758Y0080088D01*
X0370576Y0079270D01*
X0370576Y0078453D01*
X0369758Y0077635D01*
X0364602Y0075183D02*
X0364602Y0080088D01*
X0365419Y0070088D02*
X0362150Y0070088D01*
X0362150Y0067635D01*
X0363785Y0068453D01*
X0364602Y0068453D01*
X0365419Y0067635D01*
X0365419Y0066001D01*
X0364602Y0065183D01*
X0362967Y0065183D01*
X0362150Y0066001D01*
X0367306Y0066001D02*
X0368124Y0065183D01*
X0369758Y0065183D01*
X0370576Y0066001D01*
X0370576Y0069270D01*
X0367306Y0066001D01*
X0367306Y0069270D01*
X0368124Y0070088D01*
X0369758Y0070088D01*
X0370576Y0069270D01*
X0369758Y0060088D02*
X0368124Y0060088D01*
X0367306Y0059270D01*
X0365419Y0060088D02*
X0362150Y0060088D01*
X0362150Y0057635D01*
X0363785Y0058453D01*
X0364602Y0058453D01*
X0365419Y0057635D01*
X0365419Y0056001D01*
X0364602Y0055183D01*
X0362967Y0055183D01*
X0362150Y0056001D01*
X0367306Y0055183D02*
X0370576Y0058453D01*
X0370576Y0059270D01*
X0369758Y0060088D01*
X0370576Y0055183D02*
X0367306Y0055183D01*
X0376967Y0040088D02*
X0376150Y0039270D01*
X0376150Y0036001D01*
X0376967Y0035183D01*
X0378602Y0035183D01*
X0379419Y0036001D01*
X0379419Y0037635D01*
X0377785Y0037635D01*
X0379419Y0039270D02*
X0378602Y0040088D01*
X0376967Y0040088D01*
X0381306Y0040088D02*
X0384576Y0035183D01*
X0384576Y0040088D01*
X0386463Y0040088D02*
X0388915Y0040088D01*
X0389732Y0039270D01*
X0389732Y0036001D01*
X0388915Y0035183D01*
X0386463Y0035183D01*
X0386463Y0040088D01*
X0381306Y0040088D02*
X0381306Y0035183D01*
X0328650Y0036183D02*
X0328650Y0039453D01*
X0328650Y0037818D02*
X0323746Y0037818D01*
X0325381Y0036183D01*
X0325381Y0041340D02*
X0323746Y0042974D01*
X0328650Y0042974D01*
X0328650Y0041340D02*
X0328650Y0044609D01*
X0309450Y0038635D02*
X0309450Y0037001D01*
X0308633Y0036183D01*
X0306998Y0037001D02*
X0306998Y0039453D01*
X0308633Y0039453D02*
X0305363Y0039453D01*
X0304546Y0038635D01*
X0304546Y0037001D01*
X0305363Y0036183D01*
X0306181Y0036183D01*
X0306998Y0037001D01*
X0309450Y0038635D02*
X0308633Y0039453D01*
X0299450Y0038635D02*
X0299450Y0037001D01*
X0298633Y0036183D01*
X0297815Y0036183D01*
X0296998Y0037001D01*
X0296998Y0038635D01*
X0297815Y0039453D01*
X0298633Y0039453D01*
X0299450Y0038635D01*
X0296998Y0038635D02*
X0296181Y0039453D01*
X0295363Y0039453D01*
X0294546Y0038635D01*
X0294546Y0037001D01*
X0295363Y0036183D01*
X0296181Y0036183D01*
X0296998Y0037001D01*
X0279450Y0036183D02*
X0278633Y0036183D01*
X0275363Y0039453D01*
X0274546Y0039453D01*
X0274546Y0036183D01*
X0268950Y0037001D02*
X0268950Y0038635D01*
X0268133Y0039453D01*
X0267315Y0039453D01*
X0266498Y0038635D01*
X0266498Y0036183D01*
X0268133Y0036183D01*
X0268950Y0037001D01*
X0266498Y0036183D02*
X0264863Y0037818D01*
X0264046Y0039453D01*
X0258950Y0038635D02*
X0258950Y0037001D01*
X0258133Y0036183D01*
X0256498Y0036183D02*
X0255681Y0037818D01*
X0255681Y0038635D01*
X0256498Y0039453D01*
X0258133Y0039453D01*
X0258950Y0038635D01*
X0256498Y0036183D02*
X0254046Y0036183D01*
X0254046Y0039453D01*
X0249450Y0038635D02*
X0244546Y0038635D01*
X0246998Y0036183D01*
X0246998Y0039453D01*
X0239450Y0038635D02*
X0239450Y0037001D01*
X0238633Y0036183D01*
X0236998Y0037818D02*
X0236998Y0038635D01*
X0237815Y0039453D01*
X0238633Y0039453D01*
X0239450Y0038635D01*
X0236998Y0038635D02*
X0236181Y0039453D01*
X0235363Y0039453D01*
X0234546Y0038635D01*
X0234546Y0037001D01*
X0235363Y0036183D01*
X0229450Y0036183D02*
X0226181Y0039453D01*
X0225363Y0039453D01*
X0224546Y0038635D01*
X0224546Y0037001D01*
X0225363Y0036183D01*
X0229450Y0036183D02*
X0229450Y0039453D01*
X0218450Y0039453D02*
X0218450Y0036183D01*
X0218450Y0037818D02*
X0213546Y0037818D01*
X0215181Y0036183D01*
X0209450Y0037001D02*
X0208633Y0036183D01*
X0205363Y0039453D01*
X0208633Y0039453D01*
X0209450Y0038635D01*
X0209450Y0037001D01*
X0208633Y0036183D02*
X0205363Y0036183D01*
X0204546Y0037001D01*
X0204546Y0038635D01*
X0205363Y0039453D01*
X0194161Y0039405D02*
X0194161Y0034501D01*
X0190892Y0039405D01*
X0190892Y0034501D01*
X0189089Y0034501D02*
X0187454Y0034501D01*
X0188272Y0034501D02*
X0188272Y0039405D01*
X0189089Y0039405D02*
X0187454Y0039405D01*
X0185567Y0039405D02*
X0185567Y0036135D01*
X0183933Y0034501D01*
X0182298Y0036135D01*
X0182298Y0039405D01*
X0178680Y0038587D02*
X0178680Y0035318D01*
X0177863Y0034501D01*
X0175411Y0034501D01*
X0175411Y0039405D01*
X0177863Y0039405D01*
X0178680Y0038587D01*
X0173524Y0039405D02*
X0173524Y0034501D01*
X0170254Y0039405D01*
X0170254Y0034501D01*
X0168367Y0035318D02*
X0168367Y0036953D01*
X0166733Y0036953D01*
X0168367Y0038587D02*
X0167550Y0039405D01*
X0165915Y0039405D01*
X0165098Y0038587D01*
X0165098Y0035318D01*
X0165915Y0034501D01*
X0167550Y0034501D01*
X0168367Y0035318D01*
X0161524Y0036135D02*
X0161524Y0039405D01*
X0158254Y0039405D02*
X0158254Y0036135D01*
X0159889Y0034501D01*
X0161524Y0036135D01*
X0156367Y0035318D02*
X0155550Y0034501D01*
X0153915Y0034501D01*
X0153098Y0035318D01*
X0153098Y0036953D02*
X0154733Y0037770D01*
X0155550Y0037770D01*
X0156367Y0036953D01*
X0156367Y0035318D01*
X0153098Y0036953D02*
X0153098Y0039405D01*
X0156367Y0039405D01*
X0149333Y0041222D02*
X0147698Y0042857D01*
X0144428Y0042857D01*
X0145246Y0044744D02*
X0144428Y0045562D01*
X0144428Y0047196D01*
X0145246Y0048014D01*
X0146063Y0048014D01*
X0146881Y0047196D01*
X0147698Y0048014D01*
X0148515Y0048014D01*
X0149333Y0047196D01*
X0149333Y0045562D01*
X0148515Y0044744D01*
X0146881Y0046379D02*
X0146881Y0047196D01*
X0139333Y0047196D02*
X0139333Y0045562D01*
X0138515Y0044744D01*
X0136881Y0045562D02*
X0136881Y0047196D01*
X0137698Y0048014D01*
X0138515Y0048014D01*
X0139333Y0047196D01*
X0139333Y0049901D02*
X0134428Y0049901D01*
X0134428Y0053170D01*
X0134428Y0055057D02*
X0134428Y0058326D01*
X0134428Y0056692D02*
X0139333Y0056692D01*
X0139333Y0053170D02*
X0139333Y0049901D01*
X0136881Y0049901D02*
X0136881Y0051535D01*
X0129333Y0051451D02*
X0129333Y0048182D01*
X0124428Y0048182D01*
X0124428Y0051451D01*
X0124428Y0053338D02*
X0124428Y0056608D01*
X0126881Y0054973D02*
X0126881Y0053338D01*
X0129333Y0053338D02*
X0124428Y0053338D01*
X0126881Y0049816D02*
X0126881Y0048182D01*
X0126881Y0046295D02*
X0127698Y0045477D01*
X0127698Y0043025D01*
X0129333Y0043025D02*
X0124428Y0043025D01*
X0124428Y0045477D01*
X0125246Y0046295D01*
X0126881Y0046295D01*
X0127698Y0044660D02*
X0129333Y0046295D01*
X0134428Y0045562D02*
X0134428Y0047196D01*
X0135246Y0048014D01*
X0134428Y0045562D02*
X0135246Y0044744D01*
X0136063Y0044744D01*
X0136881Y0045562D01*
X0139333Y0042857D02*
X0139333Y0039588D01*
X0134428Y0039588D01*
X0134428Y0042857D01*
X0136881Y0041222D02*
X0136881Y0039588D01*
X0136881Y0037701D02*
X0137698Y0036883D01*
X0137698Y0034431D01*
X0139333Y0034431D02*
X0134428Y0034431D01*
X0134428Y0036883D01*
X0135246Y0037701D01*
X0136881Y0037701D01*
X0137698Y0036066D02*
X0139333Y0037701D01*
X0144428Y0036883D02*
X0145246Y0037701D01*
X0146063Y0037701D01*
X0146881Y0036883D01*
X0147698Y0037701D01*
X0148515Y0037701D01*
X0149333Y0036883D01*
X0149333Y0035249D01*
X0148515Y0034431D01*
X0146881Y0036066D02*
X0146881Y0036883D01*
X0144428Y0036883D02*
X0144428Y0035249D01*
X0145246Y0034431D01*
X0144428Y0039588D02*
X0147698Y0039588D01*
X0149333Y0041222D01*
X0129333Y0040321D02*
X0129333Y0038686D01*
X0128515Y0037869D01*
X0125246Y0037869D01*
X0124428Y0038686D01*
X0124428Y0040321D01*
X0125246Y0041138D01*
X0128515Y0041138D01*
X0129333Y0040321D01*
X0129333Y0036066D02*
X0129333Y0034431D01*
X0129333Y0035249D02*
X0124428Y0035249D01*
X0124428Y0036066D02*
X0124428Y0034431D01*
X0099252Y0071683D02*
X0101354Y0073785D01*
X0101354Y0077989D01*
X0097150Y0077989D02*
X0097150Y0073785D01*
X0099252Y0071683D01*
X0094908Y0072734D02*
X0093857Y0071683D01*
X0091755Y0071683D01*
X0090705Y0072734D01*
X0090705Y0074836D02*
X0092806Y0075887D01*
X0093857Y0075887D01*
X0094908Y0074836D01*
X0094908Y0072734D01*
X0090705Y0074836D02*
X0090705Y0077989D01*
X0094908Y0077989D01*
X0039576Y0077989D02*
X0039576Y0073785D01*
X0037475Y0071683D01*
X0035373Y0073785D01*
X0035373Y0077989D01*
X0033131Y0076938D02*
X0032080Y0077989D01*
X0029978Y0077989D01*
X0028927Y0076938D01*
X0033131Y0076938D02*
X0033131Y0075887D01*
X0028927Y0071683D01*
X0033131Y0071683D01*
X0026685Y0071683D02*
X0022482Y0071683D01*
X0024584Y0071683D02*
X0024584Y0077989D01*
X0022482Y0075887D01*
X0080546Y0192031D02*
X0081363Y0192031D01*
X0082181Y0192849D01*
X0082181Y0194483D01*
X0082998Y0195301D01*
X0083815Y0195301D01*
X0084633Y0194483D01*
X0084633Y0192849D01*
X0083815Y0192031D01*
X0080546Y0192031D02*
X0079728Y0192849D01*
X0079728Y0194483D01*
X0080546Y0195301D01*
X0080546Y0197188D02*
X0083815Y0197188D01*
X0084633Y0198005D01*
X0084633Y0199640D01*
X0083815Y0200457D01*
X0084633Y0202344D02*
X0079728Y0202344D01*
X0080546Y0200457D02*
X0079728Y0199640D01*
X0079728Y0198005D01*
X0080546Y0197188D01*
X0084633Y0202344D02*
X0084633Y0205614D01*
X0084633Y0207501D02*
X0084633Y0210770D01*
X0084633Y0209135D02*
X0079728Y0209135D01*
X0081363Y0207501D01*
X0088928Y0209135D02*
X0090563Y0207501D01*
X0090563Y0205614D02*
X0093833Y0205614D01*
X0093833Y0207501D02*
X0093833Y0210770D01*
X0093833Y0209135D02*
X0088928Y0209135D01*
X0090563Y0205614D02*
X0088928Y0203979D01*
X0090563Y0202344D01*
X0093833Y0202344D01*
X0093015Y0200457D02*
X0089746Y0200457D01*
X0088928Y0199640D01*
X0088928Y0197188D01*
X0093833Y0197188D01*
X0093833Y0199640D01*
X0093015Y0200457D01*
X0091381Y0202344D02*
X0091381Y0205614D01*
X0098928Y0205614D02*
X0098928Y0202344D01*
X0103833Y0202344D01*
X0103833Y0205614D01*
X0103833Y0207501D02*
X0098928Y0207501D01*
X0098928Y0210770D01*
X0101381Y0209135D02*
X0101381Y0207501D01*
X0101381Y0203979D02*
X0101381Y0202344D01*
X0101381Y0200457D02*
X0099746Y0200457D01*
X0098928Y0199640D01*
X0098928Y0197188D01*
X0103833Y0197188D01*
X0102198Y0197188D02*
X0102198Y0199640D01*
X0101381Y0200457D01*
X0102198Y0198822D02*
X0103833Y0200457D01*
X0103833Y0195301D02*
X0100563Y0195301D01*
X0098928Y0193666D01*
X0100563Y0192031D01*
X0103833Y0192031D01*
X0101381Y0192031D02*
X0101381Y0195301D01*
X0093833Y0194483D02*
X0093833Y0192849D01*
X0093015Y0192031D01*
X0091381Y0192849D02*
X0091381Y0194483D01*
X0092198Y0195301D01*
X0093015Y0195301D01*
X0093833Y0194483D01*
X0091381Y0192849D02*
X0090563Y0192031D01*
X0089746Y0192031D01*
X0088928Y0192849D01*
X0088928Y0194483D01*
X0089746Y0195301D01*
X0109471Y0197549D02*
X0110288Y0196731D01*
X0113558Y0196731D01*
X0114375Y0197549D01*
X0114375Y0199183D01*
X0113558Y0200001D01*
X0111923Y0200001D01*
X0111923Y0198366D01*
X0110288Y0200001D02*
X0109471Y0199183D01*
X0109471Y0197549D01*
X0109471Y0201888D02*
X0114375Y0205157D01*
X0109471Y0205157D01*
X0109471Y0207044D02*
X0109471Y0209496D01*
X0110288Y0210314D01*
X0113558Y0210314D01*
X0114375Y0209496D01*
X0114375Y0207044D01*
X0109471Y0207044D01*
X0109471Y0201888D02*
X0114375Y0201888D01*
X0119046Y0201818D02*
X0120681Y0200183D01*
X0119046Y0201818D02*
X0123950Y0201818D01*
X0123950Y0200183D02*
X0123950Y0203453D01*
X0123133Y0205340D02*
X0123950Y0206157D01*
X0123950Y0207792D01*
X0123133Y0208609D01*
X0122315Y0208609D01*
X0121498Y0207792D01*
X0121498Y0206974D01*
X0121498Y0207792D02*
X0120681Y0208609D01*
X0119863Y0208609D01*
X0119046Y0207792D01*
X0119046Y0206157D01*
X0119863Y0205340D01*
X0129046Y0206157D02*
X0129863Y0205340D01*
X0129046Y0206157D02*
X0129046Y0207792D01*
X0129863Y0208609D01*
X0130681Y0208609D01*
X0133950Y0205340D01*
X0133950Y0208609D01*
X0139046Y0206974D02*
X0143950Y0206974D01*
X0143950Y0205340D02*
X0143950Y0208609D01*
X0140681Y0205340D02*
X0139046Y0206974D01*
X0139046Y0201818D02*
X0143950Y0201818D01*
X0143950Y0200183D02*
X0143950Y0203453D01*
X0140681Y0200183D02*
X0139046Y0201818D01*
X0133950Y0201818D02*
X0129046Y0201818D01*
X0130681Y0200183D01*
X0133950Y0200183D02*
X0133950Y0203453D01*
X0149046Y0201818D02*
X0153950Y0201818D01*
X0153950Y0200183D02*
X0153950Y0203453D01*
X0153133Y0205340D02*
X0149863Y0208609D01*
X0153133Y0208609D01*
X0153950Y0207792D01*
X0153950Y0206157D01*
X0153133Y0205340D01*
X0149863Y0205340D01*
X0149046Y0206157D01*
X0149046Y0207792D01*
X0149863Y0208609D01*
X0159046Y0207635D02*
X0159046Y0206001D01*
X0159863Y0205183D01*
X0160681Y0205183D01*
X0161498Y0206001D01*
X0161498Y0208453D01*
X0163133Y0208453D02*
X0159863Y0208453D01*
X0159046Y0207635D01*
X0163133Y0208453D02*
X0163950Y0207635D01*
X0163950Y0206001D01*
X0163133Y0205183D01*
X0169046Y0206001D02*
X0169046Y0207635D01*
X0169863Y0208453D01*
X0170681Y0208453D01*
X0171498Y0207635D01*
X0171498Y0206001D01*
X0170681Y0205183D01*
X0169863Y0205183D01*
X0169046Y0206001D01*
X0171498Y0206001D02*
X0172315Y0205183D01*
X0173133Y0205183D01*
X0173950Y0206001D01*
X0173950Y0207635D01*
X0173133Y0208453D01*
X0172315Y0208453D01*
X0171498Y0207635D01*
X0184046Y0208453D02*
X0184046Y0205183D01*
X0184863Y0208453D02*
X0188133Y0205183D01*
X0188950Y0205183D01*
X0184863Y0208453D02*
X0184046Y0208453D01*
X0194046Y0208453D02*
X0194863Y0206818D01*
X0196498Y0205183D01*
X0196498Y0207635D01*
X0197315Y0208453D01*
X0198133Y0208453D01*
X0198950Y0207635D01*
X0198950Y0206001D01*
X0198133Y0205183D01*
X0196498Y0205183D01*
X0204046Y0205183D02*
X0204046Y0208453D01*
X0205681Y0207635D02*
X0206498Y0208453D01*
X0208133Y0208453D01*
X0208950Y0207635D01*
X0208950Y0206001D01*
X0208133Y0205183D01*
X0206498Y0205183D02*
X0205681Y0206818D01*
X0205681Y0207635D01*
X0206498Y0205183D02*
X0204046Y0205183D01*
X0214046Y0207635D02*
X0216498Y0205183D01*
X0216498Y0208453D01*
X0218950Y0207635D02*
X0214046Y0207635D01*
X0224046Y0207635D02*
X0224046Y0206001D01*
X0224863Y0205183D01*
X0226498Y0206818D02*
X0226498Y0207635D01*
X0227315Y0208453D01*
X0228133Y0208453D01*
X0228950Y0207635D01*
X0228950Y0206001D01*
X0228133Y0205183D01*
X0226498Y0207635D02*
X0225681Y0208453D01*
X0224863Y0208453D01*
X0224046Y0207635D01*
X0234046Y0207635D02*
X0234046Y0206001D01*
X0234863Y0205183D01*
X0234046Y0207635D02*
X0234863Y0208453D01*
X0235681Y0208453D01*
X0238950Y0205183D01*
X0238950Y0208453D01*
X0244046Y0206818D02*
X0248950Y0206818D01*
X0248950Y0205183D02*
X0248950Y0208453D01*
X0245681Y0205183D02*
X0244046Y0206818D01*
X0254046Y0206001D02*
X0254046Y0207635D01*
X0254863Y0208453D01*
X0258133Y0205183D01*
X0258950Y0206001D01*
X0258950Y0207635D01*
X0258133Y0208453D01*
X0254863Y0208453D01*
X0254046Y0206001D02*
X0254863Y0205183D01*
X0258133Y0205183D01*
X0150681Y0200183D02*
X0149046Y0201818D01*
D14*
X0011800Y0039833D02*
X0011800Y0012833D01*
X0013900Y0012833D01*
X0013900Y0020333D01*
X0029900Y0020333D01*
X0029900Y0038333D01*
X0028400Y0038333D01*
X0028400Y0039833D02*
X0035100Y0039833D01*
X0035100Y0038333D02*
X0033600Y0038333D01*
X0033600Y0020333D01*
X0049600Y0020333D01*
X0049600Y0012833D01*
X0051800Y0012833D01*
X0051800Y0016833D01*
X0051800Y0021333D01*
X0051800Y0039833D01*
X0048100Y0039833D01*
X0048100Y0038333D02*
X0049600Y0038333D01*
X0049600Y0020333D01*
X0051800Y0021333D02*
X0053800Y0022333D01*
X0053800Y0015833D01*
X0051800Y0016833D01*
X0049600Y0012833D02*
X0033600Y0012833D01*
X0029900Y0012833D01*
X0013900Y0012833D01*
X0013900Y0020333D02*
X0013900Y0038333D01*
X0015400Y0038333D01*
X0015400Y0039833D02*
X0011800Y0039833D01*
X0011800Y0049833D01*
X0011800Y0061833D01*
X0051800Y0061833D01*
X0053800Y0061833D01*
X0053800Y0042833D01*
X0051800Y0043833D01*
X0051800Y0049833D01*
X0011800Y0049833D01*
X0013900Y0050833D02*
X0013900Y0060833D01*
X0029900Y0060833D01*
X0029900Y0050833D01*
X0013900Y0050833D01*
X0016000Y0054333D02*
X0028000Y0056833D01*
X0027500Y0057333D02*
X0015500Y0054833D01*
X0016266Y0053592D02*
X0016182Y0053641D01*
X0016101Y0053693D01*
X0016022Y0053748D01*
X0015945Y0053807D01*
X0015871Y0053868D01*
X0015799Y0053933D01*
X0015730Y0054001D01*
X0015664Y0054071D01*
X0015601Y0054144D01*
X0015541Y0054220D01*
X0015485Y0054298D01*
X0015431Y0054378D01*
X0015381Y0054460D01*
X0015334Y0054545D01*
X0015291Y0054631D01*
X0015251Y0054719D01*
X0015215Y0054809D01*
X0015183Y0054900D01*
X0015155Y0054992D01*
X0015130Y0055085D01*
X0015109Y0055179D01*
X0015093Y0055275D01*
X0015080Y0055370D01*
X0015071Y0055466D01*
X0015066Y0055563D01*
X0015065Y0055659D01*
X0015068Y0055756D01*
X0015075Y0055852D01*
X0015086Y0055948D01*
X0015101Y0056043D01*
X0015120Y0056138D01*
X0015143Y0056232D01*
X0015170Y0056324D01*
X0015200Y0056416D01*
X0015234Y0056506D01*
X0015272Y0056595D01*
X0015314Y0056682D01*
X0015359Y0056767D01*
X0015408Y0056851D01*
X0015460Y0056932D01*
X0015515Y0057011D01*
X0015574Y0057088D01*
X0015635Y0057162D01*
X0015700Y0057234D01*
X0016100Y0053733D02*
X0016284Y0053589D01*
X0016473Y0053449D01*
X0016664Y0053314D01*
X0016859Y0053184D01*
X0017057Y0053058D01*
X0017258Y0052938D01*
X0017462Y0052822D01*
X0017669Y0052711D01*
X0017878Y0052606D01*
X0018090Y0052505D01*
X0018304Y0052410D01*
X0018521Y0052320D01*
X0018740Y0052235D01*
X0018960Y0052156D01*
X0019183Y0052082D01*
X0019407Y0052013D01*
X0019633Y0051950D01*
X0019860Y0051893D01*
X0020089Y0051841D01*
X0020319Y0051795D01*
X0020550Y0051754D01*
X0020781Y0051719D01*
X0021014Y0051690D01*
X0021247Y0051666D01*
X0021481Y0051648D01*
X0021715Y0051636D01*
X0021950Y0051629D01*
X0022184Y0051628D01*
X0022418Y0051633D01*
X0022653Y0051644D01*
X0022887Y0051660D01*
X0023120Y0051682D01*
X0023353Y0051710D01*
X0023585Y0051743D01*
X0023816Y0051783D01*
X0024046Y0051827D01*
X0024275Y0051878D01*
X0024503Y0051933D01*
X0024729Y0051995D01*
X0024954Y0052062D01*
X0025177Y0052134D01*
X0025398Y0052212D01*
X0025617Y0052295D01*
X0025834Y0052384D01*
X0026049Y0052478D01*
X0026262Y0052577D01*
X0026472Y0052681D01*
X0026679Y0052790D01*
X0026884Y0052904D01*
X0027086Y0053024D01*
X0027285Y0053148D01*
X0027481Y0053277D01*
X0027673Y0053410D01*
X0027863Y0053549D01*
X0027680Y0053416D02*
X0027755Y0053485D01*
X0027827Y0053556D01*
X0027896Y0053630D01*
X0027962Y0053706D01*
X0028026Y0053785D01*
X0028086Y0053866D01*
X0028144Y0053949D01*
X0028198Y0054035D01*
X0028249Y0054122D01*
X0028297Y0054211D01*
X0028341Y0054303D01*
X0028382Y0054395D01*
X0028419Y0054489D01*
X0028453Y0054585D01*
X0028483Y0054681D01*
X0028509Y0054779D01*
X0028532Y0054878D01*
X0028551Y0054977D01*
X0028566Y0055077D01*
X0028578Y0055178D01*
X0028586Y0055279D01*
X0028589Y0055380D01*
X0028590Y0055481D01*
X0028586Y0055582D01*
X0028578Y0055683D01*
X0028567Y0055784D01*
X0028552Y0055884D01*
X0028533Y0055983D01*
X0028511Y0056082D01*
X0028484Y0056180D01*
X0028454Y0056277D01*
X0028421Y0056372D01*
X0028384Y0056466D01*
X0028343Y0056559D01*
X0028299Y0056650D01*
X0028251Y0056739D01*
X0028201Y0056827D01*
X0028147Y0056913D01*
X0028089Y0056996D01*
X0028029Y0057077D01*
X0027966Y0057156D01*
X0027899Y0057233D01*
X0033600Y0060833D02*
X0049600Y0060833D01*
X0049600Y0050833D01*
X0033600Y0050833D01*
X0033600Y0060833D01*
X0035200Y0054833D02*
X0047200Y0057333D01*
X0047700Y0056833D02*
X0035700Y0054333D01*
X0035966Y0053592D02*
X0035882Y0053641D01*
X0035801Y0053693D01*
X0035722Y0053748D01*
X0035645Y0053807D01*
X0035571Y0053868D01*
X0035499Y0053933D01*
X0035430Y0054001D01*
X0035364Y0054071D01*
X0035301Y0054144D01*
X0035241Y0054220D01*
X0035185Y0054298D01*
X0035131Y0054378D01*
X0035081Y0054460D01*
X0035034Y0054545D01*
X0034991Y0054631D01*
X0034951Y0054719D01*
X0034915Y0054809D01*
X0034883Y0054900D01*
X0034855Y0054992D01*
X0034830Y0055085D01*
X0034809Y0055179D01*
X0034793Y0055275D01*
X0034780Y0055370D01*
X0034771Y0055466D01*
X0034766Y0055563D01*
X0034765Y0055659D01*
X0034768Y0055756D01*
X0034775Y0055852D01*
X0034786Y0055948D01*
X0034801Y0056043D01*
X0034820Y0056138D01*
X0034843Y0056232D01*
X0034870Y0056324D01*
X0034900Y0056416D01*
X0034934Y0056506D01*
X0034972Y0056595D01*
X0035014Y0056682D01*
X0035059Y0056767D01*
X0035108Y0056851D01*
X0035160Y0056932D01*
X0035215Y0057011D01*
X0035274Y0057088D01*
X0035335Y0057162D01*
X0035400Y0057234D01*
X0035800Y0053733D02*
X0035985Y0053589D01*
X0036173Y0053449D01*
X0036365Y0053314D01*
X0036560Y0053184D01*
X0036758Y0053058D01*
X0036959Y0052937D01*
X0037163Y0052822D01*
X0037369Y0052711D01*
X0037579Y0052605D01*
X0037790Y0052505D01*
X0038005Y0052410D01*
X0038221Y0052320D01*
X0038440Y0052235D01*
X0038660Y0052156D01*
X0038883Y0052082D01*
X0039107Y0052013D01*
X0039333Y0051950D01*
X0039560Y0051893D01*
X0039789Y0051841D01*
X0040019Y0051795D01*
X0040250Y0051754D01*
X0040482Y0051719D01*
X0040714Y0051690D01*
X0040948Y0051666D01*
X0041181Y0051648D01*
X0041416Y0051636D01*
X0041650Y0051629D01*
X0041884Y0051628D01*
X0042119Y0051633D01*
X0042353Y0051644D01*
X0042587Y0051660D01*
X0042820Y0051682D01*
X0043053Y0051710D01*
X0043285Y0051744D01*
X0043516Y0051783D01*
X0043747Y0051827D01*
X0043976Y0051878D01*
X0044203Y0051934D01*
X0044430Y0051995D01*
X0044654Y0052062D01*
X0044877Y0052134D01*
X0045099Y0052212D01*
X0045318Y0052295D01*
X0045535Y0052384D01*
X0045750Y0052478D01*
X0045962Y0052577D01*
X0046172Y0052681D01*
X0046380Y0052790D01*
X0046584Y0052904D01*
X0046786Y0053024D01*
X0046985Y0053148D01*
X0047181Y0053277D01*
X0047374Y0053411D01*
X0047563Y0053549D01*
X0047380Y0053416D02*
X0047455Y0053485D01*
X0047527Y0053556D01*
X0047596Y0053630D01*
X0047662Y0053706D01*
X0047726Y0053785D01*
X0047786Y0053866D01*
X0047844Y0053949D01*
X0047898Y0054035D01*
X0047949Y0054122D01*
X0047997Y0054211D01*
X0048041Y0054303D01*
X0048082Y0054395D01*
X0048119Y0054489D01*
X0048153Y0054585D01*
X0048183Y0054681D01*
X0048209Y0054779D01*
X0048232Y0054878D01*
X0048251Y0054977D01*
X0048266Y0055077D01*
X0048278Y0055178D01*
X0048286Y0055279D01*
X0048289Y0055380D01*
X0048290Y0055481D01*
X0048286Y0055582D01*
X0048278Y0055683D01*
X0048267Y0055784D01*
X0048252Y0055884D01*
X0048233Y0055983D01*
X0048211Y0056082D01*
X0048184Y0056180D01*
X0048154Y0056277D01*
X0048121Y0056372D01*
X0048084Y0056466D01*
X0048043Y0056559D01*
X0047999Y0056650D01*
X0047951Y0056739D01*
X0047901Y0056827D01*
X0047847Y0056913D01*
X0047789Y0056996D01*
X0047729Y0057077D01*
X0047666Y0057156D01*
X0047599Y0057233D01*
X0051800Y0061833D02*
X0051800Y0049833D01*
X0047618Y0057249D02*
X0047488Y0057395D01*
X0047354Y0057539D01*
X0047216Y0057679D01*
X0047075Y0057816D01*
X0046931Y0057950D01*
X0046783Y0058079D01*
X0046633Y0058206D01*
X0046479Y0058328D01*
X0046323Y0058447D01*
X0046163Y0058562D01*
X0046001Y0058673D01*
X0045836Y0058780D01*
X0045669Y0058884D01*
X0045499Y0058983D01*
X0045327Y0059077D01*
X0045153Y0059168D01*
X0044976Y0059255D01*
X0044798Y0059337D01*
X0044617Y0059414D01*
X0044435Y0059488D01*
X0044251Y0059557D01*
X0044066Y0059621D01*
X0043878Y0059681D01*
X0043690Y0059737D01*
X0043500Y0059787D01*
X0043309Y0059834D01*
X0043117Y0059875D01*
X0042924Y0059912D01*
X0042730Y0059944D01*
X0042535Y0059972D01*
X0042340Y0059994D01*
X0042145Y0060012D01*
X0041949Y0060026D01*
X0041752Y0060034D01*
X0041556Y0060038D01*
X0041359Y0060037D01*
X0041163Y0060031D01*
X0040967Y0060020D01*
X0040771Y0060005D01*
X0040575Y0059985D01*
X0040380Y0059960D01*
X0040186Y0059931D01*
X0039992Y0059897D01*
X0039800Y0059858D01*
X0039608Y0059814D01*
X0039418Y0059766D01*
X0039228Y0059713D01*
X0039040Y0059656D01*
X0038854Y0059594D01*
X0038669Y0059527D01*
X0038486Y0059457D01*
X0038304Y0059381D01*
X0038125Y0059302D01*
X0037947Y0059218D01*
X0037771Y0059129D01*
X0037598Y0059037D01*
X0037427Y0058940D01*
X0037258Y0058839D01*
X0037092Y0058734D01*
X0036928Y0058626D01*
X0036767Y0058513D01*
X0036609Y0058396D01*
X0036454Y0058276D01*
X0036302Y0058151D01*
X0036153Y0058024D01*
X0036006Y0057892D01*
X0035864Y0057757D01*
X0035724Y0057619D01*
X0035588Y0057477D01*
X0035455Y0057332D01*
X0035326Y0057184D01*
X0035201Y0057033D01*
X0027919Y0057250D02*
X0027788Y0057396D01*
X0027654Y0057540D01*
X0027516Y0057680D01*
X0027375Y0057817D01*
X0027231Y0057951D01*
X0027083Y0058081D01*
X0026933Y0058207D01*
X0026779Y0058329D01*
X0026623Y0058448D01*
X0026463Y0058563D01*
X0026301Y0058674D01*
X0026136Y0058782D01*
X0025969Y0058885D01*
X0025799Y0058984D01*
X0025627Y0059079D01*
X0025453Y0059169D01*
X0025276Y0059256D01*
X0025098Y0059338D01*
X0024917Y0059416D01*
X0024735Y0059489D01*
X0024551Y0059558D01*
X0024365Y0059622D01*
X0024178Y0059682D01*
X0023990Y0059738D01*
X0023800Y0059788D01*
X0023609Y0059835D01*
X0023417Y0059876D01*
X0023224Y0059913D01*
X0023030Y0059945D01*
X0022835Y0059973D01*
X0022640Y0059995D01*
X0022444Y0060013D01*
X0022248Y0060027D01*
X0022052Y0060035D01*
X0021855Y0060039D01*
X0021659Y0060038D01*
X0021462Y0060032D01*
X0021266Y0060021D01*
X0021070Y0060006D01*
X0020875Y0059986D01*
X0020680Y0059961D01*
X0020485Y0059932D01*
X0020292Y0059897D01*
X0020099Y0059859D01*
X0019907Y0059815D01*
X0019717Y0059767D01*
X0019528Y0059714D01*
X0019340Y0059657D01*
X0019153Y0059595D01*
X0018968Y0059528D01*
X0018785Y0059457D01*
X0018603Y0059382D01*
X0018424Y0059302D01*
X0018246Y0059218D01*
X0018070Y0059130D01*
X0017897Y0059038D01*
X0017726Y0058941D01*
X0017557Y0058840D01*
X0017391Y0058735D01*
X0017227Y0058626D01*
X0017066Y0058513D01*
X0016908Y0058397D01*
X0016753Y0058276D01*
X0016601Y0058152D01*
X0016452Y0058024D01*
X0016305Y0057893D01*
X0016163Y0057758D01*
X0016023Y0057619D01*
X0015887Y0057478D01*
X0015754Y0057333D01*
X0015625Y0057184D01*
X0015500Y0057033D01*
X0021344Y0065201D02*
X0021344Y0069471D01*
X0019209Y0067336D02*
X0023479Y0067336D01*
X0038545Y0067336D02*
X0042816Y0067336D01*
X0076800Y0061833D02*
X0076800Y0049833D01*
X0116800Y0049833D01*
X0116800Y0043833D01*
X0116800Y0039833D01*
X0113100Y0039833D01*
X0113100Y0038333D02*
X0114600Y0038333D01*
X0114600Y0020333D01*
X0114600Y0012833D01*
X0116800Y0012833D01*
X0116800Y0016833D01*
X0116800Y0021333D01*
X0116800Y0039833D01*
X0118800Y0042833D02*
X0116800Y0043833D01*
X0118800Y0042833D02*
X0118800Y0061833D01*
X0116800Y0061833D01*
X0076800Y0061833D01*
X0078900Y0060833D02*
X0094900Y0060833D01*
X0094900Y0050833D01*
X0078900Y0050833D01*
X0078900Y0060833D01*
X0080500Y0054833D02*
X0092500Y0057333D01*
X0093000Y0056833D02*
X0081000Y0054333D01*
X0081266Y0053592D02*
X0081182Y0053641D01*
X0081101Y0053693D01*
X0081022Y0053748D01*
X0080945Y0053807D01*
X0080871Y0053868D01*
X0080799Y0053933D01*
X0080730Y0054001D01*
X0080664Y0054071D01*
X0080601Y0054144D01*
X0080541Y0054220D01*
X0080485Y0054298D01*
X0080431Y0054378D01*
X0080381Y0054460D01*
X0080334Y0054545D01*
X0080291Y0054631D01*
X0080251Y0054719D01*
X0080215Y0054809D01*
X0080183Y0054900D01*
X0080155Y0054992D01*
X0080130Y0055085D01*
X0080109Y0055179D01*
X0080093Y0055275D01*
X0080080Y0055370D01*
X0080071Y0055466D01*
X0080066Y0055563D01*
X0080065Y0055659D01*
X0080068Y0055756D01*
X0080075Y0055852D01*
X0080086Y0055948D01*
X0080101Y0056043D01*
X0080120Y0056138D01*
X0080143Y0056232D01*
X0080170Y0056324D01*
X0080200Y0056416D01*
X0080234Y0056506D01*
X0080272Y0056595D01*
X0080314Y0056682D01*
X0080359Y0056767D01*
X0080408Y0056851D01*
X0080460Y0056932D01*
X0080515Y0057011D01*
X0080574Y0057088D01*
X0080635Y0057162D01*
X0080700Y0057234D01*
X0081100Y0053733D02*
X0081284Y0053589D01*
X0081473Y0053449D01*
X0081664Y0053314D01*
X0081859Y0053184D01*
X0082057Y0053058D01*
X0082258Y0052938D01*
X0082462Y0052822D01*
X0082669Y0052711D01*
X0082878Y0052606D01*
X0083090Y0052505D01*
X0083304Y0052410D01*
X0083521Y0052320D01*
X0083740Y0052235D01*
X0083960Y0052156D01*
X0084183Y0052082D01*
X0084407Y0052013D01*
X0084633Y0051950D01*
X0084860Y0051893D01*
X0085089Y0051841D01*
X0085319Y0051795D01*
X0085550Y0051754D01*
X0085781Y0051719D01*
X0086014Y0051690D01*
X0086247Y0051666D01*
X0086481Y0051648D01*
X0086715Y0051636D01*
X0086950Y0051629D01*
X0087184Y0051628D01*
X0087418Y0051633D01*
X0087653Y0051644D01*
X0087887Y0051660D01*
X0088120Y0051682D01*
X0088353Y0051710D01*
X0088585Y0051743D01*
X0088816Y0051783D01*
X0089046Y0051827D01*
X0089275Y0051878D01*
X0089503Y0051933D01*
X0089729Y0051995D01*
X0089954Y0052062D01*
X0090177Y0052134D01*
X0090398Y0052212D01*
X0090617Y0052295D01*
X0090834Y0052384D01*
X0091049Y0052478D01*
X0091262Y0052577D01*
X0091472Y0052681D01*
X0091679Y0052790D01*
X0091884Y0052904D01*
X0092086Y0053024D01*
X0092285Y0053148D01*
X0092481Y0053277D01*
X0092673Y0053410D01*
X0092863Y0053549D01*
X0092680Y0053416D02*
X0092755Y0053485D01*
X0092827Y0053556D01*
X0092896Y0053630D01*
X0092962Y0053706D01*
X0093026Y0053785D01*
X0093086Y0053866D01*
X0093144Y0053949D01*
X0093198Y0054035D01*
X0093249Y0054122D01*
X0093297Y0054211D01*
X0093341Y0054303D01*
X0093382Y0054395D01*
X0093419Y0054489D01*
X0093453Y0054585D01*
X0093483Y0054681D01*
X0093509Y0054779D01*
X0093532Y0054878D01*
X0093551Y0054977D01*
X0093566Y0055077D01*
X0093578Y0055178D01*
X0093586Y0055279D01*
X0093589Y0055380D01*
X0093590Y0055481D01*
X0093586Y0055582D01*
X0093578Y0055683D01*
X0093567Y0055784D01*
X0093552Y0055884D01*
X0093533Y0055983D01*
X0093511Y0056082D01*
X0093484Y0056180D01*
X0093454Y0056277D01*
X0093421Y0056372D01*
X0093384Y0056466D01*
X0093343Y0056559D01*
X0093299Y0056650D01*
X0093251Y0056739D01*
X0093201Y0056827D01*
X0093147Y0056913D01*
X0093089Y0056996D01*
X0093029Y0057077D01*
X0092966Y0057156D01*
X0092899Y0057233D01*
X0098600Y0060833D02*
X0114600Y0060833D01*
X0114600Y0050833D01*
X0098600Y0050833D01*
X0098600Y0060833D01*
X0100200Y0054833D02*
X0112200Y0057333D01*
X0112700Y0056833D02*
X0100700Y0054333D01*
X0100966Y0053592D02*
X0100882Y0053641D01*
X0100801Y0053693D01*
X0100722Y0053748D01*
X0100645Y0053807D01*
X0100571Y0053868D01*
X0100499Y0053933D01*
X0100430Y0054001D01*
X0100364Y0054071D01*
X0100301Y0054144D01*
X0100241Y0054220D01*
X0100185Y0054298D01*
X0100131Y0054378D01*
X0100081Y0054460D01*
X0100034Y0054545D01*
X0099991Y0054631D01*
X0099951Y0054719D01*
X0099915Y0054809D01*
X0099883Y0054900D01*
X0099855Y0054992D01*
X0099830Y0055085D01*
X0099809Y0055179D01*
X0099793Y0055275D01*
X0099780Y0055370D01*
X0099771Y0055466D01*
X0099766Y0055563D01*
X0099765Y0055659D01*
X0099768Y0055756D01*
X0099775Y0055852D01*
X0099786Y0055948D01*
X0099801Y0056043D01*
X0099820Y0056138D01*
X0099843Y0056232D01*
X0099870Y0056324D01*
X0099900Y0056416D01*
X0099934Y0056506D01*
X0099972Y0056595D01*
X0100014Y0056682D01*
X0100059Y0056767D01*
X0100108Y0056851D01*
X0100160Y0056932D01*
X0100215Y0057011D01*
X0100274Y0057088D01*
X0100335Y0057162D01*
X0100400Y0057234D01*
X0100800Y0053733D02*
X0100985Y0053589D01*
X0101173Y0053449D01*
X0101365Y0053314D01*
X0101560Y0053184D01*
X0101758Y0053058D01*
X0101959Y0052937D01*
X0102163Y0052822D01*
X0102369Y0052711D01*
X0102579Y0052605D01*
X0102790Y0052505D01*
X0103005Y0052410D01*
X0103221Y0052320D01*
X0103440Y0052235D01*
X0103660Y0052156D01*
X0103883Y0052082D01*
X0104107Y0052013D01*
X0104333Y0051950D01*
X0104560Y0051893D01*
X0104789Y0051841D01*
X0105019Y0051795D01*
X0105250Y0051754D01*
X0105482Y0051719D01*
X0105714Y0051690D01*
X0105948Y0051666D01*
X0106181Y0051648D01*
X0106416Y0051636D01*
X0106650Y0051629D01*
X0106884Y0051628D01*
X0107119Y0051633D01*
X0107353Y0051644D01*
X0107587Y0051660D01*
X0107820Y0051682D01*
X0108053Y0051710D01*
X0108285Y0051744D01*
X0108516Y0051783D01*
X0108747Y0051827D01*
X0108976Y0051878D01*
X0109203Y0051934D01*
X0109430Y0051995D01*
X0109654Y0052062D01*
X0109877Y0052134D01*
X0110099Y0052212D01*
X0110318Y0052295D01*
X0110535Y0052384D01*
X0110750Y0052478D01*
X0110962Y0052577D01*
X0111172Y0052681D01*
X0111380Y0052790D01*
X0111584Y0052904D01*
X0111786Y0053024D01*
X0111985Y0053148D01*
X0112181Y0053277D01*
X0112374Y0053411D01*
X0112563Y0053549D01*
X0112380Y0053416D02*
X0112455Y0053485D01*
X0112527Y0053556D01*
X0112596Y0053630D01*
X0112662Y0053706D01*
X0112726Y0053785D01*
X0112786Y0053866D01*
X0112844Y0053949D01*
X0112898Y0054035D01*
X0112949Y0054122D01*
X0112997Y0054211D01*
X0113041Y0054303D01*
X0113082Y0054395D01*
X0113119Y0054489D01*
X0113153Y0054585D01*
X0113183Y0054681D01*
X0113209Y0054779D01*
X0113232Y0054878D01*
X0113251Y0054977D01*
X0113266Y0055077D01*
X0113278Y0055178D01*
X0113286Y0055279D01*
X0113289Y0055380D01*
X0113290Y0055481D01*
X0113286Y0055582D01*
X0113278Y0055683D01*
X0113267Y0055784D01*
X0113252Y0055884D01*
X0113233Y0055983D01*
X0113211Y0056082D01*
X0113184Y0056180D01*
X0113154Y0056277D01*
X0113121Y0056372D01*
X0113084Y0056466D01*
X0113043Y0056559D01*
X0112999Y0056650D01*
X0112951Y0056739D01*
X0112901Y0056827D01*
X0112847Y0056913D01*
X0112789Y0056996D01*
X0112729Y0057077D01*
X0112666Y0057156D01*
X0112599Y0057233D01*
X0116800Y0061833D02*
X0116800Y0049833D01*
X0112618Y0057249D02*
X0112488Y0057395D01*
X0112354Y0057539D01*
X0112216Y0057679D01*
X0112075Y0057816D01*
X0111931Y0057950D01*
X0111783Y0058079D01*
X0111633Y0058206D01*
X0111479Y0058328D01*
X0111323Y0058447D01*
X0111163Y0058562D01*
X0111001Y0058673D01*
X0110836Y0058780D01*
X0110669Y0058884D01*
X0110499Y0058983D01*
X0110327Y0059077D01*
X0110153Y0059168D01*
X0109976Y0059255D01*
X0109798Y0059337D01*
X0109617Y0059414D01*
X0109435Y0059488D01*
X0109251Y0059557D01*
X0109066Y0059621D01*
X0108878Y0059681D01*
X0108690Y0059737D01*
X0108500Y0059787D01*
X0108309Y0059834D01*
X0108117Y0059875D01*
X0107924Y0059912D01*
X0107730Y0059944D01*
X0107535Y0059972D01*
X0107340Y0059994D01*
X0107145Y0060012D01*
X0106949Y0060026D01*
X0106752Y0060034D01*
X0106556Y0060038D01*
X0106359Y0060037D01*
X0106163Y0060031D01*
X0105967Y0060020D01*
X0105771Y0060005D01*
X0105575Y0059985D01*
X0105380Y0059960D01*
X0105186Y0059931D01*
X0104992Y0059897D01*
X0104800Y0059858D01*
X0104608Y0059814D01*
X0104418Y0059766D01*
X0104228Y0059713D01*
X0104040Y0059656D01*
X0103854Y0059594D01*
X0103669Y0059527D01*
X0103486Y0059457D01*
X0103304Y0059381D01*
X0103125Y0059302D01*
X0102947Y0059218D01*
X0102771Y0059129D01*
X0102598Y0059037D01*
X0102427Y0058940D01*
X0102258Y0058839D01*
X0102092Y0058734D01*
X0101928Y0058626D01*
X0101767Y0058513D01*
X0101609Y0058396D01*
X0101454Y0058276D01*
X0101302Y0058151D01*
X0101153Y0058024D01*
X0101006Y0057892D01*
X0100864Y0057757D01*
X0100724Y0057619D01*
X0100588Y0057477D01*
X0100455Y0057332D01*
X0100326Y0057184D01*
X0100201Y0057033D01*
X0092919Y0057250D02*
X0092788Y0057396D01*
X0092654Y0057540D01*
X0092516Y0057680D01*
X0092375Y0057817D01*
X0092231Y0057951D01*
X0092083Y0058081D01*
X0091933Y0058207D01*
X0091779Y0058329D01*
X0091623Y0058448D01*
X0091463Y0058563D01*
X0091301Y0058674D01*
X0091136Y0058782D01*
X0090969Y0058885D01*
X0090799Y0058984D01*
X0090627Y0059079D01*
X0090453Y0059169D01*
X0090276Y0059256D01*
X0090098Y0059338D01*
X0089917Y0059416D01*
X0089735Y0059489D01*
X0089551Y0059558D01*
X0089365Y0059622D01*
X0089178Y0059682D01*
X0088990Y0059738D01*
X0088800Y0059788D01*
X0088609Y0059835D01*
X0088417Y0059876D01*
X0088224Y0059913D01*
X0088030Y0059945D01*
X0087835Y0059973D01*
X0087640Y0059995D01*
X0087444Y0060013D01*
X0087248Y0060027D01*
X0087052Y0060035D01*
X0086855Y0060039D01*
X0086659Y0060038D01*
X0086462Y0060032D01*
X0086266Y0060021D01*
X0086070Y0060006D01*
X0085875Y0059986D01*
X0085680Y0059961D01*
X0085485Y0059932D01*
X0085292Y0059897D01*
X0085099Y0059859D01*
X0084907Y0059815D01*
X0084717Y0059767D01*
X0084528Y0059714D01*
X0084340Y0059657D01*
X0084153Y0059595D01*
X0083968Y0059528D01*
X0083785Y0059457D01*
X0083603Y0059382D01*
X0083424Y0059302D01*
X0083246Y0059218D01*
X0083070Y0059130D01*
X0082897Y0059038D01*
X0082726Y0058941D01*
X0082557Y0058840D01*
X0082391Y0058735D01*
X0082227Y0058626D01*
X0082066Y0058513D01*
X0081908Y0058397D01*
X0081753Y0058276D01*
X0081601Y0058152D01*
X0081452Y0058024D01*
X0081305Y0057893D01*
X0081163Y0057758D01*
X0081023Y0057619D01*
X0080887Y0057478D01*
X0080754Y0057333D01*
X0080625Y0057184D01*
X0080500Y0057033D01*
X0076800Y0049833D02*
X0076800Y0039833D01*
X0080400Y0039833D01*
X0080400Y0038333D02*
X0078900Y0038333D01*
X0078900Y0020333D01*
X0078900Y0012833D01*
X0094900Y0012833D01*
X0098600Y0012833D01*
X0114600Y0012833D01*
X0116800Y0016833D02*
X0118800Y0015833D01*
X0118800Y0022333D01*
X0116800Y0021333D01*
X0114600Y0020333D02*
X0098600Y0020333D01*
X0098600Y0038333D01*
X0100100Y0038333D01*
X0100100Y0039833D02*
X0093400Y0039833D01*
X0093400Y0038333D02*
X0094900Y0038333D01*
X0094900Y0020333D01*
X0078900Y0020333D01*
X0080400Y0022833D02*
X0080400Y0035333D01*
X0076800Y0039833D02*
X0076800Y0012833D01*
X0078900Y0012833D01*
X0080400Y0022833D02*
X0093400Y0022833D01*
X0093400Y0035333D01*
X0100100Y0035333D02*
X0100100Y0022833D01*
X0113100Y0022833D01*
X0113100Y0035333D01*
X0121800Y0029833D02*
X0124300Y0032333D01*
X0129300Y0032333D01*
X0131800Y0029833D01*
X0134300Y0032333D01*
X0139300Y0032333D01*
X0141800Y0029833D01*
X0141800Y0024833D01*
X0139300Y0022333D01*
X0134300Y0022333D01*
X0131800Y0024833D01*
X0129300Y0022333D01*
X0124300Y0022333D01*
X0121800Y0024833D01*
X0121800Y0029833D01*
X0131800Y0029833D02*
X0131800Y0024833D01*
X0141800Y0024833D02*
X0144300Y0022333D01*
X0149300Y0022333D01*
X0151800Y0024833D01*
X0154300Y0022333D01*
X0159300Y0022333D01*
X0161800Y0024833D01*
X0164300Y0022333D01*
X0169300Y0022333D01*
X0171800Y0024833D01*
X0171800Y0029833D01*
X0169300Y0032333D01*
X0164300Y0032333D01*
X0161800Y0029833D01*
X0161800Y0024833D01*
X0161800Y0029833D02*
X0159300Y0032333D01*
X0154300Y0032333D01*
X0151800Y0029833D01*
X0151800Y0024833D01*
X0151800Y0029833D02*
X0149300Y0032333D01*
X0144300Y0032333D01*
X0141800Y0029833D01*
X0171800Y0029833D02*
X0174300Y0032333D01*
X0179300Y0032333D01*
X0181800Y0029833D01*
X0184300Y0032333D01*
X0189300Y0032333D01*
X0191800Y0029833D01*
X0191800Y0024833D01*
X0189300Y0022333D01*
X0184300Y0022333D01*
X0181800Y0024833D01*
X0179300Y0022333D01*
X0174300Y0022333D01*
X0171800Y0024833D01*
X0181800Y0024833D02*
X0181800Y0029833D01*
X0201800Y0029833D02*
X0201800Y0024833D01*
X0204300Y0022333D01*
X0209300Y0022333D01*
X0211800Y0024833D01*
X0214300Y0022333D01*
X0219300Y0022333D01*
X0221800Y0024833D01*
X0221800Y0029833D01*
X0219300Y0032333D01*
X0214300Y0032333D01*
X0211800Y0029833D01*
X0211800Y0024833D01*
X0211800Y0029833D02*
X0209300Y0032333D01*
X0204300Y0032333D01*
X0201800Y0029833D01*
X0221800Y0029833D02*
X0224300Y0032333D01*
X0229300Y0032333D01*
X0231800Y0029833D01*
X0234300Y0032333D01*
X0239300Y0032333D01*
X0241800Y0029833D01*
X0244300Y0032333D01*
X0249300Y0032333D01*
X0251800Y0029833D01*
X0251800Y0024833D01*
X0249300Y0022333D01*
X0244300Y0022333D01*
X0241800Y0024833D01*
X0239300Y0022333D01*
X0234300Y0022333D01*
X0231800Y0024833D01*
X0229300Y0022333D01*
X0224300Y0022333D01*
X0221800Y0024833D01*
X0231800Y0024833D02*
X0231800Y0029833D01*
X0241800Y0029833D02*
X0241800Y0024833D01*
X0251800Y0024833D02*
X0254300Y0022333D01*
X0259300Y0022333D01*
X0261800Y0024833D01*
X0264300Y0022333D01*
X0269300Y0022333D01*
X0271800Y0024833D01*
X0274300Y0022333D01*
X0279300Y0022333D01*
X0281800Y0024833D01*
X0281800Y0029833D01*
X0279300Y0032333D01*
X0274300Y0032333D01*
X0271800Y0029833D01*
X0271800Y0024833D01*
X0271800Y0029833D02*
X0269300Y0032333D01*
X0264300Y0032333D01*
X0261800Y0029833D01*
X0261800Y0024833D01*
X0261800Y0029833D02*
X0259300Y0032333D01*
X0254300Y0032333D01*
X0251800Y0029833D01*
X0291800Y0029833D02*
X0291800Y0024833D01*
X0294300Y0022333D01*
X0299300Y0022333D01*
X0301800Y0024833D01*
X0304300Y0022333D01*
X0309300Y0022333D01*
X0311800Y0024833D01*
X0311800Y0029833D01*
X0309300Y0032333D01*
X0304300Y0032333D01*
X0301800Y0029833D01*
X0301800Y0024833D01*
X0301800Y0029833D02*
X0299300Y0032333D01*
X0294300Y0032333D01*
X0291800Y0029833D01*
X0311800Y0029833D02*
X0314300Y0032333D01*
X0319300Y0032333D01*
X0321800Y0029833D01*
X0324300Y0032333D01*
X0329300Y0032333D01*
X0331800Y0029833D01*
X0334300Y0032333D01*
X0339300Y0032333D01*
X0341800Y0029833D01*
X0341800Y0024833D01*
X0339300Y0022333D01*
X0334300Y0022333D01*
X0331800Y0024833D01*
X0329300Y0022333D01*
X0324300Y0022333D01*
X0321800Y0024833D01*
X0319300Y0022333D01*
X0314300Y0022333D01*
X0311800Y0024833D01*
X0321800Y0024833D02*
X0321800Y0029833D01*
X0319500Y0036133D02*
X0319500Y0039470D01*
X0319500Y0037801D02*
X0314496Y0037801D01*
X0316164Y0036133D01*
X0315330Y0041290D02*
X0314496Y0042124D01*
X0314496Y0043792D01*
X0315330Y0044626D01*
X0318666Y0041290D01*
X0319500Y0042124D01*
X0319500Y0043792D01*
X0318666Y0044626D01*
X0315330Y0044626D01*
X0315330Y0041290D02*
X0318666Y0041290D01*
X0331800Y0029833D02*
X0331800Y0024833D01*
X0341800Y0024833D02*
X0344300Y0022333D01*
X0349300Y0022333D01*
X0351800Y0024833D01*
X0354300Y0022333D01*
X0359300Y0022333D01*
X0361800Y0024833D01*
X0364300Y0022333D01*
X0369300Y0022333D01*
X0371800Y0024833D01*
X0371800Y0029833D01*
X0369300Y0032333D01*
X0364300Y0032333D01*
X0361800Y0029833D01*
X0361800Y0024833D01*
X0361800Y0029833D02*
X0359300Y0032333D01*
X0354300Y0032333D01*
X0351800Y0029833D01*
X0351800Y0024833D01*
X0351800Y0029833D02*
X0349300Y0032333D01*
X0344300Y0032333D01*
X0341800Y0029833D01*
X0371800Y0044833D02*
X0374300Y0042333D01*
X0389300Y0042333D01*
X0391800Y0044833D01*
X0391800Y0049833D01*
X0389300Y0052333D01*
X0374300Y0052333D01*
X0371800Y0054833D01*
X0371800Y0059833D01*
X0374300Y0062333D01*
X0389300Y0062333D01*
X0391800Y0059833D01*
X0391800Y0054833D01*
X0389300Y0052333D01*
X0389300Y0062333D02*
X0391800Y0064833D01*
X0391800Y0069833D01*
X0389300Y0072333D01*
X0374300Y0072333D01*
X0371800Y0074833D01*
X0371800Y0079833D01*
X0374300Y0082333D01*
X0389300Y0082333D01*
X0391800Y0079833D01*
X0391800Y0074833D01*
X0389300Y0072333D01*
X0374300Y0072333D02*
X0371800Y0069833D01*
X0371800Y0064833D01*
X0374300Y0062333D01*
X0374300Y0052333D02*
X0371800Y0049833D01*
X0371800Y0044833D01*
X0374300Y0082333D02*
X0371800Y0084833D01*
X0371800Y0089833D01*
X0374300Y0092333D01*
X0389300Y0092333D01*
X0391800Y0089833D01*
X0391800Y0084833D01*
X0389300Y0082333D01*
X0389300Y0092333D02*
X0391800Y0094833D01*
X0391800Y0099833D01*
X0389300Y0102333D01*
X0374300Y0102333D01*
X0371800Y0104833D01*
X0371800Y0109833D01*
X0374300Y0112333D01*
X0389300Y0112333D01*
X0391800Y0109833D01*
X0391800Y0104833D01*
X0389300Y0102333D01*
X0389300Y0112333D02*
X0391800Y0114833D01*
X0391800Y0119833D01*
X0389300Y0122333D01*
X0374300Y0122333D01*
X0371800Y0124833D01*
X0371800Y0129833D01*
X0374300Y0132333D01*
X0389300Y0132333D01*
X0391800Y0129833D01*
X0391800Y0124833D01*
X0389300Y0122333D01*
X0389300Y0132333D02*
X0391800Y0134833D01*
X0391800Y0139833D01*
X0389300Y0142333D01*
X0374300Y0142333D01*
X0371800Y0144833D01*
X0371800Y0149833D01*
X0374300Y0152333D01*
X0389300Y0152333D01*
X0391800Y0149833D01*
X0391800Y0144833D01*
X0389300Y0142333D01*
X0374300Y0142333D02*
X0371800Y0139833D01*
X0371800Y0134833D01*
X0374300Y0132333D01*
X0374300Y0122333D02*
X0371800Y0119833D01*
X0371800Y0114833D01*
X0374300Y0112333D01*
X0374300Y0102333D02*
X0371800Y0099833D01*
X0371800Y0094833D01*
X0374300Y0092333D01*
X0340300Y0144633D02*
X0323300Y0144633D01*
X0323224Y0144635D01*
X0323148Y0144641D01*
X0323073Y0144650D01*
X0322998Y0144664D01*
X0322924Y0144681D01*
X0322851Y0144702D01*
X0322779Y0144726D01*
X0322708Y0144755D01*
X0322639Y0144786D01*
X0322572Y0144821D01*
X0322507Y0144860D01*
X0322443Y0144902D01*
X0322382Y0144947D01*
X0322323Y0144995D01*
X0322267Y0145046D01*
X0322213Y0145100D01*
X0322162Y0145156D01*
X0322114Y0145215D01*
X0322069Y0145276D01*
X0322027Y0145340D01*
X0321988Y0145405D01*
X0321953Y0145472D01*
X0321922Y0145541D01*
X0321893Y0145612D01*
X0321869Y0145684D01*
X0321848Y0145757D01*
X0321831Y0145831D01*
X0321817Y0145906D01*
X0321808Y0145981D01*
X0321802Y0146057D01*
X0321800Y0146133D01*
X0321800Y0158533D01*
X0321802Y0158609D01*
X0321808Y0158685D01*
X0321817Y0158760D01*
X0321831Y0158835D01*
X0321848Y0158909D01*
X0321869Y0158982D01*
X0321893Y0159054D01*
X0321922Y0159125D01*
X0321953Y0159194D01*
X0321988Y0159261D01*
X0322027Y0159326D01*
X0322069Y0159390D01*
X0322114Y0159451D01*
X0322162Y0159510D01*
X0322213Y0159566D01*
X0322267Y0159620D01*
X0322323Y0159671D01*
X0322382Y0159719D01*
X0322443Y0159764D01*
X0322507Y0159806D01*
X0322572Y0159845D01*
X0322639Y0159880D01*
X0322708Y0159911D01*
X0322779Y0159940D01*
X0322851Y0159964D01*
X0322924Y0159985D01*
X0322998Y0160002D01*
X0323073Y0160016D01*
X0323148Y0160025D01*
X0323224Y0160031D01*
X0323300Y0160033D01*
X0340300Y0160033D01*
X0340376Y0160031D01*
X0340452Y0160025D01*
X0340527Y0160016D01*
X0340602Y0160002D01*
X0340676Y0159985D01*
X0340749Y0159964D01*
X0340821Y0159940D01*
X0340892Y0159911D01*
X0340961Y0159880D01*
X0341028Y0159845D01*
X0341093Y0159806D01*
X0341157Y0159764D01*
X0341218Y0159719D01*
X0341277Y0159671D01*
X0341333Y0159620D01*
X0341387Y0159566D01*
X0341438Y0159510D01*
X0341486Y0159451D01*
X0341531Y0159390D01*
X0341573Y0159326D01*
X0341612Y0159261D01*
X0341647Y0159194D01*
X0341678Y0159125D01*
X0341707Y0159054D01*
X0341731Y0158982D01*
X0341752Y0158909D01*
X0341769Y0158835D01*
X0341783Y0158760D01*
X0341792Y0158685D01*
X0341798Y0158609D01*
X0341800Y0158533D01*
X0341800Y0154333D01*
X0341800Y0150333D01*
X0341800Y0146133D01*
X0341798Y0146057D01*
X0341792Y0145981D01*
X0341783Y0145906D01*
X0341769Y0145831D01*
X0341752Y0145757D01*
X0341731Y0145684D01*
X0341707Y0145612D01*
X0341678Y0145541D01*
X0341647Y0145472D01*
X0341612Y0145405D01*
X0341573Y0145340D01*
X0341531Y0145276D01*
X0341486Y0145215D01*
X0341438Y0145156D01*
X0341387Y0145100D01*
X0341333Y0145046D01*
X0341277Y0144995D01*
X0341218Y0144947D01*
X0341157Y0144902D01*
X0341093Y0144860D01*
X0341028Y0144821D01*
X0340961Y0144786D01*
X0340892Y0144755D01*
X0340821Y0144726D01*
X0340749Y0144702D01*
X0340676Y0144681D01*
X0340602Y0144664D01*
X0340527Y0144650D01*
X0340452Y0144641D01*
X0340376Y0144635D01*
X0340300Y0144633D01*
X0341800Y0150333D02*
X0341712Y0150335D01*
X0341623Y0150341D01*
X0341535Y0150351D01*
X0341448Y0150364D01*
X0341361Y0150382D01*
X0341275Y0150403D01*
X0341190Y0150428D01*
X0341107Y0150457D01*
X0341024Y0150490D01*
X0340944Y0150526D01*
X0340865Y0150565D01*
X0340787Y0150608D01*
X0340712Y0150655D01*
X0340639Y0150705D01*
X0340568Y0150758D01*
X0340499Y0150814D01*
X0340433Y0150873D01*
X0340370Y0150935D01*
X0340310Y0150999D01*
X0340252Y0151066D01*
X0340198Y0151136D01*
X0340146Y0151208D01*
X0340098Y0151282D01*
X0340053Y0151359D01*
X0340012Y0151437D01*
X0339974Y0151517D01*
X0339940Y0151598D01*
X0339909Y0151681D01*
X0339882Y0151766D01*
X0339859Y0151851D01*
X0339840Y0151937D01*
X0339824Y0152025D01*
X0339812Y0152112D01*
X0339804Y0152200D01*
X0339800Y0152289D01*
X0339800Y0152377D01*
X0339804Y0152466D01*
X0339812Y0152554D01*
X0339824Y0152641D01*
X0339840Y0152729D01*
X0339859Y0152815D01*
X0339882Y0152900D01*
X0339909Y0152985D01*
X0339940Y0153068D01*
X0339974Y0153149D01*
X0340012Y0153229D01*
X0340053Y0153307D01*
X0340098Y0153384D01*
X0340146Y0153458D01*
X0340198Y0153530D01*
X0340252Y0153600D01*
X0340310Y0153667D01*
X0340370Y0153731D01*
X0340433Y0153793D01*
X0340499Y0153852D01*
X0340568Y0153908D01*
X0340639Y0153961D01*
X0340712Y0154011D01*
X0340787Y0154058D01*
X0340865Y0154101D01*
X0340944Y0154140D01*
X0341024Y0154176D01*
X0341107Y0154209D01*
X0341190Y0154238D01*
X0341275Y0154263D01*
X0341361Y0154284D01*
X0341448Y0154302D01*
X0341535Y0154315D01*
X0341623Y0154325D01*
X0341712Y0154331D01*
X0341800Y0154333D01*
X0371800Y0154833D02*
X0374300Y0152333D01*
X0371800Y0154833D02*
X0371800Y0159833D01*
X0374300Y0162333D01*
X0389300Y0162333D01*
X0391800Y0159833D01*
X0391800Y0154833D01*
X0389300Y0152333D01*
X0389300Y0162333D02*
X0391800Y0164833D01*
X0391800Y0169833D01*
X0389300Y0172333D01*
X0374300Y0172333D01*
X0371800Y0169833D01*
X0371800Y0164833D01*
X0374300Y0162333D01*
X0374300Y0172333D02*
X0371800Y0174833D01*
X0371800Y0179833D01*
X0374300Y0182333D01*
X0389300Y0182333D01*
X0391800Y0179833D01*
X0391800Y0174833D01*
X0389300Y0172333D01*
X0389300Y0182333D02*
X0391800Y0184833D01*
X0391800Y0189833D01*
X0389300Y0192333D01*
X0374300Y0192333D01*
X0371800Y0189833D01*
X0371800Y0184833D01*
X0374300Y0182333D01*
X0374300Y0192333D02*
X0371800Y0194833D01*
X0371800Y0199833D01*
X0374300Y0202333D01*
X0389300Y0202333D01*
X0391800Y0199833D01*
X0391800Y0194833D01*
X0389300Y0192333D01*
X0389300Y0202333D02*
X0391800Y0204833D01*
X0391800Y0209833D01*
X0389300Y0212333D01*
X0374300Y0212333D01*
X0371800Y0209833D01*
X0371800Y0204833D01*
X0374300Y0202333D01*
X0374300Y0212333D02*
X0371800Y0214833D01*
X0371800Y0219833D01*
X0374300Y0222333D01*
X0389300Y0222333D01*
X0391800Y0219833D01*
X0391800Y0214833D01*
X0389300Y0212333D01*
X0351800Y0214833D02*
X0349300Y0212333D01*
X0344300Y0212333D01*
X0341800Y0214833D01*
X0339300Y0212333D01*
X0334300Y0212333D01*
X0331800Y0214833D01*
X0329300Y0212333D01*
X0324300Y0212333D01*
X0321800Y0214833D01*
X0319300Y0212333D01*
X0314300Y0212333D01*
X0311800Y0214833D01*
X0309300Y0212333D01*
X0304300Y0212333D01*
X0301800Y0214833D01*
X0299300Y0212333D01*
X0294300Y0212333D01*
X0291800Y0214833D01*
X0289300Y0212333D01*
X0284300Y0212333D01*
X0281800Y0214833D01*
X0279300Y0212333D01*
X0274300Y0212333D01*
X0271800Y0214833D01*
X0271800Y0219833D01*
X0274300Y0222333D01*
X0279300Y0222333D01*
X0281800Y0219833D01*
X0284300Y0222333D01*
X0289300Y0222333D01*
X0291800Y0219833D01*
X0291800Y0214833D01*
X0291800Y0219833D02*
X0294300Y0222333D01*
X0299300Y0222333D01*
X0301800Y0219833D01*
X0304300Y0222333D01*
X0309300Y0222333D01*
X0311800Y0219833D01*
X0314300Y0222333D01*
X0319300Y0222333D01*
X0321800Y0219833D01*
X0321800Y0214833D01*
X0321800Y0219833D02*
X0324300Y0222333D01*
X0329300Y0222333D01*
X0331800Y0219833D01*
X0334300Y0222333D01*
X0339300Y0222333D01*
X0341800Y0219833D01*
X0344300Y0222333D01*
X0349300Y0222333D01*
X0351800Y0219833D01*
X0351800Y0214833D01*
X0341800Y0214833D02*
X0341800Y0219833D01*
X0331800Y0219833D02*
X0331800Y0214833D01*
X0311800Y0214833D02*
X0311800Y0219833D01*
X0301800Y0219833D02*
X0301800Y0214833D01*
X0281800Y0214833D02*
X0281800Y0219833D01*
X0261800Y0219833D02*
X0261800Y0214833D01*
X0259300Y0212333D01*
X0254300Y0212333D01*
X0251800Y0214833D01*
X0249300Y0212333D01*
X0244300Y0212333D01*
X0241800Y0214833D01*
X0241800Y0219833D01*
X0244300Y0222333D01*
X0249300Y0222333D01*
X0251800Y0219833D01*
X0254300Y0222333D01*
X0259300Y0222333D01*
X0261800Y0219833D01*
X0251800Y0219833D02*
X0251800Y0214833D01*
X0241800Y0214833D02*
X0239300Y0212333D01*
X0234300Y0212333D01*
X0231800Y0214833D01*
X0229300Y0212333D01*
X0224300Y0212333D01*
X0221800Y0214833D01*
X0219300Y0212333D01*
X0214300Y0212333D01*
X0211800Y0214833D01*
X0211800Y0219833D01*
X0214300Y0222333D01*
X0219300Y0222333D01*
X0221800Y0219833D01*
X0224300Y0222333D01*
X0229300Y0222333D01*
X0231800Y0219833D01*
X0234300Y0222333D01*
X0239300Y0222333D01*
X0241800Y0219833D01*
X0231800Y0219833D02*
X0231800Y0214833D01*
X0221800Y0214833D02*
X0221800Y0219833D01*
X0211800Y0219833D02*
X0209300Y0222333D01*
X0204300Y0222333D01*
X0201800Y0219833D01*
X0199300Y0222333D01*
X0194300Y0222333D01*
X0191800Y0219833D01*
X0189300Y0222333D01*
X0184300Y0222333D01*
X0181800Y0219833D01*
X0181800Y0214833D01*
X0184300Y0212333D01*
X0189300Y0212333D01*
X0191800Y0214833D01*
X0191800Y0219833D01*
X0191800Y0214833D02*
X0194300Y0212333D01*
X0199300Y0212333D01*
X0201800Y0214833D01*
X0201800Y0219833D01*
X0201800Y0214833D02*
X0204300Y0212333D01*
X0209300Y0212333D01*
X0211800Y0214833D01*
X0175800Y0214833D02*
X0173300Y0212333D01*
X0168300Y0212333D01*
X0165800Y0214833D01*
X0163300Y0212333D01*
X0158300Y0212333D01*
X0155800Y0214833D01*
X0155800Y0219833D01*
X0158300Y0222333D01*
X0163300Y0222333D01*
X0165800Y0219833D01*
X0168300Y0222333D01*
X0173300Y0222333D01*
X0175800Y0219833D01*
X0175800Y0214833D01*
X0165800Y0214833D02*
X0165800Y0219833D01*
X0155800Y0219833D02*
X0153300Y0222333D01*
X0148300Y0222333D01*
X0145800Y0219833D01*
X0143300Y0222333D01*
X0138300Y0222333D01*
X0135800Y0219833D01*
X0133300Y0222333D01*
X0128300Y0222333D01*
X0125800Y0219833D01*
X0125800Y0214833D01*
X0128300Y0212333D01*
X0133300Y0212333D01*
X0135800Y0214833D01*
X0135800Y0219833D01*
X0135800Y0214833D02*
X0138300Y0212333D01*
X0143300Y0212333D01*
X0145800Y0214833D01*
X0145800Y0219833D01*
X0145800Y0214833D02*
X0148300Y0212333D01*
X0153300Y0212333D01*
X0155800Y0214833D01*
X0125800Y0214833D02*
X0123300Y0212333D01*
X0118300Y0212333D01*
X0115800Y0214833D01*
X0113300Y0212333D01*
X0108300Y0212333D01*
X0105800Y0214833D01*
X0103300Y0212333D01*
X0098300Y0212333D01*
X0095800Y0214833D01*
X0095800Y0219833D01*
X0098300Y0222333D01*
X0103300Y0222333D01*
X0105800Y0219833D01*
X0108300Y0222333D01*
X0113300Y0222333D01*
X0115800Y0219833D01*
X0118300Y0222333D01*
X0123300Y0222333D01*
X0125800Y0219833D01*
X0115800Y0219833D02*
X0115800Y0214833D01*
X0105800Y0214833D02*
X0105800Y0219833D01*
X0095800Y0219833D02*
X0093300Y0222333D01*
X0088300Y0222333D01*
X0085800Y0219833D01*
X0083300Y0222333D01*
X0078300Y0222333D01*
X0075800Y0219833D01*
X0075800Y0214833D01*
X0078300Y0212333D01*
X0083300Y0212333D01*
X0085800Y0214833D01*
X0085800Y0219833D01*
X0085800Y0214833D02*
X0088300Y0212333D01*
X0093300Y0212333D01*
X0095800Y0214833D01*
X0124300Y0187333D02*
X0129300Y0187333D01*
X0131800Y0184833D01*
X0134300Y0187333D01*
X0139300Y0187333D01*
X0141800Y0184833D01*
X0144300Y0187333D01*
X0149300Y0187333D01*
X0151800Y0184833D01*
X0154300Y0187333D01*
X0159300Y0187333D01*
X0161800Y0184833D01*
X0164300Y0187333D01*
X0169300Y0187333D01*
X0171800Y0184833D01*
X0174300Y0187333D01*
X0179300Y0187333D01*
X0181800Y0184833D01*
X0184300Y0187333D01*
X0189300Y0187333D01*
X0191800Y0184833D01*
X0194300Y0187333D01*
X0199300Y0187333D01*
X0201800Y0184833D01*
X0204300Y0187333D01*
X0209300Y0187333D01*
X0211800Y0184833D01*
X0211800Y0179833D01*
X0209300Y0177333D01*
X0204300Y0177333D01*
X0201800Y0179833D01*
X0199300Y0177333D01*
X0194300Y0177333D01*
X0191800Y0179833D01*
X0191800Y0184833D01*
X0191800Y0179833D02*
X0189300Y0177333D01*
X0184300Y0177333D01*
X0181800Y0179833D01*
X0179300Y0177333D01*
X0174300Y0177333D01*
X0171800Y0179833D01*
X0169300Y0177333D01*
X0164300Y0177333D01*
X0161800Y0179833D01*
X0161800Y0184833D01*
X0161800Y0179833D02*
X0159300Y0177333D01*
X0154300Y0177333D01*
X0151800Y0179833D01*
X0149300Y0177333D01*
X0144300Y0177333D01*
X0141800Y0179833D01*
X0139300Y0177333D01*
X0134300Y0177333D01*
X0131800Y0179833D01*
X0129300Y0177333D01*
X0124300Y0177333D01*
X0121800Y0179833D01*
X0121800Y0184833D01*
X0124300Y0187333D01*
X0131800Y0184833D02*
X0131800Y0179833D01*
X0141800Y0179833D02*
X0141800Y0184833D01*
X0151800Y0184833D02*
X0151800Y0179833D01*
X0171800Y0179833D02*
X0171800Y0184833D01*
X0181800Y0184833D02*
X0181800Y0179833D01*
X0201800Y0179833D02*
X0201800Y0184833D01*
X0199300Y0162333D02*
X0194300Y0162333D01*
X0191800Y0159833D01*
X0191800Y0154833D01*
X0194300Y0152333D01*
X0199300Y0152333D01*
X0201800Y0154833D01*
X0201800Y0159833D01*
X0199300Y0162333D01*
X0199300Y0152333D02*
X0201800Y0149833D01*
X0201800Y0144833D01*
X0199300Y0142333D01*
X0201800Y0139833D01*
X0201800Y0134833D01*
X0199300Y0132333D01*
X0201800Y0129833D01*
X0201800Y0124833D01*
X0199300Y0122333D01*
X0201800Y0119833D01*
X0201800Y0114833D01*
X0199300Y0112333D01*
X0201800Y0109833D01*
X0201800Y0104833D01*
X0199300Y0102333D01*
X0201800Y0099833D01*
X0201800Y0094833D01*
X0199300Y0092333D01*
X0201800Y0089833D01*
X0201800Y0084833D01*
X0199300Y0082333D01*
X0201800Y0079833D01*
X0201800Y0074833D01*
X0199300Y0072333D01*
X0201800Y0069833D01*
X0201800Y0064833D01*
X0199300Y0062333D01*
X0194300Y0062333D01*
X0191800Y0064833D01*
X0191800Y0069833D01*
X0194300Y0072333D01*
X0191800Y0074833D01*
X0191800Y0079833D01*
X0194300Y0082333D01*
X0199300Y0082333D01*
X0194300Y0082333D02*
X0191800Y0084833D01*
X0191800Y0089833D01*
X0194300Y0092333D01*
X0191800Y0094833D01*
X0191800Y0099833D01*
X0194300Y0102333D01*
X0191800Y0104833D01*
X0191800Y0109833D01*
X0194300Y0112333D01*
X0199300Y0112333D01*
X0194300Y0112333D02*
X0191800Y0114833D01*
X0191800Y0119833D01*
X0194300Y0122333D01*
X0191800Y0124833D01*
X0191800Y0129833D01*
X0194300Y0132333D01*
X0191800Y0134833D01*
X0191800Y0139833D01*
X0194300Y0142333D01*
X0199300Y0142333D01*
X0194300Y0142333D02*
X0191800Y0144833D01*
X0191800Y0149833D01*
X0194300Y0152333D01*
X0220300Y0162333D02*
X0227800Y0162333D01*
X0227802Y0162207D01*
X0227808Y0162082D01*
X0227818Y0161957D01*
X0227832Y0161832D01*
X0227849Y0161707D01*
X0227871Y0161583D01*
X0227896Y0161460D01*
X0227926Y0161338D01*
X0227959Y0161217D01*
X0227996Y0161097D01*
X0228036Y0160978D01*
X0228081Y0160861D01*
X0228129Y0160744D01*
X0228181Y0160630D01*
X0228236Y0160517D01*
X0228295Y0160406D01*
X0228357Y0160297D01*
X0228423Y0160190D01*
X0228492Y0160085D01*
X0228564Y0159982D01*
X0228639Y0159881D01*
X0228718Y0159783D01*
X0228800Y0159688D01*
X0228884Y0159595D01*
X0228972Y0159505D01*
X0229062Y0159417D01*
X0229155Y0159333D01*
X0229250Y0159251D01*
X0229348Y0159172D01*
X0229449Y0159097D01*
X0229552Y0159025D01*
X0229657Y0158956D01*
X0229764Y0158890D01*
X0229873Y0158828D01*
X0229984Y0158769D01*
X0230097Y0158714D01*
X0230211Y0158662D01*
X0230328Y0158614D01*
X0230445Y0158569D01*
X0230564Y0158529D01*
X0230684Y0158492D01*
X0230805Y0158459D01*
X0230927Y0158429D01*
X0231050Y0158404D01*
X0231174Y0158382D01*
X0231299Y0158365D01*
X0231424Y0158351D01*
X0231549Y0158341D01*
X0231674Y0158335D01*
X0231800Y0158333D01*
X0231926Y0158335D01*
X0232051Y0158341D01*
X0232176Y0158351D01*
X0232301Y0158365D01*
X0232426Y0158382D01*
X0232550Y0158404D01*
X0232673Y0158429D01*
X0232795Y0158459D01*
X0232916Y0158492D01*
X0233036Y0158529D01*
X0233155Y0158569D01*
X0233272Y0158614D01*
X0233389Y0158662D01*
X0233503Y0158714D01*
X0233616Y0158769D01*
X0233727Y0158828D01*
X0233836Y0158890D01*
X0233943Y0158956D01*
X0234048Y0159025D01*
X0234151Y0159097D01*
X0234252Y0159172D01*
X0234350Y0159251D01*
X0234445Y0159333D01*
X0234538Y0159417D01*
X0234628Y0159505D01*
X0234716Y0159595D01*
X0234800Y0159688D01*
X0234882Y0159783D01*
X0234961Y0159881D01*
X0235036Y0159982D01*
X0235108Y0160085D01*
X0235177Y0160190D01*
X0235243Y0160297D01*
X0235305Y0160406D01*
X0235364Y0160517D01*
X0235419Y0160630D01*
X0235471Y0160744D01*
X0235519Y0160861D01*
X0235564Y0160978D01*
X0235604Y0161097D01*
X0235641Y0161217D01*
X0235674Y0161338D01*
X0235704Y0161460D01*
X0235729Y0161583D01*
X0235751Y0161707D01*
X0235768Y0161832D01*
X0235782Y0161957D01*
X0235792Y0162082D01*
X0235798Y0162207D01*
X0235800Y0162333D01*
X0243300Y0162333D01*
X0243300Y0062333D01*
X0220300Y0062333D01*
X0220300Y0162333D01*
X0199300Y0132333D02*
X0194300Y0132333D01*
X0194300Y0122333D02*
X0199300Y0122333D01*
X0175000Y0115433D02*
X0166800Y0115433D01*
X0156800Y0115433D01*
X0148600Y0115433D01*
X0148524Y0115431D01*
X0148448Y0115425D01*
X0148373Y0115416D01*
X0148298Y0115402D01*
X0148224Y0115385D01*
X0148151Y0115364D01*
X0148079Y0115340D01*
X0148008Y0115311D01*
X0147939Y0115280D01*
X0147872Y0115245D01*
X0147807Y0115206D01*
X0147743Y0115164D01*
X0147682Y0115119D01*
X0147623Y0115071D01*
X0147567Y0115020D01*
X0147513Y0114966D01*
X0147462Y0114910D01*
X0147414Y0114851D01*
X0147369Y0114790D01*
X0147327Y0114726D01*
X0147288Y0114661D01*
X0147253Y0114594D01*
X0147222Y0114525D01*
X0147193Y0114454D01*
X0147169Y0114382D01*
X0147148Y0114309D01*
X0147131Y0114235D01*
X0147117Y0114160D01*
X0147108Y0114085D01*
X0147102Y0114009D01*
X0147100Y0113933D01*
X0156800Y0115433D02*
X0156802Y0115293D01*
X0156808Y0115153D01*
X0156818Y0115013D01*
X0156831Y0114873D01*
X0156849Y0114734D01*
X0156871Y0114595D01*
X0156896Y0114458D01*
X0156925Y0114320D01*
X0156958Y0114184D01*
X0156995Y0114049D01*
X0157036Y0113915D01*
X0157081Y0113782D01*
X0157129Y0113650D01*
X0157181Y0113520D01*
X0157236Y0113391D01*
X0157295Y0113264D01*
X0157358Y0113138D01*
X0157424Y0113014D01*
X0157493Y0112893D01*
X0157566Y0112773D01*
X0157643Y0112655D01*
X0157722Y0112540D01*
X0157805Y0112426D01*
X0157891Y0112316D01*
X0157980Y0112207D01*
X0158072Y0112101D01*
X0158167Y0111998D01*
X0158264Y0111897D01*
X0158365Y0111800D01*
X0158468Y0111705D01*
X0158574Y0111613D01*
X0158683Y0111524D01*
X0158793Y0111438D01*
X0158907Y0111355D01*
X0159022Y0111276D01*
X0159140Y0111199D01*
X0159260Y0111126D01*
X0159381Y0111057D01*
X0159505Y0110991D01*
X0159631Y0110928D01*
X0159758Y0110869D01*
X0159887Y0110814D01*
X0160017Y0110762D01*
X0160149Y0110714D01*
X0160282Y0110669D01*
X0160416Y0110628D01*
X0160551Y0110591D01*
X0160687Y0110558D01*
X0160825Y0110529D01*
X0160962Y0110504D01*
X0161101Y0110482D01*
X0161240Y0110464D01*
X0161380Y0110451D01*
X0161520Y0110441D01*
X0161660Y0110435D01*
X0161800Y0110433D01*
X0161940Y0110435D01*
X0162080Y0110441D01*
X0162220Y0110451D01*
X0162360Y0110464D01*
X0162499Y0110482D01*
X0162638Y0110504D01*
X0162775Y0110529D01*
X0162913Y0110558D01*
X0163049Y0110591D01*
X0163184Y0110628D01*
X0163318Y0110669D01*
X0163451Y0110714D01*
X0163583Y0110762D01*
X0163713Y0110814D01*
X0163842Y0110869D01*
X0163969Y0110928D01*
X0164095Y0110991D01*
X0164219Y0111057D01*
X0164340Y0111126D01*
X0164460Y0111199D01*
X0164578Y0111276D01*
X0164693Y0111355D01*
X0164807Y0111438D01*
X0164917Y0111524D01*
X0165026Y0111613D01*
X0165132Y0111705D01*
X0165235Y0111800D01*
X0165336Y0111897D01*
X0165433Y0111998D01*
X0165528Y0112101D01*
X0165620Y0112207D01*
X0165709Y0112316D01*
X0165795Y0112426D01*
X0165878Y0112540D01*
X0165957Y0112655D01*
X0166034Y0112773D01*
X0166107Y0112893D01*
X0166176Y0113014D01*
X0166242Y0113138D01*
X0166305Y0113264D01*
X0166364Y0113391D01*
X0166419Y0113520D01*
X0166471Y0113650D01*
X0166519Y0113782D01*
X0166564Y0113915D01*
X0166605Y0114049D01*
X0166642Y0114184D01*
X0166675Y0114320D01*
X0166704Y0114458D01*
X0166729Y0114595D01*
X0166751Y0114734D01*
X0166769Y0114873D01*
X0166782Y0115013D01*
X0166792Y0115153D01*
X0166798Y0115293D01*
X0166800Y0115433D01*
X0175000Y0115433D02*
X0175076Y0115431D01*
X0175152Y0115425D01*
X0175227Y0115416D01*
X0175302Y0115402D01*
X0175376Y0115385D01*
X0175449Y0115364D01*
X0175521Y0115340D01*
X0175592Y0115311D01*
X0175661Y0115280D01*
X0175728Y0115245D01*
X0175793Y0115206D01*
X0175857Y0115164D01*
X0175918Y0115119D01*
X0175977Y0115071D01*
X0176033Y0115020D01*
X0176087Y0114966D01*
X0176138Y0114910D01*
X0176186Y0114851D01*
X0176231Y0114790D01*
X0176273Y0114726D01*
X0176312Y0114661D01*
X0176347Y0114594D01*
X0176378Y0114525D01*
X0176407Y0114454D01*
X0176431Y0114382D01*
X0176452Y0114309D01*
X0176469Y0114235D01*
X0176483Y0114160D01*
X0176492Y0114085D01*
X0176498Y0114009D01*
X0176500Y0113933D01*
X0194300Y0102333D02*
X0199300Y0102333D01*
X0199300Y0092333D02*
X0194300Y0092333D01*
X0194300Y0072333D02*
X0199300Y0072333D01*
X0176500Y0065733D02*
X0176498Y0065657D01*
X0176492Y0065581D01*
X0176483Y0065506D01*
X0176469Y0065431D01*
X0176452Y0065357D01*
X0176431Y0065284D01*
X0176407Y0065212D01*
X0176378Y0065141D01*
X0176347Y0065072D01*
X0176312Y0065005D01*
X0176273Y0064940D01*
X0176231Y0064876D01*
X0176186Y0064815D01*
X0176138Y0064756D01*
X0176087Y0064700D01*
X0176033Y0064646D01*
X0175977Y0064595D01*
X0175918Y0064547D01*
X0175857Y0064502D01*
X0175793Y0064460D01*
X0175728Y0064421D01*
X0175661Y0064386D01*
X0175592Y0064355D01*
X0175521Y0064326D01*
X0175449Y0064302D01*
X0175376Y0064281D01*
X0175302Y0064264D01*
X0175227Y0064250D01*
X0175152Y0064241D01*
X0175076Y0064235D01*
X0175000Y0064233D01*
X0148600Y0064233D01*
X0148524Y0064235D01*
X0148448Y0064241D01*
X0148373Y0064250D01*
X0148298Y0064264D01*
X0148224Y0064281D01*
X0148151Y0064302D01*
X0148079Y0064326D01*
X0148008Y0064355D01*
X0147939Y0064386D01*
X0147872Y0064421D01*
X0147807Y0064460D01*
X0147743Y0064502D01*
X0147682Y0064547D01*
X0147623Y0064595D01*
X0147567Y0064646D01*
X0147513Y0064700D01*
X0147462Y0064756D01*
X0147414Y0064815D01*
X0147369Y0064876D01*
X0147327Y0064940D01*
X0147288Y0065005D01*
X0147253Y0065072D01*
X0147222Y0065141D01*
X0147193Y0065212D01*
X0147169Y0065284D01*
X0147148Y0065357D01*
X0147131Y0065431D01*
X0147117Y0065506D01*
X0147108Y0065581D01*
X0147102Y0065657D01*
X0147100Y0065733D01*
X0131800Y0064833D02*
X0129300Y0062333D01*
X0124300Y0062333D01*
X0121800Y0064833D01*
X0121800Y0069833D01*
X0124300Y0072333D01*
X0121800Y0074833D01*
X0121800Y0079833D01*
X0124300Y0082333D01*
X0121800Y0084833D01*
X0121800Y0089833D01*
X0124300Y0092333D01*
X0121800Y0094833D01*
X0121800Y0099833D01*
X0124300Y0102333D01*
X0121800Y0104833D01*
X0121800Y0109833D01*
X0124300Y0112333D01*
X0121800Y0114833D01*
X0121800Y0119833D01*
X0124300Y0122333D01*
X0121800Y0124833D01*
X0121800Y0129833D01*
X0124300Y0132333D01*
X0121800Y0134833D01*
X0121800Y0139833D01*
X0124300Y0142333D01*
X0121800Y0144833D01*
X0121800Y0149833D01*
X0124300Y0152333D01*
X0121800Y0154833D01*
X0121800Y0159833D01*
X0124300Y0162333D01*
X0129300Y0162333D01*
X0131800Y0159833D01*
X0131800Y0154833D01*
X0129300Y0152333D01*
X0131800Y0149833D01*
X0131800Y0144833D01*
X0129300Y0142333D01*
X0124300Y0142333D01*
X0129300Y0142333D02*
X0131800Y0139833D01*
X0131800Y0134833D01*
X0129300Y0132333D01*
X0131800Y0129833D01*
X0131800Y0124833D01*
X0129300Y0122333D01*
X0131800Y0119833D01*
X0131800Y0114833D01*
X0129300Y0112333D01*
X0124300Y0112333D01*
X0129300Y0112333D02*
X0131800Y0109833D01*
X0131800Y0104833D01*
X0129300Y0102333D01*
X0131800Y0099833D01*
X0131800Y0094833D01*
X0129300Y0092333D01*
X0131800Y0089833D01*
X0131800Y0084833D01*
X0129300Y0082333D01*
X0124300Y0082333D01*
X0129300Y0082333D02*
X0131800Y0079833D01*
X0131800Y0074833D01*
X0129300Y0072333D01*
X0131800Y0069833D01*
X0131800Y0064833D01*
X0129300Y0072333D02*
X0124300Y0072333D01*
X0107816Y0067336D02*
X0103545Y0067336D01*
X0088479Y0067336D02*
X0084209Y0067336D01*
X0086344Y0069471D02*
X0086344Y0065201D01*
X0051800Y0043833D02*
X0051800Y0039833D01*
X0048100Y0035333D02*
X0048100Y0022833D01*
X0035100Y0022833D01*
X0035100Y0035333D01*
X0028400Y0035333D02*
X0028400Y0022833D01*
X0015400Y0022833D01*
X0015400Y0035333D01*
X0029900Y0020333D02*
X0029900Y0012833D01*
X0033600Y0012833D02*
X0033600Y0020333D01*
X0094900Y0020333D02*
X0094900Y0012833D01*
X0098600Y0012833D02*
X0098600Y0020333D01*
X0099300Y0092333D02*
X0094300Y0092333D01*
X0091800Y0094833D01*
X0089300Y0092333D01*
X0084300Y0092333D01*
X0081800Y0094833D01*
X0081800Y0099833D01*
X0084300Y0102333D01*
X0089300Y0102333D01*
X0091800Y0099833D01*
X0094300Y0102333D01*
X0099300Y0102333D01*
X0101800Y0099833D01*
X0104300Y0102333D01*
X0109300Y0102333D01*
X0111800Y0099833D01*
X0111800Y0094833D01*
X0109300Y0092333D01*
X0104300Y0092333D01*
X0101800Y0094833D01*
X0099300Y0092333D01*
X0101800Y0094833D02*
X0101800Y0099833D01*
X0091800Y0099833D02*
X0091800Y0094833D01*
X0069300Y0094833D02*
X0066800Y0092333D01*
X0061800Y0092333D01*
X0059300Y0094833D01*
X0056800Y0092333D01*
X0051800Y0092333D01*
X0049300Y0094833D01*
X0049300Y0099833D01*
X0051800Y0102333D01*
X0056800Y0102333D01*
X0059300Y0099833D01*
X0061800Y0102333D01*
X0066800Y0102333D01*
X0069300Y0099833D01*
X0069300Y0094833D01*
X0059300Y0094833D02*
X0059300Y0099833D01*
X0052067Y0105201D02*
X0052067Y0109471D01*
X0049932Y0107336D02*
X0054202Y0107336D01*
X0062823Y0107336D02*
X0067093Y0107336D01*
X0036800Y0099833D02*
X0036800Y0094833D01*
X0034300Y0092333D01*
X0029300Y0092333D01*
X0026800Y0094833D01*
X0024300Y0092333D01*
X0019300Y0092333D01*
X0016800Y0094833D01*
X0016800Y0099833D01*
X0019300Y0102333D01*
X0024300Y0102333D01*
X0026800Y0099833D01*
X0029300Y0102333D01*
X0034300Y0102333D01*
X0036800Y0099833D01*
X0034593Y0107336D02*
X0030323Y0107336D01*
X0021702Y0107336D02*
X0017432Y0107336D01*
X0019567Y0109471D02*
X0019567Y0105201D01*
X0026800Y0099833D02*
X0026800Y0094833D01*
X0124300Y0092333D02*
X0129300Y0092333D01*
X0129300Y0102333D02*
X0124300Y0102333D01*
X0124300Y0122333D02*
X0129300Y0122333D01*
X0129300Y0132333D02*
X0124300Y0132333D01*
X0124300Y0152333D02*
X0129300Y0152333D01*
X0031300Y0207333D02*
X0029300Y0207333D01*
X0006800Y0207333D02*
X0006806Y0207824D01*
X0006824Y0208314D01*
X0006854Y0208804D01*
X0006896Y0209293D01*
X0006950Y0209781D01*
X0007016Y0210268D01*
X0007094Y0210752D01*
X0007184Y0211235D01*
X0007286Y0211715D01*
X0007399Y0212193D01*
X0007524Y0212667D01*
X0007661Y0213139D01*
X0007809Y0213607D01*
X0007969Y0214071D01*
X0008140Y0214531D01*
X0008322Y0214987D01*
X0008516Y0215438D01*
X0008720Y0215884D01*
X0008936Y0216325D01*
X0009162Y0216761D01*
X0009398Y0217191D01*
X0009645Y0217615D01*
X0009903Y0218033D01*
X0010171Y0218444D01*
X0010448Y0218849D01*
X0010736Y0219247D01*
X0011033Y0219638D01*
X0011340Y0220021D01*
X0011656Y0220396D01*
X0011981Y0220764D01*
X0012315Y0221124D01*
X0012658Y0221475D01*
X0013009Y0221818D01*
X0013369Y0222152D01*
X0013737Y0222477D01*
X0014112Y0222793D01*
X0014495Y0223100D01*
X0014886Y0223397D01*
X0015284Y0223685D01*
X0015689Y0223962D01*
X0016100Y0224230D01*
X0016518Y0224488D01*
X0016942Y0224735D01*
X0017372Y0224971D01*
X0017808Y0225197D01*
X0018249Y0225413D01*
X0018695Y0225617D01*
X0019146Y0225811D01*
X0019602Y0225993D01*
X0020062Y0226164D01*
X0020526Y0226324D01*
X0020994Y0226472D01*
X0021466Y0226609D01*
X0021940Y0226734D01*
X0022418Y0226847D01*
X0022898Y0226949D01*
X0023381Y0227039D01*
X0023865Y0227117D01*
X0024352Y0227183D01*
X0024840Y0227237D01*
X0025329Y0227279D01*
X0025819Y0227309D01*
X0026309Y0227327D01*
X0026800Y0227333D01*
X0027291Y0227327D01*
X0027781Y0227309D01*
X0028271Y0227279D01*
X0028760Y0227237D01*
X0029248Y0227183D01*
X0029735Y0227117D01*
X0030219Y0227039D01*
X0030702Y0226949D01*
X0031182Y0226847D01*
X0031660Y0226734D01*
X0032134Y0226609D01*
X0032606Y0226472D01*
X0033074Y0226324D01*
X0033538Y0226164D01*
X0033998Y0225993D01*
X0034454Y0225811D01*
X0034905Y0225617D01*
X0035351Y0225413D01*
X0035792Y0225197D01*
X0036228Y0224971D01*
X0036658Y0224735D01*
X0037082Y0224488D01*
X0037500Y0224230D01*
X0037911Y0223962D01*
X0038316Y0223685D01*
X0038714Y0223397D01*
X0039105Y0223100D01*
X0039488Y0222793D01*
X0039863Y0222477D01*
X0040231Y0222152D01*
X0040591Y0221818D01*
X0040942Y0221475D01*
X0041285Y0221124D01*
X0041619Y0220764D01*
X0041944Y0220396D01*
X0042260Y0220021D01*
X0042567Y0219638D01*
X0042864Y0219247D01*
X0043152Y0218849D01*
X0043429Y0218444D01*
X0043697Y0218033D01*
X0043955Y0217615D01*
X0044202Y0217191D01*
X0044438Y0216761D01*
X0044664Y0216325D01*
X0044880Y0215884D01*
X0045084Y0215438D01*
X0045278Y0214987D01*
X0045460Y0214531D01*
X0045631Y0214071D01*
X0045791Y0213607D01*
X0045939Y0213139D01*
X0046076Y0212667D01*
X0046201Y0212193D01*
X0046314Y0211715D01*
X0046416Y0211235D01*
X0046506Y0210752D01*
X0046584Y0210268D01*
X0046650Y0209781D01*
X0046704Y0209293D01*
X0046746Y0208804D01*
X0046776Y0208314D01*
X0046794Y0207824D01*
X0046800Y0207333D01*
X0046794Y0206842D01*
X0046776Y0206352D01*
X0046746Y0205862D01*
X0046704Y0205373D01*
X0046650Y0204885D01*
X0046584Y0204398D01*
X0046506Y0203914D01*
X0046416Y0203431D01*
X0046314Y0202951D01*
X0046201Y0202473D01*
X0046076Y0201999D01*
X0045939Y0201527D01*
X0045791Y0201059D01*
X0045631Y0200595D01*
X0045460Y0200135D01*
X0045278Y0199679D01*
X0045084Y0199228D01*
X0044880Y0198782D01*
X0044664Y0198341D01*
X0044438Y0197905D01*
X0044202Y0197475D01*
X0043955Y0197051D01*
X0043697Y0196633D01*
X0043429Y0196222D01*
X0043152Y0195817D01*
X0042864Y0195419D01*
X0042567Y0195028D01*
X0042260Y0194645D01*
X0041944Y0194270D01*
X0041619Y0193902D01*
X0041285Y0193542D01*
X0040942Y0193191D01*
X0040591Y0192848D01*
X0040231Y0192514D01*
X0039863Y0192189D01*
X0039488Y0191873D01*
X0039105Y0191566D01*
X0038714Y0191269D01*
X0038316Y0190981D01*
X0037911Y0190704D01*
X0037500Y0190436D01*
X0037082Y0190178D01*
X0036658Y0189931D01*
X0036228Y0189695D01*
X0035792Y0189469D01*
X0035351Y0189253D01*
X0034905Y0189049D01*
X0034454Y0188855D01*
X0033998Y0188673D01*
X0033538Y0188502D01*
X0033074Y0188342D01*
X0032606Y0188194D01*
X0032134Y0188057D01*
X0031660Y0187932D01*
X0031182Y0187819D01*
X0030702Y0187717D01*
X0030219Y0187627D01*
X0029735Y0187549D01*
X0029248Y0187483D01*
X0028760Y0187429D01*
X0028271Y0187387D01*
X0027781Y0187357D01*
X0027291Y0187339D01*
X0026800Y0187333D01*
X0026309Y0187339D01*
X0025819Y0187357D01*
X0025329Y0187387D01*
X0024840Y0187429D01*
X0024352Y0187483D01*
X0023865Y0187549D01*
X0023381Y0187627D01*
X0022898Y0187717D01*
X0022418Y0187819D01*
X0021940Y0187932D01*
X0021466Y0188057D01*
X0020994Y0188194D01*
X0020526Y0188342D01*
X0020062Y0188502D01*
X0019602Y0188673D01*
X0019146Y0188855D01*
X0018695Y0189049D01*
X0018249Y0189253D01*
X0017808Y0189469D01*
X0017372Y0189695D01*
X0016942Y0189931D01*
X0016518Y0190178D01*
X0016100Y0190436D01*
X0015689Y0190704D01*
X0015284Y0190981D01*
X0014886Y0191269D01*
X0014495Y0191566D01*
X0014112Y0191873D01*
X0013737Y0192189D01*
X0013369Y0192514D01*
X0013009Y0192848D01*
X0012658Y0193191D01*
X0012315Y0193542D01*
X0011981Y0193902D01*
X0011656Y0194270D01*
X0011340Y0194645D01*
X0011033Y0195028D01*
X0010736Y0195419D01*
X0010448Y0195817D01*
X0010171Y0196222D01*
X0009903Y0196633D01*
X0009645Y0197051D01*
X0009398Y0197475D01*
X0009162Y0197905D01*
X0008936Y0198341D01*
X0008720Y0198782D01*
X0008516Y0199228D01*
X0008322Y0199679D01*
X0008140Y0200135D01*
X0007969Y0200595D01*
X0007809Y0201059D01*
X0007661Y0201527D01*
X0007524Y0201999D01*
X0007399Y0202473D01*
X0007286Y0202951D01*
X0007184Y0203431D01*
X0007094Y0203914D01*
X0007016Y0204398D01*
X0006950Y0204885D01*
X0006896Y0205373D01*
X0006854Y0205862D01*
X0006824Y0206352D01*
X0006806Y0206842D01*
X0006800Y0207333D01*
X0011800Y0210833D02*
X0011800Y0213833D01*
X0013300Y0212333D02*
X0010300Y0212333D01*
X0022300Y0207333D02*
X0023300Y0207333D01*
X0023300Y0211833D01*
X0025800Y0211833D01*
X0025800Y0202833D01*
X0023300Y0202833D01*
X0023300Y0207333D01*
D15*
X0045550Y0219134D02*
X0045550Y0222137D01*
X0046301Y0222887D01*
X0047802Y0222887D01*
X0048553Y0222137D01*
X0050154Y0221386D02*
X0051655Y0222887D01*
X0051655Y0218383D01*
X0050154Y0218383D02*
X0053156Y0218383D01*
X0048553Y0219134D02*
X0047802Y0218383D01*
X0046301Y0218383D01*
X0045550Y0219134D01*
X0108538Y0186134D02*
X0109289Y0185383D01*
X0110039Y0185383D01*
X0110790Y0186134D01*
X0110790Y0189887D01*
X0110039Y0189887D02*
X0111541Y0189887D01*
X0113142Y0189887D02*
X0115394Y0189887D01*
X0116145Y0189137D01*
X0116145Y0187635D01*
X0115394Y0186885D01*
X0113142Y0186885D01*
X0113142Y0185383D02*
X0113142Y0189887D01*
X0117746Y0188386D02*
X0119247Y0189887D01*
X0119247Y0185383D01*
X0117746Y0185383D02*
X0120749Y0185383D01*
X0160046Y0106700D02*
X0160046Y0103697D01*
X0164550Y0103697D01*
X0164550Y0106700D01*
X0162298Y0105198D02*
X0162298Y0103697D01*
X0162298Y0102096D02*
X0160797Y0102096D01*
X0160046Y0101345D01*
X0160046Y0099093D01*
X0164550Y0099093D01*
X0163049Y0099093D02*
X0163049Y0101345D01*
X0162298Y0102096D01*
X0160797Y0097492D02*
X0160046Y0097492D01*
X0160797Y0097492D02*
X0162298Y0095990D01*
X0164550Y0095990D01*
X0162298Y0095990D02*
X0160797Y0094489D01*
X0160046Y0094489D01*
X0160046Y0092888D02*
X0160046Y0089885D01*
X0160046Y0091387D02*
X0164550Y0091387D01*
X0163799Y0088284D02*
X0160797Y0088284D01*
X0160046Y0087533D01*
X0160046Y0086032D01*
X0160797Y0085281D01*
X0163799Y0085281D01*
X0164550Y0086032D01*
X0164550Y0087533D01*
X0163799Y0088284D01*
X0160046Y0083680D02*
X0160046Y0080677D01*
X0160046Y0082179D02*
X0164550Y0082179D01*
X0163799Y0079076D02*
X0160797Y0079076D01*
X0160046Y0078325D01*
X0160046Y0076824D01*
X0160797Y0076073D01*
X0163799Y0076073D01*
X0164550Y0076824D01*
X0164550Y0078325D01*
X0163799Y0079076D01*
X0164550Y0074472D02*
X0163049Y0072971D01*
X0163049Y0073721D02*
X0163049Y0071470D01*
X0164550Y0071470D02*
X0160046Y0071470D01*
X0160046Y0073721D01*
X0160797Y0074472D01*
X0162298Y0074472D01*
X0163049Y0073721D01*
X0162298Y0069868D02*
X0160797Y0069868D01*
X0160046Y0069118D01*
X0160046Y0066866D01*
X0164550Y0066866D01*
X0163049Y0066866D02*
X0163049Y0069118D01*
X0162298Y0069868D01*
X0102353Y0046337D02*
X0101602Y0047087D01*
X0100101Y0047087D01*
X0099350Y0046337D01*
X0102353Y0046337D02*
X0102353Y0045586D01*
X0099350Y0042583D01*
X0102353Y0042583D01*
X0082353Y0042583D02*
X0079350Y0042583D01*
X0080851Y0042583D02*
X0080851Y0047087D01*
X0079350Y0045586D01*
X0037353Y0045586D02*
X0037353Y0046337D01*
X0036602Y0047087D01*
X0035101Y0047087D01*
X0034350Y0046337D01*
X0037353Y0045586D02*
X0034350Y0042583D01*
X0037353Y0042583D01*
X0017353Y0042583D02*
X0014350Y0042583D01*
X0015851Y0042583D02*
X0015851Y0047087D01*
X0014350Y0045586D01*
X0334847Y0045317D02*
X0334847Y0046484D01*
X0335431Y0047068D01*
X0337766Y0044733D01*
X0338350Y0045317D01*
X0338350Y0046484D01*
X0337766Y0047068D01*
X0335431Y0047068D01*
X0334847Y0045317D02*
X0335431Y0044733D01*
X0337766Y0044733D01*
X0337766Y0043385D02*
X0338350Y0042801D01*
X0338350Y0041633D01*
X0337766Y0041050D01*
X0335431Y0041050D01*
X0334847Y0041633D01*
X0334847Y0042801D01*
X0335431Y0043385D01*
X0336015Y0039702D02*
X0334847Y0038534D01*
X0336015Y0037366D01*
X0338350Y0037366D01*
X0337766Y0036019D02*
X0335431Y0036019D01*
X0334847Y0035435D01*
X0334847Y0033683D01*
X0338350Y0033683D01*
X0338350Y0035435D01*
X0337766Y0036019D01*
X0336599Y0037366D02*
X0336599Y0039702D01*
X0336015Y0039702D02*
X0338350Y0039702D01*
X0344847Y0038534D02*
X0346015Y0037366D01*
X0348350Y0037366D01*
X0347766Y0036019D02*
X0345431Y0036019D01*
X0344847Y0035435D01*
X0344847Y0033683D01*
X0348350Y0033683D01*
X0348350Y0035435D01*
X0347766Y0036019D01*
X0346599Y0037366D02*
X0346599Y0039702D01*
X0346015Y0039702D02*
X0348350Y0039702D01*
X0347766Y0041050D02*
X0345431Y0041050D01*
X0344847Y0041633D01*
X0344847Y0042801D01*
X0345431Y0043385D01*
X0346015Y0044733D02*
X0344847Y0045900D01*
X0348350Y0045900D01*
X0348350Y0044733D02*
X0348350Y0047068D01*
X0354847Y0046484D02*
X0355431Y0047068D01*
X0356599Y0047068D01*
X0357182Y0046484D01*
X0357182Y0044733D01*
X0357182Y0045900D02*
X0358350Y0047068D01*
X0358350Y0048416D02*
X0354847Y0050751D01*
X0354847Y0048416D02*
X0358350Y0050751D01*
X0354847Y0046484D02*
X0354847Y0044733D01*
X0358350Y0044733D01*
X0358350Y0043385D02*
X0354847Y0043385D01*
X0354847Y0041050D02*
X0358350Y0043385D01*
X0358350Y0041050D02*
X0354847Y0041050D01*
X0356015Y0039702D02*
X0354847Y0038534D01*
X0356015Y0037366D01*
X0358350Y0037366D01*
X0357766Y0036019D02*
X0358350Y0035435D01*
X0358350Y0034267D01*
X0357766Y0033683D01*
X0355431Y0033683D01*
X0354847Y0034267D01*
X0354847Y0035435D01*
X0355431Y0036019D01*
X0356599Y0037366D02*
X0356599Y0039702D01*
X0356015Y0039702D02*
X0358350Y0039702D01*
X0364347Y0038534D02*
X0365515Y0037366D01*
X0367850Y0037366D01*
X0367266Y0036019D02*
X0367850Y0035435D01*
X0367850Y0034267D01*
X0367266Y0033683D01*
X0364931Y0033683D01*
X0364347Y0034267D01*
X0364347Y0035435D01*
X0364931Y0036019D01*
X0366099Y0037366D02*
X0366099Y0039702D01*
X0365515Y0039702D02*
X0367850Y0039702D01*
X0367850Y0041050D02*
X0364347Y0041050D01*
X0367850Y0043385D01*
X0364347Y0043385D01*
X0364347Y0044733D02*
X0364347Y0047068D01*
X0364347Y0045900D02*
X0367850Y0045900D01*
X0367850Y0048416D02*
X0364347Y0050751D01*
X0364347Y0048416D02*
X0367850Y0050751D01*
X0365515Y0039702D02*
X0364347Y0038534D01*
X0348350Y0041633D02*
X0348350Y0042801D01*
X0347766Y0043385D01*
X0348350Y0041633D02*
X0347766Y0041050D01*
X0346015Y0039702D02*
X0344847Y0038534D01*
X0343546Y0147806D02*
X0343546Y0149307D01*
X0343546Y0148557D02*
X0348050Y0148557D01*
X0348050Y0149307D02*
X0348050Y0147806D01*
X0347299Y0150875D02*
X0344297Y0150875D01*
X0343546Y0151626D01*
X0343546Y0153127D01*
X0344297Y0153878D01*
X0344297Y0155479D02*
X0343546Y0156230D01*
X0343546Y0157731D01*
X0344297Y0158482D01*
X0345047Y0158482D01*
X0348050Y0155479D01*
X0348050Y0158482D01*
X0347299Y0153878D02*
X0348050Y0153127D01*
X0348050Y0151626D01*
X0347299Y0150875D01*
D16*
X0367731Y0221883D02*
X0367147Y0222467D01*
X0367731Y0221883D02*
X0368899Y0221883D01*
X0369482Y0222467D01*
X0369482Y0223635D01*
X0368899Y0224219D01*
X0368315Y0224219D01*
X0367147Y0223635D01*
X0367147Y0225386D01*
X0369482Y0225386D01*
X0371199Y0225386D02*
X0371199Y0223051D01*
X0372366Y0221883D01*
X0373534Y0223051D01*
X0373534Y0225386D01*
D17*
X0355501Y0217333D02*
X0355503Y0217491D01*
X0355509Y0217649D01*
X0355519Y0217807D01*
X0355533Y0217965D01*
X0355551Y0218122D01*
X0355572Y0218279D01*
X0355598Y0218435D01*
X0355628Y0218591D01*
X0355661Y0218746D01*
X0355699Y0218899D01*
X0355740Y0219052D01*
X0355785Y0219204D01*
X0355834Y0219355D01*
X0355887Y0219504D01*
X0355943Y0219652D01*
X0356003Y0219798D01*
X0356067Y0219943D01*
X0356135Y0220086D01*
X0356206Y0220228D01*
X0356280Y0220368D01*
X0356358Y0220505D01*
X0356440Y0220641D01*
X0356524Y0220775D01*
X0356613Y0220906D01*
X0356704Y0221035D01*
X0356799Y0221162D01*
X0356896Y0221287D01*
X0356997Y0221409D01*
X0357101Y0221528D01*
X0357208Y0221645D01*
X0357318Y0221759D01*
X0357431Y0221870D01*
X0357546Y0221979D01*
X0357664Y0222084D01*
X0357785Y0222186D01*
X0357908Y0222286D01*
X0358034Y0222382D01*
X0358162Y0222475D01*
X0358292Y0222565D01*
X0358425Y0222651D01*
X0358560Y0222735D01*
X0358696Y0222814D01*
X0358835Y0222891D01*
X0358976Y0222963D01*
X0359118Y0223033D01*
X0359262Y0223098D01*
X0359408Y0223160D01*
X0359555Y0223218D01*
X0359704Y0223273D01*
X0359854Y0223324D01*
X0360005Y0223371D01*
X0360157Y0223414D01*
X0360310Y0223453D01*
X0360465Y0223489D01*
X0360620Y0223520D01*
X0360776Y0223548D01*
X0360932Y0223572D01*
X0361089Y0223592D01*
X0361247Y0223608D01*
X0361404Y0223620D01*
X0361563Y0223628D01*
X0361721Y0223632D01*
X0361879Y0223632D01*
X0362037Y0223628D01*
X0362196Y0223620D01*
X0362353Y0223608D01*
X0362511Y0223592D01*
X0362668Y0223572D01*
X0362824Y0223548D01*
X0362980Y0223520D01*
X0363135Y0223489D01*
X0363290Y0223453D01*
X0363443Y0223414D01*
X0363595Y0223371D01*
X0363746Y0223324D01*
X0363896Y0223273D01*
X0364045Y0223218D01*
X0364192Y0223160D01*
X0364338Y0223098D01*
X0364482Y0223033D01*
X0364624Y0222963D01*
X0364765Y0222891D01*
X0364904Y0222814D01*
X0365040Y0222735D01*
X0365175Y0222651D01*
X0365308Y0222565D01*
X0365438Y0222475D01*
X0365566Y0222382D01*
X0365692Y0222286D01*
X0365815Y0222186D01*
X0365936Y0222084D01*
X0366054Y0221979D01*
X0366169Y0221870D01*
X0366282Y0221759D01*
X0366392Y0221645D01*
X0366499Y0221528D01*
X0366603Y0221409D01*
X0366704Y0221287D01*
X0366801Y0221162D01*
X0366896Y0221035D01*
X0366987Y0220906D01*
X0367076Y0220775D01*
X0367160Y0220641D01*
X0367242Y0220505D01*
X0367320Y0220368D01*
X0367394Y0220228D01*
X0367465Y0220086D01*
X0367533Y0219943D01*
X0367597Y0219798D01*
X0367657Y0219652D01*
X0367713Y0219504D01*
X0367766Y0219355D01*
X0367815Y0219204D01*
X0367860Y0219052D01*
X0367901Y0218899D01*
X0367939Y0218746D01*
X0367972Y0218591D01*
X0368002Y0218435D01*
X0368028Y0218279D01*
X0368049Y0218122D01*
X0368067Y0217965D01*
X0368081Y0217807D01*
X0368091Y0217649D01*
X0368097Y0217491D01*
X0368099Y0217333D01*
X0368097Y0217175D01*
X0368091Y0217017D01*
X0368081Y0216859D01*
X0368067Y0216701D01*
X0368049Y0216544D01*
X0368028Y0216387D01*
X0368002Y0216231D01*
X0367972Y0216075D01*
X0367939Y0215920D01*
X0367901Y0215767D01*
X0367860Y0215614D01*
X0367815Y0215462D01*
X0367766Y0215311D01*
X0367713Y0215162D01*
X0367657Y0215014D01*
X0367597Y0214868D01*
X0367533Y0214723D01*
X0367465Y0214580D01*
X0367394Y0214438D01*
X0367320Y0214298D01*
X0367242Y0214161D01*
X0367160Y0214025D01*
X0367076Y0213891D01*
X0366987Y0213760D01*
X0366896Y0213631D01*
X0366801Y0213504D01*
X0366704Y0213379D01*
X0366603Y0213257D01*
X0366499Y0213138D01*
X0366392Y0213021D01*
X0366282Y0212907D01*
X0366169Y0212796D01*
X0366054Y0212687D01*
X0365936Y0212582D01*
X0365815Y0212480D01*
X0365692Y0212380D01*
X0365566Y0212284D01*
X0365438Y0212191D01*
X0365308Y0212101D01*
X0365175Y0212015D01*
X0365040Y0211931D01*
X0364904Y0211852D01*
X0364765Y0211775D01*
X0364624Y0211703D01*
X0364482Y0211633D01*
X0364338Y0211568D01*
X0364192Y0211506D01*
X0364045Y0211448D01*
X0363896Y0211393D01*
X0363746Y0211342D01*
X0363595Y0211295D01*
X0363443Y0211252D01*
X0363290Y0211213D01*
X0363135Y0211177D01*
X0362980Y0211146D01*
X0362824Y0211118D01*
X0362668Y0211094D01*
X0362511Y0211074D01*
X0362353Y0211058D01*
X0362196Y0211046D01*
X0362037Y0211038D01*
X0361879Y0211034D01*
X0361721Y0211034D01*
X0361563Y0211038D01*
X0361404Y0211046D01*
X0361247Y0211058D01*
X0361089Y0211074D01*
X0360932Y0211094D01*
X0360776Y0211118D01*
X0360620Y0211146D01*
X0360465Y0211177D01*
X0360310Y0211213D01*
X0360157Y0211252D01*
X0360005Y0211295D01*
X0359854Y0211342D01*
X0359704Y0211393D01*
X0359555Y0211448D01*
X0359408Y0211506D01*
X0359262Y0211568D01*
X0359118Y0211633D01*
X0358976Y0211703D01*
X0358835Y0211775D01*
X0358696Y0211852D01*
X0358560Y0211931D01*
X0358425Y0212015D01*
X0358292Y0212101D01*
X0358162Y0212191D01*
X0358034Y0212284D01*
X0357908Y0212380D01*
X0357785Y0212480D01*
X0357664Y0212582D01*
X0357546Y0212687D01*
X0357431Y0212796D01*
X0357318Y0212907D01*
X0357208Y0213021D01*
X0357101Y0213138D01*
X0356997Y0213257D01*
X0356896Y0213379D01*
X0356799Y0213504D01*
X0356704Y0213631D01*
X0356613Y0213760D01*
X0356524Y0213891D01*
X0356440Y0214025D01*
X0356358Y0214161D01*
X0356280Y0214298D01*
X0356206Y0214438D01*
X0356135Y0214580D01*
X0356067Y0214723D01*
X0356003Y0214868D01*
X0355943Y0215014D01*
X0355887Y0215162D01*
X0355834Y0215311D01*
X0355785Y0215462D01*
X0355740Y0215614D01*
X0355699Y0215767D01*
X0355661Y0215920D01*
X0355628Y0216075D01*
X0355598Y0216231D01*
X0355572Y0216387D01*
X0355551Y0216544D01*
X0355533Y0216701D01*
X0355519Y0216859D01*
X0355509Y0217017D01*
X0355503Y0217175D01*
X0355501Y0217333D01*
X0260501Y0157333D02*
X0260503Y0157491D01*
X0260509Y0157649D01*
X0260519Y0157807D01*
X0260533Y0157965D01*
X0260551Y0158122D01*
X0260572Y0158279D01*
X0260598Y0158435D01*
X0260628Y0158591D01*
X0260661Y0158746D01*
X0260699Y0158899D01*
X0260740Y0159052D01*
X0260785Y0159204D01*
X0260834Y0159355D01*
X0260887Y0159504D01*
X0260943Y0159652D01*
X0261003Y0159798D01*
X0261067Y0159943D01*
X0261135Y0160086D01*
X0261206Y0160228D01*
X0261280Y0160368D01*
X0261358Y0160505D01*
X0261440Y0160641D01*
X0261524Y0160775D01*
X0261613Y0160906D01*
X0261704Y0161035D01*
X0261799Y0161162D01*
X0261896Y0161287D01*
X0261997Y0161409D01*
X0262101Y0161528D01*
X0262208Y0161645D01*
X0262318Y0161759D01*
X0262431Y0161870D01*
X0262546Y0161979D01*
X0262664Y0162084D01*
X0262785Y0162186D01*
X0262908Y0162286D01*
X0263034Y0162382D01*
X0263162Y0162475D01*
X0263292Y0162565D01*
X0263425Y0162651D01*
X0263560Y0162735D01*
X0263696Y0162814D01*
X0263835Y0162891D01*
X0263976Y0162963D01*
X0264118Y0163033D01*
X0264262Y0163098D01*
X0264408Y0163160D01*
X0264555Y0163218D01*
X0264704Y0163273D01*
X0264854Y0163324D01*
X0265005Y0163371D01*
X0265157Y0163414D01*
X0265310Y0163453D01*
X0265465Y0163489D01*
X0265620Y0163520D01*
X0265776Y0163548D01*
X0265932Y0163572D01*
X0266089Y0163592D01*
X0266247Y0163608D01*
X0266404Y0163620D01*
X0266563Y0163628D01*
X0266721Y0163632D01*
X0266879Y0163632D01*
X0267037Y0163628D01*
X0267196Y0163620D01*
X0267353Y0163608D01*
X0267511Y0163592D01*
X0267668Y0163572D01*
X0267824Y0163548D01*
X0267980Y0163520D01*
X0268135Y0163489D01*
X0268290Y0163453D01*
X0268443Y0163414D01*
X0268595Y0163371D01*
X0268746Y0163324D01*
X0268896Y0163273D01*
X0269045Y0163218D01*
X0269192Y0163160D01*
X0269338Y0163098D01*
X0269482Y0163033D01*
X0269624Y0162963D01*
X0269765Y0162891D01*
X0269904Y0162814D01*
X0270040Y0162735D01*
X0270175Y0162651D01*
X0270308Y0162565D01*
X0270438Y0162475D01*
X0270566Y0162382D01*
X0270692Y0162286D01*
X0270815Y0162186D01*
X0270936Y0162084D01*
X0271054Y0161979D01*
X0271169Y0161870D01*
X0271282Y0161759D01*
X0271392Y0161645D01*
X0271499Y0161528D01*
X0271603Y0161409D01*
X0271704Y0161287D01*
X0271801Y0161162D01*
X0271896Y0161035D01*
X0271987Y0160906D01*
X0272076Y0160775D01*
X0272160Y0160641D01*
X0272242Y0160505D01*
X0272320Y0160368D01*
X0272394Y0160228D01*
X0272465Y0160086D01*
X0272533Y0159943D01*
X0272597Y0159798D01*
X0272657Y0159652D01*
X0272713Y0159504D01*
X0272766Y0159355D01*
X0272815Y0159204D01*
X0272860Y0159052D01*
X0272901Y0158899D01*
X0272939Y0158746D01*
X0272972Y0158591D01*
X0273002Y0158435D01*
X0273028Y0158279D01*
X0273049Y0158122D01*
X0273067Y0157965D01*
X0273081Y0157807D01*
X0273091Y0157649D01*
X0273097Y0157491D01*
X0273099Y0157333D01*
X0273097Y0157175D01*
X0273091Y0157017D01*
X0273081Y0156859D01*
X0273067Y0156701D01*
X0273049Y0156544D01*
X0273028Y0156387D01*
X0273002Y0156231D01*
X0272972Y0156075D01*
X0272939Y0155920D01*
X0272901Y0155767D01*
X0272860Y0155614D01*
X0272815Y0155462D01*
X0272766Y0155311D01*
X0272713Y0155162D01*
X0272657Y0155014D01*
X0272597Y0154868D01*
X0272533Y0154723D01*
X0272465Y0154580D01*
X0272394Y0154438D01*
X0272320Y0154298D01*
X0272242Y0154161D01*
X0272160Y0154025D01*
X0272076Y0153891D01*
X0271987Y0153760D01*
X0271896Y0153631D01*
X0271801Y0153504D01*
X0271704Y0153379D01*
X0271603Y0153257D01*
X0271499Y0153138D01*
X0271392Y0153021D01*
X0271282Y0152907D01*
X0271169Y0152796D01*
X0271054Y0152687D01*
X0270936Y0152582D01*
X0270815Y0152480D01*
X0270692Y0152380D01*
X0270566Y0152284D01*
X0270438Y0152191D01*
X0270308Y0152101D01*
X0270175Y0152015D01*
X0270040Y0151931D01*
X0269904Y0151852D01*
X0269765Y0151775D01*
X0269624Y0151703D01*
X0269482Y0151633D01*
X0269338Y0151568D01*
X0269192Y0151506D01*
X0269045Y0151448D01*
X0268896Y0151393D01*
X0268746Y0151342D01*
X0268595Y0151295D01*
X0268443Y0151252D01*
X0268290Y0151213D01*
X0268135Y0151177D01*
X0267980Y0151146D01*
X0267824Y0151118D01*
X0267668Y0151094D01*
X0267511Y0151074D01*
X0267353Y0151058D01*
X0267196Y0151046D01*
X0267037Y0151038D01*
X0266879Y0151034D01*
X0266721Y0151034D01*
X0266563Y0151038D01*
X0266404Y0151046D01*
X0266247Y0151058D01*
X0266089Y0151074D01*
X0265932Y0151094D01*
X0265776Y0151118D01*
X0265620Y0151146D01*
X0265465Y0151177D01*
X0265310Y0151213D01*
X0265157Y0151252D01*
X0265005Y0151295D01*
X0264854Y0151342D01*
X0264704Y0151393D01*
X0264555Y0151448D01*
X0264408Y0151506D01*
X0264262Y0151568D01*
X0264118Y0151633D01*
X0263976Y0151703D01*
X0263835Y0151775D01*
X0263696Y0151852D01*
X0263560Y0151931D01*
X0263425Y0152015D01*
X0263292Y0152101D01*
X0263162Y0152191D01*
X0263034Y0152284D01*
X0262908Y0152380D01*
X0262785Y0152480D01*
X0262664Y0152582D01*
X0262546Y0152687D01*
X0262431Y0152796D01*
X0262318Y0152907D01*
X0262208Y0153021D01*
X0262101Y0153138D01*
X0261997Y0153257D01*
X0261896Y0153379D01*
X0261799Y0153504D01*
X0261704Y0153631D01*
X0261613Y0153760D01*
X0261524Y0153891D01*
X0261440Y0154025D01*
X0261358Y0154161D01*
X0261280Y0154298D01*
X0261206Y0154438D01*
X0261135Y0154580D01*
X0261067Y0154723D01*
X0261003Y0154868D01*
X0260943Y0155014D01*
X0260887Y0155162D01*
X0260834Y0155311D01*
X0260785Y0155462D01*
X0260740Y0155614D01*
X0260699Y0155767D01*
X0260661Y0155920D01*
X0260628Y0156075D01*
X0260598Y0156231D01*
X0260572Y0156387D01*
X0260551Y0156544D01*
X0260533Y0156701D01*
X0260519Y0156859D01*
X0260509Y0157017D01*
X0260503Y0157175D01*
X0260501Y0157333D01*
X0310400Y0114833D02*
X0310402Y0114993D01*
X0310408Y0115152D01*
X0310418Y0115311D01*
X0310432Y0115470D01*
X0310450Y0115629D01*
X0310471Y0115787D01*
X0310497Y0115944D01*
X0310527Y0116101D01*
X0310560Y0116257D01*
X0310598Y0116412D01*
X0310639Y0116566D01*
X0310684Y0116719D01*
X0310733Y0116871D01*
X0310786Y0117022D01*
X0310842Y0117171D01*
X0310903Y0117319D01*
X0310966Y0117465D01*
X0311034Y0117610D01*
X0311105Y0117753D01*
X0311179Y0117894D01*
X0311257Y0118033D01*
X0311339Y0118170D01*
X0311424Y0118305D01*
X0311512Y0118438D01*
X0311604Y0118569D01*
X0311698Y0118697D01*
X0311796Y0118823D01*
X0311897Y0118947D01*
X0312001Y0119068D01*
X0312108Y0119186D01*
X0312218Y0119302D01*
X0312331Y0119415D01*
X0312447Y0119525D01*
X0312565Y0119632D01*
X0312686Y0119736D01*
X0312810Y0119837D01*
X0312936Y0119935D01*
X0313064Y0120029D01*
X0313195Y0120121D01*
X0313328Y0120209D01*
X0313463Y0120294D01*
X0313600Y0120376D01*
X0313739Y0120454D01*
X0313880Y0120528D01*
X0314023Y0120599D01*
X0314168Y0120667D01*
X0314314Y0120730D01*
X0314462Y0120791D01*
X0314611Y0120847D01*
X0314762Y0120900D01*
X0314914Y0120949D01*
X0315067Y0120994D01*
X0315221Y0121035D01*
X0315376Y0121073D01*
X0315532Y0121106D01*
X0315689Y0121136D01*
X0315846Y0121162D01*
X0316004Y0121183D01*
X0316163Y0121201D01*
X0316322Y0121215D01*
X0316481Y0121225D01*
X0316640Y0121231D01*
X0316800Y0121233D01*
X0316960Y0121231D01*
X0317119Y0121225D01*
X0317278Y0121215D01*
X0317437Y0121201D01*
X0317596Y0121183D01*
X0317754Y0121162D01*
X0317911Y0121136D01*
X0318068Y0121106D01*
X0318224Y0121073D01*
X0318379Y0121035D01*
X0318533Y0120994D01*
X0318686Y0120949D01*
X0318838Y0120900D01*
X0318989Y0120847D01*
X0319138Y0120791D01*
X0319286Y0120730D01*
X0319432Y0120667D01*
X0319577Y0120599D01*
X0319720Y0120528D01*
X0319861Y0120454D01*
X0320000Y0120376D01*
X0320137Y0120294D01*
X0320272Y0120209D01*
X0320405Y0120121D01*
X0320536Y0120029D01*
X0320664Y0119935D01*
X0320790Y0119837D01*
X0320914Y0119736D01*
X0321035Y0119632D01*
X0321153Y0119525D01*
X0321269Y0119415D01*
X0321382Y0119302D01*
X0321492Y0119186D01*
X0321599Y0119068D01*
X0321703Y0118947D01*
X0321804Y0118823D01*
X0321902Y0118697D01*
X0321996Y0118569D01*
X0322088Y0118438D01*
X0322176Y0118305D01*
X0322261Y0118170D01*
X0322343Y0118033D01*
X0322421Y0117894D01*
X0322495Y0117753D01*
X0322566Y0117610D01*
X0322634Y0117465D01*
X0322697Y0117319D01*
X0322758Y0117171D01*
X0322814Y0117022D01*
X0322867Y0116871D01*
X0322916Y0116719D01*
X0322961Y0116566D01*
X0323002Y0116412D01*
X0323040Y0116257D01*
X0323073Y0116101D01*
X0323103Y0115944D01*
X0323129Y0115787D01*
X0323150Y0115629D01*
X0323168Y0115470D01*
X0323182Y0115311D01*
X0323192Y0115152D01*
X0323198Y0114993D01*
X0323200Y0114833D01*
X0323198Y0114673D01*
X0323192Y0114514D01*
X0323182Y0114355D01*
X0323168Y0114196D01*
X0323150Y0114037D01*
X0323129Y0113879D01*
X0323103Y0113722D01*
X0323073Y0113565D01*
X0323040Y0113409D01*
X0323002Y0113254D01*
X0322961Y0113100D01*
X0322916Y0112947D01*
X0322867Y0112795D01*
X0322814Y0112644D01*
X0322758Y0112495D01*
X0322697Y0112347D01*
X0322634Y0112201D01*
X0322566Y0112056D01*
X0322495Y0111913D01*
X0322421Y0111772D01*
X0322343Y0111633D01*
X0322261Y0111496D01*
X0322176Y0111361D01*
X0322088Y0111228D01*
X0321996Y0111097D01*
X0321902Y0110969D01*
X0321804Y0110843D01*
X0321703Y0110719D01*
X0321599Y0110598D01*
X0321492Y0110480D01*
X0321382Y0110364D01*
X0321269Y0110251D01*
X0321153Y0110141D01*
X0321035Y0110034D01*
X0320914Y0109930D01*
X0320790Y0109829D01*
X0320664Y0109731D01*
X0320536Y0109637D01*
X0320405Y0109545D01*
X0320272Y0109457D01*
X0320137Y0109372D01*
X0320000Y0109290D01*
X0319861Y0109212D01*
X0319720Y0109138D01*
X0319577Y0109067D01*
X0319432Y0108999D01*
X0319286Y0108936D01*
X0319138Y0108875D01*
X0318989Y0108819D01*
X0318838Y0108766D01*
X0318686Y0108717D01*
X0318533Y0108672D01*
X0318379Y0108631D01*
X0318224Y0108593D01*
X0318068Y0108560D01*
X0317911Y0108530D01*
X0317754Y0108504D01*
X0317596Y0108483D01*
X0317437Y0108465D01*
X0317278Y0108451D01*
X0317119Y0108441D01*
X0316960Y0108435D01*
X0316800Y0108433D01*
X0316640Y0108435D01*
X0316481Y0108441D01*
X0316322Y0108451D01*
X0316163Y0108465D01*
X0316004Y0108483D01*
X0315846Y0108504D01*
X0315689Y0108530D01*
X0315532Y0108560D01*
X0315376Y0108593D01*
X0315221Y0108631D01*
X0315067Y0108672D01*
X0314914Y0108717D01*
X0314762Y0108766D01*
X0314611Y0108819D01*
X0314462Y0108875D01*
X0314314Y0108936D01*
X0314168Y0108999D01*
X0314023Y0109067D01*
X0313880Y0109138D01*
X0313739Y0109212D01*
X0313600Y0109290D01*
X0313463Y0109372D01*
X0313328Y0109457D01*
X0313195Y0109545D01*
X0313064Y0109637D01*
X0312936Y0109731D01*
X0312810Y0109829D01*
X0312686Y0109930D01*
X0312565Y0110034D01*
X0312447Y0110141D01*
X0312331Y0110251D01*
X0312218Y0110364D01*
X0312108Y0110480D01*
X0312001Y0110598D01*
X0311897Y0110719D01*
X0311796Y0110843D01*
X0311698Y0110969D01*
X0311604Y0111097D01*
X0311512Y0111228D01*
X0311424Y0111361D01*
X0311339Y0111496D01*
X0311257Y0111633D01*
X0311179Y0111772D01*
X0311105Y0111913D01*
X0311034Y0112056D01*
X0310966Y0112201D01*
X0310903Y0112347D01*
X0310842Y0112495D01*
X0310786Y0112644D01*
X0310733Y0112795D01*
X0310684Y0112947D01*
X0310639Y0113100D01*
X0310598Y0113254D01*
X0310560Y0113409D01*
X0310527Y0113565D01*
X0310497Y0113722D01*
X0310471Y0113879D01*
X0310450Y0114037D01*
X0310432Y0114196D01*
X0310418Y0114355D01*
X0310408Y0114514D01*
X0310402Y0114673D01*
X0310400Y0114833D01*
X0310400Y0069833D02*
X0310402Y0069993D01*
X0310408Y0070152D01*
X0310418Y0070311D01*
X0310432Y0070470D01*
X0310450Y0070629D01*
X0310471Y0070787D01*
X0310497Y0070944D01*
X0310527Y0071101D01*
X0310560Y0071257D01*
X0310598Y0071412D01*
X0310639Y0071566D01*
X0310684Y0071719D01*
X0310733Y0071871D01*
X0310786Y0072022D01*
X0310842Y0072171D01*
X0310903Y0072319D01*
X0310966Y0072465D01*
X0311034Y0072610D01*
X0311105Y0072753D01*
X0311179Y0072894D01*
X0311257Y0073033D01*
X0311339Y0073170D01*
X0311424Y0073305D01*
X0311512Y0073438D01*
X0311604Y0073569D01*
X0311698Y0073697D01*
X0311796Y0073823D01*
X0311897Y0073947D01*
X0312001Y0074068D01*
X0312108Y0074186D01*
X0312218Y0074302D01*
X0312331Y0074415D01*
X0312447Y0074525D01*
X0312565Y0074632D01*
X0312686Y0074736D01*
X0312810Y0074837D01*
X0312936Y0074935D01*
X0313064Y0075029D01*
X0313195Y0075121D01*
X0313328Y0075209D01*
X0313463Y0075294D01*
X0313600Y0075376D01*
X0313739Y0075454D01*
X0313880Y0075528D01*
X0314023Y0075599D01*
X0314168Y0075667D01*
X0314314Y0075730D01*
X0314462Y0075791D01*
X0314611Y0075847D01*
X0314762Y0075900D01*
X0314914Y0075949D01*
X0315067Y0075994D01*
X0315221Y0076035D01*
X0315376Y0076073D01*
X0315532Y0076106D01*
X0315689Y0076136D01*
X0315846Y0076162D01*
X0316004Y0076183D01*
X0316163Y0076201D01*
X0316322Y0076215D01*
X0316481Y0076225D01*
X0316640Y0076231D01*
X0316800Y0076233D01*
X0316960Y0076231D01*
X0317119Y0076225D01*
X0317278Y0076215D01*
X0317437Y0076201D01*
X0317596Y0076183D01*
X0317754Y0076162D01*
X0317911Y0076136D01*
X0318068Y0076106D01*
X0318224Y0076073D01*
X0318379Y0076035D01*
X0318533Y0075994D01*
X0318686Y0075949D01*
X0318838Y0075900D01*
X0318989Y0075847D01*
X0319138Y0075791D01*
X0319286Y0075730D01*
X0319432Y0075667D01*
X0319577Y0075599D01*
X0319720Y0075528D01*
X0319861Y0075454D01*
X0320000Y0075376D01*
X0320137Y0075294D01*
X0320272Y0075209D01*
X0320405Y0075121D01*
X0320536Y0075029D01*
X0320664Y0074935D01*
X0320790Y0074837D01*
X0320914Y0074736D01*
X0321035Y0074632D01*
X0321153Y0074525D01*
X0321269Y0074415D01*
X0321382Y0074302D01*
X0321492Y0074186D01*
X0321599Y0074068D01*
X0321703Y0073947D01*
X0321804Y0073823D01*
X0321902Y0073697D01*
X0321996Y0073569D01*
X0322088Y0073438D01*
X0322176Y0073305D01*
X0322261Y0073170D01*
X0322343Y0073033D01*
X0322421Y0072894D01*
X0322495Y0072753D01*
X0322566Y0072610D01*
X0322634Y0072465D01*
X0322697Y0072319D01*
X0322758Y0072171D01*
X0322814Y0072022D01*
X0322867Y0071871D01*
X0322916Y0071719D01*
X0322961Y0071566D01*
X0323002Y0071412D01*
X0323040Y0071257D01*
X0323073Y0071101D01*
X0323103Y0070944D01*
X0323129Y0070787D01*
X0323150Y0070629D01*
X0323168Y0070470D01*
X0323182Y0070311D01*
X0323192Y0070152D01*
X0323198Y0069993D01*
X0323200Y0069833D01*
X0323198Y0069673D01*
X0323192Y0069514D01*
X0323182Y0069355D01*
X0323168Y0069196D01*
X0323150Y0069037D01*
X0323129Y0068879D01*
X0323103Y0068722D01*
X0323073Y0068565D01*
X0323040Y0068409D01*
X0323002Y0068254D01*
X0322961Y0068100D01*
X0322916Y0067947D01*
X0322867Y0067795D01*
X0322814Y0067644D01*
X0322758Y0067495D01*
X0322697Y0067347D01*
X0322634Y0067201D01*
X0322566Y0067056D01*
X0322495Y0066913D01*
X0322421Y0066772D01*
X0322343Y0066633D01*
X0322261Y0066496D01*
X0322176Y0066361D01*
X0322088Y0066228D01*
X0321996Y0066097D01*
X0321902Y0065969D01*
X0321804Y0065843D01*
X0321703Y0065719D01*
X0321599Y0065598D01*
X0321492Y0065480D01*
X0321382Y0065364D01*
X0321269Y0065251D01*
X0321153Y0065141D01*
X0321035Y0065034D01*
X0320914Y0064930D01*
X0320790Y0064829D01*
X0320664Y0064731D01*
X0320536Y0064637D01*
X0320405Y0064545D01*
X0320272Y0064457D01*
X0320137Y0064372D01*
X0320000Y0064290D01*
X0319861Y0064212D01*
X0319720Y0064138D01*
X0319577Y0064067D01*
X0319432Y0063999D01*
X0319286Y0063936D01*
X0319138Y0063875D01*
X0318989Y0063819D01*
X0318838Y0063766D01*
X0318686Y0063717D01*
X0318533Y0063672D01*
X0318379Y0063631D01*
X0318224Y0063593D01*
X0318068Y0063560D01*
X0317911Y0063530D01*
X0317754Y0063504D01*
X0317596Y0063483D01*
X0317437Y0063465D01*
X0317278Y0063451D01*
X0317119Y0063441D01*
X0316960Y0063435D01*
X0316800Y0063433D01*
X0316640Y0063435D01*
X0316481Y0063441D01*
X0316322Y0063451D01*
X0316163Y0063465D01*
X0316004Y0063483D01*
X0315846Y0063504D01*
X0315689Y0063530D01*
X0315532Y0063560D01*
X0315376Y0063593D01*
X0315221Y0063631D01*
X0315067Y0063672D01*
X0314914Y0063717D01*
X0314762Y0063766D01*
X0314611Y0063819D01*
X0314462Y0063875D01*
X0314314Y0063936D01*
X0314168Y0063999D01*
X0314023Y0064067D01*
X0313880Y0064138D01*
X0313739Y0064212D01*
X0313600Y0064290D01*
X0313463Y0064372D01*
X0313328Y0064457D01*
X0313195Y0064545D01*
X0313064Y0064637D01*
X0312936Y0064731D01*
X0312810Y0064829D01*
X0312686Y0064930D01*
X0312565Y0065034D01*
X0312447Y0065141D01*
X0312331Y0065251D01*
X0312218Y0065364D01*
X0312108Y0065480D01*
X0312001Y0065598D01*
X0311897Y0065719D01*
X0311796Y0065843D01*
X0311698Y0065969D01*
X0311604Y0066097D01*
X0311512Y0066228D01*
X0311424Y0066361D01*
X0311339Y0066496D01*
X0311257Y0066633D01*
X0311179Y0066772D01*
X0311105Y0066913D01*
X0311034Y0067056D01*
X0310966Y0067201D01*
X0310903Y0067347D01*
X0310842Y0067495D01*
X0310786Y0067644D01*
X0310733Y0067795D01*
X0310684Y0067947D01*
X0310639Y0068100D01*
X0310598Y0068254D01*
X0310560Y0068409D01*
X0310527Y0068565D01*
X0310497Y0068722D01*
X0310471Y0068879D01*
X0310450Y0069037D01*
X0310432Y0069196D01*
X0310418Y0069355D01*
X0310408Y0069514D01*
X0310402Y0069673D01*
X0310400Y0069833D01*
X0260501Y0047333D02*
X0260503Y0047491D01*
X0260509Y0047649D01*
X0260519Y0047807D01*
X0260533Y0047965D01*
X0260551Y0048122D01*
X0260572Y0048279D01*
X0260598Y0048435D01*
X0260628Y0048591D01*
X0260661Y0048746D01*
X0260699Y0048899D01*
X0260740Y0049052D01*
X0260785Y0049204D01*
X0260834Y0049355D01*
X0260887Y0049504D01*
X0260943Y0049652D01*
X0261003Y0049798D01*
X0261067Y0049943D01*
X0261135Y0050086D01*
X0261206Y0050228D01*
X0261280Y0050368D01*
X0261358Y0050505D01*
X0261440Y0050641D01*
X0261524Y0050775D01*
X0261613Y0050906D01*
X0261704Y0051035D01*
X0261799Y0051162D01*
X0261896Y0051287D01*
X0261997Y0051409D01*
X0262101Y0051528D01*
X0262208Y0051645D01*
X0262318Y0051759D01*
X0262431Y0051870D01*
X0262546Y0051979D01*
X0262664Y0052084D01*
X0262785Y0052186D01*
X0262908Y0052286D01*
X0263034Y0052382D01*
X0263162Y0052475D01*
X0263292Y0052565D01*
X0263425Y0052651D01*
X0263560Y0052735D01*
X0263696Y0052814D01*
X0263835Y0052891D01*
X0263976Y0052963D01*
X0264118Y0053033D01*
X0264262Y0053098D01*
X0264408Y0053160D01*
X0264555Y0053218D01*
X0264704Y0053273D01*
X0264854Y0053324D01*
X0265005Y0053371D01*
X0265157Y0053414D01*
X0265310Y0053453D01*
X0265465Y0053489D01*
X0265620Y0053520D01*
X0265776Y0053548D01*
X0265932Y0053572D01*
X0266089Y0053592D01*
X0266247Y0053608D01*
X0266404Y0053620D01*
X0266563Y0053628D01*
X0266721Y0053632D01*
X0266879Y0053632D01*
X0267037Y0053628D01*
X0267196Y0053620D01*
X0267353Y0053608D01*
X0267511Y0053592D01*
X0267668Y0053572D01*
X0267824Y0053548D01*
X0267980Y0053520D01*
X0268135Y0053489D01*
X0268290Y0053453D01*
X0268443Y0053414D01*
X0268595Y0053371D01*
X0268746Y0053324D01*
X0268896Y0053273D01*
X0269045Y0053218D01*
X0269192Y0053160D01*
X0269338Y0053098D01*
X0269482Y0053033D01*
X0269624Y0052963D01*
X0269765Y0052891D01*
X0269904Y0052814D01*
X0270040Y0052735D01*
X0270175Y0052651D01*
X0270308Y0052565D01*
X0270438Y0052475D01*
X0270566Y0052382D01*
X0270692Y0052286D01*
X0270815Y0052186D01*
X0270936Y0052084D01*
X0271054Y0051979D01*
X0271169Y0051870D01*
X0271282Y0051759D01*
X0271392Y0051645D01*
X0271499Y0051528D01*
X0271603Y0051409D01*
X0271704Y0051287D01*
X0271801Y0051162D01*
X0271896Y0051035D01*
X0271987Y0050906D01*
X0272076Y0050775D01*
X0272160Y0050641D01*
X0272242Y0050505D01*
X0272320Y0050368D01*
X0272394Y0050228D01*
X0272465Y0050086D01*
X0272533Y0049943D01*
X0272597Y0049798D01*
X0272657Y0049652D01*
X0272713Y0049504D01*
X0272766Y0049355D01*
X0272815Y0049204D01*
X0272860Y0049052D01*
X0272901Y0048899D01*
X0272939Y0048746D01*
X0272972Y0048591D01*
X0273002Y0048435D01*
X0273028Y0048279D01*
X0273049Y0048122D01*
X0273067Y0047965D01*
X0273081Y0047807D01*
X0273091Y0047649D01*
X0273097Y0047491D01*
X0273099Y0047333D01*
X0273097Y0047175D01*
X0273091Y0047017D01*
X0273081Y0046859D01*
X0273067Y0046701D01*
X0273049Y0046544D01*
X0273028Y0046387D01*
X0273002Y0046231D01*
X0272972Y0046075D01*
X0272939Y0045920D01*
X0272901Y0045767D01*
X0272860Y0045614D01*
X0272815Y0045462D01*
X0272766Y0045311D01*
X0272713Y0045162D01*
X0272657Y0045014D01*
X0272597Y0044868D01*
X0272533Y0044723D01*
X0272465Y0044580D01*
X0272394Y0044438D01*
X0272320Y0044298D01*
X0272242Y0044161D01*
X0272160Y0044025D01*
X0272076Y0043891D01*
X0271987Y0043760D01*
X0271896Y0043631D01*
X0271801Y0043504D01*
X0271704Y0043379D01*
X0271603Y0043257D01*
X0271499Y0043138D01*
X0271392Y0043021D01*
X0271282Y0042907D01*
X0271169Y0042796D01*
X0271054Y0042687D01*
X0270936Y0042582D01*
X0270815Y0042480D01*
X0270692Y0042380D01*
X0270566Y0042284D01*
X0270438Y0042191D01*
X0270308Y0042101D01*
X0270175Y0042015D01*
X0270040Y0041931D01*
X0269904Y0041852D01*
X0269765Y0041775D01*
X0269624Y0041703D01*
X0269482Y0041633D01*
X0269338Y0041568D01*
X0269192Y0041506D01*
X0269045Y0041448D01*
X0268896Y0041393D01*
X0268746Y0041342D01*
X0268595Y0041295D01*
X0268443Y0041252D01*
X0268290Y0041213D01*
X0268135Y0041177D01*
X0267980Y0041146D01*
X0267824Y0041118D01*
X0267668Y0041094D01*
X0267511Y0041074D01*
X0267353Y0041058D01*
X0267196Y0041046D01*
X0267037Y0041038D01*
X0266879Y0041034D01*
X0266721Y0041034D01*
X0266563Y0041038D01*
X0266404Y0041046D01*
X0266247Y0041058D01*
X0266089Y0041074D01*
X0265932Y0041094D01*
X0265776Y0041118D01*
X0265620Y0041146D01*
X0265465Y0041177D01*
X0265310Y0041213D01*
X0265157Y0041252D01*
X0265005Y0041295D01*
X0264854Y0041342D01*
X0264704Y0041393D01*
X0264555Y0041448D01*
X0264408Y0041506D01*
X0264262Y0041568D01*
X0264118Y0041633D01*
X0263976Y0041703D01*
X0263835Y0041775D01*
X0263696Y0041852D01*
X0263560Y0041931D01*
X0263425Y0042015D01*
X0263292Y0042101D01*
X0263162Y0042191D01*
X0263034Y0042284D01*
X0262908Y0042380D01*
X0262785Y0042480D01*
X0262664Y0042582D01*
X0262546Y0042687D01*
X0262431Y0042796D01*
X0262318Y0042907D01*
X0262208Y0043021D01*
X0262101Y0043138D01*
X0261997Y0043257D01*
X0261896Y0043379D01*
X0261799Y0043504D01*
X0261704Y0043631D01*
X0261613Y0043760D01*
X0261524Y0043891D01*
X0261440Y0044025D01*
X0261358Y0044161D01*
X0261280Y0044298D01*
X0261206Y0044438D01*
X0261135Y0044580D01*
X0261067Y0044723D01*
X0261003Y0044868D01*
X0260943Y0045014D01*
X0260887Y0045162D01*
X0260834Y0045311D01*
X0260785Y0045462D01*
X0260740Y0045614D01*
X0260699Y0045767D01*
X0260661Y0045920D01*
X0260628Y0046075D01*
X0260598Y0046231D01*
X0260572Y0046387D01*
X0260551Y0046544D01*
X0260533Y0046701D01*
X0260519Y0046859D01*
X0260509Y0047017D01*
X0260503Y0047175D01*
X0260501Y0047333D01*
X0380501Y0027333D02*
X0380503Y0027491D01*
X0380509Y0027649D01*
X0380519Y0027807D01*
X0380533Y0027965D01*
X0380551Y0028122D01*
X0380572Y0028279D01*
X0380598Y0028435D01*
X0380628Y0028591D01*
X0380661Y0028746D01*
X0380699Y0028899D01*
X0380740Y0029052D01*
X0380785Y0029204D01*
X0380834Y0029355D01*
X0380887Y0029504D01*
X0380943Y0029652D01*
X0381003Y0029798D01*
X0381067Y0029943D01*
X0381135Y0030086D01*
X0381206Y0030228D01*
X0381280Y0030368D01*
X0381358Y0030505D01*
X0381440Y0030641D01*
X0381524Y0030775D01*
X0381613Y0030906D01*
X0381704Y0031035D01*
X0381799Y0031162D01*
X0381896Y0031287D01*
X0381997Y0031409D01*
X0382101Y0031528D01*
X0382208Y0031645D01*
X0382318Y0031759D01*
X0382431Y0031870D01*
X0382546Y0031979D01*
X0382664Y0032084D01*
X0382785Y0032186D01*
X0382908Y0032286D01*
X0383034Y0032382D01*
X0383162Y0032475D01*
X0383292Y0032565D01*
X0383425Y0032651D01*
X0383560Y0032735D01*
X0383696Y0032814D01*
X0383835Y0032891D01*
X0383976Y0032963D01*
X0384118Y0033033D01*
X0384262Y0033098D01*
X0384408Y0033160D01*
X0384555Y0033218D01*
X0384704Y0033273D01*
X0384854Y0033324D01*
X0385005Y0033371D01*
X0385157Y0033414D01*
X0385310Y0033453D01*
X0385465Y0033489D01*
X0385620Y0033520D01*
X0385776Y0033548D01*
X0385932Y0033572D01*
X0386089Y0033592D01*
X0386247Y0033608D01*
X0386404Y0033620D01*
X0386563Y0033628D01*
X0386721Y0033632D01*
X0386879Y0033632D01*
X0387037Y0033628D01*
X0387196Y0033620D01*
X0387353Y0033608D01*
X0387511Y0033592D01*
X0387668Y0033572D01*
X0387824Y0033548D01*
X0387980Y0033520D01*
X0388135Y0033489D01*
X0388290Y0033453D01*
X0388443Y0033414D01*
X0388595Y0033371D01*
X0388746Y0033324D01*
X0388896Y0033273D01*
X0389045Y0033218D01*
X0389192Y0033160D01*
X0389338Y0033098D01*
X0389482Y0033033D01*
X0389624Y0032963D01*
X0389765Y0032891D01*
X0389904Y0032814D01*
X0390040Y0032735D01*
X0390175Y0032651D01*
X0390308Y0032565D01*
X0390438Y0032475D01*
X0390566Y0032382D01*
X0390692Y0032286D01*
X0390815Y0032186D01*
X0390936Y0032084D01*
X0391054Y0031979D01*
X0391169Y0031870D01*
X0391282Y0031759D01*
X0391392Y0031645D01*
X0391499Y0031528D01*
X0391603Y0031409D01*
X0391704Y0031287D01*
X0391801Y0031162D01*
X0391896Y0031035D01*
X0391987Y0030906D01*
X0392076Y0030775D01*
X0392160Y0030641D01*
X0392242Y0030505D01*
X0392320Y0030368D01*
X0392394Y0030228D01*
X0392465Y0030086D01*
X0392533Y0029943D01*
X0392597Y0029798D01*
X0392657Y0029652D01*
X0392713Y0029504D01*
X0392766Y0029355D01*
X0392815Y0029204D01*
X0392860Y0029052D01*
X0392901Y0028899D01*
X0392939Y0028746D01*
X0392972Y0028591D01*
X0393002Y0028435D01*
X0393028Y0028279D01*
X0393049Y0028122D01*
X0393067Y0027965D01*
X0393081Y0027807D01*
X0393091Y0027649D01*
X0393097Y0027491D01*
X0393099Y0027333D01*
X0393097Y0027175D01*
X0393091Y0027017D01*
X0393081Y0026859D01*
X0393067Y0026701D01*
X0393049Y0026544D01*
X0393028Y0026387D01*
X0393002Y0026231D01*
X0392972Y0026075D01*
X0392939Y0025920D01*
X0392901Y0025767D01*
X0392860Y0025614D01*
X0392815Y0025462D01*
X0392766Y0025311D01*
X0392713Y0025162D01*
X0392657Y0025014D01*
X0392597Y0024868D01*
X0392533Y0024723D01*
X0392465Y0024580D01*
X0392394Y0024438D01*
X0392320Y0024298D01*
X0392242Y0024161D01*
X0392160Y0024025D01*
X0392076Y0023891D01*
X0391987Y0023760D01*
X0391896Y0023631D01*
X0391801Y0023504D01*
X0391704Y0023379D01*
X0391603Y0023257D01*
X0391499Y0023138D01*
X0391392Y0023021D01*
X0391282Y0022907D01*
X0391169Y0022796D01*
X0391054Y0022687D01*
X0390936Y0022582D01*
X0390815Y0022480D01*
X0390692Y0022380D01*
X0390566Y0022284D01*
X0390438Y0022191D01*
X0390308Y0022101D01*
X0390175Y0022015D01*
X0390040Y0021931D01*
X0389904Y0021852D01*
X0389765Y0021775D01*
X0389624Y0021703D01*
X0389482Y0021633D01*
X0389338Y0021568D01*
X0389192Y0021506D01*
X0389045Y0021448D01*
X0388896Y0021393D01*
X0388746Y0021342D01*
X0388595Y0021295D01*
X0388443Y0021252D01*
X0388290Y0021213D01*
X0388135Y0021177D01*
X0387980Y0021146D01*
X0387824Y0021118D01*
X0387668Y0021094D01*
X0387511Y0021074D01*
X0387353Y0021058D01*
X0387196Y0021046D01*
X0387037Y0021038D01*
X0386879Y0021034D01*
X0386721Y0021034D01*
X0386563Y0021038D01*
X0386404Y0021046D01*
X0386247Y0021058D01*
X0386089Y0021074D01*
X0385932Y0021094D01*
X0385776Y0021118D01*
X0385620Y0021146D01*
X0385465Y0021177D01*
X0385310Y0021213D01*
X0385157Y0021252D01*
X0385005Y0021295D01*
X0384854Y0021342D01*
X0384704Y0021393D01*
X0384555Y0021448D01*
X0384408Y0021506D01*
X0384262Y0021568D01*
X0384118Y0021633D01*
X0383976Y0021703D01*
X0383835Y0021775D01*
X0383696Y0021852D01*
X0383560Y0021931D01*
X0383425Y0022015D01*
X0383292Y0022101D01*
X0383162Y0022191D01*
X0383034Y0022284D01*
X0382908Y0022380D01*
X0382785Y0022480D01*
X0382664Y0022582D01*
X0382546Y0022687D01*
X0382431Y0022796D01*
X0382318Y0022907D01*
X0382208Y0023021D01*
X0382101Y0023138D01*
X0381997Y0023257D01*
X0381896Y0023379D01*
X0381799Y0023504D01*
X0381704Y0023631D01*
X0381613Y0023760D01*
X0381524Y0023891D01*
X0381440Y0024025D01*
X0381358Y0024161D01*
X0381280Y0024298D01*
X0381206Y0024438D01*
X0381135Y0024580D01*
X0381067Y0024723D01*
X0381003Y0024868D01*
X0380943Y0025014D01*
X0380887Y0025162D01*
X0380834Y0025311D01*
X0380785Y0025462D01*
X0380740Y0025614D01*
X0380699Y0025767D01*
X0380661Y0025920D01*
X0380628Y0026075D01*
X0380598Y0026231D01*
X0380572Y0026387D01*
X0380551Y0026544D01*
X0380533Y0026701D01*
X0380519Y0026859D01*
X0380509Y0027017D01*
X0380503Y0027175D01*
X0380501Y0027333D01*
X0055501Y0027333D02*
X0055503Y0027491D01*
X0055509Y0027649D01*
X0055519Y0027807D01*
X0055533Y0027965D01*
X0055551Y0028122D01*
X0055572Y0028279D01*
X0055598Y0028435D01*
X0055628Y0028591D01*
X0055661Y0028746D01*
X0055699Y0028899D01*
X0055740Y0029052D01*
X0055785Y0029204D01*
X0055834Y0029355D01*
X0055887Y0029504D01*
X0055943Y0029652D01*
X0056003Y0029798D01*
X0056067Y0029943D01*
X0056135Y0030086D01*
X0056206Y0030228D01*
X0056280Y0030368D01*
X0056358Y0030505D01*
X0056440Y0030641D01*
X0056524Y0030775D01*
X0056613Y0030906D01*
X0056704Y0031035D01*
X0056799Y0031162D01*
X0056896Y0031287D01*
X0056997Y0031409D01*
X0057101Y0031528D01*
X0057208Y0031645D01*
X0057318Y0031759D01*
X0057431Y0031870D01*
X0057546Y0031979D01*
X0057664Y0032084D01*
X0057785Y0032186D01*
X0057908Y0032286D01*
X0058034Y0032382D01*
X0058162Y0032475D01*
X0058292Y0032565D01*
X0058425Y0032651D01*
X0058560Y0032735D01*
X0058696Y0032814D01*
X0058835Y0032891D01*
X0058976Y0032963D01*
X0059118Y0033033D01*
X0059262Y0033098D01*
X0059408Y0033160D01*
X0059555Y0033218D01*
X0059704Y0033273D01*
X0059854Y0033324D01*
X0060005Y0033371D01*
X0060157Y0033414D01*
X0060310Y0033453D01*
X0060465Y0033489D01*
X0060620Y0033520D01*
X0060776Y0033548D01*
X0060932Y0033572D01*
X0061089Y0033592D01*
X0061247Y0033608D01*
X0061404Y0033620D01*
X0061563Y0033628D01*
X0061721Y0033632D01*
X0061879Y0033632D01*
X0062037Y0033628D01*
X0062196Y0033620D01*
X0062353Y0033608D01*
X0062511Y0033592D01*
X0062668Y0033572D01*
X0062824Y0033548D01*
X0062980Y0033520D01*
X0063135Y0033489D01*
X0063290Y0033453D01*
X0063443Y0033414D01*
X0063595Y0033371D01*
X0063746Y0033324D01*
X0063896Y0033273D01*
X0064045Y0033218D01*
X0064192Y0033160D01*
X0064338Y0033098D01*
X0064482Y0033033D01*
X0064624Y0032963D01*
X0064765Y0032891D01*
X0064904Y0032814D01*
X0065040Y0032735D01*
X0065175Y0032651D01*
X0065308Y0032565D01*
X0065438Y0032475D01*
X0065566Y0032382D01*
X0065692Y0032286D01*
X0065815Y0032186D01*
X0065936Y0032084D01*
X0066054Y0031979D01*
X0066169Y0031870D01*
X0066282Y0031759D01*
X0066392Y0031645D01*
X0066499Y0031528D01*
X0066603Y0031409D01*
X0066704Y0031287D01*
X0066801Y0031162D01*
X0066896Y0031035D01*
X0066987Y0030906D01*
X0067076Y0030775D01*
X0067160Y0030641D01*
X0067242Y0030505D01*
X0067320Y0030368D01*
X0067394Y0030228D01*
X0067465Y0030086D01*
X0067533Y0029943D01*
X0067597Y0029798D01*
X0067657Y0029652D01*
X0067713Y0029504D01*
X0067766Y0029355D01*
X0067815Y0029204D01*
X0067860Y0029052D01*
X0067901Y0028899D01*
X0067939Y0028746D01*
X0067972Y0028591D01*
X0068002Y0028435D01*
X0068028Y0028279D01*
X0068049Y0028122D01*
X0068067Y0027965D01*
X0068081Y0027807D01*
X0068091Y0027649D01*
X0068097Y0027491D01*
X0068099Y0027333D01*
X0068097Y0027175D01*
X0068091Y0027017D01*
X0068081Y0026859D01*
X0068067Y0026701D01*
X0068049Y0026544D01*
X0068028Y0026387D01*
X0068002Y0026231D01*
X0067972Y0026075D01*
X0067939Y0025920D01*
X0067901Y0025767D01*
X0067860Y0025614D01*
X0067815Y0025462D01*
X0067766Y0025311D01*
X0067713Y0025162D01*
X0067657Y0025014D01*
X0067597Y0024868D01*
X0067533Y0024723D01*
X0067465Y0024580D01*
X0067394Y0024438D01*
X0067320Y0024298D01*
X0067242Y0024161D01*
X0067160Y0024025D01*
X0067076Y0023891D01*
X0066987Y0023760D01*
X0066896Y0023631D01*
X0066801Y0023504D01*
X0066704Y0023379D01*
X0066603Y0023257D01*
X0066499Y0023138D01*
X0066392Y0023021D01*
X0066282Y0022907D01*
X0066169Y0022796D01*
X0066054Y0022687D01*
X0065936Y0022582D01*
X0065815Y0022480D01*
X0065692Y0022380D01*
X0065566Y0022284D01*
X0065438Y0022191D01*
X0065308Y0022101D01*
X0065175Y0022015D01*
X0065040Y0021931D01*
X0064904Y0021852D01*
X0064765Y0021775D01*
X0064624Y0021703D01*
X0064482Y0021633D01*
X0064338Y0021568D01*
X0064192Y0021506D01*
X0064045Y0021448D01*
X0063896Y0021393D01*
X0063746Y0021342D01*
X0063595Y0021295D01*
X0063443Y0021252D01*
X0063290Y0021213D01*
X0063135Y0021177D01*
X0062980Y0021146D01*
X0062824Y0021118D01*
X0062668Y0021094D01*
X0062511Y0021074D01*
X0062353Y0021058D01*
X0062196Y0021046D01*
X0062037Y0021038D01*
X0061879Y0021034D01*
X0061721Y0021034D01*
X0061563Y0021038D01*
X0061404Y0021046D01*
X0061247Y0021058D01*
X0061089Y0021074D01*
X0060932Y0021094D01*
X0060776Y0021118D01*
X0060620Y0021146D01*
X0060465Y0021177D01*
X0060310Y0021213D01*
X0060157Y0021252D01*
X0060005Y0021295D01*
X0059854Y0021342D01*
X0059704Y0021393D01*
X0059555Y0021448D01*
X0059408Y0021506D01*
X0059262Y0021568D01*
X0059118Y0021633D01*
X0058976Y0021703D01*
X0058835Y0021775D01*
X0058696Y0021852D01*
X0058560Y0021931D01*
X0058425Y0022015D01*
X0058292Y0022101D01*
X0058162Y0022191D01*
X0058034Y0022284D01*
X0057908Y0022380D01*
X0057785Y0022480D01*
X0057664Y0022582D01*
X0057546Y0022687D01*
X0057431Y0022796D01*
X0057318Y0022907D01*
X0057208Y0023021D01*
X0057101Y0023138D01*
X0056997Y0023257D01*
X0056896Y0023379D01*
X0056799Y0023504D01*
X0056704Y0023631D01*
X0056613Y0023760D01*
X0056524Y0023891D01*
X0056440Y0024025D01*
X0056358Y0024161D01*
X0056280Y0024298D01*
X0056206Y0024438D01*
X0056135Y0024580D01*
X0056067Y0024723D01*
X0056003Y0024868D01*
X0055943Y0025014D01*
X0055887Y0025162D01*
X0055834Y0025311D01*
X0055785Y0025462D01*
X0055740Y0025614D01*
X0055699Y0025767D01*
X0055661Y0025920D01*
X0055628Y0026075D01*
X0055598Y0026231D01*
X0055572Y0026387D01*
X0055551Y0026544D01*
X0055533Y0026701D01*
X0055519Y0026859D01*
X0055509Y0027017D01*
X0055503Y0027175D01*
X0055501Y0027333D01*
X0060501Y0217333D02*
X0060503Y0217491D01*
X0060509Y0217649D01*
X0060519Y0217807D01*
X0060533Y0217965D01*
X0060551Y0218122D01*
X0060572Y0218279D01*
X0060598Y0218435D01*
X0060628Y0218591D01*
X0060661Y0218746D01*
X0060699Y0218899D01*
X0060740Y0219052D01*
X0060785Y0219204D01*
X0060834Y0219355D01*
X0060887Y0219504D01*
X0060943Y0219652D01*
X0061003Y0219798D01*
X0061067Y0219943D01*
X0061135Y0220086D01*
X0061206Y0220228D01*
X0061280Y0220368D01*
X0061358Y0220505D01*
X0061440Y0220641D01*
X0061524Y0220775D01*
X0061613Y0220906D01*
X0061704Y0221035D01*
X0061799Y0221162D01*
X0061896Y0221287D01*
X0061997Y0221409D01*
X0062101Y0221528D01*
X0062208Y0221645D01*
X0062318Y0221759D01*
X0062431Y0221870D01*
X0062546Y0221979D01*
X0062664Y0222084D01*
X0062785Y0222186D01*
X0062908Y0222286D01*
X0063034Y0222382D01*
X0063162Y0222475D01*
X0063292Y0222565D01*
X0063425Y0222651D01*
X0063560Y0222735D01*
X0063696Y0222814D01*
X0063835Y0222891D01*
X0063976Y0222963D01*
X0064118Y0223033D01*
X0064262Y0223098D01*
X0064408Y0223160D01*
X0064555Y0223218D01*
X0064704Y0223273D01*
X0064854Y0223324D01*
X0065005Y0223371D01*
X0065157Y0223414D01*
X0065310Y0223453D01*
X0065465Y0223489D01*
X0065620Y0223520D01*
X0065776Y0223548D01*
X0065932Y0223572D01*
X0066089Y0223592D01*
X0066247Y0223608D01*
X0066404Y0223620D01*
X0066563Y0223628D01*
X0066721Y0223632D01*
X0066879Y0223632D01*
X0067037Y0223628D01*
X0067196Y0223620D01*
X0067353Y0223608D01*
X0067511Y0223592D01*
X0067668Y0223572D01*
X0067824Y0223548D01*
X0067980Y0223520D01*
X0068135Y0223489D01*
X0068290Y0223453D01*
X0068443Y0223414D01*
X0068595Y0223371D01*
X0068746Y0223324D01*
X0068896Y0223273D01*
X0069045Y0223218D01*
X0069192Y0223160D01*
X0069338Y0223098D01*
X0069482Y0223033D01*
X0069624Y0222963D01*
X0069765Y0222891D01*
X0069904Y0222814D01*
X0070040Y0222735D01*
X0070175Y0222651D01*
X0070308Y0222565D01*
X0070438Y0222475D01*
X0070566Y0222382D01*
X0070692Y0222286D01*
X0070815Y0222186D01*
X0070936Y0222084D01*
X0071054Y0221979D01*
X0071169Y0221870D01*
X0071282Y0221759D01*
X0071392Y0221645D01*
X0071499Y0221528D01*
X0071603Y0221409D01*
X0071704Y0221287D01*
X0071801Y0221162D01*
X0071896Y0221035D01*
X0071987Y0220906D01*
X0072076Y0220775D01*
X0072160Y0220641D01*
X0072242Y0220505D01*
X0072320Y0220368D01*
X0072394Y0220228D01*
X0072465Y0220086D01*
X0072533Y0219943D01*
X0072597Y0219798D01*
X0072657Y0219652D01*
X0072713Y0219504D01*
X0072766Y0219355D01*
X0072815Y0219204D01*
X0072860Y0219052D01*
X0072901Y0218899D01*
X0072939Y0218746D01*
X0072972Y0218591D01*
X0073002Y0218435D01*
X0073028Y0218279D01*
X0073049Y0218122D01*
X0073067Y0217965D01*
X0073081Y0217807D01*
X0073091Y0217649D01*
X0073097Y0217491D01*
X0073099Y0217333D01*
X0073097Y0217175D01*
X0073091Y0217017D01*
X0073081Y0216859D01*
X0073067Y0216701D01*
X0073049Y0216544D01*
X0073028Y0216387D01*
X0073002Y0216231D01*
X0072972Y0216075D01*
X0072939Y0215920D01*
X0072901Y0215767D01*
X0072860Y0215614D01*
X0072815Y0215462D01*
X0072766Y0215311D01*
X0072713Y0215162D01*
X0072657Y0215014D01*
X0072597Y0214868D01*
X0072533Y0214723D01*
X0072465Y0214580D01*
X0072394Y0214438D01*
X0072320Y0214298D01*
X0072242Y0214161D01*
X0072160Y0214025D01*
X0072076Y0213891D01*
X0071987Y0213760D01*
X0071896Y0213631D01*
X0071801Y0213504D01*
X0071704Y0213379D01*
X0071603Y0213257D01*
X0071499Y0213138D01*
X0071392Y0213021D01*
X0071282Y0212907D01*
X0071169Y0212796D01*
X0071054Y0212687D01*
X0070936Y0212582D01*
X0070815Y0212480D01*
X0070692Y0212380D01*
X0070566Y0212284D01*
X0070438Y0212191D01*
X0070308Y0212101D01*
X0070175Y0212015D01*
X0070040Y0211931D01*
X0069904Y0211852D01*
X0069765Y0211775D01*
X0069624Y0211703D01*
X0069482Y0211633D01*
X0069338Y0211568D01*
X0069192Y0211506D01*
X0069045Y0211448D01*
X0068896Y0211393D01*
X0068746Y0211342D01*
X0068595Y0211295D01*
X0068443Y0211252D01*
X0068290Y0211213D01*
X0068135Y0211177D01*
X0067980Y0211146D01*
X0067824Y0211118D01*
X0067668Y0211094D01*
X0067511Y0211074D01*
X0067353Y0211058D01*
X0067196Y0211046D01*
X0067037Y0211038D01*
X0066879Y0211034D01*
X0066721Y0211034D01*
X0066563Y0211038D01*
X0066404Y0211046D01*
X0066247Y0211058D01*
X0066089Y0211074D01*
X0065932Y0211094D01*
X0065776Y0211118D01*
X0065620Y0211146D01*
X0065465Y0211177D01*
X0065310Y0211213D01*
X0065157Y0211252D01*
X0065005Y0211295D01*
X0064854Y0211342D01*
X0064704Y0211393D01*
X0064555Y0211448D01*
X0064408Y0211506D01*
X0064262Y0211568D01*
X0064118Y0211633D01*
X0063976Y0211703D01*
X0063835Y0211775D01*
X0063696Y0211852D01*
X0063560Y0211931D01*
X0063425Y0212015D01*
X0063292Y0212101D01*
X0063162Y0212191D01*
X0063034Y0212284D01*
X0062908Y0212380D01*
X0062785Y0212480D01*
X0062664Y0212582D01*
X0062546Y0212687D01*
X0062431Y0212796D01*
X0062318Y0212907D01*
X0062208Y0213021D01*
X0062101Y0213138D01*
X0061997Y0213257D01*
X0061896Y0213379D01*
X0061799Y0213504D01*
X0061704Y0213631D01*
X0061613Y0213760D01*
X0061524Y0213891D01*
X0061440Y0214025D01*
X0061358Y0214161D01*
X0061280Y0214298D01*
X0061206Y0214438D01*
X0061135Y0214580D01*
X0061067Y0214723D01*
X0061003Y0214868D01*
X0060943Y0215014D01*
X0060887Y0215162D01*
X0060834Y0215311D01*
X0060785Y0215462D01*
X0060740Y0215614D01*
X0060699Y0215767D01*
X0060661Y0215920D01*
X0060628Y0216075D01*
X0060598Y0216231D01*
X0060572Y0216387D01*
X0060551Y0216544D01*
X0060533Y0216701D01*
X0060519Y0216859D01*
X0060509Y0217017D01*
X0060503Y0217175D01*
X0060501Y0217333D01*
D18*
X0144552Y0161937D02*
X0146653Y0161937D01*
X0147354Y0161236D01*
X0147354Y0159835D01*
X0146653Y0159135D01*
X0144552Y0159135D01*
X0144552Y0157733D02*
X0144552Y0161937D01*
X0149156Y0161937D02*
X0150557Y0161937D01*
X0149856Y0161937D02*
X0149856Y0157733D01*
X0149156Y0157733D02*
X0150557Y0157733D01*
X0152225Y0157733D02*
X0152225Y0161937D01*
X0155027Y0157733D01*
X0155027Y0161937D01*
X0156829Y0161937D02*
X0156829Y0157733D01*
X0159631Y0157733D01*
X0161433Y0157733D02*
X0162834Y0159135D01*
X0164235Y0157733D01*
X0164235Y0161937D01*
X0166037Y0161236D02*
X0166037Y0158434D01*
X0166737Y0157733D01*
X0168138Y0157733D01*
X0168839Y0158434D01*
X0168839Y0161236D01*
X0168138Y0161937D01*
X0166737Y0161937D01*
X0166037Y0161236D01*
X0170640Y0161236D02*
X0170640Y0158434D01*
X0171341Y0157733D01*
X0172742Y0157733D01*
X0173443Y0158434D01*
X0173443Y0161236D01*
X0172742Y0161937D01*
X0171341Y0161937D01*
X0170640Y0161236D01*
X0175244Y0161937D02*
X0175244Y0157733D01*
X0177346Y0157733D01*
X0178047Y0158434D01*
X0178047Y0161236D01*
X0177346Y0161937D01*
X0175244Y0161937D01*
X0171908Y0154437D02*
X0171908Y0153736D01*
X0170507Y0152335D01*
X0170507Y0150233D01*
X0170507Y0152335D02*
X0169106Y0153736D01*
X0169106Y0154437D01*
X0167304Y0153736D02*
X0167304Y0153036D01*
X0166604Y0152335D01*
X0164502Y0152335D01*
X0162700Y0152335D02*
X0162000Y0151635D01*
X0159898Y0151635D01*
X0161299Y0151635D02*
X0162700Y0150233D01*
X0164502Y0150233D02*
X0166604Y0150233D01*
X0167304Y0150934D01*
X0167304Y0151635D01*
X0166604Y0152335D01*
X0167304Y0153736D02*
X0166604Y0154437D01*
X0164502Y0154437D01*
X0164502Y0150233D01*
X0162700Y0152335D02*
X0162700Y0153736D01*
X0162000Y0154437D01*
X0159898Y0154437D01*
X0159898Y0150233D01*
X0158096Y0150233D02*
X0155294Y0150233D01*
X0155294Y0154437D01*
X0158096Y0154437D01*
X0156695Y0152335D02*
X0155294Y0152335D01*
X0153493Y0150934D02*
X0153493Y0153736D01*
X0152792Y0154437D01*
X0150690Y0154437D01*
X0150690Y0150233D01*
X0152792Y0150233D01*
X0153493Y0150934D01*
X0152992Y0146937D02*
X0155794Y0146937D01*
X0154393Y0146937D02*
X0154393Y0142733D01*
X0151191Y0142733D02*
X0151191Y0146937D01*
X0148388Y0146937D02*
X0151191Y0142733D01*
X0148388Y0142733D02*
X0148388Y0146937D01*
X0146587Y0146236D02*
X0145886Y0146937D01*
X0144485Y0146937D01*
X0143784Y0146236D01*
X0143784Y0143434D01*
X0144485Y0142733D01*
X0145886Y0142733D01*
X0146587Y0143434D01*
X0146587Y0146236D01*
X0141983Y0146236D02*
X0141282Y0146937D01*
X0139881Y0146937D01*
X0139180Y0146236D01*
X0139180Y0143434D01*
X0139881Y0142733D01*
X0141282Y0142733D01*
X0141983Y0143434D01*
X0146720Y0139437D02*
X0145319Y0138036D01*
X0145319Y0136635D01*
X0146720Y0135233D01*
X0148388Y0135934D02*
X0149089Y0135233D01*
X0151191Y0135233D01*
X0152992Y0135233D02*
X0154393Y0136635D01*
X0154393Y0138036D01*
X0152992Y0139437D01*
X0151191Y0138036D02*
X0149089Y0138036D01*
X0148388Y0137335D01*
X0148388Y0135934D01*
X0149656Y0131937D02*
X0149656Y0127733D01*
X0151457Y0127733D02*
X0152859Y0127733D01*
X0152158Y0127733D02*
X0152158Y0131937D01*
X0151457Y0131937D02*
X0152859Y0131937D01*
X0154527Y0131236D02*
X0154527Y0128434D01*
X0155227Y0127733D01*
X0156629Y0127733D01*
X0157329Y0128434D01*
X0159131Y0127733D02*
X0159131Y0131937D01*
X0157329Y0131236D02*
X0156629Y0131937D01*
X0155227Y0131937D01*
X0154527Y0131236D01*
X0159131Y0129835D02*
X0161933Y0129835D01*
X0163735Y0129835D02*
X0166537Y0129835D01*
X0166537Y0130536D02*
X0166537Y0127733D01*
X0168339Y0127733D02*
X0171141Y0127733D01*
X0172942Y0127733D02*
X0175745Y0127733D01*
X0172942Y0127733D02*
X0172942Y0131937D01*
X0171141Y0131937D02*
X0168339Y0131937D01*
X0168339Y0127733D01*
X0168339Y0129835D02*
X0169740Y0129835D01*
X0166537Y0130536D02*
X0165136Y0131937D01*
X0163735Y0130536D01*
X0163735Y0127733D01*
X0161933Y0127733D02*
X0161933Y0131937D01*
X0160665Y0135233D02*
X0163468Y0138036D01*
X0163468Y0138736D01*
X0162767Y0139437D01*
X0161366Y0139437D01*
X0160665Y0138736D01*
X0160398Y0142733D02*
X0158997Y0144135D01*
X0159698Y0144135D02*
X0157596Y0144135D01*
X0157596Y0142733D02*
X0157596Y0146937D01*
X0159698Y0146937D01*
X0160398Y0146236D01*
X0160398Y0144835D01*
X0159698Y0144135D01*
X0162200Y0143434D02*
X0162901Y0142733D01*
X0164302Y0142733D01*
X0165002Y0143434D01*
X0165002Y0146236D01*
X0164302Y0146937D01*
X0162901Y0146937D01*
X0162200Y0146236D01*
X0162200Y0143434D01*
X0166804Y0142733D02*
X0169606Y0142733D01*
X0171408Y0142733D02*
X0174210Y0142733D01*
X0176012Y0142733D02*
X0178814Y0142733D01*
X0180616Y0142733D02*
X0180616Y0146937D01*
X0182717Y0146937D01*
X0183418Y0146236D01*
X0183418Y0144835D01*
X0182717Y0144135D01*
X0180616Y0144135D01*
X0182017Y0144135D02*
X0183418Y0142733D01*
X0178814Y0146937D02*
X0176012Y0146937D01*
X0176012Y0142733D01*
X0176012Y0144835D02*
X0177413Y0144835D01*
X0171408Y0146937D02*
X0171408Y0142733D01*
X0171274Y0139437D02*
X0171274Y0135233D01*
X0169873Y0135233D02*
X0172676Y0135233D01*
X0174477Y0135934D02*
X0174477Y0136635D01*
X0175178Y0137335D01*
X0176579Y0137335D01*
X0177279Y0136635D01*
X0177279Y0135934D01*
X0176579Y0135233D01*
X0175178Y0135233D01*
X0174477Y0135934D01*
X0175178Y0137335D02*
X0174477Y0138036D01*
X0174477Y0138736D01*
X0175178Y0139437D01*
X0176579Y0139437D01*
X0177279Y0138736D01*
X0177279Y0138036D01*
X0176579Y0137335D01*
X0171274Y0139437D02*
X0169873Y0138036D01*
X0168072Y0138736D02*
X0165269Y0135934D01*
X0165970Y0135233D01*
X0167371Y0135233D01*
X0168072Y0135934D01*
X0168072Y0138736D01*
X0167371Y0139437D01*
X0165970Y0139437D01*
X0165269Y0138736D01*
X0165269Y0135934D01*
X0163468Y0135233D02*
X0160665Y0135233D01*
X0149656Y0131937D02*
X0148255Y0130536D01*
X0146854Y0131937D01*
X0146854Y0127733D01*
X0148388Y0124437D02*
X0150490Y0124437D01*
X0151191Y0123736D01*
X0151191Y0122335D01*
X0150490Y0121635D01*
X0148388Y0121635D01*
X0149789Y0121635D02*
X0151191Y0120233D01*
X0152992Y0120934D02*
X0153693Y0120233D01*
X0155094Y0120233D01*
X0155795Y0120934D01*
X0155795Y0123736D01*
X0155094Y0124437D01*
X0153693Y0124437D01*
X0152992Y0123736D01*
X0152992Y0120934D01*
X0148388Y0120233D02*
X0148388Y0124437D01*
X0157596Y0124437D02*
X0157596Y0120233D01*
X0160398Y0120233D02*
X0160398Y0124437D01*
X0158997Y0123036D01*
X0157596Y0124437D01*
X0162200Y0124437D02*
X0163601Y0123036D01*
X0165002Y0124437D01*
X0165002Y0120233D01*
X0166804Y0120233D02*
X0169606Y0120233D01*
X0171408Y0120233D02*
X0174210Y0120233D01*
X0171408Y0120233D02*
X0171408Y0124437D01*
X0169606Y0124437D02*
X0166804Y0124437D01*
X0166804Y0120233D01*
X0166804Y0122335D02*
X0168205Y0122335D01*
X0162200Y0120233D02*
X0162200Y0124437D01*
X0166804Y0142733D02*
X0166804Y0146937D01*
X0161433Y0157733D02*
X0161433Y0161937D01*
X0159631Y0161937D02*
X0156829Y0161937D01*
X0156829Y0159835D02*
X0158230Y0159835D01*
X0274206Y0122951D02*
X0274206Y0061715D01*
X0289206Y0061715D02*
X0319938Y0061715D01*
X0336706Y0061715D02*
X0347438Y0061715D01*
X0347438Y0122951D01*
X0336706Y0122951D01*
X0319938Y0122951D02*
X0289206Y0122951D01*
D19*
X0290292Y0132533D02*
X0290292Y0137137D01*
X0292594Y0137137D01*
X0293361Y0136370D01*
X0293361Y0134835D01*
X0292594Y0134068D01*
X0290292Y0134068D01*
X0291827Y0134068D02*
X0293361Y0132533D01*
X0294896Y0132533D02*
X0297965Y0135603D01*
X0297965Y0136370D01*
X0297198Y0137137D01*
X0295663Y0137137D01*
X0294896Y0136370D01*
X0294896Y0132533D02*
X0297965Y0132533D01*
X0269100Y0120924D02*
X0269100Y0117855D01*
X0264496Y0117855D01*
X0264496Y0120924D01*
X0266798Y0119389D02*
X0266798Y0117855D01*
X0264496Y0116320D02*
X0264496Y0113251D01*
X0264496Y0114786D02*
X0269100Y0114786D01*
X0269100Y0111716D02*
X0266031Y0111716D01*
X0264496Y0110182D01*
X0266031Y0108647D01*
X0269100Y0108647D01*
X0268333Y0107112D02*
X0266798Y0107112D01*
X0266798Y0105578D01*
X0265263Y0107112D02*
X0264496Y0106345D01*
X0264496Y0104810D01*
X0265263Y0104043D01*
X0268333Y0104043D01*
X0269100Y0104810D01*
X0269100Y0106345D01*
X0268333Y0107112D01*
X0266798Y0108647D02*
X0266798Y0111716D01*
X0258333Y0102508D02*
X0256798Y0102508D01*
X0256031Y0101741D01*
X0256031Y0100974D01*
X0256798Y0099439D01*
X0254496Y0099439D01*
X0254496Y0102508D01*
X0258333Y0102508D02*
X0259100Y0101741D01*
X0259100Y0100207D01*
X0258333Y0099439D01*
X0258333Y0097905D02*
X0257565Y0097905D01*
X0256798Y0097137D01*
X0256798Y0095603D01*
X0256031Y0094835D01*
X0255263Y0094835D01*
X0254496Y0095603D01*
X0254496Y0097137D01*
X0255263Y0097905D01*
X0256031Y0097905D01*
X0256798Y0097137D01*
X0256798Y0095603D02*
X0257565Y0094835D01*
X0258333Y0094835D01*
X0259100Y0095603D01*
X0259100Y0097137D01*
X0258333Y0097905D01*
X0264496Y0097905D02*
X0264496Y0094835D01*
X0264496Y0096370D02*
X0269100Y0096370D01*
X0269100Y0093301D02*
X0267565Y0091766D01*
X0267565Y0092533D02*
X0267565Y0090231D01*
X0269100Y0090231D02*
X0264496Y0090231D01*
X0264496Y0092533D01*
X0265263Y0093301D01*
X0266798Y0093301D01*
X0267565Y0092533D01*
X0266798Y0088697D02*
X0266798Y0085627D01*
X0266031Y0085627D02*
X0269100Y0085627D01*
X0269100Y0082558D02*
X0264496Y0082558D01*
X0264496Y0081023D02*
X0264496Y0084093D01*
X0266031Y0085627D02*
X0264496Y0087162D01*
X0266031Y0088697D01*
X0269100Y0088697D01*
X0259100Y0087929D02*
X0259100Y0086395D01*
X0258333Y0085627D01*
X0259100Y0084093D02*
X0257565Y0082558D01*
X0257565Y0083325D02*
X0257565Y0081023D01*
X0259100Y0081023D02*
X0254496Y0081023D01*
X0254496Y0083325D01*
X0255263Y0084093D01*
X0256798Y0084093D01*
X0257565Y0083325D01*
X0256031Y0085627D02*
X0256798Y0086395D01*
X0256798Y0087929D01*
X0257565Y0088697D01*
X0258333Y0088697D01*
X0259100Y0087929D01*
X0256798Y0090231D02*
X0256798Y0093301D01*
X0254496Y0092533D02*
X0256798Y0090231D01*
X0255263Y0088697D02*
X0254496Y0087929D01*
X0254496Y0086395D01*
X0255263Y0085627D01*
X0256031Y0085627D01*
X0254496Y0092533D02*
X0259100Y0092533D01*
X0265263Y0079489D02*
X0264496Y0078721D01*
X0264496Y0077187D01*
X0265263Y0076420D01*
X0266031Y0076420D01*
X0266798Y0077187D01*
X0266798Y0078721D01*
X0267565Y0079489D01*
X0268333Y0079489D01*
X0269100Y0078721D01*
X0269100Y0077187D01*
X0268333Y0076420D01*
X0268333Y0070281D02*
X0265263Y0070281D01*
X0264496Y0069514D01*
X0264496Y0067979D01*
X0265263Y0067212D01*
X0268333Y0067212D01*
X0269100Y0067979D01*
X0269100Y0069514D01*
X0268333Y0070281D01*
X0264496Y0065677D02*
X0264496Y0062608D01*
X0264496Y0064142D02*
X0269100Y0064142D01*
X0290292Y0152533D02*
X0290292Y0157137D01*
X0292594Y0157137D01*
X0293361Y0156370D01*
X0293361Y0154835D01*
X0292594Y0154068D01*
X0290292Y0154068D01*
X0291827Y0154068D02*
X0293361Y0152533D01*
X0294896Y0152533D02*
X0297965Y0152533D01*
X0296431Y0152533D02*
X0296431Y0157137D01*
X0294896Y0155603D01*
X0232965Y0173301D02*
X0232198Y0172533D01*
X0230663Y0172533D01*
X0229896Y0173301D01*
X0228361Y0172533D02*
X0226827Y0174068D01*
X0227594Y0174068D02*
X0225292Y0174068D01*
X0225292Y0172533D02*
X0225292Y0177137D01*
X0227594Y0177137D01*
X0228361Y0176370D01*
X0228361Y0174835D01*
X0227594Y0174068D01*
X0229896Y0176370D02*
X0230663Y0177137D01*
X0232198Y0177137D01*
X0232965Y0176370D01*
X0232965Y0175603D01*
X0232198Y0174835D01*
X0232965Y0174068D01*
X0232965Y0173301D01*
X0232198Y0174835D02*
X0231431Y0174835D01*
X0229208Y0168637D02*
X0229208Y0164033D01*
X0230742Y0164033D02*
X0227673Y0164033D01*
X0226139Y0164801D02*
X0225371Y0164033D01*
X0223837Y0164033D01*
X0223069Y0164801D01*
X0223069Y0167870D01*
X0223837Y0168637D01*
X0225371Y0168637D01*
X0226139Y0167870D01*
X0227673Y0167103D02*
X0229208Y0168637D01*
X0221535Y0168637D02*
X0220000Y0168637D01*
X0220767Y0168637D02*
X0220767Y0164033D01*
X0220000Y0164033D02*
X0221535Y0164033D01*
X0206133Y0168301D02*
X0205366Y0167533D01*
X0203831Y0167533D01*
X0203064Y0168301D01*
X0203831Y0169835D02*
X0205366Y0169835D01*
X0206133Y0169068D01*
X0206133Y0168301D01*
X0203831Y0169835D02*
X0203064Y0170603D01*
X0203064Y0171370D01*
X0203831Y0172137D01*
X0205366Y0172137D01*
X0206133Y0171370D01*
X0201529Y0172137D02*
X0198460Y0172137D01*
X0198460Y0167533D01*
X0201529Y0167533D01*
X0199995Y0169835D02*
X0198460Y0169835D01*
X0196925Y0167533D02*
X0193856Y0167533D01*
X0193856Y0172137D01*
X0192321Y0172137D02*
X0192321Y0168301D01*
X0191554Y0167533D01*
X0190020Y0167533D01*
X0189252Y0168301D01*
X0189252Y0172137D01*
X0187718Y0171370D02*
X0186950Y0172137D01*
X0184648Y0172137D01*
X0184648Y0167533D01*
X0186950Y0167533D01*
X0187718Y0168301D01*
X0187718Y0171370D01*
X0183114Y0171370D02*
X0182346Y0172137D01*
X0180812Y0172137D01*
X0180044Y0171370D01*
X0180044Y0168301D01*
X0180812Y0167533D01*
X0182346Y0167533D01*
X0183114Y0168301D01*
X0183114Y0171370D01*
X0178510Y0172137D02*
X0178510Y0167533D01*
X0175440Y0167533D02*
X0175440Y0172137D01*
X0176975Y0170603D01*
X0178510Y0172137D01*
X0169302Y0172137D02*
X0169302Y0171370D01*
X0167767Y0169835D01*
X0167767Y0167533D01*
X0167767Y0169835D02*
X0166233Y0171370D01*
X0166233Y0172137D01*
X0164698Y0170603D02*
X0164698Y0167533D01*
X0164698Y0169835D02*
X0161629Y0169835D01*
X0161629Y0170603D02*
X0163163Y0172137D01*
X0164698Y0170603D01*
X0161629Y0170603D02*
X0161629Y0167533D01*
X0160094Y0167533D02*
X0157025Y0167533D01*
X0157025Y0172137D01*
X0155490Y0171370D02*
X0155490Y0169835D01*
X0154723Y0169068D01*
X0152421Y0169068D01*
X0152421Y0167533D02*
X0152421Y0172137D01*
X0154723Y0172137D01*
X0155490Y0171370D01*
X0150886Y0171370D02*
X0150119Y0172137D01*
X0148584Y0172137D01*
X0147817Y0171370D01*
X0147817Y0170603D01*
X0148584Y0169835D01*
X0150119Y0169835D01*
X0150886Y0169068D01*
X0150886Y0168301D01*
X0150119Y0167533D01*
X0148584Y0167533D01*
X0147817Y0168301D01*
X0146282Y0167533D02*
X0144748Y0167533D01*
X0145515Y0167533D02*
X0145515Y0172137D01*
X0144748Y0172137D02*
X0146282Y0172137D01*
X0143213Y0171370D02*
X0142446Y0172137D01*
X0140144Y0172137D01*
X0140144Y0167533D01*
X0142446Y0167533D01*
X0143213Y0168301D01*
X0143213Y0171370D01*
X0134005Y0171370D02*
X0134005Y0168301D01*
X0133238Y0167533D01*
X0131703Y0167533D01*
X0130936Y0168301D01*
X0130936Y0171370D01*
X0131703Y0172137D01*
X0133238Y0172137D01*
X0134005Y0171370D01*
X0129401Y0172137D02*
X0126332Y0172137D01*
X0127867Y0172137D02*
X0127867Y0167533D01*
X0088333Y0117310D02*
X0085263Y0117310D01*
X0084496Y0116543D01*
X0084496Y0114241D01*
X0089100Y0114241D01*
X0089100Y0116543D01*
X0088333Y0117310D01*
X0089100Y0112707D02*
X0084496Y0112707D01*
X0084496Y0109637D02*
X0089100Y0112707D01*
X0094496Y0112707D02*
X0099100Y0109637D01*
X0099100Y0108103D02*
X0097565Y0106568D01*
X0097565Y0107335D02*
X0097565Y0105033D01*
X0099100Y0105033D02*
X0094496Y0105033D01*
X0094496Y0107335D01*
X0095263Y0108103D01*
X0096798Y0108103D01*
X0097565Y0107335D01*
X0094496Y0109637D02*
X0099100Y0112707D01*
X0104496Y0112707D02*
X0109100Y0109637D01*
X0109100Y0106568D02*
X0104496Y0106568D01*
X0104496Y0105033D02*
X0104496Y0108103D01*
X0104496Y0109637D02*
X0109100Y0112707D01*
X0089100Y0109637D02*
X0084496Y0109637D01*
X0085263Y0108103D02*
X0084496Y0107335D01*
X0084496Y0105801D01*
X0085263Y0105033D01*
X0088333Y0105033D01*
X0089100Y0105801D01*
X0089100Y0107335D01*
X0088333Y0108103D01*
X0086798Y0108103D01*
X0086798Y0106568D01*
X0086257Y0089637D02*
X0088559Y0089637D01*
X0089327Y0088870D01*
X0089327Y0087335D01*
X0088559Y0086568D01*
X0086257Y0086568D01*
X0086257Y0085033D02*
X0086257Y0089637D01*
X0090861Y0088103D02*
X0092396Y0089637D01*
X0093931Y0088103D01*
X0093931Y0085033D01*
X0095465Y0085801D02*
X0096233Y0085033D01*
X0097767Y0085033D01*
X0098535Y0085801D01*
X0098535Y0086568D01*
X0097767Y0087335D01*
X0096233Y0087335D01*
X0095465Y0088103D01*
X0095465Y0088870D01*
X0096233Y0089637D01*
X0097767Y0089637D01*
X0098535Y0088870D01*
X0100069Y0089637D02*
X0100069Y0085033D01*
X0100069Y0086568D02*
X0102371Y0086568D01*
X0103139Y0087335D01*
X0103139Y0088870D01*
X0102371Y0089637D01*
X0100069Y0089637D01*
X0104673Y0089637D02*
X0106208Y0089637D01*
X0105441Y0089637D02*
X0105441Y0085033D01*
X0106208Y0085033D02*
X0104673Y0085033D01*
X0093931Y0087335D02*
X0090861Y0087335D01*
X0090861Y0088103D02*
X0090861Y0085033D01*
X0089327Y0085033D02*
X0087792Y0086568D01*
X0067173Y0085801D02*
X0067173Y0088870D01*
X0066406Y0089637D01*
X0064871Y0089637D01*
X0064104Y0088870D01*
X0064104Y0085801D01*
X0064871Y0085033D01*
X0066406Y0085033D01*
X0067173Y0085801D01*
X0062569Y0085033D02*
X0062569Y0089637D01*
X0061035Y0088103D01*
X0059500Y0089637D01*
X0059500Y0085033D01*
X0057965Y0085033D02*
X0054896Y0085033D01*
X0054896Y0089637D01*
X0057965Y0089637D01*
X0056431Y0087335D02*
X0054896Y0087335D01*
X0053361Y0085801D02*
X0053361Y0088870D01*
X0052594Y0089637D01*
X0050292Y0089637D01*
X0050292Y0085033D01*
X0052594Y0085033D01*
X0053361Y0085801D01*
X0036975Y0085033D02*
X0035441Y0086568D01*
X0036208Y0086568D02*
X0033906Y0086568D01*
X0033906Y0085033D02*
X0033906Y0089637D01*
X0036208Y0089637D01*
X0036975Y0088870D01*
X0036975Y0087335D01*
X0036208Y0086568D01*
X0032371Y0085033D02*
X0029302Y0085033D01*
X0029302Y0089637D01*
X0032371Y0089637D01*
X0030837Y0087335D02*
X0029302Y0087335D01*
X0027767Y0086568D02*
X0027767Y0085801D01*
X0027000Y0085033D01*
X0025465Y0085033D01*
X0024698Y0085801D01*
X0025465Y0087335D02*
X0027000Y0087335D01*
X0027767Y0086568D01*
X0027767Y0088870D02*
X0027000Y0089637D01*
X0025465Y0089637D01*
X0024698Y0088870D01*
X0024698Y0088103D01*
X0025465Y0087335D01*
X0023163Y0087335D02*
X0020094Y0087335D01*
X0020094Y0088103D02*
X0021629Y0089637D01*
X0023163Y0088103D01*
X0023163Y0085033D01*
X0020094Y0085033D02*
X0020094Y0088103D01*
X0018559Y0085033D02*
X0015490Y0085033D01*
X0015490Y0089637D01*
X0069496Y0062731D02*
X0071798Y0060429D01*
X0071798Y0063499D01*
X0074100Y0062731D02*
X0069496Y0062731D01*
X0070263Y0058895D02*
X0071798Y0058895D01*
X0072565Y0058127D01*
X0072565Y0055825D01*
X0074100Y0055825D02*
X0069496Y0055825D01*
X0069496Y0058127D01*
X0070263Y0058895D01*
X0072565Y0057360D02*
X0074100Y0058895D01*
D20*
X0148500Y0064333D02*
X0148500Y0115333D01*
X0321800Y0158633D02*
X0341800Y0158633D01*
D21*
X0338500Y0125583D02*
X0338500Y0059083D01*
D22*
X0029050Y0207333D03*
M02*
