G75*
%MOIN*%
%OFA0B0*%
%FSLAX25Y25*%
%IPPOS*%
%LPD*%
%AMOC8*
5,1,8,0,0,1.08239X$1,22.5*
%
%ADD10C,0.05200*%
%ADD11C,0.06000*%
%ADD12R,0.05906X0.03543*%
%ADD13C,0.07400*%
%ADD14R,0.05118X0.05906*%
%ADD15R,0.05906X0.05118*%
%ADD16C,0.01000*%
%ADD17C,0.04000*%
%ADD18C,0.01600*%
%ADD19C,0.03962*%
D10*
X0026800Y0019200D02*
X0026800Y0024400D01*
X0036800Y0024400D02*
X0036800Y0019200D01*
X0046800Y0019200D02*
X0046800Y0024400D01*
X0056800Y0024400D02*
X0056800Y0019200D01*
X0066800Y0019200D02*
X0066800Y0024400D01*
X0106800Y0024400D02*
X0106800Y0019200D01*
X0116800Y0019200D02*
X0116800Y0024400D01*
X0126800Y0024400D02*
X0126800Y0019200D01*
X0136800Y0019200D02*
X0136800Y0024400D01*
X0146800Y0024400D02*
X0146800Y0019200D01*
X0186800Y0019200D02*
X0186800Y0024400D01*
X0196800Y0024400D02*
X0196800Y0019200D01*
X0206800Y0019200D02*
X0206800Y0024400D01*
X0216800Y0024400D02*
X0216800Y0019200D01*
X0226800Y0019200D02*
X0226800Y0024400D01*
X0266800Y0024400D02*
X0266800Y0019200D01*
X0276800Y0019200D02*
X0276800Y0024400D01*
X0286800Y0024400D02*
X0286800Y0019200D01*
X0296800Y0019200D02*
X0296800Y0024400D01*
X0306800Y0024400D02*
X0306800Y0019200D01*
X0306800Y0119200D02*
X0306800Y0124400D01*
X0296800Y0124400D02*
X0296800Y0119200D01*
X0286800Y0119200D02*
X0286800Y0124400D01*
X0276800Y0124400D02*
X0276800Y0119200D01*
X0266800Y0119200D02*
X0266800Y0124400D01*
X0226800Y0124400D02*
X0226800Y0119200D01*
X0216800Y0119200D02*
X0216800Y0124400D01*
X0206800Y0124400D02*
X0206800Y0119200D01*
X0196800Y0119200D02*
X0196800Y0124400D01*
X0186800Y0124400D02*
X0186800Y0119200D01*
X0146800Y0119200D02*
X0146800Y0124400D01*
X0136800Y0124400D02*
X0136800Y0119200D01*
X0126800Y0119200D02*
X0126800Y0124400D01*
X0116800Y0124400D02*
X0116800Y0119200D01*
X0106800Y0119200D02*
X0106800Y0124400D01*
X0066800Y0124400D02*
X0066800Y0119200D01*
X0056800Y0119200D02*
X0056800Y0124400D01*
X0046800Y0124400D02*
X0046800Y0119200D01*
X0036800Y0119200D02*
X0036800Y0124400D01*
X0026800Y0124400D02*
X0026800Y0119200D01*
D11*
X0024800Y0311800D02*
X0018800Y0311800D01*
X0018800Y0321800D02*
X0024800Y0321800D01*
X0024800Y0331800D02*
X0018800Y0331800D01*
X0018800Y0341800D02*
X0024800Y0341800D01*
X0024800Y0351800D02*
X0018800Y0351800D01*
X0018800Y0361800D02*
X0024800Y0361800D01*
X0024800Y0371800D02*
X0018800Y0371800D01*
X0018800Y0381800D02*
X0024800Y0381800D01*
X0024800Y0391800D02*
X0018800Y0391800D01*
X0308800Y0391800D02*
X0314800Y0391800D01*
X0314800Y0381800D02*
X0308800Y0381800D01*
X0308800Y0371800D02*
X0314800Y0371800D01*
X0314800Y0361800D02*
X0308800Y0361800D01*
X0308800Y0351800D02*
X0314800Y0351800D01*
X0314800Y0341800D02*
X0308800Y0341800D01*
X0308800Y0331800D02*
X0314800Y0331800D01*
X0314800Y0321800D02*
X0308800Y0321800D01*
X0308800Y0311800D02*
X0314800Y0311800D01*
D12*
X0236446Y0320304D03*
X0236446Y0333296D03*
X0217154Y0333296D03*
X0217154Y0320304D03*
X0186446Y0370304D03*
X0186446Y0383296D03*
X0167154Y0383296D03*
X0167154Y0370304D03*
X0126446Y0333296D03*
X0126446Y0320304D03*
X0107154Y0320304D03*
X0107154Y0333296D03*
X0157154Y0283296D03*
X0157154Y0270304D03*
X0176446Y0270304D03*
X0176446Y0283296D03*
X0207154Y0233296D03*
X0207154Y0220304D03*
X0226446Y0220304D03*
X0226446Y0233296D03*
X0166446Y0183296D03*
X0166446Y0170304D03*
X0147154Y0170304D03*
X0147154Y0183296D03*
X0116446Y0220304D03*
X0116446Y0233296D03*
X0097154Y0233296D03*
X0097154Y0220304D03*
D13*
X0161800Y0011800D03*
X0171800Y0011800D03*
D14*
X0213060Y0246800D03*
X0220540Y0246800D03*
X0223060Y0346800D03*
X0230540Y0346800D03*
X0120540Y0346800D03*
X0113060Y0346800D03*
X0110540Y0246800D03*
X0103060Y0246800D03*
D15*
X0181800Y0180540D03*
X0181800Y0173060D03*
X0191800Y0273060D03*
X0191800Y0280540D03*
X0201800Y0373060D03*
X0201800Y0380540D03*
D16*
X0201200Y0381200D01*
X0195800Y0381200D01*
X0190400Y0386600D01*
X0182300Y0386600D01*
X0181400Y0385700D01*
X0181400Y0368600D01*
X0216500Y0333500D01*
X0217154Y0333296D01*
X0216500Y0332600D01*
X0216500Y0329000D01*
X0192200Y0304700D01*
X0192200Y0281300D01*
X0191800Y0280540D01*
X0191300Y0280400D01*
X0186800Y0280400D01*
X0186800Y0271400D01*
X0152600Y0237200D01*
X0167900Y0221900D01*
X0167900Y0200300D01*
X0171500Y0196700D01*
X0171500Y0181400D01*
X0169700Y0179600D01*
X0146300Y0179600D01*
X0146300Y0183200D01*
X0147154Y0183296D01*
X0146300Y0179600D02*
X0146300Y0176900D01*
X0142700Y0173300D01*
X0142700Y0169700D01*
X0111200Y0169700D01*
X0107600Y0167900D02*
X0110300Y0165200D01*
X0161600Y0165200D01*
X0166100Y0169700D01*
X0166446Y0170304D01*
X0167000Y0170600D01*
X0179600Y0170600D01*
X0181400Y0172400D01*
X0181800Y0173060D01*
X0182300Y0173300D01*
X0226400Y0217400D01*
X0226400Y0220100D01*
X0226446Y0220304D01*
X0227300Y0221000D01*
X0227300Y0224600D01*
X0232700Y0230000D01*
X0232700Y0237200D01*
X0223700Y0246200D01*
X0223700Y0307400D01*
X0236300Y0320000D01*
X0236446Y0320304D01*
X0237200Y0320900D01*
X0240800Y0324500D01*
X0240800Y0336200D01*
X0239900Y0337100D01*
X0233600Y0337100D01*
X0231800Y0335300D01*
X0231800Y0328100D01*
X0216500Y0312800D01*
X0212900Y0316400D01*
X0212900Y0322700D01*
X0213800Y0323600D01*
X0214700Y0323600D01*
X0221900Y0330800D01*
X0221900Y0335300D01*
X0220100Y0337100D01*
X0219200Y0337100D01*
X0194000Y0362300D01*
X0196700Y0365000D01*
X0194000Y0362300D02*
X0186800Y0369500D01*
X0186446Y0370304D01*
X0186800Y0380300D02*
X0219200Y0347900D01*
X0219200Y0340700D01*
X0223700Y0336200D01*
X0223700Y0327200D01*
X0217400Y0320900D01*
X0217154Y0320304D01*
X0216500Y0312800D02*
X0201200Y0297500D01*
X0201200Y0282200D01*
X0192200Y0273200D01*
X0191800Y0273060D01*
X0186800Y0271400D02*
X0186800Y0270500D01*
X0201200Y0256100D01*
X0201200Y0239000D01*
X0206600Y0233600D01*
X0207154Y0233296D01*
X0212000Y0230900D02*
X0212000Y0239900D01*
X0208400Y0243500D01*
X0208400Y0302000D01*
X0236300Y0329900D01*
X0236300Y0332600D01*
X0236446Y0333296D01*
X0237200Y0342500D02*
X0227300Y0342500D01*
X0223700Y0346100D01*
X0223060Y0346800D01*
X0222800Y0347000D01*
X0222800Y0366800D01*
X0209300Y0380300D01*
X0202100Y0380300D01*
X0201800Y0380540D01*
X0202100Y0373100D02*
X0201800Y0373060D01*
X0202100Y0373100D02*
X0211100Y0373100D01*
X0230900Y0373100D02*
X0230900Y0347000D01*
X0230540Y0346800D01*
X0237200Y0342500D02*
X0267800Y0311900D01*
X0311000Y0311900D01*
X0311800Y0311800D01*
X0319100Y0293000D02*
X0247100Y0221000D01*
X0216500Y0190400D01*
X0216500Y0186800D01*
X0203000Y0186800D01*
X0177800Y0161600D01*
X0148100Y0161600D01*
X0143600Y0167000D02*
X0156200Y0167000D01*
X0165200Y0176000D01*
X0176900Y0176000D01*
X0181400Y0180500D01*
X0181800Y0180540D01*
X0182300Y0181400D01*
X0197600Y0196700D01*
X0219200Y0218300D01*
X0219200Y0220100D01*
X0222800Y0223700D01*
X0223700Y0223700D01*
X0230900Y0230900D01*
X0230900Y0236300D01*
X0230000Y0237200D01*
X0221900Y0237200D01*
X0216500Y0242600D01*
X0216500Y0243500D01*
X0213800Y0246200D01*
X0213060Y0246800D01*
X0220540Y0246800D02*
X0221000Y0246200D01*
X0223700Y0246200D01*
X0226446Y0233296D02*
X0226400Y0232700D01*
X0171500Y0177800D01*
X0164300Y0177800D01*
X0157100Y0170600D01*
X0147200Y0170600D01*
X0147154Y0170304D01*
X0143600Y0167000D02*
X0142700Y0167900D01*
X0142700Y0169700D01*
X0156200Y0158000D02*
X0114800Y0158000D01*
X0105800Y0167000D01*
X0105800Y0190400D01*
X0060800Y0235400D01*
X0060800Y0284900D01*
X0065300Y0288500D02*
X0079700Y0274100D01*
X0102200Y0274100D01*
X0102200Y0251600D01*
X0105800Y0251600D01*
X0110300Y0247100D01*
X0110540Y0246800D01*
X0115700Y0249800D02*
X0115700Y0233600D01*
X0116446Y0233296D01*
X0113900Y0229100D02*
X0110300Y0232700D01*
X0097700Y0232700D01*
X0097154Y0233296D01*
X0097700Y0233600D01*
X0097700Y0238100D01*
X0097700Y0241700D01*
X0102200Y0246200D01*
X0103060Y0246800D01*
X0102200Y0251600D02*
X0100400Y0251600D01*
X0092300Y0243500D01*
X0092300Y0218300D01*
X0094100Y0216500D01*
X0107600Y0216500D01*
X0107600Y0167900D01*
X0106700Y0139100D02*
X0106700Y0135500D01*
X0155300Y0135500D01*
X0168800Y0122000D01*
X0186800Y0122000D01*
X0186800Y0121800D01*
X0186800Y0122000D02*
X0196700Y0131900D01*
X0250700Y0131900D01*
X0260600Y0122000D01*
X0266000Y0122000D01*
X0266800Y0121800D01*
X0265100Y0114800D02*
X0270500Y0114800D01*
X0276800Y0121100D01*
X0276800Y0121800D01*
X0265100Y0114800D02*
X0249800Y0130100D01*
X0205700Y0130100D01*
X0197600Y0122000D01*
X0196800Y0121800D01*
X0196700Y0121100D01*
X0194900Y0121100D01*
X0188600Y0114800D01*
X0173300Y0114800D01*
X0156200Y0131900D01*
X0127400Y0131900D01*
X0117500Y0122000D01*
X0116800Y0121800D01*
X0116600Y0121100D01*
X0110300Y0114800D01*
X0104900Y0114800D01*
X0102200Y0117500D01*
X0102200Y0127400D01*
X0076100Y0153500D01*
X0068900Y0153500D01*
X0037400Y0122000D01*
X0036800Y0121800D01*
X0032900Y0126500D02*
X0032900Y0025700D01*
X0036800Y0021800D01*
X0033800Y0014900D02*
X0027500Y0021200D01*
X0026800Y0021800D01*
X0033800Y0014900D02*
X0048200Y0014900D01*
X0050000Y0016700D01*
X0053600Y0013100D01*
X0092300Y0013100D01*
X0100400Y0021200D01*
X0106700Y0021200D01*
X0106800Y0021800D01*
X0112100Y0024800D02*
X0108500Y0028400D01*
X0104900Y0028400D01*
X0098600Y0022100D01*
X0067100Y0022100D01*
X0066800Y0021800D01*
X0059900Y0014900D01*
X0055400Y0014900D01*
X0052700Y0017600D01*
X0052700Y0126500D01*
X0059000Y0132800D01*
X0050900Y0130100D02*
X0050900Y0017600D01*
X0050000Y0016700D01*
X0046800Y0021800D02*
X0047300Y0022100D01*
X0047300Y0121100D01*
X0046800Y0121800D01*
X0050900Y0130100D02*
X0070700Y0149900D01*
X0074300Y0149900D01*
X0084200Y0136400D02*
X0084200Y0049100D01*
X0097700Y0049100D01*
X0121100Y0025700D01*
X0121100Y0018500D01*
X0124700Y0014900D01*
X0128300Y0014900D01*
X0134600Y0021200D01*
X0136400Y0021200D01*
X0136800Y0021800D01*
X0138200Y0013100D02*
X0146300Y0021200D01*
X0146800Y0021800D01*
X0138200Y0013100D02*
X0116600Y0013100D01*
X0112100Y0017600D01*
X0112100Y0024800D01*
X0126800Y0021800D02*
X0127400Y0022100D01*
X0127400Y0121100D01*
X0126800Y0121800D01*
X0131000Y0128300D02*
X0131000Y0075200D01*
X0171500Y0034700D01*
X0171500Y0012200D01*
X0171800Y0011800D01*
X0161800Y0011800D02*
X0161600Y0012200D01*
X0161600Y0039200D01*
X0161600Y0050000D02*
X0161600Y0104900D01*
X0158900Y0107600D01*
X0147200Y0111200D02*
X0137300Y0121100D01*
X0136800Y0121800D01*
X0146800Y0121800D02*
X0147200Y0121100D01*
X0164300Y0121100D01*
X0172400Y0113000D01*
X0203000Y0113000D01*
X0204800Y0114800D01*
X0220100Y0114800D01*
X0226400Y0121100D01*
X0226800Y0121800D01*
X0227300Y0121100D01*
X0237200Y0111200D01*
X0294800Y0111200D01*
X0304700Y0121100D01*
X0306500Y0121100D01*
X0306800Y0121800D01*
X0296800Y0121800D02*
X0296600Y0121100D01*
X0288500Y0113000D01*
X0264200Y0113000D01*
X0248900Y0128300D01*
X0223700Y0128300D01*
X0217400Y0122000D01*
X0216800Y0121800D01*
X0206600Y0111200D02*
X0147200Y0111200D01*
X0113900Y0139100D02*
X0069800Y0183200D01*
X0069800Y0188600D01*
X0071600Y0167900D02*
X0077900Y0167900D01*
X0106700Y0139100D01*
X0106700Y0135500D02*
X0106700Y0122000D01*
X0106800Y0121800D01*
X0076100Y0164300D02*
X0070700Y0164300D01*
X0032900Y0126500D01*
X0027500Y0123800D02*
X0027500Y0122000D01*
X0026800Y0121800D01*
X0027500Y0123800D02*
X0071600Y0167900D01*
X0088700Y0202100D02*
X0046400Y0244400D01*
X0030200Y0288500D02*
X0065300Y0288500D01*
X0081500Y0296600D02*
X0081500Y0277700D01*
X0081500Y0296600D02*
X0027500Y0296600D01*
X0026600Y0297500D01*
X0014000Y0310100D01*
X0014000Y0374000D01*
X0021800Y0381800D01*
X0021200Y0391100D02*
X0021800Y0391800D01*
X0021200Y0391100D02*
X0012200Y0382100D01*
X0012200Y0306500D01*
X0030200Y0288500D01*
X0022100Y0311900D02*
X0021800Y0311800D01*
X0022100Y0311900D02*
X0086000Y0311900D01*
X0106700Y0332600D01*
X0107154Y0333296D01*
X0107600Y0333500D01*
X0107600Y0340700D01*
X0113000Y0346100D01*
X0113060Y0346800D01*
X0113000Y0347000D01*
X0117500Y0351500D01*
X0155300Y0351500D01*
X0155300Y0285800D01*
X0157100Y0284000D01*
X0157154Y0283296D01*
X0158000Y0283100D01*
X0161600Y0279500D01*
X0179600Y0279500D01*
X0180500Y0280400D01*
X0186800Y0280400D01*
X0176900Y0284000D02*
X0176446Y0283296D01*
X0176900Y0284000D02*
X0176900Y0383900D01*
X0181400Y0388400D01*
X0253700Y0388400D01*
X0269900Y0372200D01*
X0311000Y0372200D01*
X0311800Y0371800D01*
X0319100Y0374000D02*
X0319100Y0293000D01*
X0318200Y0286700D02*
X0221000Y0189500D01*
X0216500Y0186800D02*
X0224600Y0178700D01*
X0257000Y0178700D01*
X0267800Y0184100D02*
X0243500Y0159800D01*
X0225500Y0175100D02*
X0219200Y0181400D01*
X0203900Y0181400D01*
X0218300Y0203900D02*
X0257900Y0243500D01*
X0257900Y0316400D01*
X0319100Y0374000D02*
X0311900Y0381200D01*
X0311800Y0381800D01*
X0191300Y0241700D02*
X0201200Y0231800D01*
X0207500Y0226400D02*
X0207500Y0221000D01*
X0207154Y0220304D01*
X0207500Y0226400D02*
X0212000Y0230900D01*
X0191300Y0241700D02*
X0164300Y0241700D01*
X0152600Y0237200D02*
X0144500Y0229100D01*
X0113900Y0229100D01*
X0116446Y0220304D02*
X0115700Y0220100D01*
X0112100Y0216500D01*
X0107600Y0216500D01*
X0100400Y0223700D02*
X0097700Y0221000D01*
X0097154Y0220304D01*
X0100400Y0223700D02*
X0163400Y0223700D01*
X0166100Y0221000D01*
X0166100Y0184100D01*
X0166446Y0183296D01*
X0172400Y0201200D02*
X0172400Y0221900D01*
X0188600Y0238100D01*
X0186800Y0213800D02*
X0186800Y0198500D01*
X0162500Y0219200D02*
X0122900Y0219200D01*
X0142700Y0232700D02*
X0111200Y0264200D01*
X0107600Y0257900D02*
X0115700Y0249800D01*
X0107600Y0257900D02*
X0107600Y0320000D01*
X0107154Y0320304D01*
X0102200Y0322700D02*
X0109400Y0329900D01*
X0112100Y0329900D01*
X0124700Y0342500D01*
X0121100Y0346100D01*
X0120540Y0346800D01*
X0124700Y0342500D02*
X0131000Y0336200D01*
X0131000Y0325400D01*
X0126500Y0320900D01*
X0126446Y0320304D01*
X0126500Y0320000D01*
X0126500Y0306500D01*
X0153500Y0279500D01*
X0155300Y0279500D01*
X0164300Y0270500D01*
X0176000Y0270500D01*
X0176446Y0270304D01*
X0157154Y0270304D02*
X0157100Y0270500D01*
X0122000Y0305600D01*
X0122000Y0322700D01*
X0125600Y0326300D01*
X0125600Y0332600D01*
X0126446Y0333296D01*
X0102200Y0322700D02*
X0102200Y0274100D01*
X0068000Y0315500D02*
X0022100Y0361400D01*
X0021800Y0361800D01*
X0023000Y0370400D02*
X0022100Y0371300D01*
X0021800Y0371800D01*
X0023000Y0370400D02*
X0167000Y0370400D01*
X0167154Y0370304D01*
X0171500Y0367700D02*
X0155300Y0351500D01*
X0171500Y0367700D02*
X0171500Y0373100D01*
X0167900Y0376700D01*
X0167900Y0383000D01*
X0167154Y0383296D01*
X0186446Y0383296D02*
X0186800Y0383000D01*
X0186800Y0380300D01*
X0151700Y0309200D02*
X0146300Y0303800D01*
X0084200Y0049100D02*
X0057200Y0022100D01*
X0056800Y0021800D01*
X0186800Y0022100D02*
X0186800Y0021800D01*
X0186800Y0022100D02*
X0193100Y0028400D01*
X0198500Y0028400D01*
X0201200Y0025700D01*
X0201200Y0018500D01*
X0204800Y0014900D01*
X0228200Y0014900D01*
X0234500Y0021200D01*
X0266000Y0021200D01*
X0266800Y0021800D01*
X0268700Y0013100D02*
X0276800Y0021200D01*
X0276800Y0021800D01*
X0268700Y0013100D02*
X0203900Y0013100D01*
X0197600Y0019400D01*
X0197600Y0021200D01*
X0196800Y0021800D01*
X0226800Y0021800D02*
X0227300Y0022100D01*
X0233600Y0028400D01*
X0298400Y0028400D01*
X0304700Y0022100D01*
X0306500Y0022100D01*
X0306800Y0021800D01*
D17*
X0206600Y0111200D03*
X0243500Y0159800D03*
X0257000Y0178700D03*
X0267800Y0184100D03*
X0247100Y0221000D03*
X0221000Y0189500D03*
X0218300Y0203900D03*
X0203900Y0181400D03*
X0197600Y0196700D03*
X0186800Y0198500D03*
X0172400Y0201200D03*
X0186800Y0213800D03*
X0201200Y0231800D03*
X0188600Y0238100D03*
X0164300Y0241700D03*
X0162500Y0219200D03*
X0142700Y0232700D03*
X0122900Y0219200D03*
X0097700Y0238100D03*
X0111200Y0264200D03*
X0081500Y0277700D03*
X0081500Y0296600D03*
X0068000Y0315500D03*
X0060800Y0284900D03*
X0046400Y0244400D03*
X0026600Y0297500D03*
X0088700Y0202100D03*
X0069800Y0188600D03*
X0076100Y0164300D03*
X0074300Y0149900D03*
X0084200Y0136400D03*
X0059000Y0132800D03*
X0111200Y0169700D03*
X0113900Y0139100D03*
X0131000Y0128300D03*
X0156200Y0158000D03*
X0148100Y0161600D03*
X0158900Y0107600D03*
X0161600Y0050000D03*
X0161600Y0039200D03*
X0225500Y0175100D03*
X0318200Y0286700D03*
X0257900Y0316400D03*
X0230900Y0373100D03*
X0211100Y0373100D03*
X0196700Y0365000D03*
X0151700Y0309200D03*
X0146300Y0303800D03*
D18*
X0011600Y0136619D02*
X0011600Y0011600D01*
X0052130Y0011600D01*
X0050000Y0013730D01*
X0049070Y0012800D01*
X0032930Y0012800D01*
X0029635Y0016095D01*
X0029179Y0015639D01*
X0027635Y0015000D01*
X0025965Y0015000D01*
X0024421Y0015639D01*
X0023239Y0016821D01*
X0022600Y0018365D01*
X0022600Y0025235D01*
X0023239Y0026779D01*
X0024421Y0027961D01*
X0025965Y0028600D01*
X0027635Y0028600D01*
X0029179Y0027961D01*
X0030361Y0026779D01*
X0030800Y0025718D01*
X0030800Y0117882D01*
X0030361Y0116821D01*
X0029179Y0115639D01*
X0027635Y0115000D01*
X0025965Y0115000D01*
X0024421Y0115639D01*
X0023239Y0116821D01*
X0022600Y0118365D01*
X0022600Y0125235D01*
X0023239Y0126779D01*
X0024421Y0127961D01*
X0025965Y0128600D01*
X0027635Y0128600D01*
X0028834Y0128104D01*
X0069500Y0168770D01*
X0069500Y0168770D01*
X0070730Y0170000D01*
X0078770Y0170000D01*
X0107570Y0141200D01*
X0107570Y0141200D01*
X0108800Y0139970D01*
X0108800Y0137600D01*
X0110625Y0137600D01*
X0110300Y0138384D01*
X0110300Y0139730D01*
X0067700Y0182330D01*
X0067700Y0185609D01*
X0066748Y0186561D01*
X0066200Y0187884D01*
X0066200Y0189316D01*
X0066748Y0190639D01*
X0067761Y0191652D01*
X0069084Y0192200D01*
X0070516Y0192200D01*
X0071839Y0191652D01*
X0072852Y0190639D01*
X0073400Y0189316D01*
X0073400Y0187884D01*
X0072852Y0186561D01*
X0071900Y0185609D01*
X0071900Y0184070D01*
X0113270Y0142700D01*
X0114616Y0142700D01*
X0115939Y0142152D01*
X0116952Y0141139D01*
X0117500Y0139816D01*
X0117500Y0138384D01*
X0117175Y0137600D01*
X0156170Y0137600D01*
X0157400Y0136370D01*
X0169670Y0124100D01*
X0182600Y0124100D01*
X0182600Y0125235D01*
X0183239Y0126779D01*
X0184421Y0127961D01*
X0185965Y0128600D01*
X0187635Y0128600D01*
X0189179Y0127961D01*
X0189485Y0127655D01*
X0195830Y0134000D01*
X0251570Y0134000D01*
X0252800Y0132770D01*
X0261470Y0124100D01*
X0262600Y0124100D01*
X0262600Y0125235D01*
X0263239Y0126779D01*
X0264421Y0127961D01*
X0265965Y0128600D01*
X0267635Y0128600D01*
X0269179Y0127961D01*
X0270361Y0126779D01*
X0271000Y0125235D01*
X0271000Y0118365D01*
X0270933Y0118203D01*
X0272600Y0119870D01*
X0272600Y0125235D01*
X0273239Y0126779D01*
X0274421Y0127961D01*
X0275965Y0128600D01*
X0277635Y0128600D01*
X0279179Y0127961D01*
X0280361Y0126779D01*
X0281000Y0125235D01*
X0281000Y0118365D01*
X0280361Y0116821D01*
X0279179Y0115639D01*
X0277877Y0115100D01*
X0285723Y0115100D01*
X0284421Y0115639D01*
X0283239Y0116821D01*
X0282600Y0118365D01*
X0282600Y0125235D01*
X0283239Y0126779D01*
X0284421Y0127961D01*
X0285965Y0128600D01*
X0287635Y0128600D01*
X0289179Y0127961D01*
X0290361Y0126779D01*
X0291000Y0125235D01*
X0291000Y0118470D01*
X0292600Y0120070D01*
X0292600Y0125235D01*
X0293239Y0126779D01*
X0294421Y0127961D01*
X0295965Y0128600D01*
X0297635Y0128600D01*
X0299179Y0127961D01*
X0300361Y0126779D01*
X0301000Y0125235D01*
X0301000Y0120370D01*
X0302600Y0121970D01*
X0302600Y0125235D01*
X0303239Y0126779D01*
X0304421Y0127961D01*
X0305965Y0128600D01*
X0307635Y0128600D01*
X0309179Y0127961D01*
X0310361Y0126779D01*
X0311000Y0125235D01*
X0311000Y0118365D01*
X0310361Y0116821D01*
X0309179Y0115639D01*
X0307635Y0115000D01*
X0305965Y0115000D01*
X0304421Y0115639D01*
X0303315Y0116745D01*
X0296900Y0110330D01*
X0295670Y0109100D01*
X0236330Y0109100D01*
X0229485Y0115945D01*
X0229179Y0115639D01*
X0227635Y0115000D01*
X0225965Y0115000D01*
X0224421Y0115639D01*
X0224165Y0115895D01*
X0220970Y0112700D01*
X0209875Y0112700D01*
X0210200Y0111916D01*
X0210200Y0110484D01*
X0209652Y0109161D01*
X0208639Y0108148D01*
X0207316Y0107600D01*
X0205884Y0107600D01*
X0204561Y0108148D01*
X0203609Y0109100D01*
X0162175Y0109100D01*
X0162500Y0108316D01*
X0162500Y0106970D01*
X0163700Y0105770D01*
X0163700Y0052991D01*
X0164652Y0052039D01*
X0165200Y0050716D01*
X0165200Y0049284D01*
X0164652Y0047961D01*
X0163639Y0046948D01*
X0162316Y0046400D01*
X0160884Y0046400D01*
X0159561Y0046948D01*
X0158548Y0047961D01*
X0158000Y0049284D01*
X0158000Y0050716D01*
X0158548Y0052039D01*
X0159500Y0052991D01*
X0159500Y0104000D01*
X0158184Y0104000D01*
X0156861Y0104548D01*
X0155848Y0105561D01*
X0155300Y0106884D01*
X0155300Y0108316D01*
X0155625Y0109100D01*
X0146330Y0109100D01*
X0139485Y0115945D01*
X0139179Y0115639D01*
X0137635Y0115000D01*
X0135965Y0115000D01*
X0134421Y0115639D01*
X0133239Y0116821D01*
X0132600Y0118365D01*
X0132600Y0125235D01*
X0133239Y0126779D01*
X0134421Y0127961D01*
X0135965Y0128600D01*
X0137635Y0128600D01*
X0139179Y0127961D01*
X0140361Y0126779D01*
X0141000Y0125235D01*
X0141000Y0120370D01*
X0142600Y0118770D01*
X0142600Y0125235D01*
X0143239Y0126779D01*
X0144421Y0127961D01*
X0145965Y0128600D01*
X0147635Y0128600D01*
X0149179Y0127961D01*
X0150361Y0126779D01*
X0151000Y0125235D01*
X0151000Y0123200D01*
X0161930Y0123200D01*
X0155330Y0129800D01*
X0128270Y0129800D01*
X0127070Y0128600D01*
X0127635Y0128600D01*
X0129179Y0127961D01*
X0130361Y0126779D01*
X0131000Y0125235D01*
X0131000Y0118365D01*
X0130361Y0116821D01*
X0129500Y0115960D01*
X0129500Y0027640D01*
X0130361Y0026779D01*
X0131000Y0025235D01*
X0131000Y0020570D01*
X0132600Y0022170D01*
X0132600Y0025235D01*
X0133239Y0026779D01*
X0134421Y0027961D01*
X0135965Y0028600D01*
X0137635Y0028600D01*
X0139179Y0027961D01*
X0140361Y0026779D01*
X0141000Y0025235D01*
X0141000Y0018870D01*
X0142600Y0020470D01*
X0142600Y0025235D01*
X0143239Y0026779D01*
X0144421Y0027961D01*
X0145965Y0028600D01*
X0147635Y0028600D01*
X0149179Y0027961D01*
X0150361Y0026779D01*
X0151000Y0025235D01*
X0151000Y0018365D01*
X0150361Y0016821D01*
X0149179Y0015639D01*
X0147635Y0015000D01*
X0145965Y0015000D01*
X0144421Y0015639D01*
X0144065Y0015995D01*
X0139670Y0011600D01*
X0156500Y0011600D01*
X0156500Y0012854D01*
X0157307Y0014802D01*
X0158798Y0016293D01*
X0159500Y0016584D01*
X0159500Y0036209D01*
X0158548Y0037161D01*
X0158000Y0038484D01*
X0158000Y0039916D01*
X0158548Y0041239D01*
X0159561Y0042252D01*
X0160884Y0042800D01*
X0162316Y0042800D01*
X0163639Y0042252D01*
X0164652Y0041239D01*
X0165200Y0039916D01*
X0165200Y0038484D01*
X0164652Y0037161D01*
X0163700Y0036209D01*
X0163700Y0016750D01*
X0164802Y0016293D01*
X0166293Y0014802D01*
X0166685Y0013856D01*
X0166703Y0013911D01*
X0167096Y0014683D01*
X0167605Y0015383D01*
X0168217Y0015995D01*
X0168917Y0016504D01*
X0169689Y0016897D01*
X0170512Y0017165D01*
X0171367Y0017300D01*
X0171600Y0017300D01*
X0171600Y0012000D01*
X0172000Y0012000D01*
X0172000Y0017300D01*
X0172233Y0017300D01*
X0173088Y0017165D01*
X0173911Y0016897D01*
X0174683Y0016504D01*
X0175383Y0015995D01*
X0175995Y0015383D01*
X0176504Y0014683D01*
X0176897Y0013911D01*
X0177165Y0013088D01*
X0177300Y0012233D01*
X0177300Y0012000D01*
X0172000Y0012000D01*
X0172000Y0011600D01*
X0202430Y0011600D01*
X0201800Y0012230D01*
X0198622Y0015409D01*
X0197635Y0015000D01*
X0195965Y0015000D01*
X0194421Y0015639D01*
X0193239Y0016821D01*
X0192600Y0018365D01*
X0192600Y0024930D01*
X0191000Y0023330D01*
X0191000Y0018365D01*
X0190361Y0016821D01*
X0189179Y0015639D01*
X0187635Y0015000D01*
X0185965Y0015000D01*
X0184421Y0015639D01*
X0183239Y0016821D01*
X0182600Y0018365D01*
X0182600Y0025235D01*
X0183239Y0026779D01*
X0184421Y0027961D01*
X0185965Y0028600D01*
X0187635Y0028600D01*
X0189179Y0027961D01*
X0189435Y0027705D01*
X0192230Y0030500D01*
X0199370Y0030500D01*
X0200600Y0029270D01*
X0203196Y0026674D01*
X0203239Y0026779D01*
X0204421Y0027961D01*
X0205965Y0028600D01*
X0207635Y0028600D01*
X0209179Y0027961D01*
X0210361Y0026779D01*
X0211000Y0025235D01*
X0211000Y0018365D01*
X0210435Y0017000D01*
X0213165Y0017000D01*
X0212600Y0018365D01*
X0212600Y0025235D01*
X0213239Y0026779D01*
X0214421Y0027961D01*
X0215965Y0028600D01*
X0217635Y0028600D01*
X0219179Y0027961D01*
X0220361Y0026779D01*
X0221000Y0025235D01*
X0221000Y0018365D01*
X0220435Y0017000D01*
X0223165Y0017000D01*
X0222600Y0018365D01*
X0222600Y0025235D01*
X0223239Y0026779D01*
X0224421Y0027961D01*
X0225965Y0028600D01*
X0227635Y0028600D01*
X0229179Y0027961D01*
X0229685Y0027455D01*
X0232730Y0030500D01*
X0299270Y0030500D01*
X0300500Y0029270D01*
X0303167Y0026603D01*
X0303239Y0026779D01*
X0304421Y0027961D01*
X0305965Y0028600D01*
X0307635Y0028600D01*
X0309179Y0027961D01*
X0310361Y0026779D01*
X0311000Y0025235D01*
X0311000Y0018365D01*
X0310361Y0016821D01*
X0309179Y0015639D01*
X0307635Y0015000D01*
X0305965Y0015000D01*
X0304421Y0015639D01*
X0303239Y0016821D01*
X0302600Y0018365D01*
X0302600Y0021230D01*
X0301000Y0022830D01*
X0301000Y0018365D01*
X0300361Y0016821D01*
X0299179Y0015639D01*
X0297635Y0015000D01*
X0295965Y0015000D01*
X0294421Y0015639D01*
X0293239Y0016821D01*
X0292600Y0018365D01*
X0292600Y0025235D01*
X0293041Y0026300D01*
X0290559Y0026300D01*
X0291000Y0025235D01*
X0291000Y0018365D01*
X0290361Y0016821D01*
X0289179Y0015639D01*
X0287635Y0015000D01*
X0285965Y0015000D01*
X0284421Y0015639D01*
X0283239Y0016821D01*
X0282600Y0018365D01*
X0282600Y0025235D01*
X0283041Y0026300D01*
X0280559Y0026300D01*
X0281000Y0025235D01*
X0281000Y0018365D01*
X0280361Y0016821D01*
X0279179Y0015639D01*
X0277635Y0015000D01*
X0275965Y0015000D01*
X0274421Y0015639D01*
X0274315Y0015745D01*
X0270170Y0011600D01*
X0321961Y0011600D01*
X0321961Y0136551D01*
X0320686Y0134344D01*
X0320686Y0134344D01*
X0317600Y0131754D01*
X0317600Y0131754D01*
X0313814Y0130376D01*
X0309786Y0130376D01*
X0306000Y0131754D01*
X0306000Y0131754D01*
X0302914Y0134344D01*
X0302914Y0134344D01*
X0300900Y0137833D01*
X0300900Y0137833D01*
X0300200Y0141800D01*
X0300200Y0141800D01*
X0300900Y0145767D01*
X0300900Y0145767D01*
X0302914Y0149256D01*
X0302914Y0149256D01*
X0306000Y0151846D01*
X0306000Y0151846D01*
X0309786Y0153224D01*
X0313814Y0153224D01*
X0317600Y0151846D01*
X0317600Y0151846D01*
X0320686Y0149256D01*
X0320686Y0149256D01*
X0321961Y0147049D01*
X0321961Y0395701D01*
X0317403Y0395701D01*
X0317406Y0395700D01*
X0318700Y0394406D01*
X0319400Y0392715D01*
X0319400Y0390885D01*
X0318700Y0389194D01*
X0317406Y0387900D01*
X0315715Y0387200D01*
X0307885Y0387200D01*
X0306194Y0387900D01*
X0304900Y0389194D01*
X0304200Y0390885D01*
X0304200Y0392715D01*
X0304900Y0394406D01*
X0306194Y0395700D01*
X0306197Y0395701D01*
X0293965Y0395701D01*
X0295686Y0394256D01*
X0295686Y0394256D01*
X0297700Y0390767D01*
X0297700Y0390767D01*
X0298400Y0386800D01*
X0297700Y0382833D01*
X0297700Y0382833D01*
X0295686Y0379344D01*
X0295686Y0379344D01*
X0292600Y0376754D01*
X0292600Y0376754D01*
X0288814Y0375376D01*
X0284786Y0375376D01*
X0281000Y0376754D01*
X0281000Y0376754D01*
X0277914Y0379344D01*
X0277914Y0379344D01*
X0275900Y0382833D01*
X0275900Y0382833D01*
X0275200Y0386800D01*
X0275200Y0386800D01*
X0275900Y0390767D01*
X0275900Y0390767D01*
X0277914Y0394256D01*
X0277914Y0394256D01*
X0279635Y0395701D01*
X0053965Y0395701D01*
X0055686Y0394256D01*
X0055686Y0394256D01*
X0057700Y0390767D01*
X0057700Y0390767D01*
X0058400Y0386800D01*
X0057700Y0382833D01*
X0057700Y0382833D01*
X0055686Y0379344D01*
X0055686Y0379344D01*
X0052600Y0376754D01*
X0052600Y0376754D01*
X0048814Y0375376D01*
X0044786Y0375376D01*
X0041000Y0376754D01*
X0041000Y0376754D01*
X0037914Y0379344D01*
X0037914Y0379344D01*
X0035900Y0382833D01*
X0035900Y0382833D01*
X0035200Y0386800D01*
X0035200Y0386800D01*
X0035900Y0390767D01*
X0035900Y0390767D01*
X0037914Y0394256D01*
X0037914Y0394256D01*
X0039635Y0395701D01*
X0027403Y0395701D01*
X0027406Y0395700D01*
X0028700Y0394406D01*
X0029400Y0392715D01*
X0029400Y0390885D01*
X0028700Y0389194D01*
X0027406Y0387900D01*
X0025715Y0387200D01*
X0020270Y0387200D01*
X0019470Y0386400D01*
X0025715Y0386400D01*
X0027406Y0385700D01*
X0028700Y0384406D01*
X0029400Y0382715D01*
X0029400Y0380885D01*
X0028700Y0379194D01*
X0027406Y0377900D01*
X0025715Y0377200D01*
X0020170Y0377200D01*
X0019370Y0376400D01*
X0025715Y0376400D01*
X0027406Y0375700D01*
X0028700Y0374406D01*
X0029400Y0372715D01*
X0029400Y0372500D01*
X0162602Y0372500D01*
X0162602Y0372738D01*
X0163539Y0373676D01*
X0170770Y0373676D01*
X0171707Y0372738D01*
X0171707Y0367870D01*
X0170770Y0366932D01*
X0163539Y0366932D01*
X0162602Y0367870D01*
X0162602Y0368300D01*
X0027805Y0368300D01*
X0027406Y0367900D01*
X0025715Y0367200D01*
X0017885Y0367200D01*
X0016194Y0367900D01*
X0016100Y0367995D01*
X0016100Y0365605D01*
X0016194Y0365700D01*
X0017885Y0366400D01*
X0025715Y0366400D01*
X0027406Y0365700D01*
X0028700Y0364406D01*
X0029400Y0362715D01*
X0029400Y0360885D01*
X0028700Y0359194D01*
X0027988Y0358482D01*
X0067370Y0319100D01*
X0068716Y0319100D01*
X0070039Y0318552D01*
X0071052Y0317539D01*
X0071600Y0316216D01*
X0071600Y0314784D01*
X0071052Y0313461D01*
X0070039Y0312448D01*
X0068716Y0311900D01*
X0067284Y0311900D01*
X0065961Y0312448D01*
X0064948Y0313461D01*
X0064400Y0314784D01*
X0064400Y0316130D01*
X0029400Y0351130D01*
X0029400Y0350885D01*
X0028700Y0349194D01*
X0027406Y0347900D01*
X0025715Y0347200D01*
X0017885Y0347200D01*
X0016194Y0347900D01*
X0016100Y0347995D01*
X0016100Y0345605D01*
X0016194Y0345700D01*
X0017885Y0346400D01*
X0025715Y0346400D01*
X0027406Y0345700D01*
X0028700Y0344406D01*
X0029400Y0342715D01*
X0029400Y0340885D01*
X0028700Y0339194D01*
X0027406Y0337900D01*
X0025715Y0337200D01*
X0017885Y0337200D01*
X0016194Y0337900D01*
X0016100Y0337995D01*
X0016100Y0335605D01*
X0016194Y0335700D01*
X0017885Y0336400D01*
X0025715Y0336400D01*
X0027406Y0335700D01*
X0028700Y0334406D01*
X0029400Y0332715D01*
X0029400Y0330885D01*
X0028700Y0329194D01*
X0027406Y0327900D01*
X0025715Y0327200D01*
X0017885Y0327200D01*
X0016194Y0327900D01*
X0016100Y0327995D01*
X0016100Y0325605D01*
X0016194Y0325700D01*
X0017885Y0326400D01*
X0025715Y0326400D01*
X0027406Y0325700D01*
X0028700Y0324406D01*
X0029400Y0322715D01*
X0029400Y0320885D01*
X0028700Y0319194D01*
X0027406Y0317900D01*
X0025715Y0317200D01*
X0017885Y0317200D01*
X0016194Y0317900D01*
X0016100Y0317995D01*
X0016100Y0315771D01*
X0016284Y0315905D01*
X0016957Y0316248D01*
X0017676Y0316482D01*
X0018422Y0316600D01*
X0021600Y0316600D01*
X0021600Y0312000D01*
X0022000Y0312000D01*
X0022000Y0316600D01*
X0025178Y0316600D01*
X0025924Y0316482D01*
X0026643Y0316248D01*
X0027316Y0315905D01*
X0027927Y0315461D01*
X0028461Y0314927D01*
X0028905Y0314316D01*
X0029248Y0313643D01*
X0029482Y0312924D01*
X0029600Y0312178D01*
X0029600Y0312000D01*
X0022000Y0312000D01*
X0022000Y0311600D01*
X0029600Y0311600D01*
X0029600Y0311422D01*
X0029482Y0310676D01*
X0029248Y0309957D01*
X0028905Y0309284D01*
X0028461Y0308673D01*
X0027927Y0308139D01*
X0027316Y0307695D01*
X0026643Y0307352D01*
X0025924Y0307118D01*
X0025178Y0307000D01*
X0022000Y0307000D01*
X0022000Y0311600D01*
X0021600Y0311600D01*
X0021600Y0307000D01*
X0020070Y0307000D01*
X0025970Y0301100D01*
X0027316Y0301100D01*
X0028639Y0300552D01*
X0029652Y0299539D01*
X0030000Y0298700D01*
X0078509Y0298700D01*
X0079461Y0299652D01*
X0080784Y0300200D01*
X0082216Y0300200D01*
X0083539Y0299652D01*
X0084552Y0298639D01*
X0085100Y0297316D01*
X0085100Y0295884D01*
X0084552Y0294561D01*
X0083600Y0293609D01*
X0083600Y0280691D01*
X0084552Y0279739D01*
X0085100Y0278416D01*
X0085100Y0276984D01*
X0084775Y0276200D01*
X0100100Y0276200D01*
X0100100Y0323570D01*
X0106255Y0329724D01*
X0103965Y0329724D01*
X0103507Y0329847D01*
X0103096Y0330084D01*
X0102761Y0330419D01*
X0102524Y0330830D01*
X0102402Y0331287D01*
X0102402Y0333210D01*
X0107068Y0333210D01*
X0107068Y0333382D01*
X0102402Y0333382D01*
X0102402Y0335305D01*
X0102524Y0335762D01*
X0102761Y0336173D01*
X0103096Y0336508D01*
X0103507Y0336745D01*
X0103965Y0336868D01*
X0107068Y0336868D01*
X0107068Y0333382D01*
X0107240Y0333382D01*
X0107240Y0336868D01*
X0110344Y0336868D01*
X0110802Y0336745D01*
X0111212Y0336508D01*
X0111547Y0336173D01*
X0111784Y0335762D01*
X0111907Y0335305D01*
X0111907Y0333382D01*
X0107240Y0333382D01*
X0107240Y0333210D01*
X0111907Y0333210D01*
X0111907Y0332677D01*
X0121477Y0342247D01*
X0117318Y0342247D01*
X0116941Y0342624D01*
X0116724Y0342407D01*
X0116314Y0342170D01*
X0115856Y0342047D01*
X0113539Y0342047D01*
X0113539Y0346320D01*
X0112580Y0346320D01*
X0112580Y0342047D01*
X0110264Y0342047D01*
X0109806Y0342170D01*
X0109396Y0342407D01*
X0109060Y0342742D01*
X0108823Y0343152D01*
X0108701Y0343610D01*
X0108701Y0346320D01*
X0112580Y0346320D01*
X0112580Y0347280D01*
X0112580Y0351553D01*
X0110264Y0351553D01*
X0109806Y0351430D01*
X0109396Y0351193D01*
X0109060Y0350858D01*
X0108823Y0350448D01*
X0108701Y0349990D01*
X0108701Y0347280D01*
X0112580Y0347280D01*
X0113539Y0347280D01*
X0113539Y0351553D01*
X0115856Y0351553D01*
X0116314Y0351430D01*
X0116724Y0351193D01*
X0116941Y0350976D01*
X0117318Y0351353D01*
X0123762Y0351353D01*
X0124699Y0350415D01*
X0124699Y0345471D01*
X0125570Y0344600D01*
X0125570Y0344600D01*
X0126800Y0343370D01*
X0126800Y0343370D01*
X0131870Y0338300D01*
X0131870Y0338300D01*
X0133100Y0337070D01*
X0133100Y0324530D01*
X0130998Y0322429D01*
X0130998Y0317870D01*
X0130061Y0316932D01*
X0128600Y0316932D01*
X0128600Y0307370D01*
X0152402Y0283568D01*
X0152402Y0285305D01*
X0152524Y0285762D01*
X0152761Y0286173D01*
X0153096Y0286508D01*
X0153507Y0286745D01*
X0153965Y0286868D01*
X0157068Y0286868D01*
X0157068Y0283382D01*
X0157240Y0283382D01*
X0157240Y0286868D01*
X0160344Y0286868D01*
X0160802Y0286745D01*
X0161212Y0286508D01*
X0161547Y0286173D01*
X0161784Y0285762D01*
X0161907Y0285305D01*
X0161907Y0283382D01*
X0157240Y0283382D01*
X0157240Y0283210D01*
X0161907Y0283210D01*
X0161907Y0281287D01*
X0161784Y0280830D01*
X0161547Y0280419D01*
X0161212Y0280084D01*
X0160802Y0279847D01*
X0160344Y0279724D01*
X0158045Y0279724D01*
X0165170Y0272600D01*
X0171893Y0272600D01*
X0171893Y0272738D01*
X0172830Y0273676D01*
X0180061Y0273676D01*
X0180998Y0272738D01*
X0180998Y0267870D01*
X0180061Y0266932D01*
X0172830Y0266932D01*
X0171893Y0267870D01*
X0171893Y0268400D01*
X0163430Y0268400D01*
X0161707Y0270123D01*
X0161707Y0267870D01*
X0160770Y0266932D01*
X0153539Y0266932D01*
X0152602Y0267870D01*
X0152602Y0272029D01*
X0119900Y0304730D01*
X0119900Y0323570D01*
X0121130Y0324800D01*
X0123500Y0327170D01*
X0123500Y0329924D01*
X0122830Y0329924D01*
X0121893Y0330862D01*
X0121893Y0335730D01*
X0122830Y0336668D01*
X0127562Y0336668D01*
X0124700Y0339530D01*
X0112970Y0327800D01*
X0110270Y0327800D01*
X0106145Y0323676D01*
X0110770Y0323676D01*
X0111707Y0322738D01*
X0111707Y0317870D01*
X0110770Y0316932D01*
X0109700Y0316932D01*
X0109700Y0267475D01*
X0110484Y0267800D01*
X0111916Y0267800D01*
X0113239Y0267252D01*
X0114252Y0266239D01*
X0114800Y0264916D01*
X0114800Y0263570D01*
X0142070Y0236300D01*
X0143416Y0236300D01*
X0144739Y0235752D01*
X0145752Y0234739D01*
X0146300Y0233416D01*
X0146300Y0231984D01*
X0145752Y0230661D01*
X0144739Y0229648D01*
X0143416Y0229100D01*
X0141984Y0229100D01*
X0140661Y0229648D01*
X0139648Y0230661D01*
X0139100Y0231984D01*
X0139100Y0233330D01*
X0111830Y0260600D01*
X0110484Y0260600D01*
X0109700Y0260925D01*
X0109700Y0258770D01*
X0116570Y0251900D01*
X0117800Y0250670D01*
X0117800Y0236668D01*
X0120061Y0236668D01*
X0120998Y0235730D01*
X0120998Y0230862D01*
X0120061Y0229924D01*
X0112830Y0229924D01*
X0111893Y0230862D01*
X0111893Y0235730D01*
X0112830Y0236668D01*
X0113600Y0236668D01*
X0113600Y0242247D01*
X0107318Y0242247D01*
X0106941Y0242624D01*
X0106724Y0242407D01*
X0106314Y0242170D01*
X0105856Y0242047D01*
X0103539Y0242047D01*
X0103539Y0246320D01*
X0102580Y0246320D01*
X0102580Y0242047D01*
X0100264Y0242047D01*
X0099806Y0242170D01*
X0099396Y0242407D01*
X0099060Y0242742D01*
X0098823Y0243152D01*
X0098701Y0243610D01*
X0098701Y0246320D01*
X0102580Y0246320D01*
X0102580Y0247280D01*
X0099049Y0247280D01*
X0094400Y0242630D01*
X0094400Y0236868D01*
X0097068Y0236868D01*
X0097068Y0233382D01*
X0097240Y0233382D01*
X0097240Y0236868D01*
X0100344Y0236868D01*
X0100802Y0236745D01*
X0101212Y0236508D01*
X0101547Y0236173D01*
X0101784Y0235762D01*
X0101907Y0235305D01*
X0101907Y0233382D01*
X0097240Y0233382D01*
X0097240Y0233210D01*
X0097240Y0229724D01*
X0100344Y0229724D01*
X0100802Y0229847D01*
X0101212Y0230084D01*
X0101547Y0230419D01*
X0101784Y0230830D01*
X0101907Y0231287D01*
X0101907Y0233210D01*
X0097240Y0233210D01*
X0097068Y0233210D01*
X0097068Y0229724D01*
X0094400Y0229724D01*
X0094400Y0223676D01*
X0097406Y0223676D01*
X0099530Y0225800D01*
X0164270Y0225800D01*
X0165500Y0224570D01*
X0168200Y0221870D01*
X0168200Y0186668D01*
X0170061Y0186668D01*
X0170998Y0185730D01*
X0170998Y0180862D01*
X0170061Y0179924D01*
X0162830Y0179924D01*
X0161893Y0180862D01*
X0161893Y0185730D01*
X0162830Y0186668D01*
X0164000Y0186668D01*
X0164000Y0215925D01*
X0163216Y0215600D01*
X0161784Y0215600D01*
X0160461Y0216148D01*
X0159509Y0217100D01*
X0125891Y0217100D01*
X0124939Y0216148D01*
X0123616Y0215600D01*
X0122184Y0215600D01*
X0120861Y0216148D01*
X0120069Y0216940D01*
X0120061Y0216932D01*
X0115502Y0216932D01*
X0112970Y0214400D01*
X0109700Y0214400D01*
X0109700Y0168770D01*
X0111170Y0167300D01*
X0143171Y0167300D01*
X0142602Y0167870D01*
X0142602Y0172738D01*
X0143539Y0173676D01*
X0150770Y0173676D01*
X0151707Y0172738D01*
X0151707Y0172700D01*
X0156230Y0172700D01*
X0162200Y0178670D01*
X0163430Y0179900D01*
X0170630Y0179900D01*
X0185763Y0195033D01*
X0184761Y0195448D01*
X0183748Y0196461D01*
X0183200Y0197784D01*
X0183200Y0199216D01*
X0183748Y0200539D01*
X0184700Y0201491D01*
X0184700Y0210809D01*
X0183748Y0211761D01*
X0183200Y0213084D01*
X0183200Y0214516D01*
X0183748Y0215839D01*
X0184761Y0216852D01*
X0186084Y0217400D01*
X0187516Y0217400D01*
X0188839Y0216852D01*
X0189852Y0215839D01*
X0190400Y0214516D01*
X0190400Y0213084D01*
X0189852Y0211761D01*
X0188900Y0210809D01*
X0188900Y0201491D01*
X0189852Y0200539D01*
X0190267Y0199537D01*
X0207662Y0216932D01*
X0203539Y0216932D01*
X0202602Y0217870D01*
X0202602Y0222738D01*
X0203539Y0223676D01*
X0205400Y0223676D01*
X0205400Y0227270D01*
X0207855Y0229724D01*
X0207240Y0229724D01*
X0207240Y0233210D01*
X0207068Y0233210D01*
X0207068Y0229724D01*
X0204216Y0229724D01*
X0203239Y0228748D01*
X0201916Y0228200D01*
X0200484Y0228200D01*
X0199161Y0228748D01*
X0198148Y0229761D01*
X0197600Y0231084D01*
X0197600Y0232430D01*
X0192200Y0237830D01*
X0192200Y0237384D01*
X0191652Y0236061D01*
X0190639Y0235048D01*
X0189316Y0234500D01*
X0187970Y0234500D01*
X0174500Y0221030D01*
X0174500Y0204191D01*
X0175452Y0203239D01*
X0176000Y0201916D01*
X0176000Y0200484D01*
X0175452Y0199161D01*
X0174439Y0198148D01*
X0173116Y0197600D01*
X0171684Y0197600D01*
X0170361Y0198148D01*
X0169348Y0199161D01*
X0168800Y0200484D01*
X0168800Y0201916D01*
X0169348Y0203239D01*
X0170300Y0204191D01*
X0170300Y0222770D01*
X0185000Y0237470D01*
X0185000Y0238816D01*
X0185325Y0239600D01*
X0167291Y0239600D01*
X0166339Y0238648D01*
X0165016Y0238100D01*
X0163584Y0238100D01*
X0162261Y0238648D01*
X0161248Y0239661D01*
X0160700Y0240984D01*
X0160700Y0242416D01*
X0161248Y0243739D01*
X0162261Y0244752D01*
X0163584Y0245300D01*
X0165016Y0245300D01*
X0166339Y0244752D01*
X0167291Y0243800D01*
X0192170Y0243800D01*
X0193400Y0242570D01*
X0193400Y0242570D01*
X0200570Y0235400D01*
X0201916Y0235400D01*
X0202402Y0235199D01*
X0202402Y0235305D01*
X0202524Y0235762D01*
X0202761Y0236173D01*
X0203096Y0236508D01*
X0203507Y0236745D01*
X0203965Y0236868D01*
X0207068Y0236868D01*
X0207068Y0233382D01*
X0207240Y0233382D01*
X0207240Y0236868D01*
X0209900Y0236868D01*
X0209900Y0239030D01*
X0207530Y0241400D01*
X0206300Y0242630D01*
X0206300Y0299630D01*
X0203300Y0296630D01*
X0203300Y0281330D01*
X0202070Y0280100D01*
X0196353Y0274383D01*
X0196353Y0269838D01*
X0195415Y0268901D01*
X0188184Y0268901D01*
X0187247Y0269838D01*
X0187247Y0276282D01*
X0187624Y0276659D01*
X0187407Y0276876D01*
X0187170Y0277286D01*
X0187047Y0277744D01*
X0187047Y0280061D01*
X0191320Y0280061D01*
X0191320Y0281020D01*
X0187047Y0281020D01*
X0187047Y0283336D01*
X0187170Y0283794D01*
X0187407Y0284204D01*
X0187742Y0284540D01*
X0188152Y0284777D01*
X0188610Y0284899D01*
X0191320Y0284899D01*
X0191320Y0281020D01*
X0192280Y0281020D01*
X0196553Y0281020D01*
X0196553Y0283336D01*
X0196430Y0283794D01*
X0196193Y0284204D01*
X0195858Y0284540D01*
X0195448Y0284777D01*
X0194990Y0284899D01*
X0192280Y0284899D01*
X0192280Y0281020D01*
X0192280Y0280061D01*
X0196091Y0280061D01*
X0199100Y0283070D01*
X0199100Y0298370D01*
X0213530Y0312800D01*
X0210800Y0315530D01*
X0210800Y0323570D01*
X0212030Y0324800D01*
X0212930Y0325700D01*
X0213830Y0325700D01*
X0217855Y0329724D01*
X0217240Y0329724D01*
X0217240Y0333210D01*
X0217068Y0333210D01*
X0212402Y0333210D01*
X0212402Y0331287D01*
X0212524Y0330830D01*
X0212761Y0330419D01*
X0213096Y0330084D01*
X0213507Y0329847D01*
X0213965Y0329724D01*
X0217068Y0329724D01*
X0217068Y0333210D01*
X0217068Y0333382D01*
X0212402Y0333382D01*
X0212402Y0335305D01*
X0212524Y0335762D01*
X0212761Y0336173D01*
X0213096Y0336508D01*
X0213507Y0336745D01*
X0213965Y0336868D01*
X0216462Y0336868D01*
X0193130Y0360200D01*
X0193130Y0360200D01*
X0191900Y0361430D01*
X0191900Y0361430D01*
X0186398Y0366932D01*
X0182830Y0366932D01*
X0181893Y0367870D01*
X0181893Y0372738D01*
X0182830Y0373676D01*
X0190061Y0373676D01*
X0190998Y0372738D01*
X0190998Y0368271D01*
X0193233Y0366037D01*
X0193648Y0367039D01*
X0194661Y0368052D01*
X0195663Y0368467D01*
X0184700Y0379430D01*
X0184700Y0379924D01*
X0182830Y0379924D01*
X0181893Y0380862D01*
X0181893Y0385730D01*
X0182462Y0386300D01*
X0182270Y0386300D01*
X0179000Y0383030D01*
X0179000Y0286668D01*
X0180061Y0286668D01*
X0180998Y0285730D01*
X0180998Y0280862D01*
X0180061Y0279924D01*
X0172830Y0279924D01*
X0171893Y0280862D01*
X0171893Y0285730D01*
X0172830Y0286668D01*
X0174800Y0286668D01*
X0174800Y0384770D01*
X0179300Y0389270D01*
X0180530Y0390500D01*
X0254570Y0390500D01*
X0270770Y0374300D01*
X0304857Y0374300D01*
X0304900Y0374406D01*
X0306194Y0375700D01*
X0307885Y0376400D01*
X0313730Y0376400D01*
X0312930Y0377200D01*
X0307885Y0377200D01*
X0306194Y0377900D01*
X0304900Y0379194D01*
X0304200Y0380885D01*
X0304200Y0382715D01*
X0304900Y0384406D01*
X0306194Y0385700D01*
X0307885Y0386400D01*
X0315715Y0386400D01*
X0317406Y0385700D01*
X0318700Y0384406D01*
X0319400Y0382715D01*
X0319400Y0380885D01*
X0318700Y0379194D01*
X0317788Y0378282D01*
X0321200Y0374870D01*
X0321200Y0292130D01*
X0319237Y0290167D01*
X0320239Y0289752D01*
X0321252Y0288739D01*
X0321800Y0287416D01*
X0321800Y0285984D01*
X0321252Y0284661D01*
X0320239Y0283648D01*
X0318916Y0283100D01*
X0317570Y0283100D01*
X0224600Y0190130D01*
X0224600Y0188784D01*
X0224052Y0187461D01*
X0223039Y0186448D01*
X0221716Y0185900D01*
X0220370Y0185900D01*
X0225470Y0180800D01*
X0254009Y0180800D01*
X0254961Y0181752D01*
X0256284Y0182300D01*
X0257716Y0182300D01*
X0259039Y0181752D01*
X0260052Y0180739D01*
X0260467Y0179737D01*
X0264200Y0183470D01*
X0264200Y0184816D01*
X0264748Y0186139D01*
X0265761Y0187152D01*
X0267084Y0187700D01*
X0268516Y0187700D01*
X0269839Y0187152D01*
X0270852Y0186139D01*
X0271400Y0184816D01*
X0271400Y0183384D01*
X0270852Y0182061D01*
X0269839Y0181048D01*
X0268516Y0180500D01*
X0267170Y0180500D01*
X0247100Y0160430D01*
X0247100Y0159084D01*
X0246552Y0157761D01*
X0245539Y0156748D01*
X0244216Y0156200D01*
X0242784Y0156200D01*
X0241461Y0156748D01*
X0240448Y0157761D01*
X0239900Y0159084D01*
X0239900Y0160516D01*
X0240448Y0161839D01*
X0241461Y0162852D01*
X0242784Y0163400D01*
X0244130Y0163400D01*
X0255963Y0175233D01*
X0254961Y0175648D01*
X0254009Y0176600D01*
X0228775Y0176600D01*
X0229100Y0175816D01*
X0229100Y0174384D01*
X0228552Y0173061D01*
X0227539Y0172048D01*
X0226216Y0171500D01*
X0224784Y0171500D01*
X0223461Y0172048D01*
X0222448Y0173061D01*
X0221900Y0174384D01*
X0221900Y0175730D01*
X0218330Y0179300D01*
X0206891Y0179300D01*
X0205939Y0178348D01*
X0204616Y0177800D01*
X0203184Y0177800D01*
X0201861Y0178348D01*
X0200848Y0179361D01*
X0200300Y0180684D01*
X0200300Y0181130D01*
X0179900Y0160730D01*
X0178670Y0159500D01*
X0159475Y0159500D01*
X0159800Y0158716D01*
X0159800Y0157284D01*
X0159252Y0155961D01*
X0158239Y0154948D01*
X0156916Y0154400D01*
X0155484Y0154400D01*
X0154161Y0154948D01*
X0153209Y0155900D01*
X0113930Y0155900D01*
X0112700Y0157130D01*
X0103700Y0166130D01*
X0103700Y0189530D01*
X0092167Y0201063D01*
X0091752Y0200061D01*
X0090739Y0199048D01*
X0089416Y0198500D01*
X0087984Y0198500D01*
X0086661Y0199048D01*
X0085648Y0200061D01*
X0085100Y0201384D01*
X0085100Y0202730D01*
X0047030Y0240800D01*
X0045684Y0240800D01*
X0044361Y0241348D01*
X0043348Y0242361D01*
X0042800Y0243684D01*
X0042800Y0245116D01*
X0043348Y0246439D01*
X0044361Y0247452D01*
X0045684Y0248000D01*
X0047116Y0248000D01*
X0048439Y0247452D01*
X0049452Y0246439D01*
X0050000Y0245116D01*
X0050000Y0243770D01*
X0058700Y0235070D01*
X0058700Y0281909D01*
X0057748Y0282861D01*
X0057200Y0284184D01*
X0057200Y0285616D01*
X0057525Y0286400D01*
X0029330Y0286400D01*
X0028100Y0287630D01*
X0011600Y0304130D01*
X0011600Y0146981D01*
X0012914Y0149256D01*
X0012914Y0149256D01*
X0016000Y0151846D01*
X0016000Y0151846D01*
X0019786Y0153224D01*
X0023814Y0153224D01*
X0027600Y0151846D01*
X0027600Y0151846D01*
X0030686Y0149256D01*
X0030686Y0149256D01*
X0032700Y0145767D01*
X0032700Y0145767D01*
X0033400Y0141800D01*
X0032700Y0137833D01*
X0032700Y0137833D01*
X0030686Y0134344D01*
X0030686Y0134344D01*
X0027600Y0131754D01*
X0027600Y0131754D01*
X0023814Y0130376D01*
X0019786Y0130376D01*
X0016000Y0131754D01*
X0016000Y0131754D01*
X0012914Y0134344D01*
X0012914Y0134344D01*
X0011600Y0136619D01*
X0011600Y0136279D02*
X0011796Y0136279D01*
X0011600Y0134681D02*
X0012719Y0134681D01*
X0012914Y0134344D02*
X0012914Y0134344D01*
X0011600Y0133082D02*
X0014417Y0133082D01*
X0016742Y0131484D02*
X0011600Y0131484D01*
X0011600Y0129885D02*
X0030616Y0129885D01*
X0032214Y0131484D02*
X0026858Y0131484D01*
X0029183Y0133082D02*
X0033813Y0133082D01*
X0035411Y0134681D02*
X0030881Y0134681D01*
X0031804Y0136279D02*
X0037010Y0136279D01*
X0038608Y0137878D02*
X0032708Y0137878D01*
X0032990Y0139476D02*
X0040207Y0139476D01*
X0041805Y0141075D02*
X0033272Y0141075D01*
X0033246Y0142673D02*
X0043404Y0142673D01*
X0045002Y0144272D02*
X0032964Y0144272D01*
X0032641Y0145870D02*
X0046601Y0145870D01*
X0048199Y0147469D02*
X0031718Y0147469D01*
X0030795Y0149068D02*
X0049798Y0149068D01*
X0051396Y0150666D02*
X0029006Y0150666D01*
X0030686Y0149256D02*
X0030686Y0149256D01*
X0026450Y0152265D02*
X0052995Y0152265D01*
X0054593Y0153863D02*
X0011600Y0153863D01*
X0011600Y0152265D02*
X0017150Y0152265D01*
X0014594Y0150666D02*
X0011600Y0150666D01*
X0011600Y0149068D02*
X0012805Y0149068D01*
X0011882Y0147469D02*
X0011600Y0147469D01*
X0011600Y0155462D02*
X0056192Y0155462D01*
X0057790Y0157060D02*
X0011600Y0157060D01*
X0011600Y0158659D02*
X0059389Y0158659D01*
X0060987Y0160257D02*
X0011600Y0160257D01*
X0011600Y0161856D02*
X0062586Y0161856D01*
X0064184Y0163454D02*
X0011600Y0163454D01*
X0011600Y0165053D02*
X0065783Y0165053D01*
X0067381Y0166651D02*
X0011600Y0166651D01*
X0011600Y0168250D02*
X0068980Y0168250D01*
X0070578Y0169848D02*
X0011600Y0169848D01*
X0011600Y0171447D02*
X0078583Y0171447D01*
X0078922Y0169848D02*
X0080182Y0169848D01*
X0080520Y0168250D02*
X0081780Y0168250D01*
X0082119Y0166651D02*
X0083379Y0166651D01*
X0083717Y0165053D02*
X0084978Y0165053D01*
X0085316Y0163454D02*
X0086576Y0163454D01*
X0086914Y0161856D02*
X0088175Y0161856D01*
X0088513Y0160257D02*
X0089773Y0160257D01*
X0090111Y0158659D02*
X0091372Y0158659D01*
X0091710Y0157060D02*
X0092970Y0157060D01*
X0093308Y0155462D02*
X0094569Y0155462D01*
X0094907Y0153863D02*
X0096167Y0153863D01*
X0096505Y0152265D02*
X0097766Y0152265D01*
X0098104Y0150666D02*
X0099364Y0150666D01*
X0099702Y0149068D02*
X0100963Y0149068D01*
X0101301Y0147469D02*
X0102561Y0147469D01*
X0102899Y0145870D02*
X0104160Y0145870D01*
X0104498Y0144272D02*
X0105758Y0144272D01*
X0106096Y0142673D02*
X0107357Y0142673D01*
X0107695Y0141075D02*
X0108955Y0141075D01*
X0108800Y0139476D02*
X0110300Y0139476D01*
X0110510Y0137878D02*
X0108800Y0137878D01*
X0111698Y0144272D02*
X0300636Y0144272D01*
X0300354Y0142673D02*
X0114680Y0142673D01*
X0116979Y0141075D02*
X0300328Y0141075D01*
X0300610Y0139476D02*
X0117500Y0139476D01*
X0117290Y0137878D02*
X0300892Y0137878D01*
X0301796Y0136279D02*
X0157490Y0136279D01*
X0159089Y0134681D02*
X0302719Y0134681D01*
X0302914Y0134344D02*
X0302914Y0134344D01*
X0304417Y0133082D02*
X0252487Y0133082D01*
X0254086Y0131484D02*
X0306742Y0131484D01*
X0305209Y0128287D02*
X0298391Y0128287D01*
X0300398Y0126688D02*
X0303202Y0126688D01*
X0302600Y0125090D02*
X0301000Y0125090D01*
X0301000Y0123491D02*
X0302600Y0123491D01*
X0302523Y0121893D02*
X0301000Y0121893D01*
X0302069Y0115499D02*
X0304760Y0115499D01*
X0308840Y0115499D02*
X0321961Y0115499D01*
X0321961Y0117097D02*
X0310475Y0117097D01*
X0311000Y0118696D02*
X0321961Y0118696D01*
X0321961Y0120294D02*
X0311000Y0120294D01*
X0311000Y0121893D02*
X0321961Y0121893D01*
X0321961Y0123491D02*
X0311000Y0123491D01*
X0311000Y0125090D02*
X0321961Y0125090D01*
X0321961Y0126688D02*
X0310398Y0126688D01*
X0308391Y0128287D02*
X0321961Y0128287D01*
X0321961Y0129885D02*
X0255684Y0129885D01*
X0257283Y0128287D02*
X0265209Y0128287D01*
X0263202Y0126688D02*
X0258881Y0126688D01*
X0260480Y0125090D02*
X0262600Y0125090D01*
X0268391Y0128287D02*
X0275209Y0128287D01*
X0273202Y0126688D02*
X0270398Y0126688D01*
X0271000Y0125090D02*
X0272600Y0125090D01*
X0272600Y0123491D02*
X0271000Y0123491D01*
X0271000Y0121893D02*
X0272600Y0121893D01*
X0272600Y0120294D02*
X0271000Y0120294D01*
X0271000Y0118696D02*
X0271426Y0118696D01*
X0278840Y0115499D02*
X0284760Y0115499D01*
X0283125Y0117097D02*
X0280475Y0117097D01*
X0281000Y0118696D02*
X0282600Y0118696D01*
X0282600Y0120294D02*
X0281000Y0120294D01*
X0281000Y0121893D02*
X0282600Y0121893D01*
X0282600Y0123491D02*
X0281000Y0123491D01*
X0281000Y0125090D02*
X0282600Y0125090D01*
X0283202Y0126688D02*
X0280398Y0126688D01*
X0278391Y0128287D02*
X0285209Y0128287D01*
X0288391Y0128287D02*
X0295209Y0128287D01*
X0293202Y0126688D02*
X0290398Y0126688D01*
X0291000Y0125090D02*
X0292600Y0125090D01*
X0292600Y0123491D02*
X0291000Y0123491D01*
X0291000Y0121893D02*
X0292600Y0121893D01*
X0292600Y0120294D02*
X0291000Y0120294D01*
X0291000Y0118696D02*
X0291226Y0118696D01*
X0298872Y0112302D02*
X0321961Y0112302D01*
X0321961Y0113900D02*
X0300470Y0113900D01*
X0297273Y0110703D02*
X0321961Y0110703D01*
X0321961Y0109105D02*
X0295675Y0109105D01*
X0316858Y0131484D02*
X0321961Y0131484D01*
X0321961Y0133082D02*
X0319183Y0133082D01*
X0320881Y0134681D02*
X0321961Y0134681D01*
X0321961Y0136279D02*
X0321804Y0136279D01*
X0321718Y0147469D02*
X0321961Y0147469D01*
X0321961Y0149068D02*
X0320795Y0149068D01*
X0320686Y0149256D02*
X0320686Y0149256D01*
X0321961Y0150666D02*
X0319006Y0150666D01*
X0316450Y0152265D02*
X0321961Y0152265D01*
X0321961Y0153863D02*
X0102107Y0153863D01*
X0103705Y0152265D02*
X0307150Y0152265D01*
X0304594Y0150666D02*
X0105304Y0150666D01*
X0106902Y0149068D02*
X0302805Y0149068D01*
X0301882Y0147469D02*
X0108501Y0147469D01*
X0110099Y0145870D02*
X0300959Y0145870D01*
X0321961Y0155462D02*
X0158753Y0155462D01*
X0159707Y0157060D02*
X0241149Y0157060D01*
X0240076Y0158659D02*
X0159800Y0158659D01*
X0153647Y0155462D02*
X0100508Y0155462D01*
X0098910Y0157060D02*
X0112770Y0157060D01*
X0111172Y0158659D02*
X0097311Y0158659D01*
X0095713Y0160257D02*
X0109573Y0160257D01*
X0107975Y0161856D02*
X0094114Y0161856D01*
X0092516Y0163454D02*
X0106376Y0163454D01*
X0104778Y0165053D02*
X0090917Y0165053D01*
X0089319Y0166651D02*
X0103700Y0166651D01*
X0103700Y0168250D02*
X0087720Y0168250D01*
X0086122Y0169848D02*
X0103700Y0169848D01*
X0103700Y0171447D02*
X0084523Y0171447D01*
X0082925Y0173045D02*
X0103700Y0173045D01*
X0103700Y0174644D02*
X0081326Y0174644D01*
X0079728Y0176242D02*
X0103700Y0176242D01*
X0103700Y0177841D02*
X0078129Y0177841D01*
X0076531Y0179439D02*
X0103700Y0179439D01*
X0103700Y0181038D02*
X0074932Y0181038D01*
X0073334Y0182636D02*
X0103700Y0182636D01*
X0103700Y0184235D02*
X0071900Y0184235D01*
X0072124Y0185833D02*
X0103700Y0185833D01*
X0103700Y0187432D02*
X0073213Y0187432D01*
X0073400Y0189030D02*
X0103700Y0189030D01*
X0102601Y0190629D02*
X0072856Y0190629D01*
X0066744Y0190629D02*
X0011600Y0190629D01*
X0011600Y0192227D02*
X0101003Y0192227D01*
X0099404Y0193826D02*
X0011600Y0193826D01*
X0011600Y0195424D02*
X0097806Y0195424D01*
X0096207Y0197023D02*
X0011600Y0197023D01*
X0011600Y0198621D02*
X0087691Y0198621D01*
X0089709Y0198621D02*
X0094609Y0198621D01*
X0093010Y0200220D02*
X0091818Y0200220D01*
X0095753Y0203417D02*
X0105500Y0203417D01*
X0105500Y0205015D02*
X0094154Y0205015D01*
X0092556Y0206614D02*
X0105500Y0206614D01*
X0105500Y0208212D02*
X0090957Y0208212D01*
X0089359Y0209811D02*
X0105500Y0209811D01*
X0105500Y0211409D02*
X0087760Y0211409D01*
X0086162Y0213008D02*
X0105500Y0213008D01*
X0105500Y0214400D02*
X0105500Y0193670D01*
X0062900Y0236270D01*
X0062900Y0281909D01*
X0063852Y0282861D01*
X0064400Y0284184D01*
X0064400Y0285616D01*
X0064075Y0286400D01*
X0064430Y0286400D01*
X0077600Y0273230D01*
X0078830Y0272000D01*
X0100100Y0272000D01*
X0100100Y0253700D01*
X0099530Y0253700D01*
X0091430Y0245600D01*
X0090200Y0244370D01*
X0090200Y0217430D01*
X0092000Y0215630D01*
X0093230Y0214400D01*
X0105500Y0214400D01*
X0109700Y0213008D02*
X0164000Y0213008D01*
X0164000Y0214606D02*
X0113176Y0214606D01*
X0114775Y0216205D02*
X0120804Y0216205D01*
X0124996Y0216205D02*
X0160404Y0216205D01*
X0164000Y0211409D02*
X0109700Y0211409D01*
X0109700Y0209811D02*
X0164000Y0209811D01*
X0164000Y0208212D02*
X0109700Y0208212D01*
X0109700Y0206614D02*
X0164000Y0206614D01*
X0164000Y0205015D02*
X0109700Y0205015D01*
X0109700Y0203417D02*
X0164000Y0203417D01*
X0164000Y0201818D02*
X0109700Y0201818D01*
X0109700Y0200220D02*
X0164000Y0200220D01*
X0164000Y0198621D02*
X0109700Y0198621D01*
X0109700Y0197023D02*
X0164000Y0197023D01*
X0164000Y0195424D02*
X0109700Y0195424D01*
X0109700Y0193826D02*
X0164000Y0193826D01*
X0164000Y0192227D02*
X0109700Y0192227D01*
X0109700Y0190629D02*
X0164000Y0190629D01*
X0164000Y0189030D02*
X0109700Y0189030D01*
X0109700Y0187432D02*
X0164000Y0187432D01*
X0161996Y0185833D02*
X0151744Y0185833D01*
X0151784Y0185762D02*
X0151547Y0186173D01*
X0151212Y0186508D01*
X0150802Y0186745D01*
X0150344Y0186868D01*
X0147240Y0186868D01*
X0147240Y0183382D01*
X0147068Y0183382D01*
X0147068Y0183210D01*
X0142402Y0183210D01*
X0142402Y0181287D01*
X0142524Y0180830D01*
X0142761Y0180419D01*
X0143096Y0180084D01*
X0143507Y0179847D01*
X0143965Y0179724D01*
X0147068Y0179724D01*
X0147068Y0183210D01*
X0147240Y0183210D01*
X0147240Y0179724D01*
X0150344Y0179724D01*
X0150802Y0179847D01*
X0151212Y0180084D01*
X0151547Y0180419D01*
X0151784Y0180830D01*
X0151907Y0181287D01*
X0151907Y0183210D01*
X0147240Y0183210D01*
X0147240Y0183382D01*
X0151907Y0183382D01*
X0151907Y0185305D01*
X0151784Y0185762D01*
X0151907Y0184235D02*
X0161893Y0184235D01*
X0161893Y0182636D02*
X0151907Y0182636D01*
X0151840Y0181038D02*
X0161893Y0181038D01*
X0162969Y0179439D02*
X0109700Y0179439D01*
X0109700Y0177841D02*
X0161371Y0177841D01*
X0159772Y0176242D02*
X0109700Y0176242D01*
X0109700Y0174644D02*
X0158174Y0174644D01*
X0156575Y0173045D02*
X0151400Y0173045D01*
X0147240Y0181038D02*
X0147068Y0181038D01*
X0147068Y0182636D02*
X0147240Y0182636D01*
X0147068Y0183382D02*
X0142402Y0183382D01*
X0142402Y0185305D01*
X0142524Y0185762D01*
X0142761Y0186173D01*
X0143096Y0186508D01*
X0143507Y0186745D01*
X0143965Y0186868D01*
X0147068Y0186868D01*
X0147068Y0183382D01*
X0147068Y0184235D02*
X0147240Y0184235D01*
X0147240Y0185833D02*
X0147068Y0185833D01*
X0142565Y0185833D02*
X0109700Y0185833D01*
X0109700Y0184235D02*
X0142402Y0184235D01*
X0142402Y0182636D02*
X0109700Y0182636D01*
X0109700Y0181038D02*
X0142468Y0181038D01*
X0142908Y0173045D02*
X0109700Y0173045D01*
X0109700Y0171447D02*
X0142602Y0171447D01*
X0142602Y0169848D02*
X0109700Y0169848D01*
X0110220Y0168250D02*
X0142602Y0168250D01*
X0163145Y0173676D02*
X0165170Y0175700D01*
X0172370Y0175700D01*
X0177690Y0181020D01*
X0181320Y0181020D01*
X0181320Y0180061D01*
X0177047Y0180061D01*
X0177047Y0177744D01*
X0177170Y0177286D01*
X0177407Y0176876D01*
X0177624Y0176659D01*
X0177247Y0176282D01*
X0177247Y0172700D01*
X0170998Y0172700D01*
X0170998Y0172738D01*
X0170061Y0173676D01*
X0163145Y0173676D01*
X0164114Y0174644D02*
X0177247Y0174644D01*
X0177247Y0176242D02*
X0172912Y0176242D01*
X0174511Y0177841D02*
X0177047Y0177841D01*
X0177047Y0179439D02*
X0176109Y0179439D01*
X0173366Y0182636D02*
X0170998Y0182636D01*
X0170998Y0181038D02*
X0171768Y0181038D01*
X0170998Y0184235D02*
X0174965Y0184235D01*
X0176563Y0185833D02*
X0170896Y0185833D01*
X0168200Y0187432D02*
X0178162Y0187432D01*
X0179760Y0189030D02*
X0168200Y0189030D01*
X0168200Y0190629D02*
X0181359Y0190629D01*
X0182957Y0192227D02*
X0168200Y0192227D01*
X0168200Y0193826D02*
X0184556Y0193826D01*
X0184818Y0195424D02*
X0168200Y0195424D01*
X0168200Y0197023D02*
X0183515Y0197023D01*
X0183200Y0198621D02*
X0174913Y0198621D01*
X0175891Y0200220D02*
X0183616Y0200220D01*
X0184700Y0201818D02*
X0176000Y0201818D01*
X0175274Y0203417D02*
X0184700Y0203417D01*
X0184700Y0205015D02*
X0174500Y0205015D01*
X0174500Y0206614D02*
X0184700Y0206614D01*
X0184700Y0208212D02*
X0174500Y0208212D01*
X0174500Y0209811D02*
X0184700Y0209811D01*
X0184099Y0211409D02*
X0174500Y0211409D01*
X0174500Y0213008D02*
X0183231Y0213008D01*
X0183237Y0214606D02*
X0174500Y0214606D01*
X0174500Y0216205D02*
X0184114Y0216205D01*
X0189486Y0216205D02*
X0206935Y0216205D01*
X0205337Y0214606D02*
X0190363Y0214606D01*
X0190369Y0213008D02*
X0203738Y0213008D01*
X0202140Y0211409D02*
X0189501Y0211409D01*
X0188900Y0209811D02*
X0200541Y0209811D01*
X0198943Y0208212D02*
X0188900Y0208212D01*
X0188900Y0206614D02*
X0197344Y0206614D01*
X0195746Y0205015D02*
X0188900Y0205015D01*
X0188900Y0203417D02*
X0194147Y0203417D01*
X0192549Y0201818D02*
X0188900Y0201818D01*
X0189984Y0200220D02*
X0190950Y0200220D01*
X0193693Y0197023D02*
X0203053Y0197023D01*
X0204652Y0198621D02*
X0195291Y0198621D01*
X0196890Y0200220D02*
X0206250Y0200220D01*
X0207849Y0201818D02*
X0198488Y0201818D01*
X0200087Y0203417D02*
X0209447Y0203417D01*
X0211046Y0205015D02*
X0201685Y0205015D01*
X0203284Y0206614D02*
X0212644Y0206614D01*
X0214243Y0208212D02*
X0204882Y0208212D01*
X0206481Y0209811D02*
X0215841Y0209811D01*
X0217440Y0211409D02*
X0208079Y0211409D01*
X0209678Y0213008D02*
X0219038Y0213008D01*
X0220637Y0214606D02*
X0211276Y0214606D01*
X0212875Y0216205D02*
X0222235Y0216205D01*
X0222830Y0216932D02*
X0222962Y0216932D01*
X0186091Y0180061D01*
X0182280Y0180061D01*
X0182280Y0181020D01*
X0186553Y0181020D01*
X0186553Y0183336D01*
X0186430Y0183794D01*
X0186193Y0184204D01*
X0185858Y0184540D01*
X0185448Y0184777D01*
X0184990Y0184899D01*
X0182280Y0184899D01*
X0182280Y0181020D01*
X0181320Y0181020D01*
X0181320Y0184651D01*
X0226594Y0229924D01*
X0229655Y0229924D01*
X0225200Y0225470D01*
X0225200Y0223676D01*
X0222830Y0223676D01*
X0221893Y0222738D01*
X0221893Y0217870D01*
X0222830Y0216932D01*
X0221959Y0217803D02*
X0214473Y0217803D01*
X0216072Y0219402D02*
X0221893Y0219402D01*
X0221893Y0221001D02*
X0217670Y0221001D01*
X0219269Y0222599D02*
X0221893Y0222599D01*
X0220867Y0224198D02*
X0225200Y0224198D01*
X0225526Y0225796D02*
X0222466Y0225796D01*
X0224064Y0227395D02*
X0227125Y0227395D01*
X0225663Y0228993D02*
X0228723Y0228993D01*
X0231466Y0225796D02*
X0237226Y0225796D01*
X0235628Y0224198D02*
X0229867Y0224198D01*
X0230061Y0223676D02*
X0229400Y0223676D01*
X0229400Y0223730D01*
X0233570Y0227900D01*
X0234800Y0229130D01*
X0234800Y0238070D01*
X0225800Y0247070D01*
X0225800Y0306530D01*
X0236202Y0316932D01*
X0240061Y0316932D01*
X0240998Y0317870D01*
X0240998Y0321729D01*
X0242900Y0323630D01*
X0242900Y0337070D01*
X0241670Y0338300D01*
X0240770Y0339200D01*
X0232730Y0339200D01*
X0231500Y0337970D01*
X0229700Y0336170D01*
X0229700Y0328970D01*
X0221707Y0320977D01*
X0221707Y0322237D01*
X0225800Y0326330D01*
X0225800Y0337070D01*
X0224570Y0338300D01*
X0224570Y0338300D01*
X0221300Y0341570D01*
X0221300Y0342047D01*
X0222580Y0342047D01*
X0222580Y0346320D01*
X0223539Y0346320D01*
X0223539Y0342047D01*
X0225856Y0342047D01*
X0226314Y0342170D01*
X0226724Y0342407D01*
X0226941Y0342624D01*
X0227318Y0342247D01*
X0233762Y0342247D01*
X0234699Y0343184D01*
X0234699Y0350415D01*
X0233762Y0351353D01*
X0233000Y0351353D01*
X0233000Y0370109D01*
X0233952Y0371061D01*
X0234500Y0372384D01*
X0234500Y0373816D01*
X0233952Y0375139D01*
X0232939Y0376152D01*
X0231616Y0376700D01*
X0230184Y0376700D01*
X0228861Y0376152D01*
X0227848Y0375139D01*
X0227300Y0373816D01*
X0227300Y0372384D01*
X0227848Y0371061D01*
X0228800Y0370109D01*
X0228800Y0351353D01*
X0227318Y0351353D01*
X0226941Y0350976D01*
X0226724Y0351193D01*
X0226314Y0351430D01*
X0225856Y0351553D01*
X0223539Y0351553D01*
X0223539Y0347280D01*
X0222580Y0347280D01*
X0222580Y0351553D01*
X0220264Y0351553D01*
X0219806Y0351430D01*
X0219396Y0351193D01*
X0219136Y0350934D01*
X0201169Y0368901D01*
X0205415Y0368901D01*
X0206353Y0369838D01*
X0206353Y0371000D01*
X0208109Y0371000D01*
X0209061Y0370048D01*
X0210384Y0369500D01*
X0211816Y0369500D01*
X0213139Y0370048D01*
X0214152Y0371061D01*
X0214700Y0372384D01*
X0214700Y0373816D01*
X0214152Y0375139D01*
X0213139Y0376152D01*
X0211816Y0376700D01*
X0210384Y0376700D01*
X0209061Y0376152D01*
X0208109Y0375200D01*
X0206353Y0375200D01*
X0206353Y0376282D01*
X0205976Y0376659D01*
X0206193Y0376876D01*
X0206430Y0377286D01*
X0206553Y0377744D01*
X0206553Y0380061D01*
X0202280Y0380061D01*
X0202280Y0381020D01*
X0206553Y0381020D01*
X0206553Y0383336D01*
X0206430Y0383794D01*
X0206193Y0384204D01*
X0205858Y0384540D01*
X0205448Y0384777D01*
X0204990Y0384899D01*
X0202280Y0384899D01*
X0202280Y0381020D01*
X0201320Y0381020D01*
X0201320Y0380061D01*
X0197047Y0380061D01*
X0197047Y0377744D01*
X0197170Y0377286D01*
X0197407Y0376876D01*
X0197624Y0376659D01*
X0197247Y0376282D01*
X0197247Y0372823D01*
X0190103Y0379967D01*
X0190998Y0380862D01*
X0190998Y0385730D01*
X0190429Y0386300D01*
X0252830Y0386300D01*
X0267800Y0371330D01*
X0269030Y0370100D01*
X0304525Y0370100D01*
X0304900Y0369194D01*
X0306194Y0367900D01*
X0307885Y0367200D01*
X0315715Y0367200D01*
X0317000Y0367732D01*
X0317000Y0365868D01*
X0315715Y0366400D01*
X0307885Y0366400D01*
X0306194Y0365700D01*
X0304900Y0364406D01*
X0304200Y0362715D01*
X0304200Y0360885D01*
X0304900Y0359194D01*
X0306194Y0357900D01*
X0307885Y0357200D01*
X0315715Y0357200D01*
X0317000Y0357732D01*
X0317000Y0355868D01*
X0315715Y0356400D01*
X0307885Y0356400D01*
X0306194Y0355700D01*
X0304900Y0354406D01*
X0304200Y0352715D01*
X0304200Y0350885D01*
X0304900Y0349194D01*
X0306194Y0347900D01*
X0307885Y0347200D01*
X0315715Y0347200D01*
X0317000Y0347732D01*
X0317000Y0345868D01*
X0315715Y0346400D01*
X0307885Y0346400D01*
X0306194Y0345700D01*
X0304900Y0344406D01*
X0304200Y0342715D01*
X0304200Y0340885D01*
X0304900Y0339194D01*
X0306194Y0337900D01*
X0307885Y0337200D01*
X0315715Y0337200D01*
X0317000Y0337732D01*
X0317000Y0335868D01*
X0315715Y0336400D01*
X0307885Y0336400D01*
X0306194Y0335700D01*
X0304900Y0334406D01*
X0304200Y0332715D01*
X0304200Y0330885D01*
X0304900Y0329194D01*
X0306194Y0327900D01*
X0307885Y0327200D01*
X0315715Y0327200D01*
X0317000Y0327732D01*
X0317000Y0325868D01*
X0315715Y0326400D01*
X0307885Y0326400D01*
X0306194Y0325700D01*
X0304900Y0324406D01*
X0304200Y0322715D01*
X0304200Y0320885D01*
X0304900Y0319194D01*
X0306194Y0317900D01*
X0307885Y0317200D01*
X0315715Y0317200D01*
X0317000Y0317732D01*
X0317000Y0316066D01*
X0316643Y0316248D01*
X0315924Y0316482D01*
X0315178Y0316600D01*
X0312000Y0316600D01*
X0312000Y0312000D01*
X0311600Y0312000D01*
X0311600Y0316600D01*
X0308422Y0316600D01*
X0307676Y0316482D01*
X0306957Y0316248D01*
X0306284Y0315905D01*
X0305673Y0315461D01*
X0305139Y0314927D01*
X0304695Y0314316D01*
X0304352Y0313643D01*
X0304118Y0312924D01*
X0304000Y0312178D01*
X0304000Y0312000D01*
X0311600Y0312000D01*
X0311600Y0311600D01*
X0312000Y0311600D01*
X0312000Y0307000D01*
X0315178Y0307000D01*
X0315924Y0307118D01*
X0316643Y0307352D01*
X0317000Y0307534D01*
X0317000Y0293870D01*
X0247730Y0224600D01*
X0246384Y0224600D01*
X0245061Y0224052D01*
X0244048Y0223039D01*
X0243500Y0221716D01*
X0243500Y0220370D01*
X0214400Y0191270D01*
X0214400Y0188900D01*
X0202130Y0188900D01*
X0186353Y0173123D01*
X0186353Y0174383D01*
X0214833Y0202863D01*
X0215248Y0201861D01*
X0216261Y0200848D01*
X0217584Y0200300D01*
X0219016Y0200300D01*
X0220339Y0200848D01*
X0221352Y0201861D01*
X0221900Y0203184D01*
X0221900Y0204530D01*
X0258770Y0241400D01*
X0260000Y0242630D01*
X0260000Y0313409D01*
X0260952Y0314361D01*
X0261500Y0315684D01*
X0261500Y0317116D01*
X0260952Y0318439D01*
X0259939Y0319452D01*
X0258616Y0320000D01*
X0257184Y0320000D01*
X0255861Y0319452D01*
X0254848Y0318439D01*
X0254300Y0317116D01*
X0254300Y0315684D01*
X0254848Y0314361D01*
X0255800Y0313409D01*
X0255800Y0244370D01*
X0230998Y0219568D01*
X0230998Y0222738D01*
X0230061Y0223676D01*
X0230998Y0222599D02*
X0234029Y0222599D01*
X0232431Y0221001D02*
X0230998Y0221001D01*
X0235173Y0217803D02*
X0240934Y0217803D01*
X0239335Y0216205D02*
X0233575Y0216205D01*
X0231976Y0214606D02*
X0237737Y0214606D01*
X0236138Y0213008D02*
X0230378Y0213008D01*
X0228779Y0211409D02*
X0234540Y0211409D01*
X0232941Y0209811D02*
X0227181Y0209811D01*
X0225582Y0208212D02*
X0231343Y0208212D01*
X0229744Y0206614D02*
X0223984Y0206614D01*
X0222385Y0205015D02*
X0228146Y0205015D01*
X0226547Y0203417D02*
X0221900Y0203417D01*
X0221310Y0201818D02*
X0224949Y0201818D01*
X0223350Y0200220D02*
X0212190Y0200220D01*
X0213788Y0201818D02*
X0215290Y0201818D01*
X0210591Y0198621D02*
X0221752Y0198621D01*
X0220153Y0197023D02*
X0208993Y0197023D01*
X0207394Y0195424D02*
X0218554Y0195424D01*
X0216956Y0193826D02*
X0205796Y0193826D01*
X0204197Y0192227D02*
X0215357Y0192227D01*
X0214400Y0190629D02*
X0202599Y0190629D01*
X0201000Y0189030D02*
X0214400Y0189030D01*
X0220437Y0185833D02*
X0264621Y0185833D01*
X0264200Y0184235D02*
X0222035Y0184235D01*
X0223634Y0182636D02*
X0263366Y0182636D01*
X0261768Y0181038D02*
X0259753Y0181038D01*
X0254247Y0181038D02*
X0225232Y0181038D01*
X0228923Y0176242D02*
X0254367Y0176242D01*
X0255374Y0174644D02*
X0229100Y0174644D01*
X0228536Y0173045D02*
X0253775Y0173045D01*
X0252177Y0171447D02*
X0190616Y0171447D01*
X0189018Y0169848D02*
X0250578Y0169848D01*
X0248980Y0168250D02*
X0187419Y0168250D01*
X0185821Y0166651D02*
X0247381Y0166651D01*
X0245783Y0165053D02*
X0184222Y0165053D01*
X0182624Y0163454D02*
X0244184Y0163454D01*
X0240464Y0161856D02*
X0181025Y0161856D01*
X0179427Y0160257D02*
X0239900Y0160257D01*
X0245851Y0157060D02*
X0321961Y0157060D01*
X0321961Y0158659D02*
X0246924Y0158659D01*
X0247100Y0160257D02*
X0321961Y0160257D01*
X0321961Y0161856D02*
X0248525Y0161856D01*
X0250124Y0163454D02*
X0321961Y0163454D01*
X0321961Y0165053D02*
X0251722Y0165053D01*
X0253321Y0166651D02*
X0321961Y0166651D01*
X0321961Y0168250D02*
X0254919Y0168250D01*
X0256518Y0169848D02*
X0321961Y0169848D01*
X0321961Y0171447D02*
X0258116Y0171447D01*
X0259715Y0173045D02*
X0321961Y0173045D01*
X0321961Y0174644D02*
X0261314Y0174644D01*
X0262912Y0176242D02*
X0321961Y0176242D01*
X0321961Y0177841D02*
X0264511Y0177841D01*
X0266109Y0179439D02*
X0321961Y0179439D01*
X0321961Y0181038D02*
X0269814Y0181038D01*
X0271090Y0182636D02*
X0321961Y0182636D01*
X0321961Y0184235D02*
X0271400Y0184235D01*
X0270979Y0185833D02*
X0321961Y0185833D01*
X0321961Y0187432D02*
X0269164Y0187432D01*
X0266436Y0187432D02*
X0224023Y0187432D01*
X0224600Y0189030D02*
X0321961Y0189030D01*
X0321961Y0190629D02*
X0225099Y0190629D01*
X0226697Y0192227D02*
X0321961Y0192227D01*
X0321961Y0193826D02*
X0228296Y0193826D01*
X0229894Y0195424D02*
X0321961Y0195424D01*
X0321961Y0197023D02*
X0231493Y0197023D01*
X0233091Y0198621D02*
X0321961Y0198621D01*
X0321961Y0200220D02*
X0234690Y0200220D01*
X0236288Y0201818D02*
X0321961Y0201818D01*
X0321961Y0203417D02*
X0237887Y0203417D01*
X0239485Y0205015D02*
X0321961Y0205015D01*
X0321961Y0206614D02*
X0241084Y0206614D01*
X0242682Y0208212D02*
X0321961Y0208212D01*
X0321961Y0209811D02*
X0244281Y0209811D01*
X0245879Y0211409D02*
X0321961Y0211409D01*
X0321961Y0213008D02*
X0247478Y0213008D01*
X0249076Y0214606D02*
X0321961Y0214606D01*
X0321961Y0216205D02*
X0250675Y0216205D01*
X0252273Y0217803D02*
X0321961Y0217803D01*
X0321961Y0219402D02*
X0253872Y0219402D01*
X0255470Y0221001D02*
X0321961Y0221001D01*
X0321961Y0222599D02*
X0257069Y0222599D01*
X0258667Y0224198D02*
X0321961Y0224198D01*
X0321961Y0225796D02*
X0260266Y0225796D01*
X0261864Y0227395D02*
X0321961Y0227395D01*
X0321961Y0228993D02*
X0263463Y0228993D01*
X0265061Y0230592D02*
X0321961Y0230592D01*
X0321961Y0232190D02*
X0266660Y0232190D01*
X0268258Y0233789D02*
X0321961Y0233789D01*
X0321961Y0235387D02*
X0269857Y0235387D01*
X0271455Y0236986D02*
X0321961Y0236986D01*
X0321961Y0238584D02*
X0273054Y0238584D01*
X0274652Y0240183D02*
X0321961Y0240183D01*
X0321961Y0241781D02*
X0276251Y0241781D01*
X0277850Y0243380D02*
X0321961Y0243380D01*
X0321961Y0244978D02*
X0279448Y0244978D01*
X0281047Y0246577D02*
X0321961Y0246577D01*
X0321961Y0248175D02*
X0282645Y0248175D01*
X0284244Y0249774D02*
X0321961Y0249774D01*
X0321961Y0251372D02*
X0285842Y0251372D01*
X0287441Y0252971D02*
X0321961Y0252971D01*
X0321961Y0254569D02*
X0289039Y0254569D01*
X0290638Y0256168D02*
X0321961Y0256168D01*
X0321961Y0257766D02*
X0292236Y0257766D01*
X0293835Y0259365D02*
X0321961Y0259365D01*
X0321961Y0260963D02*
X0295433Y0260963D01*
X0297032Y0262562D02*
X0321961Y0262562D01*
X0321961Y0264160D02*
X0298630Y0264160D01*
X0300229Y0265759D02*
X0321961Y0265759D01*
X0321961Y0267357D02*
X0301827Y0267357D01*
X0303426Y0268956D02*
X0321961Y0268956D01*
X0321961Y0270554D02*
X0305024Y0270554D01*
X0306623Y0272153D02*
X0321961Y0272153D01*
X0321961Y0273751D02*
X0308221Y0273751D01*
X0309820Y0275350D02*
X0321961Y0275350D01*
X0321961Y0276948D02*
X0311418Y0276948D01*
X0313017Y0278547D02*
X0321961Y0278547D01*
X0321961Y0280145D02*
X0314615Y0280145D01*
X0316214Y0281744D02*
X0321961Y0281744D01*
X0321961Y0283342D02*
X0319501Y0283342D01*
X0321368Y0284941D02*
X0321961Y0284941D01*
X0321961Y0286539D02*
X0321800Y0286539D01*
X0321961Y0288138D02*
X0321501Y0288138D01*
X0321961Y0289737D02*
X0320255Y0289737D01*
X0320405Y0291335D02*
X0321961Y0291335D01*
X0321961Y0292934D02*
X0321200Y0292934D01*
X0321200Y0294532D02*
X0321961Y0294532D01*
X0321961Y0296131D02*
X0321200Y0296131D01*
X0321200Y0297729D02*
X0321961Y0297729D01*
X0321961Y0299328D02*
X0321200Y0299328D01*
X0321200Y0300926D02*
X0321961Y0300926D01*
X0321961Y0302525D02*
X0321200Y0302525D01*
X0321200Y0304123D02*
X0321961Y0304123D01*
X0321961Y0305722D02*
X0321200Y0305722D01*
X0321200Y0307320D02*
X0321961Y0307320D01*
X0321961Y0308919D02*
X0321200Y0308919D01*
X0321200Y0310517D02*
X0321961Y0310517D01*
X0321961Y0312116D02*
X0321200Y0312116D01*
X0321200Y0313714D02*
X0321961Y0313714D01*
X0321961Y0315313D02*
X0321200Y0315313D01*
X0321200Y0316911D02*
X0321961Y0316911D01*
X0321961Y0318510D02*
X0321200Y0318510D01*
X0321200Y0320108D02*
X0321961Y0320108D01*
X0321961Y0321707D02*
X0321200Y0321707D01*
X0321200Y0323305D02*
X0321961Y0323305D01*
X0321961Y0324904D02*
X0321200Y0324904D01*
X0321200Y0326502D02*
X0321961Y0326502D01*
X0321961Y0328101D02*
X0321200Y0328101D01*
X0321200Y0329699D02*
X0321961Y0329699D01*
X0321961Y0331298D02*
X0321200Y0331298D01*
X0321200Y0332896D02*
X0321961Y0332896D01*
X0321961Y0334495D02*
X0321200Y0334495D01*
X0321200Y0336093D02*
X0321961Y0336093D01*
X0321961Y0337692D02*
X0321200Y0337692D01*
X0321200Y0339290D02*
X0321961Y0339290D01*
X0321961Y0340889D02*
X0321200Y0340889D01*
X0321200Y0342487D02*
X0321961Y0342487D01*
X0321961Y0344086D02*
X0321200Y0344086D01*
X0321200Y0345684D02*
X0321961Y0345684D01*
X0321961Y0347283D02*
X0321200Y0347283D01*
X0321200Y0348881D02*
X0321961Y0348881D01*
X0321961Y0350480D02*
X0321200Y0350480D01*
X0321200Y0352078D02*
X0321961Y0352078D01*
X0321961Y0353677D02*
X0321200Y0353677D01*
X0321200Y0355275D02*
X0321961Y0355275D01*
X0321961Y0356874D02*
X0321200Y0356874D01*
X0321200Y0358472D02*
X0321961Y0358472D01*
X0321961Y0360071D02*
X0321200Y0360071D01*
X0321200Y0361670D02*
X0321961Y0361670D01*
X0321961Y0363268D02*
X0321200Y0363268D01*
X0321200Y0364867D02*
X0321961Y0364867D01*
X0321961Y0366465D02*
X0321200Y0366465D01*
X0321200Y0368064D02*
X0321961Y0368064D01*
X0321961Y0369662D02*
X0321200Y0369662D01*
X0321200Y0371261D02*
X0321961Y0371261D01*
X0321961Y0372859D02*
X0321200Y0372859D01*
X0321200Y0374458D02*
X0321961Y0374458D01*
X0321961Y0376056D02*
X0320014Y0376056D01*
X0318415Y0377655D02*
X0321961Y0377655D01*
X0321961Y0379253D02*
X0318724Y0379253D01*
X0319386Y0380852D02*
X0321961Y0380852D01*
X0321961Y0382450D02*
X0319400Y0382450D01*
X0318848Y0384049D02*
X0321961Y0384049D01*
X0321961Y0385647D02*
X0317458Y0385647D01*
X0315825Y0387246D02*
X0321961Y0387246D01*
X0321961Y0388844D02*
X0318350Y0388844D01*
X0319217Y0390443D02*
X0321961Y0390443D01*
X0321961Y0392041D02*
X0319400Y0392041D01*
X0319017Y0393640D02*
X0321961Y0393640D01*
X0321961Y0395238D02*
X0317867Y0395238D01*
X0307775Y0387246D02*
X0298321Y0387246D01*
X0298197Y0385647D02*
X0306142Y0385647D01*
X0304752Y0384049D02*
X0297915Y0384049D01*
X0297480Y0382450D02*
X0304200Y0382450D01*
X0304214Y0380852D02*
X0296557Y0380852D01*
X0295578Y0379253D02*
X0304876Y0379253D01*
X0306787Y0377655D02*
X0293673Y0377655D01*
X0290682Y0376056D02*
X0307055Y0376056D01*
X0304952Y0374458D02*
X0270612Y0374458D01*
X0269014Y0376056D02*
X0282918Y0376056D01*
X0279927Y0377655D02*
X0267415Y0377655D01*
X0265817Y0379253D02*
X0278022Y0379253D01*
X0277914Y0379344D02*
X0277914Y0379344D01*
X0277043Y0380852D02*
X0264218Y0380852D01*
X0262620Y0382450D02*
X0276120Y0382450D01*
X0275685Y0384049D02*
X0261021Y0384049D01*
X0259423Y0385647D02*
X0275403Y0385647D01*
X0275279Y0387246D02*
X0257824Y0387246D01*
X0256226Y0388844D02*
X0275560Y0388844D01*
X0275842Y0390443D02*
X0254627Y0390443D01*
X0253483Y0385647D02*
X0190998Y0385647D01*
X0190998Y0384049D02*
X0197317Y0384049D01*
X0197407Y0384204D02*
X0197170Y0383794D01*
X0197047Y0383336D01*
X0197047Y0381020D01*
X0201320Y0381020D01*
X0201320Y0384899D01*
X0198610Y0384899D01*
X0198152Y0384777D01*
X0197742Y0384540D01*
X0197407Y0384204D01*
X0197047Y0382450D02*
X0190998Y0382450D01*
X0190988Y0380852D02*
X0201320Y0380852D01*
X0202280Y0380852D02*
X0258278Y0380852D01*
X0256680Y0382450D02*
X0206553Y0382450D01*
X0206283Y0384049D02*
X0255081Y0384049D01*
X0259877Y0379253D02*
X0206553Y0379253D01*
X0206529Y0377655D02*
X0261476Y0377655D01*
X0263074Y0376056D02*
X0233035Y0376056D01*
X0234234Y0374458D02*
X0264673Y0374458D01*
X0266271Y0372859D02*
X0234500Y0372859D01*
X0234035Y0371261D02*
X0267870Y0371261D01*
X0276635Y0392041D02*
X0056965Y0392041D01*
X0057758Y0390443D02*
X0180473Y0390443D01*
X0178874Y0388844D02*
X0058040Y0388844D01*
X0058321Y0387246D02*
X0177276Y0387246D01*
X0175677Y0385647D02*
X0171815Y0385647D01*
X0171784Y0385762D02*
X0171547Y0386173D01*
X0171212Y0386508D01*
X0170802Y0386745D01*
X0170344Y0386868D01*
X0167240Y0386868D01*
X0167240Y0383382D01*
X0167068Y0383382D01*
X0167068Y0383210D01*
X0162402Y0383210D01*
X0162402Y0381287D01*
X0162524Y0380830D01*
X0162761Y0380419D01*
X0163096Y0380084D01*
X0163507Y0379847D01*
X0163965Y0379724D01*
X0167068Y0379724D01*
X0167068Y0383210D01*
X0167240Y0383210D01*
X0167240Y0379724D01*
X0170344Y0379724D01*
X0170802Y0379847D01*
X0171212Y0380084D01*
X0171547Y0380419D01*
X0171784Y0380830D01*
X0171907Y0381287D01*
X0171907Y0383210D01*
X0167240Y0383210D01*
X0167240Y0383382D01*
X0171907Y0383382D01*
X0171907Y0385305D01*
X0171784Y0385762D01*
X0171907Y0384049D02*
X0174800Y0384049D01*
X0174800Y0382450D02*
X0171907Y0382450D01*
X0171790Y0380852D02*
X0174800Y0380852D01*
X0174800Y0379253D02*
X0055578Y0379253D01*
X0056557Y0380852D02*
X0162518Y0380852D01*
X0162402Y0382450D02*
X0057480Y0382450D01*
X0057915Y0384049D02*
X0162402Y0384049D01*
X0162402Y0383382D02*
X0167068Y0383382D01*
X0167068Y0386868D01*
X0163965Y0386868D01*
X0163507Y0386745D01*
X0163096Y0386508D01*
X0162761Y0386173D01*
X0162524Y0385762D01*
X0162402Y0385305D01*
X0162402Y0383382D01*
X0162493Y0385647D02*
X0058197Y0385647D01*
X0056042Y0393640D02*
X0277558Y0393640D01*
X0279084Y0395238D02*
X0054516Y0395238D01*
X0055686Y0394256D02*
X0055686Y0394256D01*
X0053673Y0377655D02*
X0174800Y0377655D01*
X0174800Y0376056D02*
X0050682Y0376056D01*
X0042918Y0376056D02*
X0026545Y0376056D01*
X0026813Y0377655D02*
X0039927Y0377655D01*
X0038022Y0379253D02*
X0028724Y0379253D01*
X0029386Y0380852D02*
X0037043Y0380852D01*
X0037914Y0379344D02*
X0037914Y0379344D01*
X0036120Y0382450D02*
X0029400Y0382450D01*
X0028848Y0384049D02*
X0035685Y0384049D01*
X0035403Y0385647D02*
X0027458Y0385647D01*
X0025825Y0387246D02*
X0035279Y0387246D01*
X0035560Y0388844D02*
X0028350Y0388844D01*
X0029217Y0390443D02*
X0035842Y0390443D01*
X0036635Y0392041D02*
X0029400Y0392041D01*
X0029017Y0393640D02*
X0037558Y0393640D01*
X0039084Y0395238D02*
X0027867Y0395238D01*
X0028648Y0374458D02*
X0174800Y0374458D01*
X0174800Y0372859D02*
X0171586Y0372859D01*
X0171707Y0371261D02*
X0174800Y0371261D01*
X0174800Y0369662D02*
X0171707Y0369662D01*
X0171707Y0368064D02*
X0174800Y0368064D01*
X0174800Y0366465D02*
X0016100Y0366465D01*
X0027569Y0368064D02*
X0162602Y0368064D01*
X0162722Y0372859D02*
X0029340Y0372859D01*
X0028239Y0364867D02*
X0174800Y0364867D01*
X0174800Y0363268D02*
X0029171Y0363268D01*
X0029400Y0361670D02*
X0174800Y0361670D01*
X0174800Y0360071D02*
X0029063Y0360071D01*
X0027997Y0358472D02*
X0174800Y0358472D01*
X0174800Y0356874D02*
X0029596Y0356874D01*
X0031194Y0355275D02*
X0174800Y0355275D01*
X0174800Y0353677D02*
X0032793Y0353677D01*
X0034391Y0352078D02*
X0174800Y0352078D01*
X0174800Y0350480D02*
X0124635Y0350480D01*
X0124699Y0348881D02*
X0174800Y0348881D01*
X0174800Y0347283D02*
X0124699Y0347283D01*
X0124699Y0345684D02*
X0174800Y0345684D01*
X0174800Y0344086D02*
X0126084Y0344086D01*
X0127682Y0342487D02*
X0174800Y0342487D01*
X0174800Y0340889D02*
X0129281Y0340889D01*
X0130879Y0339290D02*
X0174800Y0339290D01*
X0174800Y0337692D02*
X0132478Y0337692D01*
X0133100Y0336093D02*
X0174800Y0336093D01*
X0174800Y0334495D02*
X0133100Y0334495D01*
X0133100Y0332896D02*
X0174800Y0332896D01*
X0174800Y0331298D02*
X0133100Y0331298D01*
X0133100Y0329699D02*
X0174800Y0329699D01*
X0174800Y0328101D02*
X0133100Y0328101D01*
X0133100Y0326502D02*
X0174800Y0326502D01*
X0174800Y0324904D02*
X0133100Y0324904D01*
X0131875Y0323305D02*
X0174800Y0323305D01*
X0174800Y0321707D02*
X0130998Y0321707D01*
X0130998Y0320108D02*
X0174800Y0320108D01*
X0174800Y0318510D02*
X0130998Y0318510D01*
X0128600Y0316911D02*
X0174800Y0316911D01*
X0174800Y0315313D02*
X0128600Y0315313D01*
X0128600Y0313714D02*
X0174800Y0313714D01*
X0174800Y0312116D02*
X0153875Y0312116D01*
X0153739Y0312252D02*
X0152416Y0312800D01*
X0150984Y0312800D01*
X0149661Y0312252D01*
X0148648Y0311239D01*
X0148100Y0309916D01*
X0148100Y0308570D01*
X0146930Y0307400D01*
X0145584Y0307400D01*
X0144261Y0306852D01*
X0143248Y0305839D01*
X0142700Y0304516D01*
X0142700Y0303084D01*
X0143248Y0301761D01*
X0144261Y0300748D01*
X0145584Y0300200D01*
X0147016Y0300200D01*
X0148339Y0300748D01*
X0149352Y0301761D01*
X0149900Y0303084D01*
X0149900Y0304430D01*
X0151070Y0305600D01*
X0152416Y0305600D01*
X0153739Y0306148D01*
X0154752Y0307161D01*
X0155300Y0308484D01*
X0155300Y0309916D01*
X0154752Y0311239D01*
X0153739Y0312252D01*
X0155051Y0310517D02*
X0174800Y0310517D01*
X0174800Y0308919D02*
X0155300Y0308919D01*
X0154818Y0307320D02*
X0174800Y0307320D01*
X0174800Y0305722D02*
X0152710Y0305722D01*
X0149900Y0304123D02*
X0174800Y0304123D01*
X0174800Y0302525D02*
X0149668Y0302525D01*
X0148517Y0300926D02*
X0174800Y0300926D01*
X0174800Y0299328D02*
X0136642Y0299328D01*
X0135044Y0300926D02*
X0144083Y0300926D01*
X0142932Y0302525D02*
X0133445Y0302525D01*
X0131847Y0304123D02*
X0142700Y0304123D01*
X0143199Y0305722D02*
X0130248Y0305722D01*
X0128650Y0307320D02*
X0145391Y0307320D01*
X0148100Y0308919D02*
X0128600Y0308919D01*
X0128600Y0310517D02*
X0148349Y0310517D01*
X0149524Y0312116D02*
X0128600Y0312116D01*
X0120507Y0304123D02*
X0109700Y0304123D01*
X0109700Y0302525D02*
X0122106Y0302525D01*
X0123704Y0300926D02*
X0109700Y0300926D01*
X0109700Y0299328D02*
X0125303Y0299328D01*
X0126901Y0297729D02*
X0109700Y0297729D01*
X0109700Y0296131D02*
X0128500Y0296131D01*
X0130098Y0294532D02*
X0109700Y0294532D01*
X0109700Y0292934D02*
X0131697Y0292934D01*
X0133295Y0291335D02*
X0109700Y0291335D01*
X0109700Y0289737D02*
X0134894Y0289737D01*
X0136492Y0288138D02*
X0109700Y0288138D01*
X0109700Y0286539D02*
X0138091Y0286539D01*
X0139689Y0284941D02*
X0109700Y0284941D01*
X0109700Y0283342D02*
X0141288Y0283342D01*
X0142886Y0281744D02*
X0109700Y0281744D01*
X0109700Y0280145D02*
X0144485Y0280145D01*
X0146083Y0278547D02*
X0109700Y0278547D01*
X0109700Y0276948D02*
X0147682Y0276948D01*
X0149280Y0275350D02*
X0109700Y0275350D01*
X0109700Y0273751D02*
X0150879Y0273751D01*
X0152477Y0272153D02*
X0109700Y0272153D01*
X0109700Y0270554D02*
X0152602Y0270554D01*
X0152602Y0268956D02*
X0109700Y0268956D01*
X0112985Y0267357D02*
X0153114Y0267357D01*
X0161195Y0267357D02*
X0172405Y0267357D01*
X0164018Y0273751D02*
X0187247Y0273751D01*
X0187247Y0272153D02*
X0180998Y0272153D01*
X0180998Y0270554D02*
X0187247Y0270554D01*
X0188129Y0268956D02*
X0180998Y0268956D01*
X0180486Y0267357D02*
X0206300Y0267357D01*
X0206300Y0265759D02*
X0114451Y0265759D01*
X0114800Y0264160D02*
X0206300Y0264160D01*
X0206300Y0262562D02*
X0115808Y0262562D01*
X0117407Y0260963D02*
X0206300Y0260963D01*
X0206300Y0259365D02*
X0119005Y0259365D01*
X0120604Y0257766D02*
X0206300Y0257766D01*
X0206300Y0256168D02*
X0122202Y0256168D01*
X0123801Y0254569D02*
X0206300Y0254569D01*
X0206300Y0252971D02*
X0125399Y0252971D01*
X0126998Y0251372D02*
X0206300Y0251372D01*
X0206300Y0249774D02*
X0128596Y0249774D01*
X0130195Y0248175D02*
X0206300Y0248175D01*
X0206300Y0246577D02*
X0131793Y0246577D01*
X0133392Y0244978D02*
X0162807Y0244978D01*
X0161099Y0243380D02*
X0134990Y0243380D01*
X0136589Y0241781D02*
X0160700Y0241781D01*
X0161032Y0240183D02*
X0138187Y0240183D01*
X0139786Y0238584D02*
X0162415Y0238584D01*
X0166185Y0238584D02*
X0185000Y0238584D01*
X0184516Y0236986D02*
X0141384Y0236986D01*
X0145104Y0235387D02*
X0182917Y0235387D01*
X0181319Y0233789D02*
X0146146Y0233789D01*
X0146300Y0232190D02*
X0179720Y0232190D01*
X0178122Y0230592D02*
X0145683Y0230592D01*
X0139717Y0230592D02*
X0120728Y0230592D01*
X0120998Y0232190D02*
X0139100Y0232190D01*
X0138642Y0233789D02*
X0120998Y0233789D01*
X0120998Y0235387D02*
X0137043Y0235387D01*
X0135445Y0236986D02*
X0117800Y0236986D01*
X0117800Y0238584D02*
X0133846Y0238584D01*
X0132248Y0240183D02*
X0117800Y0240183D01*
X0117800Y0241781D02*
X0130649Y0241781D01*
X0129050Y0243380D02*
X0117800Y0243380D01*
X0117800Y0244978D02*
X0127452Y0244978D01*
X0125853Y0246577D02*
X0117800Y0246577D01*
X0117800Y0248175D02*
X0124255Y0248175D01*
X0122656Y0249774D02*
X0117800Y0249774D01*
X0117098Y0251372D02*
X0121058Y0251372D01*
X0119459Y0252971D02*
X0115499Y0252971D01*
X0113901Y0254569D02*
X0117861Y0254569D01*
X0116262Y0256168D02*
X0112302Y0256168D01*
X0110704Y0257766D02*
X0114664Y0257766D01*
X0113065Y0259365D02*
X0109700Y0259365D01*
X0100100Y0259365D02*
X0062900Y0259365D01*
X0062900Y0260963D02*
X0100100Y0260963D01*
X0100100Y0262562D02*
X0062900Y0262562D01*
X0062900Y0264160D02*
X0100100Y0264160D01*
X0100100Y0265759D02*
X0062900Y0265759D01*
X0062900Y0267357D02*
X0100100Y0267357D01*
X0100100Y0268956D02*
X0062900Y0268956D01*
X0062900Y0270554D02*
X0100100Y0270554D01*
X0100100Y0276948D02*
X0085085Y0276948D01*
X0085046Y0278547D02*
X0100100Y0278547D01*
X0100100Y0280145D02*
X0084146Y0280145D01*
X0083600Y0281744D02*
X0100100Y0281744D01*
X0100100Y0283342D02*
X0083600Y0283342D01*
X0083600Y0284941D02*
X0100100Y0284941D01*
X0100100Y0286539D02*
X0083600Y0286539D01*
X0083600Y0288138D02*
X0100100Y0288138D01*
X0100100Y0289737D02*
X0083600Y0289737D01*
X0083600Y0291335D02*
X0100100Y0291335D01*
X0100100Y0292934D02*
X0083600Y0292934D01*
X0084523Y0294532D02*
X0100100Y0294532D01*
X0100100Y0296131D02*
X0085100Y0296131D01*
X0084929Y0297729D02*
X0100100Y0297729D01*
X0100100Y0299328D02*
X0083864Y0299328D01*
X0079136Y0299328D02*
X0029740Y0299328D01*
X0027736Y0300926D02*
X0100100Y0300926D01*
X0100100Y0302525D02*
X0024545Y0302525D01*
X0022947Y0304123D02*
X0100100Y0304123D01*
X0100100Y0305722D02*
X0021348Y0305722D01*
X0021600Y0307320D02*
X0022000Y0307320D01*
X0022000Y0308919D02*
X0021600Y0308919D01*
X0021600Y0310517D02*
X0022000Y0310517D01*
X0022000Y0312116D02*
X0021600Y0312116D01*
X0021600Y0313714D02*
X0022000Y0313714D01*
X0022000Y0315313D02*
X0021600Y0315313D01*
X0016100Y0316911D02*
X0063619Y0316911D01*
X0064400Y0315313D02*
X0028076Y0315313D01*
X0029212Y0313714D02*
X0064843Y0313714D01*
X0066763Y0312116D02*
X0029600Y0312116D01*
X0029430Y0310517D02*
X0100100Y0310517D01*
X0100100Y0308919D02*
X0028640Y0308919D01*
X0026545Y0307320D02*
X0100100Y0307320D01*
X0100100Y0312116D02*
X0069237Y0312116D01*
X0071157Y0313714D02*
X0100100Y0313714D01*
X0100100Y0315313D02*
X0071600Y0315313D01*
X0071312Y0316911D02*
X0100100Y0316911D01*
X0100100Y0318510D02*
X0070081Y0318510D01*
X0066362Y0320108D02*
X0100100Y0320108D01*
X0100100Y0321707D02*
X0064763Y0321707D01*
X0063165Y0323305D02*
X0100100Y0323305D01*
X0101434Y0324904D02*
X0061566Y0324904D01*
X0059968Y0326502D02*
X0103032Y0326502D01*
X0104631Y0328101D02*
X0058369Y0328101D01*
X0056771Y0329699D02*
X0106229Y0329699D01*
X0102402Y0331298D02*
X0055172Y0331298D01*
X0053574Y0332896D02*
X0102402Y0332896D01*
X0102402Y0334495D02*
X0051975Y0334495D01*
X0050377Y0336093D02*
X0102715Y0336093D01*
X0107068Y0336093D02*
X0107240Y0336093D01*
X0107240Y0334495D02*
X0107068Y0334495D01*
X0111593Y0336093D02*
X0115323Y0336093D01*
X0113725Y0334495D02*
X0111907Y0334495D01*
X0111907Y0332896D02*
X0112126Y0332896D01*
X0114869Y0329699D02*
X0123500Y0329699D01*
X0123500Y0328101D02*
X0113271Y0328101D01*
X0116468Y0331298D02*
X0121893Y0331298D01*
X0121893Y0332896D02*
X0118066Y0332896D01*
X0119665Y0334495D02*
X0121893Y0334495D01*
X0122256Y0336093D02*
X0121263Y0336093D01*
X0122862Y0337692D02*
X0126538Y0337692D01*
X0124940Y0339290D02*
X0124460Y0339290D01*
X0120119Y0340889D02*
X0045581Y0340889D01*
X0043982Y0342487D02*
X0109315Y0342487D01*
X0108701Y0344086D02*
X0042384Y0344086D01*
X0040785Y0345684D02*
X0108701Y0345684D01*
X0108701Y0347283D02*
X0039187Y0347283D01*
X0037588Y0348881D02*
X0108701Y0348881D01*
X0108842Y0350480D02*
X0035990Y0350480D01*
X0033247Y0347283D02*
X0025915Y0347283D01*
X0027421Y0345684D02*
X0034846Y0345684D01*
X0036444Y0344086D02*
X0028832Y0344086D01*
X0029400Y0342487D02*
X0038043Y0342487D01*
X0039641Y0340889D02*
X0029400Y0340889D01*
X0028739Y0339290D02*
X0041240Y0339290D01*
X0042838Y0337692D02*
X0026902Y0337692D01*
X0026455Y0336093D02*
X0044437Y0336093D01*
X0046035Y0334495D02*
X0028611Y0334495D01*
X0029325Y0332896D02*
X0047634Y0332896D01*
X0049232Y0331298D02*
X0029400Y0331298D01*
X0028909Y0329699D02*
X0050831Y0329699D01*
X0052429Y0328101D02*
X0027606Y0328101D01*
X0028202Y0324904D02*
X0055626Y0324904D01*
X0054028Y0326502D02*
X0016100Y0326502D01*
X0016100Y0336093D02*
X0017145Y0336093D01*
X0016698Y0337692D02*
X0016100Y0337692D01*
X0016100Y0345684D02*
X0016179Y0345684D01*
X0016100Y0347283D02*
X0017685Y0347283D01*
X0028387Y0348881D02*
X0031649Y0348881D01*
X0030050Y0350480D02*
X0029232Y0350480D01*
X0047179Y0339290D02*
X0118521Y0339290D01*
X0116922Y0337692D02*
X0048778Y0337692D01*
X0057225Y0323305D02*
X0029156Y0323305D01*
X0029400Y0321707D02*
X0058823Y0321707D01*
X0060422Y0320108D02*
X0029078Y0320108D01*
X0028015Y0318510D02*
X0062020Y0318510D01*
X0064400Y0284941D02*
X0065889Y0284941D01*
X0067488Y0283342D02*
X0064051Y0283342D01*
X0062900Y0281744D02*
X0069086Y0281744D01*
X0070685Y0280145D02*
X0062900Y0280145D01*
X0062900Y0278547D02*
X0072283Y0278547D01*
X0073882Y0276948D02*
X0062900Y0276948D01*
X0062900Y0275350D02*
X0075480Y0275350D01*
X0077079Y0273751D02*
X0062900Y0273751D01*
X0062900Y0272153D02*
X0078677Y0272153D01*
X0062900Y0257766D02*
X0100100Y0257766D01*
X0100100Y0256168D02*
X0062900Y0256168D01*
X0062900Y0254569D02*
X0100100Y0254569D01*
X0098801Y0252971D02*
X0062900Y0252971D01*
X0062900Y0251372D02*
X0097202Y0251372D01*
X0095604Y0249774D02*
X0062900Y0249774D01*
X0062900Y0248175D02*
X0094005Y0248175D01*
X0092407Y0246577D02*
X0062900Y0246577D01*
X0062900Y0244978D02*
X0090808Y0244978D01*
X0090200Y0243380D02*
X0062900Y0243380D01*
X0062900Y0241781D02*
X0090200Y0241781D01*
X0090200Y0240183D02*
X0062900Y0240183D01*
X0062900Y0238584D02*
X0090200Y0238584D01*
X0090200Y0236986D02*
X0062900Y0236986D01*
X0063783Y0235387D02*
X0090200Y0235387D01*
X0090200Y0233789D02*
X0065381Y0233789D01*
X0066980Y0232190D02*
X0090200Y0232190D01*
X0090200Y0230592D02*
X0068578Y0230592D01*
X0070177Y0228993D02*
X0090200Y0228993D01*
X0090200Y0227395D02*
X0071775Y0227395D01*
X0073374Y0225796D02*
X0090200Y0225796D01*
X0090200Y0224198D02*
X0074972Y0224198D01*
X0076571Y0222599D02*
X0090200Y0222599D01*
X0090200Y0221001D02*
X0078169Y0221001D01*
X0079768Y0219402D02*
X0090200Y0219402D01*
X0090200Y0217803D02*
X0081366Y0217803D01*
X0082965Y0216205D02*
X0091425Y0216205D01*
X0093024Y0214606D02*
X0084563Y0214606D01*
X0079618Y0208212D02*
X0011600Y0208212D01*
X0011600Y0206614D02*
X0081216Y0206614D01*
X0082815Y0205015D02*
X0011600Y0205015D01*
X0011600Y0203417D02*
X0084413Y0203417D01*
X0085100Y0201818D02*
X0011600Y0201818D01*
X0011600Y0200220D02*
X0085582Y0200220D01*
X0078019Y0209811D02*
X0011600Y0209811D01*
X0011600Y0211409D02*
X0076421Y0211409D01*
X0074822Y0213008D02*
X0011600Y0213008D01*
X0011600Y0214606D02*
X0073224Y0214606D01*
X0071625Y0216205D02*
X0011600Y0216205D01*
X0011600Y0217803D02*
X0070027Y0217803D01*
X0068428Y0219402D02*
X0011600Y0219402D01*
X0011600Y0221001D02*
X0066830Y0221001D01*
X0065231Y0222599D02*
X0011600Y0222599D01*
X0011600Y0224198D02*
X0063633Y0224198D01*
X0062034Y0225796D02*
X0011600Y0225796D01*
X0011600Y0227395D02*
X0060436Y0227395D01*
X0058837Y0228993D02*
X0011600Y0228993D01*
X0011600Y0230592D02*
X0057239Y0230592D01*
X0055640Y0232190D02*
X0011600Y0232190D01*
X0011600Y0233789D02*
X0054042Y0233789D01*
X0052443Y0235387D02*
X0011600Y0235387D01*
X0011600Y0236986D02*
X0050845Y0236986D01*
X0049246Y0238584D02*
X0011600Y0238584D01*
X0011600Y0240183D02*
X0047647Y0240183D01*
X0043928Y0241781D02*
X0011600Y0241781D01*
X0011600Y0243380D02*
X0042926Y0243380D01*
X0042800Y0244978D02*
X0011600Y0244978D01*
X0011600Y0246577D02*
X0043486Y0246577D01*
X0049314Y0246577D02*
X0058700Y0246577D01*
X0058700Y0248175D02*
X0011600Y0248175D01*
X0011600Y0249774D02*
X0058700Y0249774D01*
X0058700Y0251372D02*
X0011600Y0251372D01*
X0011600Y0252971D02*
X0058700Y0252971D01*
X0058700Y0254569D02*
X0011600Y0254569D01*
X0011600Y0256168D02*
X0058700Y0256168D01*
X0058700Y0257766D02*
X0011600Y0257766D01*
X0011600Y0259365D02*
X0058700Y0259365D01*
X0058700Y0260963D02*
X0011600Y0260963D01*
X0011600Y0262562D02*
X0058700Y0262562D01*
X0058700Y0264160D02*
X0011600Y0264160D01*
X0011600Y0265759D02*
X0058700Y0265759D01*
X0058700Y0267357D02*
X0011600Y0267357D01*
X0011600Y0268956D02*
X0058700Y0268956D01*
X0058700Y0270554D02*
X0011600Y0270554D01*
X0011600Y0272153D02*
X0058700Y0272153D01*
X0058700Y0273751D02*
X0011600Y0273751D01*
X0011600Y0275350D02*
X0058700Y0275350D01*
X0058700Y0276948D02*
X0011600Y0276948D01*
X0011600Y0278547D02*
X0058700Y0278547D01*
X0058700Y0280145D02*
X0011600Y0280145D01*
X0011600Y0281744D02*
X0058700Y0281744D01*
X0057549Y0283342D02*
X0011600Y0283342D01*
X0011600Y0284941D02*
X0057200Y0284941D01*
X0029191Y0286539D02*
X0011600Y0286539D01*
X0011600Y0288138D02*
X0027592Y0288138D01*
X0025994Y0289737D02*
X0011600Y0289737D01*
X0011600Y0291335D02*
X0024395Y0291335D01*
X0022797Y0292934D02*
X0011600Y0292934D01*
X0011600Y0294532D02*
X0021198Y0294532D01*
X0019600Y0296131D02*
X0011600Y0296131D01*
X0011600Y0297729D02*
X0018001Y0297729D01*
X0016403Y0299328D02*
X0011600Y0299328D01*
X0011600Y0300926D02*
X0014804Y0300926D01*
X0013206Y0302525D02*
X0011600Y0302525D01*
X0011600Y0304123D02*
X0011607Y0304123D01*
X0050000Y0244978D02*
X0058700Y0244978D01*
X0058700Y0243380D02*
X0050390Y0243380D01*
X0051989Y0241781D02*
X0058700Y0241781D01*
X0058700Y0240183D02*
X0053587Y0240183D01*
X0055186Y0238584D02*
X0058700Y0238584D01*
X0058700Y0236986D02*
X0056784Y0236986D01*
X0058383Y0235387D02*
X0058700Y0235387D01*
X0094400Y0236986D02*
X0113600Y0236986D01*
X0113600Y0238584D02*
X0094400Y0238584D01*
X0094400Y0240183D02*
X0113600Y0240183D01*
X0113600Y0241781D02*
X0094400Y0241781D01*
X0095150Y0243380D02*
X0098763Y0243380D01*
X0098701Y0244978D02*
X0096748Y0244978D01*
X0098347Y0246577D02*
X0102580Y0246577D01*
X0102580Y0244978D02*
X0103539Y0244978D01*
X0103539Y0243380D02*
X0102580Y0243380D01*
X0101885Y0235387D02*
X0111893Y0235387D01*
X0111893Y0233789D02*
X0101907Y0233789D01*
X0101907Y0232190D02*
X0111893Y0232190D01*
X0112163Y0230592D02*
X0101647Y0230592D01*
X0097240Y0230592D02*
X0097068Y0230592D01*
X0097068Y0232190D02*
X0097240Y0232190D01*
X0097240Y0233789D02*
X0097068Y0233789D01*
X0097068Y0235387D02*
X0097240Y0235387D01*
X0094400Y0228993D02*
X0176523Y0228993D01*
X0174925Y0227395D02*
X0094400Y0227395D01*
X0094400Y0225796D02*
X0099526Y0225796D01*
X0097928Y0224198D02*
X0094400Y0224198D01*
X0097351Y0201818D02*
X0105500Y0201818D01*
X0105500Y0200220D02*
X0098950Y0200220D01*
X0100548Y0198621D02*
X0105500Y0198621D01*
X0105500Y0197023D02*
X0102147Y0197023D01*
X0103745Y0195424D02*
X0105500Y0195424D01*
X0105500Y0193826D02*
X0105344Y0193826D01*
X0076985Y0173045D02*
X0011600Y0173045D01*
X0011600Y0174644D02*
X0075386Y0174644D01*
X0073788Y0176242D02*
X0011600Y0176242D01*
X0011600Y0177841D02*
X0072189Y0177841D01*
X0070591Y0179439D02*
X0011600Y0179439D01*
X0011600Y0181038D02*
X0068992Y0181038D01*
X0067700Y0182636D02*
X0011600Y0182636D01*
X0011600Y0184235D02*
X0067700Y0184235D01*
X0067476Y0185833D02*
X0011600Y0185833D01*
X0011600Y0187432D02*
X0066387Y0187432D01*
X0066200Y0189030D02*
X0011600Y0189030D01*
X0060037Y0136267D02*
X0071439Y0147670D01*
X0072261Y0146848D01*
X0073584Y0146300D01*
X0075016Y0146300D01*
X0076339Y0146848D01*
X0077352Y0147861D01*
X0077767Y0148863D01*
X0100100Y0126530D01*
X0100100Y0116630D01*
X0102800Y0113930D01*
X0104030Y0112700D01*
X0111170Y0112700D01*
X0114265Y0115795D01*
X0114421Y0115639D01*
X0115965Y0115000D01*
X0117635Y0115000D01*
X0119179Y0115639D01*
X0120361Y0116821D01*
X0121000Y0118365D01*
X0121000Y0122530D01*
X0122600Y0124130D01*
X0122600Y0118365D01*
X0123239Y0116821D01*
X0124421Y0115639D01*
X0125300Y0115275D01*
X0125300Y0028325D01*
X0124421Y0027961D01*
X0123239Y0026779D01*
X0123167Y0026603D01*
X0099800Y0049970D01*
X0098570Y0051200D01*
X0086300Y0051200D01*
X0086300Y0133409D01*
X0087252Y0134361D01*
X0087800Y0135684D01*
X0087800Y0137116D01*
X0087252Y0138439D01*
X0086239Y0139452D01*
X0084916Y0140000D01*
X0083484Y0140000D01*
X0082161Y0139452D01*
X0081148Y0138439D01*
X0080600Y0137116D01*
X0080600Y0135684D01*
X0081148Y0134361D01*
X0082100Y0133409D01*
X0082100Y0049970D01*
X0059635Y0027505D01*
X0059179Y0027961D01*
X0057635Y0028600D01*
X0055965Y0028600D01*
X0054800Y0028118D01*
X0054800Y0115482D01*
X0055965Y0115000D01*
X0057635Y0115000D01*
X0059179Y0115639D01*
X0060361Y0116821D01*
X0061000Y0118365D01*
X0061000Y0125235D01*
X0060361Y0126779D01*
X0059179Y0127961D01*
X0057730Y0128561D01*
X0058370Y0129200D01*
X0059716Y0129200D01*
X0061039Y0129748D01*
X0062052Y0130761D01*
X0062600Y0132084D01*
X0062600Y0133516D01*
X0062052Y0134839D01*
X0061039Y0135852D01*
X0060037Y0136267D01*
X0060049Y0136279D02*
X0080600Y0136279D01*
X0080916Y0137878D02*
X0061648Y0137878D01*
X0063246Y0139476D02*
X0082220Y0139476D01*
X0083957Y0142673D02*
X0066443Y0142673D01*
X0064845Y0141075D02*
X0085555Y0141075D01*
X0086180Y0139476D02*
X0087154Y0139476D01*
X0087484Y0137878D02*
X0088752Y0137878D01*
X0087800Y0136279D02*
X0090351Y0136279D01*
X0091949Y0134681D02*
X0087385Y0134681D01*
X0086300Y0133082D02*
X0093548Y0133082D01*
X0095146Y0131484D02*
X0086300Y0131484D01*
X0086300Y0129885D02*
X0096745Y0129885D01*
X0098343Y0128287D02*
X0086300Y0128287D01*
X0086300Y0126688D02*
X0099942Y0126688D01*
X0100100Y0125090D02*
X0086300Y0125090D01*
X0086300Y0123491D02*
X0100100Y0123491D01*
X0100100Y0121893D02*
X0086300Y0121893D01*
X0086300Y0120294D02*
X0100100Y0120294D01*
X0100100Y0118696D02*
X0086300Y0118696D01*
X0086300Y0117097D02*
X0100100Y0117097D01*
X0101231Y0115499D02*
X0086300Y0115499D01*
X0086300Y0113900D02*
X0102830Y0113900D01*
X0112370Y0113900D02*
X0125300Y0113900D01*
X0125300Y0112302D02*
X0086300Y0112302D01*
X0086300Y0110703D02*
X0125300Y0110703D01*
X0125300Y0109105D02*
X0086300Y0109105D01*
X0086300Y0107506D02*
X0125300Y0107506D01*
X0125300Y0105908D02*
X0086300Y0105908D01*
X0086300Y0104309D02*
X0125300Y0104309D01*
X0125300Y0102711D02*
X0086300Y0102711D01*
X0086300Y0101112D02*
X0125300Y0101112D01*
X0125300Y0099514D02*
X0086300Y0099514D01*
X0086300Y0097915D02*
X0125300Y0097915D01*
X0125300Y0096317D02*
X0086300Y0096317D01*
X0086300Y0094718D02*
X0125300Y0094718D01*
X0125300Y0093120D02*
X0086300Y0093120D01*
X0086300Y0091521D02*
X0125300Y0091521D01*
X0125300Y0089923D02*
X0086300Y0089923D01*
X0086300Y0088324D02*
X0125300Y0088324D01*
X0125300Y0086726D02*
X0086300Y0086726D01*
X0086300Y0085127D02*
X0125300Y0085127D01*
X0125300Y0083529D02*
X0086300Y0083529D01*
X0086300Y0081930D02*
X0125300Y0081930D01*
X0125300Y0080332D02*
X0086300Y0080332D01*
X0086300Y0078733D02*
X0125300Y0078733D01*
X0125300Y0077134D02*
X0086300Y0077134D01*
X0086300Y0075536D02*
X0125300Y0075536D01*
X0125300Y0073937D02*
X0086300Y0073937D01*
X0086300Y0072339D02*
X0125300Y0072339D01*
X0125300Y0070740D02*
X0086300Y0070740D01*
X0086300Y0069142D02*
X0125300Y0069142D01*
X0125300Y0067543D02*
X0086300Y0067543D01*
X0086300Y0065945D02*
X0125300Y0065945D01*
X0125300Y0064346D02*
X0086300Y0064346D01*
X0086300Y0062748D02*
X0125300Y0062748D01*
X0125300Y0061149D02*
X0086300Y0061149D01*
X0086300Y0059551D02*
X0125300Y0059551D01*
X0125300Y0057952D02*
X0086300Y0057952D01*
X0086300Y0056354D02*
X0125300Y0056354D01*
X0125300Y0054755D02*
X0086300Y0054755D01*
X0086300Y0053157D02*
X0125300Y0053157D01*
X0125300Y0051558D02*
X0086300Y0051558D01*
X0082100Y0051558D02*
X0054800Y0051558D01*
X0054800Y0049960D02*
X0082090Y0049960D01*
X0080491Y0048361D02*
X0054800Y0048361D01*
X0054800Y0046763D02*
X0078893Y0046763D01*
X0077294Y0045164D02*
X0054800Y0045164D01*
X0054800Y0043566D02*
X0075696Y0043566D01*
X0074097Y0041967D02*
X0054800Y0041967D01*
X0054800Y0040369D02*
X0072499Y0040369D01*
X0070900Y0038770D02*
X0054800Y0038770D01*
X0054800Y0037172D02*
X0069302Y0037172D01*
X0067703Y0035573D02*
X0054800Y0035573D01*
X0054800Y0033975D02*
X0066105Y0033975D01*
X0064506Y0032376D02*
X0054800Y0032376D01*
X0054800Y0030778D02*
X0062908Y0030778D01*
X0061309Y0029179D02*
X0054800Y0029179D01*
X0059559Y0027581D02*
X0059711Y0027581D01*
X0066670Y0028600D02*
X0085070Y0047000D01*
X0096830Y0047000D01*
X0115445Y0028385D01*
X0114421Y0027961D01*
X0113239Y0026779D01*
X0113196Y0026674D01*
X0112970Y0026900D01*
X0109370Y0030500D01*
X0107630Y0030500D01*
X0104030Y0030500D01*
X0102800Y0029270D01*
X0097730Y0024200D01*
X0071000Y0024200D01*
X0071000Y0025235D01*
X0070361Y0026779D01*
X0069179Y0027961D01*
X0067635Y0028600D01*
X0066670Y0028600D01*
X0067249Y0029179D02*
X0102709Y0029179D01*
X0101111Y0027581D02*
X0069559Y0027581D01*
X0070691Y0025982D02*
X0099512Y0025982D01*
X0097914Y0024384D02*
X0071000Y0024384D01*
X0068848Y0030778D02*
X0113052Y0030778D01*
X0111454Y0032376D02*
X0070446Y0032376D01*
X0072045Y0033975D02*
X0109855Y0033975D01*
X0108257Y0035573D02*
X0073643Y0035573D01*
X0075242Y0037172D02*
X0106658Y0037172D01*
X0105060Y0038770D02*
X0076840Y0038770D01*
X0078439Y0040369D02*
X0103461Y0040369D01*
X0101863Y0041967D02*
X0080037Y0041967D01*
X0081636Y0043566D02*
X0100264Y0043566D01*
X0098666Y0045164D02*
X0083234Y0045164D01*
X0084833Y0046763D02*
X0097067Y0046763D01*
X0099810Y0049960D02*
X0125300Y0049960D01*
X0125300Y0048361D02*
X0101409Y0048361D01*
X0103007Y0046763D02*
X0125300Y0046763D01*
X0125300Y0045164D02*
X0104606Y0045164D01*
X0106204Y0043566D02*
X0125300Y0043566D01*
X0125300Y0041967D02*
X0107803Y0041967D01*
X0109401Y0040369D02*
X0125300Y0040369D01*
X0125300Y0038770D02*
X0111000Y0038770D01*
X0112598Y0037172D02*
X0125300Y0037172D01*
X0125300Y0035573D02*
X0114197Y0035573D01*
X0115795Y0033975D02*
X0125300Y0033975D01*
X0125300Y0032376D02*
X0117394Y0032376D01*
X0118992Y0030778D02*
X0125300Y0030778D01*
X0125300Y0029179D02*
X0120591Y0029179D01*
X0122189Y0027581D02*
X0124041Y0027581D01*
X0129559Y0027581D02*
X0134041Y0027581D01*
X0132909Y0025982D02*
X0130691Y0025982D01*
X0131000Y0024384D02*
X0132600Y0024384D01*
X0132600Y0022785D02*
X0131000Y0022785D01*
X0131000Y0021187D02*
X0131617Y0021187D01*
X0129500Y0029179D02*
X0159500Y0029179D01*
X0159500Y0027581D02*
X0149559Y0027581D01*
X0150691Y0025982D02*
X0159500Y0025982D01*
X0159500Y0024384D02*
X0151000Y0024384D01*
X0151000Y0022785D02*
X0159500Y0022785D01*
X0159500Y0021187D02*
X0151000Y0021187D01*
X0151000Y0019588D02*
X0159500Y0019588D01*
X0159500Y0017990D02*
X0150845Y0017990D01*
X0149931Y0016391D02*
X0159034Y0016391D01*
X0157303Y0014793D02*
X0142862Y0014793D01*
X0141264Y0013194D02*
X0156641Y0013194D01*
X0163700Y0017990D02*
X0182755Y0017990D01*
X0182600Y0019588D02*
X0163700Y0019588D01*
X0163700Y0021187D02*
X0182600Y0021187D01*
X0182600Y0022785D02*
X0163700Y0022785D01*
X0163700Y0024384D02*
X0182600Y0024384D01*
X0182909Y0025982D02*
X0163700Y0025982D01*
X0163700Y0027581D02*
X0184041Y0027581D01*
X0190909Y0029179D02*
X0163700Y0029179D01*
X0163700Y0030778D02*
X0321961Y0030778D01*
X0321961Y0032376D02*
X0163700Y0032376D01*
X0163700Y0033975D02*
X0321961Y0033975D01*
X0321961Y0035573D02*
X0163700Y0035573D01*
X0164656Y0037172D02*
X0321961Y0037172D01*
X0321961Y0038770D02*
X0165200Y0038770D01*
X0165013Y0040369D02*
X0321961Y0040369D01*
X0321961Y0041967D02*
X0163924Y0041967D01*
X0163192Y0046763D02*
X0321961Y0046763D01*
X0321961Y0048361D02*
X0164818Y0048361D01*
X0165200Y0049960D02*
X0321961Y0049960D01*
X0321961Y0051558D02*
X0164851Y0051558D01*
X0163700Y0053157D02*
X0321961Y0053157D01*
X0321961Y0054755D02*
X0163700Y0054755D01*
X0163700Y0056354D02*
X0321961Y0056354D01*
X0321961Y0057952D02*
X0163700Y0057952D01*
X0163700Y0059551D02*
X0321961Y0059551D01*
X0321961Y0061149D02*
X0163700Y0061149D01*
X0163700Y0062748D02*
X0321961Y0062748D01*
X0321961Y0064346D02*
X0163700Y0064346D01*
X0163700Y0065945D02*
X0321961Y0065945D01*
X0321961Y0067543D02*
X0163700Y0067543D01*
X0163700Y0069142D02*
X0321961Y0069142D01*
X0321961Y0070740D02*
X0163700Y0070740D01*
X0163700Y0072339D02*
X0321961Y0072339D01*
X0321961Y0073937D02*
X0163700Y0073937D01*
X0163700Y0075536D02*
X0321961Y0075536D01*
X0321961Y0077134D02*
X0163700Y0077134D01*
X0163700Y0078733D02*
X0321961Y0078733D01*
X0321961Y0080332D02*
X0163700Y0080332D01*
X0163700Y0081930D02*
X0321961Y0081930D01*
X0321961Y0083529D02*
X0163700Y0083529D01*
X0163700Y0085127D02*
X0321961Y0085127D01*
X0321961Y0086726D02*
X0163700Y0086726D01*
X0163700Y0088324D02*
X0321961Y0088324D01*
X0321961Y0089923D02*
X0163700Y0089923D01*
X0163700Y0091521D02*
X0321961Y0091521D01*
X0321961Y0093120D02*
X0163700Y0093120D01*
X0163700Y0094718D02*
X0321961Y0094718D01*
X0321961Y0096317D02*
X0163700Y0096317D01*
X0163700Y0097915D02*
X0321961Y0097915D01*
X0321961Y0099514D02*
X0163700Y0099514D01*
X0163700Y0101112D02*
X0321961Y0101112D01*
X0321961Y0102711D02*
X0163700Y0102711D01*
X0163700Y0104309D02*
X0321961Y0104309D01*
X0321961Y0105908D02*
X0163562Y0105908D01*
X0162500Y0107506D02*
X0321961Y0107506D01*
X0321961Y0045164D02*
X0129500Y0045164D01*
X0129500Y0043566D02*
X0321961Y0043566D01*
X0321961Y0029179D02*
X0300591Y0029179D01*
X0302189Y0027581D02*
X0304041Y0027581D01*
X0309559Y0027581D02*
X0321961Y0027581D01*
X0321961Y0025982D02*
X0310691Y0025982D01*
X0311000Y0024384D02*
X0321961Y0024384D01*
X0321961Y0022785D02*
X0311000Y0022785D01*
X0311000Y0021187D02*
X0321961Y0021187D01*
X0321961Y0019588D02*
X0311000Y0019588D01*
X0310845Y0017990D02*
X0321961Y0017990D01*
X0321961Y0016391D02*
X0309931Y0016391D01*
X0303669Y0016391D02*
X0299931Y0016391D01*
X0300845Y0017990D02*
X0302755Y0017990D01*
X0302600Y0019588D02*
X0301000Y0019588D01*
X0301000Y0021187D02*
X0302600Y0021187D01*
X0301045Y0022785D02*
X0301000Y0022785D01*
X0293669Y0016391D02*
X0289931Y0016391D01*
X0290845Y0017990D02*
X0292755Y0017990D01*
X0292600Y0019588D02*
X0291000Y0019588D01*
X0291000Y0021187D02*
X0292600Y0021187D01*
X0292600Y0022785D02*
X0291000Y0022785D01*
X0291000Y0024384D02*
X0292600Y0024384D01*
X0292909Y0025982D02*
X0290691Y0025982D01*
X0283669Y0016391D02*
X0279931Y0016391D01*
X0280845Y0017990D02*
X0282755Y0017990D01*
X0282600Y0019588D02*
X0281000Y0019588D01*
X0281000Y0021187D02*
X0282600Y0021187D01*
X0282600Y0022785D02*
X0281000Y0022785D01*
X0281000Y0024384D02*
X0282600Y0024384D01*
X0282909Y0025982D02*
X0280691Y0025982D01*
X0273362Y0014793D02*
X0321961Y0014793D01*
X0321961Y0013194D02*
X0271764Y0013194D01*
X0231409Y0029179D02*
X0200691Y0029179D01*
X0202289Y0027581D02*
X0204041Y0027581D01*
X0209559Y0027581D02*
X0214041Y0027581D01*
X0212909Y0025982D02*
X0210691Y0025982D01*
X0211000Y0024384D02*
X0212600Y0024384D01*
X0212600Y0022785D02*
X0211000Y0022785D01*
X0211000Y0021187D02*
X0212600Y0021187D01*
X0212600Y0019588D02*
X0211000Y0019588D01*
X0210845Y0017990D02*
X0212755Y0017990D01*
X0219559Y0027581D02*
X0224041Y0027581D01*
X0222909Y0025982D02*
X0220691Y0025982D01*
X0221000Y0024384D02*
X0222600Y0024384D01*
X0222600Y0022785D02*
X0221000Y0022785D01*
X0221000Y0021187D02*
X0222600Y0021187D01*
X0222600Y0019588D02*
X0221000Y0019588D01*
X0220845Y0017990D02*
X0222755Y0017990D01*
X0229559Y0027581D02*
X0229811Y0027581D01*
X0200836Y0013194D02*
X0177130Y0013194D01*
X0176424Y0014793D02*
X0199238Y0014793D01*
X0193669Y0016391D02*
X0189931Y0016391D01*
X0190845Y0017990D02*
X0192755Y0017990D01*
X0192600Y0019588D02*
X0191000Y0019588D01*
X0191000Y0021187D02*
X0192600Y0021187D01*
X0192600Y0022785D02*
X0191000Y0022785D01*
X0192053Y0024384D02*
X0192600Y0024384D01*
X0183669Y0016391D02*
X0174838Y0016391D01*
X0172000Y0016391D02*
X0171600Y0016391D01*
X0171600Y0014793D02*
X0172000Y0014793D01*
X0172000Y0013194D02*
X0171600Y0013194D01*
X0168762Y0016391D02*
X0164566Y0016391D01*
X0166297Y0014793D02*
X0167176Y0014793D01*
X0159500Y0030778D02*
X0129500Y0030778D01*
X0129500Y0032376D02*
X0159500Y0032376D01*
X0159500Y0033975D02*
X0129500Y0033975D01*
X0129500Y0035573D02*
X0159500Y0035573D01*
X0158544Y0037172D02*
X0129500Y0037172D01*
X0129500Y0038770D02*
X0158000Y0038770D01*
X0158188Y0040369D02*
X0129500Y0040369D01*
X0129500Y0041967D02*
X0159276Y0041967D01*
X0160008Y0046763D02*
X0129500Y0046763D01*
X0129500Y0048361D02*
X0158382Y0048361D01*
X0158000Y0049960D02*
X0129500Y0049960D01*
X0129500Y0051558D02*
X0158349Y0051558D01*
X0159500Y0053157D02*
X0129500Y0053157D01*
X0129500Y0054755D02*
X0159500Y0054755D01*
X0159500Y0056354D02*
X0129500Y0056354D01*
X0129500Y0057952D02*
X0159500Y0057952D01*
X0159500Y0059551D02*
X0129500Y0059551D01*
X0129500Y0061149D02*
X0159500Y0061149D01*
X0159500Y0062748D02*
X0129500Y0062748D01*
X0129500Y0064346D02*
X0159500Y0064346D01*
X0159500Y0065945D02*
X0129500Y0065945D01*
X0129500Y0067543D02*
X0159500Y0067543D01*
X0159500Y0069142D02*
X0129500Y0069142D01*
X0129500Y0070740D02*
X0159500Y0070740D01*
X0159500Y0072339D02*
X0129500Y0072339D01*
X0129500Y0073937D02*
X0159500Y0073937D01*
X0159500Y0075536D02*
X0129500Y0075536D01*
X0129500Y0077134D02*
X0159500Y0077134D01*
X0159500Y0078733D02*
X0129500Y0078733D01*
X0129500Y0080332D02*
X0159500Y0080332D01*
X0159500Y0081930D02*
X0129500Y0081930D01*
X0129500Y0083529D02*
X0159500Y0083529D01*
X0159500Y0085127D02*
X0129500Y0085127D01*
X0129500Y0086726D02*
X0159500Y0086726D01*
X0159500Y0088324D02*
X0129500Y0088324D01*
X0129500Y0089923D02*
X0159500Y0089923D01*
X0159500Y0091521D02*
X0129500Y0091521D01*
X0129500Y0093120D02*
X0159500Y0093120D01*
X0159500Y0094718D02*
X0129500Y0094718D01*
X0129500Y0096317D02*
X0159500Y0096317D01*
X0159500Y0097915D02*
X0129500Y0097915D01*
X0129500Y0099514D02*
X0159500Y0099514D01*
X0159500Y0101112D02*
X0129500Y0101112D01*
X0129500Y0102711D02*
X0159500Y0102711D01*
X0157437Y0104309D02*
X0129500Y0104309D01*
X0129500Y0105908D02*
X0155704Y0105908D01*
X0155300Y0107506D02*
X0129500Y0107506D01*
X0129500Y0109105D02*
X0146325Y0109105D01*
X0144727Y0110703D02*
X0129500Y0110703D01*
X0129500Y0112302D02*
X0143128Y0112302D01*
X0141530Y0113900D02*
X0129500Y0113900D01*
X0129500Y0115499D02*
X0134760Y0115499D01*
X0133125Y0117097D02*
X0130475Y0117097D01*
X0131000Y0118696D02*
X0132600Y0118696D01*
X0132600Y0120294D02*
X0131000Y0120294D01*
X0131000Y0121893D02*
X0132600Y0121893D01*
X0132600Y0123491D02*
X0131000Y0123491D01*
X0131000Y0125090D02*
X0132600Y0125090D01*
X0133202Y0126688D02*
X0130398Y0126688D01*
X0128391Y0128287D02*
X0135209Y0128287D01*
X0138391Y0128287D02*
X0145209Y0128287D01*
X0143202Y0126688D02*
X0140398Y0126688D01*
X0141000Y0125090D02*
X0142600Y0125090D01*
X0142600Y0123491D02*
X0141000Y0123491D01*
X0141000Y0121893D02*
X0142600Y0121893D01*
X0142600Y0120294D02*
X0141076Y0120294D01*
X0139931Y0115499D02*
X0138840Y0115499D01*
X0148391Y0128287D02*
X0156843Y0128287D01*
X0158442Y0126688D02*
X0150398Y0126688D01*
X0151000Y0125090D02*
X0160040Y0125090D01*
X0161639Y0123491D02*
X0151000Y0123491D01*
X0160687Y0133082D02*
X0194913Y0133082D01*
X0193314Y0131484D02*
X0162286Y0131484D01*
X0163884Y0129885D02*
X0191716Y0129885D01*
X0190117Y0128287D02*
X0188391Y0128287D01*
X0185209Y0128287D02*
X0165483Y0128287D01*
X0167081Y0126688D02*
X0183202Y0126688D01*
X0182600Y0125090D02*
X0168680Y0125090D01*
X0210040Y0112302D02*
X0233128Y0112302D01*
X0231530Y0113900D02*
X0222170Y0113900D01*
X0223769Y0115499D02*
X0224760Y0115499D01*
X0228840Y0115499D02*
X0229931Y0115499D01*
X0234727Y0110703D02*
X0210200Y0110703D01*
X0209596Y0109105D02*
X0236325Y0109105D01*
X0222464Y0173045D02*
X0192215Y0173045D01*
X0193814Y0174644D02*
X0221900Y0174644D01*
X0221388Y0176242D02*
X0195412Y0176242D01*
X0197011Y0177841D02*
X0203086Y0177841D01*
X0204714Y0177841D02*
X0219789Y0177841D01*
X0200816Y0179439D02*
X0198609Y0179439D01*
X0200208Y0181038D02*
X0200300Y0181038D01*
X0197465Y0184235D02*
X0196205Y0184235D01*
X0195866Y0182636D02*
X0194606Y0182636D01*
X0194268Y0181038D02*
X0193008Y0181038D01*
X0192669Y0179439D02*
X0191409Y0179439D01*
X0191071Y0177841D02*
X0189811Y0177841D01*
X0189472Y0176242D02*
X0188212Y0176242D01*
X0187874Y0174644D02*
X0186614Y0174644D01*
X0186553Y0181038D02*
X0187068Y0181038D01*
X0186553Y0182636D02*
X0188666Y0182636D01*
X0190265Y0184235D02*
X0186163Y0184235D01*
X0184102Y0187432D02*
X0193462Y0187432D01*
X0195060Y0189030D02*
X0185700Y0189030D01*
X0187299Y0190629D02*
X0196659Y0190629D01*
X0198257Y0192227D02*
X0188897Y0192227D01*
X0190496Y0193826D02*
X0199856Y0193826D01*
X0201455Y0195424D02*
X0192094Y0195424D01*
X0191863Y0185833D02*
X0182503Y0185833D01*
X0182280Y0184235D02*
X0181320Y0184235D01*
X0181320Y0182636D02*
X0182280Y0182636D01*
X0182280Y0181038D02*
X0181320Y0181038D01*
X0177247Y0173045D02*
X0170692Y0173045D01*
X0169887Y0198621D02*
X0168200Y0198621D01*
X0168200Y0200220D02*
X0168909Y0200220D01*
X0168800Y0201818D02*
X0168200Y0201818D01*
X0168200Y0203417D02*
X0169526Y0203417D01*
X0170300Y0205015D02*
X0168200Y0205015D01*
X0168200Y0206614D02*
X0170300Y0206614D01*
X0170300Y0208212D02*
X0168200Y0208212D01*
X0168200Y0209811D02*
X0170300Y0209811D01*
X0170300Y0211409D02*
X0168200Y0211409D01*
X0168200Y0213008D02*
X0170300Y0213008D01*
X0170300Y0214606D02*
X0168200Y0214606D01*
X0168200Y0216205D02*
X0170300Y0216205D01*
X0170300Y0217803D02*
X0168200Y0217803D01*
X0168200Y0219402D02*
X0170300Y0219402D01*
X0170300Y0221001D02*
X0168200Y0221001D01*
X0167471Y0222599D02*
X0170300Y0222599D01*
X0171728Y0224198D02*
X0165872Y0224198D01*
X0164274Y0225796D02*
X0173326Y0225796D01*
X0176069Y0222599D02*
X0202602Y0222599D01*
X0202602Y0221001D02*
X0174500Y0221001D01*
X0174500Y0219402D02*
X0202602Y0219402D01*
X0202668Y0217803D02*
X0174500Y0217803D01*
X0177667Y0224198D02*
X0205400Y0224198D01*
X0205400Y0225796D02*
X0179266Y0225796D01*
X0180864Y0227395D02*
X0205525Y0227395D01*
X0207123Y0228993D02*
X0203484Y0228993D01*
X0198916Y0228993D02*
X0182463Y0228993D01*
X0184061Y0230592D02*
X0197804Y0230592D01*
X0197600Y0232190D02*
X0185660Y0232190D01*
X0187258Y0233789D02*
X0196242Y0233789D01*
X0194643Y0235387D02*
X0190978Y0235387D01*
X0192035Y0236986D02*
X0193045Y0236986D01*
X0195787Y0240183D02*
X0208747Y0240183D01*
X0209900Y0238584D02*
X0197386Y0238584D01*
X0198984Y0236986D02*
X0209900Y0236986D01*
X0207240Y0235387D02*
X0207068Y0235387D01*
X0207068Y0233789D02*
X0207240Y0233789D01*
X0207240Y0232190D02*
X0207068Y0232190D01*
X0207068Y0230592D02*
X0207240Y0230592D01*
X0211464Y0227395D02*
X0218125Y0227395D01*
X0219723Y0228993D02*
X0213063Y0228993D01*
X0212870Y0228800D02*
X0209600Y0225530D01*
X0209600Y0223676D01*
X0210770Y0223676D01*
X0211707Y0222738D01*
X0211707Y0220977D01*
X0221893Y0231163D01*
X0221893Y0235730D01*
X0222830Y0236668D01*
X0230061Y0236668D01*
X0230600Y0236129D01*
X0230600Y0236330D01*
X0224222Y0242708D01*
X0223762Y0242247D01*
X0217318Y0242247D01*
X0216941Y0242624D01*
X0216724Y0242407D01*
X0216314Y0242170D01*
X0215856Y0242047D01*
X0213539Y0242047D01*
X0213539Y0246320D01*
X0212580Y0246320D01*
X0212580Y0242290D01*
X0214100Y0240770D01*
X0214100Y0230030D01*
X0212870Y0228800D01*
X0214100Y0230592D02*
X0221322Y0230592D01*
X0221893Y0232190D02*
X0214100Y0232190D01*
X0214100Y0233789D02*
X0221893Y0233789D01*
X0221893Y0235387D02*
X0214100Y0235387D01*
X0214100Y0236986D02*
X0229945Y0236986D01*
X0228346Y0238584D02*
X0214100Y0238584D01*
X0214100Y0240183D02*
X0226747Y0240183D01*
X0225149Y0241781D02*
X0213089Y0241781D01*
X0213539Y0243380D02*
X0212580Y0243380D01*
X0212580Y0244978D02*
X0213539Y0244978D01*
X0213539Y0247280D02*
X0212580Y0247280D01*
X0212580Y0251553D01*
X0210500Y0251553D01*
X0210500Y0301130D01*
X0231893Y0322523D01*
X0231893Y0318563D01*
X0221600Y0308270D01*
X0221600Y0306530D01*
X0221600Y0251353D01*
X0217318Y0251353D01*
X0216941Y0250976D01*
X0216724Y0251193D01*
X0216314Y0251430D01*
X0215856Y0251553D01*
X0213539Y0251553D01*
X0213539Y0247280D01*
X0213539Y0248175D02*
X0212580Y0248175D01*
X0212580Y0249774D02*
X0213539Y0249774D01*
X0213539Y0251372D02*
X0212580Y0251372D01*
X0210500Y0252971D02*
X0221600Y0252971D01*
X0221600Y0254569D02*
X0210500Y0254569D01*
X0210500Y0256168D02*
X0221600Y0256168D01*
X0221600Y0257766D02*
X0210500Y0257766D01*
X0210500Y0259365D02*
X0221600Y0259365D01*
X0221600Y0260963D02*
X0210500Y0260963D01*
X0210500Y0262562D02*
X0221600Y0262562D01*
X0221600Y0264160D02*
X0210500Y0264160D01*
X0210500Y0265759D02*
X0221600Y0265759D01*
X0221600Y0267357D02*
X0210500Y0267357D01*
X0210500Y0268956D02*
X0221600Y0268956D01*
X0221600Y0270554D02*
X0210500Y0270554D01*
X0210500Y0272153D02*
X0221600Y0272153D01*
X0221600Y0273751D02*
X0210500Y0273751D01*
X0210500Y0275350D02*
X0221600Y0275350D01*
X0221600Y0276948D02*
X0210500Y0276948D01*
X0210500Y0278547D02*
X0221600Y0278547D01*
X0221600Y0280145D02*
X0210500Y0280145D01*
X0210500Y0281744D02*
X0221600Y0281744D01*
X0221600Y0283342D02*
X0210500Y0283342D01*
X0210500Y0284941D02*
X0221600Y0284941D01*
X0221600Y0286539D02*
X0210500Y0286539D01*
X0210500Y0288138D02*
X0221600Y0288138D01*
X0221600Y0289737D02*
X0210500Y0289737D01*
X0210500Y0291335D02*
X0221600Y0291335D01*
X0221600Y0292934D02*
X0210500Y0292934D01*
X0210500Y0294532D02*
X0221600Y0294532D01*
X0221600Y0296131D02*
X0210500Y0296131D01*
X0210500Y0297729D02*
X0221600Y0297729D01*
X0221600Y0299328D02*
X0210500Y0299328D01*
X0210500Y0300926D02*
X0221600Y0300926D01*
X0221600Y0302525D02*
X0211894Y0302525D01*
X0213493Y0304123D02*
X0221600Y0304123D01*
X0221600Y0305722D02*
X0215091Y0305722D01*
X0216690Y0307320D02*
X0221600Y0307320D01*
X0222249Y0308919D02*
X0218288Y0308919D01*
X0219887Y0310517D02*
X0223847Y0310517D01*
X0225446Y0312116D02*
X0221485Y0312116D01*
X0223084Y0313714D02*
X0227044Y0313714D01*
X0228643Y0315313D02*
X0224683Y0315313D01*
X0226281Y0316911D02*
X0230241Y0316911D01*
X0231840Y0318510D02*
X0227880Y0318510D01*
X0229478Y0320108D02*
X0231893Y0320108D01*
X0231893Y0321707D02*
X0231077Y0321707D01*
X0227232Y0326502D02*
X0225800Y0326502D01*
X0225800Y0328101D02*
X0228831Y0328101D01*
X0229700Y0329699D02*
X0225800Y0329699D01*
X0225800Y0331298D02*
X0229700Y0331298D01*
X0229700Y0332896D02*
X0225800Y0332896D01*
X0225800Y0334495D02*
X0229700Y0334495D01*
X0229700Y0336093D02*
X0225800Y0336093D01*
X0225178Y0337692D02*
X0231222Y0337692D01*
X0234002Y0342487D02*
X0304200Y0342487D01*
X0304200Y0340889D02*
X0221981Y0340889D01*
X0222580Y0342487D02*
X0223539Y0342487D01*
X0223539Y0344086D02*
X0222580Y0344086D01*
X0222580Y0345684D02*
X0223539Y0345684D01*
X0223539Y0347283D02*
X0222580Y0347283D01*
X0222580Y0348881D02*
X0223539Y0348881D01*
X0223539Y0350480D02*
X0222580Y0350480D01*
X0217991Y0352078D02*
X0228800Y0352078D01*
X0228800Y0353677D02*
X0216393Y0353677D01*
X0214794Y0355275D02*
X0228800Y0355275D01*
X0228800Y0356874D02*
X0213196Y0356874D01*
X0211597Y0358472D02*
X0228800Y0358472D01*
X0228800Y0360071D02*
X0209999Y0360071D01*
X0208400Y0361670D02*
X0228800Y0361670D01*
X0228800Y0363268D02*
X0206802Y0363268D01*
X0205203Y0364867D02*
X0228800Y0364867D01*
X0228800Y0366465D02*
X0203605Y0366465D01*
X0202006Y0368064D02*
X0228800Y0368064D01*
X0228800Y0369662D02*
X0212207Y0369662D01*
X0209993Y0369662D02*
X0206177Y0369662D01*
X0206353Y0376056D02*
X0208965Y0376056D01*
X0213235Y0376056D02*
X0228765Y0376056D01*
X0227566Y0374458D02*
X0214434Y0374458D01*
X0214700Y0372859D02*
X0227300Y0372859D01*
X0227765Y0371261D02*
X0214235Y0371261D01*
X0202280Y0382450D02*
X0201320Y0382450D01*
X0201320Y0384049D02*
X0202280Y0384049D01*
X0197047Y0379253D02*
X0190817Y0379253D01*
X0192415Y0377655D02*
X0197071Y0377655D01*
X0197247Y0376056D02*
X0194014Y0376056D01*
X0195612Y0374458D02*
X0197247Y0374458D01*
X0197211Y0372859D02*
X0197247Y0372859D01*
X0194468Y0369662D02*
X0190998Y0369662D01*
X0190998Y0371261D02*
X0192870Y0371261D01*
X0191271Y0372859D02*
X0190878Y0372859D01*
X0189673Y0374458D02*
X0179000Y0374458D01*
X0179000Y0376056D02*
X0188074Y0376056D01*
X0186476Y0377655D02*
X0179000Y0377655D01*
X0179000Y0379253D02*
X0184877Y0379253D01*
X0181903Y0380852D02*
X0179000Y0380852D01*
X0179000Y0382450D02*
X0181893Y0382450D01*
X0181893Y0384049D02*
X0180019Y0384049D01*
X0181617Y0385647D02*
X0181893Y0385647D01*
X0182014Y0372859D02*
X0179000Y0372859D01*
X0179000Y0371261D02*
X0181893Y0371261D01*
X0181893Y0369662D02*
X0179000Y0369662D01*
X0179000Y0368064D02*
X0181893Y0368064D01*
X0179000Y0366465D02*
X0186865Y0366465D01*
X0188464Y0364867D02*
X0179000Y0364867D01*
X0179000Y0363268D02*
X0190062Y0363268D01*
X0191661Y0361670D02*
X0179000Y0361670D01*
X0179000Y0360071D02*
X0193259Y0360071D01*
X0194858Y0358472D02*
X0179000Y0358472D01*
X0179000Y0356874D02*
X0196456Y0356874D01*
X0198055Y0355275D02*
X0179000Y0355275D01*
X0179000Y0353677D02*
X0199653Y0353677D01*
X0201252Y0352078D02*
X0179000Y0352078D01*
X0179000Y0350480D02*
X0202850Y0350480D01*
X0204449Y0348881D02*
X0179000Y0348881D01*
X0179000Y0347283D02*
X0206047Y0347283D01*
X0207646Y0345684D02*
X0179000Y0345684D01*
X0179000Y0344086D02*
X0209244Y0344086D01*
X0210843Y0342487D02*
X0179000Y0342487D01*
X0179000Y0340889D02*
X0212441Y0340889D01*
X0214040Y0339290D02*
X0179000Y0339290D01*
X0179000Y0337692D02*
X0215638Y0337692D01*
X0212715Y0336093D02*
X0179000Y0336093D01*
X0179000Y0334495D02*
X0212402Y0334495D01*
X0212402Y0332896D02*
X0179000Y0332896D01*
X0179000Y0331298D02*
X0212402Y0331298D01*
X0216231Y0328101D02*
X0179000Y0328101D01*
X0179000Y0329699D02*
X0217829Y0329699D01*
X0217240Y0331298D02*
X0217068Y0331298D01*
X0217068Y0332896D02*
X0217240Y0332896D01*
X0214632Y0326502D02*
X0179000Y0326502D01*
X0179000Y0324904D02*
X0212134Y0324904D01*
X0210800Y0323305D02*
X0179000Y0323305D01*
X0179000Y0321707D02*
X0210800Y0321707D01*
X0210800Y0320108D02*
X0179000Y0320108D01*
X0179000Y0318510D02*
X0210800Y0318510D01*
X0210800Y0316911D02*
X0179000Y0316911D01*
X0179000Y0315313D02*
X0211017Y0315313D01*
X0212616Y0313714D02*
X0179000Y0313714D01*
X0179000Y0312116D02*
X0212846Y0312116D01*
X0211247Y0310517D02*
X0179000Y0310517D01*
X0179000Y0308919D02*
X0209649Y0308919D01*
X0208050Y0307320D02*
X0179000Y0307320D01*
X0179000Y0305722D02*
X0206452Y0305722D01*
X0204853Y0304123D02*
X0179000Y0304123D01*
X0179000Y0302525D02*
X0203255Y0302525D01*
X0201656Y0300926D02*
X0179000Y0300926D01*
X0179000Y0299328D02*
X0200058Y0299328D01*
X0199100Y0297729D02*
X0179000Y0297729D01*
X0179000Y0296131D02*
X0199100Y0296131D01*
X0199100Y0294532D02*
X0179000Y0294532D01*
X0179000Y0292934D02*
X0199100Y0292934D01*
X0199100Y0291335D02*
X0179000Y0291335D01*
X0179000Y0289737D02*
X0199100Y0289737D01*
X0199100Y0288138D02*
X0179000Y0288138D01*
X0180189Y0286539D02*
X0199100Y0286539D01*
X0199100Y0284941D02*
X0180998Y0284941D01*
X0180998Y0283342D02*
X0187049Y0283342D01*
X0187047Y0281744D02*
X0180998Y0281744D01*
X0180282Y0280145D02*
X0191320Y0280145D01*
X0192280Y0280145D02*
X0196176Y0280145D01*
X0196553Y0281744D02*
X0197774Y0281744D01*
X0196551Y0283342D02*
X0199100Y0283342D01*
X0203300Y0283342D02*
X0206300Y0283342D01*
X0206300Y0281744D02*
X0203300Y0281744D01*
X0202115Y0280145D02*
X0206300Y0280145D01*
X0206300Y0278547D02*
X0200517Y0278547D01*
X0198918Y0276948D02*
X0206300Y0276948D01*
X0206300Y0275350D02*
X0197320Y0275350D01*
X0196353Y0273751D02*
X0206300Y0273751D01*
X0206300Y0272153D02*
X0196353Y0272153D01*
X0196353Y0270554D02*
X0206300Y0270554D01*
X0206300Y0268956D02*
X0195471Y0268956D01*
X0187247Y0275350D02*
X0162420Y0275350D01*
X0160821Y0276948D02*
X0187365Y0276948D01*
X0187047Y0278547D02*
X0159223Y0278547D01*
X0161274Y0280145D02*
X0172609Y0280145D01*
X0171893Y0281744D02*
X0161907Y0281744D01*
X0161907Y0284941D02*
X0171893Y0284941D01*
X0171893Y0283342D02*
X0157240Y0283342D01*
X0157240Y0284941D02*
X0157068Y0284941D01*
X0157068Y0286539D02*
X0157240Y0286539D01*
X0161158Y0286539D02*
X0172702Y0286539D01*
X0174800Y0288138D02*
X0147832Y0288138D01*
X0149430Y0286539D02*
X0153151Y0286539D01*
X0152402Y0284941D02*
X0151029Y0284941D01*
X0146233Y0289737D02*
X0174800Y0289737D01*
X0174800Y0291335D02*
X0144635Y0291335D01*
X0143036Y0292934D02*
X0174800Y0292934D01*
X0174800Y0294532D02*
X0141438Y0294532D01*
X0139839Y0296131D02*
X0174800Y0296131D01*
X0174800Y0297729D02*
X0138241Y0297729D01*
X0119900Y0305722D02*
X0109700Y0305722D01*
X0109700Y0307320D02*
X0119900Y0307320D01*
X0119900Y0308919D02*
X0109700Y0308919D01*
X0109700Y0310517D02*
X0119900Y0310517D01*
X0119900Y0312116D02*
X0109700Y0312116D01*
X0109700Y0313714D02*
X0119900Y0313714D01*
X0119900Y0315313D02*
X0109700Y0315313D01*
X0109700Y0316911D02*
X0119900Y0316911D01*
X0119900Y0318510D02*
X0111707Y0318510D01*
X0111707Y0320108D02*
X0119900Y0320108D01*
X0119900Y0321707D02*
X0111707Y0321707D01*
X0111140Y0323305D02*
X0119900Y0323305D01*
X0121234Y0324904D02*
X0107374Y0324904D01*
X0108972Y0326502D02*
X0122832Y0326502D01*
X0117078Y0342487D02*
X0116805Y0342487D01*
X0113539Y0342487D02*
X0112580Y0342487D01*
X0112580Y0344086D02*
X0113539Y0344086D01*
X0113539Y0345684D02*
X0112580Y0345684D01*
X0112580Y0347283D02*
X0113539Y0347283D01*
X0113539Y0348881D02*
X0112580Y0348881D01*
X0112580Y0350480D02*
X0113539Y0350480D01*
X0167068Y0380852D02*
X0167240Y0380852D01*
X0167240Y0382450D02*
X0167068Y0382450D01*
X0167068Y0384049D02*
X0167240Y0384049D01*
X0167240Y0385647D02*
X0167068Y0385647D01*
X0191206Y0368064D02*
X0194689Y0368064D01*
X0193410Y0366465D02*
X0192805Y0366465D01*
X0223579Y0339290D02*
X0304861Y0339290D01*
X0306698Y0337692D02*
X0242278Y0337692D01*
X0242900Y0336093D02*
X0307145Y0336093D01*
X0304989Y0334495D02*
X0242900Y0334495D01*
X0242900Y0332896D02*
X0304275Y0332896D01*
X0304200Y0331298D02*
X0242900Y0331298D01*
X0242900Y0329699D02*
X0304691Y0329699D01*
X0305994Y0328101D02*
X0242900Y0328101D01*
X0242900Y0326502D02*
X0317000Y0326502D01*
X0317000Y0316911D02*
X0261500Y0316911D01*
X0261346Y0315313D02*
X0305524Y0315313D01*
X0304388Y0313714D02*
X0260305Y0313714D01*
X0260000Y0312116D02*
X0304000Y0312116D01*
X0304000Y0311600D02*
X0304000Y0311422D01*
X0304118Y0310676D01*
X0304352Y0309957D01*
X0304695Y0309284D01*
X0305139Y0308673D01*
X0305673Y0308139D01*
X0306284Y0307695D01*
X0306957Y0307352D01*
X0307676Y0307118D01*
X0308422Y0307000D01*
X0311600Y0307000D01*
X0311600Y0311600D01*
X0304000Y0311600D01*
X0304170Y0310517D02*
X0260000Y0310517D01*
X0260000Y0308919D02*
X0304960Y0308919D01*
X0307054Y0307320D02*
X0260000Y0307320D01*
X0260000Y0305722D02*
X0317000Y0305722D01*
X0317000Y0307320D02*
X0316545Y0307320D01*
X0317000Y0304123D02*
X0260000Y0304123D01*
X0260000Y0302525D02*
X0317000Y0302525D01*
X0317000Y0300926D02*
X0260000Y0300926D01*
X0260000Y0299328D02*
X0317000Y0299328D01*
X0317000Y0297729D02*
X0260000Y0297729D01*
X0260000Y0296131D02*
X0317000Y0296131D01*
X0317000Y0294532D02*
X0260000Y0294532D01*
X0260000Y0292934D02*
X0316064Y0292934D01*
X0314465Y0291335D02*
X0260000Y0291335D01*
X0260000Y0289737D02*
X0312867Y0289737D01*
X0311268Y0288138D02*
X0260000Y0288138D01*
X0260000Y0286539D02*
X0309670Y0286539D01*
X0308071Y0284941D02*
X0260000Y0284941D01*
X0260000Y0283342D02*
X0306473Y0283342D01*
X0304874Y0281744D02*
X0260000Y0281744D01*
X0260000Y0280145D02*
X0303276Y0280145D01*
X0301677Y0278547D02*
X0260000Y0278547D01*
X0260000Y0276948D02*
X0300079Y0276948D01*
X0298480Y0275350D02*
X0260000Y0275350D01*
X0260000Y0273751D02*
X0296882Y0273751D01*
X0295283Y0272153D02*
X0260000Y0272153D01*
X0260000Y0270554D02*
X0293685Y0270554D01*
X0292086Y0268956D02*
X0260000Y0268956D01*
X0260000Y0267357D02*
X0290488Y0267357D01*
X0288889Y0265759D02*
X0260000Y0265759D01*
X0260000Y0264160D02*
X0287290Y0264160D01*
X0285692Y0262562D02*
X0260000Y0262562D01*
X0260000Y0260963D02*
X0284093Y0260963D01*
X0282495Y0259365D02*
X0260000Y0259365D01*
X0260000Y0257766D02*
X0280896Y0257766D01*
X0279298Y0256168D02*
X0260000Y0256168D01*
X0260000Y0254569D02*
X0277699Y0254569D01*
X0276101Y0252971D02*
X0260000Y0252971D01*
X0260000Y0251372D02*
X0274502Y0251372D01*
X0272904Y0249774D02*
X0260000Y0249774D01*
X0260000Y0248175D02*
X0271305Y0248175D01*
X0269707Y0246577D02*
X0260000Y0246577D01*
X0260000Y0244978D02*
X0268108Y0244978D01*
X0266510Y0243380D02*
X0260000Y0243380D01*
X0259151Y0241781D02*
X0264911Y0241781D01*
X0263313Y0240183D02*
X0257552Y0240183D01*
X0255954Y0238584D02*
X0261714Y0238584D01*
X0260116Y0236986D02*
X0254355Y0236986D01*
X0252757Y0235387D02*
X0258517Y0235387D01*
X0256919Y0233789D02*
X0251158Y0233789D01*
X0249560Y0232190D02*
X0255320Y0232190D01*
X0253722Y0230592D02*
X0247961Y0230592D01*
X0246363Y0228993D02*
X0252123Y0228993D01*
X0250525Y0227395D02*
X0244764Y0227395D01*
X0243166Y0225796D02*
X0248926Y0225796D01*
X0245412Y0224198D02*
X0241567Y0224198D01*
X0239969Y0222599D02*
X0243866Y0222599D01*
X0243500Y0221001D02*
X0238370Y0221001D01*
X0236772Y0219402D02*
X0242532Y0219402D01*
X0238825Y0227395D02*
X0233064Y0227395D01*
X0234663Y0228993D02*
X0240423Y0228993D01*
X0242022Y0230592D02*
X0234800Y0230592D01*
X0234800Y0232190D02*
X0243620Y0232190D01*
X0245219Y0233789D02*
X0234800Y0233789D01*
X0234800Y0235387D02*
X0246817Y0235387D01*
X0248416Y0236986D02*
X0234800Y0236986D01*
X0234286Y0238584D02*
X0250014Y0238584D01*
X0251613Y0240183D02*
X0232687Y0240183D01*
X0231089Y0241781D02*
X0253211Y0241781D01*
X0254810Y0243380D02*
X0229490Y0243380D01*
X0227892Y0244978D02*
X0255800Y0244978D01*
X0255800Y0246577D02*
X0226293Y0246577D01*
X0225800Y0248175D02*
X0255800Y0248175D01*
X0255800Y0249774D02*
X0225800Y0249774D01*
X0225800Y0251372D02*
X0255800Y0251372D01*
X0255800Y0252971D02*
X0225800Y0252971D01*
X0225800Y0254569D02*
X0255800Y0254569D01*
X0255800Y0256168D02*
X0225800Y0256168D01*
X0225800Y0257766D02*
X0255800Y0257766D01*
X0255800Y0259365D02*
X0225800Y0259365D01*
X0225800Y0260963D02*
X0255800Y0260963D01*
X0255800Y0262562D02*
X0225800Y0262562D01*
X0225800Y0264160D02*
X0255800Y0264160D01*
X0255800Y0265759D02*
X0225800Y0265759D01*
X0225800Y0267357D02*
X0255800Y0267357D01*
X0255800Y0268956D02*
X0225800Y0268956D01*
X0225800Y0270554D02*
X0255800Y0270554D01*
X0255800Y0272153D02*
X0225800Y0272153D01*
X0225800Y0273751D02*
X0255800Y0273751D01*
X0255800Y0275350D02*
X0225800Y0275350D01*
X0225800Y0276948D02*
X0255800Y0276948D01*
X0255800Y0278547D02*
X0225800Y0278547D01*
X0225800Y0280145D02*
X0255800Y0280145D01*
X0255800Y0281744D02*
X0225800Y0281744D01*
X0225800Y0283342D02*
X0255800Y0283342D01*
X0255800Y0284941D02*
X0225800Y0284941D01*
X0225800Y0286539D02*
X0255800Y0286539D01*
X0255800Y0288138D02*
X0225800Y0288138D01*
X0225800Y0289737D02*
X0255800Y0289737D01*
X0255800Y0291335D02*
X0225800Y0291335D01*
X0225800Y0292934D02*
X0255800Y0292934D01*
X0255800Y0294532D02*
X0225800Y0294532D01*
X0225800Y0296131D02*
X0255800Y0296131D01*
X0255800Y0297729D02*
X0225800Y0297729D01*
X0225800Y0299328D02*
X0255800Y0299328D01*
X0255800Y0300926D02*
X0225800Y0300926D01*
X0225800Y0302525D02*
X0255800Y0302525D01*
X0255800Y0304123D02*
X0225800Y0304123D01*
X0225800Y0305722D02*
X0255800Y0305722D01*
X0255800Y0307320D02*
X0226590Y0307320D01*
X0228188Y0308919D02*
X0255800Y0308919D01*
X0255800Y0310517D02*
X0229787Y0310517D01*
X0231386Y0312116D02*
X0255800Y0312116D01*
X0255495Y0313714D02*
X0232984Y0313714D01*
X0234583Y0315313D02*
X0254454Y0315313D01*
X0254300Y0316911D02*
X0236181Y0316911D01*
X0240998Y0318510D02*
X0254919Y0318510D01*
X0260881Y0318510D02*
X0305585Y0318510D01*
X0304522Y0320108D02*
X0240998Y0320108D01*
X0240998Y0321707D02*
X0304200Y0321707D01*
X0304444Y0323305D02*
X0242575Y0323305D01*
X0242900Y0324904D02*
X0305398Y0324904D01*
X0311600Y0315313D02*
X0312000Y0315313D01*
X0312000Y0313714D02*
X0311600Y0313714D01*
X0311600Y0312116D02*
X0312000Y0312116D01*
X0312000Y0310517D02*
X0311600Y0310517D01*
X0311600Y0308919D02*
X0312000Y0308919D01*
X0312000Y0307320D02*
X0311600Y0307320D01*
X0316455Y0336093D02*
X0317000Y0336093D01*
X0317000Y0337692D02*
X0316902Y0337692D01*
X0317000Y0347283D02*
X0315915Y0347283D01*
X0307685Y0347283D02*
X0234699Y0347283D01*
X0234699Y0348881D02*
X0305213Y0348881D01*
X0304368Y0350480D02*
X0234635Y0350480D01*
X0233000Y0352078D02*
X0304200Y0352078D01*
X0304598Y0353677D02*
X0233000Y0353677D01*
X0233000Y0355275D02*
X0305770Y0355275D01*
X0305622Y0358472D02*
X0233000Y0358472D01*
X0233000Y0356874D02*
X0317000Y0356874D01*
X0317000Y0366465D02*
X0233000Y0366465D01*
X0233000Y0364867D02*
X0305361Y0364867D01*
X0304429Y0363268D02*
X0233000Y0363268D01*
X0233000Y0361670D02*
X0304200Y0361670D01*
X0304537Y0360071D02*
X0233000Y0360071D01*
X0233000Y0368064D02*
X0306031Y0368064D01*
X0304707Y0369662D02*
X0233000Y0369662D01*
X0234699Y0345684D02*
X0306179Y0345684D01*
X0304768Y0344086D02*
X0234699Y0344086D01*
X0227078Y0342487D02*
X0226805Y0342487D01*
X0225634Y0324904D02*
X0224374Y0324904D01*
X0224035Y0323305D02*
X0222775Y0323305D01*
X0222437Y0321707D02*
X0221707Y0321707D01*
X0206300Y0299328D02*
X0205997Y0299328D01*
X0206300Y0297729D02*
X0204399Y0297729D01*
X0203300Y0296131D02*
X0206300Y0296131D01*
X0206300Y0294532D02*
X0203300Y0294532D01*
X0203300Y0292934D02*
X0206300Y0292934D01*
X0206300Y0291335D02*
X0203300Y0291335D01*
X0203300Y0289737D02*
X0206300Y0289737D01*
X0206300Y0288138D02*
X0203300Y0288138D01*
X0203300Y0286539D02*
X0206300Y0286539D01*
X0206300Y0284941D02*
X0203300Y0284941D01*
X0192280Y0283342D02*
X0191320Y0283342D01*
X0191320Y0281744D02*
X0192280Y0281744D01*
X0216414Y0251372D02*
X0221600Y0251372D01*
X0207149Y0241781D02*
X0194189Y0241781D01*
X0192590Y0243380D02*
X0206300Y0243380D01*
X0206300Y0244978D02*
X0165793Y0244978D01*
X0162874Y0268956D02*
X0161707Y0268956D01*
X0201947Y0235387D02*
X0202424Y0235387D01*
X0209866Y0225796D02*
X0216526Y0225796D01*
X0214928Y0224198D02*
X0209600Y0224198D01*
X0211707Y0222599D02*
X0213329Y0222599D01*
X0211731Y0221001D02*
X0211707Y0221001D01*
X0200662Y0187432D02*
X0199402Y0187432D01*
X0199063Y0185833D02*
X0197803Y0185833D01*
X0124760Y0115499D02*
X0118840Y0115499D01*
X0120475Y0117097D02*
X0123125Y0117097D01*
X0122600Y0118696D02*
X0121000Y0118696D01*
X0121000Y0120294D02*
X0122600Y0120294D01*
X0122600Y0121893D02*
X0121000Y0121893D01*
X0121961Y0123491D02*
X0122600Y0123491D01*
X0114760Y0115499D02*
X0113969Y0115499D01*
X0082100Y0115499D02*
X0068840Y0115499D01*
X0069179Y0115639D02*
X0070361Y0116821D01*
X0071000Y0118365D01*
X0071000Y0125235D01*
X0070361Y0126779D01*
X0069179Y0127961D01*
X0067635Y0128600D01*
X0065965Y0128600D01*
X0064421Y0127961D01*
X0063239Y0126779D01*
X0062600Y0125235D01*
X0062600Y0118365D01*
X0063239Y0116821D01*
X0064421Y0115639D01*
X0065965Y0115000D01*
X0067635Y0115000D01*
X0069179Y0115639D01*
X0070475Y0117097D02*
X0082100Y0117097D01*
X0082100Y0118696D02*
X0071000Y0118696D01*
X0071000Y0120294D02*
X0082100Y0120294D01*
X0082100Y0121893D02*
X0071000Y0121893D01*
X0071000Y0123491D02*
X0082100Y0123491D01*
X0082100Y0125090D02*
X0071000Y0125090D01*
X0070398Y0126688D02*
X0082100Y0126688D01*
X0082100Y0128287D02*
X0068391Y0128287D01*
X0065209Y0128287D02*
X0058391Y0128287D01*
X0060398Y0126688D02*
X0063202Y0126688D01*
X0062600Y0125090D02*
X0061000Y0125090D01*
X0061000Y0123491D02*
X0062600Y0123491D01*
X0062600Y0121893D02*
X0061000Y0121893D01*
X0061000Y0120294D02*
X0062600Y0120294D01*
X0062600Y0118696D02*
X0061000Y0118696D01*
X0060475Y0117097D02*
X0063125Y0117097D01*
X0064760Y0115499D02*
X0058840Y0115499D01*
X0054800Y0113900D02*
X0082100Y0113900D01*
X0082100Y0112302D02*
X0054800Y0112302D01*
X0054800Y0110703D02*
X0082100Y0110703D01*
X0082100Y0109105D02*
X0054800Y0109105D01*
X0054800Y0107506D02*
X0082100Y0107506D01*
X0082100Y0105908D02*
X0054800Y0105908D01*
X0054800Y0104309D02*
X0082100Y0104309D01*
X0082100Y0102711D02*
X0054800Y0102711D01*
X0054800Y0101112D02*
X0082100Y0101112D01*
X0082100Y0099514D02*
X0054800Y0099514D01*
X0054800Y0097915D02*
X0082100Y0097915D01*
X0082100Y0096317D02*
X0054800Y0096317D01*
X0054800Y0094718D02*
X0082100Y0094718D01*
X0082100Y0093120D02*
X0054800Y0093120D01*
X0054800Y0091521D02*
X0082100Y0091521D01*
X0082100Y0089923D02*
X0054800Y0089923D01*
X0054800Y0088324D02*
X0082100Y0088324D01*
X0082100Y0086726D02*
X0054800Y0086726D01*
X0054800Y0085127D02*
X0082100Y0085127D01*
X0082100Y0083529D02*
X0054800Y0083529D01*
X0054800Y0081930D02*
X0082100Y0081930D01*
X0082100Y0080332D02*
X0054800Y0080332D01*
X0054800Y0078733D02*
X0082100Y0078733D01*
X0082100Y0077134D02*
X0054800Y0077134D01*
X0054800Y0075536D02*
X0082100Y0075536D01*
X0082100Y0073937D02*
X0054800Y0073937D01*
X0054800Y0072339D02*
X0082100Y0072339D01*
X0082100Y0070740D02*
X0054800Y0070740D01*
X0054800Y0069142D02*
X0082100Y0069142D01*
X0082100Y0067543D02*
X0054800Y0067543D01*
X0054800Y0065945D02*
X0082100Y0065945D01*
X0082100Y0064346D02*
X0054800Y0064346D01*
X0054800Y0062748D02*
X0082100Y0062748D01*
X0082100Y0061149D02*
X0054800Y0061149D01*
X0054800Y0059551D02*
X0082100Y0059551D01*
X0082100Y0057952D02*
X0054800Y0057952D01*
X0054800Y0056354D02*
X0082100Y0056354D01*
X0082100Y0054755D02*
X0054800Y0054755D01*
X0054800Y0053157D02*
X0082100Y0053157D01*
X0110691Y0029179D02*
X0114651Y0029179D01*
X0114041Y0027581D02*
X0112289Y0027581D01*
X0139559Y0027581D02*
X0144041Y0027581D01*
X0142909Y0025982D02*
X0140691Y0025982D01*
X0141000Y0024384D02*
X0142600Y0024384D01*
X0142600Y0022785D02*
X0141000Y0022785D01*
X0141000Y0021187D02*
X0142600Y0021187D01*
X0141718Y0019588D02*
X0141000Y0019588D01*
X0050536Y0013194D02*
X0049464Y0013194D01*
X0043165Y0017000D02*
X0040435Y0017000D01*
X0041000Y0018365D01*
X0041000Y0025235D01*
X0040361Y0026779D01*
X0039179Y0027961D01*
X0037635Y0028600D01*
X0035965Y0028600D01*
X0035000Y0028200D01*
X0035000Y0115400D01*
X0035965Y0115000D01*
X0037635Y0115000D01*
X0039179Y0115639D01*
X0040361Y0116821D01*
X0041000Y0118365D01*
X0041000Y0122630D01*
X0042600Y0124230D01*
X0042600Y0118365D01*
X0043239Y0116821D01*
X0044421Y0115639D01*
X0045200Y0115317D01*
X0045200Y0028283D01*
X0044421Y0027961D01*
X0043239Y0026779D01*
X0042600Y0025235D01*
X0042600Y0018365D01*
X0043165Y0017000D01*
X0042755Y0017990D02*
X0040845Y0017990D01*
X0041000Y0019588D02*
X0042600Y0019588D01*
X0042600Y0021187D02*
X0041000Y0021187D01*
X0041000Y0022785D02*
X0042600Y0022785D01*
X0042600Y0024384D02*
X0041000Y0024384D01*
X0040691Y0025982D02*
X0042909Y0025982D01*
X0044041Y0027581D02*
X0039559Y0027581D01*
X0035000Y0029179D02*
X0045200Y0029179D01*
X0045200Y0030778D02*
X0035000Y0030778D01*
X0035000Y0032376D02*
X0045200Y0032376D01*
X0045200Y0033975D02*
X0035000Y0033975D01*
X0035000Y0035573D02*
X0045200Y0035573D01*
X0045200Y0037172D02*
X0035000Y0037172D01*
X0035000Y0038770D02*
X0045200Y0038770D01*
X0045200Y0040369D02*
X0035000Y0040369D01*
X0035000Y0041967D02*
X0045200Y0041967D01*
X0045200Y0043566D02*
X0035000Y0043566D01*
X0035000Y0045164D02*
X0045200Y0045164D01*
X0045200Y0046763D02*
X0035000Y0046763D01*
X0035000Y0048361D02*
X0045200Y0048361D01*
X0045200Y0049960D02*
X0035000Y0049960D01*
X0035000Y0051558D02*
X0045200Y0051558D01*
X0045200Y0053157D02*
X0035000Y0053157D01*
X0035000Y0054755D02*
X0045200Y0054755D01*
X0045200Y0056354D02*
X0035000Y0056354D01*
X0035000Y0057952D02*
X0045200Y0057952D01*
X0045200Y0059551D02*
X0035000Y0059551D01*
X0035000Y0061149D02*
X0045200Y0061149D01*
X0045200Y0062748D02*
X0035000Y0062748D01*
X0035000Y0064346D02*
X0045200Y0064346D01*
X0045200Y0065945D02*
X0035000Y0065945D01*
X0035000Y0067543D02*
X0045200Y0067543D01*
X0045200Y0069142D02*
X0035000Y0069142D01*
X0035000Y0070740D02*
X0045200Y0070740D01*
X0045200Y0072339D02*
X0035000Y0072339D01*
X0035000Y0073937D02*
X0045200Y0073937D01*
X0045200Y0075536D02*
X0035000Y0075536D01*
X0035000Y0077134D02*
X0045200Y0077134D01*
X0045200Y0078733D02*
X0035000Y0078733D01*
X0035000Y0080332D02*
X0045200Y0080332D01*
X0045200Y0081930D02*
X0035000Y0081930D01*
X0035000Y0083529D02*
X0045200Y0083529D01*
X0045200Y0085127D02*
X0035000Y0085127D01*
X0035000Y0086726D02*
X0045200Y0086726D01*
X0045200Y0088324D02*
X0035000Y0088324D01*
X0035000Y0089923D02*
X0045200Y0089923D01*
X0045200Y0091521D02*
X0035000Y0091521D01*
X0035000Y0093120D02*
X0045200Y0093120D01*
X0045200Y0094718D02*
X0035000Y0094718D01*
X0035000Y0096317D02*
X0045200Y0096317D01*
X0045200Y0097915D02*
X0035000Y0097915D01*
X0035000Y0099514D02*
X0045200Y0099514D01*
X0045200Y0101112D02*
X0035000Y0101112D01*
X0035000Y0102711D02*
X0045200Y0102711D01*
X0045200Y0104309D02*
X0035000Y0104309D01*
X0035000Y0105908D02*
X0045200Y0105908D01*
X0045200Y0107506D02*
X0035000Y0107506D01*
X0035000Y0109105D02*
X0045200Y0109105D01*
X0045200Y0110703D02*
X0035000Y0110703D01*
X0035000Y0112302D02*
X0045200Y0112302D01*
X0045200Y0113900D02*
X0035000Y0113900D01*
X0038840Y0115499D02*
X0044760Y0115499D01*
X0043125Y0117097D02*
X0040475Y0117097D01*
X0041000Y0118696D02*
X0042600Y0118696D01*
X0042600Y0120294D02*
X0041000Y0120294D01*
X0041000Y0121893D02*
X0042600Y0121893D01*
X0042600Y0123491D02*
X0041861Y0123491D01*
X0030800Y0117097D02*
X0030475Y0117097D01*
X0030800Y0115499D02*
X0028840Y0115499D01*
X0030800Y0113900D02*
X0011600Y0113900D01*
X0011600Y0112302D02*
X0030800Y0112302D01*
X0030800Y0110703D02*
X0011600Y0110703D01*
X0011600Y0109105D02*
X0030800Y0109105D01*
X0030800Y0107506D02*
X0011600Y0107506D01*
X0011600Y0105908D02*
X0030800Y0105908D01*
X0030800Y0104309D02*
X0011600Y0104309D01*
X0011600Y0102711D02*
X0030800Y0102711D01*
X0030800Y0101112D02*
X0011600Y0101112D01*
X0011600Y0099514D02*
X0030800Y0099514D01*
X0030800Y0097915D02*
X0011600Y0097915D01*
X0011600Y0096317D02*
X0030800Y0096317D01*
X0030800Y0094718D02*
X0011600Y0094718D01*
X0011600Y0093120D02*
X0030800Y0093120D01*
X0030800Y0091521D02*
X0011600Y0091521D01*
X0011600Y0089923D02*
X0030800Y0089923D01*
X0030800Y0088324D02*
X0011600Y0088324D01*
X0011600Y0086726D02*
X0030800Y0086726D01*
X0030800Y0085127D02*
X0011600Y0085127D01*
X0011600Y0083529D02*
X0030800Y0083529D01*
X0030800Y0081930D02*
X0011600Y0081930D01*
X0011600Y0080332D02*
X0030800Y0080332D01*
X0030800Y0078733D02*
X0011600Y0078733D01*
X0011600Y0077134D02*
X0030800Y0077134D01*
X0030800Y0075536D02*
X0011600Y0075536D01*
X0011600Y0073937D02*
X0030800Y0073937D01*
X0030800Y0072339D02*
X0011600Y0072339D01*
X0011600Y0070740D02*
X0030800Y0070740D01*
X0030800Y0069142D02*
X0011600Y0069142D01*
X0011600Y0067543D02*
X0030800Y0067543D01*
X0030800Y0065945D02*
X0011600Y0065945D01*
X0011600Y0064346D02*
X0030800Y0064346D01*
X0030800Y0062748D02*
X0011600Y0062748D01*
X0011600Y0061149D02*
X0030800Y0061149D01*
X0030800Y0059551D02*
X0011600Y0059551D01*
X0011600Y0057952D02*
X0030800Y0057952D01*
X0030800Y0056354D02*
X0011600Y0056354D01*
X0011600Y0054755D02*
X0030800Y0054755D01*
X0030800Y0053157D02*
X0011600Y0053157D01*
X0011600Y0051558D02*
X0030800Y0051558D01*
X0030800Y0049960D02*
X0011600Y0049960D01*
X0011600Y0048361D02*
X0030800Y0048361D01*
X0030800Y0046763D02*
X0011600Y0046763D01*
X0011600Y0045164D02*
X0030800Y0045164D01*
X0030800Y0043566D02*
X0011600Y0043566D01*
X0011600Y0041967D02*
X0030800Y0041967D01*
X0030800Y0040369D02*
X0011600Y0040369D01*
X0011600Y0038770D02*
X0030800Y0038770D01*
X0030800Y0037172D02*
X0011600Y0037172D01*
X0011600Y0035573D02*
X0030800Y0035573D01*
X0030800Y0033975D02*
X0011600Y0033975D01*
X0011600Y0032376D02*
X0030800Y0032376D01*
X0030800Y0030778D02*
X0011600Y0030778D01*
X0011600Y0029179D02*
X0030800Y0029179D01*
X0030800Y0027581D02*
X0029559Y0027581D01*
X0030691Y0025982D02*
X0030800Y0025982D01*
X0024041Y0027581D02*
X0011600Y0027581D01*
X0011600Y0025982D02*
X0022909Y0025982D01*
X0022600Y0024384D02*
X0011600Y0024384D01*
X0011600Y0022785D02*
X0022600Y0022785D01*
X0022600Y0021187D02*
X0011600Y0021187D01*
X0011600Y0019588D02*
X0022600Y0019588D01*
X0022755Y0017990D02*
X0011600Y0017990D01*
X0011600Y0016391D02*
X0023669Y0016391D01*
X0030938Y0014793D02*
X0011600Y0014793D01*
X0011600Y0013194D02*
X0032536Y0013194D01*
X0024760Y0115499D02*
X0011600Y0115499D01*
X0011600Y0117097D02*
X0023125Y0117097D01*
X0022600Y0118696D02*
X0011600Y0118696D01*
X0011600Y0120294D02*
X0022600Y0120294D01*
X0022600Y0121893D02*
X0011600Y0121893D01*
X0011600Y0123491D02*
X0022600Y0123491D01*
X0022600Y0125090D02*
X0011600Y0125090D01*
X0011600Y0126688D02*
X0023202Y0126688D01*
X0025209Y0128287D02*
X0011600Y0128287D01*
X0028391Y0128287D02*
X0029017Y0128287D01*
X0061177Y0129885D02*
X0082100Y0129885D01*
X0082100Y0131484D02*
X0062351Y0131484D01*
X0062600Y0133082D02*
X0082100Y0133082D01*
X0081015Y0134681D02*
X0062118Y0134681D01*
X0068042Y0144272D02*
X0082358Y0144272D01*
X0080760Y0145870D02*
X0069640Y0145870D01*
X0071239Y0147469D02*
X0071640Y0147469D01*
X0076960Y0147469D02*
X0079161Y0147469D01*
X0296042Y0393640D02*
X0304583Y0393640D01*
X0304200Y0392041D02*
X0296965Y0392041D01*
X0297758Y0390443D02*
X0304383Y0390443D01*
X0305250Y0388844D02*
X0298040Y0388844D01*
X0295686Y0394256D02*
X0295686Y0394256D01*
X0294516Y0395238D02*
X0305733Y0395238D01*
D19*
X0296800Y0331800D03*
X0191800Y0301800D03*
X0151800Y0336800D03*
X0091800Y0331800D03*
X0086800Y0311800D03*
X0091800Y0261800D03*
X0136800Y0261800D03*
X0101800Y0206800D03*
X0091800Y0181800D03*
X0061800Y0176800D03*
X0096800Y0086800D03*
X0086800Y0031800D03*
X0041800Y0041800D03*
X0246800Y0056800D03*
X0266800Y0206800D03*
X0076800Y0381800D03*
M02*
