%
M48
M72
T01C0.02362
T02C0.02400
T03C0.03200
T04C0.04000
T05C0.12598
%
T01
X41800Y41800
X86800Y31800
X96800Y86800
X61800Y176800
X91800Y181800
X101800Y206800
X91800Y261800
X86800Y311800
X91800Y331800
X76800Y381800
X151800Y336800
X191800Y301800
X136800Y261800
X266800Y206800
X296800Y331800
X246800Y56800
T02
X206600Y111200
X243500Y159800
X257000Y178700
X267800Y184100
X247100Y221000
X221000Y189500
X218300Y203900
X203900Y181400
X197600Y196700
X186800Y198500
X172400Y201200
X186800Y213800
X201200Y231800
X188600Y238100
X164300Y241700
X162500Y219200
X142700Y232700
X122900Y219200
X97700Y238100
X111200Y264200
X81500Y277700
X81500Y296600
X68000Y315500
X60800Y284900
X46400Y244400
X26600Y297500
X88700Y202100
X69800Y188600
X76100Y164300
X74300Y149900
X84200Y136400
X59000Y132800
X111200Y169700
X113900Y139100
X131000Y128300
X156200Y158000
X148100Y161600
X158900Y107600
X161600Y50000
X161600Y39200
X225500Y175100
X318200Y286700
X257900Y316400
X230900Y373100
X211100Y373100
X196700Y365000
X151700Y309200
X146300Y303800
T03
X26800Y21800
X36800Y21800
X46800Y21800
X56800Y21800
X66800Y21800
X106800Y21800
X116800Y21800
X126800Y21800
X136800Y21800
X146800Y21800
X186800Y21800
X196800Y21800
X206800Y21800
X216800Y21800
X226800Y21800
X266800Y21800
X276800Y21800
X286800Y21800
X296800Y21800
X306800Y21800
X306800Y121800
X296800Y121800
X286800Y121800
X276800Y121800
X266800Y121800
X226800Y121800
X216800Y121800
X206800Y121800
X196800Y121800
X186800Y121800
X146800Y121800
X136800Y121800
X126800Y121800
X116800Y121800
X106800Y121800
X66800Y121800
X56800Y121800
X46800Y121800
X36800Y121800
X26800Y121800
T04
X161800Y11800
X171800Y11800
X311800Y311800
X311800Y321800
X311800Y331800
X311800Y341800
X311800Y351800
X311800Y361800
X311800Y371800
X311800Y381800
X311800Y391800
X21800Y391800
X21800Y381800
X21800Y371800
X21800Y361800
X21800Y351800
X21800Y341800
X21800Y331800
X21800Y321800
X21800Y311800
T05
X46800Y386800
X21800Y141800
X286800Y386800
X311800Y141800
M30
