G75*
%MOIN*%
%OFA0B0*%
%FSLAX25Y25*%
%IPPOS*%
%LPD*%
%AMOC8*
5,1,8,0,0,1.08239X$1,22.5*
%
%ADD10C,0.00000*%
%ADD11C,0.00600*%
%ADD12C,0.01000*%
%ADD13C,0.04000*%
%ADD14C,0.03000*%
%ADD15C,0.02000*%
%ADD16C,0.02600*%
%ADD17C,0.01600*%
%ADD18R,0.02500X0.02000*%
%ADD19R,0.02000X0.02000*%
%ADD20R,0.01500X0.02000*%
%ADD21R,0.01500X0.01000*%
%ADD22R,0.02000X0.01000*%
%ADD23C,0.00500*%
%ADD24C,0.00700*%
%ADD25C,0.00300*%
%ADD26C,0.00400*%
D10*
X0006800Y0006800D02*
X0006800Y0400501D01*
X0326761Y0400501D01*
X0326761Y0006800D01*
X0006800Y0006800D01*
X0015501Y0141800D02*
X0015503Y0141958D01*
X0015509Y0142116D01*
X0015519Y0142274D01*
X0015533Y0142432D01*
X0015551Y0142589D01*
X0015572Y0142746D01*
X0015598Y0142902D01*
X0015628Y0143058D01*
X0015661Y0143213D01*
X0015699Y0143366D01*
X0015740Y0143519D01*
X0015785Y0143671D01*
X0015834Y0143822D01*
X0015887Y0143971D01*
X0015943Y0144119D01*
X0016003Y0144265D01*
X0016067Y0144410D01*
X0016135Y0144553D01*
X0016206Y0144695D01*
X0016280Y0144835D01*
X0016358Y0144972D01*
X0016440Y0145108D01*
X0016524Y0145242D01*
X0016613Y0145373D01*
X0016704Y0145502D01*
X0016799Y0145629D01*
X0016896Y0145754D01*
X0016997Y0145876D01*
X0017101Y0145995D01*
X0017208Y0146112D01*
X0017318Y0146226D01*
X0017431Y0146337D01*
X0017546Y0146446D01*
X0017664Y0146551D01*
X0017785Y0146653D01*
X0017908Y0146753D01*
X0018034Y0146849D01*
X0018162Y0146942D01*
X0018292Y0147032D01*
X0018425Y0147118D01*
X0018560Y0147202D01*
X0018696Y0147281D01*
X0018835Y0147358D01*
X0018976Y0147430D01*
X0019118Y0147500D01*
X0019262Y0147565D01*
X0019408Y0147627D01*
X0019555Y0147685D01*
X0019704Y0147740D01*
X0019854Y0147791D01*
X0020005Y0147838D01*
X0020157Y0147881D01*
X0020310Y0147920D01*
X0020465Y0147956D01*
X0020620Y0147987D01*
X0020776Y0148015D01*
X0020932Y0148039D01*
X0021089Y0148059D01*
X0021247Y0148075D01*
X0021404Y0148087D01*
X0021563Y0148095D01*
X0021721Y0148099D01*
X0021879Y0148099D01*
X0022037Y0148095D01*
X0022196Y0148087D01*
X0022353Y0148075D01*
X0022511Y0148059D01*
X0022668Y0148039D01*
X0022824Y0148015D01*
X0022980Y0147987D01*
X0023135Y0147956D01*
X0023290Y0147920D01*
X0023443Y0147881D01*
X0023595Y0147838D01*
X0023746Y0147791D01*
X0023896Y0147740D01*
X0024045Y0147685D01*
X0024192Y0147627D01*
X0024338Y0147565D01*
X0024482Y0147500D01*
X0024624Y0147430D01*
X0024765Y0147358D01*
X0024904Y0147281D01*
X0025040Y0147202D01*
X0025175Y0147118D01*
X0025308Y0147032D01*
X0025438Y0146942D01*
X0025566Y0146849D01*
X0025692Y0146753D01*
X0025815Y0146653D01*
X0025936Y0146551D01*
X0026054Y0146446D01*
X0026169Y0146337D01*
X0026282Y0146226D01*
X0026392Y0146112D01*
X0026499Y0145995D01*
X0026603Y0145876D01*
X0026704Y0145754D01*
X0026801Y0145629D01*
X0026896Y0145502D01*
X0026987Y0145373D01*
X0027076Y0145242D01*
X0027160Y0145108D01*
X0027242Y0144972D01*
X0027320Y0144835D01*
X0027394Y0144695D01*
X0027465Y0144553D01*
X0027533Y0144410D01*
X0027597Y0144265D01*
X0027657Y0144119D01*
X0027713Y0143971D01*
X0027766Y0143822D01*
X0027815Y0143671D01*
X0027860Y0143519D01*
X0027901Y0143366D01*
X0027939Y0143213D01*
X0027972Y0143058D01*
X0028002Y0142902D01*
X0028028Y0142746D01*
X0028049Y0142589D01*
X0028067Y0142432D01*
X0028081Y0142274D01*
X0028091Y0142116D01*
X0028097Y0141958D01*
X0028099Y0141800D01*
X0028097Y0141642D01*
X0028091Y0141484D01*
X0028081Y0141326D01*
X0028067Y0141168D01*
X0028049Y0141011D01*
X0028028Y0140854D01*
X0028002Y0140698D01*
X0027972Y0140542D01*
X0027939Y0140387D01*
X0027901Y0140234D01*
X0027860Y0140081D01*
X0027815Y0139929D01*
X0027766Y0139778D01*
X0027713Y0139629D01*
X0027657Y0139481D01*
X0027597Y0139335D01*
X0027533Y0139190D01*
X0027465Y0139047D01*
X0027394Y0138905D01*
X0027320Y0138765D01*
X0027242Y0138628D01*
X0027160Y0138492D01*
X0027076Y0138358D01*
X0026987Y0138227D01*
X0026896Y0138098D01*
X0026801Y0137971D01*
X0026704Y0137846D01*
X0026603Y0137724D01*
X0026499Y0137605D01*
X0026392Y0137488D01*
X0026282Y0137374D01*
X0026169Y0137263D01*
X0026054Y0137154D01*
X0025936Y0137049D01*
X0025815Y0136947D01*
X0025692Y0136847D01*
X0025566Y0136751D01*
X0025438Y0136658D01*
X0025308Y0136568D01*
X0025175Y0136482D01*
X0025040Y0136398D01*
X0024904Y0136319D01*
X0024765Y0136242D01*
X0024624Y0136170D01*
X0024482Y0136100D01*
X0024338Y0136035D01*
X0024192Y0135973D01*
X0024045Y0135915D01*
X0023896Y0135860D01*
X0023746Y0135809D01*
X0023595Y0135762D01*
X0023443Y0135719D01*
X0023290Y0135680D01*
X0023135Y0135644D01*
X0022980Y0135613D01*
X0022824Y0135585D01*
X0022668Y0135561D01*
X0022511Y0135541D01*
X0022353Y0135525D01*
X0022196Y0135513D01*
X0022037Y0135505D01*
X0021879Y0135501D01*
X0021721Y0135501D01*
X0021563Y0135505D01*
X0021404Y0135513D01*
X0021247Y0135525D01*
X0021089Y0135541D01*
X0020932Y0135561D01*
X0020776Y0135585D01*
X0020620Y0135613D01*
X0020465Y0135644D01*
X0020310Y0135680D01*
X0020157Y0135719D01*
X0020005Y0135762D01*
X0019854Y0135809D01*
X0019704Y0135860D01*
X0019555Y0135915D01*
X0019408Y0135973D01*
X0019262Y0136035D01*
X0019118Y0136100D01*
X0018976Y0136170D01*
X0018835Y0136242D01*
X0018696Y0136319D01*
X0018560Y0136398D01*
X0018425Y0136482D01*
X0018292Y0136568D01*
X0018162Y0136658D01*
X0018034Y0136751D01*
X0017908Y0136847D01*
X0017785Y0136947D01*
X0017664Y0137049D01*
X0017546Y0137154D01*
X0017431Y0137263D01*
X0017318Y0137374D01*
X0017208Y0137488D01*
X0017101Y0137605D01*
X0016997Y0137724D01*
X0016896Y0137846D01*
X0016799Y0137971D01*
X0016704Y0138098D01*
X0016613Y0138227D01*
X0016524Y0138358D01*
X0016440Y0138492D01*
X0016358Y0138628D01*
X0016280Y0138765D01*
X0016206Y0138905D01*
X0016135Y0139047D01*
X0016067Y0139190D01*
X0016003Y0139335D01*
X0015943Y0139481D01*
X0015887Y0139629D01*
X0015834Y0139778D01*
X0015785Y0139929D01*
X0015740Y0140081D01*
X0015699Y0140234D01*
X0015661Y0140387D01*
X0015628Y0140542D01*
X0015598Y0140698D01*
X0015572Y0140854D01*
X0015551Y0141011D01*
X0015533Y0141168D01*
X0015519Y0141326D01*
X0015509Y0141484D01*
X0015503Y0141642D01*
X0015501Y0141800D01*
X0040501Y0386800D02*
X0040503Y0386958D01*
X0040509Y0387116D01*
X0040519Y0387274D01*
X0040533Y0387432D01*
X0040551Y0387589D01*
X0040572Y0387746D01*
X0040598Y0387902D01*
X0040628Y0388058D01*
X0040661Y0388213D01*
X0040699Y0388366D01*
X0040740Y0388519D01*
X0040785Y0388671D01*
X0040834Y0388822D01*
X0040887Y0388971D01*
X0040943Y0389119D01*
X0041003Y0389265D01*
X0041067Y0389410D01*
X0041135Y0389553D01*
X0041206Y0389695D01*
X0041280Y0389835D01*
X0041358Y0389972D01*
X0041440Y0390108D01*
X0041524Y0390242D01*
X0041613Y0390373D01*
X0041704Y0390502D01*
X0041799Y0390629D01*
X0041896Y0390754D01*
X0041997Y0390876D01*
X0042101Y0390995D01*
X0042208Y0391112D01*
X0042318Y0391226D01*
X0042431Y0391337D01*
X0042546Y0391446D01*
X0042664Y0391551D01*
X0042785Y0391653D01*
X0042908Y0391753D01*
X0043034Y0391849D01*
X0043162Y0391942D01*
X0043292Y0392032D01*
X0043425Y0392118D01*
X0043560Y0392202D01*
X0043696Y0392281D01*
X0043835Y0392358D01*
X0043976Y0392430D01*
X0044118Y0392500D01*
X0044262Y0392565D01*
X0044408Y0392627D01*
X0044555Y0392685D01*
X0044704Y0392740D01*
X0044854Y0392791D01*
X0045005Y0392838D01*
X0045157Y0392881D01*
X0045310Y0392920D01*
X0045465Y0392956D01*
X0045620Y0392987D01*
X0045776Y0393015D01*
X0045932Y0393039D01*
X0046089Y0393059D01*
X0046247Y0393075D01*
X0046404Y0393087D01*
X0046563Y0393095D01*
X0046721Y0393099D01*
X0046879Y0393099D01*
X0047037Y0393095D01*
X0047196Y0393087D01*
X0047353Y0393075D01*
X0047511Y0393059D01*
X0047668Y0393039D01*
X0047824Y0393015D01*
X0047980Y0392987D01*
X0048135Y0392956D01*
X0048290Y0392920D01*
X0048443Y0392881D01*
X0048595Y0392838D01*
X0048746Y0392791D01*
X0048896Y0392740D01*
X0049045Y0392685D01*
X0049192Y0392627D01*
X0049338Y0392565D01*
X0049482Y0392500D01*
X0049624Y0392430D01*
X0049765Y0392358D01*
X0049904Y0392281D01*
X0050040Y0392202D01*
X0050175Y0392118D01*
X0050308Y0392032D01*
X0050438Y0391942D01*
X0050566Y0391849D01*
X0050692Y0391753D01*
X0050815Y0391653D01*
X0050936Y0391551D01*
X0051054Y0391446D01*
X0051169Y0391337D01*
X0051282Y0391226D01*
X0051392Y0391112D01*
X0051499Y0390995D01*
X0051603Y0390876D01*
X0051704Y0390754D01*
X0051801Y0390629D01*
X0051896Y0390502D01*
X0051987Y0390373D01*
X0052076Y0390242D01*
X0052160Y0390108D01*
X0052242Y0389972D01*
X0052320Y0389835D01*
X0052394Y0389695D01*
X0052465Y0389553D01*
X0052533Y0389410D01*
X0052597Y0389265D01*
X0052657Y0389119D01*
X0052713Y0388971D01*
X0052766Y0388822D01*
X0052815Y0388671D01*
X0052860Y0388519D01*
X0052901Y0388366D01*
X0052939Y0388213D01*
X0052972Y0388058D01*
X0053002Y0387902D01*
X0053028Y0387746D01*
X0053049Y0387589D01*
X0053067Y0387432D01*
X0053081Y0387274D01*
X0053091Y0387116D01*
X0053097Y0386958D01*
X0053099Y0386800D01*
X0053097Y0386642D01*
X0053091Y0386484D01*
X0053081Y0386326D01*
X0053067Y0386168D01*
X0053049Y0386011D01*
X0053028Y0385854D01*
X0053002Y0385698D01*
X0052972Y0385542D01*
X0052939Y0385387D01*
X0052901Y0385234D01*
X0052860Y0385081D01*
X0052815Y0384929D01*
X0052766Y0384778D01*
X0052713Y0384629D01*
X0052657Y0384481D01*
X0052597Y0384335D01*
X0052533Y0384190D01*
X0052465Y0384047D01*
X0052394Y0383905D01*
X0052320Y0383765D01*
X0052242Y0383628D01*
X0052160Y0383492D01*
X0052076Y0383358D01*
X0051987Y0383227D01*
X0051896Y0383098D01*
X0051801Y0382971D01*
X0051704Y0382846D01*
X0051603Y0382724D01*
X0051499Y0382605D01*
X0051392Y0382488D01*
X0051282Y0382374D01*
X0051169Y0382263D01*
X0051054Y0382154D01*
X0050936Y0382049D01*
X0050815Y0381947D01*
X0050692Y0381847D01*
X0050566Y0381751D01*
X0050438Y0381658D01*
X0050308Y0381568D01*
X0050175Y0381482D01*
X0050040Y0381398D01*
X0049904Y0381319D01*
X0049765Y0381242D01*
X0049624Y0381170D01*
X0049482Y0381100D01*
X0049338Y0381035D01*
X0049192Y0380973D01*
X0049045Y0380915D01*
X0048896Y0380860D01*
X0048746Y0380809D01*
X0048595Y0380762D01*
X0048443Y0380719D01*
X0048290Y0380680D01*
X0048135Y0380644D01*
X0047980Y0380613D01*
X0047824Y0380585D01*
X0047668Y0380561D01*
X0047511Y0380541D01*
X0047353Y0380525D01*
X0047196Y0380513D01*
X0047037Y0380505D01*
X0046879Y0380501D01*
X0046721Y0380501D01*
X0046563Y0380505D01*
X0046404Y0380513D01*
X0046247Y0380525D01*
X0046089Y0380541D01*
X0045932Y0380561D01*
X0045776Y0380585D01*
X0045620Y0380613D01*
X0045465Y0380644D01*
X0045310Y0380680D01*
X0045157Y0380719D01*
X0045005Y0380762D01*
X0044854Y0380809D01*
X0044704Y0380860D01*
X0044555Y0380915D01*
X0044408Y0380973D01*
X0044262Y0381035D01*
X0044118Y0381100D01*
X0043976Y0381170D01*
X0043835Y0381242D01*
X0043696Y0381319D01*
X0043560Y0381398D01*
X0043425Y0381482D01*
X0043292Y0381568D01*
X0043162Y0381658D01*
X0043034Y0381751D01*
X0042908Y0381847D01*
X0042785Y0381947D01*
X0042664Y0382049D01*
X0042546Y0382154D01*
X0042431Y0382263D01*
X0042318Y0382374D01*
X0042208Y0382488D01*
X0042101Y0382605D01*
X0041997Y0382724D01*
X0041896Y0382846D01*
X0041799Y0382971D01*
X0041704Y0383098D01*
X0041613Y0383227D01*
X0041524Y0383358D01*
X0041440Y0383492D01*
X0041358Y0383628D01*
X0041280Y0383765D01*
X0041206Y0383905D01*
X0041135Y0384047D01*
X0041067Y0384190D01*
X0041003Y0384335D01*
X0040943Y0384481D01*
X0040887Y0384629D01*
X0040834Y0384778D01*
X0040785Y0384929D01*
X0040740Y0385081D01*
X0040699Y0385234D01*
X0040661Y0385387D01*
X0040628Y0385542D01*
X0040598Y0385698D01*
X0040572Y0385854D01*
X0040551Y0386011D01*
X0040533Y0386168D01*
X0040519Y0386326D01*
X0040509Y0386484D01*
X0040503Y0386642D01*
X0040501Y0386800D01*
X0280501Y0386800D02*
X0280503Y0386958D01*
X0280509Y0387116D01*
X0280519Y0387274D01*
X0280533Y0387432D01*
X0280551Y0387589D01*
X0280572Y0387746D01*
X0280598Y0387902D01*
X0280628Y0388058D01*
X0280661Y0388213D01*
X0280699Y0388366D01*
X0280740Y0388519D01*
X0280785Y0388671D01*
X0280834Y0388822D01*
X0280887Y0388971D01*
X0280943Y0389119D01*
X0281003Y0389265D01*
X0281067Y0389410D01*
X0281135Y0389553D01*
X0281206Y0389695D01*
X0281280Y0389835D01*
X0281358Y0389972D01*
X0281440Y0390108D01*
X0281524Y0390242D01*
X0281613Y0390373D01*
X0281704Y0390502D01*
X0281799Y0390629D01*
X0281896Y0390754D01*
X0281997Y0390876D01*
X0282101Y0390995D01*
X0282208Y0391112D01*
X0282318Y0391226D01*
X0282431Y0391337D01*
X0282546Y0391446D01*
X0282664Y0391551D01*
X0282785Y0391653D01*
X0282908Y0391753D01*
X0283034Y0391849D01*
X0283162Y0391942D01*
X0283292Y0392032D01*
X0283425Y0392118D01*
X0283560Y0392202D01*
X0283696Y0392281D01*
X0283835Y0392358D01*
X0283976Y0392430D01*
X0284118Y0392500D01*
X0284262Y0392565D01*
X0284408Y0392627D01*
X0284555Y0392685D01*
X0284704Y0392740D01*
X0284854Y0392791D01*
X0285005Y0392838D01*
X0285157Y0392881D01*
X0285310Y0392920D01*
X0285465Y0392956D01*
X0285620Y0392987D01*
X0285776Y0393015D01*
X0285932Y0393039D01*
X0286089Y0393059D01*
X0286247Y0393075D01*
X0286404Y0393087D01*
X0286563Y0393095D01*
X0286721Y0393099D01*
X0286879Y0393099D01*
X0287037Y0393095D01*
X0287196Y0393087D01*
X0287353Y0393075D01*
X0287511Y0393059D01*
X0287668Y0393039D01*
X0287824Y0393015D01*
X0287980Y0392987D01*
X0288135Y0392956D01*
X0288290Y0392920D01*
X0288443Y0392881D01*
X0288595Y0392838D01*
X0288746Y0392791D01*
X0288896Y0392740D01*
X0289045Y0392685D01*
X0289192Y0392627D01*
X0289338Y0392565D01*
X0289482Y0392500D01*
X0289624Y0392430D01*
X0289765Y0392358D01*
X0289904Y0392281D01*
X0290040Y0392202D01*
X0290175Y0392118D01*
X0290308Y0392032D01*
X0290438Y0391942D01*
X0290566Y0391849D01*
X0290692Y0391753D01*
X0290815Y0391653D01*
X0290936Y0391551D01*
X0291054Y0391446D01*
X0291169Y0391337D01*
X0291282Y0391226D01*
X0291392Y0391112D01*
X0291499Y0390995D01*
X0291603Y0390876D01*
X0291704Y0390754D01*
X0291801Y0390629D01*
X0291896Y0390502D01*
X0291987Y0390373D01*
X0292076Y0390242D01*
X0292160Y0390108D01*
X0292242Y0389972D01*
X0292320Y0389835D01*
X0292394Y0389695D01*
X0292465Y0389553D01*
X0292533Y0389410D01*
X0292597Y0389265D01*
X0292657Y0389119D01*
X0292713Y0388971D01*
X0292766Y0388822D01*
X0292815Y0388671D01*
X0292860Y0388519D01*
X0292901Y0388366D01*
X0292939Y0388213D01*
X0292972Y0388058D01*
X0293002Y0387902D01*
X0293028Y0387746D01*
X0293049Y0387589D01*
X0293067Y0387432D01*
X0293081Y0387274D01*
X0293091Y0387116D01*
X0293097Y0386958D01*
X0293099Y0386800D01*
X0293097Y0386642D01*
X0293091Y0386484D01*
X0293081Y0386326D01*
X0293067Y0386168D01*
X0293049Y0386011D01*
X0293028Y0385854D01*
X0293002Y0385698D01*
X0292972Y0385542D01*
X0292939Y0385387D01*
X0292901Y0385234D01*
X0292860Y0385081D01*
X0292815Y0384929D01*
X0292766Y0384778D01*
X0292713Y0384629D01*
X0292657Y0384481D01*
X0292597Y0384335D01*
X0292533Y0384190D01*
X0292465Y0384047D01*
X0292394Y0383905D01*
X0292320Y0383765D01*
X0292242Y0383628D01*
X0292160Y0383492D01*
X0292076Y0383358D01*
X0291987Y0383227D01*
X0291896Y0383098D01*
X0291801Y0382971D01*
X0291704Y0382846D01*
X0291603Y0382724D01*
X0291499Y0382605D01*
X0291392Y0382488D01*
X0291282Y0382374D01*
X0291169Y0382263D01*
X0291054Y0382154D01*
X0290936Y0382049D01*
X0290815Y0381947D01*
X0290692Y0381847D01*
X0290566Y0381751D01*
X0290438Y0381658D01*
X0290308Y0381568D01*
X0290175Y0381482D01*
X0290040Y0381398D01*
X0289904Y0381319D01*
X0289765Y0381242D01*
X0289624Y0381170D01*
X0289482Y0381100D01*
X0289338Y0381035D01*
X0289192Y0380973D01*
X0289045Y0380915D01*
X0288896Y0380860D01*
X0288746Y0380809D01*
X0288595Y0380762D01*
X0288443Y0380719D01*
X0288290Y0380680D01*
X0288135Y0380644D01*
X0287980Y0380613D01*
X0287824Y0380585D01*
X0287668Y0380561D01*
X0287511Y0380541D01*
X0287353Y0380525D01*
X0287196Y0380513D01*
X0287037Y0380505D01*
X0286879Y0380501D01*
X0286721Y0380501D01*
X0286563Y0380505D01*
X0286404Y0380513D01*
X0286247Y0380525D01*
X0286089Y0380541D01*
X0285932Y0380561D01*
X0285776Y0380585D01*
X0285620Y0380613D01*
X0285465Y0380644D01*
X0285310Y0380680D01*
X0285157Y0380719D01*
X0285005Y0380762D01*
X0284854Y0380809D01*
X0284704Y0380860D01*
X0284555Y0380915D01*
X0284408Y0380973D01*
X0284262Y0381035D01*
X0284118Y0381100D01*
X0283976Y0381170D01*
X0283835Y0381242D01*
X0283696Y0381319D01*
X0283560Y0381398D01*
X0283425Y0381482D01*
X0283292Y0381568D01*
X0283162Y0381658D01*
X0283034Y0381751D01*
X0282908Y0381847D01*
X0282785Y0381947D01*
X0282664Y0382049D01*
X0282546Y0382154D01*
X0282431Y0382263D01*
X0282318Y0382374D01*
X0282208Y0382488D01*
X0282101Y0382605D01*
X0281997Y0382724D01*
X0281896Y0382846D01*
X0281799Y0382971D01*
X0281704Y0383098D01*
X0281613Y0383227D01*
X0281524Y0383358D01*
X0281440Y0383492D01*
X0281358Y0383628D01*
X0281280Y0383765D01*
X0281206Y0383905D01*
X0281135Y0384047D01*
X0281067Y0384190D01*
X0281003Y0384335D01*
X0280943Y0384481D01*
X0280887Y0384629D01*
X0280834Y0384778D01*
X0280785Y0384929D01*
X0280740Y0385081D01*
X0280699Y0385234D01*
X0280661Y0385387D01*
X0280628Y0385542D01*
X0280598Y0385698D01*
X0280572Y0385854D01*
X0280551Y0386011D01*
X0280533Y0386168D01*
X0280519Y0386326D01*
X0280509Y0386484D01*
X0280503Y0386642D01*
X0280501Y0386800D01*
X0305501Y0141800D02*
X0305503Y0141958D01*
X0305509Y0142116D01*
X0305519Y0142274D01*
X0305533Y0142432D01*
X0305551Y0142589D01*
X0305572Y0142746D01*
X0305598Y0142902D01*
X0305628Y0143058D01*
X0305661Y0143213D01*
X0305699Y0143366D01*
X0305740Y0143519D01*
X0305785Y0143671D01*
X0305834Y0143822D01*
X0305887Y0143971D01*
X0305943Y0144119D01*
X0306003Y0144265D01*
X0306067Y0144410D01*
X0306135Y0144553D01*
X0306206Y0144695D01*
X0306280Y0144835D01*
X0306358Y0144972D01*
X0306440Y0145108D01*
X0306524Y0145242D01*
X0306613Y0145373D01*
X0306704Y0145502D01*
X0306799Y0145629D01*
X0306896Y0145754D01*
X0306997Y0145876D01*
X0307101Y0145995D01*
X0307208Y0146112D01*
X0307318Y0146226D01*
X0307431Y0146337D01*
X0307546Y0146446D01*
X0307664Y0146551D01*
X0307785Y0146653D01*
X0307908Y0146753D01*
X0308034Y0146849D01*
X0308162Y0146942D01*
X0308292Y0147032D01*
X0308425Y0147118D01*
X0308560Y0147202D01*
X0308696Y0147281D01*
X0308835Y0147358D01*
X0308976Y0147430D01*
X0309118Y0147500D01*
X0309262Y0147565D01*
X0309408Y0147627D01*
X0309555Y0147685D01*
X0309704Y0147740D01*
X0309854Y0147791D01*
X0310005Y0147838D01*
X0310157Y0147881D01*
X0310310Y0147920D01*
X0310465Y0147956D01*
X0310620Y0147987D01*
X0310776Y0148015D01*
X0310932Y0148039D01*
X0311089Y0148059D01*
X0311247Y0148075D01*
X0311404Y0148087D01*
X0311563Y0148095D01*
X0311721Y0148099D01*
X0311879Y0148099D01*
X0312037Y0148095D01*
X0312196Y0148087D01*
X0312353Y0148075D01*
X0312511Y0148059D01*
X0312668Y0148039D01*
X0312824Y0148015D01*
X0312980Y0147987D01*
X0313135Y0147956D01*
X0313290Y0147920D01*
X0313443Y0147881D01*
X0313595Y0147838D01*
X0313746Y0147791D01*
X0313896Y0147740D01*
X0314045Y0147685D01*
X0314192Y0147627D01*
X0314338Y0147565D01*
X0314482Y0147500D01*
X0314624Y0147430D01*
X0314765Y0147358D01*
X0314904Y0147281D01*
X0315040Y0147202D01*
X0315175Y0147118D01*
X0315308Y0147032D01*
X0315438Y0146942D01*
X0315566Y0146849D01*
X0315692Y0146753D01*
X0315815Y0146653D01*
X0315936Y0146551D01*
X0316054Y0146446D01*
X0316169Y0146337D01*
X0316282Y0146226D01*
X0316392Y0146112D01*
X0316499Y0145995D01*
X0316603Y0145876D01*
X0316704Y0145754D01*
X0316801Y0145629D01*
X0316896Y0145502D01*
X0316987Y0145373D01*
X0317076Y0145242D01*
X0317160Y0145108D01*
X0317242Y0144972D01*
X0317320Y0144835D01*
X0317394Y0144695D01*
X0317465Y0144553D01*
X0317533Y0144410D01*
X0317597Y0144265D01*
X0317657Y0144119D01*
X0317713Y0143971D01*
X0317766Y0143822D01*
X0317815Y0143671D01*
X0317860Y0143519D01*
X0317901Y0143366D01*
X0317939Y0143213D01*
X0317972Y0143058D01*
X0318002Y0142902D01*
X0318028Y0142746D01*
X0318049Y0142589D01*
X0318067Y0142432D01*
X0318081Y0142274D01*
X0318091Y0142116D01*
X0318097Y0141958D01*
X0318099Y0141800D01*
X0318097Y0141642D01*
X0318091Y0141484D01*
X0318081Y0141326D01*
X0318067Y0141168D01*
X0318049Y0141011D01*
X0318028Y0140854D01*
X0318002Y0140698D01*
X0317972Y0140542D01*
X0317939Y0140387D01*
X0317901Y0140234D01*
X0317860Y0140081D01*
X0317815Y0139929D01*
X0317766Y0139778D01*
X0317713Y0139629D01*
X0317657Y0139481D01*
X0317597Y0139335D01*
X0317533Y0139190D01*
X0317465Y0139047D01*
X0317394Y0138905D01*
X0317320Y0138765D01*
X0317242Y0138628D01*
X0317160Y0138492D01*
X0317076Y0138358D01*
X0316987Y0138227D01*
X0316896Y0138098D01*
X0316801Y0137971D01*
X0316704Y0137846D01*
X0316603Y0137724D01*
X0316499Y0137605D01*
X0316392Y0137488D01*
X0316282Y0137374D01*
X0316169Y0137263D01*
X0316054Y0137154D01*
X0315936Y0137049D01*
X0315815Y0136947D01*
X0315692Y0136847D01*
X0315566Y0136751D01*
X0315438Y0136658D01*
X0315308Y0136568D01*
X0315175Y0136482D01*
X0315040Y0136398D01*
X0314904Y0136319D01*
X0314765Y0136242D01*
X0314624Y0136170D01*
X0314482Y0136100D01*
X0314338Y0136035D01*
X0314192Y0135973D01*
X0314045Y0135915D01*
X0313896Y0135860D01*
X0313746Y0135809D01*
X0313595Y0135762D01*
X0313443Y0135719D01*
X0313290Y0135680D01*
X0313135Y0135644D01*
X0312980Y0135613D01*
X0312824Y0135585D01*
X0312668Y0135561D01*
X0312511Y0135541D01*
X0312353Y0135525D01*
X0312196Y0135513D01*
X0312037Y0135505D01*
X0311879Y0135501D01*
X0311721Y0135501D01*
X0311563Y0135505D01*
X0311404Y0135513D01*
X0311247Y0135525D01*
X0311089Y0135541D01*
X0310932Y0135561D01*
X0310776Y0135585D01*
X0310620Y0135613D01*
X0310465Y0135644D01*
X0310310Y0135680D01*
X0310157Y0135719D01*
X0310005Y0135762D01*
X0309854Y0135809D01*
X0309704Y0135860D01*
X0309555Y0135915D01*
X0309408Y0135973D01*
X0309262Y0136035D01*
X0309118Y0136100D01*
X0308976Y0136170D01*
X0308835Y0136242D01*
X0308696Y0136319D01*
X0308560Y0136398D01*
X0308425Y0136482D01*
X0308292Y0136568D01*
X0308162Y0136658D01*
X0308034Y0136751D01*
X0307908Y0136847D01*
X0307785Y0136947D01*
X0307664Y0137049D01*
X0307546Y0137154D01*
X0307431Y0137263D01*
X0307318Y0137374D01*
X0307208Y0137488D01*
X0307101Y0137605D01*
X0306997Y0137724D01*
X0306896Y0137846D01*
X0306799Y0137971D01*
X0306704Y0138098D01*
X0306613Y0138227D01*
X0306524Y0138358D01*
X0306440Y0138492D01*
X0306358Y0138628D01*
X0306280Y0138765D01*
X0306206Y0138905D01*
X0306135Y0139047D01*
X0306067Y0139190D01*
X0306003Y0139335D01*
X0305943Y0139481D01*
X0305887Y0139629D01*
X0305834Y0139778D01*
X0305785Y0139929D01*
X0305740Y0140081D01*
X0305699Y0140234D01*
X0305661Y0140387D01*
X0305628Y0140542D01*
X0305598Y0140698D01*
X0305572Y0140854D01*
X0305551Y0141011D01*
X0305533Y0141168D01*
X0305519Y0141326D01*
X0305509Y0141484D01*
X0305503Y0141642D01*
X0305501Y0141800D01*
D11*
X0326170Y0128099D02*
X0247430Y0128099D01*
X0247430Y0015501D01*
X0326170Y0015501D01*
X0326170Y0128099D01*
X0246170Y0128099D02*
X0167430Y0128099D01*
X0167430Y0015501D01*
X0246170Y0015501D01*
X0246170Y0128099D01*
X0166170Y0128099D02*
X0087430Y0128099D01*
X0087430Y0015501D01*
X0166170Y0015501D01*
X0166170Y0128099D01*
X0086170Y0128099D02*
X0007430Y0128099D01*
X0007430Y0015501D01*
X0086170Y0015501D01*
X0086170Y0128099D01*
X0157432Y0023505D02*
X0157432Y0017100D01*
X0161702Y0017100D01*
X0163877Y0017100D02*
X0163877Y0023505D01*
X0167080Y0023505D01*
X0168148Y0022438D01*
X0168148Y0018168D01*
X0167080Y0017100D01*
X0163877Y0017100D01*
X0170323Y0017100D02*
X0170323Y0023505D01*
X0173525Y0023505D01*
X0174593Y0022438D01*
X0174593Y0020303D01*
X0173525Y0019235D01*
X0170323Y0019235D01*
X0172458Y0019235D02*
X0174593Y0017100D01*
X0309300Y0306800D02*
X0306800Y0309300D01*
X0306800Y0314300D01*
X0309300Y0316800D01*
X0306800Y0319300D01*
X0306800Y0324300D01*
X0309300Y0326800D01*
X0306800Y0329300D01*
X0306800Y0334300D01*
X0309300Y0336800D01*
X0306800Y0339300D01*
X0306800Y0344300D01*
X0309300Y0346800D01*
X0306800Y0349300D01*
X0306800Y0354300D01*
X0309300Y0356800D01*
X0306800Y0359300D01*
X0306800Y0364300D01*
X0309300Y0366800D01*
X0306800Y0369300D01*
X0306800Y0374300D01*
X0309300Y0376800D01*
X0306800Y0379300D01*
X0306800Y0384300D01*
X0309300Y0386800D01*
X0306800Y0389300D01*
X0306800Y0394300D01*
X0309300Y0396800D01*
X0314300Y0396800D01*
X0316800Y0394300D01*
X0316800Y0389300D01*
X0314300Y0386800D01*
X0316800Y0384300D01*
X0316800Y0379300D01*
X0314300Y0376800D01*
X0309300Y0376800D01*
X0314300Y0376800D02*
X0316800Y0374300D01*
X0316800Y0369300D01*
X0314300Y0366800D01*
X0316800Y0364300D01*
X0316800Y0359300D01*
X0314300Y0356800D01*
X0316800Y0354300D01*
X0316800Y0349300D01*
X0314300Y0346800D01*
X0309300Y0346800D01*
X0314300Y0346800D02*
X0316800Y0344300D01*
X0316800Y0339300D01*
X0314300Y0336800D01*
X0316800Y0334300D01*
X0316800Y0329300D01*
X0314300Y0326800D01*
X0316800Y0324300D01*
X0316800Y0319300D01*
X0314300Y0316800D01*
X0316800Y0314300D01*
X0316800Y0309300D01*
X0314300Y0306800D01*
X0309300Y0306800D01*
X0309300Y0316800D02*
X0314300Y0316800D01*
X0314300Y0326800D02*
X0309300Y0326800D01*
X0309300Y0336800D02*
X0314300Y0336800D01*
X0314300Y0356800D02*
X0309300Y0356800D01*
X0309300Y0366800D02*
X0314300Y0366800D01*
X0314300Y0386800D02*
X0309300Y0386800D01*
X0026800Y0384300D02*
X0026800Y0379300D01*
X0024300Y0376800D01*
X0019300Y0376800D01*
X0016800Y0379300D01*
X0016800Y0384300D01*
X0019300Y0386800D01*
X0016800Y0389300D01*
X0016800Y0394300D01*
X0019300Y0396800D01*
X0024300Y0396800D01*
X0026800Y0394300D01*
X0026800Y0389300D01*
X0024300Y0386800D01*
X0026800Y0384300D01*
X0024300Y0386800D02*
X0019300Y0386800D01*
X0019300Y0376800D02*
X0016800Y0374300D01*
X0016800Y0369300D01*
X0019300Y0366800D01*
X0016800Y0364300D01*
X0016800Y0359300D01*
X0019300Y0356800D01*
X0016800Y0354300D01*
X0016800Y0349300D01*
X0019300Y0346800D01*
X0024300Y0346800D01*
X0026800Y0349300D01*
X0026800Y0354300D01*
X0024300Y0356800D01*
X0019300Y0356800D01*
X0024300Y0356800D02*
X0026800Y0359300D01*
X0026800Y0364300D01*
X0024300Y0366800D01*
X0019300Y0366800D01*
X0024300Y0366800D02*
X0026800Y0369300D01*
X0026800Y0374300D01*
X0024300Y0376800D01*
X0024300Y0346800D02*
X0026800Y0344300D01*
X0026800Y0339300D01*
X0024300Y0336800D01*
X0026800Y0334300D01*
X0026800Y0329300D01*
X0024300Y0326800D01*
X0026800Y0324300D01*
X0026800Y0319300D01*
X0024300Y0316800D01*
X0026800Y0314300D01*
X0026800Y0309300D01*
X0024300Y0306800D01*
X0019300Y0306800D01*
X0016800Y0309300D01*
X0016800Y0314300D01*
X0019300Y0316800D01*
X0016800Y0319300D01*
X0016800Y0324300D01*
X0019300Y0326800D01*
X0016800Y0329300D01*
X0016800Y0334300D01*
X0019300Y0336800D01*
X0016800Y0339300D01*
X0016800Y0344300D01*
X0019300Y0346800D01*
X0019300Y0336800D02*
X0024300Y0336800D01*
X0024300Y0326800D02*
X0019300Y0326800D01*
X0019300Y0316800D02*
X0024300Y0316800D01*
D12*
X0039600Y0096800D02*
X0059700Y0096800D01*
X0062700Y0094500D01*
X0059300Y0091800D01*
X0041000Y0091800D01*
X0038000Y0095400D01*
X0039600Y0096800D01*
X0036600Y0094200D02*
X0035300Y0093100D01*
X0031800Y0073800D01*
X0037100Y0076500D01*
X0039700Y0090500D01*
X0036600Y0094200D01*
X0037300Y0074300D02*
X0056800Y0074300D01*
X0061300Y0071800D01*
X0056300Y0069300D01*
X0036800Y0069300D01*
X0032300Y0071800D01*
X0037300Y0074300D01*
X0035600Y0067700D02*
X0032900Y0053100D01*
X0029400Y0050300D01*
X0027600Y0051600D01*
X0031100Y0070200D01*
X0035600Y0067700D01*
X0034300Y0051800D02*
X0030900Y0049100D01*
X0033900Y0046800D01*
X0054000Y0046800D01*
X0055600Y0048200D01*
X0052600Y0051800D01*
X0034300Y0051800D01*
X0053900Y0053100D02*
X0057000Y0049400D01*
X0058300Y0050500D01*
X0061800Y0069800D01*
X0056500Y0067100D01*
X0053900Y0053100D01*
X0062500Y0073400D02*
X0066000Y0092000D01*
X0064200Y0093300D01*
X0060700Y0090500D01*
X0058000Y0075900D01*
X0062500Y0073400D01*
X0111100Y0070200D02*
X0107600Y0051600D01*
X0109400Y0050300D01*
X0112900Y0053100D01*
X0115600Y0067700D01*
X0111100Y0070200D01*
X0112300Y0071800D02*
X0117300Y0074300D01*
X0136800Y0074300D01*
X0141300Y0071800D01*
X0136300Y0069300D01*
X0116800Y0069300D01*
X0112300Y0071800D01*
X0111800Y0073800D02*
X0115300Y0093100D01*
X0116600Y0094200D01*
X0119700Y0090500D01*
X0117100Y0076500D01*
X0111800Y0073800D01*
X0121000Y0091800D02*
X0139300Y0091800D01*
X0142700Y0094500D01*
X0139700Y0096800D01*
X0119600Y0096800D01*
X0118000Y0095400D01*
X0121000Y0091800D01*
X0140700Y0090500D02*
X0138000Y0075900D01*
X0142500Y0073400D01*
X0146000Y0092000D01*
X0144200Y0093300D01*
X0140700Y0090500D01*
X0141800Y0069800D02*
X0138300Y0050500D01*
X0137000Y0049400D01*
X0133900Y0053100D01*
X0136500Y0067100D01*
X0141800Y0069800D01*
X0132600Y0051800D02*
X0114300Y0051800D01*
X0110900Y0049100D01*
X0113900Y0046800D01*
X0134000Y0046800D01*
X0135600Y0048200D01*
X0132600Y0051800D01*
X0187600Y0051600D02*
X0191100Y0070200D01*
X0195600Y0067700D01*
X0192900Y0053100D01*
X0189400Y0050300D01*
X0187600Y0051600D01*
X0190900Y0049100D02*
X0193900Y0046800D01*
X0214000Y0046800D01*
X0215600Y0048200D01*
X0212600Y0051800D01*
X0194300Y0051800D01*
X0190900Y0049100D01*
X0196800Y0069300D02*
X0216300Y0069300D01*
X0221300Y0071800D01*
X0216800Y0074300D01*
X0197300Y0074300D01*
X0192300Y0071800D01*
X0196800Y0069300D01*
X0191800Y0073800D02*
X0195300Y0093100D01*
X0196600Y0094200D01*
X0199700Y0090500D01*
X0197100Y0076500D01*
X0191800Y0073800D01*
X0201000Y0091800D02*
X0219300Y0091800D01*
X0222700Y0094500D01*
X0219700Y0096800D01*
X0199600Y0096800D01*
X0198000Y0095400D01*
X0201000Y0091800D01*
X0220700Y0090500D02*
X0218000Y0075900D01*
X0222500Y0073400D01*
X0226000Y0092000D01*
X0224200Y0093300D01*
X0220700Y0090500D01*
X0221800Y0069800D02*
X0218300Y0050500D01*
X0217000Y0049400D01*
X0213900Y0053100D01*
X0216500Y0067100D01*
X0221800Y0069800D01*
X0267600Y0051600D02*
X0271100Y0070200D01*
X0275600Y0067700D01*
X0272900Y0053100D01*
X0269400Y0050300D01*
X0267600Y0051600D01*
X0270900Y0049100D02*
X0273900Y0046800D01*
X0294000Y0046800D01*
X0295600Y0048200D01*
X0292600Y0051800D01*
X0274300Y0051800D01*
X0270900Y0049100D01*
X0276800Y0069300D02*
X0296300Y0069300D01*
X0301300Y0071800D01*
X0296800Y0074300D01*
X0277300Y0074300D01*
X0272300Y0071800D01*
X0276800Y0069300D01*
X0271800Y0073800D02*
X0275300Y0093100D01*
X0276600Y0094200D01*
X0279700Y0090500D01*
X0277100Y0076500D01*
X0271800Y0073800D01*
X0281000Y0091800D02*
X0299300Y0091800D01*
X0302700Y0094500D01*
X0299700Y0096800D01*
X0279600Y0096800D01*
X0278000Y0095400D01*
X0281000Y0091800D01*
X0300700Y0090500D02*
X0298000Y0075900D01*
X0302500Y0073400D01*
X0306000Y0092000D01*
X0304200Y0093300D01*
X0300700Y0090500D01*
X0301800Y0069800D02*
X0298300Y0050500D01*
X0297000Y0049400D01*
X0293900Y0053100D01*
X0296500Y0067100D01*
X0301800Y0069800D01*
D13*
X0297300Y0071800D02*
X0276300Y0071800D01*
X0272800Y0066300D02*
X0270300Y0053300D01*
X0273800Y0049300D02*
X0292300Y0049300D01*
X0296300Y0053300D02*
X0298800Y0065800D01*
X0300800Y0077300D02*
X0303300Y0090300D01*
X0299800Y0094300D02*
X0281300Y0094300D01*
X0277300Y0090300D02*
X0274800Y0077800D01*
X0223300Y0090300D02*
X0220800Y0077300D01*
X0217300Y0071800D02*
X0196300Y0071800D01*
X0192800Y0066300D02*
X0190300Y0053300D01*
X0193800Y0049300D02*
X0212300Y0049300D01*
X0216300Y0053300D02*
X0218800Y0065800D01*
X0194800Y0077800D02*
X0197300Y0090300D01*
X0201300Y0094300D02*
X0219800Y0094300D01*
X0143300Y0090300D02*
X0140800Y0077300D01*
X0137300Y0071800D02*
X0116300Y0071800D01*
X0112800Y0066300D02*
X0110300Y0053300D01*
X0113800Y0049300D02*
X0132300Y0049300D01*
X0136300Y0053300D02*
X0138800Y0065800D01*
X0114800Y0077800D02*
X0117300Y0090300D01*
X0121300Y0094300D02*
X0139800Y0094300D01*
X0063300Y0090300D02*
X0060800Y0077300D01*
X0057300Y0071800D02*
X0036300Y0071800D01*
X0032800Y0066300D02*
X0030300Y0053300D01*
X0033800Y0049300D02*
X0052300Y0049300D01*
X0056300Y0053300D02*
X0058800Y0065800D01*
X0034800Y0077800D02*
X0037300Y0090300D01*
X0041300Y0094300D02*
X0059800Y0094300D01*
D14*
X0036800Y0092300D02*
X0036300Y0091800D01*
X0057300Y0051800D02*
X0056800Y0051300D01*
X0063300Y0049300D02*
X0063302Y0049377D01*
X0063308Y0049454D01*
X0063318Y0049531D01*
X0063332Y0049607D01*
X0063349Y0049682D01*
X0063371Y0049756D01*
X0063396Y0049829D01*
X0063426Y0049901D01*
X0063458Y0049971D01*
X0063495Y0050039D01*
X0063534Y0050105D01*
X0063577Y0050169D01*
X0063624Y0050231D01*
X0063673Y0050290D01*
X0063726Y0050347D01*
X0063781Y0050401D01*
X0063839Y0050452D01*
X0063900Y0050500D01*
X0063963Y0050545D01*
X0064028Y0050586D01*
X0064095Y0050624D01*
X0064164Y0050659D01*
X0064235Y0050689D01*
X0064307Y0050717D01*
X0064381Y0050740D01*
X0064455Y0050760D01*
X0064531Y0050776D01*
X0064607Y0050788D01*
X0064684Y0050796D01*
X0064761Y0050800D01*
X0064839Y0050800D01*
X0064916Y0050796D01*
X0064993Y0050788D01*
X0065069Y0050776D01*
X0065145Y0050760D01*
X0065219Y0050740D01*
X0065293Y0050717D01*
X0065365Y0050689D01*
X0065436Y0050659D01*
X0065505Y0050624D01*
X0065572Y0050586D01*
X0065637Y0050545D01*
X0065700Y0050500D01*
X0065761Y0050452D01*
X0065819Y0050401D01*
X0065874Y0050347D01*
X0065927Y0050290D01*
X0065976Y0050231D01*
X0066023Y0050169D01*
X0066066Y0050105D01*
X0066105Y0050039D01*
X0066142Y0049971D01*
X0066174Y0049901D01*
X0066204Y0049829D01*
X0066229Y0049756D01*
X0066251Y0049682D01*
X0066268Y0049607D01*
X0066282Y0049531D01*
X0066292Y0049454D01*
X0066298Y0049377D01*
X0066300Y0049300D01*
X0066298Y0049223D01*
X0066292Y0049146D01*
X0066282Y0049069D01*
X0066268Y0048993D01*
X0066251Y0048918D01*
X0066229Y0048844D01*
X0066204Y0048771D01*
X0066174Y0048699D01*
X0066142Y0048629D01*
X0066105Y0048561D01*
X0066066Y0048495D01*
X0066023Y0048431D01*
X0065976Y0048369D01*
X0065927Y0048310D01*
X0065874Y0048253D01*
X0065819Y0048199D01*
X0065761Y0048148D01*
X0065700Y0048100D01*
X0065637Y0048055D01*
X0065572Y0048014D01*
X0065505Y0047976D01*
X0065436Y0047941D01*
X0065365Y0047911D01*
X0065293Y0047883D01*
X0065219Y0047860D01*
X0065145Y0047840D01*
X0065069Y0047824D01*
X0064993Y0047812D01*
X0064916Y0047804D01*
X0064839Y0047800D01*
X0064761Y0047800D01*
X0064684Y0047804D01*
X0064607Y0047812D01*
X0064531Y0047824D01*
X0064455Y0047840D01*
X0064381Y0047860D01*
X0064307Y0047883D01*
X0064235Y0047911D01*
X0064164Y0047941D01*
X0064095Y0047976D01*
X0064028Y0048014D01*
X0063963Y0048055D01*
X0063900Y0048100D01*
X0063839Y0048148D01*
X0063781Y0048199D01*
X0063726Y0048253D01*
X0063673Y0048310D01*
X0063624Y0048369D01*
X0063577Y0048431D01*
X0063534Y0048495D01*
X0063495Y0048561D01*
X0063458Y0048629D01*
X0063426Y0048699D01*
X0063396Y0048771D01*
X0063371Y0048844D01*
X0063349Y0048918D01*
X0063332Y0048993D01*
X0063318Y0049069D01*
X0063308Y0049146D01*
X0063302Y0049223D01*
X0063300Y0049300D01*
X0116300Y0091800D02*
X0116800Y0092300D01*
X0137300Y0051800D02*
X0136800Y0051300D01*
X0143300Y0049300D02*
X0143302Y0049377D01*
X0143308Y0049454D01*
X0143318Y0049531D01*
X0143332Y0049607D01*
X0143349Y0049682D01*
X0143371Y0049756D01*
X0143396Y0049829D01*
X0143426Y0049901D01*
X0143458Y0049971D01*
X0143495Y0050039D01*
X0143534Y0050105D01*
X0143577Y0050169D01*
X0143624Y0050231D01*
X0143673Y0050290D01*
X0143726Y0050347D01*
X0143781Y0050401D01*
X0143839Y0050452D01*
X0143900Y0050500D01*
X0143963Y0050545D01*
X0144028Y0050586D01*
X0144095Y0050624D01*
X0144164Y0050659D01*
X0144235Y0050689D01*
X0144307Y0050717D01*
X0144381Y0050740D01*
X0144455Y0050760D01*
X0144531Y0050776D01*
X0144607Y0050788D01*
X0144684Y0050796D01*
X0144761Y0050800D01*
X0144839Y0050800D01*
X0144916Y0050796D01*
X0144993Y0050788D01*
X0145069Y0050776D01*
X0145145Y0050760D01*
X0145219Y0050740D01*
X0145293Y0050717D01*
X0145365Y0050689D01*
X0145436Y0050659D01*
X0145505Y0050624D01*
X0145572Y0050586D01*
X0145637Y0050545D01*
X0145700Y0050500D01*
X0145761Y0050452D01*
X0145819Y0050401D01*
X0145874Y0050347D01*
X0145927Y0050290D01*
X0145976Y0050231D01*
X0146023Y0050169D01*
X0146066Y0050105D01*
X0146105Y0050039D01*
X0146142Y0049971D01*
X0146174Y0049901D01*
X0146204Y0049829D01*
X0146229Y0049756D01*
X0146251Y0049682D01*
X0146268Y0049607D01*
X0146282Y0049531D01*
X0146292Y0049454D01*
X0146298Y0049377D01*
X0146300Y0049300D01*
X0146298Y0049223D01*
X0146292Y0049146D01*
X0146282Y0049069D01*
X0146268Y0048993D01*
X0146251Y0048918D01*
X0146229Y0048844D01*
X0146204Y0048771D01*
X0146174Y0048699D01*
X0146142Y0048629D01*
X0146105Y0048561D01*
X0146066Y0048495D01*
X0146023Y0048431D01*
X0145976Y0048369D01*
X0145927Y0048310D01*
X0145874Y0048253D01*
X0145819Y0048199D01*
X0145761Y0048148D01*
X0145700Y0048100D01*
X0145637Y0048055D01*
X0145572Y0048014D01*
X0145505Y0047976D01*
X0145436Y0047941D01*
X0145365Y0047911D01*
X0145293Y0047883D01*
X0145219Y0047860D01*
X0145145Y0047840D01*
X0145069Y0047824D01*
X0144993Y0047812D01*
X0144916Y0047804D01*
X0144839Y0047800D01*
X0144761Y0047800D01*
X0144684Y0047804D01*
X0144607Y0047812D01*
X0144531Y0047824D01*
X0144455Y0047840D01*
X0144381Y0047860D01*
X0144307Y0047883D01*
X0144235Y0047911D01*
X0144164Y0047941D01*
X0144095Y0047976D01*
X0144028Y0048014D01*
X0143963Y0048055D01*
X0143900Y0048100D01*
X0143839Y0048148D01*
X0143781Y0048199D01*
X0143726Y0048253D01*
X0143673Y0048310D01*
X0143624Y0048369D01*
X0143577Y0048431D01*
X0143534Y0048495D01*
X0143495Y0048561D01*
X0143458Y0048629D01*
X0143426Y0048699D01*
X0143396Y0048771D01*
X0143371Y0048844D01*
X0143349Y0048918D01*
X0143332Y0048993D01*
X0143318Y0049069D01*
X0143308Y0049146D01*
X0143302Y0049223D01*
X0143300Y0049300D01*
X0196300Y0091800D02*
X0196800Y0092300D01*
X0217300Y0051800D02*
X0216800Y0051300D01*
X0223300Y0049300D02*
X0223302Y0049377D01*
X0223308Y0049454D01*
X0223318Y0049531D01*
X0223332Y0049607D01*
X0223349Y0049682D01*
X0223371Y0049756D01*
X0223396Y0049829D01*
X0223426Y0049901D01*
X0223458Y0049971D01*
X0223495Y0050039D01*
X0223534Y0050105D01*
X0223577Y0050169D01*
X0223624Y0050231D01*
X0223673Y0050290D01*
X0223726Y0050347D01*
X0223781Y0050401D01*
X0223839Y0050452D01*
X0223900Y0050500D01*
X0223963Y0050545D01*
X0224028Y0050586D01*
X0224095Y0050624D01*
X0224164Y0050659D01*
X0224235Y0050689D01*
X0224307Y0050717D01*
X0224381Y0050740D01*
X0224455Y0050760D01*
X0224531Y0050776D01*
X0224607Y0050788D01*
X0224684Y0050796D01*
X0224761Y0050800D01*
X0224839Y0050800D01*
X0224916Y0050796D01*
X0224993Y0050788D01*
X0225069Y0050776D01*
X0225145Y0050760D01*
X0225219Y0050740D01*
X0225293Y0050717D01*
X0225365Y0050689D01*
X0225436Y0050659D01*
X0225505Y0050624D01*
X0225572Y0050586D01*
X0225637Y0050545D01*
X0225700Y0050500D01*
X0225761Y0050452D01*
X0225819Y0050401D01*
X0225874Y0050347D01*
X0225927Y0050290D01*
X0225976Y0050231D01*
X0226023Y0050169D01*
X0226066Y0050105D01*
X0226105Y0050039D01*
X0226142Y0049971D01*
X0226174Y0049901D01*
X0226204Y0049829D01*
X0226229Y0049756D01*
X0226251Y0049682D01*
X0226268Y0049607D01*
X0226282Y0049531D01*
X0226292Y0049454D01*
X0226298Y0049377D01*
X0226300Y0049300D01*
X0226298Y0049223D01*
X0226292Y0049146D01*
X0226282Y0049069D01*
X0226268Y0048993D01*
X0226251Y0048918D01*
X0226229Y0048844D01*
X0226204Y0048771D01*
X0226174Y0048699D01*
X0226142Y0048629D01*
X0226105Y0048561D01*
X0226066Y0048495D01*
X0226023Y0048431D01*
X0225976Y0048369D01*
X0225927Y0048310D01*
X0225874Y0048253D01*
X0225819Y0048199D01*
X0225761Y0048148D01*
X0225700Y0048100D01*
X0225637Y0048055D01*
X0225572Y0048014D01*
X0225505Y0047976D01*
X0225436Y0047941D01*
X0225365Y0047911D01*
X0225293Y0047883D01*
X0225219Y0047860D01*
X0225145Y0047840D01*
X0225069Y0047824D01*
X0224993Y0047812D01*
X0224916Y0047804D01*
X0224839Y0047800D01*
X0224761Y0047800D01*
X0224684Y0047804D01*
X0224607Y0047812D01*
X0224531Y0047824D01*
X0224455Y0047840D01*
X0224381Y0047860D01*
X0224307Y0047883D01*
X0224235Y0047911D01*
X0224164Y0047941D01*
X0224095Y0047976D01*
X0224028Y0048014D01*
X0223963Y0048055D01*
X0223900Y0048100D01*
X0223839Y0048148D01*
X0223781Y0048199D01*
X0223726Y0048253D01*
X0223673Y0048310D01*
X0223624Y0048369D01*
X0223577Y0048431D01*
X0223534Y0048495D01*
X0223495Y0048561D01*
X0223458Y0048629D01*
X0223426Y0048699D01*
X0223396Y0048771D01*
X0223371Y0048844D01*
X0223349Y0048918D01*
X0223332Y0048993D01*
X0223318Y0049069D01*
X0223308Y0049146D01*
X0223302Y0049223D01*
X0223300Y0049300D01*
X0276300Y0091800D02*
X0276800Y0092300D01*
X0297300Y0051800D02*
X0296800Y0051300D01*
X0303300Y0049300D02*
X0303302Y0049377D01*
X0303308Y0049454D01*
X0303318Y0049531D01*
X0303332Y0049607D01*
X0303349Y0049682D01*
X0303371Y0049756D01*
X0303396Y0049829D01*
X0303426Y0049901D01*
X0303458Y0049971D01*
X0303495Y0050039D01*
X0303534Y0050105D01*
X0303577Y0050169D01*
X0303624Y0050231D01*
X0303673Y0050290D01*
X0303726Y0050347D01*
X0303781Y0050401D01*
X0303839Y0050452D01*
X0303900Y0050500D01*
X0303963Y0050545D01*
X0304028Y0050586D01*
X0304095Y0050624D01*
X0304164Y0050659D01*
X0304235Y0050689D01*
X0304307Y0050717D01*
X0304381Y0050740D01*
X0304455Y0050760D01*
X0304531Y0050776D01*
X0304607Y0050788D01*
X0304684Y0050796D01*
X0304761Y0050800D01*
X0304839Y0050800D01*
X0304916Y0050796D01*
X0304993Y0050788D01*
X0305069Y0050776D01*
X0305145Y0050760D01*
X0305219Y0050740D01*
X0305293Y0050717D01*
X0305365Y0050689D01*
X0305436Y0050659D01*
X0305505Y0050624D01*
X0305572Y0050586D01*
X0305637Y0050545D01*
X0305700Y0050500D01*
X0305761Y0050452D01*
X0305819Y0050401D01*
X0305874Y0050347D01*
X0305927Y0050290D01*
X0305976Y0050231D01*
X0306023Y0050169D01*
X0306066Y0050105D01*
X0306105Y0050039D01*
X0306142Y0049971D01*
X0306174Y0049901D01*
X0306204Y0049829D01*
X0306229Y0049756D01*
X0306251Y0049682D01*
X0306268Y0049607D01*
X0306282Y0049531D01*
X0306292Y0049454D01*
X0306298Y0049377D01*
X0306300Y0049300D01*
X0306298Y0049223D01*
X0306292Y0049146D01*
X0306282Y0049069D01*
X0306268Y0048993D01*
X0306251Y0048918D01*
X0306229Y0048844D01*
X0306204Y0048771D01*
X0306174Y0048699D01*
X0306142Y0048629D01*
X0306105Y0048561D01*
X0306066Y0048495D01*
X0306023Y0048431D01*
X0305976Y0048369D01*
X0305927Y0048310D01*
X0305874Y0048253D01*
X0305819Y0048199D01*
X0305761Y0048148D01*
X0305700Y0048100D01*
X0305637Y0048055D01*
X0305572Y0048014D01*
X0305505Y0047976D01*
X0305436Y0047941D01*
X0305365Y0047911D01*
X0305293Y0047883D01*
X0305219Y0047860D01*
X0305145Y0047840D01*
X0305069Y0047824D01*
X0304993Y0047812D01*
X0304916Y0047804D01*
X0304839Y0047800D01*
X0304761Y0047800D01*
X0304684Y0047804D01*
X0304607Y0047812D01*
X0304531Y0047824D01*
X0304455Y0047840D01*
X0304381Y0047860D01*
X0304307Y0047883D01*
X0304235Y0047911D01*
X0304164Y0047941D01*
X0304095Y0047976D01*
X0304028Y0048014D01*
X0303963Y0048055D01*
X0303900Y0048100D01*
X0303839Y0048148D01*
X0303781Y0048199D01*
X0303726Y0048253D01*
X0303673Y0048310D01*
X0303624Y0048369D01*
X0303577Y0048431D01*
X0303534Y0048495D01*
X0303495Y0048561D01*
X0303458Y0048629D01*
X0303426Y0048699D01*
X0303396Y0048771D01*
X0303371Y0048844D01*
X0303349Y0048918D01*
X0303332Y0048993D01*
X0303318Y0049069D01*
X0303308Y0049146D01*
X0303302Y0049223D01*
X0303300Y0049300D01*
D15*
X0269300Y0051800D02*
X0268800Y0052300D01*
X0304800Y0091300D02*
X0304300Y0091800D01*
X0224800Y0091300D02*
X0224300Y0091800D01*
X0188800Y0052300D02*
X0189300Y0051800D01*
X0144800Y0091300D02*
X0144300Y0091800D01*
X0108800Y0052300D02*
X0109300Y0051800D01*
X0064800Y0091300D02*
X0064300Y0091800D01*
X0028800Y0052300D02*
X0029300Y0051800D01*
D16*
X0034300Y0066800D02*
X0031800Y0068300D01*
X0059300Y0076800D02*
X0061800Y0075300D01*
X0111800Y0068300D02*
X0114300Y0066800D01*
X0139300Y0076800D02*
X0141800Y0075300D01*
X0191800Y0068300D02*
X0194300Y0066800D01*
X0219300Y0076800D02*
X0221800Y0075300D01*
X0271800Y0068300D02*
X0274300Y0066800D01*
X0299300Y0076800D02*
X0301800Y0075300D01*
D17*
X0280300Y0096300D02*
X0278800Y0094800D01*
X0200300Y0096300D02*
X0198800Y0094800D01*
X0120300Y0096300D02*
X0118800Y0094800D01*
X0040300Y0096300D02*
X0038800Y0094800D01*
D18*
X0054050Y0048300D03*
X0134050Y0048300D03*
X0214050Y0048300D03*
X0294050Y0048300D03*
D19*
X0300300Y0067800D03*
X0273300Y0075800D03*
X0220300Y0067800D03*
X0193300Y0075800D03*
X0140300Y0067800D03*
X0113300Y0075800D03*
X0060300Y0067800D03*
X0033300Y0075800D03*
D20*
X0059550Y0071800D03*
X0139550Y0071800D03*
X0219550Y0071800D03*
X0299550Y0071800D03*
D21*
X0274050Y0071800D03*
X0194050Y0071800D03*
X0114050Y0071800D03*
X0034050Y0071800D03*
D22*
X0064800Y0049300D03*
X0144800Y0049300D03*
X0224800Y0049300D03*
X0304800Y0049300D03*
D23*
X0302548Y0031800D02*
X0259241Y0031800D01*
X0271052Y0111800D01*
X0314359Y0111800D01*
X0302548Y0031800D01*
X0222548Y0031800D02*
X0234359Y0111800D01*
X0191052Y0111800D01*
X0179241Y0031800D01*
X0222548Y0031800D01*
X0142548Y0031800D02*
X0154359Y0111800D01*
X0111052Y0111800D01*
X0099241Y0031800D01*
X0142548Y0031800D01*
X0062548Y0031800D02*
X0074359Y0111800D01*
X0031052Y0111800D01*
X0019241Y0031800D01*
X0062548Y0031800D01*
X0146957Y0166957D02*
X0146957Y0183099D01*
X0150501Y0186643D01*
X0151682Y0187824D01*
X0150107Y0189398D01*
X0146957Y0186643D01*
X0150501Y0186643D01*
X0166643Y0186643D01*
X0166643Y0166957D01*
X0146957Y0166957D01*
X0150027Y0176800D02*
X0150029Y0176966D01*
X0150035Y0177132D01*
X0150045Y0177298D01*
X0150060Y0177464D01*
X0150078Y0177629D01*
X0150100Y0177794D01*
X0150127Y0177958D01*
X0150157Y0178121D01*
X0150192Y0178284D01*
X0150230Y0178446D01*
X0150272Y0178606D01*
X0150319Y0178766D01*
X0150369Y0178925D01*
X0150423Y0179082D01*
X0150481Y0179238D01*
X0150543Y0179392D01*
X0150608Y0179545D01*
X0150677Y0179696D01*
X0150750Y0179845D01*
X0150827Y0179993D01*
X0150907Y0180138D01*
X0150991Y0180282D01*
X0151078Y0180424D01*
X0151168Y0180563D01*
X0151262Y0180700D01*
X0151360Y0180835D01*
X0151461Y0180967D01*
X0151564Y0181097D01*
X0151671Y0181224D01*
X0151782Y0181348D01*
X0151895Y0181470D01*
X0152011Y0181589D01*
X0152130Y0181705D01*
X0152252Y0181818D01*
X0152376Y0181929D01*
X0152503Y0182036D01*
X0152633Y0182139D01*
X0152765Y0182240D01*
X0152900Y0182338D01*
X0153037Y0182432D01*
X0153176Y0182522D01*
X0153318Y0182609D01*
X0153462Y0182693D01*
X0153607Y0182773D01*
X0153755Y0182850D01*
X0153904Y0182923D01*
X0154055Y0182992D01*
X0154208Y0183057D01*
X0154362Y0183119D01*
X0154518Y0183177D01*
X0154675Y0183231D01*
X0154834Y0183281D01*
X0154994Y0183328D01*
X0155154Y0183370D01*
X0155316Y0183408D01*
X0155479Y0183443D01*
X0155642Y0183473D01*
X0155806Y0183500D01*
X0155971Y0183522D01*
X0156136Y0183540D01*
X0156302Y0183555D01*
X0156468Y0183565D01*
X0156634Y0183571D01*
X0156800Y0183573D01*
X0156966Y0183571D01*
X0157132Y0183565D01*
X0157298Y0183555D01*
X0157464Y0183540D01*
X0157629Y0183522D01*
X0157794Y0183500D01*
X0157958Y0183473D01*
X0158121Y0183443D01*
X0158284Y0183408D01*
X0158446Y0183370D01*
X0158606Y0183328D01*
X0158766Y0183281D01*
X0158925Y0183231D01*
X0159082Y0183177D01*
X0159238Y0183119D01*
X0159392Y0183057D01*
X0159545Y0182992D01*
X0159696Y0182923D01*
X0159845Y0182850D01*
X0159993Y0182773D01*
X0160138Y0182693D01*
X0160282Y0182609D01*
X0160424Y0182522D01*
X0160563Y0182432D01*
X0160700Y0182338D01*
X0160835Y0182240D01*
X0160967Y0182139D01*
X0161097Y0182036D01*
X0161224Y0181929D01*
X0161348Y0181818D01*
X0161470Y0181705D01*
X0161589Y0181589D01*
X0161705Y0181470D01*
X0161818Y0181348D01*
X0161929Y0181224D01*
X0162036Y0181097D01*
X0162139Y0180967D01*
X0162240Y0180835D01*
X0162338Y0180700D01*
X0162432Y0180563D01*
X0162522Y0180424D01*
X0162609Y0180282D01*
X0162693Y0180138D01*
X0162773Y0179993D01*
X0162850Y0179845D01*
X0162923Y0179696D01*
X0162992Y0179545D01*
X0163057Y0179392D01*
X0163119Y0179238D01*
X0163177Y0179082D01*
X0163231Y0178925D01*
X0163281Y0178766D01*
X0163328Y0178606D01*
X0163370Y0178446D01*
X0163408Y0178284D01*
X0163443Y0178121D01*
X0163473Y0177958D01*
X0163500Y0177794D01*
X0163522Y0177629D01*
X0163540Y0177464D01*
X0163555Y0177298D01*
X0163565Y0177132D01*
X0163571Y0176966D01*
X0163573Y0176800D01*
X0163571Y0176634D01*
X0163565Y0176468D01*
X0163555Y0176302D01*
X0163540Y0176136D01*
X0163522Y0175971D01*
X0163500Y0175806D01*
X0163473Y0175642D01*
X0163443Y0175479D01*
X0163408Y0175316D01*
X0163370Y0175154D01*
X0163328Y0174994D01*
X0163281Y0174834D01*
X0163231Y0174675D01*
X0163177Y0174518D01*
X0163119Y0174362D01*
X0163057Y0174208D01*
X0162992Y0174055D01*
X0162923Y0173904D01*
X0162850Y0173755D01*
X0162773Y0173607D01*
X0162693Y0173462D01*
X0162609Y0173318D01*
X0162522Y0173176D01*
X0162432Y0173037D01*
X0162338Y0172900D01*
X0162240Y0172765D01*
X0162139Y0172633D01*
X0162036Y0172503D01*
X0161929Y0172376D01*
X0161818Y0172252D01*
X0161705Y0172130D01*
X0161589Y0172011D01*
X0161470Y0171895D01*
X0161348Y0171782D01*
X0161224Y0171671D01*
X0161097Y0171564D01*
X0160967Y0171461D01*
X0160835Y0171360D01*
X0160700Y0171262D01*
X0160563Y0171168D01*
X0160424Y0171078D01*
X0160282Y0170991D01*
X0160138Y0170907D01*
X0159993Y0170827D01*
X0159845Y0170750D01*
X0159696Y0170677D01*
X0159545Y0170608D01*
X0159392Y0170543D01*
X0159238Y0170481D01*
X0159082Y0170423D01*
X0158925Y0170369D01*
X0158766Y0170319D01*
X0158606Y0170272D01*
X0158446Y0170230D01*
X0158284Y0170192D01*
X0158121Y0170157D01*
X0157958Y0170127D01*
X0157794Y0170100D01*
X0157629Y0170078D01*
X0157464Y0170060D01*
X0157298Y0170045D01*
X0157132Y0170035D01*
X0156966Y0170029D01*
X0156800Y0170027D01*
X0156634Y0170029D01*
X0156468Y0170035D01*
X0156302Y0170045D01*
X0156136Y0170060D01*
X0155971Y0170078D01*
X0155806Y0170100D01*
X0155642Y0170127D01*
X0155479Y0170157D01*
X0155316Y0170192D01*
X0155154Y0170230D01*
X0154994Y0170272D01*
X0154834Y0170319D01*
X0154675Y0170369D01*
X0154518Y0170423D01*
X0154362Y0170481D01*
X0154208Y0170543D01*
X0154055Y0170608D01*
X0153904Y0170677D01*
X0153755Y0170750D01*
X0153607Y0170827D01*
X0153462Y0170907D01*
X0153318Y0170991D01*
X0153176Y0171078D01*
X0153037Y0171168D01*
X0152900Y0171262D01*
X0152765Y0171360D01*
X0152633Y0171461D01*
X0152503Y0171564D01*
X0152376Y0171671D01*
X0152252Y0171782D01*
X0152130Y0171895D01*
X0152011Y0172011D01*
X0151895Y0172130D01*
X0151782Y0172252D01*
X0151671Y0172376D01*
X0151564Y0172503D01*
X0151461Y0172633D01*
X0151360Y0172765D01*
X0151262Y0172900D01*
X0151168Y0173037D01*
X0151078Y0173176D01*
X0150991Y0173318D01*
X0150907Y0173462D01*
X0150827Y0173607D01*
X0150750Y0173755D01*
X0150677Y0173904D01*
X0150608Y0174055D01*
X0150543Y0174208D01*
X0150481Y0174362D01*
X0150423Y0174518D01*
X0150369Y0174675D01*
X0150319Y0174834D01*
X0150272Y0174994D01*
X0150230Y0175154D01*
X0150192Y0175316D01*
X0150157Y0175479D01*
X0150127Y0175642D01*
X0150100Y0175806D01*
X0150078Y0175971D01*
X0150060Y0176136D01*
X0150045Y0176302D01*
X0150035Y0176468D01*
X0150029Y0176634D01*
X0150027Y0176800D01*
X0146957Y0183099D02*
X0146957Y0186643D01*
X0116643Y0216957D02*
X0116643Y0236643D01*
X0100501Y0236643D01*
X0101682Y0237824D01*
X0100107Y0239398D01*
X0096957Y0236643D01*
X0100501Y0236643D01*
X0096957Y0233099D01*
X0096957Y0236643D01*
X0096957Y0233099D02*
X0096957Y0216957D01*
X0116643Y0216957D01*
X0100027Y0226800D02*
X0100029Y0226966D01*
X0100035Y0227132D01*
X0100045Y0227298D01*
X0100060Y0227464D01*
X0100078Y0227629D01*
X0100100Y0227794D01*
X0100127Y0227958D01*
X0100157Y0228121D01*
X0100192Y0228284D01*
X0100230Y0228446D01*
X0100272Y0228606D01*
X0100319Y0228766D01*
X0100369Y0228925D01*
X0100423Y0229082D01*
X0100481Y0229238D01*
X0100543Y0229392D01*
X0100608Y0229545D01*
X0100677Y0229696D01*
X0100750Y0229845D01*
X0100827Y0229993D01*
X0100907Y0230138D01*
X0100991Y0230282D01*
X0101078Y0230424D01*
X0101168Y0230563D01*
X0101262Y0230700D01*
X0101360Y0230835D01*
X0101461Y0230967D01*
X0101564Y0231097D01*
X0101671Y0231224D01*
X0101782Y0231348D01*
X0101895Y0231470D01*
X0102011Y0231589D01*
X0102130Y0231705D01*
X0102252Y0231818D01*
X0102376Y0231929D01*
X0102503Y0232036D01*
X0102633Y0232139D01*
X0102765Y0232240D01*
X0102900Y0232338D01*
X0103037Y0232432D01*
X0103176Y0232522D01*
X0103318Y0232609D01*
X0103462Y0232693D01*
X0103607Y0232773D01*
X0103755Y0232850D01*
X0103904Y0232923D01*
X0104055Y0232992D01*
X0104208Y0233057D01*
X0104362Y0233119D01*
X0104518Y0233177D01*
X0104675Y0233231D01*
X0104834Y0233281D01*
X0104994Y0233328D01*
X0105154Y0233370D01*
X0105316Y0233408D01*
X0105479Y0233443D01*
X0105642Y0233473D01*
X0105806Y0233500D01*
X0105971Y0233522D01*
X0106136Y0233540D01*
X0106302Y0233555D01*
X0106468Y0233565D01*
X0106634Y0233571D01*
X0106800Y0233573D01*
X0106966Y0233571D01*
X0107132Y0233565D01*
X0107298Y0233555D01*
X0107464Y0233540D01*
X0107629Y0233522D01*
X0107794Y0233500D01*
X0107958Y0233473D01*
X0108121Y0233443D01*
X0108284Y0233408D01*
X0108446Y0233370D01*
X0108606Y0233328D01*
X0108766Y0233281D01*
X0108925Y0233231D01*
X0109082Y0233177D01*
X0109238Y0233119D01*
X0109392Y0233057D01*
X0109545Y0232992D01*
X0109696Y0232923D01*
X0109845Y0232850D01*
X0109993Y0232773D01*
X0110138Y0232693D01*
X0110282Y0232609D01*
X0110424Y0232522D01*
X0110563Y0232432D01*
X0110700Y0232338D01*
X0110835Y0232240D01*
X0110967Y0232139D01*
X0111097Y0232036D01*
X0111224Y0231929D01*
X0111348Y0231818D01*
X0111470Y0231705D01*
X0111589Y0231589D01*
X0111705Y0231470D01*
X0111818Y0231348D01*
X0111929Y0231224D01*
X0112036Y0231097D01*
X0112139Y0230967D01*
X0112240Y0230835D01*
X0112338Y0230700D01*
X0112432Y0230563D01*
X0112522Y0230424D01*
X0112609Y0230282D01*
X0112693Y0230138D01*
X0112773Y0229993D01*
X0112850Y0229845D01*
X0112923Y0229696D01*
X0112992Y0229545D01*
X0113057Y0229392D01*
X0113119Y0229238D01*
X0113177Y0229082D01*
X0113231Y0228925D01*
X0113281Y0228766D01*
X0113328Y0228606D01*
X0113370Y0228446D01*
X0113408Y0228284D01*
X0113443Y0228121D01*
X0113473Y0227958D01*
X0113500Y0227794D01*
X0113522Y0227629D01*
X0113540Y0227464D01*
X0113555Y0227298D01*
X0113565Y0227132D01*
X0113571Y0226966D01*
X0113573Y0226800D01*
X0113571Y0226634D01*
X0113565Y0226468D01*
X0113555Y0226302D01*
X0113540Y0226136D01*
X0113522Y0225971D01*
X0113500Y0225806D01*
X0113473Y0225642D01*
X0113443Y0225479D01*
X0113408Y0225316D01*
X0113370Y0225154D01*
X0113328Y0224994D01*
X0113281Y0224834D01*
X0113231Y0224675D01*
X0113177Y0224518D01*
X0113119Y0224362D01*
X0113057Y0224208D01*
X0112992Y0224055D01*
X0112923Y0223904D01*
X0112850Y0223755D01*
X0112773Y0223607D01*
X0112693Y0223462D01*
X0112609Y0223318D01*
X0112522Y0223176D01*
X0112432Y0223037D01*
X0112338Y0222900D01*
X0112240Y0222765D01*
X0112139Y0222633D01*
X0112036Y0222503D01*
X0111929Y0222376D01*
X0111818Y0222252D01*
X0111705Y0222130D01*
X0111589Y0222011D01*
X0111470Y0221895D01*
X0111348Y0221782D01*
X0111224Y0221671D01*
X0111097Y0221564D01*
X0110967Y0221461D01*
X0110835Y0221360D01*
X0110700Y0221262D01*
X0110563Y0221168D01*
X0110424Y0221078D01*
X0110282Y0220991D01*
X0110138Y0220907D01*
X0109993Y0220827D01*
X0109845Y0220750D01*
X0109696Y0220677D01*
X0109545Y0220608D01*
X0109392Y0220543D01*
X0109238Y0220481D01*
X0109082Y0220423D01*
X0108925Y0220369D01*
X0108766Y0220319D01*
X0108606Y0220272D01*
X0108446Y0220230D01*
X0108284Y0220192D01*
X0108121Y0220157D01*
X0107958Y0220127D01*
X0107794Y0220100D01*
X0107629Y0220078D01*
X0107464Y0220060D01*
X0107298Y0220045D01*
X0107132Y0220035D01*
X0106966Y0220029D01*
X0106800Y0220027D01*
X0106634Y0220029D01*
X0106468Y0220035D01*
X0106302Y0220045D01*
X0106136Y0220060D01*
X0105971Y0220078D01*
X0105806Y0220100D01*
X0105642Y0220127D01*
X0105479Y0220157D01*
X0105316Y0220192D01*
X0105154Y0220230D01*
X0104994Y0220272D01*
X0104834Y0220319D01*
X0104675Y0220369D01*
X0104518Y0220423D01*
X0104362Y0220481D01*
X0104208Y0220543D01*
X0104055Y0220608D01*
X0103904Y0220677D01*
X0103755Y0220750D01*
X0103607Y0220827D01*
X0103462Y0220907D01*
X0103318Y0220991D01*
X0103176Y0221078D01*
X0103037Y0221168D01*
X0102900Y0221262D01*
X0102765Y0221360D01*
X0102633Y0221461D01*
X0102503Y0221564D01*
X0102376Y0221671D01*
X0102252Y0221782D01*
X0102130Y0221895D01*
X0102011Y0222011D01*
X0101895Y0222130D01*
X0101782Y0222252D01*
X0101671Y0222376D01*
X0101564Y0222503D01*
X0101461Y0222633D01*
X0101360Y0222765D01*
X0101262Y0222900D01*
X0101168Y0223037D01*
X0101078Y0223176D01*
X0100991Y0223318D01*
X0100907Y0223462D01*
X0100827Y0223607D01*
X0100750Y0223755D01*
X0100677Y0223904D01*
X0100608Y0224055D01*
X0100543Y0224208D01*
X0100481Y0224362D01*
X0100423Y0224518D01*
X0100369Y0224675D01*
X0100319Y0224834D01*
X0100272Y0224994D01*
X0100230Y0225154D01*
X0100192Y0225316D01*
X0100157Y0225479D01*
X0100127Y0225642D01*
X0100100Y0225806D01*
X0100078Y0225971D01*
X0100060Y0226136D01*
X0100045Y0226302D01*
X0100035Y0226468D01*
X0100029Y0226634D01*
X0100027Y0226800D01*
X0156957Y0266957D02*
X0156957Y0283099D01*
X0160501Y0286643D01*
X0161682Y0287824D01*
X0160107Y0289398D01*
X0156957Y0286643D01*
X0160501Y0286643D01*
X0176643Y0286643D01*
X0176643Y0266957D01*
X0156957Y0266957D01*
X0160027Y0276800D02*
X0160029Y0276966D01*
X0160035Y0277132D01*
X0160045Y0277298D01*
X0160060Y0277464D01*
X0160078Y0277629D01*
X0160100Y0277794D01*
X0160127Y0277958D01*
X0160157Y0278121D01*
X0160192Y0278284D01*
X0160230Y0278446D01*
X0160272Y0278606D01*
X0160319Y0278766D01*
X0160369Y0278925D01*
X0160423Y0279082D01*
X0160481Y0279238D01*
X0160543Y0279392D01*
X0160608Y0279545D01*
X0160677Y0279696D01*
X0160750Y0279845D01*
X0160827Y0279993D01*
X0160907Y0280138D01*
X0160991Y0280282D01*
X0161078Y0280424D01*
X0161168Y0280563D01*
X0161262Y0280700D01*
X0161360Y0280835D01*
X0161461Y0280967D01*
X0161564Y0281097D01*
X0161671Y0281224D01*
X0161782Y0281348D01*
X0161895Y0281470D01*
X0162011Y0281589D01*
X0162130Y0281705D01*
X0162252Y0281818D01*
X0162376Y0281929D01*
X0162503Y0282036D01*
X0162633Y0282139D01*
X0162765Y0282240D01*
X0162900Y0282338D01*
X0163037Y0282432D01*
X0163176Y0282522D01*
X0163318Y0282609D01*
X0163462Y0282693D01*
X0163607Y0282773D01*
X0163755Y0282850D01*
X0163904Y0282923D01*
X0164055Y0282992D01*
X0164208Y0283057D01*
X0164362Y0283119D01*
X0164518Y0283177D01*
X0164675Y0283231D01*
X0164834Y0283281D01*
X0164994Y0283328D01*
X0165154Y0283370D01*
X0165316Y0283408D01*
X0165479Y0283443D01*
X0165642Y0283473D01*
X0165806Y0283500D01*
X0165971Y0283522D01*
X0166136Y0283540D01*
X0166302Y0283555D01*
X0166468Y0283565D01*
X0166634Y0283571D01*
X0166800Y0283573D01*
X0166966Y0283571D01*
X0167132Y0283565D01*
X0167298Y0283555D01*
X0167464Y0283540D01*
X0167629Y0283522D01*
X0167794Y0283500D01*
X0167958Y0283473D01*
X0168121Y0283443D01*
X0168284Y0283408D01*
X0168446Y0283370D01*
X0168606Y0283328D01*
X0168766Y0283281D01*
X0168925Y0283231D01*
X0169082Y0283177D01*
X0169238Y0283119D01*
X0169392Y0283057D01*
X0169545Y0282992D01*
X0169696Y0282923D01*
X0169845Y0282850D01*
X0169993Y0282773D01*
X0170138Y0282693D01*
X0170282Y0282609D01*
X0170424Y0282522D01*
X0170563Y0282432D01*
X0170700Y0282338D01*
X0170835Y0282240D01*
X0170967Y0282139D01*
X0171097Y0282036D01*
X0171224Y0281929D01*
X0171348Y0281818D01*
X0171470Y0281705D01*
X0171589Y0281589D01*
X0171705Y0281470D01*
X0171818Y0281348D01*
X0171929Y0281224D01*
X0172036Y0281097D01*
X0172139Y0280967D01*
X0172240Y0280835D01*
X0172338Y0280700D01*
X0172432Y0280563D01*
X0172522Y0280424D01*
X0172609Y0280282D01*
X0172693Y0280138D01*
X0172773Y0279993D01*
X0172850Y0279845D01*
X0172923Y0279696D01*
X0172992Y0279545D01*
X0173057Y0279392D01*
X0173119Y0279238D01*
X0173177Y0279082D01*
X0173231Y0278925D01*
X0173281Y0278766D01*
X0173328Y0278606D01*
X0173370Y0278446D01*
X0173408Y0278284D01*
X0173443Y0278121D01*
X0173473Y0277958D01*
X0173500Y0277794D01*
X0173522Y0277629D01*
X0173540Y0277464D01*
X0173555Y0277298D01*
X0173565Y0277132D01*
X0173571Y0276966D01*
X0173573Y0276800D01*
X0173571Y0276634D01*
X0173565Y0276468D01*
X0173555Y0276302D01*
X0173540Y0276136D01*
X0173522Y0275971D01*
X0173500Y0275806D01*
X0173473Y0275642D01*
X0173443Y0275479D01*
X0173408Y0275316D01*
X0173370Y0275154D01*
X0173328Y0274994D01*
X0173281Y0274834D01*
X0173231Y0274675D01*
X0173177Y0274518D01*
X0173119Y0274362D01*
X0173057Y0274208D01*
X0172992Y0274055D01*
X0172923Y0273904D01*
X0172850Y0273755D01*
X0172773Y0273607D01*
X0172693Y0273462D01*
X0172609Y0273318D01*
X0172522Y0273176D01*
X0172432Y0273037D01*
X0172338Y0272900D01*
X0172240Y0272765D01*
X0172139Y0272633D01*
X0172036Y0272503D01*
X0171929Y0272376D01*
X0171818Y0272252D01*
X0171705Y0272130D01*
X0171589Y0272011D01*
X0171470Y0271895D01*
X0171348Y0271782D01*
X0171224Y0271671D01*
X0171097Y0271564D01*
X0170967Y0271461D01*
X0170835Y0271360D01*
X0170700Y0271262D01*
X0170563Y0271168D01*
X0170424Y0271078D01*
X0170282Y0270991D01*
X0170138Y0270907D01*
X0169993Y0270827D01*
X0169845Y0270750D01*
X0169696Y0270677D01*
X0169545Y0270608D01*
X0169392Y0270543D01*
X0169238Y0270481D01*
X0169082Y0270423D01*
X0168925Y0270369D01*
X0168766Y0270319D01*
X0168606Y0270272D01*
X0168446Y0270230D01*
X0168284Y0270192D01*
X0168121Y0270157D01*
X0167958Y0270127D01*
X0167794Y0270100D01*
X0167629Y0270078D01*
X0167464Y0270060D01*
X0167298Y0270045D01*
X0167132Y0270035D01*
X0166966Y0270029D01*
X0166800Y0270027D01*
X0166634Y0270029D01*
X0166468Y0270035D01*
X0166302Y0270045D01*
X0166136Y0270060D01*
X0165971Y0270078D01*
X0165806Y0270100D01*
X0165642Y0270127D01*
X0165479Y0270157D01*
X0165316Y0270192D01*
X0165154Y0270230D01*
X0164994Y0270272D01*
X0164834Y0270319D01*
X0164675Y0270369D01*
X0164518Y0270423D01*
X0164362Y0270481D01*
X0164208Y0270543D01*
X0164055Y0270608D01*
X0163904Y0270677D01*
X0163755Y0270750D01*
X0163607Y0270827D01*
X0163462Y0270907D01*
X0163318Y0270991D01*
X0163176Y0271078D01*
X0163037Y0271168D01*
X0162900Y0271262D01*
X0162765Y0271360D01*
X0162633Y0271461D01*
X0162503Y0271564D01*
X0162376Y0271671D01*
X0162252Y0271782D01*
X0162130Y0271895D01*
X0162011Y0272011D01*
X0161895Y0272130D01*
X0161782Y0272252D01*
X0161671Y0272376D01*
X0161564Y0272503D01*
X0161461Y0272633D01*
X0161360Y0272765D01*
X0161262Y0272900D01*
X0161168Y0273037D01*
X0161078Y0273176D01*
X0160991Y0273318D01*
X0160907Y0273462D01*
X0160827Y0273607D01*
X0160750Y0273755D01*
X0160677Y0273904D01*
X0160608Y0274055D01*
X0160543Y0274208D01*
X0160481Y0274362D01*
X0160423Y0274518D01*
X0160369Y0274675D01*
X0160319Y0274834D01*
X0160272Y0274994D01*
X0160230Y0275154D01*
X0160192Y0275316D01*
X0160157Y0275479D01*
X0160127Y0275642D01*
X0160100Y0275806D01*
X0160078Y0275971D01*
X0160060Y0276136D01*
X0160045Y0276302D01*
X0160035Y0276468D01*
X0160029Y0276634D01*
X0160027Y0276800D01*
X0156957Y0283099D02*
X0156957Y0286643D01*
X0126643Y0316957D02*
X0126643Y0336643D01*
X0110501Y0336643D01*
X0111682Y0337824D01*
X0110107Y0339398D01*
X0106957Y0336643D01*
X0110501Y0336643D01*
X0106957Y0333099D01*
X0106957Y0336643D01*
X0106957Y0333099D02*
X0106957Y0316957D01*
X0126643Y0316957D01*
X0110027Y0326800D02*
X0110029Y0326966D01*
X0110035Y0327132D01*
X0110045Y0327298D01*
X0110060Y0327464D01*
X0110078Y0327629D01*
X0110100Y0327794D01*
X0110127Y0327958D01*
X0110157Y0328121D01*
X0110192Y0328284D01*
X0110230Y0328446D01*
X0110272Y0328606D01*
X0110319Y0328766D01*
X0110369Y0328925D01*
X0110423Y0329082D01*
X0110481Y0329238D01*
X0110543Y0329392D01*
X0110608Y0329545D01*
X0110677Y0329696D01*
X0110750Y0329845D01*
X0110827Y0329993D01*
X0110907Y0330138D01*
X0110991Y0330282D01*
X0111078Y0330424D01*
X0111168Y0330563D01*
X0111262Y0330700D01*
X0111360Y0330835D01*
X0111461Y0330967D01*
X0111564Y0331097D01*
X0111671Y0331224D01*
X0111782Y0331348D01*
X0111895Y0331470D01*
X0112011Y0331589D01*
X0112130Y0331705D01*
X0112252Y0331818D01*
X0112376Y0331929D01*
X0112503Y0332036D01*
X0112633Y0332139D01*
X0112765Y0332240D01*
X0112900Y0332338D01*
X0113037Y0332432D01*
X0113176Y0332522D01*
X0113318Y0332609D01*
X0113462Y0332693D01*
X0113607Y0332773D01*
X0113755Y0332850D01*
X0113904Y0332923D01*
X0114055Y0332992D01*
X0114208Y0333057D01*
X0114362Y0333119D01*
X0114518Y0333177D01*
X0114675Y0333231D01*
X0114834Y0333281D01*
X0114994Y0333328D01*
X0115154Y0333370D01*
X0115316Y0333408D01*
X0115479Y0333443D01*
X0115642Y0333473D01*
X0115806Y0333500D01*
X0115971Y0333522D01*
X0116136Y0333540D01*
X0116302Y0333555D01*
X0116468Y0333565D01*
X0116634Y0333571D01*
X0116800Y0333573D01*
X0116966Y0333571D01*
X0117132Y0333565D01*
X0117298Y0333555D01*
X0117464Y0333540D01*
X0117629Y0333522D01*
X0117794Y0333500D01*
X0117958Y0333473D01*
X0118121Y0333443D01*
X0118284Y0333408D01*
X0118446Y0333370D01*
X0118606Y0333328D01*
X0118766Y0333281D01*
X0118925Y0333231D01*
X0119082Y0333177D01*
X0119238Y0333119D01*
X0119392Y0333057D01*
X0119545Y0332992D01*
X0119696Y0332923D01*
X0119845Y0332850D01*
X0119993Y0332773D01*
X0120138Y0332693D01*
X0120282Y0332609D01*
X0120424Y0332522D01*
X0120563Y0332432D01*
X0120700Y0332338D01*
X0120835Y0332240D01*
X0120967Y0332139D01*
X0121097Y0332036D01*
X0121224Y0331929D01*
X0121348Y0331818D01*
X0121470Y0331705D01*
X0121589Y0331589D01*
X0121705Y0331470D01*
X0121818Y0331348D01*
X0121929Y0331224D01*
X0122036Y0331097D01*
X0122139Y0330967D01*
X0122240Y0330835D01*
X0122338Y0330700D01*
X0122432Y0330563D01*
X0122522Y0330424D01*
X0122609Y0330282D01*
X0122693Y0330138D01*
X0122773Y0329993D01*
X0122850Y0329845D01*
X0122923Y0329696D01*
X0122992Y0329545D01*
X0123057Y0329392D01*
X0123119Y0329238D01*
X0123177Y0329082D01*
X0123231Y0328925D01*
X0123281Y0328766D01*
X0123328Y0328606D01*
X0123370Y0328446D01*
X0123408Y0328284D01*
X0123443Y0328121D01*
X0123473Y0327958D01*
X0123500Y0327794D01*
X0123522Y0327629D01*
X0123540Y0327464D01*
X0123555Y0327298D01*
X0123565Y0327132D01*
X0123571Y0326966D01*
X0123573Y0326800D01*
X0123571Y0326634D01*
X0123565Y0326468D01*
X0123555Y0326302D01*
X0123540Y0326136D01*
X0123522Y0325971D01*
X0123500Y0325806D01*
X0123473Y0325642D01*
X0123443Y0325479D01*
X0123408Y0325316D01*
X0123370Y0325154D01*
X0123328Y0324994D01*
X0123281Y0324834D01*
X0123231Y0324675D01*
X0123177Y0324518D01*
X0123119Y0324362D01*
X0123057Y0324208D01*
X0122992Y0324055D01*
X0122923Y0323904D01*
X0122850Y0323755D01*
X0122773Y0323607D01*
X0122693Y0323462D01*
X0122609Y0323318D01*
X0122522Y0323176D01*
X0122432Y0323037D01*
X0122338Y0322900D01*
X0122240Y0322765D01*
X0122139Y0322633D01*
X0122036Y0322503D01*
X0121929Y0322376D01*
X0121818Y0322252D01*
X0121705Y0322130D01*
X0121589Y0322011D01*
X0121470Y0321895D01*
X0121348Y0321782D01*
X0121224Y0321671D01*
X0121097Y0321564D01*
X0120967Y0321461D01*
X0120835Y0321360D01*
X0120700Y0321262D01*
X0120563Y0321168D01*
X0120424Y0321078D01*
X0120282Y0320991D01*
X0120138Y0320907D01*
X0119993Y0320827D01*
X0119845Y0320750D01*
X0119696Y0320677D01*
X0119545Y0320608D01*
X0119392Y0320543D01*
X0119238Y0320481D01*
X0119082Y0320423D01*
X0118925Y0320369D01*
X0118766Y0320319D01*
X0118606Y0320272D01*
X0118446Y0320230D01*
X0118284Y0320192D01*
X0118121Y0320157D01*
X0117958Y0320127D01*
X0117794Y0320100D01*
X0117629Y0320078D01*
X0117464Y0320060D01*
X0117298Y0320045D01*
X0117132Y0320035D01*
X0116966Y0320029D01*
X0116800Y0320027D01*
X0116634Y0320029D01*
X0116468Y0320035D01*
X0116302Y0320045D01*
X0116136Y0320060D01*
X0115971Y0320078D01*
X0115806Y0320100D01*
X0115642Y0320127D01*
X0115479Y0320157D01*
X0115316Y0320192D01*
X0115154Y0320230D01*
X0114994Y0320272D01*
X0114834Y0320319D01*
X0114675Y0320369D01*
X0114518Y0320423D01*
X0114362Y0320481D01*
X0114208Y0320543D01*
X0114055Y0320608D01*
X0113904Y0320677D01*
X0113755Y0320750D01*
X0113607Y0320827D01*
X0113462Y0320907D01*
X0113318Y0320991D01*
X0113176Y0321078D01*
X0113037Y0321168D01*
X0112900Y0321262D01*
X0112765Y0321360D01*
X0112633Y0321461D01*
X0112503Y0321564D01*
X0112376Y0321671D01*
X0112252Y0321782D01*
X0112130Y0321895D01*
X0112011Y0322011D01*
X0111895Y0322130D01*
X0111782Y0322252D01*
X0111671Y0322376D01*
X0111564Y0322503D01*
X0111461Y0322633D01*
X0111360Y0322765D01*
X0111262Y0322900D01*
X0111168Y0323037D01*
X0111078Y0323176D01*
X0110991Y0323318D01*
X0110907Y0323462D01*
X0110827Y0323607D01*
X0110750Y0323755D01*
X0110677Y0323904D01*
X0110608Y0324055D01*
X0110543Y0324208D01*
X0110481Y0324362D01*
X0110423Y0324518D01*
X0110369Y0324675D01*
X0110319Y0324834D01*
X0110272Y0324994D01*
X0110230Y0325154D01*
X0110192Y0325316D01*
X0110157Y0325479D01*
X0110127Y0325642D01*
X0110100Y0325806D01*
X0110078Y0325971D01*
X0110060Y0326136D01*
X0110045Y0326302D01*
X0110035Y0326468D01*
X0110029Y0326634D01*
X0110027Y0326800D01*
X0166957Y0366957D02*
X0166957Y0383099D01*
X0170501Y0386643D01*
X0171682Y0387824D01*
X0170107Y0389398D01*
X0166957Y0386643D01*
X0170501Y0386643D01*
X0186643Y0386643D01*
X0186643Y0366957D01*
X0166957Y0366957D01*
X0170027Y0376800D02*
X0170029Y0376966D01*
X0170035Y0377132D01*
X0170045Y0377298D01*
X0170060Y0377464D01*
X0170078Y0377629D01*
X0170100Y0377794D01*
X0170127Y0377958D01*
X0170157Y0378121D01*
X0170192Y0378284D01*
X0170230Y0378446D01*
X0170272Y0378606D01*
X0170319Y0378766D01*
X0170369Y0378925D01*
X0170423Y0379082D01*
X0170481Y0379238D01*
X0170543Y0379392D01*
X0170608Y0379545D01*
X0170677Y0379696D01*
X0170750Y0379845D01*
X0170827Y0379993D01*
X0170907Y0380138D01*
X0170991Y0380282D01*
X0171078Y0380424D01*
X0171168Y0380563D01*
X0171262Y0380700D01*
X0171360Y0380835D01*
X0171461Y0380967D01*
X0171564Y0381097D01*
X0171671Y0381224D01*
X0171782Y0381348D01*
X0171895Y0381470D01*
X0172011Y0381589D01*
X0172130Y0381705D01*
X0172252Y0381818D01*
X0172376Y0381929D01*
X0172503Y0382036D01*
X0172633Y0382139D01*
X0172765Y0382240D01*
X0172900Y0382338D01*
X0173037Y0382432D01*
X0173176Y0382522D01*
X0173318Y0382609D01*
X0173462Y0382693D01*
X0173607Y0382773D01*
X0173755Y0382850D01*
X0173904Y0382923D01*
X0174055Y0382992D01*
X0174208Y0383057D01*
X0174362Y0383119D01*
X0174518Y0383177D01*
X0174675Y0383231D01*
X0174834Y0383281D01*
X0174994Y0383328D01*
X0175154Y0383370D01*
X0175316Y0383408D01*
X0175479Y0383443D01*
X0175642Y0383473D01*
X0175806Y0383500D01*
X0175971Y0383522D01*
X0176136Y0383540D01*
X0176302Y0383555D01*
X0176468Y0383565D01*
X0176634Y0383571D01*
X0176800Y0383573D01*
X0176966Y0383571D01*
X0177132Y0383565D01*
X0177298Y0383555D01*
X0177464Y0383540D01*
X0177629Y0383522D01*
X0177794Y0383500D01*
X0177958Y0383473D01*
X0178121Y0383443D01*
X0178284Y0383408D01*
X0178446Y0383370D01*
X0178606Y0383328D01*
X0178766Y0383281D01*
X0178925Y0383231D01*
X0179082Y0383177D01*
X0179238Y0383119D01*
X0179392Y0383057D01*
X0179545Y0382992D01*
X0179696Y0382923D01*
X0179845Y0382850D01*
X0179993Y0382773D01*
X0180138Y0382693D01*
X0180282Y0382609D01*
X0180424Y0382522D01*
X0180563Y0382432D01*
X0180700Y0382338D01*
X0180835Y0382240D01*
X0180967Y0382139D01*
X0181097Y0382036D01*
X0181224Y0381929D01*
X0181348Y0381818D01*
X0181470Y0381705D01*
X0181589Y0381589D01*
X0181705Y0381470D01*
X0181818Y0381348D01*
X0181929Y0381224D01*
X0182036Y0381097D01*
X0182139Y0380967D01*
X0182240Y0380835D01*
X0182338Y0380700D01*
X0182432Y0380563D01*
X0182522Y0380424D01*
X0182609Y0380282D01*
X0182693Y0380138D01*
X0182773Y0379993D01*
X0182850Y0379845D01*
X0182923Y0379696D01*
X0182992Y0379545D01*
X0183057Y0379392D01*
X0183119Y0379238D01*
X0183177Y0379082D01*
X0183231Y0378925D01*
X0183281Y0378766D01*
X0183328Y0378606D01*
X0183370Y0378446D01*
X0183408Y0378284D01*
X0183443Y0378121D01*
X0183473Y0377958D01*
X0183500Y0377794D01*
X0183522Y0377629D01*
X0183540Y0377464D01*
X0183555Y0377298D01*
X0183565Y0377132D01*
X0183571Y0376966D01*
X0183573Y0376800D01*
X0183571Y0376634D01*
X0183565Y0376468D01*
X0183555Y0376302D01*
X0183540Y0376136D01*
X0183522Y0375971D01*
X0183500Y0375806D01*
X0183473Y0375642D01*
X0183443Y0375479D01*
X0183408Y0375316D01*
X0183370Y0375154D01*
X0183328Y0374994D01*
X0183281Y0374834D01*
X0183231Y0374675D01*
X0183177Y0374518D01*
X0183119Y0374362D01*
X0183057Y0374208D01*
X0182992Y0374055D01*
X0182923Y0373904D01*
X0182850Y0373755D01*
X0182773Y0373607D01*
X0182693Y0373462D01*
X0182609Y0373318D01*
X0182522Y0373176D01*
X0182432Y0373037D01*
X0182338Y0372900D01*
X0182240Y0372765D01*
X0182139Y0372633D01*
X0182036Y0372503D01*
X0181929Y0372376D01*
X0181818Y0372252D01*
X0181705Y0372130D01*
X0181589Y0372011D01*
X0181470Y0371895D01*
X0181348Y0371782D01*
X0181224Y0371671D01*
X0181097Y0371564D01*
X0180967Y0371461D01*
X0180835Y0371360D01*
X0180700Y0371262D01*
X0180563Y0371168D01*
X0180424Y0371078D01*
X0180282Y0370991D01*
X0180138Y0370907D01*
X0179993Y0370827D01*
X0179845Y0370750D01*
X0179696Y0370677D01*
X0179545Y0370608D01*
X0179392Y0370543D01*
X0179238Y0370481D01*
X0179082Y0370423D01*
X0178925Y0370369D01*
X0178766Y0370319D01*
X0178606Y0370272D01*
X0178446Y0370230D01*
X0178284Y0370192D01*
X0178121Y0370157D01*
X0177958Y0370127D01*
X0177794Y0370100D01*
X0177629Y0370078D01*
X0177464Y0370060D01*
X0177298Y0370045D01*
X0177132Y0370035D01*
X0176966Y0370029D01*
X0176800Y0370027D01*
X0176634Y0370029D01*
X0176468Y0370035D01*
X0176302Y0370045D01*
X0176136Y0370060D01*
X0175971Y0370078D01*
X0175806Y0370100D01*
X0175642Y0370127D01*
X0175479Y0370157D01*
X0175316Y0370192D01*
X0175154Y0370230D01*
X0174994Y0370272D01*
X0174834Y0370319D01*
X0174675Y0370369D01*
X0174518Y0370423D01*
X0174362Y0370481D01*
X0174208Y0370543D01*
X0174055Y0370608D01*
X0173904Y0370677D01*
X0173755Y0370750D01*
X0173607Y0370827D01*
X0173462Y0370907D01*
X0173318Y0370991D01*
X0173176Y0371078D01*
X0173037Y0371168D01*
X0172900Y0371262D01*
X0172765Y0371360D01*
X0172633Y0371461D01*
X0172503Y0371564D01*
X0172376Y0371671D01*
X0172252Y0371782D01*
X0172130Y0371895D01*
X0172011Y0372011D01*
X0171895Y0372130D01*
X0171782Y0372252D01*
X0171671Y0372376D01*
X0171564Y0372503D01*
X0171461Y0372633D01*
X0171360Y0372765D01*
X0171262Y0372900D01*
X0171168Y0373037D01*
X0171078Y0373176D01*
X0170991Y0373318D01*
X0170907Y0373462D01*
X0170827Y0373607D01*
X0170750Y0373755D01*
X0170677Y0373904D01*
X0170608Y0374055D01*
X0170543Y0374208D01*
X0170481Y0374362D01*
X0170423Y0374518D01*
X0170369Y0374675D01*
X0170319Y0374834D01*
X0170272Y0374994D01*
X0170230Y0375154D01*
X0170192Y0375316D01*
X0170157Y0375479D01*
X0170127Y0375642D01*
X0170100Y0375806D01*
X0170078Y0375971D01*
X0170060Y0376136D01*
X0170045Y0376302D01*
X0170035Y0376468D01*
X0170029Y0376634D01*
X0170027Y0376800D01*
X0166957Y0383099D02*
X0166957Y0386643D01*
X0216957Y0336643D02*
X0216957Y0333099D01*
X0220501Y0336643D01*
X0221682Y0337824D01*
X0220107Y0339398D01*
X0216957Y0336643D01*
X0220501Y0336643D01*
X0236643Y0336643D01*
X0236643Y0316957D01*
X0216957Y0316957D01*
X0216957Y0333099D01*
X0220027Y0326800D02*
X0220029Y0326966D01*
X0220035Y0327132D01*
X0220045Y0327298D01*
X0220060Y0327464D01*
X0220078Y0327629D01*
X0220100Y0327794D01*
X0220127Y0327958D01*
X0220157Y0328121D01*
X0220192Y0328284D01*
X0220230Y0328446D01*
X0220272Y0328606D01*
X0220319Y0328766D01*
X0220369Y0328925D01*
X0220423Y0329082D01*
X0220481Y0329238D01*
X0220543Y0329392D01*
X0220608Y0329545D01*
X0220677Y0329696D01*
X0220750Y0329845D01*
X0220827Y0329993D01*
X0220907Y0330138D01*
X0220991Y0330282D01*
X0221078Y0330424D01*
X0221168Y0330563D01*
X0221262Y0330700D01*
X0221360Y0330835D01*
X0221461Y0330967D01*
X0221564Y0331097D01*
X0221671Y0331224D01*
X0221782Y0331348D01*
X0221895Y0331470D01*
X0222011Y0331589D01*
X0222130Y0331705D01*
X0222252Y0331818D01*
X0222376Y0331929D01*
X0222503Y0332036D01*
X0222633Y0332139D01*
X0222765Y0332240D01*
X0222900Y0332338D01*
X0223037Y0332432D01*
X0223176Y0332522D01*
X0223318Y0332609D01*
X0223462Y0332693D01*
X0223607Y0332773D01*
X0223755Y0332850D01*
X0223904Y0332923D01*
X0224055Y0332992D01*
X0224208Y0333057D01*
X0224362Y0333119D01*
X0224518Y0333177D01*
X0224675Y0333231D01*
X0224834Y0333281D01*
X0224994Y0333328D01*
X0225154Y0333370D01*
X0225316Y0333408D01*
X0225479Y0333443D01*
X0225642Y0333473D01*
X0225806Y0333500D01*
X0225971Y0333522D01*
X0226136Y0333540D01*
X0226302Y0333555D01*
X0226468Y0333565D01*
X0226634Y0333571D01*
X0226800Y0333573D01*
X0226966Y0333571D01*
X0227132Y0333565D01*
X0227298Y0333555D01*
X0227464Y0333540D01*
X0227629Y0333522D01*
X0227794Y0333500D01*
X0227958Y0333473D01*
X0228121Y0333443D01*
X0228284Y0333408D01*
X0228446Y0333370D01*
X0228606Y0333328D01*
X0228766Y0333281D01*
X0228925Y0333231D01*
X0229082Y0333177D01*
X0229238Y0333119D01*
X0229392Y0333057D01*
X0229545Y0332992D01*
X0229696Y0332923D01*
X0229845Y0332850D01*
X0229993Y0332773D01*
X0230138Y0332693D01*
X0230282Y0332609D01*
X0230424Y0332522D01*
X0230563Y0332432D01*
X0230700Y0332338D01*
X0230835Y0332240D01*
X0230967Y0332139D01*
X0231097Y0332036D01*
X0231224Y0331929D01*
X0231348Y0331818D01*
X0231470Y0331705D01*
X0231589Y0331589D01*
X0231705Y0331470D01*
X0231818Y0331348D01*
X0231929Y0331224D01*
X0232036Y0331097D01*
X0232139Y0330967D01*
X0232240Y0330835D01*
X0232338Y0330700D01*
X0232432Y0330563D01*
X0232522Y0330424D01*
X0232609Y0330282D01*
X0232693Y0330138D01*
X0232773Y0329993D01*
X0232850Y0329845D01*
X0232923Y0329696D01*
X0232992Y0329545D01*
X0233057Y0329392D01*
X0233119Y0329238D01*
X0233177Y0329082D01*
X0233231Y0328925D01*
X0233281Y0328766D01*
X0233328Y0328606D01*
X0233370Y0328446D01*
X0233408Y0328284D01*
X0233443Y0328121D01*
X0233473Y0327958D01*
X0233500Y0327794D01*
X0233522Y0327629D01*
X0233540Y0327464D01*
X0233555Y0327298D01*
X0233565Y0327132D01*
X0233571Y0326966D01*
X0233573Y0326800D01*
X0233571Y0326634D01*
X0233565Y0326468D01*
X0233555Y0326302D01*
X0233540Y0326136D01*
X0233522Y0325971D01*
X0233500Y0325806D01*
X0233473Y0325642D01*
X0233443Y0325479D01*
X0233408Y0325316D01*
X0233370Y0325154D01*
X0233328Y0324994D01*
X0233281Y0324834D01*
X0233231Y0324675D01*
X0233177Y0324518D01*
X0233119Y0324362D01*
X0233057Y0324208D01*
X0232992Y0324055D01*
X0232923Y0323904D01*
X0232850Y0323755D01*
X0232773Y0323607D01*
X0232693Y0323462D01*
X0232609Y0323318D01*
X0232522Y0323176D01*
X0232432Y0323037D01*
X0232338Y0322900D01*
X0232240Y0322765D01*
X0232139Y0322633D01*
X0232036Y0322503D01*
X0231929Y0322376D01*
X0231818Y0322252D01*
X0231705Y0322130D01*
X0231589Y0322011D01*
X0231470Y0321895D01*
X0231348Y0321782D01*
X0231224Y0321671D01*
X0231097Y0321564D01*
X0230967Y0321461D01*
X0230835Y0321360D01*
X0230700Y0321262D01*
X0230563Y0321168D01*
X0230424Y0321078D01*
X0230282Y0320991D01*
X0230138Y0320907D01*
X0229993Y0320827D01*
X0229845Y0320750D01*
X0229696Y0320677D01*
X0229545Y0320608D01*
X0229392Y0320543D01*
X0229238Y0320481D01*
X0229082Y0320423D01*
X0228925Y0320369D01*
X0228766Y0320319D01*
X0228606Y0320272D01*
X0228446Y0320230D01*
X0228284Y0320192D01*
X0228121Y0320157D01*
X0227958Y0320127D01*
X0227794Y0320100D01*
X0227629Y0320078D01*
X0227464Y0320060D01*
X0227298Y0320045D01*
X0227132Y0320035D01*
X0226966Y0320029D01*
X0226800Y0320027D01*
X0226634Y0320029D01*
X0226468Y0320035D01*
X0226302Y0320045D01*
X0226136Y0320060D01*
X0225971Y0320078D01*
X0225806Y0320100D01*
X0225642Y0320127D01*
X0225479Y0320157D01*
X0225316Y0320192D01*
X0225154Y0320230D01*
X0224994Y0320272D01*
X0224834Y0320319D01*
X0224675Y0320369D01*
X0224518Y0320423D01*
X0224362Y0320481D01*
X0224208Y0320543D01*
X0224055Y0320608D01*
X0223904Y0320677D01*
X0223755Y0320750D01*
X0223607Y0320827D01*
X0223462Y0320907D01*
X0223318Y0320991D01*
X0223176Y0321078D01*
X0223037Y0321168D01*
X0222900Y0321262D01*
X0222765Y0321360D01*
X0222633Y0321461D01*
X0222503Y0321564D01*
X0222376Y0321671D01*
X0222252Y0321782D01*
X0222130Y0321895D01*
X0222011Y0322011D01*
X0221895Y0322130D01*
X0221782Y0322252D01*
X0221671Y0322376D01*
X0221564Y0322503D01*
X0221461Y0322633D01*
X0221360Y0322765D01*
X0221262Y0322900D01*
X0221168Y0323037D01*
X0221078Y0323176D01*
X0220991Y0323318D01*
X0220907Y0323462D01*
X0220827Y0323607D01*
X0220750Y0323755D01*
X0220677Y0323904D01*
X0220608Y0324055D01*
X0220543Y0324208D01*
X0220481Y0324362D01*
X0220423Y0324518D01*
X0220369Y0324675D01*
X0220319Y0324834D01*
X0220272Y0324994D01*
X0220230Y0325154D01*
X0220192Y0325316D01*
X0220157Y0325479D01*
X0220127Y0325642D01*
X0220100Y0325806D01*
X0220078Y0325971D01*
X0220060Y0326136D01*
X0220045Y0326302D01*
X0220035Y0326468D01*
X0220029Y0326634D01*
X0220027Y0326800D01*
X0210107Y0239398D02*
X0206957Y0236643D01*
X0210501Y0236643D01*
X0211682Y0237824D01*
X0210107Y0239398D01*
X0210501Y0236643D02*
X0206957Y0233099D01*
X0206957Y0236643D01*
X0206957Y0233099D02*
X0206957Y0216957D01*
X0226643Y0216957D01*
X0226643Y0236643D01*
X0210501Y0236643D01*
X0210027Y0226800D02*
X0210029Y0226966D01*
X0210035Y0227132D01*
X0210045Y0227298D01*
X0210060Y0227464D01*
X0210078Y0227629D01*
X0210100Y0227794D01*
X0210127Y0227958D01*
X0210157Y0228121D01*
X0210192Y0228284D01*
X0210230Y0228446D01*
X0210272Y0228606D01*
X0210319Y0228766D01*
X0210369Y0228925D01*
X0210423Y0229082D01*
X0210481Y0229238D01*
X0210543Y0229392D01*
X0210608Y0229545D01*
X0210677Y0229696D01*
X0210750Y0229845D01*
X0210827Y0229993D01*
X0210907Y0230138D01*
X0210991Y0230282D01*
X0211078Y0230424D01*
X0211168Y0230563D01*
X0211262Y0230700D01*
X0211360Y0230835D01*
X0211461Y0230967D01*
X0211564Y0231097D01*
X0211671Y0231224D01*
X0211782Y0231348D01*
X0211895Y0231470D01*
X0212011Y0231589D01*
X0212130Y0231705D01*
X0212252Y0231818D01*
X0212376Y0231929D01*
X0212503Y0232036D01*
X0212633Y0232139D01*
X0212765Y0232240D01*
X0212900Y0232338D01*
X0213037Y0232432D01*
X0213176Y0232522D01*
X0213318Y0232609D01*
X0213462Y0232693D01*
X0213607Y0232773D01*
X0213755Y0232850D01*
X0213904Y0232923D01*
X0214055Y0232992D01*
X0214208Y0233057D01*
X0214362Y0233119D01*
X0214518Y0233177D01*
X0214675Y0233231D01*
X0214834Y0233281D01*
X0214994Y0233328D01*
X0215154Y0233370D01*
X0215316Y0233408D01*
X0215479Y0233443D01*
X0215642Y0233473D01*
X0215806Y0233500D01*
X0215971Y0233522D01*
X0216136Y0233540D01*
X0216302Y0233555D01*
X0216468Y0233565D01*
X0216634Y0233571D01*
X0216800Y0233573D01*
X0216966Y0233571D01*
X0217132Y0233565D01*
X0217298Y0233555D01*
X0217464Y0233540D01*
X0217629Y0233522D01*
X0217794Y0233500D01*
X0217958Y0233473D01*
X0218121Y0233443D01*
X0218284Y0233408D01*
X0218446Y0233370D01*
X0218606Y0233328D01*
X0218766Y0233281D01*
X0218925Y0233231D01*
X0219082Y0233177D01*
X0219238Y0233119D01*
X0219392Y0233057D01*
X0219545Y0232992D01*
X0219696Y0232923D01*
X0219845Y0232850D01*
X0219993Y0232773D01*
X0220138Y0232693D01*
X0220282Y0232609D01*
X0220424Y0232522D01*
X0220563Y0232432D01*
X0220700Y0232338D01*
X0220835Y0232240D01*
X0220967Y0232139D01*
X0221097Y0232036D01*
X0221224Y0231929D01*
X0221348Y0231818D01*
X0221470Y0231705D01*
X0221589Y0231589D01*
X0221705Y0231470D01*
X0221818Y0231348D01*
X0221929Y0231224D01*
X0222036Y0231097D01*
X0222139Y0230967D01*
X0222240Y0230835D01*
X0222338Y0230700D01*
X0222432Y0230563D01*
X0222522Y0230424D01*
X0222609Y0230282D01*
X0222693Y0230138D01*
X0222773Y0229993D01*
X0222850Y0229845D01*
X0222923Y0229696D01*
X0222992Y0229545D01*
X0223057Y0229392D01*
X0223119Y0229238D01*
X0223177Y0229082D01*
X0223231Y0228925D01*
X0223281Y0228766D01*
X0223328Y0228606D01*
X0223370Y0228446D01*
X0223408Y0228284D01*
X0223443Y0228121D01*
X0223473Y0227958D01*
X0223500Y0227794D01*
X0223522Y0227629D01*
X0223540Y0227464D01*
X0223555Y0227298D01*
X0223565Y0227132D01*
X0223571Y0226966D01*
X0223573Y0226800D01*
X0223571Y0226634D01*
X0223565Y0226468D01*
X0223555Y0226302D01*
X0223540Y0226136D01*
X0223522Y0225971D01*
X0223500Y0225806D01*
X0223473Y0225642D01*
X0223443Y0225479D01*
X0223408Y0225316D01*
X0223370Y0225154D01*
X0223328Y0224994D01*
X0223281Y0224834D01*
X0223231Y0224675D01*
X0223177Y0224518D01*
X0223119Y0224362D01*
X0223057Y0224208D01*
X0222992Y0224055D01*
X0222923Y0223904D01*
X0222850Y0223755D01*
X0222773Y0223607D01*
X0222693Y0223462D01*
X0222609Y0223318D01*
X0222522Y0223176D01*
X0222432Y0223037D01*
X0222338Y0222900D01*
X0222240Y0222765D01*
X0222139Y0222633D01*
X0222036Y0222503D01*
X0221929Y0222376D01*
X0221818Y0222252D01*
X0221705Y0222130D01*
X0221589Y0222011D01*
X0221470Y0221895D01*
X0221348Y0221782D01*
X0221224Y0221671D01*
X0221097Y0221564D01*
X0220967Y0221461D01*
X0220835Y0221360D01*
X0220700Y0221262D01*
X0220563Y0221168D01*
X0220424Y0221078D01*
X0220282Y0220991D01*
X0220138Y0220907D01*
X0219993Y0220827D01*
X0219845Y0220750D01*
X0219696Y0220677D01*
X0219545Y0220608D01*
X0219392Y0220543D01*
X0219238Y0220481D01*
X0219082Y0220423D01*
X0218925Y0220369D01*
X0218766Y0220319D01*
X0218606Y0220272D01*
X0218446Y0220230D01*
X0218284Y0220192D01*
X0218121Y0220157D01*
X0217958Y0220127D01*
X0217794Y0220100D01*
X0217629Y0220078D01*
X0217464Y0220060D01*
X0217298Y0220045D01*
X0217132Y0220035D01*
X0216966Y0220029D01*
X0216800Y0220027D01*
X0216634Y0220029D01*
X0216468Y0220035D01*
X0216302Y0220045D01*
X0216136Y0220060D01*
X0215971Y0220078D01*
X0215806Y0220100D01*
X0215642Y0220127D01*
X0215479Y0220157D01*
X0215316Y0220192D01*
X0215154Y0220230D01*
X0214994Y0220272D01*
X0214834Y0220319D01*
X0214675Y0220369D01*
X0214518Y0220423D01*
X0214362Y0220481D01*
X0214208Y0220543D01*
X0214055Y0220608D01*
X0213904Y0220677D01*
X0213755Y0220750D01*
X0213607Y0220827D01*
X0213462Y0220907D01*
X0213318Y0220991D01*
X0213176Y0221078D01*
X0213037Y0221168D01*
X0212900Y0221262D01*
X0212765Y0221360D01*
X0212633Y0221461D01*
X0212503Y0221564D01*
X0212376Y0221671D01*
X0212252Y0221782D01*
X0212130Y0221895D01*
X0212011Y0222011D01*
X0211895Y0222130D01*
X0211782Y0222252D01*
X0211671Y0222376D01*
X0211564Y0222503D01*
X0211461Y0222633D01*
X0211360Y0222765D01*
X0211262Y0222900D01*
X0211168Y0223037D01*
X0211078Y0223176D01*
X0210991Y0223318D01*
X0210907Y0223462D01*
X0210827Y0223607D01*
X0210750Y0223755D01*
X0210677Y0223904D01*
X0210608Y0224055D01*
X0210543Y0224208D01*
X0210481Y0224362D01*
X0210423Y0224518D01*
X0210369Y0224675D01*
X0210319Y0224834D01*
X0210272Y0224994D01*
X0210230Y0225154D01*
X0210192Y0225316D01*
X0210157Y0225479D01*
X0210127Y0225642D01*
X0210100Y0225806D01*
X0210078Y0225971D01*
X0210060Y0226136D01*
X0210045Y0226302D01*
X0210035Y0226468D01*
X0210029Y0226634D01*
X0210027Y0226800D01*
X0322999Y0383538D02*
X0323750Y0384289D01*
X0323750Y0385039D01*
X0322999Y0385790D01*
X0319246Y0385790D01*
X0319246Y0385039D02*
X0319246Y0386541D01*
X0319246Y0388142D02*
X0319246Y0390394D01*
X0319997Y0391145D01*
X0321498Y0391145D01*
X0322249Y0390394D01*
X0322249Y0388142D01*
X0323750Y0388142D02*
X0319246Y0388142D01*
X0319997Y0392746D02*
X0319246Y0393497D01*
X0319246Y0394998D01*
X0319997Y0395749D01*
X0320747Y0395749D01*
X0323750Y0392746D01*
X0323750Y0395749D01*
X0033750Y0395749D02*
X0033750Y0392746D01*
X0033750Y0394247D02*
X0029246Y0394247D01*
X0030747Y0392746D01*
X0029997Y0391145D02*
X0031498Y0391145D01*
X0032249Y0390394D01*
X0032249Y0388142D01*
X0033750Y0388142D02*
X0029246Y0388142D01*
X0029246Y0390394D01*
X0029997Y0391145D01*
X0029246Y0386541D02*
X0029246Y0385039D01*
X0029246Y0385790D02*
X0032999Y0385790D01*
X0033750Y0385039D01*
X0033750Y0384289D01*
X0032999Y0383538D01*
D24*
X0031303Y0139455D02*
X0028150Y0139455D01*
X0028150Y0133150D01*
X0031303Y0133150D01*
X0032354Y0134201D01*
X0032354Y0138404D01*
X0031303Y0139455D01*
X0034595Y0137354D02*
X0036697Y0139455D01*
X0036697Y0133150D01*
X0034595Y0133150D02*
X0038799Y0133150D01*
X0108150Y0133150D02*
X0111303Y0133150D01*
X0112354Y0134201D01*
X0112354Y0138404D01*
X0111303Y0139455D01*
X0108150Y0139455D01*
X0108150Y0133150D01*
X0114595Y0133150D02*
X0118799Y0137354D01*
X0118799Y0138404D01*
X0117748Y0139455D01*
X0115646Y0139455D01*
X0114595Y0138404D01*
X0114595Y0133150D02*
X0118799Y0133150D01*
X0188150Y0133150D02*
X0191303Y0133150D01*
X0192354Y0134201D01*
X0192354Y0138404D01*
X0191303Y0139455D01*
X0188150Y0139455D01*
X0188150Y0133150D01*
X0194595Y0134201D02*
X0195646Y0133150D01*
X0197748Y0133150D01*
X0198799Y0134201D01*
X0198799Y0135252D01*
X0197748Y0136303D01*
X0196697Y0136303D01*
X0197748Y0136303D02*
X0198799Y0137354D01*
X0198799Y0138404D01*
X0197748Y0139455D01*
X0195646Y0139455D01*
X0194595Y0138404D01*
X0268150Y0139455D02*
X0268150Y0133150D01*
X0271303Y0133150D01*
X0272354Y0134201D01*
X0272354Y0138404D01*
X0271303Y0139455D01*
X0268150Y0139455D01*
X0274595Y0136303D02*
X0278799Y0136303D01*
X0277748Y0139455D02*
X0277748Y0133150D01*
X0274595Y0136303D02*
X0277748Y0139455D01*
D25*
X0233600Y0221414D02*
X0230698Y0221414D01*
X0233600Y0221414D02*
X0233600Y0223349D01*
X0233600Y0224360D02*
X0233600Y0226295D01*
X0233600Y0227307D02*
X0233600Y0228758D01*
X0233116Y0229242D01*
X0231181Y0229242D01*
X0230698Y0228758D01*
X0230698Y0227307D01*
X0233600Y0227307D01*
X0232149Y0225328D02*
X0232149Y0224360D01*
X0230698Y0224360D02*
X0233600Y0224360D01*
X0230698Y0224360D02*
X0230698Y0226295D01*
X0231181Y0230253D02*
X0230698Y0230737D01*
X0230698Y0231705D01*
X0231181Y0232188D01*
X0231665Y0232188D01*
X0232149Y0231705D01*
X0232633Y0232188D01*
X0233116Y0232188D01*
X0233600Y0231705D01*
X0233600Y0230737D01*
X0233116Y0230253D01*
X0232149Y0231221D02*
X0232149Y0231705D01*
X0183600Y0271414D02*
X0183600Y0273349D01*
X0183600Y0274360D02*
X0180698Y0274360D01*
X0180698Y0276295D01*
X0180698Y0277307D02*
X0180698Y0278758D01*
X0181181Y0279242D01*
X0183116Y0279242D01*
X0183600Y0278758D01*
X0183600Y0277307D01*
X0180698Y0277307D01*
X0182149Y0275328D02*
X0182149Y0274360D01*
X0183600Y0274360D02*
X0183600Y0276295D01*
X0183600Y0280253D02*
X0183116Y0280253D01*
X0181181Y0282188D01*
X0180698Y0282188D01*
X0180698Y0280253D01*
X0180698Y0271414D02*
X0183600Y0271414D01*
X0133600Y0321414D02*
X0133600Y0323349D01*
X0133600Y0324360D02*
X0133600Y0326295D01*
X0133600Y0327307D02*
X0130698Y0327307D01*
X0130698Y0328758D01*
X0131181Y0329242D01*
X0133116Y0329242D01*
X0133600Y0328758D01*
X0133600Y0327307D01*
X0132149Y0325328D02*
X0132149Y0324360D01*
X0130698Y0324360D02*
X0133600Y0324360D01*
X0130698Y0324360D02*
X0130698Y0326295D01*
X0132149Y0330253D02*
X0132149Y0331705D01*
X0132633Y0332188D01*
X0133116Y0332188D01*
X0133600Y0331705D01*
X0133600Y0330737D01*
X0133116Y0330253D01*
X0132149Y0330253D01*
X0131181Y0331221D01*
X0130698Y0332188D01*
X0130698Y0321414D02*
X0133600Y0321414D01*
X0190698Y0371414D02*
X0193600Y0371414D01*
X0193600Y0373349D01*
X0193600Y0374360D02*
X0193600Y0376295D01*
X0193600Y0377307D02*
X0193600Y0378758D01*
X0193116Y0379242D01*
X0191181Y0379242D01*
X0190698Y0378758D01*
X0190698Y0377307D01*
X0193600Y0377307D01*
X0192149Y0375328D02*
X0192149Y0374360D01*
X0190698Y0374360D02*
X0193600Y0374360D01*
X0190698Y0374360D02*
X0190698Y0376295D01*
X0191665Y0380253D02*
X0190698Y0381221D01*
X0193600Y0381221D01*
X0193600Y0382188D02*
X0193600Y0380253D01*
X0241181Y0332188D02*
X0240698Y0331705D01*
X0240698Y0330737D01*
X0241181Y0330253D01*
X0241181Y0329242D02*
X0240698Y0328758D01*
X0240698Y0327307D01*
X0243600Y0327307D01*
X0243600Y0328758D01*
X0243116Y0329242D01*
X0241181Y0329242D01*
X0243600Y0330253D02*
X0241665Y0332188D01*
X0241181Y0332188D01*
X0243600Y0332188D02*
X0243600Y0330253D01*
X0243600Y0326295D02*
X0243600Y0324360D01*
X0240698Y0324360D01*
X0240698Y0326295D01*
X0242149Y0325328D02*
X0242149Y0324360D01*
X0243600Y0323349D02*
X0243600Y0321414D01*
X0240698Y0321414D01*
X0173600Y0181705D02*
X0170698Y0181705D01*
X0172149Y0180253D01*
X0172149Y0182188D01*
X0173116Y0179242D02*
X0171181Y0179242D01*
X0170698Y0178758D01*
X0170698Y0177307D01*
X0173600Y0177307D01*
X0173600Y0178758D01*
X0173116Y0179242D01*
X0173600Y0176295D02*
X0173600Y0174360D01*
X0170698Y0174360D01*
X0170698Y0176295D01*
X0172149Y0175328D02*
X0172149Y0174360D01*
X0173600Y0173349D02*
X0173600Y0171414D01*
X0170698Y0171414D01*
X0123600Y0221414D02*
X0123600Y0223349D01*
X0123600Y0224360D02*
X0123600Y0226295D01*
X0123600Y0227307D02*
X0123600Y0228758D01*
X0123116Y0229242D01*
X0121181Y0229242D01*
X0120698Y0228758D01*
X0120698Y0227307D01*
X0123600Y0227307D01*
X0122149Y0225328D02*
X0122149Y0224360D01*
X0120698Y0224360D02*
X0123600Y0224360D01*
X0120698Y0224360D02*
X0120698Y0226295D01*
X0120698Y0230253D02*
X0122149Y0230253D01*
X0121665Y0231221D01*
X0121665Y0231705D01*
X0122149Y0232188D01*
X0123116Y0232188D01*
X0123600Y0231705D01*
X0123600Y0230737D01*
X0123116Y0230253D01*
X0120698Y0230253D02*
X0120698Y0232188D01*
X0120698Y0221414D02*
X0123600Y0221414D01*
D26*
X0109698Y0237000D02*
X0110465Y0237767D01*
X0110465Y0240837D01*
X0109698Y0241604D01*
X0108163Y0241604D01*
X0107396Y0240837D01*
X0107396Y0240069D01*
X0108163Y0239302D01*
X0110465Y0239302D01*
X0109698Y0237000D02*
X0108163Y0237000D01*
X0107396Y0237767D01*
X0105861Y0237767D02*
X0105094Y0237000D01*
X0103559Y0237000D01*
X0102792Y0237767D01*
X0102792Y0240837D01*
X0103559Y0241604D01*
X0105094Y0241604D01*
X0105861Y0240837D01*
X0171996Y0178906D02*
X0172763Y0179673D01*
X0173531Y0179673D01*
X0174298Y0178906D01*
X0174298Y0177371D01*
X0173531Y0176604D01*
X0172763Y0176604D01*
X0171996Y0177371D01*
X0171996Y0178906D01*
X0174298Y0178906D02*
X0175065Y0179673D01*
X0175833Y0179673D01*
X0176600Y0178906D01*
X0176600Y0177371D01*
X0175833Y0176604D01*
X0175065Y0176604D01*
X0174298Y0177371D01*
X0172763Y0175069D02*
X0171996Y0174302D01*
X0171996Y0172767D01*
X0172763Y0172000D01*
X0175833Y0172000D01*
X0176600Y0172767D01*
X0176600Y0174302D01*
X0175833Y0175069D01*
X0213559Y0237000D02*
X0212792Y0237767D01*
X0212792Y0240837D01*
X0213559Y0241604D01*
X0215094Y0241604D01*
X0215861Y0240837D01*
X0217396Y0239302D02*
X0219698Y0239302D01*
X0220465Y0238535D01*
X0220465Y0237767D01*
X0219698Y0237000D01*
X0218163Y0237000D01*
X0217396Y0237767D01*
X0217396Y0239302D01*
X0218931Y0240837D01*
X0220465Y0241604D01*
X0215861Y0237767D02*
X0215094Y0237000D01*
X0213559Y0237000D01*
X0185833Y0272000D02*
X0186600Y0272767D01*
X0186600Y0274302D01*
X0185833Y0275069D01*
X0186600Y0276604D02*
X0186600Y0279673D01*
X0186600Y0278139D02*
X0181996Y0278139D01*
X0183531Y0276604D01*
X0182763Y0275069D02*
X0181996Y0274302D01*
X0181996Y0272767D01*
X0182763Y0272000D01*
X0185833Y0272000D01*
X0185833Y0281208D02*
X0182763Y0281208D01*
X0181996Y0281975D01*
X0181996Y0283510D01*
X0182763Y0284277D01*
X0185833Y0281208D01*
X0186600Y0281975D01*
X0186600Y0283510D01*
X0185833Y0284277D01*
X0182763Y0284277D01*
X0223559Y0337000D02*
X0222792Y0337767D01*
X0222792Y0340837D01*
X0223559Y0341604D01*
X0225094Y0341604D01*
X0225861Y0340837D01*
X0227396Y0341604D02*
X0227396Y0339302D01*
X0228931Y0340069D01*
X0229698Y0340069D01*
X0230465Y0339302D01*
X0230465Y0337767D01*
X0229698Y0337000D01*
X0228163Y0337000D01*
X0227396Y0337767D01*
X0225861Y0337767D02*
X0225094Y0337000D01*
X0223559Y0337000D01*
X0227396Y0341604D02*
X0230465Y0341604D01*
X0196600Y0372767D02*
X0196600Y0374302D01*
X0195833Y0375069D01*
X0195833Y0376604D02*
X0192763Y0379673D01*
X0191996Y0379673D01*
X0191996Y0376604D01*
X0192763Y0375069D02*
X0191996Y0374302D01*
X0191996Y0372767D01*
X0192763Y0372000D01*
X0195833Y0372000D01*
X0196600Y0372767D01*
X0196600Y0376604D02*
X0195833Y0376604D01*
X0120465Y0337000D02*
X0117396Y0337000D01*
X0115861Y0337000D02*
X0112792Y0337000D01*
X0114327Y0337000D02*
X0114327Y0341604D01*
X0112792Y0340069D01*
X0111257Y0340837D02*
X0110490Y0341604D01*
X0108956Y0341604D01*
X0108188Y0340837D01*
X0108188Y0337767D01*
X0108956Y0337000D01*
X0110490Y0337000D01*
X0111257Y0337767D01*
X0117396Y0340069D02*
X0118931Y0341604D01*
X0118931Y0337000D01*
M02*
