G75*
%MOIN*%
%OFA0B0*%
%FSLAX25Y25*%
%IPPOS*%
%LPD*%
%AMOC8*
5,1,8,0,0,1.08239X$1,22.5*
%
%ADD10C,0.06000*%
%ADD11C,0.07600*%
%ADD12R,0.05937X0.05937*%
%ADD13C,0.05937*%
%ADD14C,0.01200*%
%ADD15C,0.03962*%
%ADD16C,0.01000*%
%ADD17C,0.04000*%
D10*
X0134470Y0198750D02*
X0140470Y0198750D01*
X0140470Y0208750D02*
X0134470Y0208750D01*
X0134470Y0218750D02*
X0140470Y0218750D01*
X0140470Y0228750D02*
X0134470Y0228750D01*
X0134470Y0238750D02*
X0140470Y0238750D01*
X0140470Y0248750D02*
X0134470Y0248750D01*
X0134470Y0258750D02*
X0140470Y0258750D01*
X0140470Y0268750D02*
X0134470Y0268750D01*
X0134470Y0278750D02*
X0140470Y0278750D01*
X0140470Y0288750D02*
X0134470Y0288750D01*
X0134470Y0298750D02*
X0140470Y0298750D01*
X0140470Y0308750D02*
X0134470Y0308750D01*
X0134470Y0318750D02*
X0140470Y0318750D01*
X0369470Y0318750D02*
X0375470Y0318750D01*
X0375470Y0308750D02*
X0369470Y0308750D01*
X0369470Y0298750D02*
X0375470Y0298750D01*
X0375470Y0288750D02*
X0369470Y0288750D01*
X0369470Y0278750D02*
X0375470Y0278750D01*
X0375470Y0268750D02*
X0369470Y0268750D01*
X0369470Y0258750D02*
X0375470Y0258750D01*
X0375470Y0248750D02*
X0369470Y0248750D01*
X0369470Y0238750D02*
X0375470Y0238750D01*
X0375470Y0228750D02*
X0369470Y0228750D01*
X0369470Y0218750D02*
X0375470Y0218750D01*
X0375470Y0208750D02*
X0369470Y0208750D01*
X0369470Y0198750D02*
X0375470Y0198750D01*
D11*
X0277470Y0161250D03*
X0277470Y0151250D03*
X0277470Y0141250D03*
X0277470Y0131250D03*
X0277470Y0121250D03*
X0277470Y0111250D03*
X0277470Y0101250D03*
X0277470Y0091250D03*
X0232470Y0091250D03*
X0232470Y0101250D03*
X0232470Y0111250D03*
X0232470Y0121250D03*
X0232470Y0131250D03*
X0232470Y0141250D03*
X0232470Y0151250D03*
X0232470Y0161250D03*
X0232470Y0356250D03*
X0232470Y0366250D03*
X0232470Y0376250D03*
X0232470Y0386250D03*
X0232470Y0396250D03*
X0232470Y0406250D03*
X0232470Y0416250D03*
X0232470Y0426250D03*
X0277470Y0426250D03*
X0277470Y0416250D03*
X0277470Y0406250D03*
X0277470Y0396250D03*
X0277470Y0386250D03*
X0277470Y0376250D03*
X0277470Y0366250D03*
X0277470Y0356250D03*
D12*
X0358652Y0371250D03*
X0188337Y0371250D03*
X0152470Y0146250D03*
X0322470Y0146250D03*
D13*
X0332470Y0146250D03*
X0342470Y0146250D03*
X0352470Y0146250D03*
X0182470Y0146250D03*
X0172470Y0146250D03*
X0162470Y0146250D03*
X0158337Y0371250D03*
X0168337Y0371250D03*
X0178337Y0371250D03*
X0328652Y0371250D03*
X0338652Y0371250D03*
X0348652Y0371250D03*
D14*
X0122070Y0417952D02*
X0122070Y0099548D01*
X0122314Y0100457D01*
X0123749Y0102942D01*
X0125778Y0104972D01*
X0128264Y0106406D01*
X0131036Y0107149D01*
X0133905Y0107149D01*
X0136677Y0106406D01*
X0139163Y0104972D01*
X0141192Y0102942D01*
X0142627Y0100457D01*
X0143370Y0097685D01*
X0143370Y0094815D01*
X0142627Y0092043D01*
X0141192Y0089558D01*
X0139163Y0087528D01*
X0136677Y0086094D01*
X0134593Y0085535D01*
X0250666Y0085535D01*
X0250666Y0430981D01*
X0234638Y0430981D01*
X0235416Y0430658D01*
X0236879Y0429196D01*
X0237670Y0427284D01*
X0237670Y0425216D01*
X0236879Y0423304D01*
X0235416Y0421842D01*
X0233988Y0421250D01*
X0235416Y0420658D01*
X0236879Y0419196D01*
X0237670Y0417284D01*
X0237670Y0415216D01*
X0236879Y0413304D01*
X0235416Y0411842D01*
X0234238Y0411354D01*
X0234543Y0411254D01*
X0235301Y0410868D01*
X0235988Y0410369D01*
X0236589Y0409768D01*
X0237089Y0409080D01*
X0237475Y0408323D01*
X0237737Y0407515D01*
X0237870Y0406675D01*
X0237870Y0406634D01*
X0232855Y0406634D01*
X0232855Y0405866D01*
X0237870Y0405866D01*
X0237870Y0405825D01*
X0237737Y0404985D01*
X0237475Y0404177D01*
X0237089Y0403420D01*
X0236589Y0402732D01*
X0235988Y0402131D01*
X0235301Y0401632D01*
X0234543Y0401246D01*
X0234238Y0401146D01*
X0235416Y0400658D01*
X0236879Y0399196D01*
X0237670Y0397284D01*
X0237670Y0395216D01*
X0236879Y0393304D01*
X0235416Y0391842D01*
X0233988Y0391250D01*
X0235416Y0390658D01*
X0236879Y0389196D01*
X0237670Y0387284D01*
X0237670Y0385216D01*
X0236879Y0383304D01*
X0235416Y0381842D01*
X0233988Y0381250D01*
X0235416Y0380658D01*
X0236879Y0379196D01*
X0237670Y0377284D01*
X0237670Y0375216D01*
X0236879Y0373304D01*
X0235416Y0371842D01*
X0233988Y0371250D01*
X0235416Y0370658D01*
X0236879Y0369196D01*
X0237670Y0367284D01*
X0237670Y0365216D01*
X0236879Y0363304D01*
X0235416Y0361842D01*
X0233988Y0361250D01*
X0235416Y0360658D01*
X0236879Y0359196D01*
X0237670Y0357284D01*
X0237670Y0355216D01*
X0236879Y0353304D01*
X0235416Y0351842D01*
X0233505Y0351050D01*
X0231436Y0351050D01*
X0229525Y0351842D01*
X0228062Y0353304D01*
X0227270Y0355216D01*
X0227270Y0357284D01*
X0228062Y0359196D01*
X0229525Y0360658D01*
X0230953Y0361250D01*
X0229525Y0361842D01*
X0228062Y0363304D01*
X0227270Y0365216D01*
X0227270Y0367284D01*
X0228062Y0369196D01*
X0229525Y0370658D01*
X0230953Y0371250D01*
X0229525Y0371842D01*
X0228062Y0373304D01*
X0227270Y0375216D01*
X0227270Y0377284D01*
X0228062Y0379196D01*
X0229525Y0380658D01*
X0230953Y0381250D01*
X0229525Y0381842D01*
X0228062Y0383304D01*
X0227989Y0383481D01*
X0195870Y0351363D01*
X0195870Y0308243D01*
X0195896Y0308232D01*
X0196853Y0307276D01*
X0197370Y0306026D01*
X0197370Y0304674D01*
X0196853Y0303424D01*
X0195896Y0302468D01*
X0194647Y0301950D01*
X0193294Y0301950D01*
X0192045Y0302468D01*
X0191088Y0303424D01*
X0190570Y0304674D01*
X0190570Y0306026D01*
X0191088Y0307276D01*
X0192045Y0308232D01*
X0192070Y0308243D01*
X0192070Y0352937D01*
X0225370Y0386237D01*
X0226483Y0387350D01*
X0227298Y0387350D01*
X0228062Y0389196D01*
X0229525Y0390658D01*
X0230953Y0391250D01*
X0229525Y0391842D01*
X0228062Y0393304D01*
X0227270Y0395216D01*
X0227270Y0397284D01*
X0228062Y0399196D01*
X0229525Y0400658D01*
X0230703Y0401146D01*
X0230398Y0401246D01*
X0229640Y0401632D01*
X0228953Y0402131D01*
X0228352Y0402732D01*
X0227852Y0403420D01*
X0227466Y0404177D01*
X0227203Y0404985D01*
X0227070Y0405825D01*
X0227070Y0405866D01*
X0232086Y0405866D01*
X0232086Y0406634D01*
X0227070Y0406634D01*
X0227070Y0406675D01*
X0227203Y0407515D01*
X0227466Y0408323D01*
X0227852Y0409080D01*
X0228352Y0409768D01*
X0228953Y0410369D01*
X0229640Y0410868D01*
X0230398Y0411254D01*
X0230703Y0411354D01*
X0229525Y0411842D01*
X0228062Y0413304D01*
X0227270Y0415216D01*
X0227270Y0417284D01*
X0228062Y0419196D01*
X0229525Y0420658D01*
X0230953Y0421250D01*
X0229525Y0421842D01*
X0228062Y0423304D01*
X0227270Y0425216D01*
X0227270Y0427284D01*
X0228062Y0429196D01*
X0229525Y0430658D01*
X0230303Y0430981D01*
X0137415Y0430981D01*
X0139163Y0429972D01*
X0141192Y0427942D01*
X0142627Y0425457D01*
X0143370Y0422685D01*
X0143370Y0419815D01*
X0142627Y0417043D01*
X0141192Y0414558D01*
X0139163Y0412528D01*
X0136677Y0411094D01*
X0133905Y0410351D01*
X0131036Y0410351D01*
X0128264Y0411094D01*
X0125778Y0412528D01*
X0123749Y0414558D01*
X0122314Y0417043D01*
X0122070Y0417952D01*
X0122070Y0416833D02*
X0122435Y0416833D01*
X0122070Y0415635D02*
X0123127Y0415635D01*
X0123871Y0414436D02*
X0122070Y0414436D01*
X0122070Y0413238D02*
X0125069Y0413238D01*
X0126626Y0412039D02*
X0122070Y0412039D01*
X0122070Y0410841D02*
X0129208Y0410841D01*
X0135733Y0410841D02*
X0229602Y0410841D01*
X0229327Y0412039D02*
X0138315Y0412039D01*
X0139872Y0413238D02*
X0228129Y0413238D01*
X0227593Y0414436D02*
X0141070Y0414436D01*
X0141814Y0415635D02*
X0227270Y0415635D01*
X0227270Y0416833D02*
X0142506Y0416833D01*
X0142892Y0418032D02*
X0227580Y0418032D01*
X0228097Y0419230D02*
X0143213Y0419230D01*
X0143370Y0420429D02*
X0229295Y0420429D01*
X0230043Y0421627D02*
X0143370Y0421627D01*
X0143332Y0422826D02*
X0228541Y0422826D01*
X0227764Y0424024D02*
X0143011Y0424024D01*
X0142690Y0425223D02*
X0227270Y0425223D01*
X0227270Y0426421D02*
X0142070Y0426421D01*
X0141378Y0427620D02*
X0227409Y0427620D01*
X0227906Y0428818D02*
X0140316Y0428818D01*
X0139084Y0430017D02*
X0228883Y0430017D01*
X0236058Y0430017D02*
X0250666Y0430017D01*
X0250666Y0428818D02*
X0237035Y0428818D01*
X0237532Y0427620D02*
X0250666Y0427620D01*
X0250666Y0426421D02*
X0237670Y0426421D01*
X0237670Y0425223D02*
X0250666Y0425223D01*
X0250666Y0424024D02*
X0237177Y0424024D01*
X0236400Y0422826D02*
X0250666Y0422826D01*
X0250666Y0421627D02*
X0234898Y0421627D01*
X0235646Y0420429D02*
X0250666Y0420429D01*
X0250666Y0419230D02*
X0236844Y0419230D01*
X0237361Y0418032D02*
X0250666Y0418032D01*
X0250666Y0416833D02*
X0237670Y0416833D01*
X0237670Y0415635D02*
X0250666Y0415635D01*
X0250666Y0414436D02*
X0237348Y0414436D01*
X0236812Y0413238D02*
X0250666Y0413238D01*
X0250666Y0412039D02*
X0235614Y0412039D01*
X0235339Y0410841D02*
X0250666Y0410841D01*
X0250666Y0409642D02*
X0236681Y0409642D01*
X0237413Y0408444D02*
X0250666Y0408444D01*
X0250666Y0407245D02*
X0237780Y0407245D01*
X0237693Y0404848D02*
X0250666Y0404848D01*
X0250666Y0403650D02*
X0237206Y0403650D01*
X0236308Y0402451D02*
X0250666Y0402451D01*
X0250666Y0401253D02*
X0234557Y0401253D01*
X0236020Y0400054D02*
X0250666Y0400054D01*
X0250666Y0398855D02*
X0237020Y0398855D01*
X0237516Y0397657D02*
X0250666Y0397657D01*
X0250666Y0396458D02*
X0237670Y0396458D01*
X0237670Y0395260D02*
X0250666Y0395260D01*
X0250666Y0394061D02*
X0237192Y0394061D01*
X0236437Y0392863D02*
X0250666Y0392863D01*
X0250666Y0391664D02*
X0234988Y0391664D01*
X0235608Y0390466D02*
X0250666Y0390466D01*
X0250666Y0389267D02*
X0236807Y0389267D01*
X0237345Y0388069D02*
X0250666Y0388069D01*
X0250666Y0386870D02*
X0237670Y0386870D01*
X0237670Y0385672D02*
X0250666Y0385672D01*
X0250666Y0384473D02*
X0237363Y0384473D01*
X0236849Y0383275D02*
X0250666Y0383275D01*
X0250666Y0382076D02*
X0235651Y0382076D01*
X0234886Y0380878D02*
X0250666Y0380878D01*
X0250666Y0379679D02*
X0236395Y0379679D01*
X0237175Y0378481D02*
X0250666Y0378481D01*
X0250666Y0377282D02*
X0237670Y0377282D01*
X0237670Y0376084D02*
X0250666Y0376084D01*
X0250666Y0374885D02*
X0237534Y0374885D01*
X0237037Y0373687D02*
X0250666Y0373687D01*
X0250666Y0372488D02*
X0236063Y0372488D01*
X0234084Y0371290D02*
X0250666Y0371290D01*
X0250666Y0370091D02*
X0235983Y0370091D01*
X0237004Y0368893D02*
X0250666Y0368893D01*
X0250666Y0367694D02*
X0237501Y0367694D01*
X0237670Y0366496D02*
X0250666Y0366496D01*
X0250666Y0365297D02*
X0237670Y0365297D01*
X0237208Y0364099D02*
X0250666Y0364099D01*
X0250666Y0362900D02*
X0236475Y0362900D01*
X0235078Y0361702D02*
X0250666Y0361702D01*
X0250666Y0360503D02*
X0235571Y0360503D01*
X0236770Y0359305D02*
X0250666Y0359305D01*
X0250666Y0358106D02*
X0237330Y0358106D01*
X0237670Y0356908D02*
X0250666Y0356908D01*
X0250666Y0355709D02*
X0237670Y0355709D01*
X0237378Y0354511D02*
X0250666Y0354511D01*
X0250666Y0353312D02*
X0236882Y0353312D01*
X0235688Y0352114D02*
X0250666Y0352114D01*
X0250666Y0350915D02*
X0195870Y0350915D01*
X0195870Y0349717D02*
X0250666Y0349717D01*
X0250666Y0348518D02*
X0195870Y0348518D01*
X0195870Y0347320D02*
X0250666Y0347320D01*
X0250666Y0346121D02*
X0237172Y0346121D01*
X0236677Y0346406D02*
X0233905Y0347149D01*
X0231036Y0347149D01*
X0228264Y0346406D01*
X0225778Y0344972D01*
X0223749Y0342942D01*
X0222314Y0340457D01*
X0221571Y0337685D01*
X0221571Y0334815D01*
X0222314Y0332043D01*
X0223749Y0329558D01*
X0225778Y0327528D01*
X0228264Y0326094D01*
X0231036Y0325351D01*
X0233905Y0325351D01*
X0236677Y0326094D01*
X0239163Y0327528D01*
X0241192Y0329558D01*
X0242627Y0332043D01*
X0243370Y0334815D01*
X0243370Y0337685D01*
X0242627Y0340457D01*
X0241192Y0342942D01*
X0239163Y0344972D01*
X0236677Y0346406D01*
X0239212Y0344922D02*
X0250666Y0344922D01*
X0250666Y0343724D02*
X0240410Y0343724D01*
X0241433Y0342525D02*
X0250666Y0342525D01*
X0250666Y0341327D02*
X0242125Y0341327D01*
X0242715Y0340128D02*
X0250666Y0340128D01*
X0250666Y0338930D02*
X0243036Y0338930D01*
X0243357Y0337731D02*
X0250666Y0337731D01*
X0250666Y0336533D02*
X0243370Y0336533D01*
X0243370Y0335334D02*
X0250666Y0335334D01*
X0250666Y0334136D02*
X0243188Y0334136D01*
X0242867Y0332937D02*
X0250666Y0332937D01*
X0250666Y0331739D02*
X0242451Y0331739D01*
X0241759Y0330540D02*
X0250666Y0330540D01*
X0250666Y0329342D02*
X0240976Y0329342D01*
X0239778Y0328143D02*
X0250666Y0328143D01*
X0250666Y0326945D02*
X0238152Y0326945D01*
X0235381Y0325746D02*
X0250666Y0325746D01*
X0250666Y0324548D02*
X0195870Y0324548D01*
X0195870Y0325746D02*
X0229559Y0325746D01*
X0226789Y0326945D02*
X0195870Y0326945D01*
X0195870Y0328143D02*
X0225163Y0328143D01*
X0223965Y0329342D02*
X0195870Y0329342D01*
X0195870Y0330540D02*
X0223182Y0330540D01*
X0222490Y0331739D02*
X0195870Y0331739D01*
X0195870Y0332937D02*
X0222074Y0332937D01*
X0221753Y0334136D02*
X0195870Y0334136D01*
X0195870Y0335334D02*
X0221571Y0335334D01*
X0221571Y0336533D02*
X0195870Y0336533D01*
X0195870Y0337731D02*
X0221584Y0337731D01*
X0221905Y0338930D02*
X0195870Y0338930D01*
X0195870Y0340128D02*
X0222226Y0340128D01*
X0222816Y0341327D02*
X0195870Y0341327D01*
X0195870Y0342525D02*
X0223508Y0342525D01*
X0224531Y0343724D02*
X0195870Y0343724D01*
X0195870Y0344922D02*
X0225729Y0344922D01*
X0227769Y0346121D02*
X0195870Y0346121D01*
X0192070Y0346121D02*
X0156428Y0346121D01*
X0155230Y0344922D02*
X0192070Y0344922D01*
X0192070Y0343724D02*
X0154031Y0343724D01*
X0152833Y0342525D02*
X0192070Y0342525D01*
X0192070Y0341327D02*
X0151634Y0341327D01*
X0150436Y0340128D02*
X0192070Y0340128D01*
X0192070Y0338930D02*
X0149237Y0338930D01*
X0148039Y0337731D02*
X0192070Y0337731D01*
X0192070Y0336533D02*
X0146840Y0336533D01*
X0145642Y0335334D02*
X0192070Y0335334D01*
X0192070Y0334136D02*
X0144443Y0334136D01*
X0143245Y0332937D02*
X0192070Y0332937D01*
X0192070Y0331739D02*
X0142046Y0331739D01*
X0140970Y0330663D02*
X0177271Y0366963D01*
X0177468Y0366881D01*
X0179206Y0366881D01*
X0180811Y0367547D01*
X0182040Y0368775D01*
X0182705Y0370381D01*
X0182705Y0372119D01*
X0182040Y0373725D01*
X0180811Y0374953D01*
X0179206Y0375618D01*
X0177468Y0375618D01*
X0175862Y0374953D01*
X0174633Y0373725D01*
X0173968Y0372119D01*
X0173968Y0370381D01*
X0174362Y0369429D01*
X0138283Y0333350D01*
X0137170Y0332237D01*
X0137170Y0323150D01*
X0133595Y0323150D01*
X0131978Y0322480D01*
X0130740Y0321242D01*
X0130070Y0319625D01*
X0130070Y0317875D01*
X0130740Y0316258D01*
X0131978Y0315020D01*
X0133595Y0314350D01*
X0141346Y0314350D01*
X0142292Y0314742D01*
X0148281Y0308752D01*
X0148270Y0308726D01*
X0148270Y0307374D01*
X0148788Y0306124D01*
X0149745Y0305168D01*
X0150994Y0304650D01*
X0152347Y0304650D01*
X0153596Y0305168D01*
X0154553Y0306124D01*
X0155070Y0307374D01*
X0155070Y0308726D01*
X0154553Y0309976D01*
X0153596Y0310932D01*
X0152347Y0311450D01*
X0150994Y0311450D01*
X0150968Y0311439D01*
X0144772Y0317636D01*
X0144870Y0317875D01*
X0144870Y0319625D01*
X0144201Y0321242D01*
X0142963Y0322480D01*
X0141346Y0323150D01*
X0140970Y0323150D01*
X0140970Y0330663D01*
X0140970Y0330540D02*
X0192070Y0330540D01*
X0192070Y0329342D02*
X0140970Y0329342D01*
X0140970Y0328143D02*
X0192070Y0328143D01*
X0192070Y0326945D02*
X0140970Y0326945D01*
X0140970Y0325746D02*
X0192070Y0325746D01*
X0192070Y0324548D02*
X0140970Y0324548D01*
X0140970Y0323349D02*
X0192070Y0323349D01*
X0192070Y0322151D02*
X0143292Y0322151D01*
X0144321Y0320952D02*
X0192070Y0320952D01*
X0192070Y0319754D02*
X0144817Y0319754D01*
X0144870Y0318555D02*
X0192070Y0318555D01*
X0192070Y0317357D02*
X0145051Y0317357D01*
X0146249Y0316158D02*
X0192070Y0316158D01*
X0192070Y0314960D02*
X0147448Y0314960D01*
X0148646Y0313761D02*
X0192070Y0313761D01*
X0192070Y0312563D02*
X0149845Y0312563D01*
X0152554Y0311364D02*
X0192070Y0311364D01*
X0192070Y0310166D02*
X0154363Y0310166D01*
X0154971Y0308967D02*
X0192070Y0308967D01*
X0191581Y0307769D02*
X0155070Y0307769D01*
X0154738Y0306570D02*
X0190796Y0306570D01*
X0190570Y0305372D02*
X0153800Y0305372D01*
X0149541Y0305372D02*
X0143315Y0305372D01*
X0142963Y0305020D02*
X0144201Y0306258D01*
X0144870Y0307875D01*
X0144870Y0309625D01*
X0144201Y0311242D01*
X0142963Y0312480D01*
X0141346Y0313150D01*
X0133595Y0313150D01*
X0131978Y0312480D01*
X0130740Y0311242D01*
X0130070Y0309625D01*
X0130070Y0307875D01*
X0130740Y0306258D01*
X0131978Y0305020D01*
X0133595Y0304350D01*
X0141346Y0304350D01*
X0142963Y0305020D01*
X0144330Y0306570D02*
X0148603Y0306570D01*
X0148270Y0307769D02*
X0144826Y0307769D01*
X0144870Y0308967D02*
X0148066Y0308967D01*
X0146868Y0310166D02*
X0144647Y0310166D01*
X0144079Y0311364D02*
X0145669Y0311364D01*
X0144471Y0312563D02*
X0142764Y0312563D01*
X0143272Y0313761D02*
X0129270Y0313761D01*
X0129270Y0312563D02*
X0132177Y0312563D01*
X0130862Y0311364D02*
X0129270Y0311364D01*
X0129270Y0310166D02*
X0130294Y0310166D01*
X0130070Y0308967D02*
X0129270Y0308967D01*
X0129270Y0307769D02*
X0130114Y0307769D01*
X0129270Y0307037D02*
X0129270Y0337863D01*
X0158289Y0366881D01*
X0159206Y0366881D01*
X0160811Y0367547D01*
X0162040Y0368775D01*
X0162705Y0370381D01*
X0162705Y0372119D01*
X0162040Y0373725D01*
X0160811Y0374953D01*
X0159206Y0375618D01*
X0157468Y0375618D01*
X0155862Y0374953D01*
X0154633Y0373725D01*
X0153968Y0372119D01*
X0153968Y0370381D01*
X0154633Y0368775D01*
X0154721Y0368688D01*
X0127470Y0341437D01*
X0127470Y0346863D01*
X0156957Y0376350D01*
X0162583Y0376350D01*
X0164921Y0374012D01*
X0164633Y0373725D01*
X0163968Y0372119D01*
X0163968Y0370381D01*
X0164633Y0368775D01*
X0165862Y0367547D01*
X0167468Y0366881D01*
X0169206Y0366881D01*
X0170811Y0367547D01*
X0172040Y0368775D01*
X0172705Y0370381D01*
X0172705Y0372119D01*
X0172040Y0373725D01*
X0170811Y0374953D01*
X0169206Y0375618D01*
X0168689Y0375618D01*
X0165270Y0379037D01*
X0164157Y0380150D01*
X0155383Y0380150D01*
X0154270Y0379037D01*
X0124783Y0349550D01*
X0123670Y0348437D01*
X0123670Y0297363D01*
X0130462Y0290571D01*
X0130070Y0289625D01*
X0130070Y0287875D01*
X0130740Y0286258D01*
X0131978Y0285020D01*
X0133595Y0284350D01*
X0141346Y0284350D01*
X0142963Y0285020D01*
X0144201Y0286258D01*
X0144870Y0287875D01*
X0144870Y0289625D01*
X0144201Y0291242D01*
X0142963Y0292480D01*
X0141346Y0293150D01*
X0133595Y0293150D01*
X0133356Y0293051D01*
X0127470Y0298937D01*
X0127470Y0303463D01*
X0130433Y0300500D01*
X0130070Y0299625D01*
X0130070Y0297875D01*
X0130740Y0296258D01*
X0131978Y0295020D01*
X0133595Y0294350D01*
X0141346Y0294350D01*
X0142963Y0295020D01*
X0144201Y0296258D01*
X0144870Y0297875D01*
X0144870Y0299625D01*
X0144201Y0301242D01*
X0142963Y0302480D01*
X0141346Y0303150D01*
X0133595Y0303150D01*
X0133286Y0303022D01*
X0129270Y0307037D01*
X0129737Y0306570D02*
X0130611Y0306570D01*
X0130936Y0305372D02*
X0131626Y0305372D01*
X0132134Y0304173D02*
X0172409Y0304173D01*
X0172594Y0304250D02*
X0171345Y0303732D01*
X0170388Y0302776D01*
X0169870Y0301526D01*
X0169870Y0300174D01*
X0169881Y0300148D01*
X0142433Y0272700D01*
X0141346Y0273150D01*
X0133595Y0273150D01*
X0131978Y0272480D01*
X0130740Y0271242D01*
X0130070Y0269625D01*
X0130070Y0267875D01*
X0130740Y0266258D01*
X0131978Y0265020D01*
X0133595Y0264350D01*
X0141346Y0264350D01*
X0142963Y0265020D01*
X0144201Y0266258D01*
X0144870Y0267875D01*
X0144870Y0269625D01*
X0144830Y0269723D01*
X0172568Y0297461D01*
X0172594Y0297450D01*
X0173947Y0297450D01*
X0175196Y0297968D01*
X0176153Y0298924D01*
X0176670Y0300174D01*
X0176670Y0301526D01*
X0176153Y0302776D01*
X0175196Y0303732D01*
X0173947Y0304250D01*
X0172594Y0304250D01*
X0174132Y0304173D02*
X0190778Y0304173D01*
X0191538Y0302975D02*
X0175954Y0302975D01*
X0176567Y0301776D02*
X0250666Y0301776D01*
X0250666Y0300578D02*
X0176670Y0300578D01*
X0176341Y0299379D02*
X0250666Y0299379D01*
X0250666Y0298181D02*
X0175409Y0298181D01*
X0177796Y0295784D02*
X0170891Y0295784D01*
X0172089Y0296982D02*
X0179630Y0296982D01*
X0179794Y0297050D02*
X0178545Y0296532D01*
X0177588Y0295576D01*
X0177070Y0294326D01*
X0177070Y0292974D01*
X0177588Y0291724D01*
X0178523Y0290789D01*
X0146270Y0258537D01*
X0145470Y0259337D01*
X0144650Y0260157D01*
X0144201Y0261242D01*
X0142963Y0262480D01*
X0141346Y0263150D01*
X0133595Y0263150D01*
X0131978Y0262480D01*
X0130740Y0261242D01*
X0130070Y0259625D01*
X0130070Y0257875D01*
X0130740Y0256258D01*
X0131978Y0255020D01*
X0133595Y0254350D01*
X0141346Y0254350D01*
X0142963Y0255020D01*
X0143688Y0255745D01*
X0144370Y0255063D01*
X0145483Y0253950D01*
X0190861Y0208573D01*
X0191088Y0208024D01*
X0192045Y0207068D01*
X0193294Y0206550D01*
X0194647Y0206550D01*
X0195896Y0207068D01*
X0196853Y0208024D01*
X0197367Y0209266D01*
X0198773Y0207861D01*
X0198288Y0207376D01*
X0197770Y0206126D01*
X0197770Y0204774D01*
X0198288Y0203524D01*
X0199245Y0202568D01*
X0200494Y0202050D01*
X0201847Y0202050D01*
X0203096Y0202568D01*
X0204053Y0203524D01*
X0204570Y0204774D01*
X0204570Y0206126D01*
X0204053Y0207376D01*
X0203096Y0208332D01*
X0203070Y0208343D01*
X0203070Y0208937D01*
X0192549Y0219459D01*
X0193294Y0219150D01*
X0194647Y0219150D01*
X0194673Y0219161D01*
X0217270Y0196563D01*
X0217270Y0174963D01*
X0224470Y0167763D01*
X0225583Y0166650D01*
X0234583Y0166650D01*
X0237970Y0163263D01*
X0237970Y0108137D01*
X0235454Y0105620D01*
X0235416Y0105658D01*
X0233988Y0106250D01*
X0235416Y0106842D01*
X0236879Y0108304D01*
X0237670Y0110216D01*
X0237670Y0112284D01*
X0236879Y0114196D01*
X0235416Y0115658D01*
X0233988Y0116250D01*
X0235416Y0116842D01*
X0236879Y0118304D01*
X0237670Y0120216D01*
X0237670Y0122284D01*
X0236879Y0124196D01*
X0235416Y0125658D01*
X0233988Y0126250D01*
X0235416Y0126842D01*
X0236879Y0128304D01*
X0237670Y0130216D01*
X0237670Y0132284D01*
X0236879Y0134196D01*
X0235416Y0135658D01*
X0234238Y0136146D01*
X0234543Y0136246D01*
X0235301Y0136632D01*
X0235988Y0137131D01*
X0236589Y0137732D01*
X0237089Y0138420D01*
X0237475Y0139177D01*
X0237737Y0139985D01*
X0237870Y0140825D01*
X0237870Y0140866D01*
X0232855Y0140866D01*
X0232855Y0141634D01*
X0237870Y0141634D01*
X0237870Y0141675D01*
X0237737Y0142515D01*
X0237475Y0143323D01*
X0237089Y0144080D01*
X0236589Y0144768D01*
X0235988Y0145369D01*
X0235301Y0145868D01*
X0234543Y0146254D01*
X0234238Y0146354D01*
X0235416Y0146842D01*
X0236879Y0148304D01*
X0237670Y0150216D01*
X0237670Y0152284D01*
X0236879Y0154196D01*
X0235416Y0155658D01*
X0233988Y0156250D01*
X0235416Y0156842D01*
X0236879Y0158304D01*
X0237670Y0160216D01*
X0237670Y0162284D01*
X0236879Y0164196D01*
X0235416Y0165658D01*
X0233505Y0166450D01*
X0231436Y0166450D01*
X0229525Y0165658D01*
X0228062Y0164196D01*
X0227270Y0162284D01*
X0227270Y0160216D01*
X0228062Y0158304D01*
X0229525Y0156842D01*
X0230953Y0156250D01*
X0229525Y0155658D01*
X0229437Y0155570D01*
X0227157Y0157850D01*
X0223557Y0157850D01*
X0144479Y0236929D01*
X0144870Y0237875D01*
X0144870Y0239625D01*
X0144201Y0241242D01*
X0142963Y0242480D01*
X0141346Y0243150D01*
X0133595Y0243150D01*
X0131978Y0242480D01*
X0130740Y0241242D01*
X0130070Y0239625D01*
X0130070Y0237875D01*
X0130740Y0236258D01*
X0131978Y0235020D01*
X0133595Y0234350D01*
X0141346Y0234350D01*
X0141585Y0234449D01*
X0201383Y0174650D01*
X0200494Y0174650D01*
X0199245Y0174132D01*
X0198288Y0173176D01*
X0197770Y0171926D01*
X0197770Y0170574D01*
X0197781Y0170548D01*
X0193183Y0165950D01*
X0192070Y0164837D01*
X0192070Y0147063D01*
X0226270Y0112863D01*
X0227270Y0111863D01*
X0227270Y0110216D01*
X0228062Y0108304D01*
X0229525Y0106842D01*
X0230953Y0106250D01*
X0229525Y0105658D01*
X0228062Y0104196D01*
X0227270Y0102284D01*
X0227270Y0100216D01*
X0228062Y0098304D01*
X0229525Y0096842D01*
X0230953Y0096250D01*
X0229525Y0095658D01*
X0228062Y0094196D01*
X0227270Y0092284D01*
X0227270Y0090216D01*
X0228062Y0088304D01*
X0229525Y0086842D01*
X0231436Y0086050D01*
X0233505Y0086050D01*
X0235416Y0086842D01*
X0236879Y0088304D01*
X0237670Y0090216D01*
X0237670Y0092284D01*
X0237589Y0092481D01*
X0249870Y0104763D01*
X0249870Y0188237D01*
X0248757Y0189350D01*
X0210957Y0227150D01*
X0204657Y0227150D01*
X0203660Y0228148D01*
X0203670Y0228174D01*
X0203670Y0229526D01*
X0203153Y0230776D01*
X0202196Y0231732D01*
X0200947Y0232250D01*
X0199594Y0232250D01*
X0198345Y0231732D01*
X0197388Y0230776D01*
X0196870Y0229526D01*
X0196870Y0228174D01*
X0197388Y0226924D01*
X0198345Y0225968D01*
X0199594Y0225450D01*
X0200947Y0225450D01*
X0200973Y0225461D01*
X0201970Y0224463D01*
X0203083Y0223350D01*
X0209383Y0223350D01*
X0246070Y0186663D01*
X0246070Y0106337D01*
X0235399Y0095665D01*
X0233988Y0096250D01*
X0235416Y0096842D01*
X0236879Y0098304D01*
X0237670Y0100216D01*
X0237670Y0102284D01*
X0237618Y0102411D01*
X0241770Y0106563D01*
X0241770Y0164837D01*
X0240657Y0165950D01*
X0236157Y0170450D01*
X0234276Y0170450D01*
X0236677Y0171094D01*
X0239163Y0172528D01*
X0241192Y0174558D01*
X0242627Y0177043D01*
X0243370Y0179815D01*
X0243370Y0182685D01*
X0242627Y0185457D01*
X0241192Y0187942D01*
X0239163Y0189972D01*
X0236677Y0191406D01*
X0233905Y0192149D01*
X0231036Y0192149D01*
X0228264Y0191406D01*
X0225778Y0189972D01*
X0223749Y0187942D01*
X0222314Y0185457D01*
X0221571Y0182685D01*
X0221571Y0179815D01*
X0222314Y0177043D01*
X0223749Y0174558D01*
X0225778Y0172528D01*
X0228264Y0171094D01*
X0230665Y0170450D01*
X0227157Y0170450D01*
X0221070Y0176537D01*
X0221070Y0198137D01*
X0197360Y0221848D01*
X0197370Y0221874D01*
X0197370Y0223226D01*
X0196853Y0224476D01*
X0195896Y0225432D01*
X0194647Y0225950D01*
X0193294Y0225950D01*
X0192045Y0225432D01*
X0191088Y0224476D01*
X0190570Y0223226D01*
X0190570Y0221874D01*
X0190879Y0221128D01*
X0159557Y0252450D01*
X0160447Y0252450D01*
X0161696Y0252968D01*
X0162653Y0253924D01*
X0163170Y0255174D01*
X0163170Y0256526D01*
X0163160Y0256552D01*
X0193268Y0286661D01*
X0193294Y0286650D01*
X0194647Y0286650D01*
X0195896Y0287168D01*
X0196853Y0288124D01*
X0197370Y0289374D01*
X0197370Y0290726D01*
X0196853Y0291976D01*
X0195896Y0292932D01*
X0194647Y0293450D01*
X0193294Y0293450D01*
X0192045Y0292932D01*
X0191088Y0291976D01*
X0190570Y0290726D01*
X0190570Y0289374D01*
X0190581Y0289348D01*
X0160473Y0259239D01*
X0160447Y0259250D01*
X0159094Y0259250D01*
X0157845Y0258732D01*
X0156888Y0257776D01*
X0156370Y0256526D01*
X0156370Y0255637D01*
X0155960Y0256048D01*
X0155970Y0256074D01*
X0155970Y0257426D01*
X0155453Y0258676D01*
X0154496Y0259632D01*
X0153254Y0260147D01*
X0182370Y0289263D01*
X0182370Y0290757D01*
X0182396Y0290768D01*
X0183353Y0291724D01*
X0183870Y0292974D01*
X0183870Y0294326D01*
X0183353Y0295576D01*
X0182396Y0296532D01*
X0181147Y0297050D01*
X0179794Y0297050D01*
X0181311Y0296982D02*
X0250666Y0296982D01*
X0250666Y0295784D02*
X0183145Y0295784D01*
X0183763Y0294585D02*
X0250666Y0294585D01*
X0250666Y0293387D02*
X0194800Y0293387D01*
X0193141Y0293387D02*
X0183870Y0293387D01*
X0183545Y0292188D02*
X0191300Y0292188D01*
X0190679Y0290989D02*
X0182618Y0290989D01*
X0182370Y0289791D02*
X0190570Y0289791D01*
X0189826Y0288592D02*
X0181700Y0288592D01*
X0180501Y0287394D02*
X0188627Y0287394D01*
X0187429Y0286195D02*
X0179303Y0286195D01*
X0178104Y0284997D02*
X0186230Y0284997D01*
X0185032Y0283798D02*
X0176906Y0283798D01*
X0175707Y0282600D02*
X0183833Y0282600D01*
X0182635Y0281401D02*
X0174509Y0281401D01*
X0173310Y0280203D02*
X0181436Y0280203D01*
X0180238Y0279004D02*
X0172112Y0279004D01*
X0170913Y0277806D02*
X0179039Y0277806D01*
X0177841Y0276607D02*
X0169715Y0276607D01*
X0168516Y0275409D02*
X0176642Y0275409D01*
X0175444Y0274210D02*
X0167318Y0274210D01*
X0166119Y0273012D02*
X0174245Y0273012D01*
X0173047Y0271813D02*
X0164921Y0271813D01*
X0163722Y0270615D02*
X0171848Y0270615D01*
X0170650Y0269416D02*
X0162524Y0269416D01*
X0161325Y0268218D02*
X0169451Y0268218D01*
X0168253Y0267019D02*
X0160127Y0267019D01*
X0158928Y0265821D02*
X0167054Y0265821D01*
X0165856Y0264622D02*
X0157730Y0264622D01*
X0156531Y0263424D02*
X0164657Y0263424D01*
X0163459Y0262225D02*
X0155333Y0262225D01*
X0154134Y0261027D02*
X0162260Y0261027D01*
X0161062Y0259828D02*
X0154024Y0259828D01*
X0155472Y0258630D02*
X0157742Y0258630D01*
X0156745Y0257431D02*
X0155968Y0257431D01*
X0155970Y0256233D02*
X0156370Y0256233D01*
X0160899Y0252637D02*
X0173639Y0252637D01*
X0173145Y0252432D02*
X0174394Y0252950D01*
X0175747Y0252950D01*
X0175773Y0252939D01*
X0187881Y0265048D01*
X0187870Y0265074D01*
X0187870Y0266426D01*
X0188388Y0267676D01*
X0189345Y0268632D01*
X0190594Y0269150D01*
X0191947Y0269150D01*
X0193196Y0268632D01*
X0194153Y0267676D01*
X0194670Y0266426D01*
X0194670Y0265074D01*
X0194153Y0263824D01*
X0193196Y0262868D01*
X0191947Y0262350D01*
X0190594Y0262350D01*
X0190568Y0262361D01*
X0178460Y0250252D01*
X0178470Y0250226D01*
X0178470Y0248874D01*
X0177953Y0247624D01*
X0176996Y0246668D01*
X0175747Y0246150D01*
X0174394Y0246150D01*
X0173145Y0246668D01*
X0172188Y0247624D01*
X0171670Y0248874D01*
X0171670Y0250226D01*
X0172188Y0251476D01*
X0173145Y0252432D01*
X0172173Y0251439D02*
X0160569Y0251439D01*
X0161767Y0250240D02*
X0171676Y0250240D01*
X0171670Y0249042D02*
X0162966Y0249042D01*
X0164164Y0247843D02*
X0172097Y0247843D01*
X0173200Y0246645D02*
X0165363Y0246645D01*
X0166561Y0245446D02*
X0250666Y0245446D01*
X0250666Y0244248D02*
X0167760Y0244248D01*
X0168958Y0243049D02*
X0250666Y0243049D01*
X0250666Y0241851D02*
X0170157Y0241851D01*
X0171355Y0240652D02*
X0250666Y0240652D01*
X0250666Y0239453D02*
X0172554Y0239453D01*
X0173752Y0238255D02*
X0250666Y0238255D01*
X0250666Y0237056D02*
X0174951Y0237056D01*
X0176149Y0235858D02*
X0250666Y0235858D01*
X0250666Y0234659D02*
X0177348Y0234659D01*
X0178547Y0233461D02*
X0250666Y0233461D01*
X0250666Y0232262D02*
X0179745Y0232262D01*
X0180944Y0231064D02*
X0197676Y0231064D01*
X0197011Y0229865D02*
X0182142Y0229865D01*
X0183341Y0228667D02*
X0196870Y0228667D01*
X0197163Y0227468D02*
X0184539Y0227468D01*
X0185738Y0226270D02*
X0198042Y0226270D01*
X0196257Y0225071D02*
X0201362Y0225071D01*
X0202561Y0223873D02*
X0197103Y0223873D01*
X0197370Y0222674D02*
X0210059Y0222674D01*
X0211258Y0221476D02*
X0197732Y0221476D01*
X0198930Y0220277D02*
X0212456Y0220277D01*
X0213655Y0219079D02*
X0200129Y0219079D01*
X0201327Y0217880D02*
X0214853Y0217880D01*
X0216052Y0216682D02*
X0202526Y0216682D01*
X0203724Y0215483D02*
X0217250Y0215483D01*
X0218449Y0214285D02*
X0204923Y0214285D01*
X0206121Y0213086D02*
X0219647Y0213086D01*
X0220846Y0211888D02*
X0207320Y0211888D01*
X0208518Y0210689D02*
X0222044Y0210689D01*
X0223243Y0209491D02*
X0209717Y0209491D01*
X0210915Y0208292D02*
X0224441Y0208292D01*
X0225640Y0207094D02*
X0212114Y0207094D01*
X0213312Y0205895D02*
X0226838Y0205895D01*
X0228037Y0204697D02*
X0214511Y0204697D01*
X0215709Y0203498D02*
X0229235Y0203498D01*
X0230434Y0202300D02*
X0216908Y0202300D01*
X0218106Y0201101D02*
X0231632Y0201101D01*
X0232831Y0199903D02*
X0219305Y0199903D01*
X0220503Y0198704D02*
X0234029Y0198704D01*
X0235228Y0197506D02*
X0221070Y0197506D01*
X0221070Y0196307D02*
X0236426Y0196307D01*
X0237625Y0195109D02*
X0221070Y0195109D01*
X0221070Y0193910D02*
X0238823Y0193910D01*
X0240022Y0192712D02*
X0221070Y0192712D01*
X0221070Y0191513D02*
X0228661Y0191513D01*
X0226372Y0190315D02*
X0221070Y0190315D01*
X0221070Y0189116D02*
X0224923Y0189116D01*
X0223735Y0187918D02*
X0221070Y0187918D01*
X0221070Y0186719D02*
X0223043Y0186719D01*
X0222351Y0185520D02*
X0221070Y0185520D01*
X0221070Y0184322D02*
X0222010Y0184322D01*
X0221689Y0183123D02*
X0221070Y0183123D01*
X0221070Y0181925D02*
X0221571Y0181925D01*
X0221571Y0180726D02*
X0221070Y0180726D01*
X0221070Y0179528D02*
X0221648Y0179528D01*
X0221969Y0178329D02*
X0221070Y0178329D01*
X0221070Y0177131D02*
X0222290Y0177131D01*
X0221675Y0175932D02*
X0222955Y0175932D01*
X0222874Y0174734D02*
X0223647Y0174734D01*
X0224072Y0173535D02*
X0224771Y0173535D01*
X0225271Y0172337D02*
X0226110Y0172337D01*
X0226469Y0171138D02*
X0228186Y0171138D01*
X0224691Y0167543D02*
X0213865Y0167543D01*
X0215063Y0166344D02*
X0231181Y0166344D01*
X0229012Y0165146D02*
X0216262Y0165146D01*
X0217460Y0163947D02*
X0227959Y0163947D01*
X0227463Y0162749D02*
X0218659Y0162749D01*
X0219857Y0161550D02*
X0227270Y0161550D01*
X0227270Y0160352D02*
X0221056Y0160352D01*
X0222254Y0159153D02*
X0227711Y0159153D01*
X0228412Y0157955D02*
X0223453Y0157955D01*
X0220870Y0155163D02*
X0204570Y0171463D01*
X0204570Y0170574D01*
X0204053Y0169324D01*
X0203096Y0168368D01*
X0201847Y0167850D01*
X0200494Y0167850D01*
X0200468Y0167861D01*
X0198254Y0165647D01*
X0199496Y0165132D01*
X0200453Y0164176D01*
X0200970Y0162926D01*
X0200970Y0161574D01*
X0200453Y0160324D01*
X0199496Y0159368D01*
X0199470Y0159357D01*
X0199470Y0154937D01*
X0228957Y0125450D01*
X0229317Y0125450D01*
X0229525Y0125658D01*
X0230953Y0126250D01*
X0229525Y0126842D01*
X0228062Y0128304D01*
X0227270Y0130216D01*
X0227270Y0132284D01*
X0228062Y0134196D01*
X0229525Y0135658D01*
X0230703Y0136146D01*
X0230398Y0136246D01*
X0229640Y0136632D01*
X0228953Y0137131D01*
X0228352Y0137732D01*
X0227852Y0138420D01*
X0227466Y0139177D01*
X0227203Y0139985D01*
X0227070Y0140825D01*
X0227070Y0140866D01*
X0232086Y0140866D01*
X0232086Y0141634D01*
X0227070Y0141634D01*
X0227070Y0141675D01*
X0227203Y0142515D01*
X0227466Y0143323D01*
X0227852Y0144080D01*
X0228352Y0144768D01*
X0228953Y0145369D01*
X0229640Y0145868D01*
X0230398Y0146254D01*
X0230703Y0146354D01*
X0229525Y0146842D01*
X0228062Y0148304D01*
X0227270Y0150216D01*
X0227270Y0152284D01*
X0227294Y0152340D01*
X0225583Y0154050D01*
X0221983Y0154050D01*
X0220870Y0155163D01*
X0220476Y0155558D02*
X0199470Y0155558D01*
X0199470Y0156756D02*
X0219277Y0156756D01*
X0218079Y0157955D02*
X0199470Y0157955D01*
X0199470Y0159153D02*
X0216880Y0159153D01*
X0215682Y0160352D02*
X0200464Y0160352D01*
X0200961Y0161550D02*
X0214483Y0161550D01*
X0213285Y0162749D02*
X0200970Y0162749D01*
X0200548Y0163947D02*
X0212086Y0163947D01*
X0210888Y0165146D02*
X0199464Y0165146D01*
X0198952Y0166344D02*
X0209689Y0166344D01*
X0208491Y0167543D02*
X0200150Y0167543D01*
X0203470Y0168741D02*
X0207292Y0168741D01*
X0206094Y0169940D02*
X0204308Y0169940D01*
X0204570Y0171138D02*
X0204895Y0171138D01*
X0207872Y0173535D02*
X0218698Y0173535D01*
X0219897Y0172337D02*
X0209071Y0172337D01*
X0210269Y0171138D02*
X0221095Y0171138D01*
X0222294Y0169940D02*
X0211468Y0169940D01*
X0212666Y0168741D02*
X0223492Y0168741D01*
X0224470Y0167763D02*
X0224470Y0167763D01*
X0233760Y0166344D02*
X0234889Y0166344D01*
X0235929Y0165146D02*
X0236088Y0165146D01*
X0236982Y0163947D02*
X0237286Y0163947D01*
X0237478Y0162749D02*
X0237970Y0162749D01*
X0237970Y0161550D02*
X0237670Y0161550D01*
X0237670Y0160352D02*
X0237970Y0160352D01*
X0237970Y0159153D02*
X0237230Y0159153D01*
X0236529Y0157955D02*
X0237970Y0157955D01*
X0237970Y0156756D02*
X0235210Y0156756D01*
X0235517Y0155558D02*
X0237970Y0155558D01*
X0237970Y0154359D02*
X0236715Y0154359D01*
X0237307Y0153161D02*
X0237970Y0153161D01*
X0237970Y0151962D02*
X0237670Y0151962D01*
X0237670Y0150764D02*
X0237970Y0150764D01*
X0237970Y0149565D02*
X0237401Y0149565D01*
X0236905Y0148367D02*
X0237970Y0148367D01*
X0237970Y0147168D02*
X0235743Y0147168D01*
X0235102Y0145970D02*
X0237970Y0145970D01*
X0237970Y0144771D02*
X0236586Y0144771D01*
X0237348Y0143573D02*
X0237970Y0143573D01*
X0237970Y0142374D02*
X0237760Y0142374D01*
X0237970Y0141176D02*
X0232855Y0141176D01*
X0232086Y0141176D02*
X0213232Y0141176D01*
X0212033Y0142374D02*
X0227181Y0142374D01*
X0227593Y0143573D02*
X0210835Y0143573D01*
X0209636Y0144771D02*
X0228355Y0144771D01*
X0229839Y0145970D02*
X0208438Y0145970D01*
X0207239Y0147168D02*
X0229198Y0147168D01*
X0228036Y0148367D02*
X0206041Y0148367D01*
X0204842Y0149565D02*
X0227540Y0149565D01*
X0227270Y0150764D02*
X0203644Y0150764D01*
X0202445Y0151962D02*
X0227270Y0151962D01*
X0226473Y0153161D02*
X0201247Y0153161D01*
X0200048Y0154359D02*
X0221674Y0154359D01*
X0228251Y0156756D02*
X0229731Y0156756D01*
X0241770Y0156756D02*
X0246070Y0156756D01*
X0246070Y0155558D02*
X0241770Y0155558D01*
X0241770Y0154359D02*
X0246070Y0154359D01*
X0246070Y0153161D02*
X0241770Y0153161D01*
X0241770Y0151962D02*
X0246070Y0151962D01*
X0246070Y0150764D02*
X0241770Y0150764D01*
X0241770Y0149565D02*
X0246070Y0149565D01*
X0246070Y0148367D02*
X0241770Y0148367D01*
X0241770Y0147168D02*
X0246070Y0147168D01*
X0246070Y0145970D02*
X0241770Y0145970D01*
X0241770Y0144771D02*
X0246070Y0144771D01*
X0246070Y0143573D02*
X0241770Y0143573D01*
X0241770Y0142374D02*
X0246070Y0142374D01*
X0246070Y0141176D02*
X0241770Y0141176D01*
X0241770Y0139977D02*
X0246070Y0139977D01*
X0246070Y0138779D02*
X0241770Y0138779D01*
X0241770Y0137580D02*
X0246070Y0137580D01*
X0246070Y0136382D02*
X0241770Y0136382D01*
X0241770Y0135183D02*
X0246070Y0135183D01*
X0246070Y0133984D02*
X0241770Y0133984D01*
X0241770Y0132786D02*
X0246070Y0132786D01*
X0246070Y0131587D02*
X0241770Y0131587D01*
X0241770Y0130389D02*
X0246070Y0130389D01*
X0246070Y0129190D02*
X0241770Y0129190D01*
X0241770Y0127992D02*
X0246070Y0127992D01*
X0246070Y0126793D02*
X0241770Y0126793D01*
X0241770Y0125595D02*
X0246070Y0125595D01*
X0246070Y0124396D02*
X0241770Y0124396D01*
X0241770Y0123198D02*
X0246070Y0123198D01*
X0246070Y0121999D02*
X0241770Y0121999D01*
X0241770Y0120801D02*
X0246070Y0120801D01*
X0246070Y0119602D02*
X0241770Y0119602D01*
X0241770Y0118404D02*
X0246070Y0118404D01*
X0246070Y0117205D02*
X0241770Y0117205D01*
X0241770Y0116007D02*
X0246070Y0116007D01*
X0246070Y0114808D02*
X0241770Y0114808D01*
X0241770Y0113610D02*
X0246070Y0113610D01*
X0246070Y0112411D02*
X0241770Y0112411D01*
X0241770Y0111213D02*
X0246070Y0111213D01*
X0246070Y0110014D02*
X0241770Y0110014D01*
X0241770Y0108816D02*
X0246070Y0108816D01*
X0246070Y0107617D02*
X0241770Y0107617D01*
X0241626Y0106419D02*
X0246070Y0106419D01*
X0244954Y0105220D02*
X0240428Y0105220D01*
X0239229Y0104022D02*
X0243755Y0104022D01*
X0242557Y0102823D02*
X0238031Y0102823D01*
X0237670Y0101625D02*
X0241358Y0101625D01*
X0240160Y0100426D02*
X0237670Y0100426D01*
X0237261Y0099228D02*
X0238961Y0099228D01*
X0237763Y0098029D02*
X0236604Y0098029D01*
X0236564Y0096831D02*
X0235389Y0096831D01*
X0238343Y0093235D02*
X0250666Y0093235D01*
X0250666Y0092037D02*
X0237670Y0092037D01*
X0237670Y0090838D02*
X0250666Y0090838D01*
X0250666Y0089640D02*
X0237432Y0089640D01*
X0236935Y0088441D02*
X0250666Y0088441D01*
X0250666Y0087243D02*
X0235817Y0087243D01*
X0229124Y0087243D02*
X0138668Y0087243D01*
X0140075Y0088441D02*
X0228006Y0088441D01*
X0227509Y0089640D02*
X0141239Y0089640D01*
X0141931Y0090838D02*
X0227270Y0090838D01*
X0227270Y0092037D02*
X0142623Y0092037D01*
X0142946Y0093235D02*
X0227664Y0093235D01*
X0228300Y0094434D02*
X0143267Y0094434D01*
X0143370Y0095632D02*
X0229499Y0095632D01*
X0229551Y0096831D02*
X0143370Y0096831D01*
X0143277Y0098029D02*
X0228337Y0098029D01*
X0227680Y0099228D02*
X0142956Y0099228D01*
X0142635Y0100426D02*
X0227270Y0100426D01*
X0227270Y0101625D02*
X0141953Y0101625D01*
X0141261Y0102823D02*
X0227494Y0102823D01*
X0227990Y0104022D02*
X0140113Y0104022D01*
X0138732Y0105220D02*
X0229087Y0105220D01*
X0230546Y0106419D02*
X0136631Y0106419D01*
X0128309Y0106419D02*
X0122070Y0106419D01*
X0122070Y0107617D02*
X0228749Y0107617D01*
X0227850Y0108816D02*
X0122070Y0108816D01*
X0122070Y0110014D02*
X0227354Y0110014D01*
X0227270Y0111213D02*
X0122070Y0111213D01*
X0122070Y0112411D02*
X0226722Y0112411D01*
X0225524Y0113610D02*
X0122070Y0113610D01*
X0122070Y0114808D02*
X0224325Y0114808D01*
X0223127Y0116007D02*
X0122070Y0116007D01*
X0122070Y0117205D02*
X0221928Y0117205D01*
X0220730Y0118404D02*
X0122070Y0118404D01*
X0122070Y0119602D02*
X0219531Y0119602D01*
X0218333Y0120801D02*
X0122070Y0120801D01*
X0122070Y0121999D02*
X0217134Y0121999D01*
X0215936Y0123198D02*
X0122070Y0123198D01*
X0122070Y0124396D02*
X0214737Y0124396D01*
X0213539Y0125595D02*
X0122070Y0125595D01*
X0122070Y0126793D02*
X0212340Y0126793D01*
X0211142Y0127992D02*
X0122070Y0127992D01*
X0122070Y0129190D02*
X0209943Y0129190D01*
X0208745Y0130389D02*
X0122070Y0130389D01*
X0122070Y0131587D02*
X0207546Y0131587D01*
X0206347Y0132786D02*
X0122070Y0132786D01*
X0122070Y0133984D02*
X0205149Y0133984D01*
X0203950Y0135183D02*
X0122070Y0135183D01*
X0122070Y0136382D02*
X0202752Y0136382D01*
X0201553Y0137580D02*
X0122070Y0137580D01*
X0122070Y0138779D02*
X0200355Y0138779D01*
X0199156Y0139977D02*
X0122070Y0139977D01*
X0122070Y0141176D02*
X0197958Y0141176D01*
X0196759Y0142374D02*
X0184529Y0142374D01*
X0184945Y0142547D02*
X0186174Y0143775D01*
X0186839Y0145381D01*
X0186839Y0147119D01*
X0186174Y0148725D01*
X0184945Y0149953D01*
X0183339Y0150618D01*
X0182189Y0150618D01*
X0149070Y0183737D01*
X0149070Y0213437D01*
X0144801Y0217707D01*
X0144870Y0217875D01*
X0144870Y0219625D01*
X0144201Y0221242D01*
X0142963Y0222480D01*
X0141346Y0223150D01*
X0133595Y0223150D01*
X0131978Y0222480D01*
X0130740Y0221242D01*
X0130070Y0219625D01*
X0130070Y0217875D01*
X0130740Y0216258D01*
X0131978Y0215020D01*
X0133595Y0214350D01*
X0141346Y0214350D01*
X0142362Y0214771D01*
X0145270Y0211863D01*
X0145270Y0182163D01*
X0146383Y0181050D01*
X0178570Y0148863D01*
X0178570Y0148250D01*
X0178102Y0147119D01*
X0178102Y0145381D01*
X0178767Y0143775D01*
X0179996Y0142547D01*
X0181602Y0141881D01*
X0183339Y0141881D01*
X0184945Y0142547D01*
X0185971Y0143573D02*
X0195561Y0143573D01*
X0194362Y0144771D02*
X0186586Y0144771D01*
X0186839Y0145970D02*
X0193164Y0145970D01*
X0192070Y0147168D02*
X0186819Y0147168D01*
X0186322Y0148367D02*
X0192070Y0148367D01*
X0192070Y0149565D02*
X0185333Y0149565D01*
X0182044Y0150764D02*
X0192070Y0150764D01*
X0192070Y0151962D02*
X0180845Y0151962D01*
X0179647Y0153161D02*
X0192070Y0153161D01*
X0192070Y0154359D02*
X0178448Y0154359D01*
X0177250Y0155558D02*
X0192070Y0155558D01*
X0192070Y0156756D02*
X0176051Y0156756D01*
X0174853Y0157955D02*
X0192070Y0157955D01*
X0192070Y0159153D02*
X0173654Y0159153D01*
X0172456Y0160352D02*
X0192070Y0160352D01*
X0192070Y0161550D02*
X0171257Y0161550D01*
X0170059Y0162749D02*
X0192070Y0162749D01*
X0192070Y0163947D02*
X0168860Y0163947D01*
X0167662Y0165146D02*
X0192379Y0165146D01*
X0193578Y0166344D02*
X0166463Y0166344D01*
X0165265Y0167543D02*
X0194776Y0167543D01*
X0195975Y0168741D02*
X0164066Y0168741D01*
X0162868Y0169940D02*
X0197173Y0169940D01*
X0197770Y0171138D02*
X0161669Y0171138D01*
X0160471Y0172337D02*
X0197941Y0172337D01*
X0198648Y0173535D02*
X0159272Y0173535D01*
X0158074Y0174734D02*
X0201300Y0174734D01*
X0200101Y0175932D02*
X0156875Y0175932D01*
X0155677Y0177131D02*
X0198903Y0177131D01*
X0197704Y0178329D02*
X0154478Y0178329D01*
X0153280Y0179528D02*
X0196506Y0179528D01*
X0195307Y0180726D02*
X0152081Y0180726D01*
X0150883Y0181925D02*
X0194109Y0181925D01*
X0192910Y0183123D02*
X0149684Y0183123D01*
X0149070Y0184322D02*
X0191712Y0184322D01*
X0190513Y0185520D02*
X0149070Y0185520D01*
X0149070Y0186719D02*
X0189314Y0186719D01*
X0188116Y0187918D02*
X0149070Y0187918D01*
X0149070Y0189116D02*
X0186917Y0189116D01*
X0185719Y0190315D02*
X0149070Y0190315D01*
X0149070Y0191513D02*
X0184520Y0191513D01*
X0183322Y0192712D02*
X0149070Y0192712D01*
X0149070Y0193910D02*
X0182123Y0193910D01*
X0180925Y0195109D02*
X0149070Y0195109D01*
X0149070Y0196307D02*
X0179726Y0196307D01*
X0178528Y0197506D02*
X0149070Y0197506D01*
X0149070Y0198704D02*
X0177329Y0198704D01*
X0176131Y0199903D02*
X0149070Y0199903D01*
X0149070Y0201101D02*
X0174932Y0201101D01*
X0173734Y0202300D02*
X0149070Y0202300D01*
X0149070Y0203498D02*
X0172535Y0203498D01*
X0171337Y0204697D02*
X0149070Y0204697D01*
X0149070Y0205895D02*
X0170138Y0205895D01*
X0168940Y0207094D02*
X0149070Y0207094D01*
X0149070Y0208292D02*
X0167741Y0208292D01*
X0166543Y0209491D02*
X0149070Y0209491D01*
X0149070Y0210689D02*
X0165344Y0210689D01*
X0164146Y0211888D02*
X0149070Y0211888D01*
X0149070Y0213086D02*
X0162947Y0213086D01*
X0161749Y0214285D02*
X0148223Y0214285D01*
X0147024Y0215483D02*
X0160550Y0215483D01*
X0159352Y0216682D02*
X0145826Y0216682D01*
X0144870Y0217880D02*
X0158153Y0217880D01*
X0156955Y0219079D02*
X0144870Y0219079D01*
X0144600Y0220277D02*
X0155756Y0220277D01*
X0154558Y0221476D02*
X0143967Y0221476D01*
X0142494Y0222674D02*
X0153359Y0222674D01*
X0152161Y0223873D02*
X0132280Y0223873D01*
X0133003Y0224595D02*
X0129270Y0220863D01*
X0129270Y0193637D01*
X0172289Y0150618D01*
X0173339Y0150618D01*
X0174945Y0149953D01*
X0176174Y0148725D01*
X0176839Y0147119D01*
X0176839Y0145381D01*
X0176174Y0143775D01*
X0174945Y0142547D01*
X0173339Y0141881D01*
X0171602Y0141881D01*
X0169996Y0142547D01*
X0168767Y0143775D01*
X0168102Y0145381D01*
X0168102Y0147119D01*
X0168670Y0148491D01*
X0168670Y0148863D01*
X0126583Y0190950D01*
X0125470Y0192063D01*
X0125470Y0222437D01*
X0130316Y0227282D01*
X0130070Y0227875D01*
X0130070Y0229625D01*
X0130740Y0231242D01*
X0131978Y0232480D01*
X0133595Y0233150D01*
X0141346Y0233150D01*
X0142963Y0232480D01*
X0144201Y0231242D01*
X0144870Y0229625D01*
X0144870Y0227875D01*
X0144201Y0226258D01*
X0142963Y0225020D01*
X0141346Y0224350D01*
X0133595Y0224350D01*
X0133003Y0224595D01*
X0132447Y0222674D02*
X0131082Y0222674D01*
X0130974Y0221476D02*
X0129883Y0221476D01*
X0130341Y0220277D02*
X0129270Y0220277D01*
X0129270Y0219079D02*
X0130070Y0219079D01*
X0130070Y0217880D02*
X0129270Y0217880D01*
X0129270Y0216682D02*
X0130565Y0216682D01*
X0131515Y0215483D02*
X0129270Y0215483D01*
X0129270Y0214285D02*
X0142849Y0214285D01*
X0144047Y0213086D02*
X0141500Y0213086D01*
X0141346Y0213150D02*
X0142963Y0212480D01*
X0144201Y0211242D01*
X0144870Y0209625D01*
X0144870Y0207875D01*
X0144201Y0206258D01*
X0142963Y0205020D01*
X0141346Y0204350D01*
X0133595Y0204350D01*
X0131978Y0205020D01*
X0130740Y0206258D01*
X0130070Y0207875D01*
X0130070Y0209625D01*
X0130740Y0211242D01*
X0131978Y0212480D01*
X0133595Y0213150D01*
X0141346Y0213150D01*
X0143555Y0211888D02*
X0145246Y0211888D01*
X0145270Y0210689D02*
X0144430Y0210689D01*
X0144870Y0209491D02*
X0145270Y0209491D01*
X0145270Y0208292D02*
X0144870Y0208292D01*
X0144547Y0207094D02*
X0145270Y0207094D01*
X0145270Y0205895D02*
X0143838Y0205895D01*
X0145270Y0204697D02*
X0142183Y0204697D01*
X0141548Y0203237D02*
X0140833Y0203350D01*
X0137870Y0203350D01*
X0137870Y0199150D01*
X0137070Y0199150D01*
X0137070Y0198350D01*
X0129876Y0198350D01*
X0129984Y0197673D01*
X0130207Y0196984D01*
X0130536Y0196339D01*
X0130962Y0195753D01*
X0131474Y0195241D01*
X0132060Y0194816D01*
X0132705Y0194487D01*
X0133393Y0194263D01*
X0134108Y0194150D01*
X0137070Y0194150D01*
X0137070Y0198350D01*
X0137870Y0198350D01*
X0137870Y0194150D01*
X0140833Y0194150D01*
X0141548Y0194263D01*
X0142236Y0194487D01*
X0142881Y0194816D01*
X0143467Y0195241D01*
X0143979Y0195753D01*
X0144405Y0196339D01*
X0144733Y0196984D01*
X0144957Y0197673D01*
X0145064Y0198350D01*
X0137871Y0198350D01*
X0137871Y0199150D01*
X0145064Y0199150D01*
X0144957Y0199827D01*
X0144733Y0200516D01*
X0144405Y0201161D01*
X0143979Y0201747D01*
X0143467Y0202259D01*
X0142881Y0202684D01*
X0142236Y0203013D01*
X0141548Y0203237D01*
X0143411Y0202300D02*
X0145270Y0202300D01*
X0145270Y0203498D02*
X0129270Y0203498D01*
X0129270Y0202300D02*
X0131530Y0202300D01*
X0131474Y0202259D02*
X0130962Y0201747D01*
X0130536Y0201161D01*
X0130207Y0200516D01*
X0129984Y0199827D01*
X0129876Y0199150D01*
X0137070Y0199150D01*
X0137070Y0203350D01*
X0134108Y0203350D01*
X0133393Y0203237D01*
X0132705Y0203013D01*
X0132060Y0202684D01*
X0131474Y0202259D01*
X0130506Y0201101D02*
X0129270Y0201101D01*
X0129270Y0199903D02*
X0130008Y0199903D01*
X0129270Y0198704D02*
X0137070Y0198704D01*
X0137871Y0198704D02*
X0145270Y0198704D01*
X0145270Y0197506D02*
X0144903Y0197506D01*
X0145270Y0196307D02*
X0144381Y0196307D01*
X0145270Y0195109D02*
X0143284Y0195109D01*
X0145270Y0193910D02*
X0129270Y0193910D01*
X0129270Y0195109D02*
X0131656Y0195109D01*
X0130559Y0196307D02*
X0129270Y0196307D01*
X0129270Y0197506D02*
X0130038Y0197506D01*
X0125470Y0197506D02*
X0122070Y0197506D01*
X0122070Y0198704D02*
X0125470Y0198704D01*
X0125470Y0199903D02*
X0122070Y0199903D01*
X0122070Y0201101D02*
X0125470Y0201101D01*
X0125470Y0202300D02*
X0122070Y0202300D01*
X0122070Y0203498D02*
X0125470Y0203498D01*
X0125470Y0204697D02*
X0122070Y0204697D01*
X0122070Y0205895D02*
X0125470Y0205895D01*
X0125470Y0207094D02*
X0122070Y0207094D01*
X0122070Y0208292D02*
X0125470Y0208292D01*
X0125470Y0209491D02*
X0122070Y0209491D01*
X0122070Y0210689D02*
X0125470Y0210689D01*
X0125470Y0211888D02*
X0122070Y0211888D01*
X0122070Y0213086D02*
X0125470Y0213086D01*
X0125470Y0214285D02*
X0122070Y0214285D01*
X0122070Y0215483D02*
X0125470Y0215483D01*
X0125470Y0216682D02*
X0122070Y0216682D01*
X0122070Y0217880D02*
X0125470Y0217880D01*
X0125470Y0219079D02*
X0122070Y0219079D01*
X0122070Y0220277D02*
X0125470Y0220277D01*
X0125470Y0221476D02*
X0122070Y0221476D01*
X0122070Y0222674D02*
X0125708Y0222674D01*
X0126906Y0223873D02*
X0122070Y0223873D01*
X0122070Y0225071D02*
X0128105Y0225071D01*
X0129303Y0226270D02*
X0122070Y0226270D01*
X0122070Y0227468D02*
X0130239Y0227468D01*
X0130070Y0228667D02*
X0122070Y0228667D01*
X0122070Y0229865D02*
X0130170Y0229865D01*
X0130666Y0231064D02*
X0122070Y0231064D01*
X0122070Y0232262D02*
X0131760Y0232262D01*
X0132848Y0234659D02*
X0122070Y0234659D01*
X0122070Y0233461D02*
X0142573Y0233461D01*
X0143181Y0232262D02*
X0143771Y0232262D01*
X0144275Y0231064D02*
X0144970Y0231064D01*
X0144771Y0229865D02*
X0146168Y0229865D01*
X0147367Y0228667D02*
X0144870Y0228667D01*
X0144702Y0227468D02*
X0148565Y0227468D01*
X0149764Y0226270D02*
X0144206Y0226270D01*
X0143014Y0225071D02*
X0150962Y0225071D01*
X0153939Y0227468D02*
X0171965Y0227468D01*
X0173164Y0226270D02*
X0155138Y0226270D01*
X0156336Y0225071D02*
X0174362Y0225071D01*
X0175561Y0223873D02*
X0157535Y0223873D01*
X0158733Y0222674D02*
X0176759Y0222674D01*
X0177958Y0221476D02*
X0159932Y0221476D01*
X0161130Y0220277D02*
X0179156Y0220277D01*
X0180355Y0219079D02*
X0162329Y0219079D01*
X0163527Y0217880D02*
X0181553Y0217880D01*
X0182752Y0216682D02*
X0164726Y0216682D01*
X0165924Y0215483D02*
X0183950Y0215483D01*
X0185149Y0214285D02*
X0167123Y0214285D01*
X0168321Y0213086D02*
X0186347Y0213086D01*
X0187546Y0211888D02*
X0169520Y0211888D01*
X0170718Y0210689D02*
X0188744Y0210689D01*
X0189943Y0209491D02*
X0171917Y0209491D01*
X0173115Y0208292D02*
X0190977Y0208292D01*
X0192018Y0207094D02*
X0174314Y0207094D01*
X0175512Y0205895D02*
X0197770Y0205895D01*
X0197802Y0204697D02*
X0176711Y0204697D01*
X0177909Y0203498D02*
X0198314Y0203498D01*
X0199891Y0202300D02*
X0179108Y0202300D01*
X0180306Y0201101D02*
X0212732Y0201101D01*
X0211534Y0202300D02*
X0202449Y0202300D01*
X0204027Y0203498D02*
X0210335Y0203498D01*
X0209137Y0204697D02*
X0204539Y0204697D01*
X0204570Y0205895D02*
X0207938Y0205895D01*
X0206740Y0207094D02*
X0204170Y0207094D01*
X0203137Y0208292D02*
X0205541Y0208292D01*
X0204343Y0209491D02*
X0202517Y0209491D01*
X0203144Y0210689D02*
X0201318Y0210689D01*
X0201946Y0211888D02*
X0200120Y0211888D01*
X0200747Y0213086D02*
X0198921Y0213086D01*
X0199549Y0214285D02*
X0197723Y0214285D01*
X0198350Y0215483D02*
X0196524Y0215483D01*
X0197152Y0216682D02*
X0195326Y0216682D01*
X0195953Y0217880D02*
X0194127Y0217880D01*
X0194755Y0219079D02*
X0192929Y0219079D01*
X0190735Y0221476D02*
X0190532Y0221476D01*
X0190570Y0222674D02*
X0189333Y0222674D01*
X0188135Y0223873D02*
X0190838Y0223873D01*
X0191684Y0225071D02*
X0186936Y0225071D01*
X0170767Y0228667D02*
X0152741Y0228667D01*
X0151542Y0229865D02*
X0169568Y0229865D01*
X0168370Y0231064D02*
X0150344Y0231064D01*
X0149145Y0232262D02*
X0167171Y0232262D01*
X0165973Y0233461D02*
X0147947Y0233461D01*
X0146748Y0234659D02*
X0164774Y0234659D01*
X0163576Y0235858D02*
X0145549Y0235858D01*
X0144531Y0237056D02*
X0162377Y0237056D01*
X0161178Y0238255D02*
X0144870Y0238255D01*
X0144870Y0239453D02*
X0159980Y0239453D01*
X0158781Y0240652D02*
X0144445Y0240652D01*
X0143592Y0241851D02*
X0157583Y0241851D01*
X0156384Y0243049D02*
X0141589Y0243049D01*
X0141346Y0244350D02*
X0133595Y0244350D01*
X0131978Y0245020D01*
X0130740Y0246258D01*
X0130070Y0247875D01*
X0130070Y0249625D01*
X0130740Y0251242D01*
X0131978Y0252480D01*
X0133595Y0253150D01*
X0141346Y0253150D01*
X0142963Y0252480D01*
X0144201Y0251242D01*
X0144870Y0249625D01*
X0144870Y0247875D01*
X0144201Y0246258D01*
X0142963Y0245020D01*
X0141346Y0244350D01*
X0143389Y0245446D02*
X0153987Y0245446D01*
X0152789Y0246645D02*
X0144361Y0246645D01*
X0144857Y0247843D02*
X0151590Y0247843D01*
X0150392Y0249042D02*
X0144870Y0249042D01*
X0144616Y0250240D02*
X0149193Y0250240D01*
X0147995Y0251439D02*
X0144004Y0251439D01*
X0142584Y0252637D02*
X0146796Y0252637D01*
X0145598Y0253836D02*
X0122070Y0253836D01*
X0122070Y0255034D02*
X0131964Y0255034D01*
X0130765Y0256233D02*
X0122070Y0256233D01*
X0122070Y0257431D02*
X0130254Y0257431D01*
X0130070Y0258630D02*
X0122070Y0258630D01*
X0122070Y0259828D02*
X0130155Y0259828D01*
X0130651Y0261027D02*
X0122070Y0261027D01*
X0122070Y0262225D02*
X0131723Y0262225D01*
X0132938Y0264622D02*
X0122070Y0264622D01*
X0122070Y0263424D02*
X0151157Y0263424D01*
X0152356Y0264622D02*
X0142003Y0264622D01*
X0143764Y0265821D02*
X0153554Y0265821D01*
X0154753Y0267019D02*
X0144516Y0267019D01*
X0144870Y0268218D02*
X0155951Y0268218D01*
X0157150Y0269416D02*
X0144870Y0269416D01*
X0145722Y0270615D02*
X0158348Y0270615D01*
X0159547Y0271813D02*
X0146921Y0271813D01*
X0148119Y0273012D02*
X0160745Y0273012D01*
X0161944Y0274210D02*
X0149318Y0274210D01*
X0150516Y0275409D02*
X0163142Y0275409D01*
X0164341Y0276607D02*
X0151715Y0276607D01*
X0152913Y0277806D02*
X0165539Y0277806D01*
X0166738Y0279004D02*
X0154112Y0279004D01*
X0155310Y0280203D02*
X0167936Y0280203D01*
X0169135Y0281401D02*
X0156509Y0281401D01*
X0157707Y0282600D02*
X0170333Y0282600D01*
X0171532Y0283798D02*
X0158906Y0283798D01*
X0160104Y0284997D02*
X0172730Y0284997D01*
X0173929Y0286195D02*
X0161303Y0286195D01*
X0162501Y0287394D02*
X0175127Y0287394D01*
X0176326Y0288592D02*
X0163700Y0288592D01*
X0164898Y0289791D02*
X0177524Y0289791D01*
X0178323Y0290989D02*
X0166097Y0290989D01*
X0167295Y0292188D02*
X0177396Y0292188D01*
X0177070Y0293387D02*
X0168494Y0293387D01*
X0169692Y0294585D02*
X0177178Y0294585D01*
X0169113Y0299379D02*
X0144870Y0299379D01*
X0144870Y0298181D02*
X0167914Y0298181D01*
X0166716Y0296982D02*
X0144501Y0296982D01*
X0143727Y0295784D02*
X0165517Y0295784D01*
X0164319Y0294585D02*
X0141913Y0294585D01*
X0143255Y0292188D02*
X0161921Y0292188D01*
X0160723Y0290989D02*
X0144305Y0290989D01*
X0144802Y0289791D02*
X0159524Y0289791D01*
X0158326Y0288592D02*
X0144870Y0288592D01*
X0144671Y0287394D02*
X0157127Y0287394D01*
X0155929Y0286195D02*
X0144138Y0286195D01*
X0142907Y0284997D02*
X0154730Y0284997D01*
X0153532Y0283798D02*
X0122070Y0283798D01*
X0122070Y0282600D02*
X0132267Y0282600D01*
X0131978Y0282480D02*
X0130740Y0281242D01*
X0130070Y0279625D01*
X0130070Y0277875D01*
X0130740Y0276258D01*
X0131978Y0275020D01*
X0133595Y0274350D01*
X0141346Y0274350D01*
X0142963Y0275020D01*
X0144201Y0276258D01*
X0144870Y0277875D01*
X0144870Y0279625D01*
X0144201Y0281242D01*
X0142963Y0282480D01*
X0141346Y0283150D01*
X0133595Y0283150D01*
X0131978Y0282480D01*
X0130899Y0281401D02*
X0122070Y0281401D01*
X0122070Y0280203D02*
X0130310Y0280203D01*
X0130070Y0279004D02*
X0122070Y0279004D01*
X0122070Y0277806D02*
X0130099Y0277806D01*
X0130595Y0276607D02*
X0122070Y0276607D01*
X0122070Y0275409D02*
X0131589Y0275409D01*
X0133262Y0273012D02*
X0122070Y0273012D01*
X0122070Y0274210D02*
X0143944Y0274210D01*
X0143352Y0275409D02*
X0145142Y0275409D01*
X0144345Y0276607D02*
X0146341Y0276607D01*
X0147539Y0277806D02*
X0144842Y0277806D01*
X0144870Y0279004D02*
X0148738Y0279004D01*
X0149936Y0280203D02*
X0144631Y0280203D01*
X0144042Y0281401D02*
X0151135Y0281401D01*
X0152333Y0282600D02*
X0142674Y0282600D01*
X0142745Y0273012D02*
X0141679Y0273012D01*
X0131311Y0271813D02*
X0122070Y0271813D01*
X0122070Y0270615D02*
X0130480Y0270615D01*
X0130070Y0269416D02*
X0122070Y0269416D01*
X0122070Y0268218D02*
X0130070Y0268218D01*
X0130425Y0267019D02*
X0122070Y0267019D01*
X0122070Y0265821D02*
X0131177Y0265821D01*
X0143218Y0262225D02*
X0149959Y0262225D01*
X0148760Y0261027D02*
X0144290Y0261027D01*
X0144979Y0259828D02*
X0147562Y0259828D01*
X0146363Y0258630D02*
X0146178Y0258630D01*
X0144399Y0255034D02*
X0142977Y0255034D01*
X0155186Y0244248D02*
X0122070Y0244248D01*
X0122070Y0245446D02*
X0131552Y0245446D01*
X0130580Y0246645D02*
X0122070Y0246645D01*
X0122070Y0247843D02*
X0130084Y0247843D01*
X0130070Y0249042D02*
X0122070Y0249042D01*
X0122070Y0250240D02*
X0130325Y0250240D01*
X0130937Y0251439D02*
X0122070Y0251439D01*
X0122070Y0252637D02*
X0132357Y0252637D01*
X0133352Y0243049D02*
X0122070Y0243049D01*
X0122070Y0241851D02*
X0131348Y0241851D01*
X0130496Y0240652D02*
X0122070Y0240652D01*
X0122070Y0239453D02*
X0130070Y0239453D01*
X0130070Y0238255D02*
X0122070Y0238255D01*
X0122070Y0237056D02*
X0130409Y0237056D01*
X0131140Y0235858D02*
X0122070Y0235858D01*
X0129270Y0213086D02*
X0133441Y0213086D01*
X0131386Y0211888D02*
X0129270Y0211888D01*
X0129270Y0210689D02*
X0130511Y0210689D01*
X0130070Y0209491D02*
X0129270Y0209491D01*
X0129270Y0208292D02*
X0130070Y0208292D01*
X0130394Y0207094D02*
X0129270Y0207094D01*
X0129270Y0205895D02*
X0131103Y0205895D01*
X0132758Y0204697D02*
X0129270Y0204697D01*
X0137070Y0202300D02*
X0137870Y0202300D01*
X0137870Y0201101D02*
X0137070Y0201101D01*
X0137070Y0199903D02*
X0137870Y0199903D01*
X0137870Y0197506D02*
X0137070Y0197506D01*
X0137070Y0196307D02*
X0137870Y0196307D01*
X0137870Y0195109D02*
X0137070Y0195109D01*
X0132593Y0190315D02*
X0145270Y0190315D01*
X0145270Y0191513D02*
X0131394Y0191513D01*
X0130196Y0192712D02*
X0145270Y0192712D01*
X0145270Y0189116D02*
X0133791Y0189116D01*
X0134990Y0187918D02*
X0145270Y0187918D01*
X0145270Y0186719D02*
X0136188Y0186719D01*
X0137387Y0185520D02*
X0145270Y0185520D01*
X0145270Y0184322D02*
X0138585Y0184322D01*
X0139784Y0183123D02*
X0145270Y0183123D01*
X0145509Y0181925D02*
X0140983Y0181925D01*
X0142181Y0180726D02*
X0146707Y0180726D01*
X0147906Y0179528D02*
X0143380Y0179528D01*
X0144578Y0178329D02*
X0149104Y0178329D01*
X0150303Y0177131D02*
X0145777Y0177131D01*
X0146975Y0175932D02*
X0151501Y0175932D01*
X0152700Y0174734D02*
X0148174Y0174734D01*
X0149372Y0173535D02*
X0153898Y0173535D01*
X0155097Y0172337D02*
X0150571Y0172337D01*
X0151769Y0171138D02*
X0156295Y0171138D01*
X0157494Y0169940D02*
X0152968Y0169940D01*
X0154166Y0168741D02*
X0158692Y0168741D01*
X0159891Y0167543D02*
X0155365Y0167543D01*
X0156563Y0166344D02*
X0161089Y0166344D01*
X0162288Y0165146D02*
X0157762Y0165146D01*
X0158960Y0163947D02*
X0163486Y0163947D01*
X0164685Y0162749D02*
X0160159Y0162749D01*
X0161357Y0161550D02*
X0165883Y0161550D01*
X0167082Y0160352D02*
X0162556Y0160352D01*
X0163754Y0159153D02*
X0168280Y0159153D01*
X0169479Y0157955D02*
X0164953Y0157955D01*
X0166151Y0156756D02*
X0170677Y0156756D01*
X0171876Y0155558D02*
X0167350Y0155558D01*
X0168548Y0154359D02*
X0173074Y0154359D01*
X0174273Y0153161D02*
X0169747Y0153161D01*
X0170945Y0151962D02*
X0175471Y0151962D01*
X0176670Y0150764D02*
X0172144Y0150764D01*
X0175333Y0149565D02*
X0177868Y0149565D01*
X0178570Y0148367D02*
X0176322Y0148367D01*
X0176819Y0147168D02*
X0178122Y0147168D01*
X0178102Y0145970D02*
X0176839Y0145970D01*
X0176586Y0144771D02*
X0178355Y0144771D01*
X0178970Y0143573D02*
X0175971Y0143573D01*
X0174529Y0142374D02*
X0180412Y0142374D01*
X0170412Y0142374D02*
X0164529Y0142374D01*
X0164945Y0142547D02*
X0166174Y0143775D01*
X0166839Y0145381D01*
X0166839Y0147119D01*
X0166174Y0148725D01*
X0164945Y0149953D01*
X0163339Y0150618D01*
X0161602Y0150618D01*
X0159996Y0149953D01*
X0158767Y0148725D01*
X0158102Y0147119D01*
X0158102Y0145381D01*
X0158767Y0143775D01*
X0159996Y0142547D01*
X0161602Y0141881D01*
X0163339Y0141881D01*
X0164945Y0142547D01*
X0165971Y0143573D02*
X0168970Y0143573D01*
X0168355Y0144771D02*
X0166586Y0144771D01*
X0166839Y0145970D02*
X0168102Y0145970D01*
X0168122Y0147168D02*
X0166819Y0147168D01*
X0166322Y0148367D02*
X0168619Y0148367D01*
X0167968Y0149565D02*
X0165333Y0149565D01*
X0166770Y0150764D02*
X0155854Y0150764D01*
X0156057Y0150709D02*
X0155650Y0150818D01*
X0152855Y0150818D01*
X0152855Y0146634D01*
X0157039Y0146634D01*
X0157039Y0149429D01*
X0156930Y0149836D01*
X0156719Y0150201D01*
X0156421Y0150499D01*
X0156057Y0150709D01*
X0157003Y0149565D02*
X0159608Y0149565D01*
X0158619Y0148367D02*
X0157039Y0148367D01*
X0157039Y0147168D02*
X0158122Y0147168D01*
X0158102Y0145970D02*
X0152855Y0145970D01*
X0152855Y0145866D02*
X0152855Y0146634D01*
X0152086Y0146634D01*
X0152086Y0145866D01*
X0147902Y0145866D01*
X0147902Y0143071D01*
X0148011Y0142664D01*
X0148222Y0142299D01*
X0148520Y0142001D01*
X0148884Y0141791D01*
X0149291Y0141681D01*
X0152086Y0141681D01*
X0152086Y0145866D01*
X0152855Y0145866D01*
X0157039Y0145866D01*
X0157039Y0143071D01*
X0156930Y0142664D01*
X0156719Y0142299D01*
X0156421Y0142001D01*
X0156057Y0141791D01*
X0155650Y0141681D01*
X0152855Y0141681D01*
X0152855Y0145866D01*
X0152086Y0145970D02*
X0122070Y0145970D01*
X0122070Y0147168D02*
X0147902Y0147168D01*
X0147902Y0146634D02*
X0152086Y0146634D01*
X0152086Y0150818D01*
X0149291Y0150818D01*
X0148884Y0150709D01*
X0148520Y0150499D01*
X0148222Y0150201D01*
X0148011Y0149836D01*
X0147902Y0149429D01*
X0147902Y0146634D01*
X0147902Y0148367D02*
X0122070Y0148367D01*
X0122070Y0149565D02*
X0147938Y0149565D01*
X0149087Y0150764D02*
X0122070Y0150764D01*
X0122070Y0151962D02*
X0165571Y0151962D01*
X0164373Y0153161D02*
X0122070Y0153161D01*
X0122070Y0154359D02*
X0163174Y0154359D01*
X0161976Y0155558D02*
X0122070Y0155558D01*
X0122070Y0156756D02*
X0160777Y0156756D01*
X0159579Y0157955D02*
X0122070Y0157955D01*
X0122070Y0159153D02*
X0158380Y0159153D01*
X0157182Y0160352D02*
X0122070Y0160352D01*
X0122070Y0161550D02*
X0155983Y0161550D01*
X0154785Y0162749D02*
X0122070Y0162749D01*
X0122070Y0163947D02*
X0153586Y0163947D01*
X0152388Y0165146D02*
X0122070Y0165146D01*
X0122070Y0166344D02*
X0151189Y0166344D01*
X0149991Y0167543D02*
X0122070Y0167543D01*
X0122070Y0168741D02*
X0148792Y0168741D01*
X0147594Y0169940D02*
X0122070Y0169940D01*
X0122070Y0171138D02*
X0146395Y0171138D01*
X0145197Y0172337D02*
X0122070Y0172337D01*
X0122070Y0173535D02*
X0143998Y0173535D01*
X0142800Y0174734D02*
X0122070Y0174734D01*
X0122070Y0175932D02*
X0141601Y0175932D01*
X0140403Y0177131D02*
X0122070Y0177131D01*
X0122070Y0178329D02*
X0139204Y0178329D01*
X0138006Y0179528D02*
X0122070Y0179528D01*
X0122070Y0180726D02*
X0136807Y0180726D01*
X0135609Y0181925D02*
X0122070Y0181925D01*
X0122070Y0183123D02*
X0134410Y0183123D01*
X0133211Y0184322D02*
X0122070Y0184322D01*
X0122070Y0185520D02*
X0132013Y0185520D01*
X0130814Y0186719D02*
X0122070Y0186719D01*
X0122070Y0187918D02*
X0129616Y0187918D01*
X0128417Y0189116D02*
X0122070Y0189116D01*
X0122070Y0190315D02*
X0127219Y0190315D01*
X0126020Y0191513D02*
X0122070Y0191513D01*
X0122070Y0192712D02*
X0125470Y0192712D01*
X0125470Y0193910D02*
X0122070Y0193910D01*
X0122070Y0195109D02*
X0125470Y0195109D01*
X0125470Y0196307D02*
X0122070Y0196307D01*
X0144435Y0201101D02*
X0145270Y0201101D01*
X0145270Y0199903D02*
X0144933Y0199903D01*
X0181505Y0199903D02*
X0213931Y0199903D01*
X0215129Y0198704D02*
X0182703Y0198704D01*
X0183902Y0197506D02*
X0216328Y0197506D01*
X0217270Y0196307D02*
X0185100Y0196307D01*
X0186299Y0195109D02*
X0217270Y0195109D01*
X0217270Y0193910D02*
X0187497Y0193910D01*
X0188696Y0192712D02*
X0217270Y0192712D01*
X0217270Y0191513D02*
X0189894Y0191513D01*
X0191093Y0190315D02*
X0217270Y0190315D01*
X0217270Y0189116D02*
X0192291Y0189116D01*
X0193490Y0187918D02*
X0217270Y0187918D01*
X0217270Y0186719D02*
X0194688Y0186719D01*
X0195887Y0185520D02*
X0217270Y0185520D01*
X0217270Y0184322D02*
X0197085Y0184322D01*
X0198284Y0183123D02*
X0217270Y0183123D01*
X0217270Y0181925D02*
X0199483Y0181925D01*
X0200681Y0180726D02*
X0217270Y0180726D01*
X0217270Y0179528D02*
X0201880Y0179528D01*
X0203078Y0178329D02*
X0217270Y0178329D01*
X0217270Y0177131D02*
X0204277Y0177131D01*
X0205475Y0175932D02*
X0217270Y0175932D01*
X0217500Y0174734D02*
X0206674Y0174734D01*
X0236755Y0171138D02*
X0246070Y0171138D01*
X0246070Y0169940D02*
X0236668Y0169940D01*
X0237866Y0168741D02*
X0246070Y0168741D01*
X0246070Y0167543D02*
X0239065Y0167543D01*
X0240263Y0166344D02*
X0246070Y0166344D01*
X0246070Y0165146D02*
X0241462Y0165146D01*
X0241770Y0163947D02*
X0246070Y0163947D01*
X0246070Y0162749D02*
X0241770Y0162749D01*
X0241770Y0161550D02*
X0246070Y0161550D01*
X0246070Y0160352D02*
X0241770Y0160352D01*
X0241770Y0159153D02*
X0246070Y0159153D01*
X0246070Y0157955D02*
X0241770Y0157955D01*
X0249870Y0157955D02*
X0250666Y0157955D01*
X0250666Y0159153D02*
X0249870Y0159153D01*
X0249870Y0160352D02*
X0250666Y0160352D01*
X0250666Y0161550D02*
X0249870Y0161550D01*
X0249870Y0162749D02*
X0250666Y0162749D01*
X0250666Y0163947D02*
X0249870Y0163947D01*
X0249870Y0165146D02*
X0250666Y0165146D01*
X0250666Y0166344D02*
X0249870Y0166344D01*
X0249870Y0167543D02*
X0250666Y0167543D01*
X0250666Y0168741D02*
X0249870Y0168741D01*
X0249870Y0169940D02*
X0250666Y0169940D01*
X0250666Y0171138D02*
X0249870Y0171138D01*
X0249870Y0172337D02*
X0250666Y0172337D01*
X0250666Y0173535D02*
X0249870Y0173535D01*
X0249870Y0174734D02*
X0250666Y0174734D01*
X0250666Y0175932D02*
X0249870Y0175932D01*
X0249870Y0177131D02*
X0250666Y0177131D01*
X0250666Y0178329D02*
X0249870Y0178329D01*
X0249870Y0179528D02*
X0250666Y0179528D01*
X0250666Y0180726D02*
X0249870Y0180726D01*
X0249870Y0181925D02*
X0250666Y0181925D01*
X0250666Y0183123D02*
X0249870Y0183123D01*
X0249870Y0184322D02*
X0250666Y0184322D01*
X0250666Y0185520D02*
X0249870Y0185520D01*
X0249870Y0186719D02*
X0250666Y0186719D01*
X0250666Y0187918D02*
X0249870Y0187918D01*
X0250666Y0189116D02*
X0248991Y0189116D01*
X0247793Y0190315D02*
X0250666Y0190315D01*
X0250666Y0191513D02*
X0246594Y0191513D01*
X0245396Y0192712D02*
X0250666Y0192712D01*
X0250666Y0193910D02*
X0244197Y0193910D01*
X0242999Y0195109D02*
X0250666Y0195109D01*
X0250666Y0196307D02*
X0241800Y0196307D01*
X0240602Y0197506D02*
X0250666Y0197506D01*
X0250666Y0198704D02*
X0239403Y0198704D01*
X0238205Y0199903D02*
X0250666Y0199903D01*
X0250666Y0201101D02*
X0237006Y0201101D01*
X0235808Y0202300D02*
X0250666Y0202300D01*
X0250666Y0203498D02*
X0234609Y0203498D01*
X0233411Y0204697D02*
X0250666Y0204697D01*
X0250666Y0205895D02*
X0232212Y0205895D01*
X0231014Y0207094D02*
X0250666Y0207094D01*
X0250666Y0208292D02*
X0229815Y0208292D01*
X0228617Y0209491D02*
X0250666Y0209491D01*
X0250666Y0210689D02*
X0227418Y0210689D01*
X0226220Y0211888D02*
X0250666Y0211888D01*
X0250666Y0213086D02*
X0225021Y0213086D01*
X0223823Y0214285D02*
X0250666Y0214285D01*
X0250666Y0215483D02*
X0222624Y0215483D01*
X0221426Y0216682D02*
X0250666Y0216682D01*
X0250666Y0217880D02*
X0220227Y0217880D01*
X0219029Y0219079D02*
X0250666Y0219079D01*
X0250666Y0220277D02*
X0217830Y0220277D01*
X0216632Y0221476D02*
X0250666Y0221476D01*
X0250666Y0222674D02*
X0215433Y0222674D01*
X0214235Y0223873D02*
X0250666Y0223873D01*
X0250666Y0225071D02*
X0213036Y0225071D01*
X0211838Y0226270D02*
X0250666Y0226270D01*
X0250666Y0227468D02*
X0204339Y0227468D01*
X0203670Y0228667D02*
X0250666Y0228667D01*
X0250666Y0229865D02*
X0203530Y0229865D01*
X0202865Y0231064D02*
X0250666Y0231064D01*
X0259866Y0231064D02*
X0297370Y0231064D01*
X0297370Y0232262D02*
X0259866Y0232262D01*
X0259866Y0233461D02*
X0297370Y0233461D01*
X0297370Y0234659D02*
X0259866Y0234659D01*
X0259866Y0235858D02*
X0297370Y0235858D01*
X0297370Y0237056D02*
X0259866Y0237056D01*
X0259866Y0238255D02*
X0297370Y0238255D01*
X0297370Y0239453D02*
X0259866Y0239453D01*
X0259866Y0240652D02*
X0297370Y0240652D01*
X0297370Y0241851D02*
X0259866Y0241851D01*
X0259866Y0243049D02*
X0297370Y0243049D01*
X0297370Y0244248D02*
X0259866Y0244248D01*
X0259866Y0245446D02*
X0297370Y0245446D01*
X0297370Y0246645D02*
X0259866Y0246645D01*
X0259866Y0247843D02*
X0297370Y0247843D01*
X0297370Y0249042D02*
X0259866Y0249042D01*
X0259866Y0250240D02*
X0297370Y0250240D01*
X0297370Y0251439D02*
X0259866Y0251439D01*
X0259866Y0252637D02*
X0297370Y0252637D01*
X0297370Y0253836D02*
X0259866Y0253836D01*
X0259866Y0255034D02*
X0297370Y0255034D01*
X0297370Y0256233D02*
X0259866Y0256233D01*
X0259866Y0257431D02*
X0297370Y0257431D01*
X0297370Y0258630D02*
X0259866Y0258630D01*
X0259866Y0259828D02*
X0297370Y0259828D01*
X0297370Y0261027D02*
X0259866Y0261027D01*
X0259866Y0262225D02*
X0297370Y0262225D01*
X0297370Y0263424D02*
X0259866Y0263424D01*
X0259866Y0264622D02*
X0297370Y0264622D01*
X0297370Y0265821D02*
X0259866Y0265821D01*
X0259866Y0267019D02*
X0297370Y0267019D01*
X0297370Y0268218D02*
X0259866Y0268218D01*
X0259866Y0269416D02*
X0297370Y0269416D01*
X0297370Y0270615D02*
X0259866Y0270615D01*
X0259866Y0271813D02*
X0297370Y0271813D01*
X0297370Y0273012D02*
X0259866Y0273012D01*
X0259866Y0274210D02*
X0297370Y0274210D01*
X0297370Y0275409D02*
X0259866Y0275409D01*
X0259866Y0276607D02*
X0297370Y0276607D01*
X0297370Y0277806D02*
X0259866Y0277806D01*
X0259866Y0279004D02*
X0297370Y0279004D01*
X0297370Y0280203D02*
X0259866Y0280203D01*
X0259866Y0281401D02*
X0297370Y0281401D01*
X0297370Y0282600D02*
X0259866Y0282600D01*
X0259866Y0283798D02*
X0297370Y0283798D01*
X0297370Y0284997D02*
X0259866Y0284997D01*
X0259866Y0286195D02*
X0297370Y0286195D01*
X0297370Y0287394D02*
X0259866Y0287394D01*
X0259866Y0288592D02*
X0297370Y0288592D01*
X0297370Y0289791D02*
X0259866Y0289791D01*
X0259866Y0290989D02*
X0297370Y0290989D01*
X0297370Y0292188D02*
X0259866Y0292188D01*
X0259866Y0293387D02*
X0297370Y0293387D01*
X0297370Y0294585D02*
X0259866Y0294585D01*
X0259866Y0295784D02*
X0297370Y0295784D01*
X0297370Y0296982D02*
X0259866Y0296982D01*
X0259866Y0298181D02*
X0297370Y0298181D01*
X0297370Y0299379D02*
X0259866Y0299379D01*
X0259866Y0300578D02*
X0297370Y0300578D01*
X0297370Y0301776D02*
X0259866Y0301776D01*
X0259866Y0302975D02*
X0297370Y0302975D01*
X0297370Y0304173D02*
X0259866Y0304173D01*
X0259866Y0305372D02*
X0297370Y0305372D01*
X0297370Y0306137D02*
X0297370Y0126137D01*
X0282870Y0111637D01*
X0282870Y0111675D01*
X0282738Y0112515D01*
X0282475Y0113323D01*
X0282089Y0114080D01*
X0281589Y0114768D01*
X0280988Y0115369D01*
X0280301Y0115868D01*
X0279543Y0116254D01*
X0279238Y0116354D01*
X0280416Y0116842D01*
X0281879Y0118304D01*
X0282670Y0120216D01*
X0282670Y0122284D01*
X0281879Y0124196D01*
X0280416Y0125658D01*
X0278988Y0126250D01*
X0280416Y0126842D01*
X0281879Y0128304D01*
X0282670Y0130216D01*
X0282670Y0132284D01*
X0282279Y0133230D01*
X0291918Y0142869D01*
X0293143Y0142869D01*
X0294386Y0143384D01*
X0295337Y0144335D01*
X0295852Y0145577D01*
X0295852Y0146923D01*
X0295337Y0148165D01*
X0294386Y0149116D01*
X0293143Y0149631D01*
X0291798Y0149631D01*
X0290555Y0149116D01*
X0289604Y0148165D01*
X0289089Y0146923D01*
X0289089Y0145697D01*
X0282008Y0138616D01*
X0282670Y0140216D01*
X0282670Y0142284D01*
X0281879Y0144196D01*
X0280416Y0145658D01*
X0278988Y0146250D01*
X0280416Y0146842D01*
X0281879Y0148304D01*
X0282670Y0150216D01*
X0282670Y0152284D01*
X0281879Y0154196D01*
X0280416Y0155658D01*
X0278988Y0156250D01*
X0280416Y0156842D01*
X0281879Y0158304D01*
X0282670Y0160216D01*
X0282670Y0162284D01*
X0281879Y0164196D01*
X0280416Y0165658D01*
X0278505Y0166450D01*
X0276436Y0166450D01*
X0274525Y0165658D01*
X0273062Y0164196D01*
X0272270Y0162284D01*
X0272270Y0160216D01*
X0273062Y0158304D01*
X0274525Y0156842D01*
X0275953Y0156250D01*
X0274525Y0155658D01*
X0273062Y0154196D01*
X0272270Y0152284D01*
X0272270Y0150216D01*
X0273062Y0148304D01*
X0274525Y0146842D01*
X0275953Y0146250D01*
X0274525Y0145658D01*
X0273062Y0144196D01*
X0272270Y0142284D01*
X0272270Y0140216D01*
X0273062Y0138304D01*
X0274525Y0136842D01*
X0275953Y0136250D01*
X0274525Y0135658D01*
X0273062Y0134196D01*
X0272270Y0132284D01*
X0272270Y0130216D01*
X0273062Y0128304D01*
X0274525Y0126842D01*
X0275953Y0126250D01*
X0274525Y0125658D01*
X0273062Y0124196D01*
X0272270Y0122284D01*
X0272270Y0120216D01*
X0273062Y0118304D01*
X0274525Y0116842D01*
X0275703Y0116354D01*
X0275398Y0116254D01*
X0274640Y0115868D01*
X0273953Y0115369D01*
X0273352Y0114768D01*
X0272852Y0114080D01*
X0272466Y0113323D01*
X0272203Y0112515D01*
X0272070Y0111675D01*
X0272070Y0111634D01*
X0277086Y0111634D01*
X0277086Y0110866D01*
X0272070Y0110866D01*
X0272070Y0110825D01*
X0272203Y0109985D01*
X0272466Y0109177D01*
X0272852Y0108420D01*
X0273352Y0107732D01*
X0273953Y0107131D01*
X0274640Y0106632D01*
X0275398Y0106246D01*
X0275703Y0106146D01*
X0274525Y0105658D01*
X0273062Y0104196D01*
X0272270Y0102284D01*
X0272270Y0100216D01*
X0273062Y0098304D01*
X0274525Y0096842D01*
X0275953Y0096250D01*
X0274525Y0095658D01*
X0273062Y0094196D01*
X0272270Y0092284D01*
X0272270Y0090216D01*
X0273062Y0088304D01*
X0274525Y0086842D01*
X0276436Y0086050D01*
X0278505Y0086050D01*
X0280416Y0086842D01*
X0281879Y0088304D01*
X0282670Y0090216D01*
X0282670Y0092284D01*
X0281879Y0094196D01*
X0280416Y0095658D01*
X0278988Y0096250D01*
X0280416Y0096842D01*
X0281879Y0098304D01*
X0282670Y0100216D01*
X0282670Y0102284D01*
X0281879Y0104196D01*
X0281341Y0104733D01*
X0301170Y0124563D01*
X0301170Y0174763D01*
X0302083Y0173850D01*
X0302083Y0173850D01*
X0325115Y0150818D01*
X0322855Y0150818D01*
X0322855Y0146634D01*
X0327039Y0146634D01*
X0327039Y0148895D01*
X0328311Y0147623D01*
X0328102Y0147119D01*
X0328102Y0145381D01*
X0328767Y0143775D01*
X0329996Y0142547D01*
X0331602Y0141881D01*
X0333339Y0141881D01*
X0334945Y0142547D01*
X0336174Y0143775D01*
X0336839Y0145381D01*
X0336839Y0147119D01*
X0336174Y0148725D01*
X0334945Y0149953D01*
X0333339Y0150618D01*
X0331602Y0150618D01*
X0330956Y0150351D01*
X0304770Y0176537D01*
X0304770Y0232350D01*
X0306277Y0232350D01*
X0306288Y0232324D01*
X0307245Y0231368D01*
X0308494Y0230850D01*
X0309847Y0230850D01*
X0311096Y0231368D01*
X0312053Y0232324D01*
X0312570Y0233574D01*
X0312570Y0234926D01*
X0312053Y0236176D01*
X0311096Y0237132D01*
X0309847Y0237650D01*
X0308494Y0237650D01*
X0307245Y0237132D01*
X0306288Y0236176D01*
X0306277Y0236150D01*
X0304770Y0236150D01*
X0304770Y0265557D01*
X0304796Y0265568D01*
X0305753Y0266524D01*
X0306270Y0267774D01*
X0306270Y0269126D01*
X0305753Y0270376D01*
X0304796Y0271332D01*
X0303547Y0271850D01*
X0302194Y0271850D01*
X0301170Y0271426D01*
X0301170Y0304563D01*
X0310270Y0313663D01*
X0310270Y0312774D01*
X0310788Y0311524D01*
X0311745Y0310568D01*
X0312994Y0310050D01*
X0314347Y0310050D01*
X0315596Y0310568D01*
X0316553Y0311524D01*
X0316564Y0311550D01*
X0321883Y0311550D01*
X0360370Y0273063D01*
X0361483Y0271950D01*
X0366448Y0271950D01*
X0365740Y0271242D01*
X0365070Y0269625D01*
X0365070Y0267875D01*
X0365667Y0266434D01*
X0320083Y0220850D01*
X0313864Y0220850D01*
X0313853Y0220876D01*
X0312896Y0221832D01*
X0311647Y0222350D01*
X0310294Y0222350D01*
X0309045Y0221832D01*
X0308088Y0220876D01*
X0307570Y0219626D01*
X0307570Y0218274D01*
X0308088Y0217024D01*
X0309045Y0216068D01*
X0310294Y0215550D01*
X0311647Y0215550D01*
X0312896Y0216068D01*
X0313853Y0217024D01*
X0313864Y0217050D01*
X0321657Y0217050D01*
X0363070Y0258463D01*
X0363070Y0255963D01*
X0366766Y0252268D01*
X0365740Y0251242D01*
X0365070Y0249625D01*
X0365070Y0247875D01*
X0365740Y0246258D01*
X0366866Y0245132D01*
X0366670Y0244937D01*
X0342583Y0220850D01*
X0333664Y0220850D01*
X0333653Y0220876D01*
X0332696Y0221832D01*
X0331447Y0222350D01*
X0330094Y0222350D01*
X0328845Y0221832D01*
X0327888Y0220876D01*
X0327370Y0219626D01*
X0327370Y0218274D01*
X0327888Y0217024D01*
X0328845Y0216068D01*
X0330094Y0215550D01*
X0331447Y0215550D01*
X0332696Y0216068D01*
X0333653Y0217024D01*
X0333664Y0217050D01*
X0344157Y0217050D01*
X0365070Y0237963D01*
X0365070Y0237875D01*
X0365740Y0236258D01*
X0366978Y0235020D01*
X0368595Y0234350D01*
X0376346Y0234350D01*
X0377963Y0235020D01*
X0379201Y0236258D01*
X0379870Y0237875D01*
X0379870Y0239625D01*
X0379201Y0241242D01*
X0378193Y0242250D01*
X0378357Y0242250D01*
X0380170Y0244063D01*
X0380170Y0208937D01*
X0379870Y0208637D01*
X0379870Y0209625D01*
X0379201Y0211242D01*
X0377963Y0212480D01*
X0376346Y0213150D01*
X0369957Y0213150D01*
X0371157Y0214350D01*
X0376346Y0214350D01*
X0377963Y0215020D01*
X0379201Y0216258D01*
X0379870Y0217875D01*
X0379870Y0219625D01*
X0379201Y0221242D01*
X0377963Y0222480D01*
X0376346Y0223150D01*
X0370057Y0223150D01*
X0371257Y0224350D01*
X0376346Y0224350D01*
X0377963Y0225020D01*
X0379201Y0226258D01*
X0379870Y0227875D01*
X0379870Y0229625D01*
X0379201Y0231242D01*
X0377963Y0232480D01*
X0376346Y0233150D01*
X0368595Y0233150D01*
X0366978Y0232480D01*
X0365740Y0231242D01*
X0365070Y0229625D01*
X0365070Y0227875D01*
X0365740Y0226258D01*
X0366766Y0225232D01*
X0340570Y0199037D01*
X0340570Y0150191D01*
X0339996Y0149953D01*
X0338767Y0148725D01*
X0338102Y0147119D01*
X0338102Y0145381D01*
X0338767Y0143775D01*
X0339996Y0142547D01*
X0341602Y0141881D01*
X0343339Y0141881D01*
X0344945Y0142547D01*
X0346174Y0143775D01*
X0346839Y0145381D01*
X0346839Y0147119D01*
X0346174Y0148725D01*
X0344945Y0149953D01*
X0344370Y0150191D01*
X0344370Y0197463D01*
X0365070Y0218163D01*
X0365070Y0217875D01*
X0365740Y0216258D01*
X0366716Y0215282D01*
X0351370Y0199937D01*
X0351370Y0150523D01*
X0349996Y0149953D01*
X0348767Y0148725D01*
X0348102Y0147119D01*
X0348102Y0145381D01*
X0348767Y0143775D01*
X0349996Y0142547D01*
X0351602Y0141881D01*
X0353339Y0141881D01*
X0354945Y0142547D01*
X0356174Y0143775D01*
X0356839Y0145381D01*
X0356839Y0147119D01*
X0356174Y0148725D01*
X0355170Y0149728D01*
X0355170Y0198363D01*
X0365070Y0208263D01*
X0365070Y0207875D01*
X0365740Y0206258D01*
X0366978Y0205020D01*
X0368595Y0204350D01*
X0375583Y0204350D01*
X0374383Y0203150D01*
X0368595Y0203150D01*
X0366978Y0202480D01*
X0365740Y0201242D01*
X0365070Y0199625D01*
X0365070Y0197875D01*
X0365740Y0196258D01*
X0366978Y0195020D01*
X0368595Y0194350D01*
X0376346Y0194350D01*
X0377963Y0195020D01*
X0379201Y0196258D01*
X0379870Y0197875D01*
X0379870Y0199625D01*
X0379201Y0201242D01*
X0378525Y0201918D01*
X0383970Y0207363D01*
X0383970Y0322337D01*
X0382857Y0323450D01*
X0350670Y0355637D01*
X0350670Y0367358D01*
X0351126Y0367547D01*
X0352355Y0368775D01*
X0353020Y0370381D01*
X0353020Y0372119D01*
X0352355Y0373725D01*
X0351126Y0374953D01*
X0349521Y0375618D01*
X0347783Y0375618D01*
X0346177Y0374953D01*
X0345074Y0373850D01*
X0345057Y0373850D01*
X0342570Y0376337D01*
X0341457Y0377450D01*
X0295783Y0377450D01*
X0282049Y0363716D01*
X0282670Y0365216D01*
X0282670Y0367284D01*
X0281879Y0369196D01*
X0280416Y0370658D01*
X0279238Y0371146D01*
X0279543Y0371246D01*
X0280301Y0371632D01*
X0280988Y0372131D01*
X0281589Y0372732D01*
X0282089Y0373420D01*
X0282475Y0374177D01*
X0282738Y0374985D01*
X0282870Y0375825D01*
X0282870Y0375866D01*
X0277855Y0375866D01*
X0277855Y0376634D01*
X0282870Y0376634D01*
X0282870Y0376675D01*
X0282738Y0377515D01*
X0282475Y0378323D01*
X0282089Y0379080D01*
X0281589Y0379768D01*
X0280988Y0380369D01*
X0280301Y0380868D01*
X0279543Y0381254D01*
X0279238Y0381354D01*
X0280416Y0381842D01*
X0281879Y0383304D01*
X0282670Y0385216D01*
X0282670Y0387284D01*
X0281879Y0389196D01*
X0280416Y0390658D01*
X0278988Y0391250D01*
X0280416Y0391842D01*
X0281879Y0393304D01*
X0282670Y0395216D01*
X0282670Y0397284D01*
X0281879Y0399196D01*
X0280416Y0400658D01*
X0278988Y0401250D01*
X0280416Y0401842D01*
X0281879Y0403304D01*
X0282670Y0405216D01*
X0282670Y0407284D01*
X0281879Y0409196D01*
X0280416Y0410658D01*
X0278988Y0411250D01*
X0280416Y0411842D01*
X0281879Y0413304D01*
X0282670Y0415216D01*
X0282670Y0417284D01*
X0281879Y0419196D01*
X0280416Y0420658D01*
X0278988Y0421250D01*
X0280416Y0421842D01*
X0281879Y0423304D01*
X0282670Y0425216D01*
X0282670Y0427284D01*
X0281879Y0429196D01*
X0280416Y0430658D01*
X0279638Y0430981D01*
X0372526Y0430981D01*
X0370778Y0429972D01*
X0368749Y0427942D01*
X0367314Y0425457D01*
X0366571Y0422685D01*
X0366571Y0419815D01*
X0367314Y0417043D01*
X0368749Y0414558D01*
X0370778Y0412528D01*
X0373264Y0411094D01*
X0376036Y0410351D01*
X0378905Y0410351D01*
X0381677Y0411094D01*
X0384163Y0412528D01*
X0386192Y0414558D01*
X0387627Y0417043D01*
X0388370Y0419815D01*
X0388370Y0422685D01*
X0387627Y0425457D01*
X0386192Y0427942D01*
X0384163Y0429972D01*
X0382415Y0430981D01*
X0388461Y0430981D01*
X0388461Y0085535D01*
X0379593Y0085535D01*
X0381677Y0086094D01*
X0384163Y0087528D01*
X0386192Y0089558D01*
X0387627Y0092043D01*
X0388370Y0094815D01*
X0388370Y0097685D01*
X0387627Y0100457D01*
X0386192Y0102942D01*
X0384163Y0104972D01*
X0381677Y0106406D01*
X0378905Y0107149D01*
X0376036Y0107149D01*
X0373264Y0106406D01*
X0370778Y0104972D01*
X0368749Y0102942D01*
X0367314Y0100457D01*
X0366571Y0097685D01*
X0366571Y0094815D01*
X0367314Y0092043D01*
X0368749Y0089558D01*
X0370778Y0087528D01*
X0373264Y0086094D01*
X0375348Y0085535D01*
X0259866Y0085535D01*
X0259866Y0430981D01*
X0275303Y0430981D01*
X0274525Y0430658D01*
X0273062Y0429196D01*
X0272270Y0427284D01*
X0272270Y0425216D01*
X0273062Y0423304D01*
X0274525Y0421842D01*
X0275953Y0421250D01*
X0274525Y0420658D01*
X0273062Y0419196D01*
X0272270Y0417284D01*
X0272270Y0415216D01*
X0273062Y0413304D01*
X0274525Y0411842D01*
X0275953Y0411250D01*
X0274525Y0410658D01*
X0273062Y0409196D01*
X0272270Y0407284D01*
X0272270Y0405216D01*
X0273062Y0403304D01*
X0274525Y0401842D01*
X0275953Y0401250D01*
X0274525Y0400658D01*
X0273062Y0399196D01*
X0272270Y0397284D01*
X0272270Y0395216D01*
X0273062Y0393304D01*
X0274525Y0391842D01*
X0275953Y0391250D01*
X0274525Y0390658D01*
X0273062Y0389196D01*
X0272270Y0387284D01*
X0272270Y0385216D01*
X0273062Y0383304D01*
X0274525Y0381842D01*
X0275703Y0381354D01*
X0275398Y0381254D01*
X0274640Y0380868D01*
X0273953Y0380369D01*
X0273352Y0379768D01*
X0272852Y0379080D01*
X0272466Y0378323D01*
X0272203Y0377515D01*
X0272070Y0376675D01*
X0272070Y0376634D01*
X0277086Y0376634D01*
X0277086Y0375866D01*
X0272070Y0375866D01*
X0272070Y0375825D01*
X0272203Y0374985D01*
X0272466Y0374177D01*
X0272852Y0373420D01*
X0273352Y0372732D01*
X0273953Y0372131D01*
X0274640Y0371632D01*
X0275398Y0371246D01*
X0275703Y0371146D01*
X0274525Y0370658D01*
X0273062Y0369196D01*
X0272270Y0367284D01*
X0272270Y0365216D01*
X0272674Y0364241D01*
X0270370Y0361937D01*
X0270370Y0353163D01*
X0271483Y0352050D01*
X0275083Y0348450D01*
X0287683Y0348450D01*
X0313683Y0322450D01*
X0297370Y0306137D01*
X0297804Y0306570D02*
X0259866Y0306570D01*
X0259866Y0307769D02*
X0299002Y0307769D01*
X0300201Y0308967D02*
X0259866Y0308967D01*
X0259866Y0310166D02*
X0301399Y0310166D01*
X0302598Y0311364D02*
X0259866Y0311364D01*
X0259866Y0312563D02*
X0303796Y0312563D01*
X0304995Y0313761D02*
X0259866Y0313761D01*
X0259866Y0314960D02*
X0306193Y0314960D01*
X0307392Y0316158D02*
X0259866Y0316158D01*
X0259866Y0317357D02*
X0308590Y0317357D01*
X0309789Y0318555D02*
X0259866Y0318555D01*
X0259866Y0319754D02*
X0310987Y0319754D01*
X0312186Y0320952D02*
X0259866Y0320952D01*
X0259866Y0322151D02*
X0313384Y0322151D01*
X0312784Y0323349D02*
X0259866Y0323349D01*
X0259866Y0324548D02*
X0311586Y0324548D01*
X0310387Y0325746D02*
X0280381Y0325746D01*
X0281677Y0326094D02*
X0278905Y0325351D01*
X0276036Y0325351D01*
X0273264Y0326094D01*
X0270778Y0327528D01*
X0268749Y0329558D01*
X0267314Y0332043D01*
X0266571Y0334815D01*
X0266571Y0337685D01*
X0267314Y0340457D01*
X0268749Y0342942D01*
X0270778Y0344972D01*
X0273264Y0346406D01*
X0276036Y0347149D01*
X0278905Y0347149D01*
X0281677Y0346406D01*
X0284163Y0344972D01*
X0286192Y0342942D01*
X0287627Y0340457D01*
X0288370Y0337685D01*
X0288370Y0334815D01*
X0287627Y0332043D01*
X0286192Y0329558D01*
X0284163Y0327528D01*
X0281677Y0326094D01*
X0283152Y0326945D02*
X0309189Y0326945D01*
X0307990Y0328143D02*
X0284778Y0328143D01*
X0285976Y0329342D02*
X0306792Y0329342D01*
X0305593Y0330540D02*
X0286759Y0330540D01*
X0287451Y0331739D02*
X0304395Y0331739D01*
X0303196Y0332937D02*
X0287867Y0332937D01*
X0288188Y0334136D02*
X0301998Y0334136D01*
X0300799Y0335334D02*
X0288370Y0335334D01*
X0288370Y0336533D02*
X0299601Y0336533D01*
X0298402Y0337731D02*
X0288357Y0337731D01*
X0288036Y0338930D02*
X0297204Y0338930D01*
X0296005Y0340128D02*
X0287715Y0340128D01*
X0287125Y0341327D02*
X0294807Y0341327D01*
X0293608Y0342525D02*
X0286433Y0342525D01*
X0285410Y0343724D02*
X0292409Y0343724D01*
X0291211Y0344922D02*
X0284212Y0344922D01*
X0282172Y0346121D02*
X0290012Y0346121D01*
X0288814Y0347320D02*
X0259866Y0347320D01*
X0259866Y0348518D02*
X0275015Y0348518D01*
X0273817Y0349717D02*
X0259866Y0349717D01*
X0259866Y0350915D02*
X0272618Y0350915D01*
X0271420Y0352114D02*
X0259866Y0352114D01*
X0259866Y0353312D02*
X0270370Y0353312D01*
X0270370Y0354511D02*
X0259866Y0354511D01*
X0259866Y0355709D02*
X0270370Y0355709D01*
X0270370Y0356908D02*
X0259866Y0356908D01*
X0259866Y0358106D02*
X0270370Y0358106D01*
X0270370Y0359305D02*
X0259866Y0359305D01*
X0259866Y0360503D02*
X0270370Y0360503D01*
X0270370Y0361702D02*
X0259866Y0361702D01*
X0259866Y0362900D02*
X0271334Y0362900D01*
X0272532Y0364099D02*
X0259866Y0364099D01*
X0259866Y0365297D02*
X0272270Y0365297D01*
X0272270Y0366496D02*
X0259866Y0366496D01*
X0259866Y0367694D02*
X0272440Y0367694D01*
X0272937Y0368893D02*
X0259866Y0368893D01*
X0259866Y0370091D02*
X0273958Y0370091D01*
X0275311Y0371290D02*
X0259866Y0371290D01*
X0259866Y0372488D02*
X0273595Y0372488D01*
X0272716Y0373687D02*
X0259866Y0373687D01*
X0259866Y0374885D02*
X0272236Y0374885D01*
X0272167Y0377282D02*
X0259866Y0377282D01*
X0259866Y0376084D02*
X0277086Y0376084D01*
X0277855Y0376084D02*
X0294417Y0376084D01*
X0293219Y0374885D02*
X0282705Y0374885D01*
X0282225Y0373687D02*
X0292020Y0373687D01*
X0290822Y0372488D02*
X0281345Y0372488D01*
X0279630Y0371290D02*
X0289623Y0371290D01*
X0288425Y0370091D02*
X0280983Y0370091D01*
X0282004Y0368893D02*
X0287226Y0368893D01*
X0286028Y0367694D02*
X0282501Y0367694D01*
X0282670Y0366496D02*
X0284829Y0366496D01*
X0283631Y0365297D02*
X0282670Y0365297D01*
X0282432Y0364099D02*
X0282208Y0364099D01*
X0285409Y0361702D02*
X0327070Y0361702D01*
X0327070Y0362900D02*
X0286608Y0362900D01*
X0287806Y0364099D02*
X0327070Y0364099D01*
X0327070Y0365297D02*
X0289005Y0365297D01*
X0290203Y0366496D02*
X0327070Y0366496D01*
X0327070Y0367176D02*
X0327070Y0341463D01*
X0328183Y0340350D01*
X0328183Y0340350D01*
X0366516Y0302018D01*
X0365740Y0301242D01*
X0365070Y0299625D01*
X0365070Y0297875D01*
X0365740Y0296258D01*
X0366978Y0295020D01*
X0368595Y0294350D01*
X0375583Y0294350D01*
X0374383Y0293150D01*
X0368595Y0293150D01*
X0366978Y0292480D01*
X0365740Y0291242D01*
X0365070Y0289625D01*
X0365070Y0287875D01*
X0365740Y0286258D01*
X0366978Y0285020D01*
X0368595Y0284350D01*
X0376346Y0284350D01*
X0377963Y0285020D01*
X0379201Y0286258D01*
X0379870Y0287875D01*
X0379870Y0289625D01*
X0379201Y0291242D01*
X0378525Y0291918D01*
X0380170Y0293563D01*
X0380170Y0273037D01*
X0378075Y0275132D01*
X0379201Y0276258D01*
X0379870Y0277875D01*
X0379870Y0279625D01*
X0379201Y0281242D01*
X0377963Y0282480D01*
X0376346Y0283150D01*
X0368595Y0283150D01*
X0366978Y0282480D01*
X0365740Y0281242D01*
X0365702Y0281150D01*
X0360357Y0281150D01*
X0318270Y0323237D01*
X0317157Y0324350D01*
X0290370Y0351137D01*
X0289257Y0352250D01*
X0280824Y0352250D01*
X0281879Y0353304D01*
X0282670Y0355216D01*
X0282670Y0357284D01*
X0282179Y0358471D01*
X0297357Y0373650D01*
X0324917Y0373650D01*
X0324283Y0372119D01*
X0324283Y0370381D01*
X0324948Y0368775D01*
X0326177Y0367547D01*
X0327070Y0367176D01*
X0326029Y0367694D02*
X0291402Y0367694D01*
X0292600Y0368893D02*
X0324900Y0368893D01*
X0324403Y0370091D02*
X0293799Y0370091D01*
X0294997Y0371290D02*
X0324283Y0371290D01*
X0324436Y0372488D02*
X0296196Y0372488D01*
X0295616Y0377282D02*
X0282774Y0377282D01*
X0282394Y0378481D02*
X0388461Y0378481D01*
X0388461Y0379679D02*
X0281654Y0379679D01*
X0280282Y0380878D02*
X0388461Y0380878D01*
X0388461Y0382076D02*
X0280651Y0382076D01*
X0281849Y0383275D02*
X0388461Y0383275D01*
X0388461Y0384473D02*
X0282363Y0384473D01*
X0282670Y0385672D02*
X0388461Y0385672D01*
X0388461Y0386870D02*
X0282670Y0386870D01*
X0282345Y0388069D02*
X0388461Y0388069D01*
X0388461Y0389267D02*
X0281807Y0389267D01*
X0280608Y0390466D02*
X0388461Y0390466D01*
X0388461Y0391664D02*
X0279988Y0391664D01*
X0281437Y0392863D02*
X0388461Y0392863D01*
X0388461Y0394061D02*
X0282192Y0394061D01*
X0282670Y0395260D02*
X0388461Y0395260D01*
X0388461Y0396458D02*
X0282670Y0396458D01*
X0282516Y0397657D02*
X0388461Y0397657D01*
X0388461Y0398855D02*
X0282020Y0398855D01*
X0281020Y0400054D02*
X0388461Y0400054D01*
X0388461Y0401253D02*
X0278994Y0401253D01*
X0281025Y0402451D02*
X0388461Y0402451D01*
X0388461Y0403650D02*
X0282022Y0403650D01*
X0282518Y0404848D02*
X0388461Y0404848D01*
X0388461Y0406047D02*
X0282670Y0406047D01*
X0282670Y0407245D02*
X0388461Y0407245D01*
X0388461Y0408444D02*
X0282190Y0408444D01*
X0281432Y0409642D02*
X0388461Y0409642D01*
X0388461Y0410841D02*
X0380733Y0410841D01*
X0383315Y0412039D02*
X0388461Y0412039D01*
X0388461Y0413238D02*
X0384872Y0413238D01*
X0386070Y0414436D02*
X0388461Y0414436D01*
X0388461Y0415635D02*
X0386814Y0415635D01*
X0387506Y0416833D02*
X0388461Y0416833D01*
X0388461Y0418032D02*
X0387892Y0418032D01*
X0388213Y0419230D02*
X0388461Y0419230D01*
X0388461Y0420429D02*
X0388370Y0420429D01*
X0388370Y0421627D02*
X0388461Y0421627D01*
X0388461Y0422826D02*
X0388332Y0422826D01*
X0388461Y0424024D02*
X0388011Y0424024D01*
X0387690Y0425223D02*
X0388461Y0425223D01*
X0388461Y0426421D02*
X0387070Y0426421D01*
X0386378Y0427620D02*
X0388461Y0427620D01*
X0388461Y0428818D02*
X0385316Y0428818D01*
X0384084Y0430017D02*
X0388461Y0430017D01*
X0370857Y0430017D02*
X0281058Y0430017D01*
X0282035Y0428818D02*
X0369625Y0428818D01*
X0368563Y0427620D02*
X0282532Y0427620D01*
X0282670Y0426421D02*
X0367871Y0426421D01*
X0367251Y0425223D02*
X0282670Y0425223D01*
X0282177Y0424024D02*
X0366930Y0424024D01*
X0366609Y0422826D02*
X0281400Y0422826D01*
X0279898Y0421627D02*
X0366571Y0421627D01*
X0366571Y0420429D02*
X0280646Y0420429D01*
X0281844Y0419230D02*
X0366728Y0419230D01*
X0367049Y0418032D02*
X0282361Y0418032D01*
X0282670Y0416833D02*
X0367435Y0416833D01*
X0368127Y0415635D02*
X0282670Y0415635D01*
X0282348Y0414436D02*
X0368871Y0414436D01*
X0370069Y0413238D02*
X0281812Y0413238D01*
X0280614Y0412039D02*
X0371626Y0412039D01*
X0374208Y0410841D02*
X0279976Y0410841D01*
X0274965Y0410841D02*
X0259866Y0410841D01*
X0259866Y0412039D02*
X0274327Y0412039D01*
X0273129Y0413238D02*
X0259866Y0413238D01*
X0259866Y0414436D02*
X0272593Y0414436D01*
X0272270Y0415635D02*
X0259866Y0415635D01*
X0259866Y0416833D02*
X0272270Y0416833D01*
X0272580Y0418032D02*
X0259866Y0418032D01*
X0259866Y0419230D02*
X0273097Y0419230D01*
X0274295Y0420429D02*
X0259866Y0420429D01*
X0259866Y0421627D02*
X0275043Y0421627D01*
X0273541Y0422826D02*
X0259866Y0422826D01*
X0259866Y0424024D02*
X0272764Y0424024D01*
X0272270Y0425223D02*
X0259866Y0425223D01*
X0259866Y0426421D02*
X0272270Y0426421D01*
X0272409Y0427620D02*
X0259866Y0427620D01*
X0259866Y0428818D02*
X0272906Y0428818D01*
X0273883Y0430017D02*
X0259866Y0430017D01*
X0259866Y0409642D02*
X0273509Y0409642D01*
X0272751Y0408444D02*
X0259866Y0408444D01*
X0259866Y0407245D02*
X0272270Y0407245D01*
X0272270Y0406047D02*
X0259866Y0406047D01*
X0259866Y0404848D02*
X0272423Y0404848D01*
X0272919Y0403650D02*
X0259866Y0403650D01*
X0259866Y0402451D02*
X0273916Y0402451D01*
X0275947Y0401253D02*
X0259866Y0401253D01*
X0259866Y0400054D02*
X0273921Y0400054D01*
X0272921Y0398855D02*
X0259866Y0398855D01*
X0259866Y0397657D02*
X0272425Y0397657D01*
X0272270Y0396458D02*
X0259866Y0396458D01*
X0259866Y0395260D02*
X0272270Y0395260D01*
X0272749Y0394061D02*
X0259866Y0394061D01*
X0259866Y0392863D02*
X0273504Y0392863D01*
X0274953Y0391664D02*
X0259866Y0391664D01*
X0259866Y0390466D02*
X0274332Y0390466D01*
X0273134Y0389267D02*
X0259866Y0389267D01*
X0259866Y0388069D02*
X0272595Y0388069D01*
X0272270Y0386870D02*
X0259866Y0386870D01*
X0259866Y0385672D02*
X0272270Y0385672D01*
X0272578Y0384473D02*
X0259866Y0384473D01*
X0259866Y0383275D02*
X0273092Y0383275D01*
X0274290Y0382076D02*
X0259866Y0382076D01*
X0259866Y0380878D02*
X0274659Y0380878D01*
X0273287Y0379679D02*
X0259866Y0379679D01*
X0259866Y0378481D02*
X0272547Y0378481D01*
X0284211Y0360503D02*
X0327070Y0360503D01*
X0327070Y0359305D02*
X0283012Y0359305D01*
X0282330Y0358106D02*
X0327070Y0358106D01*
X0327070Y0356908D02*
X0282670Y0356908D01*
X0282670Y0355709D02*
X0327070Y0355709D01*
X0327070Y0354511D02*
X0282378Y0354511D01*
X0281882Y0353312D02*
X0327070Y0353312D01*
X0327070Y0352114D02*
X0289394Y0352114D01*
X0290370Y0351137D02*
X0290370Y0351137D01*
X0290592Y0350915D02*
X0327070Y0350915D01*
X0327070Y0349717D02*
X0291791Y0349717D01*
X0292989Y0348518D02*
X0327070Y0348518D01*
X0327070Y0347320D02*
X0294188Y0347320D01*
X0295386Y0346121D02*
X0327070Y0346121D01*
X0327070Y0344922D02*
X0296585Y0344922D01*
X0297783Y0343724D02*
X0327070Y0343724D01*
X0327070Y0342525D02*
X0298982Y0342525D01*
X0300180Y0341327D02*
X0327207Y0341327D01*
X0328405Y0340128D02*
X0301379Y0340128D01*
X0302578Y0338930D02*
X0329604Y0338930D01*
X0330802Y0337731D02*
X0303776Y0337731D01*
X0304975Y0336533D02*
X0332001Y0336533D01*
X0333199Y0335334D02*
X0306173Y0335334D01*
X0307372Y0334136D02*
X0334398Y0334136D01*
X0335596Y0332937D02*
X0308570Y0332937D01*
X0309769Y0331739D02*
X0336795Y0331739D01*
X0337993Y0330540D02*
X0310967Y0330540D01*
X0312166Y0329342D02*
X0339192Y0329342D01*
X0340390Y0328143D02*
X0313364Y0328143D01*
X0314563Y0326945D02*
X0341589Y0326945D01*
X0342787Y0325746D02*
X0315761Y0325746D01*
X0316960Y0324548D02*
X0343986Y0324548D01*
X0345184Y0323349D02*
X0318158Y0323349D01*
X0318270Y0323237D02*
X0318270Y0323237D01*
X0319357Y0322151D02*
X0346383Y0322151D01*
X0347581Y0320952D02*
X0320555Y0320952D01*
X0321754Y0319754D02*
X0348780Y0319754D01*
X0349978Y0318555D02*
X0322952Y0318555D01*
X0324151Y0317357D02*
X0351177Y0317357D01*
X0352375Y0316158D02*
X0325349Y0316158D01*
X0326548Y0314960D02*
X0353574Y0314960D01*
X0354772Y0313761D02*
X0327746Y0313761D01*
X0328945Y0312563D02*
X0355971Y0312563D01*
X0357169Y0311364D02*
X0330143Y0311364D01*
X0331342Y0310166D02*
X0358368Y0310166D01*
X0359566Y0308967D02*
X0332540Y0308967D01*
X0333739Y0307769D02*
X0360765Y0307769D01*
X0361963Y0306570D02*
X0334937Y0306570D01*
X0336136Y0305372D02*
X0363162Y0305372D01*
X0364360Y0304173D02*
X0337334Y0304173D01*
X0338533Y0302975D02*
X0365559Y0302975D01*
X0366274Y0301776D02*
X0339731Y0301776D01*
X0340930Y0300578D02*
X0365465Y0300578D01*
X0365070Y0299379D02*
X0342128Y0299379D01*
X0343327Y0298181D02*
X0365070Y0298181D01*
X0365440Y0296982D02*
X0344525Y0296982D01*
X0345724Y0295784D02*
X0366214Y0295784D01*
X0368028Y0294585D02*
X0346922Y0294585D01*
X0348121Y0293387D02*
X0374620Y0293387D01*
X0378795Y0292188D02*
X0380170Y0292188D01*
X0380170Y0293387D02*
X0379994Y0293387D01*
X0380170Y0290989D02*
X0379305Y0290989D01*
X0379802Y0289791D02*
X0380170Y0289791D01*
X0380170Y0288592D02*
X0379870Y0288592D01*
X0379671Y0287394D02*
X0380170Y0287394D01*
X0380170Y0286195D02*
X0379138Y0286195D01*
X0380170Y0284997D02*
X0377907Y0284997D01*
X0377674Y0282600D02*
X0380170Y0282600D01*
X0380170Y0283798D02*
X0357709Y0283798D01*
X0358908Y0282600D02*
X0367267Y0282600D01*
X0365899Y0281401D02*
X0360106Y0281401D01*
X0356511Y0284997D02*
X0367033Y0284997D01*
X0365802Y0286195D02*
X0355312Y0286195D01*
X0354114Y0287394D02*
X0365270Y0287394D01*
X0365070Y0288592D02*
X0352915Y0288592D01*
X0351716Y0289791D02*
X0365139Y0289791D01*
X0365636Y0290989D02*
X0350518Y0290989D01*
X0349319Y0292188D02*
X0366686Y0292188D01*
X0353231Y0280203D02*
X0301170Y0280203D01*
X0301170Y0281401D02*
X0352032Y0281401D01*
X0350834Y0282600D02*
X0301170Y0282600D01*
X0301170Y0283798D02*
X0349635Y0283798D01*
X0348437Y0284997D02*
X0301170Y0284997D01*
X0301170Y0286195D02*
X0347238Y0286195D01*
X0346040Y0287394D02*
X0301170Y0287394D01*
X0301170Y0288592D02*
X0344841Y0288592D01*
X0343642Y0289791D02*
X0301170Y0289791D01*
X0301170Y0290989D02*
X0342444Y0290989D01*
X0341245Y0292188D02*
X0301170Y0292188D01*
X0301170Y0293387D02*
X0340047Y0293387D01*
X0338848Y0294585D02*
X0301170Y0294585D01*
X0301170Y0295784D02*
X0337650Y0295784D01*
X0336451Y0296982D02*
X0301170Y0296982D01*
X0301170Y0298181D02*
X0335253Y0298181D01*
X0334054Y0299379D02*
X0301170Y0299379D01*
X0301170Y0300578D02*
X0332856Y0300578D01*
X0331657Y0301776D02*
X0301170Y0301776D01*
X0301170Y0302975D02*
X0330459Y0302975D01*
X0329260Y0304173D02*
X0301170Y0304173D01*
X0301979Y0305372D02*
X0328062Y0305372D01*
X0326863Y0306570D02*
X0303178Y0306570D01*
X0304376Y0307769D02*
X0325665Y0307769D01*
X0324466Y0308967D02*
X0305575Y0308967D01*
X0306773Y0310166D02*
X0312715Y0310166D01*
X0314626Y0310166D02*
X0323268Y0310166D01*
X0322069Y0311364D02*
X0316393Y0311364D01*
X0310948Y0311364D02*
X0307972Y0311364D01*
X0309170Y0312563D02*
X0310358Y0312563D01*
X0317157Y0324350D02*
X0317157Y0324350D01*
X0333779Y0340128D02*
X0358105Y0340128D01*
X0359304Y0338930D02*
X0334978Y0338930D01*
X0336176Y0337731D02*
X0360502Y0337731D01*
X0361701Y0336533D02*
X0337375Y0336533D01*
X0338573Y0335334D02*
X0362899Y0335334D01*
X0364098Y0334136D02*
X0339772Y0334136D01*
X0340970Y0332937D02*
X0365296Y0332937D01*
X0366495Y0331739D02*
X0342169Y0331739D01*
X0343367Y0330540D02*
X0367693Y0330540D01*
X0368892Y0329342D02*
X0344566Y0329342D01*
X0345764Y0328143D02*
X0370090Y0328143D01*
X0371289Y0326945D02*
X0346963Y0326945D01*
X0348161Y0325746D02*
X0372487Y0325746D01*
X0373686Y0324548D02*
X0349360Y0324548D01*
X0350558Y0323349D02*
X0369104Y0323349D01*
X0369108Y0323350D02*
X0368393Y0323237D01*
X0367705Y0323013D01*
X0367060Y0322684D01*
X0366474Y0322259D01*
X0365962Y0321747D01*
X0365536Y0321161D01*
X0365207Y0320516D01*
X0364984Y0319827D01*
X0364876Y0319150D01*
X0372070Y0319150D01*
X0372070Y0318350D01*
X0364876Y0318350D01*
X0364984Y0317673D01*
X0365207Y0316984D01*
X0365536Y0316339D01*
X0365962Y0315753D01*
X0366474Y0315241D01*
X0367060Y0314816D01*
X0367705Y0314487D01*
X0368393Y0314263D01*
X0369108Y0314150D01*
X0372070Y0314150D01*
X0372070Y0318350D01*
X0372870Y0318350D01*
X0372870Y0314150D01*
X0375833Y0314150D01*
X0376548Y0314263D01*
X0377236Y0314487D01*
X0377881Y0314816D01*
X0378370Y0315171D01*
X0378370Y0312073D01*
X0377963Y0312480D01*
X0376346Y0313150D01*
X0368595Y0313150D01*
X0366978Y0312480D01*
X0365740Y0311242D01*
X0365070Y0309625D01*
X0365070Y0308837D01*
X0330870Y0343037D01*
X0330870Y0367441D01*
X0331126Y0367547D01*
X0332355Y0368775D01*
X0333020Y0370381D01*
X0333020Y0372119D01*
X0332386Y0373650D01*
X0334917Y0373650D01*
X0334283Y0372119D01*
X0334283Y0370381D01*
X0334948Y0368775D01*
X0336177Y0367547D01*
X0336970Y0367218D01*
X0336970Y0361263D01*
X0374883Y0323350D01*
X0372870Y0323350D01*
X0372870Y0319150D01*
X0372070Y0319150D01*
X0372070Y0323350D01*
X0369108Y0323350D01*
X0372070Y0323349D02*
X0372870Y0323349D01*
X0372870Y0322151D02*
X0372070Y0322151D01*
X0372070Y0320952D02*
X0372870Y0320952D01*
X0372870Y0319754D02*
X0372070Y0319754D01*
X0372070Y0318555D02*
X0355352Y0318555D01*
X0356551Y0317357D02*
X0365086Y0317357D01*
X0365668Y0316158D02*
X0357749Y0316158D01*
X0358948Y0314960D02*
X0366861Y0314960D01*
X0367177Y0312563D02*
X0361345Y0312563D01*
X0360146Y0313761D02*
X0378370Y0313761D01*
X0378370Y0312563D02*
X0377764Y0312563D01*
X0378080Y0314960D02*
X0378370Y0314960D01*
X0372870Y0314960D02*
X0372070Y0314960D01*
X0372070Y0316158D02*
X0372870Y0316158D01*
X0372870Y0317357D02*
X0372070Y0317357D01*
X0366366Y0322151D02*
X0351757Y0322151D01*
X0352955Y0320952D02*
X0365430Y0320952D01*
X0364972Y0319754D02*
X0354154Y0319754D01*
X0362543Y0311364D02*
X0365862Y0311364D01*
X0365294Y0310166D02*
X0363742Y0310166D01*
X0364940Y0308967D02*
X0365070Y0308967D01*
X0381760Y0324548D02*
X0388461Y0324548D01*
X0388461Y0325746D02*
X0380561Y0325746D01*
X0379363Y0326945D02*
X0388461Y0326945D01*
X0388461Y0328143D02*
X0378164Y0328143D01*
X0376966Y0329342D02*
X0388461Y0329342D01*
X0388461Y0330540D02*
X0375767Y0330540D01*
X0374569Y0331739D02*
X0388461Y0331739D01*
X0388461Y0332937D02*
X0373370Y0332937D01*
X0372172Y0334136D02*
X0388461Y0334136D01*
X0388461Y0335334D02*
X0370973Y0335334D01*
X0369775Y0336533D02*
X0388461Y0336533D01*
X0388461Y0337731D02*
X0368576Y0337731D01*
X0367378Y0338930D02*
X0388461Y0338930D01*
X0388461Y0340128D02*
X0366179Y0340128D01*
X0364980Y0341327D02*
X0388461Y0341327D01*
X0388461Y0342525D02*
X0363782Y0342525D01*
X0362583Y0343724D02*
X0388461Y0343724D01*
X0388461Y0344922D02*
X0361385Y0344922D01*
X0360186Y0346121D02*
X0388461Y0346121D01*
X0388461Y0347320D02*
X0358988Y0347320D01*
X0357789Y0348518D02*
X0388461Y0348518D01*
X0388461Y0349717D02*
X0356591Y0349717D01*
X0355392Y0350915D02*
X0388461Y0350915D01*
X0388461Y0352114D02*
X0354194Y0352114D01*
X0352995Y0353312D02*
X0388461Y0353312D01*
X0388461Y0354511D02*
X0351797Y0354511D01*
X0350670Y0355709D02*
X0388461Y0355709D01*
X0388461Y0356908D02*
X0350670Y0356908D01*
X0350670Y0358106D02*
X0388461Y0358106D01*
X0388461Y0359305D02*
X0350670Y0359305D01*
X0350670Y0360503D02*
X0388461Y0360503D01*
X0388461Y0361702D02*
X0350670Y0361702D01*
X0350670Y0362900D02*
X0388461Y0362900D01*
X0388461Y0364099D02*
X0350670Y0364099D01*
X0350670Y0365297D02*
X0388461Y0365297D01*
X0388461Y0366496D02*
X0350670Y0366496D01*
X0351274Y0367694D02*
X0354184Y0367694D01*
X0354192Y0367664D02*
X0354403Y0367299D01*
X0354701Y0367001D01*
X0355065Y0366791D01*
X0355472Y0366681D01*
X0358267Y0366681D01*
X0358267Y0370866D01*
X0354083Y0370866D01*
X0354083Y0368071D01*
X0354192Y0367664D01*
X0354083Y0368893D02*
X0352404Y0368893D01*
X0352900Y0370091D02*
X0354083Y0370091D01*
X0354083Y0371634D02*
X0354083Y0374429D01*
X0354192Y0374836D01*
X0354403Y0375201D01*
X0354701Y0375499D01*
X0355065Y0375709D01*
X0355472Y0375818D01*
X0358267Y0375818D01*
X0358267Y0371634D01*
X0358267Y0370866D01*
X0359036Y0370866D01*
X0359036Y0371634D01*
X0363220Y0371634D01*
X0363220Y0374429D01*
X0363111Y0374836D01*
X0362900Y0375201D01*
X0362602Y0375499D01*
X0362238Y0375709D01*
X0361831Y0375818D01*
X0359036Y0375818D01*
X0359036Y0371634D01*
X0358267Y0371634D01*
X0354083Y0371634D01*
X0354083Y0372488D02*
X0352867Y0372488D01*
X0353020Y0371290D02*
X0358267Y0371290D01*
X0359036Y0371290D02*
X0388461Y0371290D01*
X0388461Y0372488D02*
X0363220Y0372488D01*
X0363220Y0373687D02*
X0388461Y0373687D01*
X0388461Y0374885D02*
X0363083Y0374885D01*
X0363220Y0370866D02*
X0359036Y0370866D01*
X0359036Y0366681D01*
X0361831Y0366681D01*
X0362238Y0366791D01*
X0362602Y0367001D01*
X0362900Y0367299D01*
X0363111Y0367664D01*
X0363220Y0368071D01*
X0363220Y0370866D01*
X0363220Y0370091D02*
X0388461Y0370091D01*
X0388461Y0368893D02*
X0363220Y0368893D01*
X0363119Y0367694D02*
X0388461Y0367694D01*
X0388461Y0376084D02*
X0342824Y0376084D01*
X0344022Y0374885D02*
X0346109Y0374885D01*
X0341625Y0377282D02*
X0388461Y0377282D01*
X0359036Y0374885D02*
X0358267Y0374885D01*
X0358267Y0373687D02*
X0359036Y0373687D01*
X0359036Y0372488D02*
X0358267Y0372488D01*
X0358267Y0370091D02*
X0359036Y0370091D01*
X0359036Y0368893D02*
X0358267Y0368893D01*
X0358267Y0367694D02*
X0359036Y0367694D01*
X0354083Y0373687D02*
X0352371Y0373687D01*
X0351194Y0374885D02*
X0354221Y0374885D01*
X0336970Y0366496D02*
X0330870Y0366496D01*
X0330870Y0365297D02*
X0336970Y0365297D01*
X0336970Y0364099D02*
X0330870Y0364099D01*
X0330870Y0362900D02*
X0336970Y0362900D01*
X0336970Y0361702D02*
X0330870Y0361702D01*
X0330870Y0360503D02*
X0337730Y0360503D01*
X0338929Y0359305D02*
X0330870Y0359305D01*
X0330870Y0358106D02*
X0340127Y0358106D01*
X0341326Y0356908D02*
X0330870Y0356908D01*
X0330870Y0355709D02*
X0342524Y0355709D01*
X0343723Y0354511D02*
X0330870Y0354511D01*
X0330870Y0353312D02*
X0344921Y0353312D01*
X0346120Y0352114D02*
X0330870Y0352114D01*
X0330870Y0350915D02*
X0347318Y0350915D01*
X0348517Y0349717D02*
X0330870Y0349717D01*
X0330870Y0348518D02*
X0349715Y0348518D01*
X0350914Y0347320D02*
X0330870Y0347320D01*
X0330870Y0346121D02*
X0352112Y0346121D01*
X0353311Y0344922D02*
X0330870Y0344922D01*
X0330870Y0343724D02*
X0354509Y0343724D01*
X0355708Y0342525D02*
X0331382Y0342525D01*
X0332580Y0341327D02*
X0356907Y0341327D01*
X0382958Y0323349D02*
X0388461Y0323349D01*
X0388461Y0322151D02*
X0383970Y0322151D01*
X0383970Y0320952D02*
X0388461Y0320952D01*
X0388461Y0319754D02*
X0383970Y0319754D01*
X0383970Y0318555D02*
X0388461Y0318555D01*
X0388461Y0317357D02*
X0383970Y0317357D01*
X0383970Y0316158D02*
X0388461Y0316158D01*
X0388461Y0314960D02*
X0383970Y0314960D01*
X0383970Y0313761D02*
X0388461Y0313761D01*
X0388461Y0312563D02*
X0383970Y0312563D01*
X0383970Y0311364D02*
X0388461Y0311364D01*
X0388461Y0310166D02*
X0383970Y0310166D01*
X0383970Y0308967D02*
X0388461Y0308967D01*
X0388461Y0307769D02*
X0383970Y0307769D01*
X0383970Y0306570D02*
X0388461Y0306570D01*
X0388461Y0305372D02*
X0383970Y0305372D01*
X0383970Y0304173D02*
X0388461Y0304173D01*
X0388461Y0302975D02*
X0383970Y0302975D01*
X0383970Y0301776D02*
X0388461Y0301776D01*
X0388461Y0300578D02*
X0383970Y0300578D01*
X0383970Y0299379D02*
X0388461Y0299379D01*
X0388461Y0298181D02*
X0383970Y0298181D01*
X0383970Y0296982D02*
X0388461Y0296982D01*
X0388461Y0295784D02*
X0383970Y0295784D01*
X0383970Y0294585D02*
X0388461Y0294585D01*
X0388461Y0293387D02*
X0383970Y0293387D01*
X0383970Y0292188D02*
X0388461Y0292188D01*
X0388461Y0290989D02*
X0383970Y0290989D01*
X0383970Y0289791D02*
X0388461Y0289791D01*
X0388461Y0288592D02*
X0383970Y0288592D01*
X0383970Y0287394D02*
X0388461Y0287394D01*
X0388461Y0286195D02*
X0383970Y0286195D01*
X0383970Y0284997D02*
X0388461Y0284997D01*
X0388461Y0283798D02*
X0383970Y0283798D01*
X0383970Y0282600D02*
X0388461Y0282600D01*
X0388461Y0281401D02*
X0383970Y0281401D01*
X0383970Y0280203D02*
X0388461Y0280203D01*
X0388461Y0279004D02*
X0383970Y0279004D01*
X0383970Y0277806D02*
X0388461Y0277806D01*
X0388461Y0276607D02*
X0383970Y0276607D01*
X0383970Y0275409D02*
X0388461Y0275409D01*
X0388461Y0274210D02*
X0383970Y0274210D01*
X0383970Y0273012D02*
X0388461Y0273012D01*
X0388461Y0271813D02*
X0383970Y0271813D01*
X0383970Y0270615D02*
X0388461Y0270615D01*
X0388461Y0269416D02*
X0383970Y0269416D01*
X0383970Y0268218D02*
X0388461Y0268218D01*
X0388461Y0267019D02*
X0383970Y0267019D01*
X0383970Y0265821D02*
X0388461Y0265821D01*
X0388461Y0264622D02*
X0383970Y0264622D01*
X0383970Y0263424D02*
X0388461Y0263424D01*
X0388461Y0262225D02*
X0383970Y0262225D01*
X0383970Y0261027D02*
X0388461Y0261027D01*
X0388461Y0259828D02*
X0383970Y0259828D01*
X0383970Y0258630D02*
X0388461Y0258630D01*
X0388461Y0257431D02*
X0383970Y0257431D01*
X0383970Y0256233D02*
X0388461Y0256233D01*
X0388461Y0255034D02*
X0383970Y0255034D01*
X0383970Y0253836D02*
X0388461Y0253836D01*
X0388461Y0252637D02*
X0383970Y0252637D01*
X0383970Y0251439D02*
X0388461Y0251439D01*
X0388461Y0250240D02*
X0383970Y0250240D01*
X0383970Y0249042D02*
X0388461Y0249042D01*
X0388461Y0247843D02*
X0383970Y0247843D01*
X0383970Y0246645D02*
X0388461Y0246645D01*
X0388461Y0245446D02*
X0383970Y0245446D01*
X0383970Y0244248D02*
X0388461Y0244248D01*
X0388461Y0243049D02*
X0383970Y0243049D01*
X0383970Y0241851D02*
X0388461Y0241851D01*
X0388461Y0240652D02*
X0383970Y0240652D01*
X0383970Y0239453D02*
X0388461Y0239453D01*
X0388461Y0238255D02*
X0383970Y0238255D01*
X0383970Y0237056D02*
X0388461Y0237056D01*
X0388461Y0235858D02*
X0383970Y0235858D01*
X0383970Y0234659D02*
X0388461Y0234659D01*
X0388461Y0233461D02*
X0383970Y0233461D01*
X0383970Y0232262D02*
X0388461Y0232262D01*
X0388461Y0231064D02*
X0383970Y0231064D01*
X0383970Y0229865D02*
X0388461Y0229865D01*
X0388461Y0228667D02*
X0383970Y0228667D01*
X0383970Y0227468D02*
X0388461Y0227468D01*
X0388461Y0226270D02*
X0383970Y0226270D01*
X0383970Y0225071D02*
X0388461Y0225071D01*
X0388461Y0223873D02*
X0383970Y0223873D01*
X0383970Y0222674D02*
X0388461Y0222674D01*
X0388461Y0221476D02*
X0383970Y0221476D01*
X0383970Y0220277D02*
X0388461Y0220277D01*
X0388461Y0219079D02*
X0383970Y0219079D01*
X0383970Y0217880D02*
X0388461Y0217880D01*
X0388461Y0216682D02*
X0383970Y0216682D01*
X0383970Y0215483D02*
X0388461Y0215483D01*
X0388461Y0214285D02*
X0383970Y0214285D01*
X0383970Y0213086D02*
X0388461Y0213086D01*
X0388461Y0211888D02*
X0383970Y0211888D01*
X0383970Y0210689D02*
X0388461Y0210689D01*
X0388461Y0209491D02*
X0383970Y0209491D01*
X0383970Y0208292D02*
X0388461Y0208292D01*
X0388461Y0207094D02*
X0383701Y0207094D01*
X0382503Y0205895D02*
X0388461Y0205895D01*
X0388461Y0204697D02*
X0381304Y0204697D01*
X0380106Y0203498D02*
X0388461Y0203498D01*
X0388461Y0202300D02*
X0378907Y0202300D01*
X0379259Y0201101D02*
X0388461Y0201101D01*
X0388461Y0199903D02*
X0379756Y0199903D01*
X0379870Y0198704D02*
X0388461Y0198704D01*
X0388461Y0197506D02*
X0379718Y0197506D01*
X0379221Y0196307D02*
X0388461Y0196307D01*
X0388461Y0195109D02*
X0378052Y0195109D01*
X0374732Y0203498D02*
X0360306Y0203498D01*
X0361504Y0204697D02*
X0367758Y0204697D01*
X0366103Y0205895D02*
X0362703Y0205895D01*
X0363901Y0207094D02*
X0365394Y0207094D01*
X0362123Y0210689D02*
X0357597Y0210689D01*
X0358795Y0211888D02*
X0363321Y0211888D01*
X0364520Y0213086D02*
X0359994Y0213086D01*
X0361192Y0214285D02*
X0365718Y0214285D01*
X0366515Y0215483D02*
X0362391Y0215483D01*
X0363589Y0216682D02*
X0365565Y0216682D01*
X0365070Y0217880D02*
X0364788Y0217880D01*
X0361811Y0220277D02*
X0347385Y0220277D01*
X0346186Y0219079D02*
X0360612Y0219079D01*
X0359414Y0217880D02*
X0344988Y0217880D01*
X0343209Y0221476D02*
X0333053Y0221476D01*
X0328488Y0221476D02*
X0326083Y0221476D01*
X0324885Y0220277D02*
X0327640Y0220277D01*
X0327370Y0219079D02*
X0323686Y0219079D01*
X0322488Y0217880D02*
X0327533Y0217880D01*
X0328230Y0216682D02*
X0313511Y0216682D01*
X0313253Y0221476D02*
X0320709Y0221476D01*
X0321908Y0222674D02*
X0304770Y0222674D01*
X0304770Y0221476D02*
X0308688Y0221476D01*
X0307840Y0220277D02*
X0304770Y0220277D01*
X0304770Y0219079D02*
X0307570Y0219079D01*
X0307733Y0217880D02*
X0304770Y0217880D01*
X0304770Y0216682D02*
X0308430Y0216682D01*
X0304770Y0215483D02*
X0357017Y0215483D01*
X0355818Y0214285D02*
X0304770Y0214285D01*
X0304770Y0213086D02*
X0354620Y0213086D01*
X0353421Y0211888D02*
X0304770Y0211888D01*
X0304770Y0210689D02*
X0352223Y0210689D01*
X0351024Y0209491D02*
X0304770Y0209491D01*
X0304770Y0208292D02*
X0349826Y0208292D01*
X0348627Y0207094D02*
X0304770Y0207094D01*
X0304770Y0205895D02*
X0347429Y0205895D01*
X0346230Y0204697D02*
X0304770Y0204697D01*
X0304770Y0203498D02*
X0345032Y0203498D01*
X0343833Y0202300D02*
X0304770Y0202300D01*
X0304770Y0201101D02*
X0342635Y0201101D01*
X0341436Y0199903D02*
X0304770Y0199903D01*
X0304770Y0198704D02*
X0340570Y0198704D01*
X0340570Y0197506D02*
X0304770Y0197506D01*
X0304770Y0196307D02*
X0340570Y0196307D01*
X0340570Y0195109D02*
X0304770Y0195109D01*
X0304770Y0193910D02*
X0340570Y0193910D01*
X0340570Y0192712D02*
X0304770Y0192712D01*
X0304770Y0191513D02*
X0340570Y0191513D01*
X0340570Y0190315D02*
X0304770Y0190315D01*
X0304770Y0189116D02*
X0340570Y0189116D01*
X0340570Y0187918D02*
X0304770Y0187918D01*
X0304770Y0186719D02*
X0340570Y0186719D01*
X0340570Y0185520D02*
X0304770Y0185520D01*
X0304770Y0184322D02*
X0340570Y0184322D01*
X0340570Y0183123D02*
X0304770Y0183123D01*
X0304770Y0181925D02*
X0340570Y0181925D01*
X0340570Y0180726D02*
X0304770Y0180726D01*
X0304770Y0179528D02*
X0340570Y0179528D01*
X0340570Y0178329D02*
X0304770Y0178329D01*
X0304770Y0177131D02*
X0340570Y0177131D01*
X0340570Y0175932D02*
X0305375Y0175932D01*
X0306574Y0174734D02*
X0340570Y0174734D01*
X0340570Y0173535D02*
X0307772Y0173535D01*
X0308971Y0172337D02*
X0340570Y0172337D01*
X0340570Y0171138D02*
X0310169Y0171138D01*
X0311368Y0169940D02*
X0340570Y0169940D01*
X0340570Y0168741D02*
X0312566Y0168741D01*
X0313765Y0167543D02*
X0340570Y0167543D01*
X0340570Y0166344D02*
X0314963Y0166344D01*
X0316162Y0165146D02*
X0340570Y0165146D01*
X0340570Y0163947D02*
X0317360Y0163947D01*
X0318559Y0162749D02*
X0340570Y0162749D01*
X0340570Y0161550D02*
X0319757Y0161550D01*
X0320956Y0160352D02*
X0340570Y0160352D01*
X0340570Y0159153D02*
X0322154Y0159153D01*
X0323353Y0157955D02*
X0340570Y0157955D01*
X0340570Y0156756D02*
X0324551Y0156756D01*
X0325750Y0155558D02*
X0340570Y0155558D01*
X0340570Y0154359D02*
X0326948Y0154359D01*
X0328147Y0153161D02*
X0340570Y0153161D01*
X0340570Y0151962D02*
X0329345Y0151962D01*
X0330544Y0150764D02*
X0340570Y0150764D01*
X0339608Y0149565D02*
X0335333Y0149565D01*
X0336322Y0148367D02*
X0338619Y0148367D01*
X0338122Y0147168D02*
X0336819Y0147168D01*
X0336839Y0145970D02*
X0338102Y0145970D01*
X0338355Y0144771D02*
X0336586Y0144771D01*
X0335971Y0143573D02*
X0338970Y0143573D01*
X0340412Y0142374D02*
X0334529Y0142374D01*
X0330412Y0142374D02*
X0326763Y0142374D01*
X0326719Y0142299D02*
X0326930Y0142664D01*
X0327039Y0143071D01*
X0327039Y0145866D01*
X0322855Y0145866D01*
X0322855Y0146634D01*
X0322086Y0146634D01*
X0322086Y0145866D01*
X0317902Y0145866D01*
X0317902Y0143071D01*
X0318011Y0142664D01*
X0318222Y0142299D01*
X0318520Y0142001D01*
X0318884Y0141791D01*
X0319291Y0141681D01*
X0322086Y0141681D01*
X0322086Y0145866D01*
X0322855Y0145866D01*
X0322855Y0141681D01*
X0325650Y0141681D01*
X0326057Y0141791D01*
X0326421Y0142001D01*
X0326719Y0142299D01*
X0327039Y0143573D02*
X0328970Y0143573D01*
X0328355Y0144771D02*
X0327039Y0144771D01*
X0328102Y0145970D02*
X0322855Y0145970D01*
X0322086Y0145970D02*
X0301170Y0145970D01*
X0301170Y0147168D02*
X0317902Y0147168D01*
X0317902Y0146634D02*
X0322086Y0146634D01*
X0322086Y0150818D01*
X0319291Y0150818D01*
X0318884Y0150709D01*
X0318520Y0150499D01*
X0318222Y0150201D01*
X0318011Y0149836D01*
X0317902Y0149429D01*
X0317902Y0146634D01*
X0317902Y0148367D02*
X0301170Y0148367D01*
X0301170Y0149565D02*
X0317938Y0149565D01*
X0319087Y0150764D02*
X0301170Y0150764D01*
X0301170Y0151962D02*
X0323971Y0151962D01*
X0322855Y0150764D02*
X0322086Y0150764D01*
X0322086Y0149565D02*
X0322855Y0149565D01*
X0322855Y0148367D02*
X0322086Y0148367D01*
X0322086Y0147168D02*
X0322855Y0147168D01*
X0322855Y0144771D02*
X0322086Y0144771D01*
X0322086Y0143573D02*
X0322855Y0143573D01*
X0322855Y0142374D02*
X0322086Y0142374D01*
X0318178Y0142374D02*
X0301170Y0142374D01*
X0301170Y0141176D02*
X0388461Y0141176D01*
X0388461Y0142374D02*
X0354529Y0142374D01*
X0355971Y0143573D02*
X0388461Y0143573D01*
X0388461Y0144771D02*
X0356586Y0144771D01*
X0356839Y0145970D02*
X0388461Y0145970D01*
X0388461Y0147168D02*
X0356819Y0147168D01*
X0356322Y0148367D02*
X0388461Y0148367D01*
X0388461Y0149565D02*
X0355333Y0149565D01*
X0355170Y0150764D02*
X0388461Y0150764D01*
X0388461Y0151962D02*
X0355170Y0151962D01*
X0355170Y0153161D02*
X0388461Y0153161D01*
X0388461Y0154359D02*
X0355170Y0154359D01*
X0355170Y0155558D02*
X0388461Y0155558D01*
X0388461Y0156756D02*
X0355170Y0156756D01*
X0355170Y0157955D02*
X0388461Y0157955D01*
X0388461Y0159153D02*
X0355170Y0159153D01*
X0355170Y0160352D02*
X0388461Y0160352D01*
X0388461Y0161550D02*
X0355170Y0161550D01*
X0355170Y0162749D02*
X0388461Y0162749D01*
X0388461Y0163947D02*
X0355170Y0163947D01*
X0355170Y0165146D02*
X0388461Y0165146D01*
X0388461Y0166344D02*
X0355170Y0166344D01*
X0355170Y0167543D02*
X0388461Y0167543D01*
X0388461Y0168741D02*
X0355170Y0168741D01*
X0355170Y0169940D02*
X0388461Y0169940D01*
X0388461Y0171138D02*
X0355170Y0171138D01*
X0355170Y0172337D02*
X0388461Y0172337D01*
X0388461Y0173535D02*
X0355170Y0173535D01*
X0355170Y0174734D02*
X0388461Y0174734D01*
X0388461Y0175932D02*
X0355170Y0175932D01*
X0355170Y0177131D02*
X0388461Y0177131D01*
X0388461Y0178329D02*
X0355170Y0178329D01*
X0355170Y0179528D02*
X0388461Y0179528D01*
X0388461Y0180726D02*
X0355170Y0180726D01*
X0355170Y0181925D02*
X0388461Y0181925D01*
X0388461Y0183123D02*
X0355170Y0183123D01*
X0355170Y0184322D02*
X0388461Y0184322D01*
X0388461Y0185520D02*
X0355170Y0185520D01*
X0355170Y0186719D02*
X0388461Y0186719D01*
X0388461Y0187918D02*
X0355170Y0187918D01*
X0355170Y0189116D02*
X0388461Y0189116D01*
X0388461Y0190315D02*
X0355170Y0190315D01*
X0355170Y0191513D02*
X0388461Y0191513D01*
X0388461Y0192712D02*
X0355170Y0192712D01*
X0355170Y0193910D02*
X0388461Y0193910D01*
X0380170Y0209491D02*
X0379870Y0209491D01*
X0380170Y0210689D02*
X0379430Y0210689D01*
X0380170Y0211888D02*
X0378555Y0211888D01*
X0380170Y0213086D02*
X0376500Y0213086D01*
X0378426Y0215483D02*
X0380170Y0215483D01*
X0380170Y0214285D02*
X0371092Y0214285D01*
X0363009Y0221476D02*
X0348583Y0221476D01*
X0349782Y0222674D02*
X0364208Y0222674D01*
X0365406Y0223873D02*
X0350980Y0223873D01*
X0352179Y0225071D02*
X0366605Y0225071D01*
X0365735Y0226270D02*
X0353377Y0226270D01*
X0354576Y0227468D02*
X0365239Y0227468D01*
X0365070Y0228667D02*
X0355774Y0228667D01*
X0356973Y0229865D02*
X0365170Y0229865D01*
X0365666Y0231064D02*
X0358171Y0231064D01*
X0359370Y0232262D02*
X0366760Y0232262D01*
X0367848Y0234659D02*
X0361767Y0234659D01*
X0360568Y0233461D02*
X0380170Y0233461D01*
X0380170Y0234659D02*
X0377093Y0234659D01*
X0378801Y0235858D02*
X0380170Y0235858D01*
X0380170Y0237056D02*
X0379531Y0237056D01*
X0379870Y0238255D02*
X0380170Y0238255D01*
X0380170Y0239453D02*
X0379870Y0239453D01*
X0380170Y0240652D02*
X0379445Y0240652D01*
X0380170Y0241851D02*
X0378592Y0241851D01*
X0379156Y0243049D02*
X0380170Y0243049D01*
X0380170Y0232262D02*
X0378181Y0232262D01*
X0379275Y0231064D02*
X0380170Y0231064D01*
X0380170Y0229865D02*
X0379771Y0229865D01*
X0379870Y0228667D02*
X0380170Y0228667D01*
X0380170Y0227468D02*
X0379702Y0227468D01*
X0380170Y0226270D02*
X0379206Y0226270D01*
X0380170Y0225071D02*
X0378014Y0225071D01*
X0377494Y0222674D02*
X0380170Y0222674D01*
X0380170Y0221476D02*
X0378967Y0221476D01*
X0379600Y0220277D02*
X0380170Y0220277D01*
X0380170Y0219079D02*
X0379870Y0219079D01*
X0379870Y0217880D02*
X0380170Y0217880D01*
X0380170Y0216682D02*
X0379376Y0216682D01*
X0380170Y0223873D02*
X0370780Y0223873D01*
X0366140Y0235858D02*
X0362965Y0235858D01*
X0364164Y0237056D02*
X0365409Y0237056D01*
X0362385Y0240652D02*
X0345259Y0240652D01*
X0344061Y0239453D02*
X0361187Y0239453D01*
X0359988Y0238255D02*
X0342862Y0238255D01*
X0341664Y0237056D02*
X0358790Y0237056D01*
X0357591Y0235858D02*
X0340465Y0235858D01*
X0339267Y0234659D02*
X0356393Y0234659D01*
X0355194Y0233461D02*
X0338068Y0233461D01*
X0336870Y0232262D02*
X0353996Y0232262D01*
X0352797Y0231064D02*
X0335671Y0231064D01*
X0334473Y0229865D02*
X0351599Y0229865D01*
X0350400Y0228667D02*
X0333274Y0228667D01*
X0332076Y0227468D02*
X0349202Y0227468D01*
X0348003Y0226270D02*
X0330877Y0226270D01*
X0329679Y0225071D02*
X0346805Y0225071D01*
X0345606Y0223873D02*
X0328480Y0223873D01*
X0327282Y0222674D02*
X0344408Y0222674D01*
X0333311Y0216682D02*
X0358215Y0216682D01*
X0356398Y0209491D02*
X0360924Y0209491D01*
X0359726Y0208292D02*
X0355200Y0208292D01*
X0354001Y0207094D02*
X0358527Y0207094D01*
X0357329Y0205895D02*
X0352803Y0205895D01*
X0351604Y0204697D02*
X0356130Y0204697D01*
X0354932Y0203498D02*
X0350406Y0203498D01*
X0349207Y0202300D02*
X0353733Y0202300D01*
X0352535Y0201101D02*
X0348009Y0201101D01*
X0346810Y0199903D02*
X0351370Y0199903D01*
X0351370Y0198704D02*
X0345612Y0198704D01*
X0344413Y0197506D02*
X0351370Y0197506D01*
X0351370Y0196307D02*
X0344370Y0196307D01*
X0344370Y0195109D02*
X0351370Y0195109D01*
X0351370Y0193910D02*
X0344370Y0193910D01*
X0344370Y0192712D02*
X0351370Y0192712D01*
X0351370Y0191513D02*
X0344370Y0191513D01*
X0344370Y0190315D02*
X0351370Y0190315D01*
X0351370Y0189116D02*
X0344370Y0189116D01*
X0344370Y0187918D02*
X0351370Y0187918D01*
X0351370Y0186719D02*
X0344370Y0186719D01*
X0344370Y0185520D02*
X0351370Y0185520D01*
X0351370Y0184322D02*
X0344370Y0184322D01*
X0344370Y0183123D02*
X0351370Y0183123D01*
X0351370Y0181925D02*
X0344370Y0181925D01*
X0344370Y0180726D02*
X0351370Y0180726D01*
X0351370Y0179528D02*
X0344370Y0179528D01*
X0344370Y0178329D02*
X0351370Y0178329D01*
X0351370Y0177131D02*
X0344370Y0177131D01*
X0344370Y0175932D02*
X0351370Y0175932D01*
X0351370Y0174734D02*
X0344370Y0174734D01*
X0344370Y0173535D02*
X0351370Y0173535D01*
X0351370Y0172337D02*
X0344370Y0172337D01*
X0344370Y0171138D02*
X0351370Y0171138D01*
X0351370Y0169940D02*
X0344370Y0169940D01*
X0344370Y0168741D02*
X0351370Y0168741D01*
X0351370Y0167543D02*
X0344370Y0167543D01*
X0344370Y0166344D02*
X0351370Y0166344D01*
X0351370Y0165146D02*
X0344370Y0165146D01*
X0344370Y0163947D02*
X0351370Y0163947D01*
X0351370Y0162749D02*
X0344370Y0162749D01*
X0344370Y0161550D02*
X0351370Y0161550D01*
X0351370Y0160352D02*
X0344370Y0160352D01*
X0344370Y0159153D02*
X0351370Y0159153D01*
X0351370Y0157955D02*
X0344370Y0157955D01*
X0344370Y0156756D02*
X0351370Y0156756D01*
X0351370Y0155558D02*
X0344370Y0155558D01*
X0344370Y0154359D02*
X0351370Y0154359D01*
X0351370Y0153161D02*
X0344370Y0153161D01*
X0344370Y0151962D02*
X0351370Y0151962D01*
X0351370Y0150764D02*
X0344370Y0150764D01*
X0345333Y0149565D02*
X0349608Y0149565D01*
X0348619Y0148367D02*
X0346322Y0148367D01*
X0346819Y0147168D02*
X0348122Y0147168D01*
X0348102Y0145970D02*
X0346839Y0145970D01*
X0346586Y0144771D02*
X0348355Y0144771D01*
X0348970Y0143573D02*
X0345971Y0143573D01*
X0344529Y0142374D02*
X0350412Y0142374D01*
X0328122Y0147168D02*
X0327039Y0147168D01*
X0327039Y0148367D02*
X0327567Y0148367D01*
X0322773Y0153161D02*
X0301170Y0153161D01*
X0301170Y0154359D02*
X0321574Y0154359D01*
X0320376Y0155558D02*
X0301170Y0155558D01*
X0301170Y0156756D02*
X0319177Y0156756D01*
X0317979Y0157955D02*
X0301170Y0157955D01*
X0301170Y0159153D02*
X0316780Y0159153D01*
X0315582Y0160352D02*
X0301170Y0160352D01*
X0301170Y0161550D02*
X0314383Y0161550D01*
X0313185Y0162749D02*
X0301170Y0162749D01*
X0301170Y0163947D02*
X0311986Y0163947D01*
X0310788Y0165146D02*
X0301170Y0165146D01*
X0301170Y0166344D02*
X0309589Y0166344D01*
X0308391Y0167543D02*
X0301170Y0167543D01*
X0301170Y0168741D02*
X0307192Y0168741D01*
X0305994Y0169940D02*
X0301170Y0169940D01*
X0301170Y0171138D02*
X0304795Y0171138D01*
X0303597Y0172337D02*
X0301170Y0172337D01*
X0301170Y0173535D02*
X0302398Y0173535D01*
X0301200Y0174734D02*
X0301170Y0174734D01*
X0297370Y0174734D02*
X0286294Y0174734D01*
X0286192Y0174558D02*
X0287627Y0177043D01*
X0288370Y0179815D01*
X0288370Y0182685D01*
X0287627Y0185457D01*
X0286192Y0187942D01*
X0284163Y0189972D01*
X0281677Y0191406D01*
X0278905Y0192149D01*
X0276036Y0192149D01*
X0273264Y0191406D01*
X0270778Y0189972D01*
X0268749Y0187942D01*
X0267314Y0185457D01*
X0266571Y0182685D01*
X0266571Y0179815D01*
X0267314Y0177043D01*
X0268749Y0174558D01*
X0270778Y0172528D01*
X0273264Y0171094D01*
X0276036Y0170351D01*
X0278905Y0170351D01*
X0281677Y0171094D01*
X0284163Y0172528D01*
X0286192Y0174558D01*
X0285170Y0173535D02*
X0297370Y0173535D01*
X0297370Y0172337D02*
X0283831Y0172337D01*
X0281755Y0171138D02*
X0297370Y0171138D01*
X0297370Y0169940D02*
X0259866Y0169940D01*
X0259866Y0171138D02*
X0273186Y0171138D01*
X0271110Y0172337D02*
X0259866Y0172337D01*
X0259866Y0173535D02*
X0269771Y0173535D01*
X0268647Y0174734D02*
X0259866Y0174734D01*
X0259866Y0175932D02*
X0267955Y0175932D01*
X0267290Y0177131D02*
X0259866Y0177131D01*
X0259866Y0178329D02*
X0266969Y0178329D01*
X0266648Y0179528D02*
X0259866Y0179528D01*
X0259866Y0180726D02*
X0266571Y0180726D01*
X0266571Y0181925D02*
X0259866Y0181925D01*
X0259866Y0183123D02*
X0266689Y0183123D01*
X0267010Y0184322D02*
X0259866Y0184322D01*
X0259866Y0185520D02*
X0267351Y0185520D01*
X0268043Y0186719D02*
X0259866Y0186719D01*
X0259866Y0187918D02*
X0268735Y0187918D01*
X0269923Y0189116D02*
X0259866Y0189116D01*
X0259866Y0190315D02*
X0271372Y0190315D01*
X0273661Y0191513D02*
X0259866Y0191513D01*
X0259866Y0192712D02*
X0297370Y0192712D01*
X0297370Y0193910D02*
X0259866Y0193910D01*
X0259866Y0195109D02*
X0297370Y0195109D01*
X0297370Y0196307D02*
X0259866Y0196307D01*
X0259866Y0197506D02*
X0297370Y0197506D01*
X0297370Y0198704D02*
X0259866Y0198704D01*
X0259866Y0199903D02*
X0297370Y0199903D01*
X0297370Y0201101D02*
X0259866Y0201101D01*
X0259866Y0202300D02*
X0297370Y0202300D01*
X0297370Y0203498D02*
X0259866Y0203498D01*
X0259866Y0204697D02*
X0297370Y0204697D01*
X0297370Y0205895D02*
X0259866Y0205895D01*
X0259866Y0207094D02*
X0297370Y0207094D01*
X0297370Y0208292D02*
X0259866Y0208292D01*
X0259866Y0209491D02*
X0297370Y0209491D01*
X0297370Y0210689D02*
X0259866Y0210689D01*
X0259866Y0211888D02*
X0297370Y0211888D01*
X0297370Y0213086D02*
X0259866Y0213086D01*
X0259866Y0214285D02*
X0297370Y0214285D01*
X0297370Y0215483D02*
X0259866Y0215483D01*
X0259866Y0216682D02*
X0297370Y0216682D01*
X0297370Y0217880D02*
X0259866Y0217880D01*
X0259866Y0219079D02*
X0297370Y0219079D01*
X0297370Y0220277D02*
X0259866Y0220277D01*
X0259866Y0221476D02*
X0297370Y0221476D01*
X0297370Y0222674D02*
X0259866Y0222674D01*
X0259866Y0223873D02*
X0297370Y0223873D01*
X0297370Y0225071D02*
X0259866Y0225071D01*
X0259866Y0226270D02*
X0297370Y0226270D01*
X0297370Y0227468D02*
X0259866Y0227468D01*
X0259866Y0228667D02*
X0297370Y0228667D01*
X0297370Y0229865D02*
X0259866Y0229865D01*
X0250666Y0246645D02*
X0176941Y0246645D01*
X0178044Y0247843D02*
X0250666Y0247843D01*
X0250666Y0249042D02*
X0178470Y0249042D01*
X0178465Y0250240D02*
X0250666Y0250240D01*
X0250666Y0251439D02*
X0179646Y0251439D01*
X0180845Y0252637D02*
X0250666Y0252637D01*
X0250666Y0253836D02*
X0182043Y0253836D01*
X0183242Y0255034D02*
X0250666Y0255034D01*
X0250666Y0256233D02*
X0184440Y0256233D01*
X0185639Y0257431D02*
X0250666Y0257431D01*
X0250666Y0258630D02*
X0186837Y0258630D01*
X0188036Y0259828D02*
X0250666Y0259828D01*
X0250666Y0261027D02*
X0189234Y0261027D01*
X0190433Y0262225D02*
X0250666Y0262225D01*
X0250666Y0263424D02*
X0193753Y0263424D01*
X0194483Y0264622D02*
X0250666Y0264622D01*
X0250666Y0265821D02*
X0194670Y0265821D01*
X0194425Y0267019D02*
X0250666Y0267019D01*
X0250666Y0268218D02*
X0193611Y0268218D01*
X0188930Y0268218D02*
X0174825Y0268218D01*
X0176024Y0269416D02*
X0250666Y0269416D01*
X0250666Y0270615D02*
X0177222Y0270615D01*
X0178421Y0271813D02*
X0250666Y0271813D01*
X0250666Y0273012D02*
X0179619Y0273012D01*
X0180818Y0274210D02*
X0250666Y0274210D01*
X0250666Y0275409D02*
X0182016Y0275409D01*
X0183215Y0276607D02*
X0250666Y0276607D01*
X0250666Y0277806D02*
X0184413Y0277806D01*
X0185612Y0279004D02*
X0250666Y0279004D01*
X0250666Y0280203D02*
X0186810Y0280203D01*
X0188009Y0281401D02*
X0250666Y0281401D01*
X0250666Y0282600D02*
X0189207Y0282600D01*
X0190406Y0283798D02*
X0250666Y0283798D01*
X0250666Y0284997D02*
X0191604Y0284997D01*
X0192803Y0286195D02*
X0250666Y0286195D01*
X0250666Y0287394D02*
X0196123Y0287394D01*
X0197047Y0288592D02*
X0250666Y0288592D01*
X0250666Y0289791D02*
X0197370Y0289791D01*
X0197261Y0290989D02*
X0250666Y0290989D01*
X0250666Y0292188D02*
X0196641Y0292188D01*
X0196403Y0302975D02*
X0250666Y0302975D01*
X0250666Y0304173D02*
X0197163Y0304173D01*
X0197370Y0305372D02*
X0250666Y0305372D01*
X0250666Y0306570D02*
X0197145Y0306570D01*
X0196360Y0307769D02*
X0250666Y0307769D01*
X0250666Y0308967D02*
X0195870Y0308967D01*
X0195870Y0310166D02*
X0250666Y0310166D01*
X0250666Y0311364D02*
X0195870Y0311364D01*
X0195870Y0312563D02*
X0250666Y0312563D01*
X0250666Y0313761D02*
X0195870Y0313761D01*
X0195870Y0314960D02*
X0250666Y0314960D01*
X0250666Y0316158D02*
X0195870Y0316158D01*
X0195870Y0317357D02*
X0250666Y0317357D01*
X0250666Y0318555D02*
X0195870Y0318555D01*
X0195870Y0319754D02*
X0250666Y0319754D01*
X0250666Y0320952D02*
X0195870Y0320952D01*
X0195870Y0322151D02*
X0250666Y0322151D01*
X0250666Y0323349D02*
X0195870Y0323349D01*
X0192070Y0347320D02*
X0157627Y0347320D01*
X0158825Y0348518D02*
X0192070Y0348518D01*
X0192070Y0349717D02*
X0160024Y0349717D01*
X0161223Y0350915D02*
X0192070Y0350915D01*
X0192070Y0352114D02*
X0162421Y0352114D01*
X0163620Y0353312D02*
X0192446Y0353312D01*
X0193644Y0354511D02*
X0164818Y0354511D01*
X0166017Y0355709D02*
X0194843Y0355709D01*
X0196041Y0356908D02*
X0167215Y0356908D01*
X0168414Y0358106D02*
X0197240Y0358106D01*
X0198438Y0359305D02*
X0169612Y0359305D01*
X0170811Y0360503D02*
X0199637Y0360503D01*
X0200835Y0361702D02*
X0172009Y0361702D01*
X0173208Y0362900D02*
X0202034Y0362900D01*
X0203232Y0364099D02*
X0174406Y0364099D01*
X0175605Y0365297D02*
X0204431Y0365297D01*
X0205629Y0366496D02*
X0176803Y0366496D01*
X0173826Y0368893D02*
X0172089Y0368893D01*
X0172585Y0370091D02*
X0174088Y0370091D01*
X0173968Y0371290D02*
X0172705Y0371290D01*
X0172552Y0372488D02*
X0174121Y0372488D01*
X0174618Y0373687D02*
X0172056Y0373687D01*
X0170879Y0374885D02*
X0175794Y0374885D01*
X0180879Y0374885D02*
X0183906Y0374885D01*
X0183877Y0374836D02*
X0183768Y0374429D01*
X0183768Y0371634D01*
X0187952Y0371634D01*
X0187952Y0370866D01*
X0183768Y0370866D01*
X0183768Y0368071D01*
X0183877Y0367664D01*
X0184088Y0367299D01*
X0184386Y0367001D01*
X0184751Y0366791D01*
X0185157Y0366681D01*
X0187952Y0366681D01*
X0187952Y0370866D01*
X0188721Y0370866D01*
X0188721Y0371634D01*
X0192905Y0371634D01*
X0192905Y0374429D01*
X0192796Y0374836D01*
X0192585Y0375201D01*
X0192288Y0375499D01*
X0191923Y0375709D01*
X0191516Y0375818D01*
X0188721Y0375818D01*
X0188721Y0371634D01*
X0187952Y0371634D01*
X0187952Y0375818D01*
X0185157Y0375818D01*
X0184751Y0375709D01*
X0184386Y0375499D01*
X0184088Y0375201D01*
X0183877Y0374836D01*
X0183768Y0373687D02*
X0182056Y0373687D01*
X0182552Y0372488D02*
X0183768Y0372488D01*
X0182705Y0371290D02*
X0187952Y0371290D01*
X0188721Y0371290D02*
X0210423Y0371290D01*
X0211622Y0372488D02*
X0192905Y0372488D01*
X0192905Y0373687D02*
X0212820Y0373687D01*
X0214019Y0374885D02*
X0192768Y0374885D01*
X0192905Y0370866D02*
X0188721Y0370866D01*
X0188721Y0366681D01*
X0191516Y0366681D01*
X0191923Y0366791D01*
X0192288Y0367001D01*
X0192585Y0367299D01*
X0192796Y0367664D01*
X0192905Y0368071D01*
X0192905Y0370866D01*
X0192905Y0370091D02*
X0209225Y0370091D01*
X0208026Y0368893D02*
X0192905Y0368893D01*
X0192804Y0367694D02*
X0206828Y0367694D01*
X0209805Y0365297D02*
X0227270Y0365297D01*
X0227270Y0366496D02*
X0211003Y0366496D01*
X0212202Y0367694D02*
X0227440Y0367694D01*
X0227937Y0368893D02*
X0213400Y0368893D01*
X0214599Y0370091D02*
X0228958Y0370091D01*
X0230857Y0371290D02*
X0215797Y0371290D01*
X0216996Y0372488D02*
X0228878Y0372488D01*
X0227904Y0373687D02*
X0218194Y0373687D01*
X0219393Y0374885D02*
X0227407Y0374885D01*
X0227270Y0376084D02*
X0220591Y0376084D01*
X0221790Y0377282D02*
X0227270Y0377282D01*
X0227766Y0378481D02*
X0222988Y0378481D01*
X0224187Y0379679D02*
X0228546Y0379679D01*
X0230055Y0380878D02*
X0225385Y0380878D01*
X0226584Y0382076D02*
X0229290Y0382076D01*
X0228092Y0383275D02*
X0227782Y0383275D01*
X0224805Y0385672D02*
X0122070Y0385672D01*
X0122070Y0386870D02*
X0226004Y0386870D01*
X0227595Y0388069D02*
X0122070Y0388069D01*
X0122070Y0389267D02*
X0228134Y0389267D01*
X0229332Y0390466D02*
X0122070Y0390466D01*
X0122070Y0391664D02*
X0229953Y0391664D01*
X0228504Y0392863D02*
X0122070Y0392863D01*
X0122070Y0394061D02*
X0227749Y0394061D01*
X0227270Y0395260D02*
X0122070Y0395260D01*
X0122070Y0396458D02*
X0227270Y0396458D01*
X0227425Y0397657D02*
X0122070Y0397657D01*
X0122070Y0398855D02*
X0227921Y0398855D01*
X0228921Y0400054D02*
X0122070Y0400054D01*
X0122070Y0401253D02*
X0230384Y0401253D01*
X0228633Y0402451D02*
X0122070Y0402451D01*
X0122070Y0403650D02*
X0227735Y0403650D01*
X0227248Y0404848D02*
X0122070Y0404848D01*
X0122070Y0406047D02*
X0232086Y0406047D01*
X0232855Y0406047D02*
X0250666Y0406047D01*
X0228260Y0409642D02*
X0122070Y0409642D01*
X0122070Y0408444D02*
X0227528Y0408444D01*
X0227161Y0407245D02*
X0122070Y0407245D01*
X0122070Y0384473D02*
X0223607Y0384473D01*
X0222408Y0383275D02*
X0122070Y0383275D01*
X0122070Y0382076D02*
X0221210Y0382076D01*
X0220011Y0380878D02*
X0122070Y0380878D01*
X0122070Y0379679D02*
X0154913Y0379679D01*
X0154270Y0379037D02*
X0154270Y0379037D01*
X0153714Y0378481D02*
X0122070Y0378481D01*
X0122070Y0377282D02*
X0152516Y0377282D01*
X0151317Y0376084D02*
X0122070Y0376084D01*
X0122070Y0374885D02*
X0150119Y0374885D01*
X0148920Y0373687D02*
X0122070Y0373687D01*
X0122070Y0372488D02*
X0147722Y0372488D01*
X0146523Y0371290D02*
X0122070Y0371290D01*
X0122070Y0370091D02*
X0145325Y0370091D01*
X0144126Y0368893D02*
X0122070Y0368893D01*
X0122070Y0367694D02*
X0142928Y0367694D01*
X0141729Y0366496D02*
X0122070Y0366496D01*
X0122070Y0365297D02*
X0140531Y0365297D01*
X0139332Y0364099D02*
X0122070Y0364099D01*
X0122070Y0362900D02*
X0138134Y0362900D01*
X0136935Y0361702D02*
X0122070Y0361702D01*
X0122070Y0360503D02*
X0135737Y0360503D01*
X0134538Y0359305D02*
X0122070Y0359305D01*
X0122070Y0358106D02*
X0133340Y0358106D01*
X0132141Y0356908D02*
X0122070Y0356908D01*
X0122070Y0355709D02*
X0130943Y0355709D01*
X0129744Y0354511D02*
X0122070Y0354511D01*
X0122070Y0353312D02*
X0128546Y0353312D01*
X0127347Y0352114D02*
X0122070Y0352114D01*
X0122070Y0350915D02*
X0126149Y0350915D01*
X0124950Y0349717D02*
X0122070Y0349717D01*
X0122070Y0348518D02*
X0123752Y0348518D01*
X0123670Y0347320D02*
X0122070Y0347320D01*
X0122070Y0346121D02*
X0123670Y0346121D01*
X0123670Y0344922D02*
X0122070Y0344922D01*
X0122070Y0343724D02*
X0123670Y0343724D01*
X0123670Y0342525D02*
X0122070Y0342525D01*
X0122070Y0341327D02*
X0123670Y0341327D01*
X0123670Y0340128D02*
X0122070Y0340128D01*
X0122070Y0338930D02*
X0123670Y0338930D01*
X0123670Y0337731D02*
X0122070Y0337731D01*
X0122070Y0336533D02*
X0123670Y0336533D01*
X0123670Y0335334D02*
X0122070Y0335334D01*
X0122070Y0334136D02*
X0123670Y0334136D01*
X0123670Y0332937D02*
X0122070Y0332937D01*
X0122070Y0331739D02*
X0123670Y0331739D01*
X0123670Y0330540D02*
X0122070Y0330540D01*
X0122070Y0329342D02*
X0123670Y0329342D01*
X0123670Y0328143D02*
X0122070Y0328143D01*
X0122070Y0326945D02*
X0123670Y0326945D01*
X0123670Y0325746D02*
X0122070Y0325746D01*
X0122070Y0324548D02*
X0123670Y0324548D01*
X0123670Y0323349D02*
X0122070Y0323349D01*
X0122070Y0322151D02*
X0123670Y0322151D01*
X0123670Y0320952D02*
X0122070Y0320952D01*
X0122070Y0319754D02*
X0123670Y0319754D01*
X0123670Y0318555D02*
X0122070Y0318555D01*
X0122070Y0317357D02*
X0123670Y0317357D01*
X0123670Y0316158D02*
X0122070Y0316158D01*
X0122070Y0314960D02*
X0123670Y0314960D01*
X0123670Y0313761D02*
X0122070Y0313761D01*
X0122070Y0312563D02*
X0123670Y0312563D01*
X0123670Y0311364D02*
X0122070Y0311364D01*
X0122070Y0310166D02*
X0123670Y0310166D01*
X0123670Y0308967D02*
X0122070Y0308967D01*
X0122070Y0307769D02*
X0123670Y0307769D01*
X0123670Y0306570D02*
X0122070Y0306570D01*
X0122070Y0305372D02*
X0123670Y0305372D01*
X0123670Y0304173D02*
X0122070Y0304173D01*
X0122070Y0302975D02*
X0123670Y0302975D01*
X0123670Y0301776D02*
X0122070Y0301776D01*
X0122070Y0300578D02*
X0123670Y0300578D01*
X0123670Y0299379D02*
X0122070Y0299379D01*
X0122070Y0298181D02*
X0123670Y0298181D01*
X0124051Y0296982D02*
X0122070Y0296982D01*
X0122070Y0295784D02*
X0125250Y0295784D01*
X0126448Y0294585D02*
X0122070Y0294585D01*
X0122070Y0293387D02*
X0127647Y0293387D01*
X0128845Y0292188D02*
X0122070Y0292188D01*
X0122070Y0290989D02*
X0130044Y0290989D01*
X0130139Y0289791D02*
X0122070Y0289791D01*
X0122070Y0288592D02*
X0130070Y0288592D01*
X0130270Y0287394D02*
X0122070Y0287394D01*
X0122070Y0286195D02*
X0130802Y0286195D01*
X0132033Y0284997D02*
X0122070Y0284997D01*
X0131822Y0294585D02*
X0133028Y0294585D01*
X0133021Y0293387D02*
X0163120Y0293387D01*
X0169870Y0300578D02*
X0144476Y0300578D01*
X0143667Y0301776D02*
X0169974Y0301776D01*
X0170587Y0302975D02*
X0141769Y0302975D01*
X0130356Y0300578D02*
X0127470Y0300578D01*
X0127470Y0301776D02*
X0129157Y0301776D01*
X0127959Y0302975D02*
X0127470Y0302975D01*
X0127470Y0299379D02*
X0130070Y0299379D01*
X0130070Y0298181D02*
X0128227Y0298181D01*
X0129425Y0296982D02*
X0130440Y0296982D01*
X0130624Y0295784D02*
X0131214Y0295784D01*
X0132123Y0314960D02*
X0129270Y0314960D01*
X0129270Y0316158D02*
X0130840Y0316158D01*
X0130285Y0317357D02*
X0129270Y0317357D01*
X0129270Y0318555D02*
X0130070Y0318555D01*
X0130124Y0319754D02*
X0129270Y0319754D01*
X0129270Y0320952D02*
X0130620Y0320952D01*
X0131649Y0322151D02*
X0129270Y0322151D01*
X0129270Y0323349D02*
X0137170Y0323349D01*
X0137170Y0324548D02*
X0129270Y0324548D01*
X0129270Y0325746D02*
X0137170Y0325746D01*
X0137170Y0326945D02*
X0129270Y0326945D01*
X0129270Y0328143D02*
X0137170Y0328143D01*
X0137170Y0329342D02*
X0129270Y0329342D01*
X0129270Y0330540D02*
X0137170Y0330540D01*
X0137170Y0331739D02*
X0129270Y0331739D01*
X0129270Y0332937D02*
X0137871Y0332937D01*
X0139069Y0334136D02*
X0129270Y0334136D01*
X0129270Y0335334D02*
X0140268Y0335334D01*
X0141466Y0336533D02*
X0129270Y0336533D01*
X0129270Y0337731D02*
X0142665Y0337731D01*
X0143863Y0338930D02*
X0130337Y0338930D01*
X0131536Y0340128D02*
X0145062Y0340128D01*
X0146260Y0341327D02*
X0132734Y0341327D01*
X0133933Y0342525D02*
X0147459Y0342525D01*
X0148657Y0343724D02*
X0135131Y0343724D01*
X0136330Y0344922D02*
X0149856Y0344922D01*
X0151054Y0346121D02*
X0137528Y0346121D01*
X0138727Y0347320D02*
X0152253Y0347320D01*
X0153452Y0348518D02*
X0139925Y0348518D01*
X0141124Y0349717D02*
X0154650Y0349717D01*
X0155849Y0350915D02*
X0142323Y0350915D01*
X0143521Y0352114D02*
X0157047Y0352114D01*
X0158246Y0353312D02*
X0144720Y0353312D01*
X0145918Y0354511D02*
X0159444Y0354511D01*
X0160643Y0355709D02*
X0147117Y0355709D01*
X0148315Y0356908D02*
X0161841Y0356908D01*
X0163040Y0358106D02*
X0149514Y0358106D01*
X0150712Y0359305D02*
X0164238Y0359305D01*
X0165437Y0360503D02*
X0151911Y0360503D01*
X0153109Y0361702D02*
X0166635Y0361702D01*
X0167834Y0362900D02*
X0154308Y0362900D01*
X0155506Y0364099D02*
X0169032Y0364099D01*
X0170231Y0365297D02*
X0156705Y0365297D01*
X0157903Y0366496D02*
X0171429Y0366496D01*
X0170959Y0367694D02*
X0172628Y0367694D01*
X0165714Y0367694D02*
X0160959Y0367694D01*
X0162089Y0368893D02*
X0164585Y0368893D01*
X0164088Y0370091D02*
X0162585Y0370091D01*
X0162705Y0371290D02*
X0163968Y0371290D01*
X0164121Y0372488D02*
X0162552Y0372488D01*
X0162056Y0373687D02*
X0164618Y0373687D01*
X0164048Y0374885D02*
X0160879Y0374885D01*
X0162850Y0376084D02*
X0156691Y0376084D01*
X0155794Y0374885D02*
X0155493Y0374885D01*
X0154618Y0373687D02*
X0154294Y0373687D01*
X0154121Y0372488D02*
X0153096Y0372488D01*
X0153968Y0371290D02*
X0151897Y0371290D01*
X0150699Y0370091D02*
X0154088Y0370091D01*
X0154585Y0368893D02*
X0149500Y0368893D01*
X0148302Y0367694D02*
X0153728Y0367694D01*
X0152529Y0366496D02*
X0147103Y0366496D01*
X0145905Y0365297D02*
X0151331Y0365297D01*
X0150132Y0364099D02*
X0144706Y0364099D01*
X0143508Y0362900D02*
X0148934Y0362900D01*
X0147735Y0361702D02*
X0142309Y0361702D01*
X0141111Y0360503D02*
X0146537Y0360503D01*
X0145338Y0359305D02*
X0139912Y0359305D01*
X0138714Y0358106D02*
X0144140Y0358106D01*
X0142941Y0356908D02*
X0137515Y0356908D01*
X0136317Y0355709D02*
X0141743Y0355709D01*
X0140544Y0354511D02*
X0135118Y0354511D01*
X0133920Y0353312D02*
X0139346Y0353312D01*
X0138147Y0352114D02*
X0132721Y0352114D01*
X0131523Y0350915D02*
X0136949Y0350915D01*
X0135750Y0349717D02*
X0130324Y0349717D01*
X0129125Y0348518D02*
X0134552Y0348518D01*
X0133353Y0347320D02*
X0127927Y0347320D01*
X0127470Y0346121D02*
X0132154Y0346121D01*
X0130956Y0344922D02*
X0127470Y0344922D01*
X0127470Y0343724D02*
X0129757Y0343724D01*
X0128559Y0342525D02*
X0127470Y0342525D01*
X0124783Y0349550D02*
X0124783Y0349550D01*
X0164628Y0379679D02*
X0218813Y0379679D01*
X0217614Y0378481D02*
X0165827Y0378481D01*
X0167025Y0377282D02*
X0216416Y0377282D01*
X0215217Y0376084D02*
X0168224Y0376084D01*
X0180959Y0367694D02*
X0183869Y0367694D01*
X0183768Y0368893D02*
X0182089Y0368893D01*
X0182585Y0370091D02*
X0183768Y0370091D01*
X0187952Y0370091D02*
X0188721Y0370091D01*
X0188721Y0368893D02*
X0187952Y0368893D01*
X0187952Y0367694D02*
X0188721Y0367694D01*
X0188721Y0372488D02*
X0187952Y0372488D01*
X0187952Y0373687D02*
X0188721Y0373687D01*
X0188721Y0374885D02*
X0187952Y0374885D01*
X0203812Y0359305D02*
X0228171Y0359305D01*
X0227611Y0358106D02*
X0202614Y0358106D01*
X0201415Y0356908D02*
X0227270Y0356908D01*
X0227270Y0355709D02*
X0200217Y0355709D01*
X0199018Y0354511D02*
X0227563Y0354511D01*
X0228059Y0353312D02*
X0197820Y0353312D01*
X0196621Y0352114D02*
X0229253Y0352114D01*
X0229370Y0360503D02*
X0205011Y0360503D01*
X0206209Y0361702D02*
X0229863Y0361702D01*
X0228466Y0362900D02*
X0207408Y0362900D01*
X0208606Y0364099D02*
X0227733Y0364099D01*
X0259866Y0346121D02*
X0272769Y0346121D01*
X0270729Y0344922D02*
X0259866Y0344922D01*
X0259866Y0343724D02*
X0269531Y0343724D01*
X0268508Y0342525D02*
X0259866Y0342525D01*
X0259866Y0341327D02*
X0267816Y0341327D01*
X0267226Y0340128D02*
X0259866Y0340128D01*
X0259866Y0338930D02*
X0266905Y0338930D01*
X0266584Y0337731D02*
X0259866Y0337731D01*
X0259866Y0336533D02*
X0266571Y0336533D01*
X0266571Y0335334D02*
X0259866Y0335334D01*
X0259866Y0334136D02*
X0266753Y0334136D01*
X0267074Y0332937D02*
X0259866Y0332937D01*
X0259866Y0331739D02*
X0267490Y0331739D01*
X0268182Y0330540D02*
X0259866Y0330540D01*
X0259866Y0329342D02*
X0268965Y0329342D01*
X0270163Y0328143D02*
X0259866Y0328143D01*
X0259866Y0326945D02*
X0271789Y0326945D01*
X0274559Y0325746D02*
X0259866Y0325746D01*
X0301170Y0279004D02*
X0354429Y0279004D01*
X0355628Y0277806D02*
X0301170Y0277806D01*
X0301170Y0276607D02*
X0356826Y0276607D01*
X0358025Y0275409D02*
X0301170Y0275409D01*
X0301170Y0274210D02*
X0359223Y0274210D01*
X0360422Y0273012D02*
X0301170Y0273012D01*
X0301170Y0271813D02*
X0302106Y0271813D01*
X0303635Y0271813D02*
X0366311Y0271813D01*
X0365480Y0270615D02*
X0305514Y0270615D01*
X0306150Y0269416D02*
X0365070Y0269416D01*
X0365070Y0268218D02*
X0306270Y0268218D01*
X0305958Y0267019D02*
X0365425Y0267019D01*
X0365054Y0265821D02*
X0305050Y0265821D01*
X0304770Y0264622D02*
X0363856Y0264622D01*
X0362657Y0263424D02*
X0304770Y0263424D01*
X0304770Y0262225D02*
X0361459Y0262225D01*
X0360260Y0261027D02*
X0304770Y0261027D01*
X0304770Y0259828D02*
X0359062Y0259828D01*
X0357863Y0258630D02*
X0304770Y0258630D01*
X0304770Y0257431D02*
X0356665Y0257431D01*
X0355466Y0256233D02*
X0304770Y0256233D01*
X0304770Y0255034D02*
X0354268Y0255034D01*
X0353069Y0253836D02*
X0304770Y0253836D01*
X0304770Y0252637D02*
X0351871Y0252637D01*
X0350672Y0251439D02*
X0304770Y0251439D01*
X0304770Y0250240D02*
X0349474Y0250240D01*
X0348275Y0249042D02*
X0304770Y0249042D01*
X0304770Y0247843D02*
X0347077Y0247843D01*
X0345878Y0246645D02*
X0304770Y0246645D01*
X0304770Y0245446D02*
X0344680Y0245446D01*
X0343481Y0244248D02*
X0304770Y0244248D01*
X0304770Y0243049D02*
X0342283Y0243049D01*
X0341084Y0241851D02*
X0304770Y0241851D01*
X0304770Y0240652D02*
X0339885Y0240652D01*
X0338687Y0239453D02*
X0304770Y0239453D01*
X0304770Y0238255D02*
X0337488Y0238255D01*
X0336290Y0237056D02*
X0311172Y0237056D01*
X0312185Y0235858D02*
X0335091Y0235858D01*
X0333893Y0234659D02*
X0312570Y0234659D01*
X0312524Y0233461D02*
X0332694Y0233461D01*
X0331496Y0232262D02*
X0311991Y0232262D01*
X0310363Y0231064D02*
X0330297Y0231064D01*
X0329099Y0229865D02*
X0304770Y0229865D01*
X0304770Y0228667D02*
X0327900Y0228667D01*
X0326702Y0227468D02*
X0304770Y0227468D01*
X0304770Y0226270D02*
X0325503Y0226270D01*
X0324305Y0225071D02*
X0304770Y0225071D01*
X0304770Y0223873D02*
X0323106Y0223873D01*
X0307978Y0231064D02*
X0304770Y0231064D01*
X0304770Y0232262D02*
X0306350Y0232262D01*
X0307169Y0237056D02*
X0304770Y0237056D01*
X0346458Y0241851D02*
X0363584Y0241851D01*
X0364783Y0243049D02*
X0347656Y0243049D01*
X0348855Y0244248D02*
X0365981Y0244248D01*
X0366552Y0245446D02*
X0350054Y0245446D01*
X0351252Y0246645D02*
X0365580Y0246645D01*
X0365084Y0247843D02*
X0352451Y0247843D01*
X0353649Y0249042D02*
X0365070Y0249042D01*
X0365325Y0250240D02*
X0354848Y0250240D01*
X0356046Y0251439D02*
X0365937Y0251439D01*
X0366396Y0252637D02*
X0357245Y0252637D01*
X0358443Y0253836D02*
X0365198Y0253836D01*
X0363999Y0255034D02*
X0359642Y0255034D01*
X0360840Y0256233D02*
X0363070Y0256233D01*
X0363070Y0257431D02*
X0362039Y0257431D01*
X0378997Y0274210D02*
X0380170Y0274210D01*
X0380170Y0275409D02*
X0378352Y0275409D01*
X0379345Y0276607D02*
X0380170Y0276607D01*
X0380170Y0277806D02*
X0379842Y0277806D01*
X0379870Y0279004D02*
X0380170Y0279004D01*
X0380170Y0280203D02*
X0379631Y0280203D01*
X0380170Y0281401D02*
X0379042Y0281401D01*
X0366798Y0202300D02*
X0359107Y0202300D01*
X0357909Y0201101D02*
X0365682Y0201101D01*
X0365185Y0199903D02*
X0356710Y0199903D01*
X0355512Y0198704D02*
X0365070Y0198704D01*
X0365223Y0197506D02*
X0355170Y0197506D01*
X0355170Y0196307D02*
X0365720Y0196307D01*
X0366889Y0195109D02*
X0355170Y0195109D01*
X0317902Y0144771D02*
X0301170Y0144771D01*
X0301170Y0143573D02*
X0317902Y0143573D01*
X0301170Y0139977D02*
X0388461Y0139977D01*
X0388461Y0138779D02*
X0301170Y0138779D01*
X0301170Y0137580D02*
X0388461Y0137580D01*
X0388461Y0136382D02*
X0301170Y0136382D01*
X0301170Y0135183D02*
X0388461Y0135183D01*
X0388461Y0133984D02*
X0301170Y0133984D01*
X0301170Y0132786D02*
X0388461Y0132786D01*
X0388461Y0131587D02*
X0301170Y0131587D01*
X0301170Y0130389D02*
X0388461Y0130389D01*
X0388461Y0129190D02*
X0301170Y0129190D01*
X0301170Y0127992D02*
X0388461Y0127992D01*
X0388461Y0126793D02*
X0301170Y0126793D01*
X0301170Y0125595D02*
X0388461Y0125595D01*
X0388461Y0124396D02*
X0301004Y0124396D01*
X0299805Y0123198D02*
X0388461Y0123198D01*
X0388461Y0121999D02*
X0298607Y0121999D01*
X0297408Y0120801D02*
X0388461Y0120801D01*
X0388461Y0119602D02*
X0296210Y0119602D01*
X0295011Y0118404D02*
X0388461Y0118404D01*
X0388461Y0117205D02*
X0293813Y0117205D01*
X0292614Y0116007D02*
X0388461Y0116007D01*
X0388461Y0114808D02*
X0291416Y0114808D01*
X0290217Y0113610D02*
X0388461Y0113610D01*
X0388461Y0112411D02*
X0289019Y0112411D01*
X0287820Y0111213D02*
X0388461Y0111213D01*
X0388461Y0110014D02*
X0286622Y0110014D01*
X0285423Y0108816D02*
X0388461Y0108816D01*
X0388461Y0107617D02*
X0284225Y0107617D01*
X0283026Y0106419D02*
X0373309Y0106419D01*
X0371209Y0105220D02*
X0281828Y0105220D01*
X0281951Y0104022D02*
X0369828Y0104022D01*
X0368680Y0102823D02*
X0282447Y0102823D01*
X0282670Y0101625D02*
X0367988Y0101625D01*
X0367306Y0100426D02*
X0282670Y0100426D01*
X0282261Y0099228D02*
X0366985Y0099228D01*
X0366664Y0098029D02*
X0281604Y0098029D01*
X0280389Y0096831D02*
X0366571Y0096831D01*
X0366571Y0095632D02*
X0280442Y0095632D01*
X0281641Y0094434D02*
X0366673Y0094434D01*
X0366995Y0093235D02*
X0282277Y0093235D01*
X0282670Y0092037D02*
X0367318Y0092037D01*
X0368010Y0090838D02*
X0282670Y0090838D01*
X0282432Y0089640D02*
X0368702Y0089640D01*
X0369866Y0088441D02*
X0281935Y0088441D01*
X0280817Y0087243D02*
X0371273Y0087243D01*
X0373448Y0086044D02*
X0259866Y0086044D01*
X0259866Y0087243D02*
X0274124Y0087243D01*
X0273006Y0088441D02*
X0259866Y0088441D01*
X0259866Y0089640D02*
X0272509Y0089640D01*
X0272270Y0090838D02*
X0259866Y0090838D01*
X0259866Y0092037D02*
X0272270Y0092037D01*
X0272664Y0093235D02*
X0259866Y0093235D01*
X0259866Y0094434D02*
X0273300Y0094434D01*
X0274499Y0095632D02*
X0259866Y0095632D01*
X0259866Y0096831D02*
X0274551Y0096831D01*
X0273337Y0098029D02*
X0259866Y0098029D01*
X0259866Y0099228D02*
X0272680Y0099228D01*
X0272270Y0100426D02*
X0259866Y0100426D01*
X0259866Y0101625D02*
X0272270Y0101625D01*
X0272494Y0102823D02*
X0259866Y0102823D01*
X0259866Y0104022D02*
X0272990Y0104022D01*
X0274087Y0105220D02*
X0259866Y0105220D01*
X0259866Y0106419D02*
X0275058Y0106419D01*
X0273466Y0107617D02*
X0259866Y0107617D01*
X0259866Y0108816D02*
X0272650Y0108816D01*
X0272199Y0110014D02*
X0259866Y0110014D01*
X0259866Y0111213D02*
X0277086Y0111213D01*
X0272187Y0112411D02*
X0259866Y0112411D01*
X0259866Y0113610D02*
X0272612Y0113610D01*
X0273392Y0114808D02*
X0259866Y0114808D01*
X0259866Y0116007D02*
X0274912Y0116007D01*
X0274161Y0117205D02*
X0259866Y0117205D01*
X0259866Y0118404D02*
X0273021Y0118404D01*
X0272524Y0119602D02*
X0259866Y0119602D01*
X0259866Y0120801D02*
X0272270Y0120801D01*
X0272270Y0121999D02*
X0259866Y0121999D01*
X0259866Y0123198D02*
X0272649Y0123198D01*
X0273263Y0124396D02*
X0259866Y0124396D01*
X0259866Y0125595D02*
X0274461Y0125595D01*
X0274641Y0126793D02*
X0259866Y0126793D01*
X0259866Y0127992D02*
X0273375Y0127992D01*
X0272695Y0129190D02*
X0259866Y0129190D01*
X0259866Y0130389D02*
X0272270Y0130389D01*
X0272270Y0131587D02*
X0259866Y0131587D01*
X0259866Y0132786D02*
X0272478Y0132786D01*
X0272975Y0133984D02*
X0259866Y0133984D01*
X0259866Y0135183D02*
X0274050Y0135183D01*
X0275636Y0136382D02*
X0259866Y0136382D01*
X0259866Y0137580D02*
X0273787Y0137580D01*
X0272866Y0138779D02*
X0259866Y0138779D01*
X0259866Y0139977D02*
X0272369Y0139977D01*
X0272270Y0141176D02*
X0259866Y0141176D01*
X0259866Y0142374D02*
X0272308Y0142374D01*
X0272804Y0143573D02*
X0259866Y0143573D01*
X0259866Y0144771D02*
X0273638Y0144771D01*
X0275276Y0145970D02*
X0259866Y0145970D01*
X0259866Y0147168D02*
X0274198Y0147168D01*
X0273036Y0148367D02*
X0259866Y0148367D01*
X0259866Y0149565D02*
X0272540Y0149565D01*
X0272270Y0150764D02*
X0259866Y0150764D01*
X0259866Y0151962D02*
X0272270Y0151962D01*
X0272633Y0153161D02*
X0259866Y0153161D01*
X0259866Y0154359D02*
X0273226Y0154359D01*
X0274424Y0155558D02*
X0259866Y0155558D01*
X0259866Y0156756D02*
X0274731Y0156756D01*
X0273412Y0157955D02*
X0259866Y0157955D01*
X0259866Y0159153D02*
X0272711Y0159153D01*
X0272270Y0160352D02*
X0259866Y0160352D01*
X0259866Y0161550D02*
X0272270Y0161550D01*
X0272463Y0162749D02*
X0259866Y0162749D01*
X0259866Y0163947D02*
X0272959Y0163947D01*
X0274012Y0165146D02*
X0259866Y0165146D01*
X0259866Y0166344D02*
X0276181Y0166344D01*
X0278760Y0166344D02*
X0297370Y0166344D01*
X0297370Y0165146D02*
X0280929Y0165146D01*
X0281982Y0163947D02*
X0297370Y0163947D01*
X0297370Y0162749D02*
X0282478Y0162749D01*
X0282670Y0161550D02*
X0297370Y0161550D01*
X0297370Y0160352D02*
X0282670Y0160352D01*
X0282230Y0159153D02*
X0297370Y0159153D01*
X0297370Y0157955D02*
X0281529Y0157955D01*
X0280210Y0156756D02*
X0297370Y0156756D01*
X0297370Y0155558D02*
X0280517Y0155558D01*
X0281715Y0154359D02*
X0297370Y0154359D01*
X0297370Y0153161D02*
X0282307Y0153161D01*
X0282670Y0151962D02*
X0297370Y0151962D01*
X0297370Y0150764D02*
X0282670Y0150764D01*
X0282401Y0149565D02*
X0291639Y0149565D01*
X0293302Y0149565D02*
X0297370Y0149565D01*
X0297370Y0148367D02*
X0295135Y0148367D01*
X0295750Y0147168D02*
X0297370Y0147168D01*
X0297370Y0145970D02*
X0295852Y0145970D01*
X0295518Y0144771D02*
X0297370Y0144771D01*
X0297370Y0143573D02*
X0294575Y0143573D01*
X0297370Y0142374D02*
X0291423Y0142374D01*
X0290224Y0141176D02*
X0297370Y0141176D01*
X0297370Y0139977D02*
X0289026Y0139977D01*
X0287827Y0138779D02*
X0297370Y0138779D01*
X0297370Y0137580D02*
X0286629Y0137580D01*
X0285430Y0136382D02*
X0297370Y0136382D01*
X0297370Y0135183D02*
X0284232Y0135183D01*
X0283033Y0133984D02*
X0297370Y0133984D01*
X0297370Y0132786D02*
X0282463Y0132786D01*
X0282670Y0131587D02*
X0297370Y0131587D01*
X0297370Y0130389D02*
X0282670Y0130389D01*
X0282246Y0129190D02*
X0297370Y0129190D01*
X0297370Y0127992D02*
X0281566Y0127992D01*
X0280300Y0126793D02*
X0297370Y0126793D01*
X0296828Y0125595D02*
X0280479Y0125595D01*
X0281678Y0124396D02*
X0295630Y0124396D01*
X0294431Y0123198D02*
X0282292Y0123198D01*
X0282670Y0121999D02*
X0293233Y0121999D01*
X0292034Y0120801D02*
X0282670Y0120801D01*
X0282416Y0119602D02*
X0290836Y0119602D01*
X0289637Y0118404D02*
X0281920Y0118404D01*
X0280780Y0117205D02*
X0288439Y0117205D01*
X0287240Y0116007D02*
X0280029Y0116007D01*
X0281549Y0114808D02*
X0286042Y0114808D01*
X0284843Y0113610D02*
X0282329Y0113610D01*
X0282754Y0112411D02*
X0283645Y0112411D01*
X0279970Y0133750D02*
X0292470Y0146250D01*
X0289089Y0145970D02*
X0279665Y0145970D01*
X0280743Y0147168D02*
X0289191Y0147168D01*
X0289806Y0148367D02*
X0281905Y0148367D01*
X0281303Y0144771D02*
X0288163Y0144771D01*
X0286965Y0143573D02*
X0282137Y0143573D01*
X0282633Y0142374D02*
X0285766Y0142374D01*
X0284568Y0141176D02*
X0282670Y0141176D01*
X0282572Y0139977D02*
X0283369Y0139977D01*
X0282171Y0138779D02*
X0282075Y0138779D01*
X0250666Y0138779D02*
X0249870Y0138779D01*
X0249870Y0139977D02*
X0250666Y0139977D01*
X0250666Y0141176D02*
X0249870Y0141176D01*
X0249870Y0142374D02*
X0250666Y0142374D01*
X0250666Y0143573D02*
X0249870Y0143573D01*
X0249870Y0144771D02*
X0250666Y0144771D01*
X0250666Y0145970D02*
X0249870Y0145970D01*
X0249870Y0147168D02*
X0250666Y0147168D01*
X0250666Y0148367D02*
X0249870Y0148367D01*
X0249870Y0149565D02*
X0250666Y0149565D01*
X0250666Y0150764D02*
X0249870Y0150764D01*
X0249870Y0151962D02*
X0250666Y0151962D01*
X0250666Y0153161D02*
X0249870Y0153161D01*
X0249870Y0154359D02*
X0250666Y0154359D01*
X0250666Y0155558D02*
X0249870Y0155558D01*
X0249870Y0156756D02*
X0250666Y0156756D01*
X0259866Y0167543D02*
X0297370Y0167543D01*
X0297370Y0168741D02*
X0259866Y0168741D01*
X0246070Y0172337D02*
X0238831Y0172337D01*
X0240170Y0173535D02*
X0246070Y0173535D01*
X0246070Y0174734D02*
X0241294Y0174734D01*
X0241986Y0175932D02*
X0246070Y0175932D01*
X0246070Y0177131D02*
X0242650Y0177131D01*
X0242972Y0178329D02*
X0246070Y0178329D01*
X0246070Y0179528D02*
X0243293Y0179528D01*
X0243370Y0180726D02*
X0246070Y0180726D01*
X0246070Y0181925D02*
X0243370Y0181925D01*
X0243252Y0183123D02*
X0246070Y0183123D01*
X0246070Y0184322D02*
X0242931Y0184322D01*
X0242590Y0185520D02*
X0246070Y0185520D01*
X0246014Y0186719D02*
X0241898Y0186719D01*
X0241206Y0187918D02*
X0244816Y0187918D01*
X0243617Y0189116D02*
X0240018Y0189116D01*
X0238569Y0190315D02*
X0242419Y0190315D01*
X0241220Y0191513D02*
X0236280Y0191513D01*
X0198171Y0207094D02*
X0195922Y0207094D01*
X0196964Y0208292D02*
X0198341Y0208292D01*
X0176669Y0253836D02*
X0162564Y0253836D01*
X0163113Y0255034D02*
X0177868Y0255034D01*
X0179066Y0256233D02*
X0163170Y0256233D01*
X0164039Y0257431D02*
X0180265Y0257431D01*
X0181463Y0258630D02*
X0165237Y0258630D01*
X0166436Y0259828D02*
X0182662Y0259828D01*
X0183860Y0261027D02*
X0167634Y0261027D01*
X0168833Y0262225D02*
X0185059Y0262225D01*
X0186257Y0263424D02*
X0170031Y0263424D01*
X0171230Y0264622D02*
X0187456Y0264622D01*
X0187870Y0265821D02*
X0172428Y0265821D01*
X0173627Y0267019D02*
X0188116Y0267019D01*
X0281280Y0191513D02*
X0297370Y0191513D01*
X0297370Y0190315D02*
X0283569Y0190315D01*
X0285018Y0189116D02*
X0297370Y0189116D01*
X0297370Y0187918D02*
X0286206Y0187918D01*
X0286898Y0186719D02*
X0297370Y0186719D01*
X0297370Y0185520D02*
X0287590Y0185520D01*
X0287931Y0184322D02*
X0297370Y0184322D01*
X0297370Y0183123D02*
X0288252Y0183123D01*
X0288370Y0181925D02*
X0297370Y0181925D01*
X0297370Y0180726D02*
X0288370Y0180726D01*
X0288293Y0179528D02*
X0297370Y0179528D01*
X0297370Y0178329D02*
X0287972Y0178329D01*
X0287650Y0177131D02*
X0297370Y0177131D01*
X0297370Y0175932D02*
X0286986Y0175932D01*
X0250666Y0137580D02*
X0249870Y0137580D01*
X0249870Y0136382D02*
X0250666Y0136382D01*
X0250666Y0135183D02*
X0249870Y0135183D01*
X0249870Y0133984D02*
X0250666Y0133984D01*
X0250666Y0132786D02*
X0249870Y0132786D01*
X0249870Y0131587D02*
X0250666Y0131587D01*
X0250666Y0130389D02*
X0249870Y0130389D01*
X0249870Y0129190D02*
X0250666Y0129190D01*
X0250666Y0127992D02*
X0249870Y0127992D01*
X0249870Y0126793D02*
X0250666Y0126793D01*
X0250666Y0125595D02*
X0249870Y0125595D01*
X0249870Y0124396D02*
X0250666Y0124396D01*
X0250666Y0123198D02*
X0249870Y0123198D01*
X0249870Y0121999D02*
X0250666Y0121999D01*
X0250666Y0120801D02*
X0249870Y0120801D01*
X0249870Y0119602D02*
X0250666Y0119602D01*
X0250666Y0118404D02*
X0249870Y0118404D01*
X0249870Y0117205D02*
X0250666Y0117205D01*
X0250666Y0116007D02*
X0249870Y0116007D01*
X0249870Y0114808D02*
X0250666Y0114808D01*
X0250666Y0113610D02*
X0249870Y0113610D01*
X0249870Y0112411D02*
X0250666Y0112411D01*
X0250666Y0111213D02*
X0249870Y0111213D01*
X0249870Y0110014D02*
X0250666Y0110014D01*
X0250666Y0108816D02*
X0249870Y0108816D01*
X0249870Y0107617D02*
X0250666Y0107617D01*
X0250666Y0106419D02*
X0249870Y0106419D01*
X0249870Y0105220D02*
X0250666Y0105220D01*
X0250666Y0104022D02*
X0249129Y0104022D01*
X0247931Y0102823D02*
X0250666Y0102823D01*
X0250666Y0101625D02*
X0246732Y0101625D01*
X0245534Y0100426D02*
X0250666Y0100426D01*
X0250666Y0099228D02*
X0244335Y0099228D01*
X0243137Y0098029D02*
X0250666Y0098029D01*
X0250666Y0096831D02*
X0241938Y0096831D01*
X0240740Y0095632D02*
X0250666Y0095632D01*
X0250666Y0094434D02*
X0239541Y0094434D01*
X0236252Y0106419D02*
X0234395Y0106419D01*
X0236192Y0107617D02*
X0237451Y0107617D01*
X0237091Y0108816D02*
X0237970Y0108816D01*
X0237970Y0110014D02*
X0237587Y0110014D01*
X0237670Y0111213D02*
X0237970Y0111213D01*
X0237970Y0112411D02*
X0237618Y0112411D01*
X0237970Y0113610D02*
X0237121Y0113610D01*
X0237970Y0114808D02*
X0236266Y0114808D01*
X0234575Y0116007D02*
X0237970Y0116007D01*
X0237970Y0117205D02*
X0235780Y0117205D01*
X0236920Y0118404D02*
X0237970Y0118404D01*
X0237970Y0119602D02*
X0237416Y0119602D01*
X0237670Y0120801D02*
X0237970Y0120801D01*
X0237970Y0121999D02*
X0237670Y0121999D01*
X0237970Y0123198D02*
X0237292Y0123198D01*
X0236678Y0124396D02*
X0237970Y0124396D01*
X0237970Y0125595D02*
X0235479Y0125595D01*
X0235300Y0126793D02*
X0237970Y0126793D01*
X0237970Y0127992D02*
X0236566Y0127992D01*
X0237246Y0129190D02*
X0237970Y0129190D01*
X0237970Y0130389D02*
X0237670Y0130389D01*
X0237670Y0131587D02*
X0237970Y0131587D01*
X0237970Y0132786D02*
X0237463Y0132786D01*
X0236966Y0133984D02*
X0237970Y0133984D01*
X0237970Y0135183D02*
X0235891Y0135183D01*
X0234810Y0136382D02*
X0237970Y0136382D01*
X0237970Y0137580D02*
X0236437Y0137580D01*
X0237272Y0138779D02*
X0237970Y0138779D01*
X0237970Y0139977D02*
X0237735Y0139977D01*
X0230131Y0136382D02*
X0218026Y0136382D01*
X0216827Y0137580D02*
X0228504Y0137580D01*
X0227669Y0138779D02*
X0215629Y0138779D01*
X0214430Y0139977D02*
X0227206Y0139977D01*
X0229050Y0135183D02*
X0219224Y0135183D01*
X0220423Y0133984D02*
X0227975Y0133984D01*
X0227478Y0132786D02*
X0221621Y0132786D01*
X0222820Y0131587D02*
X0227270Y0131587D01*
X0227270Y0130389D02*
X0224018Y0130389D01*
X0225217Y0129190D02*
X0227695Y0129190D01*
X0228375Y0127992D02*
X0226416Y0127992D01*
X0227614Y0126793D02*
X0229641Y0126793D01*
X0229461Y0125595D02*
X0228813Y0125595D01*
X0250666Y0086044D02*
X0136493Y0086044D01*
X0122306Y0100426D02*
X0122070Y0100426D01*
X0122070Y0101625D02*
X0122988Y0101625D01*
X0123680Y0102823D02*
X0122070Y0102823D01*
X0122070Y0104022D02*
X0124828Y0104022D01*
X0126209Y0105220D02*
X0122070Y0105220D01*
X0122070Y0142374D02*
X0148178Y0142374D01*
X0147902Y0143573D02*
X0122070Y0143573D01*
X0122070Y0144771D02*
X0147902Y0144771D01*
X0152086Y0144771D02*
X0152855Y0144771D01*
X0152855Y0143573D02*
X0152086Y0143573D01*
X0152086Y0142374D02*
X0152855Y0142374D01*
X0156763Y0142374D02*
X0160412Y0142374D01*
X0158970Y0143573D02*
X0157039Y0143573D01*
X0157039Y0144771D02*
X0158355Y0144771D01*
X0152855Y0147168D02*
X0152086Y0147168D01*
X0152086Y0148367D02*
X0152855Y0148367D01*
X0152855Y0149565D02*
X0152086Y0149565D01*
X0152086Y0150764D02*
X0152855Y0150764D01*
X0331274Y0367694D02*
X0336029Y0367694D01*
X0334900Y0368893D02*
X0332404Y0368893D01*
X0332900Y0370091D02*
X0334403Y0370091D01*
X0334283Y0371290D02*
X0333020Y0371290D01*
X0332867Y0372488D02*
X0334436Y0372488D01*
X0381631Y0106419D02*
X0388461Y0106419D01*
X0388461Y0105220D02*
X0383732Y0105220D01*
X0385113Y0104022D02*
X0388461Y0104022D01*
X0388461Y0102823D02*
X0386261Y0102823D01*
X0386953Y0101625D02*
X0388461Y0101625D01*
X0388461Y0100426D02*
X0387635Y0100426D01*
X0387956Y0099228D02*
X0388461Y0099228D01*
X0388461Y0098029D02*
X0388277Y0098029D01*
X0388370Y0096831D02*
X0388461Y0096831D01*
X0388461Y0095632D02*
X0388370Y0095632D01*
X0388461Y0094434D02*
X0388267Y0094434D01*
X0388461Y0093235D02*
X0387946Y0093235D01*
X0387623Y0092037D02*
X0388461Y0092037D01*
X0388461Y0090838D02*
X0386931Y0090838D01*
X0386239Y0089640D02*
X0388461Y0089640D01*
X0388461Y0088441D02*
X0385075Y0088441D01*
X0383668Y0087243D02*
X0388461Y0087243D01*
X0388461Y0086044D02*
X0381493Y0086044D01*
D15*
X0292470Y0146250D03*
X0282470Y0201250D03*
X0357470Y0296250D03*
X0347470Y0306250D03*
X0312470Y0346250D03*
X0302470Y0381250D03*
X0277470Y0301250D03*
D16*
X0299270Y0305350D02*
X0316370Y0322450D01*
X0359570Y0279250D01*
X0372170Y0279250D01*
X0372470Y0278750D01*
X0376670Y0273850D02*
X0380270Y0270250D01*
X0380270Y0266650D01*
X0376670Y0263050D01*
X0367670Y0263050D01*
X0364970Y0260350D01*
X0364970Y0256750D01*
X0372170Y0249550D01*
X0372470Y0248750D01*
X0368570Y0244150D02*
X0377570Y0244150D01*
X0380270Y0246850D01*
X0380270Y0251350D01*
X0373070Y0258550D01*
X0372470Y0258750D01*
X0372170Y0268450D02*
X0372470Y0268750D01*
X0372170Y0268450D02*
X0370370Y0268450D01*
X0320870Y0218950D01*
X0310970Y0218950D01*
X0309170Y0234250D02*
X0302870Y0234250D01*
X0302870Y0268450D01*
X0302870Y0234250D02*
X0302870Y0175750D01*
X0331670Y0146950D01*
X0332470Y0146250D01*
X0342470Y0146250D02*
X0342470Y0198250D01*
X0372170Y0227950D01*
X0372470Y0228750D01*
X0372470Y0218750D02*
X0372170Y0218050D01*
X0353270Y0199150D01*
X0353270Y0146950D01*
X0352470Y0146250D01*
X0372470Y0198750D02*
X0373070Y0199150D01*
X0382070Y0208150D01*
X0382070Y0321550D01*
X0348770Y0354850D01*
X0348770Y0371050D01*
X0348652Y0371250D01*
X0347870Y0371950D01*
X0344270Y0371950D01*
X0340670Y0375550D01*
X0296570Y0375550D01*
X0277670Y0356650D01*
X0277470Y0356250D01*
X0272270Y0353950D02*
X0272270Y0361150D01*
X0276770Y0365650D01*
X0277470Y0366250D01*
X0272270Y0353950D02*
X0275870Y0350350D01*
X0288470Y0350350D01*
X0316370Y0322450D01*
X0313670Y0313450D02*
X0322670Y0313450D01*
X0362270Y0273850D01*
X0376670Y0273850D01*
X0372470Y0288750D02*
X0373070Y0289150D01*
X0380270Y0296350D01*
X0380270Y0320650D01*
X0338870Y0362050D01*
X0338870Y0371050D01*
X0338652Y0371250D01*
X0328970Y0371050D02*
X0328652Y0371250D01*
X0328970Y0371050D02*
X0328970Y0342250D01*
X0372470Y0298750D01*
X0368570Y0244150D02*
X0343370Y0218950D01*
X0330770Y0218950D01*
X0247970Y0187450D02*
X0247970Y0105550D01*
X0234470Y0092050D01*
X0232670Y0092050D01*
X0232470Y0091250D01*
X0232470Y0101250D02*
X0232670Y0101950D01*
X0234470Y0101950D01*
X0239870Y0107350D01*
X0239870Y0164050D01*
X0235370Y0168550D01*
X0226370Y0168550D01*
X0219170Y0175750D01*
X0219170Y0197350D01*
X0193970Y0222550D01*
X0200270Y0228850D02*
X0203870Y0225250D01*
X0210170Y0225250D01*
X0247970Y0187450D01*
X0226370Y0155950D02*
X0222770Y0155950D01*
X0139970Y0238750D01*
X0137470Y0238750D01*
X0137470Y0228750D02*
X0137270Y0227950D01*
X0133670Y0227950D01*
X0127370Y0221650D01*
X0127370Y0192850D01*
X0170570Y0149650D01*
X0170570Y0148750D01*
X0172370Y0146950D01*
X0172470Y0146250D01*
X0180470Y0148750D02*
X0180470Y0149650D01*
X0147170Y0182950D01*
X0147170Y0212650D01*
X0141770Y0218050D01*
X0138170Y0218050D01*
X0137470Y0218750D01*
X0146270Y0255850D02*
X0180470Y0290050D01*
X0180470Y0293650D01*
X0173270Y0300850D02*
X0141770Y0269350D01*
X0138170Y0269350D01*
X0137470Y0268750D01*
X0137470Y0258750D02*
X0138170Y0258550D01*
X0143570Y0258550D01*
X0146270Y0255850D01*
X0192170Y0209950D01*
X0193970Y0209950D01*
X0201170Y0208150D02*
X0201170Y0205450D01*
X0201170Y0208150D02*
X0152570Y0256750D01*
X0159770Y0255850D02*
X0193970Y0290050D01*
X0193970Y0305350D02*
X0193970Y0352150D01*
X0227270Y0385450D01*
X0228170Y0385450D01*
X0229070Y0386350D01*
X0231770Y0386350D01*
X0232470Y0386250D01*
X0178337Y0371250D02*
X0177770Y0371050D01*
X0177770Y0370150D01*
X0139070Y0331450D01*
X0139070Y0320650D01*
X0137470Y0318750D01*
X0138170Y0318850D01*
X0139070Y0319750D01*
X0139070Y0320650D01*
X0151670Y0308050D01*
X0137470Y0298750D02*
X0137270Y0299050D01*
X0134570Y0299050D01*
X0127370Y0306250D01*
X0127370Y0338650D01*
X0157970Y0369250D01*
X0157970Y0371050D01*
X0158337Y0371250D01*
X0163370Y0378250D02*
X0167870Y0373750D01*
X0167870Y0371950D01*
X0168337Y0371250D01*
X0163370Y0378250D02*
X0156170Y0378250D01*
X0125570Y0347650D01*
X0125570Y0298150D01*
X0134570Y0289150D01*
X0137270Y0289150D01*
X0137470Y0288750D01*
X0175070Y0249550D02*
X0191270Y0265750D01*
X0201170Y0171250D02*
X0193970Y0164050D01*
X0193970Y0147850D01*
X0228170Y0113650D01*
X0229070Y0113650D01*
X0231770Y0110950D01*
X0232470Y0111250D01*
X0231770Y0120850D02*
X0229070Y0123550D01*
X0228170Y0123550D01*
X0197570Y0154150D01*
X0197570Y0162250D01*
X0182270Y0146950D02*
X0182470Y0146250D01*
X0182270Y0146950D02*
X0180470Y0148750D01*
X0226370Y0155950D02*
X0231770Y0150550D01*
X0232470Y0151250D01*
X0232470Y0121250D02*
X0231770Y0120850D01*
X0277470Y0131250D02*
X0277670Y0131650D01*
X0279470Y0133450D01*
X0279970Y0133750D01*
X0299270Y0125350D02*
X0277670Y0103750D01*
X0277670Y0101950D01*
X0277470Y0101250D01*
X0299270Y0125350D02*
X0299270Y0305350D01*
D17*
X0313670Y0313450D03*
X0302870Y0268450D03*
X0309170Y0234250D03*
X0310970Y0218950D03*
X0330770Y0218950D03*
X0201170Y0205450D03*
X0193970Y0209950D03*
X0193970Y0222550D03*
X0200270Y0228850D03*
X0175070Y0249550D03*
X0159770Y0255850D03*
X0152570Y0256750D03*
X0180470Y0293650D03*
X0173270Y0300850D03*
X0151670Y0308050D03*
X0191270Y0265750D03*
X0193970Y0290050D03*
X0193970Y0305350D03*
X0201170Y0171250D03*
X0197570Y0162250D03*
M02*
