%
M48
M72
T01C0.02362
T02C0.02400
T03C0.03937
T04C0.04000
T05C0.12598
%
T01
X282470Y201250
X292470Y146250
X357470Y296250
X347470Y306250
X312470Y346250
X302470Y381250
X277470Y301250
T02
X313670Y313450
X302870Y268450
X309170Y234250
X310970Y218950
X330770Y218950
X201170Y205450
X193970Y209950
X193970Y222550
X200270Y228850
X175070Y249550
X159770Y255850
X152570Y256750
X180470Y293650
X173270Y300850
X151670Y308050
X191270Y265750
X193970Y290050
X193970Y305350
X201170Y171250
X197570Y162250
T03
X182470Y146250
X172470Y146250
X162470Y146250
X152470Y146250
X232470Y141250
X232470Y131250
X232470Y121250
X232470Y111250
X232470Y101250
X232470Y91250
X277470Y91250
X277470Y101250
X277470Y111250
X277470Y121250
X277470Y131250
X277470Y141250
X277470Y151250
X277470Y161250
X232470Y161250
X232470Y151250
X322470Y146250
X332470Y146250
X342470Y146250
X352470Y146250
X277470Y356250
X277470Y366250
X277470Y376250
X277470Y386250
X277470Y396250
X277470Y406250
X277470Y416250
X277470Y426250
X232470Y426250
X232470Y416250
X232470Y406250
X232470Y396250
X232470Y386250
X232470Y376250
X232470Y366250
X232470Y356250
X188337Y371250
X178337Y371250
X168337Y371250
X158337Y371250
X328652Y371250
X338652Y371250
X348652Y371250
X358652Y371250
T04
X372470Y318750
X372470Y308750
X372470Y298750
X372470Y288750
X372470Y278750
X372470Y268750
X372470Y258750
X372470Y248750
X372470Y238750
X372470Y228750
X372470Y218750
X372470Y208750
X372470Y198750
X137470Y198750
X137470Y208750
X137470Y218750
X137470Y228750
X137470Y238750
X137470Y248750
X137470Y258750
X137470Y268750
X137470Y278750
X137470Y288750
X137470Y298750
X137470Y308750
X137470Y318750
T05
X132470Y96250
X232470Y181250
X277470Y181250
X377470Y96250
X277470Y336250
X232470Y336250
X132470Y421250
X377470Y421250
M30
