G75*
%MOIN*%
%OFA0B0*%
%FSLAX25Y25*%
%IPPOS*%
%LPD*%
%AMOC8*
5,1,8,0,0,1.08239X$1,22.5*
%
%ADD10R,0.06700X0.02100*%
%ADD11C,0.06000*%
%ADD12C,0.07600*%
%ADD13R,0.05937X0.05937*%
%ADD14C,0.05937*%
%ADD15C,0.01200*%
%ADD16C,0.03962*%
%ADD17C,0.01000*%
%ADD18C,0.04000*%
D10*
X0187270Y0203750D03*
X0187270Y0208750D03*
X0187270Y0213750D03*
X0187270Y0218750D03*
X0187270Y0223750D03*
X0187270Y0228750D03*
X0187270Y0233750D03*
X0207670Y0233750D03*
X0207670Y0228750D03*
X0207670Y0223750D03*
X0207670Y0218750D03*
X0207670Y0213750D03*
X0207670Y0208750D03*
X0207670Y0203750D03*
X0207670Y0283750D03*
X0207670Y0288750D03*
X0207670Y0293750D03*
X0207670Y0298750D03*
X0207670Y0303750D03*
X0207670Y0308750D03*
X0207670Y0313750D03*
X0187270Y0313750D03*
X0187270Y0308750D03*
X0187270Y0303750D03*
X0187270Y0298750D03*
X0187270Y0293750D03*
X0187270Y0288750D03*
X0187270Y0283750D03*
X0302270Y0283750D03*
X0302270Y0288750D03*
X0302270Y0293750D03*
X0302270Y0298750D03*
X0302270Y0303750D03*
X0302270Y0308750D03*
X0302270Y0313750D03*
X0322670Y0313750D03*
X0322670Y0308750D03*
X0322670Y0303750D03*
X0322670Y0298750D03*
X0322670Y0293750D03*
X0322670Y0288750D03*
X0322670Y0283750D03*
X0322670Y0233750D03*
X0322670Y0228750D03*
X0322670Y0223750D03*
X0322670Y0218750D03*
X0322670Y0213750D03*
X0322670Y0208750D03*
X0322670Y0203750D03*
X0302270Y0203750D03*
X0302270Y0208750D03*
X0302270Y0213750D03*
X0302270Y0218750D03*
X0302270Y0223750D03*
X0302270Y0228750D03*
X0302270Y0233750D03*
D11*
X0369470Y0228750D02*
X0375470Y0228750D01*
X0375470Y0218750D02*
X0369470Y0218750D01*
X0369470Y0208750D02*
X0375470Y0208750D01*
X0375470Y0198750D02*
X0369470Y0198750D01*
X0369470Y0238750D02*
X0375470Y0238750D01*
X0375470Y0248750D02*
X0369470Y0248750D01*
X0369470Y0258750D02*
X0375470Y0258750D01*
X0375470Y0268750D02*
X0369470Y0268750D01*
X0369470Y0278750D02*
X0375470Y0278750D01*
X0375470Y0288750D02*
X0369470Y0288750D01*
X0369470Y0298750D02*
X0375470Y0298750D01*
X0375470Y0308750D02*
X0369470Y0308750D01*
X0369470Y0318750D02*
X0375470Y0318750D01*
X0140470Y0318750D02*
X0134470Y0318750D01*
X0134470Y0308750D02*
X0140470Y0308750D01*
X0140470Y0298750D02*
X0134470Y0298750D01*
X0134470Y0288750D02*
X0140470Y0288750D01*
X0140470Y0278750D02*
X0134470Y0278750D01*
X0134470Y0268750D02*
X0140470Y0268750D01*
X0140470Y0258750D02*
X0134470Y0258750D01*
X0134470Y0248750D02*
X0140470Y0248750D01*
X0140470Y0238750D02*
X0134470Y0238750D01*
X0134470Y0228750D02*
X0140470Y0228750D01*
X0140470Y0218750D02*
X0134470Y0218750D01*
X0134470Y0208750D02*
X0140470Y0208750D01*
X0140470Y0198750D02*
X0134470Y0198750D01*
D12*
X0232470Y0161250D03*
X0232470Y0151250D03*
X0232470Y0141250D03*
X0232470Y0131250D03*
X0232470Y0121250D03*
X0232470Y0111250D03*
X0232470Y0101250D03*
X0232470Y0091250D03*
X0277470Y0091250D03*
X0277470Y0101250D03*
X0277470Y0111250D03*
X0277470Y0121250D03*
X0277470Y0131250D03*
X0277470Y0141250D03*
X0277470Y0151250D03*
X0277470Y0161250D03*
X0277470Y0356250D03*
X0277470Y0366250D03*
X0277470Y0376250D03*
X0277470Y0386250D03*
X0277470Y0396250D03*
X0277470Y0406250D03*
X0277470Y0416250D03*
X0277470Y0426250D03*
X0232470Y0426250D03*
X0232470Y0416250D03*
X0232470Y0406250D03*
X0232470Y0396250D03*
X0232470Y0386250D03*
X0232470Y0376250D03*
X0232470Y0366250D03*
X0232470Y0356250D03*
D13*
X0188337Y0371250D03*
X0358652Y0371250D03*
X0322470Y0146250D03*
X0152470Y0146250D03*
D14*
X0162470Y0146250D03*
X0172470Y0146250D03*
X0182470Y0146250D03*
X0332470Y0146250D03*
X0342470Y0146250D03*
X0352470Y0146250D03*
X0348652Y0371250D03*
X0338652Y0371250D03*
X0328652Y0371250D03*
X0178337Y0371250D03*
X0168337Y0371250D03*
X0158337Y0371250D03*
D15*
X0122070Y0417952D02*
X0122070Y0099548D01*
X0122314Y0100457D01*
X0123749Y0102942D01*
X0125778Y0104972D01*
X0128264Y0106406D01*
X0131036Y0107149D01*
X0133905Y0107149D01*
X0136677Y0106406D01*
X0139163Y0104972D01*
X0141192Y0102942D01*
X0142627Y0100457D01*
X0143370Y0097685D01*
X0143370Y0094815D01*
X0142627Y0092043D01*
X0141192Y0089558D01*
X0139163Y0087528D01*
X0136677Y0086094D01*
X0134593Y0085535D01*
X0250666Y0085535D01*
X0250666Y0430981D01*
X0234638Y0430981D01*
X0235416Y0430658D01*
X0236879Y0429196D01*
X0237670Y0427284D01*
X0237670Y0425216D01*
X0236879Y0423304D01*
X0235416Y0421842D01*
X0233988Y0421250D01*
X0235416Y0420658D01*
X0236879Y0419196D01*
X0237670Y0417284D01*
X0237670Y0415216D01*
X0236879Y0413304D01*
X0235416Y0411842D01*
X0234238Y0411354D01*
X0234543Y0411254D01*
X0235301Y0410868D01*
X0235988Y0410369D01*
X0236589Y0409768D01*
X0237089Y0409080D01*
X0237475Y0408323D01*
X0237737Y0407515D01*
X0237870Y0406675D01*
X0237870Y0406634D01*
X0232855Y0406634D01*
X0232855Y0405866D01*
X0237870Y0405866D01*
X0237870Y0405825D01*
X0237737Y0404985D01*
X0237475Y0404177D01*
X0237089Y0403420D01*
X0236589Y0402732D01*
X0235988Y0402131D01*
X0235301Y0401632D01*
X0234543Y0401246D01*
X0234238Y0401146D01*
X0235416Y0400658D01*
X0236879Y0399196D01*
X0237670Y0397284D01*
X0237670Y0395216D01*
X0236879Y0393304D01*
X0235416Y0391842D01*
X0233988Y0391250D01*
X0235416Y0390658D01*
X0236879Y0389196D01*
X0237670Y0387284D01*
X0237670Y0385216D01*
X0236879Y0383304D01*
X0235416Y0381842D01*
X0233988Y0381250D01*
X0235416Y0380658D01*
X0236879Y0379196D01*
X0237670Y0377284D01*
X0237670Y0375216D01*
X0236879Y0373304D01*
X0235416Y0371842D01*
X0233988Y0371250D01*
X0235416Y0370658D01*
X0236879Y0369196D01*
X0237670Y0367284D01*
X0237670Y0365216D01*
X0236879Y0363304D01*
X0235416Y0361842D01*
X0233988Y0361250D01*
X0235416Y0360658D01*
X0236879Y0359196D01*
X0237670Y0357284D01*
X0237670Y0355216D01*
X0236879Y0353304D01*
X0235416Y0351842D01*
X0233505Y0351050D01*
X0231557Y0351050D01*
X0221070Y0340563D01*
X0221070Y0293763D01*
X0219957Y0292650D01*
X0214557Y0287250D01*
X0212420Y0287250D01*
X0212420Y0287120D01*
X0211600Y0286300D01*
X0203741Y0286300D01*
X0202920Y0287120D01*
X0202920Y0290380D01*
X0203741Y0291200D01*
X0211600Y0291200D01*
X0211750Y0291050D01*
X0212983Y0291050D01*
X0213683Y0291750D01*
X0212983Y0291750D01*
X0212870Y0291863D01*
X0212757Y0291750D01*
X0212050Y0291750D01*
X0211600Y0291300D01*
X0203741Y0291300D01*
X0202920Y0292120D01*
X0202920Y0295380D01*
X0203741Y0296200D01*
X0211600Y0296200D01*
X0211717Y0296083D01*
X0212083Y0296450D01*
X0213657Y0296450D01*
X0213770Y0296337D01*
X0215470Y0298037D01*
X0215470Y0328663D01*
X0195291Y0308483D01*
X0195896Y0308232D01*
X0196853Y0307276D01*
X0197370Y0306026D01*
X0197370Y0304674D01*
X0196853Y0303424D01*
X0195896Y0302468D01*
X0194647Y0301950D01*
X0193294Y0301950D01*
X0192632Y0302224D01*
X0192057Y0301650D01*
X0191550Y0301650D01*
X0191200Y0301300D01*
X0183341Y0301300D01*
X0182520Y0302120D01*
X0182520Y0305380D01*
X0183341Y0306200D01*
X0190642Y0306200D01*
X0190684Y0306300D01*
X0183341Y0306300D01*
X0182520Y0307120D01*
X0182520Y0310380D01*
X0183341Y0311200D01*
X0191200Y0311200D01*
X0191550Y0310850D01*
X0192283Y0310850D01*
X0213670Y0332237D01*
X0213670Y0361937D01*
X0226270Y0374537D01*
X0227270Y0375537D01*
X0227270Y0377284D01*
X0228062Y0379196D01*
X0229525Y0380658D01*
X0230953Y0381250D01*
X0229525Y0381842D01*
X0228062Y0383304D01*
X0227270Y0385216D01*
X0227270Y0387284D01*
X0228062Y0389196D01*
X0229525Y0390658D01*
X0230953Y0391250D01*
X0229525Y0391842D01*
X0228062Y0393304D01*
X0227270Y0395216D01*
X0227270Y0397284D01*
X0228062Y0399196D01*
X0229525Y0400658D01*
X0230703Y0401146D01*
X0230398Y0401246D01*
X0229640Y0401632D01*
X0228953Y0402131D01*
X0228352Y0402732D01*
X0227852Y0403420D01*
X0227466Y0404177D01*
X0227203Y0404985D01*
X0227070Y0405825D01*
X0227070Y0405866D01*
X0232086Y0405866D01*
X0232086Y0406634D01*
X0227070Y0406634D01*
X0227070Y0406675D01*
X0227203Y0407515D01*
X0227466Y0408323D01*
X0227852Y0409080D01*
X0228352Y0409768D01*
X0228953Y0410369D01*
X0229640Y0410868D01*
X0230398Y0411254D01*
X0230703Y0411354D01*
X0229525Y0411842D01*
X0229437Y0411930D01*
X0197670Y0380163D01*
X0197670Y0366663D01*
X0156270Y0325263D01*
X0155157Y0324150D01*
X0133557Y0324150D01*
X0129270Y0319863D01*
X0129270Y0246737D01*
X0133074Y0242934D01*
X0133595Y0243150D01*
X0141346Y0243150D01*
X0142963Y0242480D01*
X0144201Y0241242D01*
X0144870Y0239625D01*
X0144870Y0237875D01*
X0144201Y0236258D01*
X0142963Y0235020D01*
X0141346Y0234350D01*
X0133595Y0234350D01*
X0131978Y0235020D01*
X0130740Y0236258D01*
X0130070Y0237875D01*
X0130070Y0239625D01*
X0130345Y0240288D01*
X0126583Y0244050D01*
X0126583Y0244050D01*
X0125470Y0245163D01*
X0125470Y0321437D01*
X0126583Y0322550D01*
X0131983Y0327950D01*
X0153583Y0327950D01*
X0193870Y0368237D01*
X0193870Y0381737D01*
X0194983Y0382850D01*
X0227294Y0415160D01*
X0227270Y0415216D01*
X0227270Y0417284D01*
X0228062Y0419196D01*
X0229525Y0420658D01*
X0230953Y0421250D01*
X0229525Y0421842D01*
X0229037Y0422330D01*
X0183270Y0376563D01*
X0183270Y0375663D01*
X0181686Y0374079D01*
X0182040Y0373725D01*
X0182705Y0372119D01*
X0182705Y0370381D01*
X0182040Y0368775D01*
X0180811Y0367547D01*
X0179206Y0366881D01*
X0177468Y0366881D01*
X0175862Y0367547D01*
X0174633Y0368775D01*
X0173968Y0370381D01*
X0173968Y0372119D01*
X0174633Y0373725D01*
X0175862Y0374953D01*
X0177468Y0375618D01*
X0177852Y0375618D01*
X0177883Y0375650D01*
X0179470Y0377237D01*
X0179470Y0378137D01*
X0180583Y0379250D01*
X0227270Y0425937D01*
X0227270Y0427284D01*
X0228062Y0429196D01*
X0229525Y0430658D01*
X0230303Y0430981D01*
X0137415Y0430981D01*
X0139163Y0429972D01*
X0141192Y0427942D01*
X0142627Y0425457D01*
X0143370Y0422685D01*
X0143370Y0419815D01*
X0142627Y0417043D01*
X0141192Y0414558D01*
X0139163Y0412528D01*
X0136677Y0411094D01*
X0133905Y0410351D01*
X0131036Y0410351D01*
X0128264Y0411094D01*
X0125778Y0412528D01*
X0123749Y0414558D01*
X0122314Y0417043D01*
X0122070Y0417952D01*
X0122070Y0416833D02*
X0122435Y0416833D01*
X0122070Y0415635D02*
X0123127Y0415635D01*
X0123871Y0414436D02*
X0122070Y0414436D01*
X0122070Y0413238D02*
X0125069Y0413238D01*
X0126626Y0412039D02*
X0122070Y0412039D01*
X0122070Y0410841D02*
X0129208Y0410841D01*
X0135733Y0410841D02*
X0212174Y0410841D01*
X0213373Y0412039D02*
X0138315Y0412039D01*
X0139872Y0413238D02*
X0214571Y0413238D01*
X0215770Y0414436D02*
X0141070Y0414436D01*
X0141814Y0415635D02*
X0216968Y0415635D01*
X0218167Y0416833D02*
X0142506Y0416833D01*
X0142892Y0418032D02*
X0219365Y0418032D01*
X0220564Y0419230D02*
X0143213Y0419230D01*
X0143370Y0420429D02*
X0221762Y0420429D01*
X0222961Y0421627D02*
X0143370Y0421627D01*
X0143332Y0422826D02*
X0224159Y0422826D01*
X0225358Y0424024D02*
X0143011Y0424024D01*
X0142690Y0425223D02*
X0226556Y0425223D01*
X0227270Y0426421D02*
X0142070Y0426421D01*
X0141378Y0427620D02*
X0227409Y0427620D01*
X0227906Y0428818D02*
X0140316Y0428818D01*
X0139084Y0430017D02*
X0228883Y0430017D01*
X0236058Y0430017D02*
X0250666Y0430017D01*
X0250666Y0428818D02*
X0237035Y0428818D01*
X0237532Y0427620D02*
X0250666Y0427620D01*
X0250666Y0426421D02*
X0237670Y0426421D01*
X0237670Y0425223D02*
X0250666Y0425223D01*
X0250666Y0424024D02*
X0237177Y0424024D01*
X0236400Y0422826D02*
X0250666Y0422826D01*
X0250666Y0421627D02*
X0234898Y0421627D01*
X0235646Y0420429D02*
X0250666Y0420429D01*
X0250666Y0419230D02*
X0236844Y0419230D01*
X0237361Y0418032D02*
X0250666Y0418032D01*
X0250666Y0416833D02*
X0237670Y0416833D01*
X0237670Y0415635D02*
X0250666Y0415635D01*
X0250666Y0414436D02*
X0237348Y0414436D01*
X0236812Y0413238D02*
X0250666Y0413238D01*
X0250666Y0412039D02*
X0235614Y0412039D01*
X0235339Y0410841D02*
X0250666Y0410841D01*
X0250666Y0409642D02*
X0236681Y0409642D01*
X0237413Y0408444D02*
X0250666Y0408444D01*
X0250666Y0407245D02*
X0237780Y0407245D01*
X0237693Y0404848D02*
X0250666Y0404848D01*
X0250666Y0403650D02*
X0237206Y0403650D01*
X0236308Y0402451D02*
X0250666Y0402451D01*
X0250666Y0401253D02*
X0234557Y0401253D01*
X0236020Y0400054D02*
X0250666Y0400054D01*
X0250666Y0398855D02*
X0237020Y0398855D01*
X0237516Y0397657D02*
X0250666Y0397657D01*
X0250666Y0396458D02*
X0237670Y0396458D01*
X0237670Y0395260D02*
X0250666Y0395260D01*
X0250666Y0394061D02*
X0237192Y0394061D01*
X0236437Y0392863D02*
X0250666Y0392863D01*
X0250666Y0391664D02*
X0234988Y0391664D01*
X0235608Y0390466D02*
X0250666Y0390466D01*
X0250666Y0389267D02*
X0236807Y0389267D01*
X0237345Y0388069D02*
X0250666Y0388069D01*
X0250666Y0386870D02*
X0237670Y0386870D01*
X0237670Y0385672D02*
X0250666Y0385672D01*
X0250666Y0384473D02*
X0237363Y0384473D01*
X0236849Y0383275D02*
X0250666Y0383275D01*
X0250666Y0382076D02*
X0235651Y0382076D01*
X0234886Y0380878D02*
X0250666Y0380878D01*
X0250666Y0379679D02*
X0236395Y0379679D01*
X0237175Y0378481D02*
X0250666Y0378481D01*
X0250666Y0377282D02*
X0237670Y0377282D01*
X0237670Y0376084D02*
X0250666Y0376084D01*
X0250666Y0374885D02*
X0237534Y0374885D01*
X0237037Y0373687D02*
X0250666Y0373687D01*
X0250666Y0372488D02*
X0236063Y0372488D01*
X0234084Y0371290D02*
X0250666Y0371290D01*
X0250666Y0370091D02*
X0235983Y0370091D01*
X0237004Y0368893D02*
X0250666Y0368893D01*
X0250666Y0367694D02*
X0237501Y0367694D01*
X0237670Y0366496D02*
X0250666Y0366496D01*
X0250666Y0365297D02*
X0237670Y0365297D01*
X0237208Y0364099D02*
X0250666Y0364099D01*
X0250666Y0362900D02*
X0236475Y0362900D01*
X0235078Y0361702D02*
X0250666Y0361702D01*
X0250666Y0360503D02*
X0235571Y0360503D01*
X0236770Y0359305D02*
X0250666Y0359305D01*
X0250666Y0358106D02*
X0237330Y0358106D01*
X0237670Y0356908D02*
X0250666Y0356908D01*
X0250666Y0355709D02*
X0237670Y0355709D01*
X0237378Y0354511D02*
X0250666Y0354511D01*
X0250666Y0353312D02*
X0236882Y0353312D01*
X0235688Y0352114D02*
X0250666Y0352114D01*
X0250666Y0350915D02*
X0231423Y0350915D01*
X0230224Y0349717D02*
X0250666Y0349717D01*
X0250666Y0348518D02*
X0229025Y0348518D01*
X0227827Y0347320D02*
X0250666Y0347320D01*
X0250666Y0346121D02*
X0237172Y0346121D01*
X0236677Y0346406D02*
X0233905Y0347149D01*
X0231036Y0347149D01*
X0228264Y0346406D01*
X0225778Y0344972D01*
X0223749Y0342942D01*
X0222314Y0340457D01*
X0221571Y0337685D01*
X0221571Y0334815D01*
X0222314Y0332043D01*
X0223749Y0329558D01*
X0225778Y0327528D01*
X0228264Y0326094D01*
X0231036Y0325351D01*
X0233905Y0325351D01*
X0236677Y0326094D01*
X0239163Y0327528D01*
X0241192Y0329558D01*
X0242627Y0332043D01*
X0243370Y0334815D01*
X0243370Y0337685D01*
X0242627Y0340457D01*
X0241192Y0342942D01*
X0239163Y0344972D01*
X0236677Y0346406D01*
X0239212Y0344922D02*
X0250666Y0344922D01*
X0250666Y0343724D02*
X0240410Y0343724D01*
X0241433Y0342525D02*
X0250666Y0342525D01*
X0250666Y0341327D02*
X0242125Y0341327D01*
X0242715Y0340128D02*
X0250666Y0340128D01*
X0250666Y0338930D02*
X0243036Y0338930D01*
X0243357Y0337731D02*
X0250666Y0337731D01*
X0250666Y0336533D02*
X0243370Y0336533D01*
X0243370Y0335334D02*
X0250666Y0335334D01*
X0250666Y0334136D02*
X0243188Y0334136D01*
X0242867Y0332937D02*
X0250666Y0332937D01*
X0250666Y0331739D02*
X0242451Y0331739D01*
X0241759Y0330540D02*
X0250666Y0330540D01*
X0250666Y0329342D02*
X0240976Y0329342D01*
X0239778Y0328143D02*
X0250666Y0328143D01*
X0250666Y0326945D02*
X0238152Y0326945D01*
X0235381Y0325746D02*
X0250666Y0325746D01*
X0250666Y0324548D02*
X0221070Y0324548D01*
X0221070Y0325746D02*
X0229559Y0325746D01*
X0226789Y0326945D02*
X0221070Y0326945D01*
X0221070Y0328143D02*
X0225163Y0328143D01*
X0223965Y0329342D02*
X0221070Y0329342D01*
X0221070Y0330540D02*
X0223182Y0330540D01*
X0222490Y0331739D02*
X0221070Y0331739D01*
X0221070Y0332937D02*
X0222074Y0332937D01*
X0221753Y0334136D02*
X0221070Y0334136D01*
X0221070Y0335334D02*
X0221571Y0335334D01*
X0221571Y0336533D02*
X0221070Y0336533D01*
X0221070Y0337731D02*
X0221584Y0337731D01*
X0221905Y0338930D02*
X0221070Y0338930D01*
X0221070Y0340128D02*
X0222226Y0340128D01*
X0221834Y0341327D02*
X0222816Y0341327D01*
X0223033Y0342525D02*
X0223508Y0342525D01*
X0224231Y0343724D02*
X0224531Y0343724D01*
X0225430Y0344922D02*
X0225729Y0344922D01*
X0226628Y0346121D02*
X0227769Y0346121D01*
X0213670Y0346121D02*
X0177128Y0346121D01*
X0175930Y0344922D02*
X0213670Y0344922D01*
X0213670Y0343724D02*
X0174731Y0343724D01*
X0173533Y0342525D02*
X0213670Y0342525D01*
X0213670Y0341327D02*
X0172334Y0341327D01*
X0171136Y0340128D02*
X0213670Y0340128D01*
X0213670Y0338930D02*
X0169937Y0338930D01*
X0168739Y0337731D02*
X0213670Y0337731D01*
X0213670Y0336533D02*
X0167540Y0336533D01*
X0166342Y0335334D02*
X0213670Y0335334D01*
X0213670Y0334136D02*
X0165143Y0334136D01*
X0163945Y0332937D02*
X0213670Y0332937D01*
X0213172Y0331739D02*
X0162746Y0331739D01*
X0161548Y0330540D02*
X0211974Y0330540D01*
X0210775Y0329342D02*
X0160349Y0329342D01*
X0159151Y0328143D02*
X0209577Y0328143D01*
X0208378Y0326945D02*
X0157952Y0326945D01*
X0156754Y0325746D02*
X0207180Y0325746D01*
X0205981Y0324548D02*
X0155555Y0324548D01*
X0153777Y0328143D02*
X0122070Y0328143D01*
X0122070Y0326945D02*
X0130978Y0326945D01*
X0129780Y0325746D02*
X0122070Y0325746D01*
X0122070Y0324548D02*
X0128581Y0324548D01*
X0127383Y0323349D02*
X0122070Y0323349D01*
X0122070Y0322151D02*
X0126184Y0322151D01*
X0125470Y0320952D02*
X0122070Y0320952D01*
X0122070Y0319754D02*
X0125470Y0319754D01*
X0125470Y0318555D02*
X0122070Y0318555D01*
X0122070Y0317357D02*
X0125470Y0317357D01*
X0125470Y0316158D02*
X0122070Y0316158D01*
X0122070Y0314960D02*
X0125470Y0314960D01*
X0125470Y0313761D02*
X0122070Y0313761D01*
X0122070Y0312563D02*
X0125470Y0312563D01*
X0125470Y0311364D02*
X0122070Y0311364D01*
X0122070Y0310166D02*
X0125470Y0310166D01*
X0125470Y0308967D02*
X0122070Y0308967D01*
X0122070Y0307769D02*
X0125470Y0307769D01*
X0125470Y0306570D02*
X0122070Y0306570D01*
X0122070Y0305372D02*
X0125470Y0305372D01*
X0125470Y0304173D02*
X0122070Y0304173D01*
X0122070Y0302975D02*
X0125470Y0302975D01*
X0125470Y0301776D02*
X0122070Y0301776D01*
X0122070Y0300578D02*
X0125470Y0300578D01*
X0125470Y0299379D02*
X0122070Y0299379D01*
X0122070Y0298181D02*
X0125470Y0298181D01*
X0125470Y0296982D02*
X0122070Y0296982D01*
X0122070Y0295784D02*
X0125470Y0295784D01*
X0125470Y0294585D02*
X0122070Y0294585D01*
X0122070Y0293387D02*
X0125470Y0293387D01*
X0125470Y0292188D02*
X0122070Y0292188D01*
X0122070Y0290989D02*
X0125470Y0290989D01*
X0125470Y0289791D02*
X0122070Y0289791D01*
X0122070Y0288592D02*
X0125470Y0288592D01*
X0125470Y0287394D02*
X0122070Y0287394D01*
X0122070Y0286195D02*
X0125470Y0286195D01*
X0125470Y0284997D02*
X0122070Y0284997D01*
X0122070Y0283798D02*
X0125470Y0283798D01*
X0125470Y0282600D02*
X0122070Y0282600D01*
X0122070Y0281401D02*
X0125470Y0281401D01*
X0125470Y0280203D02*
X0122070Y0280203D01*
X0122070Y0279004D02*
X0125470Y0279004D01*
X0125470Y0277806D02*
X0122070Y0277806D01*
X0122070Y0276607D02*
X0125470Y0276607D01*
X0125470Y0275409D02*
X0122070Y0275409D01*
X0122070Y0274210D02*
X0125470Y0274210D01*
X0125470Y0273012D02*
X0122070Y0273012D01*
X0122070Y0271813D02*
X0125470Y0271813D01*
X0125470Y0270615D02*
X0122070Y0270615D01*
X0122070Y0269416D02*
X0125470Y0269416D01*
X0125470Y0268218D02*
X0122070Y0268218D01*
X0122070Y0267019D02*
X0125470Y0267019D01*
X0125470Y0265821D02*
X0122070Y0265821D01*
X0122070Y0264622D02*
X0125470Y0264622D01*
X0125470Y0263424D02*
X0122070Y0263424D01*
X0122070Y0262225D02*
X0125470Y0262225D01*
X0125470Y0261027D02*
X0122070Y0261027D01*
X0122070Y0259828D02*
X0125470Y0259828D01*
X0125470Y0258630D02*
X0122070Y0258630D01*
X0122070Y0257431D02*
X0125470Y0257431D01*
X0125470Y0256233D02*
X0122070Y0256233D01*
X0122070Y0255034D02*
X0125470Y0255034D01*
X0125470Y0253836D02*
X0122070Y0253836D01*
X0122070Y0252637D02*
X0125470Y0252637D01*
X0125470Y0251439D02*
X0122070Y0251439D01*
X0122070Y0250240D02*
X0125470Y0250240D01*
X0125470Y0249042D02*
X0122070Y0249042D01*
X0122070Y0247843D02*
X0125470Y0247843D01*
X0125470Y0246645D02*
X0122070Y0246645D01*
X0122070Y0245446D02*
X0125470Y0245446D01*
X0126386Y0244248D02*
X0122070Y0244248D01*
X0122070Y0243049D02*
X0127584Y0243049D01*
X0128783Y0241851D02*
X0122070Y0241851D01*
X0122070Y0240652D02*
X0129981Y0240652D01*
X0130070Y0239453D02*
X0122070Y0239453D01*
X0122070Y0238255D02*
X0130070Y0238255D01*
X0130409Y0237056D02*
X0122070Y0237056D01*
X0122070Y0235858D02*
X0131140Y0235858D01*
X0132848Y0234659D02*
X0122070Y0234659D01*
X0122070Y0233461D02*
X0154273Y0233461D01*
X0155471Y0232262D02*
X0143181Y0232262D01*
X0142963Y0232480D02*
X0141346Y0233150D01*
X0133595Y0233150D01*
X0131978Y0232480D01*
X0130740Y0231242D01*
X0130070Y0229625D01*
X0130070Y0227875D01*
X0130740Y0226258D01*
X0131978Y0225020D01*
X0133595Y0224350D01*
X0141346Y0224350D01*
X0142963Y0225020D01*
X0144201Y0226258D01*
X0144870Y0227875D01*
X0144870Y0229625D01*
X0144201Y0231242D01*
X0142963Y0232480D01*
X0144275Y0231064D02*
X0156670Y0231064D01*
X0157868Y0229865D02*
X0144771Y0229865D01*
X0144870Y0228667D02*
X0159067Y0228667D01*
X0160265Y0227468D02*
X0144702Y0227468D01*
X0144206Y0226270D02*
X0161464Y0226270D01*
X0162662Y0225071D02*
X0143014Y0225071D01*
X0142494Y0222674D02*
X0165059Y0222674D01*
X0166258Y0221476D02*
X0143967Y0221476D01*
X0144201Y0221242D02*
X0142963Y0222480D01*
X0141346Y0223150D01*
X0133595Y0223150D01*
X0131978Y0222480D01*
X0130740Y0221242D01*
X0130070Y0219625D01*
X0130070Y0217875D01*
X0130740Y0216258D01*
X0131978Y0215020D01*
X0133595Y0214350D01*
X0141346Y0214350D01*
X0142963Y0215020D01*
X0144201Y0216258D01*
X0144870Y0217875D01*
X0144870Y0219625D01*
X0144201Y0221242D01*
X0144600Y0220277D02*
X0167456Y0220277D01*
X0168655Y0219079D02*
X0144870Y0219079D01*
X0144870Y0217880D02*
X0169853Y0217880D01*
X0171052Y0216682D02*
X0144376Y0216682D01*
X0143426Y0215483D02*
X0172250Y0215483D01*
X0172483Y0215250D02*
X0182157Y0215250D01*
X0183270Y0216363D01*
X0183274Y0216367D01*
X0183341Y0216300D01*
X0186833Y0216300D01*
X0186733Y0216200D01*
X0183341Y0216200D01*
X0182520Y0215380D01*
X0182520Y0212120D01*
X0183341Y0211300D01*
X0185770Y0211300D01*
X0185770Y0211200D01*
X0183341Y0211200D01*
X0183091Y0210950D01*
X0183057Y0210950D01*
X0180357Y0213650D01*
X0144583Y0213650D01*
X0143470Y0212537D01*
X0143188Y0212255D01*
X0142963Y0212480D01*
X0141346Y0213150D01*
X0133595Y0213150D01*
X0131978Y0212480D01*
X0130740Y0211242D01*
X0130070Y0209625D01*
X0130070Y0207875D01*
X0130740Y0206258D01*
X0131978Y0205020D01*
X0133595Y0204350D01*
X0141346Y0204350D01*
X0142963Y0205020D01*
X0144201Y0206258D01*
X0144870Y0207875D01*
X0144870Y0208563D01*
X0146157Y0209850D01*
X0178783Y0209850D01*
X0180370Y0208263D01*
X0181483Y0207150D01*
X0182520Y0207150D01*
X0182520Y0207120D01*
X0183340Y0206301D01*
X0183303Y0206291D01*
X0182938Y0206080D01*
X0182640Y0205782D01*
X0182430Y0205418D01*
X0182320Y0205011D01*
X0182320Y0203750D01*
X0182320Y0202489D01*
X0182430Y0202082D01*
X0182640Y0201718D01*
X0182938Y0201420D01*
X0183303Y0201209D01*
X0183710Y0201100D01*
X0187270Y0201100D01*
X0187270Y0203750D01*
X0182320Y0203750D01*
X0187270Y0203750D01*
X0187270Y0203750D01*
X0187271Y0203750D01*
X0192220Y0203750D01*
X0192220Y0205011D01*
X0192111Y0205418D01*
X0191901Y0205782D01*
X0191603Y0206080D01*
X0191238Y0206291D01*
X0191201Y0206301D01*
X0192006Y0207106D01*
X0192045Y0207068D01*
X0193294Y0206550D01*
X0194647Y0206550D01*
X0195670Y0206974D01*
X0195670Y0165143D01*
X0195645Y0165132D01*
X0194688Y0164176D01*
X0194170Y0162926D01*
X0194170Y0161574D01*
X0194595Y0160550D01*
X0174283Y0160550D01*
X0173170Y0159437D01*
X0165970Y0152237D01*
X0165970Y0151337D01*
X0164692Y0150058D01*
X0163339Y0150618D01*
X0161602Y0150618D01*
X0159996Y0149953D01*
X0158767Y0148725D01*
X0158102Y0147119D01*
X0158102Y0145381D01*
X0158767Y0143775D01*
X0159996Y0142547D01*
X0161602Y0141881D01*
X0163339Y0141881D01*
X0164945Y0142547D01*
X0166174Y0143775D01*
X0166839Y0145381D01*
X0166839Y0146831D01*
X0168657Y0148650D01*
X0169770Y0149763D01*
X0169770Y0150663D01*
X0175857Y0156750D01*
X0226257Y0156750D01*
X0227989Y0158481D01*
X0228062Y0158304D01*
X0229525Y0156842D01*
X0230953Y0156250D01*
X0229525Y0155658D01*
X0228062Y0154196D01*
X0227270Y0152284D01*
X0227270Y0150216D01*
X0228062Y0148304D01*
X0229525Y0146842D01*
X0230703Y0146354D01*
X0230398Y0146254D01*
X0229640Y0145868D01*
X0228953Y0145369D01*
X0228352Y0144768D01*
X0227852Y0144080D01*
X0227466Y0143323D01*
X0227203Y0142515D01*
X0227070Y0141675D01*
X0227070Y0141634D01*
X0232086Y0141634D01*
X0232086Y0140866D01*
X0227070Y0140866D01*
X0227070Y0140825D01*
X0227203Y0139985D01*
X0227466Y0139177D01*
X0227852Y0138420D01*
X0228352Y0137732D01*
X0228953Y0137131D01*
X0229640Y0136632D01*
X0230398Y0136246D01*
X0230703Y0136146D01*
X0229525Y0135658D01*
X0228062Y0134196D01*
X0227270Y0132284D01*
X0227270Y0130216D01*
X0228062Y0128304D01*
X0229525Y0126842D01*
X0230953Y0126250D01*
X0229525Y0125658D01*
X0228062Y0124196D01*
X0227270Y0122284D01*
X0227270Y0120216D01*
X0228062Y0118304D01*
X0229525Y0116842D01*
X0230953Y0116250D01*
X0229525Y0115658D01*
X0228062Y0114196D01*
X0227270Y0112284D01*
X0227270Y0110216D01*
X0228062Y0108304D01*
X0229525Y0106842D01*
X0230953Y0106250D01*
X0229525Y0105658D01*
X0228062Y0104196D01*
X0227270Y0102284D01*
X0227270Y0100216D01*
X0228062Y0098304D01*
X0229525Y0096842D01*
X0230953Y0096250D01*
X0229525Y0095658D01*
X0228062Y0094196D01*
X0227270Y0092284D01*
X0227270Y0090216D01*
X0228062Y0088304D01*
X0229525Y0086842D01*
X0231436Y0086050D01*
X0233505Y0086050D01*
X0235416Y0086842D01*
X0236879Y0088304D01*
X0237670Y0090216D01*
X0237670Y0092284D01*
X0236879Y0094196D01*
X0235416Y0095658D01*
X0233988Y0096250D01*
X0235416Y0096842D01*
X0236879Y0098304D01*
X0237670Y0100216D01*
X0237670Y0102284D01*
X0236879Y0104196D01*
X0235416Y0105658D01*
X0233988Y0106250D01*
X0235416Y0106842D01*
X0236879Y0108304D01*
X0237670Y0110216D01*
X0237670Y0112284D01*
X0236879Y0114196D01*
X0235416Y0115658D01*
X0233988Y0116250D01*
X0235416Y0116842D01*
X0236879Y0118304D01*
X0237670Y0120216D01*
X0237670Y0122284D01*
X0236879Y0124196D01*
X0235416Y0125658D01*
X0233988Y0126250D01*
X0235416Y0126842D01*
X0236879Y0128304D01*
X0237670Y0130216D01*
X0237670Y0132284D01*
X0236879Y0134196D01*
X0235416Y0135658D01*
X0234238Y0136146D01*
X0234543Y0136246D01*
X0235301Y0136632D01*
X0235988Y0137131D01*
X0236589Y0137732D01*
X0237089Y0138420D01*
X0237475Y0139177D01*
X0237737Y0139985D01*
X0237870Y0140825D01*
X0237870Y0140866D01*
X0232855Y0140866D01*
X0232855Y0141634D01*
X0237870Y0141634D01*
X0237870Y0141675D01*
X0237737Y0142515D01*
X0237475Y0143323D01*
X0237089Y0144080D01*
X0236589Y0144768D01*
X0235988Y0145369D01*
X0235301Y0145868D01*
X0234543Y0146254D01*
X0234238Y0146354D01*
X0235416Y0146842D01*
X0236879Y0148304D01*
X0237670Y0150216D01*
X0237670Y0152284D01*
X0236879Y0154196D01*
X0235416Y0155658D01*
X0233988Y0156250D01*
X0235416Y0156842D01*
X0236879Y0158304D01*
X0237670Y0160216D01*
X0237670Y0162284D01*
X0236879Y0164196D01*
X0235416Y0165658D01*
X0233505Y0166450D01*
X0231436Y0166450D01*
X0229525Y0165658D01*
X0228062Y0164196D01*
X0227298Y0162350D01*
X0226483Y0162350D01*
X0225370Y0161237D01*
X0224683Y0160550D01*
X0216570Y0160550D01*
X0216570Y0234137D01*
X0215457Y0235250D01*
X0214557Y0236150D01*
X0211650Y0236150D01*
X0211600Y0236200D01*
X0210007Y0236200D01*
X0189570Y0256637D01*
X0189570Y0262774D01*
X0190594Y0262350D01*
X0191947Y0262350D01*
X0193196Y0262868D01*
X0194153Y0263824D01*
X0194670Y0265074D01*
X0194670Y0266426D01*
X0194660Y0266452D01*
X0209370Y0281163D01*
X0209370Y0281300D01*
X0211600Y0281300D01*
X0212420Y0282120D01*
X0212420Y0285380D01*
X0211600Y0286200D01*
X0203741Y0286200D01*
X0202920Y0285380D01*
X0202920Y0282120D01*
X0203741Y0281300D01*
X0204133Y0281300D01*
X0191973Y0269139D01*
X0191947Y0269150D01*
X0190594Y0269150D01*
X0189570Y0268726D01*
X0189570Y0281300D01*
X0191200Y0281300D01*
X0192020Y0282120D01*
X0192020Y0285380D01*
X0191200Y0286200D01*
X0183341Y0286200D01*
X0182520Y0285380D01*
X0182520Y0282120D01*
X0183341Y0281300D01*
X0185770Y0281300D01*
X0185770Y0281150D01*
X0181257Y0281150D01*
X0155060Y0307348D01*
X0155070Y0307374D01*
X0155070Y0308726D01*
X0154646Y0309750D01*
X0156283Y0309750D01*
X0177670Y0288363D01*
X0178783Y0287250D01*
X0182520Y0287250D01*
X0182520Y0287120D01*
X0183341Y0286300D01*
X0191200Y0286300D01*
X0192020Y0287120D01*
X0192020Y0287192D01*
X0192045Y0287168D01*
X0193294Y0286650D01*
X0194647Y0286650D01*
X0195896Y0287168D01*
X0196853Y0288124D01*
X0197370Y0289374D01*
X0197370Y0290726D01*
X0196853Y0291976D01*
X0196818Y0292011D01*
X0201957Y0297150D01*
X0202920Y0297150D01*
X0202920Y0297120D01*
X0203741Y0296300D01*
X0211600Y0296300D01*
X0212420Y0297120D01*
X0212420Y0300380D01*
X0211600Y0301200D01*
X0203741Y0301200D01*
X0203491Y0300950D01*
X0203057Y0300950D01*
X0203574Y0301467D01*
X0203741Y0301300D01*
X0211600Y0301300D01*
X0212420Y0302120D01*
X0212420Y0305380D01*
X0211600Y0306200D01*
X0209370Y0306200D01*
X0209370Y0306300D01*
X0211600Y0306300D01*
X0212420Y0307120D01*
X0212420Y0310380D01*
X0211601Y0311199D01*
X0211638Y0311209D01*
X0212003Y0311420D01*
X0212301Y0311718D01*
X0212511Y0312082D01*
X0212620Y0312489D01*
X0212620Y0313750D01*
X0212620Y0315011D01*
X0212511Y0315418D01*
X0212301Y0315782D01*
X0212003Y0316080D01*
X0211638Y0316291D01*
X0211231Y0316400D01*
X0207671Y0316400D01*
X0207671Y0313750D01*
X0212620Y0313750D01*
X0207671Y0313750D01*
X0207671Y0313750D01*
X0207670Y0313750D01*
X0202720Y0313750D01*
X0202720Y0312489D01*
X0202830Y0312082D01*
X0203040Y0311718D01*
X0203338Y0311420D01*
X0203703Y0311209D01*
X0203740Y0311199D01*
X0202920Y0310380D01*
X0202920Y0307120D01*
X0203741Y0306300D01*
X0205570Y0306300D01*
X0205570Y0306200D01*
X0203741Y0306200D01*
X0202991Y0305450D01*
X0202183Y0305450D01*
X0201070Y0304337D01*
X0192283Y0295550D01*
X0191850Y0295550D01*
X0191200Y0296200D01*
X0188707Y0296200D01*
X0188607Y0296300D01*
X0191200Y0296300D01*
X0192020Y0297120D01*
X0192020Y0300380D01*
X0191200Y0301200D01*
X0183341Y0301200D01*
X0183091Y0300950D01*
X0180583Y0300950D01*
X0179683Y0300050D01*
X0178570Y0298937D01*
X0178570Y0296543D01*
X0178545Y0296532D01*
X0177588Y0295576D01*
X0177074Y0294334D01*
X0173954Y0297453D01*
X0175196Y0297968D01*
X0176153Y0298924D01*
X0176670Y0300174D01*
X0176670Y0301526D01*
X0176153Y0302776D01*
X0175196Y0303732D01*
X0175170Y0303743D01*
X0175170Y0304563D01*
X0182157Y0311550D01*
X0183091Y0311550D01*
X0183341Y0311300D01*
X0191200Y0311300D01*
X0192020Y0312120D01*
X0192020Y0315380D01*
X0191200Y0316200D01*
X0183341Y0316200D01*
X0182520Y0315380D01*
X0182520Y0315350D01*
X0180583Y0315350D01*
X0172483Y0307250D01*
X0171370Y0306137D01*
X0171370Y0303743D01*
X0171345Y0303732D01*
X0170388Y0302776D01*
X0169874Y0301534D01*
X0157857Y0313550D01*
X0144583Y0313550D01*
X0143470Y0312437D01*
X0143238Y0312205D01*
X0142963Y0312480D01*
X0141346Y0313150D01*
X0133595Y0313150D01*
X0131978Y0312480D01*
X0130740Y0311242D01*
X0130070Y0309625D01*
X0130070Y0307875D01*
X0130740Y0306258D01*
X0131978Y0305020D01*
X0133595Y0304350D01*
X0141346Y0304350D01*
X0142963Y0305020D01*
X0144201Y0306258D01*
X0144870Y0307875D01*
X0144870Y0308463D01*
X0146157Y0309750D01*
X0148695Y0309750D01*
X0148270Y0308726D01*
X0148270Y0307374D01*
X0148788Y0306124D01*
X0149745Y0305168D01*
X0150994Y0304650D01*
X0152347Y0304650D01*
X0152373Y0304661D01*
X0179683Y0277350D01*
X0185770Y0277350D01*
X0185770Y0255063D01*
X0204633Y0236200D01*
X0203741Y0236200D01*
X0202920Y0235380D01*
X0202920Y0232120D01*
X0203741Y0231300D01*
X0211600Y0231300D01*
X0212420Y0232120D01*
X0212420Y0232350D01*
X0212770Y0232350D01*
X0212770Y0208237D01*
X0212420Y0208587D01*
X0212420Y0210380D01*
X0211600Y0211200D01*
X0203741Y0211200D01*
X0202920Y0210380D01*
X0202920Y0208405D01*
X0201847Y0208850D01*
X0200494Y0208850D01*
X0199470Y0208426D01*
X0199470Y0209163D01*
X0202070Y0211763D01*
X0202183Y0211650D01*
X0203391Y0211650D01*
X0203741Y0211300D01*
X0211600Y0211300D01*
X0212420Y0212120D01*
X0212420Y0215380D01*
X0211600Y0216200D01*
X0203741Y0216200D01*
X0203374Y0215833D01*
X0202857Y0216350D01*
X0201283Y0216350D01*
X0196831Y0211898D01*
X0196818Y0211911D01*
X0202070Y0217163D01*
X0202183Y0217050D01*
X0202991Y0217050D01*
X0203741Y0216300D01*
X0211600Y0216300D01*
X0212420Y0217120D01*
X0212420Y0220380D01*
X0211600Y0221200D01*
X0203741Y0221200D01*
X0203574Y0221033D01*
X0203057Y0221550D01*
X0203491Y0221550D01*
X0203741Y0221300D01*
X0211600Y0221300D01*
X0212420Y0222120D01*
X0212420Y0225380D01*
X0211600Y0226200D01*
X0209370Y0226200D01*
X0209370Y0226300D01*
X0211600Y0226300D01*
X0212420Y0227120D01*
X0212420Y0230380D01*
X0211600Y0231200D01*
X0203741Y0231200D01*
X0203201Y0230660D01*
X0203153Y0230776D01*
X0202196Y0231732D01*
X0200947Y0232250D01*
X0199594Y0232250D01*
X0198345Y0231732D01*
X0197388Y0230776D01*
X0197377Y0230750D01*
X0191650Y0230750D01*
X0191200Y0231200D01*
X0183341Y0231200D01*
X0182520Y0230380D01*
X0182520Y0227120D01*
X0183341Y0226300D01*
X0191200Y0226300D01*
X0191850Y0226950D01*
X0197377Y0226950D01*
X0197388Y0226924D01*
X0198345Y0225968D01*
X0199594Y0225450D01*
X0200483Y0225450D01*
X0200170Y0225137D01*
X0197370Y0222337D01*
X0197370Y0223226D01*
X0196853Y0224476D01*
X0195896Y0225432D01*
X0194647Y0225950D01*
X0193294Y0225950D01*
X0192045Y0225432D01*
X0192006Y0225394D01*
X0191200Y0226200D01*
X0183341Y0226200D01*
X0182520Y0225380D01*
X0182520Y0222120D01*
X0183341Y0221300D01*
X0190808Y0221300D01*
X0190850Y0221200D01*
X0183341Y0221200D01*
X0182991Y0220850D01*
X0182383Y0220850D01*
X0180583Y0219050D01*
X0174057Y0219050D01*
X0149857Y0243250D01*
X0159068Y0252461D01*
X0159094Y0252450D01*
X0160447Y0252450D01*
X0161696Y0252968D01*
X0162653Y0253924D01*
X0163170Y0255174D01*
X0163170Y0256526D01*
X0162653Y0257776D01*
X0161696Y0258732D01*
X0160447Y0259250D01*
X0159094Y0259250D01*
X0157845Y0258732D01*
X0156888Y0257776D01*
X0156370Y0256526D01*
X0156370Y0255174D01*
X0156381Y0255148D01*
X0147170Y0245937D01*
X0144870Y0248237D01*
X0144870Y0249625D01*
X0144201Y0251242D01*
X0142963Y0252480D01*
X0141346Y0253150D01*
X0133595Y0253150D01*
X0131978Y0252480D01*
X0130740Y0251242D01*
X0130070Y0249625D01*
X0130070Y0247875D01*
X0130740Y0246258D01*
X0131978Y0245020D01*
X0133595Y0244350D01*
X0141346Y0244350D01*
X0142787Y0244947D01*
X0145270Y0242463D01*
X0146383Y0241350D01*
X0172483Y0215250D01*
X0174029Y0219079D02*
X0180612Y0219079D01*
X0181811Y0220277D02*
X0172830Y0220277D01*
X0171632Y0221476D02*
X0183165Y0221476D01*
X0182520Y0222674D02*
X0170433Y0222674D01*
X0169235Y0223873D02*
X0182520Y0223873D01*
X0182520Y0225071D02*
X0168036Y0225071D01*
X0166838Y0226270D02*
X0198042Y0226270D01*
X0196257Y0225071D02*
X0200105Y0225071D01*
X0198906Y0223873D02*
X0197103Y0223873D01*
X0197370Y0222674D02*
X0197708Y0222674D01*
X0203132Y0221476D02*
X0203565Y0221476D01*
X0203359Y0216682D02*
X0201589Y0216682D01*
X0200417Y0215483D02*
X0200391Y0215483D01*
X0199218Y0214285D02*
X0199192Y0214285D01*
X0198020Y0213086D02*
X0197994Y0213086D01*
X0200997Y0210689D02*
X0203230Y0210689D01*
X0202920Y0209491D02*
X0199798Y0209491D01*
X0195670Y0205895D02*
X0191788Y0205895D01*
X0191994Y0207094D02*
X0192018Y0207094D01*
X0192220Y0204697D02*
X0195670Y0204697D01*
X0195670Y0203498D02*
X0192220Y0203498D01*
X0192220Y0203750D02*
X0187271Y0203750D01*
X0187271Y0203750D01*
X0187271Y0201100D01*
X0190831Y0201100D01*
X0191238Y0201209D01*
X0191603Y0201420D01*
X0191901Y0201718D01*
X0192111Y0202082D01*
X0192220Y0202489D01*
X0192220Y0203750D01*
X0192170Y0202300D02*
X0195670Y0202300D01*
X0195670Y0201101D02*
X0190835Y0201101D01*
X0187271Y0201101D02*
X0187270Y0201101D01*
X0187270Y0202300D02*
X0187271Y0202300D01*
X0187270Y0203498D02*
X0187271Y0203498D01*
X0183706Y0201101D02*
X0144435Y0201101D01*
X0144405Y0201161D02*
X0143979Y0201747D01*
X0143467Y0202259D01*
X0142881Y0202684D01*
X0142236Y0203013D01*
X0141548Y0203237D01*
X0140833Y0203350D01*
X0137870Y0203350D01*
X0137870Y0199150D01*
X0137070Y0199150D01*
X0137070Y0198350D01*
X0129876Y0198350D01*
X0129984Y0197673D01*
X0130207Y0196984D01*
X0130536Y0196339D01*
X0130962Y0195753D01*
X0131474Y0195241D01*
X0132060Y0194816D01*
X0132705Y0194487D01*
X0133393Y0194263D01*
X0134108Y0194150D01*
X0137070Y0194150D01*
X0137070Y0198350D01*
X0137870Y0198350D01*
X0137870Y0194150D01*
X0140833Y0194150D01*
X0141548Y0194263D01*
X0142236Y0194487D01*
X0142881Y0194816D01*
X0143467Y0195241D01*
X0143979Y0195753D01*
X0144405Y0196339D01*
X0144733Y0196984D01*
X0144957Y0197673D01*
X0145064Y0198350D01*
X0137871Y0198350D01*
X0137871Y0199150D01*
X0145064Y0199150D01*
X0144957Y0199827D01*
X0144733Y0200516D01*
X0144405Y0201161D01*
X0144933Y0199903D02*
X0195670Y0199903D01*
X0195670Y0198704D02*
X0137871Y0198704D01*
X0137070Y0198704D02*
X0122070Y0198704D01*
X0122070Y0197506D02*
X0130038Y0197506D01*
X0130559Y0196307D02*
X0122070Y0196307D01*
X0122070Y0195109D02*
X0131656Y0195109D01*
X0129876Y0199150D02*
X0137070Y0199150D01*
X0137070Y0203350D01*
X0134108Y0203350D01*
X0133393Y0203237D01*
X0132705Y0203013D01*
X0132060Y0202684D01*
X0131474Y0202259D01*
X0130962Y0201747D01*
X0130536Y0201161D01*
X0130207Y0200516D01*
X0129984Y0199827D01*
X0129876Y0199150D01*
X0130008Y0199903D02*
X0122070Y0199903D01*
X0122070Y0201101D02*
X0130506Y0201101D01*
X0131530Y0202300D02*
X0122070Y0202300D01*
X0122070Y0203498D02*
X0182320Y0203498D01*
X0182320Y0204697D02*
X0142183Y0204697D01*
X0143838Y0205895D02*
X0182753Y0205895D01*
X0182547Y0207094D02*
X0144547Y0207094D01*
X0144870Y0208292D02*
X0180341Y0208292D01*
X0179143Y0209491D02*
X0145798Y0209491D01*
X0144020Y0213086D02*
X0141500Y0213086D01*
X0133441Y0213086D02*
X0122070Y0213086D01*
X0122070Y0211888D02*
X0131386Y0211888D01*
X0130511Y0210689D02*
X0122070Y0210689D01*
X0122070Y0209491D02*
X0130070Y0209491D01*
X0130070Y0208292D02*
X0122070Y0208292D01*
X0122070Y0207094D02*
X0130394Y0207094D01*
X0131103Y0205895D02*
X0122070Y0205895D01*
X0122070Y0204697D02*
X0132758Y0204697D01*
X0137070Y0202300D02*
X0137870Y0202300D01*
X0137870Y0201101D02*
X0137070Y0201101D01*
X0137070Y0199903D02*
X0137870Y0199903D01*
X0137870Y0197506D02*
X0137070Y0197506D01*
X0137070Y0196307D02*
X0137870Y0196307D01*
X0137870Y0195109D02*
X0137070Y0195109D01*
X0143284Y0195109D02*
X0195670Y0195109D01*
X0195670Y0196307D02*
X0144381Y0196307D01*
X0144903Y0197506D02*
X0195670Y0197506D01*
X0195670Y0193910D02*
X0122070Y0193910D01*
X0122070Y0192712D02*
X0195670Y0192712D01*
X0195670Y0191513D02*
X0122070Y0191513D01*
X0122070Y0190315D02*
X0195670Y0190315D01*
X0195670Y0189116D02*
X0122070Y0189116D01*
X0122070Y0187918D02*
X0195670Y0187918D01*
X0195670Y0186719D02*
X0122070Y0186719D01*
X0122070Y0185520D02*
X0195670Y0185520D01*
X0195670Y0184322D02*
X0122070Y0184322D01*
X0122070Y0183123D02*
X0195670Y0183123D01*
X0195670Y0181925D02*
X0122070Y0181925D01*
X0122070Y0180726D02*
X0195670Y0180726D01*
X0195670Y0179528D02*
X0122070Y0179528D01*
X0122070Y0178329D02*
X0195670Y0178329D01*
X0195670Y0177131D02*
X0122070Y0177131D01*
X0122070Y0175932D02*
X0195670Y0175932D01*
X0195670Y0174734D02*
X0122070Y0174734D01*
X0122070Y0173535D02*
X0195670Y0173535D01*
X0195670Y0172337D02*
X0122070Y0172337D01*
X0122070Y0171138D02*
X0195670Y0171138D01*
X0195670Y0169940D02*
X0122070Y0169940D01*
X0122070Y0168741D02*
X0195670Y0168741D01*
X0195670Y0167543D02*
X0122070Y0167543D01*
X0122070Y0166344D02*
X0195670Y0166344D01*
X0195670Y0165146D02*
X0122070Y0165146D01*
X0122070Y0163947D02*
X0194593Y0163947D01*
X0194170Y0162749D02*
X0122070Y0162749D01*
X0122070Y0161550D02*
X0194180Y0161550D01*
X0184945Y0149953D02*
X0183339Y0150618D01*
X0181602Y0150618D01*
X0179996Y0149953D01*
X0178767Y0148725D01*
X0178102Y0147119D01*
X0178102Y0145381D01*
X0178767Y0143775D01*
X0179996Y0142547D01*
X0181602Y0141881D01*
X0183339Y0141881D01*
X0184945Y0142547D01*
X0186174Y0143775D01*
X0186839Y0145381D01*
X0186839Y0147119D01*
X0186174Y0148725D01*
X0184945Y0149953D01*
X0185333Y0149565D02*
X0227540Y0149565D01*
X0227270Y0150764D02*
X0169871Y0150764D01*
X0169996Y0149953D02*
X0171602Y0150618D01*
X0173339Y0150618D01*
X0174945Y0149953D01*
X0176174Y0148725D01*
X0176839Y0147119D01*
X0176839Y0145381D01*
X0176174Y0143775D01*
X0174945Y0142547D01*
X0173339Y0141881D01*
X0171602Y0141881D01*
X0169996Y0142547D01*
X0168767Y0143775D01*
X0168102Y0145381D01*
X0168102Y0147119D01*
X0168767Y0148725D01*
X0169996Y0149953D01*
X0169608Y0149565D02*
X0169573Y0149565D01*
X0168619Y0148367D02*
X0168374Y0148367D01*
X0168122Y0147168D02*
X0167176Y0147168D01*
X0166839Y0145970D02*
X0168102Y0145970D01*
X0168355Y0144771D02*
X0166586Y0144771D01*
X0165971Y0143573D02*
X0168970Y0143573D01*
X0170412Y0142374D02*
X0164529Y0142374D01*
X0160412Y0142374D02*
X0156763Y0142374D01*
X0156719Y0142299D02*
X0156930Y0142664D01*
X0157039Y0143071D01*
X0157039Y0145866D01*
X0152855Y0145866D01*
X0152855Y0146634D01*
X0157039Y0146634D01*
X0157039Y0149429D01*
X0156930Y0149836D01*
X0156719Y0150201D01*
X0156421Y0150499D01*
X0156057Y0150709D01*
X0155650Y0150818D01*
X0152855Y0150818D01*
X0152855Y0146634D01*
X0152086Y0146634D01*
X0152086Y0145866D01*
X0147902Y0145866D01*
X0147902Y0143071D01*
X0148011Y0142664D01*
X0148222Y0142299D01*
X0148520Y0142001D01*
X0148884Y0141791D01*
X0149291Y0141681D01*
X0152086Y0141681D01*
X0152086Y0145866D01*
X0152855Y0145866D01*
X0152855Y0141681D01*
X0155650Y0141681D01*
X0156057Y0141791D01*
X0156421Y0142001D01*
X0156719Y0142299D01*
X0157039Y0143573D02*
X0158970Y0143573D01*
X0158355Y0144771D02*
X0157039Y0144771D01*
X0158102Y0145970D02*
X0152855Y0145970D01*
X0152086Y0145970D02*
X0122070Y0145970D01*
X0122070Y0147168D02*
X0147902Y0147168D01*
X0147902Y0146634D02*
X0152086Y0146634D01*
X0152086Y0150818D01*
X0149291Y0150818D01*
X0148884Y0150709D01*
X0148520Y0150499D01*
X0148222Y0150201D01*
X0148011Y0149836D01*
X0147902Y0149429D01*
X0147902Y0146634D01*
X0147902Y0148367D02*
X0122070Y0148367D01*
X0122070Y0149565D02*
X0147938Y0149565D01*
X0149087Y0150764D02*
X0122070Y0150764D01*
X0122070Y0151962D02*
X0165970Y0151962D01*
X0165397Y0150764D02*
X0155854Y0150764D01*
X0157003Y0149565D02*
X0159608Y0149565D01*
X0158619Y0148367D02*
X0157039Y0148367D01*
X0157039Y0147168D02*
X0158122Y0147168D01*
X0166894Y0153161D02*
X0122070Y0153161D01*
X0122070Y0154359D02*
X0168093Y0154359D01*
X0169291Y0155558D02*
X0122070Y0155558D01*
X0122070Y0156756D02*
X0170490Y0156756D01*
X0171688Y0157955D02*
X0122070Y0157955D01*
X0122070Y0159153D02*
X0172887Y0159153D01*
X0174085Y0160352D02*
X0122070Y0160352D01*
X0122070Y0144771D02*
X0147902Y0144771D01*
X0147902Y0143573D02*
X0122070Y0143573D01*
X0122070Y0142374D02*
X0148178Y0142374D01*
X0152086Y0142374D02*
X0152855Y0142374D01*
X0152855Y0143573D02*
X0152086Y0143573D01*
X0152086Y0144771D02*
X0152855Y0144771D01*
X0152855Y0147168D02*
X0152086Y0147168D01*
X0152086Y0148367D02*
X0152855Y0148367D01*
X0152855Y0149565D02*
X0152086Y0149565D01*
X0152086Y0150764D02*
X0152855Y0150764D01*
X0171070Y0151962D02*
X0227270Y0151962D01*
X0227633Y0153161D02*
X0172268Y0153161D01*
X0173467Y0154359D02*
X0228226Y0154359D01*
X0229424Y0155558D02*
X0174665Y0155558D01*
X0175333Y0149565D02*
X0179608Y0149565D01*
X0178619Y0148367D02*
X0176322Y0148367D01*
X0176819Y0147168D02*
X0178122Y0147168D01*
X0178102Y0145970D02*
X0176839Y0145970D01*
X0176586Y0144771D02*
X0178355Y0144771D01*
X0178970Y0143573D02*
X0175971Y0143573D01*
X0174529Y0142374D02*
X0180412Y0142374D01*
X0184529Y0142374D02*
X0227181Y0142374D01*
X0227593Y0143573D02*
X0185971Y0143573D01*
X0186586Y0144771D02*
X0228355Y0144771D01*
X0229839Y0145970D02*
X0186839Y0145970D01*
X0186819Y0147168D02*
X0229198Y0147168D01*
X0228036Y0148367D02*
X0186322Y0148367D01*
X0216570Y0161550D02*
X0225684Y0161550D01*
X0227463Y0162749D02*
X0216570Y0162749D01*
X0216570Y0163947D02*
X0227959Y0163947D01*
X0229012Y0165146D02*
X0216570Y0165146D01*
X0216570Y0166344D02*
X0231181Y0166344D01*
X0233760Y0166344D02*
X0250666Y0166344D01*
X0250666Y0165146D02*
X0235929Y0165146D01*
X0236982Y0163947D02*
X0250666Y0163947D01*
X0250666Y0162749D02*
X0237478Y0162749D01*
X0237670Y0161550D02*
X0250666Y0161550D01*
X0250666Y0160352D02*
X0237670Y0160352D01*
X0237230Y0159153D02*
X0250666Y0159153D01*
X0250666Y0157955D02*
X0236529Y0157955D01*
X0235210Y0156756D02*
X0250666Y0156756D01*
X0250666Y0155558D02*
X0235517Y0155558D01*
X0236715Y0154359D02*
X0250666Y0154359D01*
X0250666Y0153161D02*
X0237307Y0153161D01*
X0237670Y0151962D02*
X0250666Y0151962D01*
X0250666Y0150764D02*
X0237670Y0150764D01*
X0237401Y0149565D02*
X0250666Y0149565D01*
X0250666Y0148367D02*
X0236905Y0148367D01*
X0235743Y0147168D02*
X0250666Y0147168D01*
X0250666Y0145970D02*
X0235102Y0145970D01*
X0236586Y0144771D02*
X0250666Y0144771D01*
X0250666Y0143573D02*
X0237348Y0143573D01*
X0237760Y0142374D02*
X0250666Y0142374D01*
X0250666Y0141176D02*
X0232855Y0141176D01*
X0232086Y0141176D02*
X0122070Y0141176D01*
X0122070Y0139977D02*
X0227206Y0139977D01*
X0227669Y0138779D02*
X0122070Y0138779D01*
X0122070Y0137580D02*
X0228504Y0137580D01*
X0230131Y0136382D02*
X0122070Y0136382D01*
X0122070Y0135183D02*
X0229050Y0135183D01*
X0227975Y0133984D02*
X0122070Y0133984D01*
X0122070Y0132786D02*
X0227478Y0132786D01*
X0227270Y0131587D02*
X0122070Y0131587D01*
X0122070Y0130389D02*
X0227270Y0130389D01*
X0227695Y0129190D02*
X0122070Y0129190D01*
X0122070Y0127992D02*
X0228375Y0127992D01*
X0229641Y0126793D02*
X0122070Y0126793D01*
X0122070Y0125595D02*
X0229461Y0125595D01*
X0228263Y0124396D02*
X0122070Y0124396D01*
X0122070Y0123198D02*
X0227649Y0123198D01*
X0227270Y0121999D02*
X0122070Y0121999D01*
X0122070Y0120801D02*
X0227270Y0120801D01*
X0227524Y0119602D02*
X0122070Y0119602D01*
X0122070Y0118404D02*
X0228021Y0118404D01*
X0229161Y0117205D02*
X0122070Y0117205D01*
X0122070Y0116007D02*
X0230366Y0116007D01*
X0228675Y0114808D02*
X0122070Y0114808D01*
X0122070Y0113610D02*
X0227820Y0113610D01*
X0227323Y0112411D02*
X0122070Y0112411D01*
X0122070Y0111213D02*
X0227270Y0111213D01*
X0227354Y0110014D02*
X0122070Y0110014D01*
X0122070Y0108816D02*
X0227850Y0108816D01*
X0228749Y0107617D02*
X0122070Y0107617D01*
X0122070Y0106419D02*
X0128309Y0106419D01*
X0126209Y0105220D02*
X0122070Y0105220D01*
X0122070Y0104022D02*
X0124828Y0104022D01*
X0123680Y0102823D02*
X0122070Y0102823D01*
X0122070Y0101625D02*
X0122988Y0101625D01*
X0122306Y0100426D02*
X0122070Y0100426D01*
X0136631Y0106419D02*
X0230546Y0106419D01*
X0229087Y0105220D02*
X0138732Y0105220D01*
X0140113Y0104022D02*
X0227990Y0104022D01*
X0227494Y0102823D02*
X0141261Y0102823D01*
X0141953Y0101625D02*
X0227270Y0101625D01*
X0227270Y0100426D02*
X0142635Y0100426D01*
X0142956Y0099228D02*
X0227680Y0099228D01*
X0228337Y0098029D02*
X0143277Y0098029D01*
X0143370Y0096831D02*
X0229551Y0096831D01*
X0229499Y0095632D02*
X0143370Y0095632D01*
X0143267Y0094434D02*
X0228300Y0094434D01*
X0227664Y0093235D02*
X0142946Y0093235D01*
X0142623Y0092037D02*
X0227270Y0092037D01*
X0227270Y0090838D02*
X0141931Y0090838D01*
X0141239Y0089640D02*
X0227509Y0089640D01*
X0228006Y0088441D02*
X0140075Y0088441D01*
X0138668Y0087243D02*
X0229124Y0087243D01*
X0235817Y0087243D02*
X0250666Y0087243D01*
X0250666Y0088441D02*
X0236935Y0088441D01*
X0237432Y0089640D02*
X0250666Y0089640D01*
X0250666Y0090838D02*
X0237670Y0090838D01*
X0237670Y0092037D02*
X0250666Y0092037D01*
X0250666Y0093235D02*
X0237277Y0093235D01*
X0236641Y0094434D02*
X0250666Y0094434D01*
X0250666Y0095632D02*
X0235442Y0095632D01*
X0235389Y0096831D02*
X0250666Y0096831D01*
X0250666Y0098029D02*
X0236604Y0098029D01*
X0237261Y0099228D02*
X0250666Y0099228D01*
X0250666Y0100426D02*
X0237670Y0100426D01*
X0237670Y0101625D02*
X0250666Y0101625D01*
X0250666Y0102823D02*
X0237447Y0102823D01*
X0236951Y0104022D02*
X0250666Y0104022D01*
X0250666Y0105220D02*
X0235854Y0105220D01*
X0234395Y0106419D02*
X0250666Y0106419D01*
X0250666Y0107617D02*
X0236192Y0107617D01*
X0237091Y0108816D02*
X0250666Y0108816D01*
X0250666Y0110014D02*
X0237587Y0110014D01*
X0237670Y0111213D02*
X0250666Y0111213D01*
X0250666Y0112411D02*
X0237618Y0112411D01*
X0237121Y0113610D02*
X0250666Y0113610D01*
X0250666Y0114808D02*
X0236266Y0114808D01*
X0234575Y0116007D02*
X0250666Y0116007D01*
X0250666Y0117205D02*
X0235780Y0117205D01*
X0236920Y0118404D02*
X0250666Y0118404D01*
X0250666Y0119602D02*
X0237416Y0119602D01*
X0237670Y0120801D02*
X0250666Y0120801D01*
X0250666Y0121999D02*
X0237670Y0121999D01*
X0237292Y0123198D02*
X0250666Y0123198D01*
X0250666Y0124396D02*
X0236678Y0124396D01*
X0235479Y0125595D02*
X0250666Y0125595D01*
X0250666Y0126793D02*
X0235300Y0126793D01*
X0236566Y0127992D02*
X0250666Y0127992D01*
X0250666Y0129190D02*
X0237246Y0129190D01*
X0237670Y0130389D02*
X0250666Y0130389D01*
X0250666Y0131587D02*
X0237670Y0131587D01*
X0237463Y0132786D02*
X0250666Y0132786D01*
X0250666Y0133984D02*
X0236966Y0133984D01*
X0235891Y0135183D02*
X0250666Y0135183D01*
X0250666Y0136382D02*
X0234810Y0136382D01*
X0236437Y0137580D02*
X0250666Y0137580D01*
X0250666Y0138779D02*
X0237272Y0138779D01*
X0237735Y0139977D02*
X0250666Y0139977D01*
X0259866Y0139977D02*
X0272369Y0139977D01*
X0272270Y0140216D02*
X0273062Y0138304D01*
X0274525Y0136842D01*
X0275953Y0136250D01*
X0274525Y0135658D01*
X0273062Y0134196D01*
X0272270Y0132284D01*
X0272270Y0130216D01*
X0273062Y0128304D01*
X0274525Y0126842D01*
X0275953Y0126250D01*
X0274525Y0125658D01*
X0273062Y0124196D01*
X0272270Y0122284D01*
X0272270Y0120216D01*
X0273062Y0118304D01*
X0274525Y0116842D01*
X0275703Y0116354D01*
X0275398Y0116254D01*
X0274640Y0115868D01*
X0273953Y0115369D01*
X0273352Y0114768D01*
X0272852Y0114080D01*
X0272466Y0113323D01*
X0272203Y0112515D01*
X0272070Y0111675D01*
X0272070Y0111634D01*
X0277086Y0111634D01*
X0277086Y0110866D01*
X0272070Y0110866D01*
X0272070Y0110825D01*
X0272203Y0109985D01*
X0272466Y0109177D01*
X0272852Y0108420D01*
X0273352Y0107732D01*
X0273953Y0107131D01*
X0274640Y0106632D01*
X0275398Y0106246D01*
X0275703Y0106146D01*
X0274525Y0105658D01*
X0273062Y0104196D01*
X0272270Y0102284D01*
X0272270Y0100216D01*
X0273062Y0098304D01*
X0274525Y0096842D01*
X0275953Y0096250D01*
X0274525Y0095658D01*
X0273062Y0094196D01*
X0272270Y0092284D01*
X0272270Y0090216D01*
X0273062Y0088304D01*
X0274525Y0086842D01*
X0276436Y0086050D01*
X0278505Y0086050D01*
X0280416Y0086842D01*
X0281879Y0088304D01*
X0282670Y0090216D01*
X0282670Y0092284D01*
X0282062Y0093754D01*
X0330603Y0142295D01*
X0331602Y0141881D01*
X0333339Y0141881D01*
X0334945Y0142547D01*
X0336174Y0143775D01*
X0336839Y0145381D01*
X0336839Y0147119D01*
X0336425Y0148118D01*
X0374070Y0185763D01*
X0374070Y0194350D01*
X0376346Y0194350D01*
X0377963Y0195020D01*
X0379201Y0196258D01*
X0379870Y0197875D01*
X0379870Y0199625D01*
X0379201Y0201242D01*
X0378075Y0202368D01*
X0381057Y0205350D01*
X0382170Y0206463D01*
X0382170Y0242237D01*
X0378675Y0245732D01*
X0379201Y0246258D01*
X0379870Y0247875D01*
X0379870Y0249625D01*
X0379201Y0251242D01*
X0378293Y0252150D01*
X0378357Y0252150D01*
X0382857Y0256650D01*
X0383970Y0257763D01*
X0383970Y0319637D01*
X0336270Y0367337D01*
X0335157Y0368450D01*
X0332030Y0368450D01*
X0332355Y0368775D01*
X0333020Y0370381D01*
X0333020Y0372119D01*
X0332355Y0373725D01*
X0331126Y0374953D01*
X0329521Y0375618D01*
X0327783Y0375618D01*
X0326177Y0374953D01*
X0324948Y0373725D01*
X0324285Y0372123D01*
X0282237Y0414170D01*
X0282670Y0415216D01*
X0282670Y0417284D01*
X0281879Y0419196D01*
X0280416Y0420658D01*
X0278988Y0421250D01*
X0280416Y0421842D01*
X0281879Y0423304D01*
X0282670Y0425216D01*
X0282670Y0427284D01*
X0281879Y0429196D01*
X0280416Y0430658D01*
X0279638Y0430981D01*
X0372526Y0430981D01*
X0370778Y0429972D01*
X0368749Y0427942D01*
X0367314Y0425457D01*
X0366571Y0422685D01*
X0366571Y0419815D01*
X0367314Y0417043D01*
X0368749Y0414558D01*
X0370778Y0412528D01*
X0373264Y0411094D01*
X0376036Y0410351D01*
X0378905Y0410351D01*
X0381677Y0411094D01*
X0384163Y0412528D01*
X0386192Y0414558D01*
X0387627Y0417043D01*
X0388370Y0419815D01*
X0388370Y0422685D01*
X0387627Y0425457D01*
X0386192Y0427942D01*
X0384163Y0429972D01*
X0382415Y0430981D01*
X0388461Y0430981D01*
X0388461Y0085535D01*
X0379593Y0085535D01*
X0381677Y0086094D01*
X0384163Y0087528D01*
X0386192Y0089558D01*
X0387627Y0092043D01*
X0388370Y0094815D01*
X0388370Y0097685D01*
X0387627Y0100457D01*
X0386192Y0102942D01*
X0384163Y0104972D01*
X0381677Y0106406D01*
X0378905Y0107149D01*
X0376036Y0107149D01*
X0373264Y0106406D01*
X0370778Y0104972D01*
X0368749Y0102942D01*
X0367314Y0100457D01*
X0366571Y0097685D01*
X0366571Y0094815D01*
X0367314Y0092043D01*
X0368749Y0089558D01*
X0370778Y0087528D01*
X0373264Y0086094D01*
X0375348Y0085535D01*
X0259866Y0085535D01*
X0259866Y0430981D01*
X0275303Y0430981D01*
X0274525Y0430658D01*
X0273062Y0429196D01*
X0272270Y0427284D01*
X0272270Y0425216D01*
X0272586Y0424453D01*
X0262270Y0414137D01*
X0262270Y0300963D01*
X0263383Y0299850D01*
X0300283Y0262950D01*
X0302783Y0262950D01*
X0300970Y0261137D01*
X0300970Y0236200D01*
X0298341Y0236200D01*
X0297520Y0235380D01*
X0297520Y0232120D01*
X0298341Y0231300D01*
X0306200Y0231300D01*
X0306756Y0231856D01*
X0307245Y0231368D01*
X0308494Y0230850D01*
X0309847Y0230850D01*
X0311096Y0231368D01*
X0312053Y0232324D01*
X0312064Y0232350D01*
X0317920Y0232350D01*
X0317920Y0232120D01*
X0318741Y0231300D01*
X0326600Y0231300D01*
X0327420Y0232120D01*
X0327420Y0235380D01*
X0326600Y0236200D01*
X0318741Y0236200D01*
X0318691Y0236150D01*
X0312064Y0236150D01*
X0312053Y0236176D01*
X0311096Y0237132D01*
X0309847Y0237650D01*
X0308494Y0237650D01*
X0307245Y0237132D01*
X0306288Y0236176D01*
X0306269Y0236131D01*
X0306200Y0236200D01*
X0304770Y0236200D01*
X0304770Y0259563D01*
X0322670Y0277463D01*
X0363283Y0236850D01*
X0365495Y0236850D01*
X0365740Y0236258D01*
X0366978Y0235020D01*
X0368595Y0234350D01*
X0376346Y0234350D01*
X0377963Y0235020D01*
X0378370Y0235427D01*
X0378370Y0232073D01*
X0377963Y0232480D01*
X0376346Y0233150D01*
X0368595Y0233150D01*
X0366978Y0232480D01*
X0365740Y0231242D01*
X0365070Y0229625D01*
X0365070Y0227875D01*
X0365740Y0226258D01*
X0366978Y0225020D01*
X0368595Y0224350D01*
X0376346Y0224350D01*
X0377963Y0225020D01*
X0378370Y0225427D01*
X0378370Y0222073D01*
X0377963Y0222480D01*
X0376346Y0223150D01*
X0368595Y0223150D01*
X0366978Y0222480D01*
X0365740Y0221242D01*
X0365070Y0219625D01*
X0365070Y0217875D01*
X0365740Y0216258D01*
X0366978Y0215020D01*
X0368595Y0214350D01*
X0376346Y0214350D01*
X0377963Y0215020D01*
X0378370Y0215427D01*
X0378370Y0212073D01*
X0377963Y0212480D01*
X0376346Y0213150D01*
X0368595Y0213150D01*
X0366978Y0212480D01*
X0365740Y0211242D01*
X0365619Y0210950D01*
X0346857Y0210950D01*
X0333570Y0224237D01*
X0332457Y0225350D01*
X0327420Y0225350D01*
X0327420Y0225380D01*
X0326600Y0226200D01*
X0324570Y0226200D01*
X0324570Y0226300D01*
X0326600Y0226300D01*
X0327420Y0227120D01*
X0327420Y0230380D01*
X0326600Y0231200D01*
X0318741Y0231200D01*
X0317920Y0230380D01*
X0317920Y0227120D01*
X0318741Y0226300D01*
X0320770Y0226300D01*
X0320770Y0226200D01*
X0318741Y0226200D01*
X0317920Y0225380D01*
X0317920Y0223187D01*
X0314367Y0219634D01*
X0313853Y0220876D01*
X0312896Y0221832D01*
X0311647Y0222350D01*
X0310294Y0222350D01*
X0309045Y0221832D01*
X0308088Y0220876D01*
X0308077Y0220850D01*
X0306550Y0220850D01*
X0306200Y0221200D01*
X0300607Y0221200D01*
X0300707Y0221300D01*
X0306200Y0221300D01*
X0307020Y0222120D01*
X0307020Y0225380D01*
X0306200Y0226200D01*
X0302907Y0226200D01*
X0303007Y0226300D01*
X0306200Y0226300D01*
X0307020Y0227120D01*
X0307020Y0230380D01*
X0306200Y0231200D01*
X0298341Y0231200D01*
X0297520Y0230380D01*
X0297520Y0227987D01*
X0265183Y0195650D01*
X0264070Y0194537D01*
X0264070Y0171363D01*
X0272528Y0162906D01*
X0272270Y0162284D01*
X0272270Y0160216D01*
X0273062Y0158304D01*
X0274525Y0156842D01*
X0275953Y0156250D01*
X0274525Y0155658D01*
X0273062Y0154196D01*
X0272270Y0152284D01*
X0272270Y0150216D01*
X0273062Y0148304D01*
X0274525Y0146842D01*
X0275953Y0146250D01*
X0274525Y0145658D01*
X0273062Y0144196D01*
X0272270Y0142284D01*
X0272270Y0140216D01*
X0272270Y0141176D02*
X0259866Y0141176D01*
X0259866Y0142374D02*
X0272308Y0142374D01*
X0272804Y0143573D02*
X0259866Y0143573D01*
X0259866Y0144771D02*
X0273638Y0144771D01*
X0275276Y0145970D02*
X0259866Y0145970D01*
X0259866Y0147168D02*
X0274198Y0147168D01*
X0273036Y0148367D02*
X0259866Y0148367D01*
X0259866Y0149565D02*
X0272540Y0149565D01*
X0272270Y0150764D02*
X0259866Y0150764D01*
X0259866Y0151962D02*
X0272270Y0151962D01*
X0272633Y0153161D02*
X0259866Y0153161D01*
X0259866Y0154359D02*
X0273226Y0154359D01*
X0274424Y0155558D02*
X0259866Y0155558D01*
X0259866Y0156756D02*
X0274731Y0156756D01*
X0273412Y0157955D02*
X0259866Y0157955D01*
X0259866Y0159153D02*
X0272711Y0159153D01*
X0272270Y0160352D02*
X0259866Y0160352D01*
X0259866Y0161550D02*
X0272270Y0161550D01*
X0272463Y0162749D02*
X0259866Y0162749D01*
X0259866Y0163947D02*
X0271486Y0163947D01*
X0270288Y0165146D02*
X0259866Y0165146D01*
X0259866Y0166344D02*
X0269089Y0166344D01*
X0267891Y0167543D02*
X0259866Y0167543D01*
X0259866Y0168741D02*
X0266692Y0168741D01*
X0265494Y0169940D02*
X0259866Y0169940D01*
X0259866Y0171138D02*
X0264295Y0171138D01*
X0264070Y0172337D02*
X0259866Y0172337D01*
X0259866Y0173535D02*
X0264070Y0173535D01*
X0264070Y0174734D02*
X0259866Y0174734D01*
X0259866Y0175932D02*
X0264070Y0175932D01*
X0264070Y0177131D02*
X0259866Y0177131D01*
X0259866Y0178329D02*
X0264070Y0178329D01*
X0264070Y0179528D02*
X0259866Y0179528D01*
X0259866Y0180726D02*
X0264070Y0180726D01*
X0264070Y0181925D02*
X0259866Y0181925D01*
X0259866Y0183123D02*
X0264070Y0183123D01*
X0264070Y0184322D02*
X0259866Y0184322D01*
X0259866Y0185520D02*
X0264070Y0185520D01*
X0264070Y0186719D02*
X0259866Y0186719D01*
X0259866Y0187918D02*
X0264070Y0187918D01*
X0264070Y0189116D02*
X0259866Y0189116D01*
X0259866Y0190315D02*
X0264070Y0190315D01*
X0264070Y0191513D02*
X0259866Y0191513D01*
X0259866Y0192712D02*
X0264070Y0192712D01*
X0264070Y0193910D02*
X0259866Y0193910D01*
X0259866Y0195109D02*
X0264642Y0195109D01*
X0265841Y0196307D02*
X0259866Y0196307D01*
X0259866Y0197506D02*
X0267039Y0197506D01*
X0268238Y0198704D02*
X0259866Y0198704D01*
X0259866Y0199903D02*
X0269436Y0199903D01*
X0270635Y0201101D02*
X0259866Y0201101D01*
X0259866Y0202300D02*
X0271833Y0202300D01*
X0273032Y0203498D02*
X0259866Y0203498D01*
X0259866Y0204697D02*
X0274230Y0204697D01*
X0275429Y0205895D02*
X0259866Y0205895D01*
X0259866Y0207094D02*
X0276627Y0207094D01*
X0277826Y0208292D02*
X0259866Y0208292D01*
X0259866Y0209491D02*
X0279024Y0209491D01*
X0280223Y0210689D02*
X0259866Y0210689D01*
X0259866Y0211888D02*
X0281421Y0211888D01*
X0282620Y0213086D02*
X0259866Y0213086D01*
X0259866Y0214285D02*
X0283818Y0214285D01*
X0285017Y0215483D02*
X0259866Y0215483D01*
X0259866Y0216682D02*
X0286215Y0216682D01*
X0287414Y0217880D02*
X0259866Y0217880D01*
X0259866Y0219079D02*
X0288612Y0219079D01*
X0289811Y0220277D02*
X0259866Y0220277D01*
X0259866Y0221476D02*
X0291009Y0221476D01*
X0292208Y0222674D02*
X0259866Y0222674D01*
X0259866Y0223873D02*
X0293406Y0223873D01*
X0294605Y0225071D02*
X0259866Y0225071D01*
X0259866Y0226270D02*
X0295803Y0226270D01*
X0297002Y0227468D02*
X0259866Y0227468D01*
X0259866Y0228667D02*
X0297520Y0228667D01*
X0297520Y0229865D02*
X0259866Y0229865D01*
X0259866Y0231064D02*
X0298204Y0231064D01*
X0297520Y0232262D02*
X0259866Y0232262D01*
X0259866Y0233461D02*
X0297520Y0233461D01*
X0297520Y0234659D02*
X0259866Y0234659D01*
X0259866Y0235858D02*
X0297999Y0235858D01*
X0300970Y0237056D02*
X0259866Y0237056D01*
X0259866Y0238255D02*
X0300970Y0238255D01*
X0300970Y0239453D02*
X0259866Y0239453D01*
X0259866Y0240652D02*
X0300970Y0240652D01*
X0300970Y0241851D02*
X0259866Y0241851D01*
X0259866Y0243049D02*
X0300970Y0243049D01*
X0300970Y0244248D02*
X0259866Y0244248D01*
X0259866Y0245446D02*
X0300970Y0245446D01*
X0300970Y0246645D02*
X0259866Y0246645D01*
X0259866Y0247843D02*
X0300970Y0247843D01*
X0300970Y0249042D02*
X0259866Y0249042D01*
X0259866Y0250240D02*
X0300970Y0250240D01*
X0300970Y0251439D02*
X0259866Y0251439D01*
X0259866Y0252637D02*
X0300970Y0252637D01*
X0300970Y0253836D02*
X0259866Y0253836D01*
X0259866Y0255034D02*
X0300970Y0255034D01*
X0300970Y0256233D02*
X0259866Y0256233D01*
X0259866Y0257431D02*
X0300970Y0257431D01*
X0300970Y0258630D02*
X0259866Y0258630D01*
X0259866Y0259828D02*
X0300970Y0259828D01*
X0300970Y0261027D02*
X0259866Y0261027D01*
X0259866Y0262225D02*
X0302059Y0262225D01*
X0299810Y0263424D02*
X0259866Y0263424D01*
X0259866Y0264622D02*
X0298611Y0264622D01*
X0297413Y0265821D02*
X0259866Y0265821D01*
X0259866Y0267019D02*
X0296214Y0267019D01*
X0295016Y0268218D02*
X0259866Y0268218D01*
X0259866Y0269416D02*
X0293817Y0269416D01*
X0292619Y0270615D02*
X0259866Y0270615D01*
X0259866Y0271813D02*
X0291420Y0271813D01*
X0290222Y0273012D02*
X0259866Y0273012D01*
X0259866Y0274210D02*
X0289023Y0274210D01*
X0287825Y0275409D02*
X0259866Y0275409D01*
X0259866Y0276607D02*
X0286626Y0276607D01*
X0285428Y0277806D02*
X0259866Y0277806D01*
X0259866Y0279004D02*
X0284229Y0279004D01*
X0283031Y0280203D02*
X0259866Y0280203D01*
X0259866Y0281401D02*
X0281832Y0281401D01*
X0280634Y0282600D02*
X0259866Y0282600D01*
X0259866Y0283798D02*
X0279435Y0283798D01*
X0278237Y0284997D02*
X0259866Y0284997D01*
X0259866Y0286195D02*
X0277038Y0286195D01*
X0275840Y0287394D02*
X0259866Y0287394D01*
X0259866Y0288592D02*
X0274641Y0288592D01*
X0273442Y0289791D02*
X0259866Y0289791D01*
X0259866Y0290989D02*
X0272244Y0290989D01*
X0271045Y0292188D02*
X0259866Y0292188D01*
X0259866Y0293387D02*
X0269847Y0293387D01*
X0268648Y0294585D02*
X0259866Y0294585D01*
X0259866Y0295784D02*
X0267450Y0295784D01*
X0266251Y0296982D02*
X0259866Y0296982D01*
X0259866Y0298181D02*
X0265053Y0298181D01*
X0263854Y0299379D02*
X0259866Y0299379D01*
X0259866Y0300578D02*
X0262656Y0300578D01*
X0262270Y0301776D02*
X0259866Y0301776D01*
X0259866Y0302975D02*
X0262270Y0302975D01*
X0262270Y0304173D02*
X0259866Y0304173D01*
X0259866Y0305372D02*
X0262270Y0305372D01*
X0262270Y0306570D02*
X0259866Y0306570D01*
X0259866Y0307769D02*
X0262270Y0307769D01*
X0262270Y0308967D02*
X0259866Y0308967D01*
X0259866Y0310166D02*
X0262270Y0310166D01*
X0262270Y0311364D02*
X0259866Y0311364D01*
X0259866Y0312563D02*
X0262270Y0312563D01*
X0262270Y0313761D02*
X0259866Y0313761D01*
X0259866Y0314960D02*
X0262270Y0314960D01*
X0262270Y0316158D02*
X0259866Y0316158D01*
X0259866Y0317357D02*
X0262270Y0317357D01*
X0262270Y0318555D02*
X0259866Y0318555D01*
X0259866Y0319754D02*
X0262270Y0319754D01*
X0262270Y0320952D02*
X0259866Y0320952D01*
X0259866Y0322151D02*
X0262270Y0322151D01*
X0262270Y0323349D02*
X0259866Y0323349D01*
X0259866Y0324548D02*
X0262270Y0324548D01*
X0262270Y0325746D02*
X0259866Y0325746D01*
X0259866Y0326945D02*
X0262270Y0326945D01*
X0262270Y0328143D02*
X0259866Y0328143D01*
X0259866Y0329342D02*
X0262270Y0329342D01*
X0262270Y0330540D02*
X0259866Y0330540D01*
X0259866Y0331739D02*
X0262270Y0331739D01*
X0262270Y0332937D02*
X0259866Y0332937D01*
X0259866Y0334136D02*
X0262270Y0334136D01*
X0262270Y0335334D02*
X0259866Y0335334D01*
X0259866Y0336533D02*
X0262270Y0336533D01*
X0262270Y0337731D02*
X0259866Y0337731D01*
X0259866Y0338930D02*
X0262270Y0338930D01*
X0262270Y0340128D02*
X0259866Y0340128D01*
X0259866Y0341327D02*
X0262270Y0341327D01*
X0262270Y0342525D02*
X0259866Y0342525D01*
X0259866Y0343724D02*
X0262270Y0343724D01*
X0262270Y0344922D02*
X0259866Y0344922D01*
X0259866Y0346121D02*
X0262270Y0346121D01*
X0262270Y0347320D02*
X0259866Y0347320D01*
X0259866Y0348518D02*
X0262270Y0348518D01*
X0262270Y0349717D02*
X0259866Y0349717D01*
X0259866Y0350915D02*
X0262270Y0350915D01*
X0262270Y0352114D02*
X0259866Y0352114D01*
X0259866Y0353312D02*
X0262270Y0353312D01*
X0262270Y0354511D02*
X0259866Y0354511D01*
X0259866Y0355709D02*
X0262270Y0355709D01*
X0262270Y0356908D02*
X0259866Y0356908D01*
X0259866Y0358106D02*
X0262270Y0358106D01*
X0262270Y0359305D02*
X0259866Y0359305D01*
X0259866Y0360503D02*
X0262270Y0360503D01*
X0262270Y0361702D02*
X0259866Y0361702D01*
X0259866Y0362900D02*
X0262270Y0362900D01*
X0262270Y0364099D02*
X0259866Y0364099D01*
X0259866Y0365297D02*
X0262270Y0365297D01*
X0262270Y0366496D02*
X0259866Y0366496D01*
X0259866Y0367694D02*
X0262270Y0367694D01*
X0262270Y0368893D02*
X0259866Y0368893D01*
X0259866Y0370091D02*
X0262270Y0370091D01*
X0262270Y0371290D02*
X0259866Y0371290D01*
X0259866Y0372488D02*
X0262270Y0372488D01*
X0262270Y0373687D02*
X0259866Y0373687D01*
X0259866Y0374885D02*
X0262270Y0374885D01*
X0262270Y0376084D02*
X0259866Y0376084D01*
X0259866Y0377282D02*
X0262270Y0377282D01*
X0262270Y0378481D02*
X0259866Y0378481D01*
X0259866Y0379679D02*
X0262270Y0379679D01*
X0262270Y0380878D02*
X0259866Y0380878D01*
X0259866Y0382076D02*
X0262270Y0382076D01*
X0262270Y0383275D02*
X0259866Y0383275D01*
X0259866Y0384473D02*
X0262270Y0384473D01*
X0262270Y0385672D02*
X0259866Y0385672D01*
X0259866Y0386870D02*
X0262270Y0386870D01*
X0262270Y0388069D02*
X0259866Y0388069D01*
X0259866Y0389267D02*
X0262270Y0389267D01*
X0262270Y0390466D02*
X0259866Y0390466D01*
X0259866Y0391664D02*
X0262270Y0391664D01*
X0262270Y0392863D02*
X0259866Y0392863D01*
X0259866Y0394061D02*
X0262270Y0394061D01*
X0262270Y0395260D02*
X0259866Y0395260D01*
X0259866Y0396458D02*
X0262270Y0396458D01*
X0262270Y0397657D02*
X0259866Y0397657D01*
X0259866Y0398855D02*
X0262270Y0398855D01*
X0262270Y0400054D02*
X0259866Y0400054D01*
X0259866Y0401253D02*
X0262270Y0401253D01*
X0262270Y0402451D02*
X0259866Y0402451D01*
X0259866Y0403650D02*
X0262270Y0403650D01*
X0262270Y0404848D02*
X0259866Y0404848D01*
X0259866Y0406047D02*
X0262270Y0406047D01*
X0262270Y0407245D02*
X0259866Y0407245D01*
X0259866Y0408444D02*
X0262270Y0408444D01*
X0262270Y0409642D02*
X0259866Y0409642D01*
X0259866Y0410841D02*
X0262270Y0410841D01*
X0262270Y0412039D02*
X0259866Y0412039D01*
X0259866Y0413238D02*
X0262270Y0413238D01*
X0262570Y0414436D02*
X0259866Y0414436D01*
X0259866Y0415635D02*
X0263768Y0415635D01*
X0264967Y0416833D02*
X0259866Y0416833D01*
X0259866Y0418032D02*
X0266165Y0418032D01*
X0267364Y0419230D02*
X0259866Y0419230D01*
X0259866Y0420429D02*
X0268562Y0420429D01*
X0269761Y0421627D02*
X0259866Y0421627D01*
X0259866Y0422826D02*
X0270959Y0422826D01*
X0272158Y0424024D02*
X0259866Y0424024D01*
X0259866Y0425223D02*
X0272270Y0425223D01*
X0272270Y0426421D02*
X0259866Y0426421D01*
X0259866Y0427620D02*
X0272409Y0427620D01*
X0272906Y0428818D02*
X0259866Y0428818D01*
X0259866Y0430017D02*
X0273883Y0430017D01*
X0281058Y0430017D02*
X0370857Y0430017D01*
X0369625Y0428818D02*
X0282035Y0428818D01*
X0282532Y0427620D02*
X0368563Y0427620D01*
X0367871Y0426421D02*
X0282670Y0426421D01*
X0282670Y0425223D02*
X0367251Y0425223D01*
X0366930Y0424024D02*
X0282177Y0424024D01*
X0281400Y0422826D02*
X0366609Y0422826D01*
X0366571Y0421627D02*
X0279898Y0421627D01*
X0280646Y0420429D02*
X0366571Y0420429D01*
X0366728Y0419230D02*
X0281844Y0419230D01*
X0282361Y0418032D02*
X0367049Y0418032D01*
X0367435Y0416833D02*
X0282670Y0416833D01*
X0282670Y0415635D02*
X0368127Y0415635D01*
X0368871Y0414436D02*
X0282348Y0414436D01*
X0283170Y0413238D02*
X0370069Y0413238D01*
X0371626Y0412039D02*
X0284368Y0412039D01*
X0285567Y0410841D02*
X0374208Y0410841D01*
X0380733Y0410841D02*
X0388461Y0410841D01*
X0388461Y0412039D02*
X0383315Y0412039D01*
X0384872Y0413238D02*
X0388461Y0413238D01*
X0388461Y0414436D02*
X0386070Y0414436D01*
X0386814Y0415635D02*
X0388461Y0415635D01*
X0388461Y0416833D02*
X0387506Y0416833D01*
X0387892Y0418032D02*
X0388461Y0418032D01*
X0388461Y0419230D02*
X0388213Y0419230D01*
X0388370Y0420429D02*
X0388461Y0420429D01*
X0388461Y0421627D02*
X0388370Y0421627D01*
X0388332Y0422826D02*
X0388461Y0422826D01*
X0388461Y0424024D02*
X0388011Y0424024D01*
X0387690Y0425223D02*
X0388461Y0425223D01*
X0388461Y0426421D02*
X0387070Y0426421D01*
X0386378Y0427620D02*
X0388461Y0427620D01*
X0388461Y0428818D02*
X0385316Y0428818D01*
X0384084Y0430017D02*
X0388461Y0430017D01*
X0388461Y0409642D02*
X0286765Y0409642D01*
X0287964Y0408444D02*
X0388461Y0408444D01*
X0388461Y0407245D02*
X0289162Y0407245D01*
X0290361Y0406047D02*
X0388461Y0406047D01*
X0388461Y0404848D02*
X0291559Y0404848D01*
X0292758Y0403650D02*
X0388461Y0403650D01*
X0388461Y0402451D02*
X0293956Y0402451D01*
X0295155Y0401253D02*
X0388461Y0401253D01*
X0388461Y0400054D02*
X0296353Y0400054D01*
X0297552Y0398855D02*
X0388461Y0398855D01*
X0388461Y0397657D02*
X0298750Y0397657D01*
X0299949Y0396458D02*
X0388461Y0396458D01*
X0388461Y0395260D02*
X0301147Y0395260D01*
X0302346Y0394061D02*
X0388461Y0394061D01*
X0388461Y0392863D02*
X0303545Y0392863D01*
X0304743Y0391664D02*
X0388461Y0391664D01*
X0388461Y0390466D02*
X0305942Y0390466D01*
X0307140Y0389267D02*
X0388461Y0389267D01*
X0388461Y0388069D02*
X0308339Y0388069D01*
X0309537Y0386870D02*
X0388461Y0386870D01*
X0388461Y0385672D02*
X0310736Y0385672D01*
X0311934Y0384473D02*
X0388461Y0384473D01*
X0388461Y0383275D02*
X0313133Y0383275D01*
X0314331Y0382076D02*
X0388461Y0382076D01*
X0388461Y0380878D02*
X0315530Y0380878D01*
X0316728Y0379679D02*
X0388461Y0379679D01*
X0388461Y0378481D02*
X0317927Y0378481D01*
X0319125Y0377282D02*
X0388461Y0377282D01*
X0388461Y0376084D02*
X0320324Y0376084D01*
X0321522Y0374885D02*
X0326109Y0374885D01*
X0324932Y0373687D02*
X0322721Y0373687D01*
X0323919Y0372488D02*
X0324436Y0372488D01*
X0320942Y0370091D02*
X0294370Y0370091D01*
X0294370Y0368893D02*
X0322141Y0368893D01*
X0323339Y0367694D02*
X0294370Y0367694D01*
X0294370Y0366496D02*
X0324538Y0366496D01*
X0325736Y0365297D02*
X0294370Y0365297D01*
X0294370Y0364099D02*
X0334135Y0364099D01*
X0333583Y0364650D02*
X0327957Y0364650D01*
X0326383Y0364650D01*
X0281908Y0409126D01*
X0282670Y0407284D01*
X0282670Y0405216D01*
X0282279Y0404270D01*
X0294470Y0392078D01*
X0294470Y0390422D01*
X0294370Y0390322D01*
X0294370Y0312037D01*
X0295557Y0310850D01*
X0297991Y0310850D01*
X0298341Y0311200D01*
X0306200Y0311200D01*
X0307020Y0310380D01*
X0307020Y0307120D01*
X0306200Y0306300D01*
X0302807Y0306300D01*
X0302907Y0306200D01*
X0306200Y0306200D01*
X0307020Y0305380D01*
X0307020Y0304087D01*
X0312987Y0310053D01*
X0311745Y0310568D01*
X0310788Y0311524D01*
X0310777Y0311550D01*
X0306450Y0311550D01*
X0306200Y0311300D01*
X0298341Y0311300D01*
X0297520Y0312120D01*
X0297520Y0315380D01*
X0298341Y0316200D01*
X0306200Y0316200D01*
X0307020Y0315380D01*
X0307020Y0315350D01*
X0310777Y0315350D01*
X0310788Y0315376D01*
X0311745Y0316332D01*
X0312994Y0316850D01*
X0314347Y0316850D01*
X0315596Y0316332D01*
X0315631Y0316298D01*
X0316270Y0316937D01*
X0317383Y0318050D01*
X0364924Y0318050D01*
X0364876Y0318350D01*
X0372070Y0318350D01*
X0372070Y0319150D01*
X0364876Y0319150D01*
X0364984Y0319827D01*
X0365207Y0320516D01*
X0365536Y0321161D01*
X0365962Y0321747D01*
X0366474Y0322259D01*
X0367060Y0322684D01*
X0367705Y0323013D01*
X0368393Y0323237D01*
X0369108Y0323350D01*
X0372070Y0323350D01*
X0372070Y0319150D01*
X0372870Y0319150D01*
X0372870Y0323350D01*
X0374884Y0323350D01*
X0333583Y0364650D01*
X0335333Y0362900D02*
X0294370Y0362900D01*
X0294370Y0361702D02*
X0336532Y0361702D01*
X0337730Y0360503D02*
X0294370Y0360503D01*
X0294370Y0359305D02*
X0338929Y0359305D01*
X0340127Y0358106D02*
X0294370Y0358106D01*
X0294370Y0356908D02*
X0341326Y0356908D01*
X0342524Y0355709D02*
X0294370Y0355709D01*
X0294370Y0354511D02*
X0343723Y0354511D01*
X0344921Y0353312D02*
X0294370Y0353312D01*
X0294370Y0352114D02*
X0346120Y0352114D01*
X0347318Y0350915D02*
X0294370Y0350915D01*
X0294370Y0349717D02*
X0348517Y0349717D01*
X0349715Y0348518D02*
X0294370Y0348518D01*
X0294370Y0347320D02*
X0350914Y0347320D01*
X0352112Y0346121D02*
X0294370Y0346121D01*
X0294370Y0344922D02*
X0353311Y0344922D01*
X0354509Y0343724D02*
X0294370Y0343724D01*
X0294370Y0342525D02*
X0355708Y0342525D01*
X0356907Y0341327D02*
X0294370Y0341327D01*
X0294370Y0340128D02*
X0358105Y0340128D01*
X0359304Y0338930D02*
X0294370Y0338930D01*
X0294370Y0337731D02*
X0360502Y0337731D01*
X0361701Y0336533D02*
X0294370Y0336533D01*
X0294370Y0335334D02*
X0362899Y0335334D01*
X0364098Y0334136D02*
X0294370Y0334136D01*
X0294370Y0332937D02*
X0365296Y0332937D01*
X0366495Y0331739D02*
X0294370Y0331739D01*
X0294370Y0330540D02*
X0367693Y0330540D01*
X0368892Y0329342D02*
X0294370Y0329342D01*
X0294370Y0328143D02*
X0370090Y0328143D01*
X0371289Y0326945D02*
X0294370Y0326945D01*
X0294370Y0325746D02*
X0372487Y0325746D01*
X0373686Y0324548D02*
X0294370Y0324548D01*
X0294370Y0323349D02*
X0369104Y0323349D01*
X0372070Y0323349D02*
X0372870Y0323349D01*
X0372870Y0322151D02*
X0372070Y0322151D01*
X0372070Y0320952D02*
X0372870Y0320952D01*
X0372870Y0319754D02*
X0372070Y0319754D01*
X0372070Y0318555D02*
X0294370Y0318555D01*
X0294370Y0317357D02*
X0316690Y0317357D01*
X0311570Y0316158D02*
X0306242Y0316158D01*
X0306265Y0311364D02*
X0310948Y0311364D01*
X0312715Y0310166D02*
X0307020Y0310166D01*
X0307020Y0308967D02*
X0311901Y0308967D01*
X0310702Y0307769D02*
X0307020Y0307769D01*
X0306470Y0306570D02*
X0309504Y0306570D01*
X0308305Y0305372D02*
X0307020Y0305372D01*
X0307020Y0304173D02*
X0307107Y0304173D01*
X0304233Y0301300D02*
X0304133Y0301200D01*
X0298341Y0301200D01*
X0297520Y0300380D01*
X0297520Y0297120D01*
X0298341Y0296300D01*
X0301808Y0296300D01*
X0301733Y0296200D01*
X0298341Y0296200D01*
X0297520Y0295380D01*
X0297520Y0292120D01*
X0298341Y0291300D01*
X0300970Y0291300D01*
X0300970Y0291200D01*
X0298341Y0291200D01*
X0297520Y0290380D01*
X0297520Y0287120D01*
X0298341Y0286300D01*
X0306200Y0286300D01*
X0307020Y0287120D01*
X0307020Y0290380D01*
X0306200Y0291200D01*
X0304770Y0291200D01*
X0304770Y0291300D01*
X0306200Y0291300D01*
X0307020Y0292120D01*
X0307020Y0292650D01*
X0312657Y0292650D01*
X0317920Y0297913D01*
X0317920Y0297120D01*
X0318741Y0296300D01*
X0321833Y0296300D01*
X0321883Y0296250D01*
X0342583Y0296250D01*
X0366666Y0272168D01*
X0365740Y0271242D01*
X0365070Y0269625D01*
X0365070Y0267875D01*
X0365740Y0266258D01*
X0366978Y0265020D01*
X0368595Y0264350D01*
X0375283Y0264350D01*
X0374083Y0263150D01*
X0368595Y0263150D01*
X0366978Y0262480D01*
X0365740Y0261242D01*
X0365070Y0259625D01*
X0365070Y0259337D01*
X0328857Y0295550D01*
X0327250Y0295550D01*
X0326600Y0296200D01*
X0318741Y0296200D01*
X0317920Y0295380D01*
X0317920Y0292120D01*
X0318741Y0291300D01*
X0326600Y0291300D01*
X0327050Y0291750D01*
X0327283Y0291750D01*
X0365770Y0253263D01*
X0366766Y0252268D01*
X0365740Y0251242D01*
X0365070Y0249625D01*
X0365070Y0247875D01*
X0365740Y0246258D01*
X0366978Y0245020D01*
X0368595Y0244350D01*
X0374683Y0244350D01*
X0375883Y0243150D01*
X0368595Y0243150D01*
X0366978Y0242480D01*
X0365740Y0241242D01*
X0365495Y0240650D01*
X0364857Y0240650D01*
X0324570Y0280937D01*
X0324570Y0281300D01*
X0326600Y0281300D01*
X0327420Y0282120D01*
X0327420Y0285380D01*
X0326600Y0286200D01*
X0321507Y0286200D01*
X0321607Y0286300D01*
X0326600Y0286300D01*
X0327420Y0287120D01*
X0327420Y0290380D01*
X0326600Y0291200D01*
X0318741Y0291200D01*
X0317920Y0290380D01*
X0317920Y0287987D01*
X0305683Y0275750D01*
X0304770Y0274837D01*
X0304770Y0281300D01*
X0306200Y0281300D01*
X0307020Y0282120D01*
X0307020Y0285380D01*
X0306200Y0286200D01*
X0298341Y0286200D01*
X0297520Y0285380D01*
X0297520Y0282120D01*
X0298341Y0281300D01*
X0300970Y0281300D01*
X0300970Y0271343D01*
X0300945Y0271332D01*
X0299988Y0270376D01*
X0299474Y0269134D01*
X0266070Y0302537D01*
X0266070Y0329563D01*
X0293083Y0302550D01*
X0297520Y0302550D01*
X0297520Y0302120D01*
X0298341Y0301300D01*
X0304233Y0301300D01*
X0297864Y0301776D02*
X0266831Y0301776D01*
X0266070Y0302975D02*
X0292659Y0302975D01*
X0291460Y0304173D02*
X0266070Y0304173D01*
X0266070Y0305372D02*
X0290262Y0305372D01*
X0289063Y0306570D02*
X0266070Y0306570D01*
X0266070Y0307769D02*
X0287865Y0307769D01*
X0286666Y0308967D02*
X0266070Y0308967D01*
X0266070Y0310166D02*
X0285468Y0310166D01*
X0284269Y0311364D02*
X0266070Y0311364D01*
X0266070Y0312563D02*
X0283071Y0312563D01*
X0281872Y0313761D02*
X0266070Y0313761D01*
X0266070Y0314960D02*
X0280674Y0314960D01*
X0279475Y0316158D02*
X0266070Y0316158D01*
X0266070Y0317357D02*
X0278277Y0317357D01*
X0277078Y0318555D02*
X0266070Y0318555D01*
X0266070Y0319754D02*
X0275880Y0319754D01*
X0274681Y0320952D02*
X0266070Y0320952D01*
X0266070Y0322151D02*
X0273483Y0322151D01*
X0272284Y0323349D02*
X0266070Y0323349D01*
X0266070Y0324548D02*
X0271086Y0324548D01*
X0269887Y0325746D02*
X0266070Y0325746D01*
X0266070Y0326945D02*
X0268689Y0326945D01*
X0267490Y0328143D02*
X0266070Y0328143D01*
X0266070Y0329342D02*
X0266292Y0329342D01*
X0275518Y0325489D02*
X0276036Y0325351D01*
X0278905Y0325351D01*
X0281677Y0326094D01*
X0284163Y0327528D01*
X0286192Y0329558D01*
X0287627Y0332043D01*
X0288370Y0334815D01*
X0288370Y0337685D01*
X0287627Y0340457D01*
X0286192Y0342942D01*
X0284163Y0344972D01*
X0281677Y0346406D01*
X0278905Y0347149D01*
X0276036Y0347149D01*
X0273264Y0346406D01*
X0270778Y0344972D01*
X0268749Y0342942D01*
X0267870Y0341421D01*
X0267870Y0384663D01*
X0274896Y0391688D01*
X0275953Y0391250D01*
X0274525Y0390658D01*
X0273062Y0389196D01*
X0272270Y0387284D01*
X0272270Y0385216D01*
X0273062Y0383304D01*
X0274525Y0381842D01*
X0275703Y0381354D01*
X0275398Y0381254D01*
X0274640Y0380868D01*
X0273953Y0380369D01*
X0273352Y0379768D01*
X0272852Y0379080D01*
X0272466Y0378323D01*
X0272203Y0377515D01*
X0272070Y0376675D01*
X0272070Y0376634D01*
X0277086Y0376634D01*
X0277086Y0375866D01*
X0272070Y0375866D01*
X0272070Y0375825D01*
X0272203Y0374985D01*
X0272466Y0374177D01*
X0272852Y0373420D01*
X0273352Y0372732D01*
X0273953Y0372131D01*
X0274640Y0371632D01*
X0275398Y0371246D01*
X0275703Y0371146D01*
X0274525Y0370658D01*
X0273062Y0369196D01*
X0272270Y0367284D01*
X0272270Y0365216D01*
X0273062Y0363304D01*
X0274525Y0361842D01*
X0275953Y0361250D01*
X0274525Y0360658D01*
X0273062Y0359196D01*
X0272270Y0357284D01*
X0272270Y0355216D01*
X0273062Y0353304D01*
X0274525Y0351842D01*
X0276436Y0351050D01*
X0278505Y0351050D01*
X0280416Y0351842D01*
X0281879Y0353304D01*
X0282670Y0355216D01*
X0282670Y0357284D01*
X0281879Y0359196D01*
X0280416Y0360658D01*
X0278988Y0361250D01*
X0280416Y0361842D01*
X0281879Y0363304D01*
X0282670Y0365216D01*
X0282670Y0367284D01*
X0281879Y0369196D01*
X0280416Y0370658D01*
X0279238Y0371146D01*
X0279543Y0371246D01*
X0280301Y0371632D01*
X0280988Y0372131D01*
X0281589Y0372732D01*
X0282089Y0373420D01*
X0282475Y0374177D01*
X0282738Y0374985D01*
X0282870Y0375825D01*
X0282870Y0375866D01*
X0277855Y0375866D01*
X0277855Y0376634D01*
X0282870Y0376634D01*
X0282870Y0376675D01*
X0282738Y0377515D01*
X0282475Y0378323D01*
X0282089Y0379080D01*
X0281589Y0379768D01*
X0280988Y0380369D01*
X0280301Y0380868D01*
X0279543Y0381254D01*
X0279238Y0381354D01*
X0280416Y0381842D01*
X0281879Y0383304D01*
X0282670Y0385216D01*
X0282670Y0387284D01*
X0281879Y0389196D01*
X0280416Y0390658D01*
X0278988Y0391250D01*
X0280416Y0391842D01*
X0281879Y0393304D01*
X0282670Y0395216D01*
X0282670Y0397284D01*
X0282008Y0398884D01*
X0290570Y0390322D01*
X0290570Y0310463D01*
X0292870Y0308163D01*
X0293983Y0307050D01*
X0297591Y0307050D01*
X0298291Y0306350D01*
X0294657Y0306350D01*
X0275518Y0325489D01*
X0276460Y0324548D02*
X0290570Y0324548D01*
X0290570Y0325746D02*
X0280381Y0325746D01*
X0283152Y0326945D02*
X0290570Y0326945D01*
X0290570Y0328143D02*
X0284778Y0328143D01*
X0285976Y0329342D02*
X0290570Y0329342D01*
X0290570Y0330540D02*
X0286759Y0330540D01*
X0287451Y0331739D02*
X0290570Y0331739D01*
X0290570Y0332937D02*
X0287867Y0332937D01*
X0288188Y0334136D02*
X0290570Y0334136D01*
X0290570Y0335334D02*
X0288370Y0335334D01*
X0288370Y0336533D02*
X0290570Y0336533D01*
X0290570Y0337731D02*
X0288357Y0337731D01*
X0288036Y0338930D02*
X0290570Y0338930D01*
X0290570Y0340128D02*
X0287715Y0340128D01*
X0287125Y0341327D02*
X0290570Y0341327D01*
X0290570Y0342525D02*
X0286433Y0342525D01*
X0285410Y0343724D02*
X0290570Y0343724D01*
X0290570Y0344922D02*
X0284212Y0344922D01*
X0282172Y0346121D02*
X0290570Y0346121D01*
X0290570Y0347320D02*
X0267870Y0347320D01*
X0267870Y0348518D02*
X0290570Y0348518D01*
X0290570Y0349717D02*
X0267870Y0349717D01*
X0267870Y0350915D02*
X0290570Y0350915D01*
X0290570Y0352114D02*
X0280688Y0352114D01*
X0281882Y0353312D02*
X0290570Y0353312D01*
X0290570Y0354511D02*
X0282378Y0354511D01*
X0282670Y0355709D02*
X0290570Y0355709D01*
X0290570Y0356908D02*
X0282670Y0356908D01*
X0282330Y0358106D02*
X0290570Y0358106D01*
X0290570Y0359305D02*
X0281770Y0359305D01*
X0280571Y0360503D02*
X0290570Y0360503D01*
X0290570Y0361702D02*
X0280078Y0361702D01*
X0281475Y0362900D02*
X0290570Y0362900D01*
X0290570Y0364099D02*
X0282208Y0364099D01*
X0282670Y0365297D02*
X0290570Y0365297D01*
X0290570Y0366496D02*
X0282670Y0366496D01*
X0282501Y0367694D02*
X0290570Y0367694D01*
X0290570Y0368893D02*
X0282004Y0368893D01*
X0280983Y0370091D02*
X0290570Y0370091D01*
X0290570Y0371290D02*
X0279630Y0371290D01*
X0281345Y0372488D02*
X0290570Y0372488D01*
X0290570Y0373687D02*
X0282225Y0373687D01*
X0282705Y0374885D02*
X0290570Y0374885D01*
X0290570Y0376084D02*
X0277855Y0376084D01*
X0277086Y0376084D02*
X0267870Y0376084D01*
X0267870Y0377282D02*
X0272167Y0377282D01*
X0272547Y0378481D02*
X0267870Y0378481D01*
X0267870Y0379679D02*
X0273287Y0379679D01*
X0274659Y0380878D02*
X0267870Y0380878D01*
X0267870Y0382076D02*
X0274290Y0382076D01*
X0273092Y0383275D02*
X0267870Y0383275D01*
X0267870Y0384473D02*
X0272578Y0384473D01*
X0272270Y0385672D02*
X0268879Y0385672D01*
X0270078Y0386870D02*
X0272270Y0386870D01*
X0272595Y0388069D02*
X0271276Y0388069D01*
X0272475Y0389267D02*
X0273134Y0389267D01*
X0273673Y0390466D02*
X0274332Y0390466D01*
X0274872Y0391664D02*
X0274953Y0391664D01*
X0279988Y0391664D02*
X0289228Y0391664D01*
X0290426Y0390466D02*
X0280608Y0390466D01*
X0281807Y0389267D02*
X0290570Y0389267D01*
X0290570Y0388069D02*
X0282345Y0388069D01*
X0282670Y0386870D02*
X0290570Y0386870D01*
X0290570Y0385672D02*
X0282670Y0385672D01*
X0282363Y0384473D02*
X0290570Y0384473D01*
X0290570Y0383275D02*
X0281849Y0383275D01*
X0280651Y0382076D02*
X0290570Y0382076D01*
X0290570Y0380878D02*
X0280282Y0380878D01*
X0281654Y0379679D02*
X0290570Y0379679D01*
X0290570Y0378481D02*
X0282394Y0378481D01*
X0282774Y0377282D02*
X0290570Y0377282D01*
X0294370Y0377282D02*
X0313751Y0377282D01*
X0314950Y0376084D02*
X0294370Y0376084D01*
X0294370Y0374885D02*
X0316148Y0374885D01*
X0317347Y0373687D02*
X0294370Y0373687D01*
X0294370Y0372488D02*
X0318545Y0372488D01*
X0319744Y0371290D02*
X0294370Y0371290D01*
X0294370Y0378481D02*
X0312553Y0378481D01*
X0311354Y0379679D02*
X0294370Y0379679D01*
X0294370Y0380878D02*
X0310156Y0380878D01*
X0308957Y0382076D02*
X0294370Y0382076D01*
X0294370Y0383275D02*
X0307759Y0383275D01*
X0306560Y0384473D02*
X0294370Y0384473D01*
X0294370Y0385672D02*
X0305362Y0385672D01*
X0304163Y0386870D02*
X0294370Y0386870D01*
X0294370Y0388069D02*
X0302965Y0388069D01*
X0301766Y0389267D02*
X0294370Y0389267D01*
X0294470Y0390466D02*
X0300568Y0390466D01*
X0299369Y0391664D02*
X0294470Y0391664D01*
X0293686Y0392863D02*
X0298171Y0392863D01*
X0296972Y0394061D02*
X0292487Y0394061D01*
X0291289Y0395260D02*
X0295773Y0395260D01*
X0294575Y0396458D02*
X0290090Y0396458D01*
X0288892Y0397657D02*
X0293376Y0397657D01*
X0292178Y0398855D02*
X0287693Y0398855D01*
X0286495Y0400054D02*
X0290979Y0400054D01*
X0289781Y0401253D02*
X0285296Y0401253D01*
X0284098Y0402451D02*
X0288582Y0402451D01*
X0287384Y0403650D02*
X0282899Y0403650D01*
X0282518Y0404848D02*
X0286185Y0404848D01*
X0284987Y0406047D02*
X0282670Y0406047D01*
X0282670Y0407245D02*
X0283788Y0407245D01*
X0282590Y0408444D02*
X0282190Y0408444D01*
X0277470Y0406250D02*
X0292470Y0391250D01*
X0288029Y0392863D02*
X0281437Y0392863D01*
X0282192Y0394061D02*
X0286831Y0394061D01*
X0285632Y0395260D02*
X0282670Y0395260D01*
X0282670Y0396458D02*
X0284434Y0396458D01*
X0283235Y0397657D02*
X0282516Y0397657D01*
X0282037Y0398855D02*
X0282020Y0398855D01*
X0272236Y0374885D02*
X0267870Y0374885D01*
X0267870Y0373687D02*
X0272716Y0373687D01*
X0273595Y0372488D02*
X0267870Y0372488D01*
X0267870Y0371290D02*
X0275311Y0371290D01*
X0273958Y0370091D02*
X0267870Y0370091D01*
X0267870Y0368893D02*
X0272937Y0368893D01*
X0272440Y0367694D02*
X0267870Y0367694D01*
X0267870Y0366496D02*
X0272270Y0366496D01*
X0272270Y0365297D02*
X0267870Y0365297D01*
X0267870Y0364099D02*
X0272733Y0364099D01*
X0273466Y0362900D02*
X0267870Y0362900D01*
X0267870Y0361702D02*
X0274863Y0361702D01*
X0274370Y0360503D02*
X0267870Y0360503D01*
X0267870Y0359305D02*
X0273171Y0359305D01*
X0272611Y0358106D02*
X0267870Y0358106D01*
X0267870Y0356908D02*
X0272270Y0356908D01*
X0272270Y0355709D02*
X0267870Y0355709D01*
X0267870Y0354511D02*
X0272563Y0354511D01*
X0273059Y0353312D02*
X0267870Y0353312D01*
X0267870Y0352114D02*
X0274253Y0352114D01*
X0272769Y0346121D02*
X0267870Y0346121D01*
X0267870Y0344922D02*
X0270729Y0344922D01*
X0269531Y0343724D02*
X0267870Y0343724D01*
X0267870Y0342525D02*
X0268508Y0342525D01*
X0277658Y0323349D02*
X0290570Y0323349D01*
X0290570Y0322151D02*
X0278857Y0322151D01*
X0280055Y0320952D02*
X0290570Y0320952D01*
X0290570Y0319754D02*
X0281254Y0319754D01*
X0282452Y0318555D02*
X0290570Y0318555D01*
X0290570Y0317357D02*
X0283651Y0317357D01*
X0284849Y0316158D02*
X0290570Y0316158D01*
X0290570Y0314960D02*
X0286048Y0314960D01*
X0287246Y0313761D02*
X0290570Y0313761D01*
X0290570Y0312563D02*
X0288445Y0312563D01*
X0289643Y0311364D02*
X0290570Y0311364D01*
X0290842Y0310166D02*
X0290868Y0310166D01*
X0292040Y0308967D02*
X0292066Y0308967D01*
X0293239Y0307769D02*
X0293265Y0307769D01*
X0294437Y0306570D02*
X0298070Y0306570D01*
X0298276Y0311364D02*
X0295043Y0311364D01*
X0294370Y0312563D02*
X0297520Y0312563D01*
X0297520Y0313761D02*
X0294370Y0313761D01*
X0294370Y0314960D02*
X0297520Y0314960D01*
X0298299Y0316158D02*
X0294370Y0316158D01*
X0294370Y0319754D02*
X0364972Y0319754D01*
X0365430Y0320952D02*
X0294370Y0320952D01*
X0294370Y0322151D02*
X0366366Y0322151D01*
X0365083Y0314250D02*
X0366670Y0312663D01*
X0366916Y0312418D01*
X0365740Y0311242D01*
X0365070Y0309625D01*
X0365070Y0307875D01*
X0365736Y0306268D01*
X0361808Y0303150D01*
X0338257Y0303150D01*
X0330557Y0310850D01*
X0328983Y0310850D01*
X0326950Y0310850D01*
X0326601Y0311199D01*
X0326638Y0311209D01*
X0327003Y0311420D01*
X0327301Y0311718D01*
X0327511Y0312082D01*
X0327620Y0312489D01*
X0327620Y0313750D01*
X0327620Y0314250D01*
X0365083Y0314250D01*
X0365572Y0313761D02*
X0327620Y0313761D01*
X0327620Y0313750D02*
X0322671Y0313750D01*
X0322671Y0313750D01*
X0327620Y0313750D01*
X0327620Y0312563D02*
X0366771Y0312563D01*
X0365862Y0311364D02*
X0326907Y0311364D01*
X0331242Y0310166D02*
X0365294Y0310166D01*
X0365070Y0308967D02*
X0332440Y0308967D01*
X0333639Y0307769D02*
X0365114Y0307769D01*
X0365611Y0306570D02*
X0334837Y0306570D01*
X0336036Y0305372D02*
X0364607Y0305372D01*
X0363097Y0304173D02*
X0337234Y0304173D01*
X0344857Y0299350D02*
X0362362Y0299350D01*
X0363035Y0299273D01*
X0363133Y0299350D01*
X0363257Y0299350D01*
X0363737Y0299830D01*
X0366601Y0302103D01*
X0365740Y0301242D01*
X0365070Y0299625D01*
X0365070Y0297875D01*
X0365740Y0296258D01*
X0366978Y0295020D01*
X0368595Y0294350D01*
X0376346Y0294350D01*
X0377963Y0295020D01*
X0378370Y0295427D01*
X0378370Y0292073D01*
X0377963Y0292480D01*
X0376346Y0293150D01*
X0368595Y0293150D01*
X0366978Y0292480D01*
X0365740Y0291242D01*
X0365070Y0289625D01*
X0365070Y0287875D01*
X0365740Y0286258D01*
X0366978Y0285020D01*
X0368595Y0284350D01*
X0376346Y0284350D01*
X0377963Y0285020D01*
X0378370Y0285427D01*
X0378370Y0282073D01*
X0377963Y0282480D01*
X0376346Y0283150D01*
X0368595Y0283150D01*
X0366978Y0282480D01*
X0365740Y0281242D01*
X0365070Y0279625D01*
X0365070Y0279137D01*
X0344857Y0299350D01*
X0346027Y0298181D02*
X0365070Y0298181D01*
X0365070Y0299379D02*
X0363287Y0299379D01*
X0364679Y0300578D02*
X0365465Y0300578D01*
X0366189Y0301776D02*
X0366274Y0301776D01*
X0365440Y0296982D02*
X0347225Y0296982D01*
X0348424Y0295784D02*
X0366214Y0295784D01*
X0368028Y0294585D02*
X0349622Y0294585D01*
X0350821Y0293387D02*
X0378370Y0293387D01*
X0378370Y0294585D02*
X0376913Y0294585D01*
X0378255Y0292188D02*
X0378370Y0292188D01*
X0383970Y0292188D02*
X0388461Y0292188D01*
X0388461Y0293387D02*
X0383970Y0293387D01*
X0383970Y0294585D02*
X0388461Y0294585D01*
X0388461Y0295784D02*
X0383970Y0295784D01*
X0383970Y0296982D02*
X0388461Y0296982D01*
X0388461Y0298181D02*
X0383970Y0298181D01*
X0383970Y0299379D02*
X0388461Y0299379D01*
X0388461Y0300578D02*
X0383970Y0300578D01*
X0383970Y0301776D02*
X0388461Y0301776D01*
X0388461Y0302975D02*
X0383970Y0302975D01*
X0383970Y0304173D02*
X0388461Y0304173D01*
X0388461Y0305372D02*
X0383970Y0305372D01*
X0383970Y0306570D02*
X0388461Y0306570D01*
X0388461Y0307769D02*
X0383970Y0307769D01*
X0383970Y0308967D02*
X0388461Y0308967D01*
X0388461Y0310166D02*
X0383970Y0310166D01*
X0383970Y0311364D02*
X0388461Y0311364D01*
X0388461Y0312563D02*
X0383970Y0312563D01*
X0383970Y0313761D02*
X0388461Y0313761D01*
X0388461Y0314960D02*
X0383970Y0314960D01*
X0383970Y0316158D02*
X0388461Y0316158D01*
X0388461Y0317357D02*
X0383970Y0317357D01*
X0383970Y0318555D02*
X0388461Y0318555D01*
X0388461Y0319754D02*
X0383854Y0319754D01*
X0382655Y0320952D02*
X0388461Y0320952D01*
X0388461Y0322151D02*
X0381457Y0322151D01*
X0380258Y0323349D02*
X0388461Y0323349D01*
X0388461Y0324548D02*
X0379060Y0324548D01*
X0377861Y0325746D02*
X0388461Y0325746D01*
X0388461Y0326945D02*
X0376663Y0326945D01*
X0375464Y0328143D02*
X0388461Y0328143D01*
X0388461Y0329342D02*
X0374266Y0329342D01*
X0373067Y0330540D02*
X0388461Y0330540D01*
X0388461Y0331739D02*
X0371869Y0331739D01*
X0370670Y0332937D02*
X0388461Y0332937D01*
X0388461Y0334136D02*
X0369472Y0334136D01*
X0368273Y0335334D02*
X0388461Y0335334D01*
X0388461Y0336533D02*
X0367075Y0336533D01*
X0365876Y0337731D02*
X0388461Y0337731D01*
X0388461Y0338930D02*
X0364678Y0338930D01*
X0363479Y0340128D02*
X0388461Y0340128D01*
X0388461Y0341327D02*
X0362280Y0341327D01*
X0361082Y0342525D02*
X0388461Y0342525D01*
X0388461Y0343724D02*
X0359883Y0343724D01*
X0358685Y0344922D02*
X0388461Y0344922D01*
X0388461Y0346121D02*
X0357486Y0346121D01*
X0356288Y0347320D02*
X0388461Y0347320D01*
X0388461Y0348518D02*
X0355089Y0348518D01*
X0353891Y0349717D02*
X0388461Y0349717D01*
X0388461Y0350915D02*
X0352692Y0350915D01*
X0351494Y0352114D02*
X0388461Y0352114D01*
X0388461Y0353312D02*
X0350295Y0353312D01*
X0349097Y0354511D02*
X0388461Y0354511D01*
X0388461Y0355709D02*
X0347898Y0355709D01*
X0346700Y0356908D02*
X0388461Y0356908D01*
X0388461Y0358106D02*
X0345501Y0358106D01*
X0344303Y0359305D02*
X0388461Y0359305D01*
X0388461Y0360503D02*
X0343104Y0360503D01*
X0341906Y0361702D02*
X0388461Y0361702D01*
X0388461Y0362900D02*
X0340707Y0362900D01*
X0339509Y0364099D02*
X0388461Y0364099D01*
X0388461Y0365297D02*
X0338310Y0365297D01*
X0337783Y0366881D02*
X0339521Y0366881D01*
X0341126Y0367547D01*
X0342355Y0368775D01*
X0343020Y0370381D01*
X0343020Y0372119D01*
X0342355Y0373725D01*
X0341126Y0374953D01*
X0339521Y0375618D01*
X0337783Y0375618D01*
X0336177Y0374953D01*
X0334948Y0373725D01*
X0334283Y0372119D01*
X0334283Y0370381D01*
X0334948Y0368775D01*
X0336177Y0367547D01*
X0337783Y0366881D01*
X0337112Y0366496D02*
X0388461Y0366496D01*
X0388461Y0367694D02*
X0363119Y0367694D01*
X0363111Y0367664D02*
X0363220Y0368071D01*
X0363220Y0370866D01*
X0359036Y0370866D01*
X0359036Y0371634D01*
X0363220Y0371634D01*
X0363220Y0374429D01*
X0363111Y0374836D01*
X0362900Y0375201D01*
X0362602Y0375499D01*
X0362238Y0375709D01*
X0361831Y0375818D01*
X0359036Y0375818D01*
X0359036Y0371634D01*
X0358267Y0371634D01*
X0358267Y0370866D01*
X0354083Y0370866D01*
X0354083Y0368071D01*
X0354192Y0367664D01*
X0354403Y0367299D01*
X0354701Y0367001D01*
X0355065Y0366791D01*
X0355472Y0366681D01*
X0358267Y0366681D01*
X0358267Y0370866D01*
X0359036Y0370866D01*
X0359036Y0366681D01*
X0361831Y0366681D01*
X0362238Y0366791D01*
X0362602Y0367001D01*
X0362900Y0367299D01*
X0363111Y0367664D01*
X0363220Y0368893D02*
X0388461Y0368893D01*
X0388461Y0370091D02*
X0363220Y0370091D01*
X0363220Y0372488D02*
X0388461Y0372488D01*
X0388461Y0371290D02*
X0359036Y0371290D01*
X0358267Y0371290D02*
X0353020Y0371290D01*
X0353020Y0372119D02*
X0352355Y0373725D01*
X0351126Y0374953D01*
X0349521Y0375618D01*
X0347783Y0375618D01*
X0346177Y0374953D01*
X0344948Y0373725D01*
X0344283Y0372119D01*
X0344283Y0370381D01*
X0344948Y0368775D01*
X0346177Y0367547D01*
X0347783Y0366881D01*
X0349521Y0366881D01*
X0351126Y0367547D01*
X0352355Y0368775D01*
X0353020Y0370381D01*
X0353020Y0372119D01*
X0352867Y0372488D02*
X0354083Y0372488D01*
X0354083Y0371634D02*
X0354083Y0374429D01*
X0354192Y0374836D01*
X0354403Y0375201D01*
X0354701Y0375499D01*
X0355065Y0375709D01*
X0355472Y0375818D01*
X0358267Y0375818D01*
X0358267Y0371634D01*
X0354083Y0371634D01*
X0354083Y0370091D02*
X0352900Y0370091D01*
X0352404Y0368893D02*
X0354083Y0368893D01*
X0354184Y0367694D02*
X0351274Y0367694D01*
X0346029Y0367694D02*
X0341274Y0367694D01*
X0342404Y0368893D02*
X0344900Y0368893D01*
X0344403Y0370091D02*
X0342900Y0370091D01*
X0343020Y0371290D02*
X0344283Y0371290D01*
X0344436Y0372488D02*
X0342867Y0372488D01*
X0342371Y0373687D02*
X0344932Y0373687D01*
X0346109Y0374885D02*
X0341194Y0374885D01*
X0336109Y0374885D02*
X0331194Y0374885D01*
X0332371Y0373687D02*
X0334932Y0373687D01*
X0334436Y0372488D02*
X0332867Y0372488D01*
X0333020Y0371290D02*
X0334283Y0371290D01*
X0334403Y0370091D02*
X0332900Y0370091D01*
X0332404Y0368893D02*
X0334900Y0368893D01*
X0335913Y0367694D02*
X0336029Y0367694D01*
X0351194Y0374885D02*
X0354221Y0374885D01*
X0354083Y0373687D02*
X0352371Y0373687D01*
X0358267Y0373687D02*
X0359036Y0373687D01*
X0359036Y0374885D02*
X0358267Y0374885D01*
X0358267Y0372488D02*
X0359036Y0372488D01*
X0359036Y0370091D02*
X0358267Y0370091D01*
X0358267Y0368893D02*
X0359036Y0368893D01*
X0359036Y0367694D02*
X0358267Y0367694D01*
X0363220Y0373687D02*
X0388461Y0373687D01*
X0388461Y0374885D02*
X0363083Y0374885D01*
X0297718Y0300578D02*
X0268030Y0300578D01*
X0269228Y0299379D02*
X0297520Y0299379D01*
X0297520Y0298181D02*
X0270427Y0298181D01*
X0271625Y0296982D02*
X0297659Y0296982D01*
X0297924Y0295784D02*
X0272824Y0295784D01*
X0274022Y0294585D02*
X0297520Y0294585D01*
X0297520Y0293387D02*
X0275221Y0293387D01*
X0276419Y0292188D02*
X0297520Y0292188D01*
X0298130Y0290989D02*
X0277618Y0290989D01*
X0278816Y0289791D02*
X0297520Y0289791D01*
X0297520Y0288592D02*
X0280015Y0288592D01*
X0281214Y0287394D02*
X0297520Y0287394D01*
X0298336Y0286195D02*
X0282412Y0286195D01*
X0283611Y0284997D02*
X0297520Y0284997D01*
X0297520Y0283798D02*
X0284809Y0283798D01*
X0286008Y0282600D02*
X0297520Y0282600D01*
X0298239Y0281401D02*
X0287206Y0281401D01*
X0288405Y0280203D02*
X0300970Y0280203D01*
X0300970Y0279004D02*
X0289603Y0279004D01*
X0290802Y0277806D02*
X0300970Y0277806D01*
X0300970Y0276607D02*
X0292000Y0276607D01*
X0293199Y0275409D02*
X0300970Y0275409D01*
X0300970Y0274210D02*
X0294397Y0274210D01*
X0295596Y0273012D02*
X0300970Y0273012D01*
X0300970Y0271813D02*
X0296794Y0271813D01*
X0297993Y0270615D02*
X0300227Y0270615D01*
X0299591Y0269416D02*
X0299191Y0269416D01*
X0304770Y0275409D02*
X0305342Y0275409D01*
X0304770Y0276607D02*
X0306541Y0276607D01*
X0307739Y0277806D02*
X0304770Y0277806D01*
X0304770Y0279004D02*
X0308938Y0279004D01*
X0310136Y0280203D02*
X0304770Y0280203D01*
X0306302Y0281401D02*
X0311335Y0281401D01*
X0312533Y0282600D02*
X0307020Y0282600D01*
X0307020Y0283798D02*
X0313732Y0283798D01*
X0314930Y0284997D02*
X0307020Y0284997D01*
X0306205Y0286195D02*
X0316129Y0286195D01*
X0317327Y0287394D02*
X0307020Y0287394D01*
X0307020Y0288592D02*
X0317920Y0288592D01*
X0317920Y0289791D02*
X0307020Y0289791D01*
X0306411Y0290989D02*
X0318530Y0290989D01*
X0317920Y0292188D02*
X0307020Y0292188D01*
X0313394Y0293387D02*
X0317920Y0293387D01*
X0317920Y0294585D02*
X0314592Y0294585D01*
X0315791Y0295784D02*
X0318324Y0295784D01*
X0318059Y0296982D02*
X0316989Y0296982D01*
X0327017Y0295784D02*
X0343050Y0295784D01*
X0344248Y0294585D02*
X0329822Y0294585D01*
X0331021Y0293387D02*
X0345447Y0293387D01*
X0346645Y0292188D02*
X0332219Y0292188D01*
X0333418Y0290989D02*
X0347844Y0290989D01*
X0349042Y0289791D02*
X0334616Y0289791D01*
X0335815Y0288592D02*
X0350241Y0288592D01*
X0351440Y0287394D02*
X0337014Y0287394D01*
X0338212Y0286195D02*
X0352638Y0286195D01*
X0353837Y0284997D02*
X0339411Y0284997D01*
X0340609Y0283798D02*
X0355035Y0283798D01*
X0356234Y0282600D02*
X0341808Y0282600D01*
X0343006Y0281401D02*
X0357432Y0281401D01*
X0358631Y0280203D02*
X0344205Y0280203D01*
X0345403Y0279004D02*
X0359829Y0279004D01*
X0361028Y0277806D02*
X0346602Y0277806D01*
X0347800Y0276607D02*
X0362226Y0276607D01*
X0363425Y0275409D02*
X0348999Y0275409D01*
X0350197Y0274210D02*
X0364623Y0274210D01*
X0365822Y0273012D02*
X0351396Y0273012D01*
X0352594Y0271813D02*
X0366311Y0271813D01*
X0365480Y0270615D02*
X0353793Y0270615D01*
X0354991Y0269416D02*
X0365070Y0269416D01*
X0365070Y0268218D02*
X0356190Y0268218D01*
X0357388Y0267019D02*
X0365425Y0267019D01*
X0366177Y0265821D02*
X0358587Y0265821D01*
X0359785Y0264622D02*
X0367938Y0264622D01*
X0366723Y0262225D02*
X0362182Y0262225D01*
X0360984Y0263424D02*
X0374357Y0263424D01*
X0382440Y0256233D02*
X0388461Y0256233D01*
X0388461Y0257431D02*
X0383639Y0257431D01*
X0383970Y0258630D02*
X0388461Y0258630D01*
X0388461Y0259828D02*
X0383970Y0259828D01*
X0383970Y0261027D02*
X0388461Y0261027D01*
X0388461Y0262225D02*
X0383970Y0262225D01*
X0383970Y0263424D02*
X0388461Y0263424D01*
X0388461Y0264622D02*
X0383970Y0264622D01*
X0383970Y0265821D02*
X0388461Y0265821D01*
X0388461Y0267019D02*
X0383970Y0267019D01*
X0383970Y0268218D02*
X0388461Y0268218D01*
X0388461Y0269416D02*
X0383970Y0269416D01*
X0383970Y0270615D02*
X0388461Y0270615D01*
X0388461Y0271813D02*
X0383970Y0271813D01*
X0383970Y0273012D02*
X0388461Y0273012D01*
X0388461Y0274210D02*
X0383970Y0274210D01*
X0383970Y0275409D02*
X0388461Y0275409D01*
X0388461Y0276607D02*
X0383970Y0276607D01*
X0383970Y0277806D02*
X0388461Y0277806D01*
X0388461Y0279004D02*
X0383970Y0279004D01*
X0383970Y0280203D02*
X0388461Y0280203D01*
X0388461Y0281401D02*
X0383970Y0281401D01*
X0383970Y0282600D02*
X0388461Y0282600D01*
X0388461Y0283798D02*
X0383970Y0283798D01*
X0383970Y0284997D02*
X0388461Y0284997D01*
X0388461Y0286195D02*
X0383970Y0286195D01*
X0383970Y0287394D02*
X0388461Y0287394D01*
X0388461Y0288592D02*
X0383970Y0288592D01*
X0383970Y0289791D02*
X0388461Y0289791D01*
X0388461Y0290989D02*
X0383970Y0290989D01*
X0378370Y0284997D02*
X0377907Y0284997D01*
X0378370Y0283798D02*
X0360409Y0283798D01*
X0361608Y0282600D02*
X0367267Y0282600D01*
X0365899Y0281401D02*
X0362806Y0281401D01*
X0364005Y0280203D02*
X0365310Y0280203D01*
X0367033Y0284997D02*
X0359211Y0284997D01*
X0358012Y0286195D02*
X0365802Y0286195D01*
X0365270Y0287394D02*
X0356813Y0287394D01*
X0355615Y0288592D02*
X0365070Y0288592D01*
X0365139Y0289791D02*
X0354416Y0289791D01*
X0353218Y0290989D02*
X0365636Y0290989D01*
X0366686Y0292188D02*
X0352019Y0292188D01*
X0340029Y0279004D02*
X0326503Y0279004D01*
X0327702Y0277806D02*
X0341228Y0277806D01*
X0342426Y0276607D02*
X0328900Y0276607D01*
X0330099Y0275409D02*
X0343625Y0275409D01*
X0344823Y0274210D02*
X0331297Y0274210D01*
X0332496Y0273012D02*
X0346022Y0273012D01*
X0347220Y0271813D02*
X0333694Y0271813D01*
X0334893Y0270615D02*
X0348419Y0270615D01*
X0349617Y0269416D02*
X0336091Y0269416D01*
X0337290Y0268218D02*
X0350816Y0268218D01*
X0352014Y0267019D02*
X0338488Y0267019D01*
X0339687Y0265821D02*
X0353213Y0265821D01*
X0354411Y0264622D02*
X0340885Y0264622D01*
X0342084Y0263424D02*
X0355610Y0263424D01*
X0356808Y0262225D02*
X0343282Y0262225D01*
X0344481Y0261027D02*
X0358007Y0261027D01*
X0359205Y0259828D02*
X0345679Y0259828D01*
X0346878Y0258630D02*
X0360404Y0258630D01*
X0361602Y0257431D02*
X0348076Y0257431D01*
X0349275Y0256233D02*
X0362801Y0256233D01*
X0363999Y0255034D02*
X0350473Y0255034D01*
X0351672Y0253836D02*
X0365198Y0253836D01*
X0366396Y0252637D02*
X0352870Y0252637D01*
X0354069Y0251439D02*
X0365937Y0251439D01*
X0365325Y0250240D02*
X0355267Y0250240D01*
X0356466Y0249042D02*
X0365070Y0249042D01*
X0365084Y0247843D02*
X0357664Y0247843D01*
X0358863Y0246645D02*
X0365580Y0246645D01*
X0366552Y0245446D02*
X0360061Y0245446D01*
X0361260Y0244248D02*
X0374786Y0244248D01*
X0378961Y0245446D02*
X0388461Y0245446D01*
X0388461Y0244248D02*
X0380160Y0244248D01*
X0381358Y0243049D02*
X0388461Y0243049D01*
X0388461Y0241851D02*
X0382170Y0241851D01*
X0382170Y0240652D02*
X0388461Y0240652D01*
X0388461Y0239453D02*
X0382170Y0239453D01*
X0382170Y0238255D02*
X0388461Y0238255D01*
X0388461Y0237056D02*
X0382170Y0237056D01*
X0382170Y0235858D02*
X0388461Y0235858D01*
X0388461Y0234659D02*
X0382170Y0234659D01*
X0382170Y0233461D02*
X0388461Y0233461D01*
X0388461Y0232262D02*
X0382170Y0232262D01*
X0382170Y0231064D02*
X0388461Y0231064D01*
X0388461Y0229865D02*
X0382170Y0229865D01*
X0382170Y0228667D02*
X0388461Y0228667D01*
X0388461Y0227468D02*
X0382170Y0227468D01*
X0382170Y0226270D02*
X0388461Y0226270D01*
X0388461Y0225071D02*
X0382170Y0225071D01*
X0382170Y0223873D02*
X0388461Y0223873D01*
X0388461Y0222674D02*
X0382170Y0222674D01*
X0382170Y0221476D02*
X0388461Y0221476D01*
X0388461Y0220277D02*
X0382170Y0220277D01*
X0382170Y0219079D02*
X0388461Y0219079D01*
X0388461Y0217880D02*
X0382170Y0217880D01*
X0382170Y0216682D02*
X0388461Y0216682D01*
X0388461Y0215483D02*
X0382170Y0215483D01*
X0382170Y0214285D02*
X0388461Y0214285D01*
X0388461Y0213086D02*
X0382170Y0213086D01*
X0382170Y0211888D02*
X0388461Y0211888D01*
X0388461Y0210689D02*
X0382170Y0210689D01*
X0382170Y0209491D02*
X0388461Y0209491D01*
X0388461Y0208292D02*
X0382170Y0208292D01*
X0382170Y0207094D02*
X0388461Y0207094D01*
X0388461Y0205895D02*
X0381603Y0205895D01*
X0380404Y0204697D02*
X0388461Y0204697D01*
X0388461Y0203498D02*
X0379206Y0203498D01*
X0378143Y0202300D02*
X0388461Y0202300D01*
X0388461Y0201101D02*
X0379259Y0201101D01*
X0379756Y0199903D02*
X0388461Y0199903D01*
X0388461Y0198704D02*
X0379870Y0198704D01*
X0379718Y0197506D02*
X0388461Y0197506D01*
X0388461Y0196307D02*
X0379221Y0196307D01*
X0378052Y0195109D02*
X0388461Y0195109D01*
X0388461Y0193910D02*
X0374070Y0193910D01*
X0374070Y0192712D02*
X0388461Y0192712D01*
X0388461Y0191513D02*
X0374070Y0191513D01*
X0374070Y0190315D02*
X0388461Y0190315D01*
X0388461Y0189116D02*
X0374070Y0189116D01*
X0374070Y0187918D02*
X0388461Y0187918D01*
X0388461Y0186719D02*
X0374070Y0186719D01*
X0373828Y0185520D02*
X0388461Y0185520D01*
X0388461Y0184322D02*
X0372629Y0184322D01*
X0371431Y0183123D02*
X0388461Y0183123D01*
X0388461Y0181925D02*
X0370232Y0181925D01*
X0369034Y0180726D02*
X0388461Y0180726D01*
X0388461Y0179528D02*
X0367835Y0179528D01*
X0366637Y0178329D02*
X0388461Y0178329D01*
X0388461Y0177131D02*
X0365438Y0177131D01*
X0364240Y0175932D02*
X0388461Y0175932D01*
X0388461Y0174734D02*
X0363041Y0174734D01*
X0361843Y0173535D02*
X0388461Y0173535D01*
X0388461Y0172337D02*
X0360644Y0172337D01*
X0359446Y0171138D02*
X0388461Y0171138D01*
X0388461Y0169940D02*
X0358247Y0169940D01*
X0357049Y0168741D02*
X0388461Y0168741D01*
X0388461Y0167543D02*
X0355850Y0167543D01*
X0354652Y0166344D02*
X0388461Y0166344D01*
X0388461Y0165146D02*
X0353453Y0165146D01*
X0352255Y0163947D02*
X0388461Y0163947D01*
X0388461Y0162749D02*
X0351056Y0162749D01*
X0349858Y0161550D02*
X0388461Y0161550D01*
X0388461Y0160352D02*
X0348659Y0160352D01*
X0347461Y0159153D02*
X0388461Y0159153D01*
X0388461Y0157955D02*
X0346262Y0157955D01*
X0345064Y0156756D02*
X0388461Y0156756D01*
X0388461Y0155558D02*
X0343865Y0155558D01*
X0342667Y0154359D02*
X0388461Y0154359D01*
X0388461Y0153161D02*
X0341468Y0153161D01*
X0340270Y0151962D02*
X0388461Y0151962D01*
X0388461Y0150764D02*
X0339071Y0150764D01*
X0339996Y0149953D02*
X0341602Y0150618D01*
X0343339Y0150618D01*
X0344945Y0149953D01*
X0346174Y0148725D01*
X0346839Y0147119D01*
X0346839Y0145381D01*
X0346174Y0143775D01*
X0344945Y0142547D01*
X0343339Y0141881D01*
X0341602Y0141881D01*
X0339996Y0142547D01*
X0338767Y0143775D01*
X0338102Y0145381D01*
X0338102Y0147119D01*
X0338767Y0148725D01*
X0339996Y0149953D01*
X0339608Y0149565D02*
X0337873Y0149565D01*
X0338619Y0148367D02*
X0336674Y0148367D01*
X0336819Y0147168D02*
X0338122Y0147168D01*
X0338102Y0145970D02*
X0336839Y0145970D01*
X0336586Y0144771D02*
X0338355Y0144771D01*
X0338970Y0143573D02*
X0335971Y0143573D01*
X0334529Y0142374D02*
X0340412Y0142374D01*
X0344529Y0142374D02*
X0350412Y0142374D01*
X0349996Y0142547D02*
X0351602Y0141881D01*
X0353339Y0141881D01*
X0354945Y0142547D01*
X0356174Y0143775D01*
X0356839Y0145381D01*
X0356839Y0147119D01*
X0356174Y0148725D01*
X0354945Y0149953D01*
X0353339Y0150618D01*
X0351602Y0150618D01*
X0349996Y0149953D01*
X0348767Y0148725D01*
X0348102Y0147119D01*
X0348102Y0145381D01*
X0348767Y0143775D01*
X0349996Y0142547D01*
X0348970Y0143573D02*
X0345971Y0143573D01*
X0346586Y0144771D02*
X0348355Y0144771D01*
X0348102Y0145970D02*
X0346839Y0145970D01*
X0346819Y0147168D02*
X0348122Y0147168D01*
X0348619Y0148367D02*
X0346322Y0148367D01*
X0345333Y0149565D02*
X0349608Y0149565D01*
X0355333Y0149565D02*
X0388461Y0149565D01*
X0388461Y0148367D02*
X0356322Y0148367D01*
X0356819Y0147168D02*
X0388461Y0147168D01*
X0388461Y0145970D02*
X0356839Y0145970D01*
X0356586Y0144771D02*
X0388461Y0144771D01*
X0388461Y0143573D02*
X0355971Y0143573D01*
X0354529Y0142374D02*
X0388461Y0142374D01*
X0388461Y0141176D02*
X0329483Y0141176D01*
X0328285Y0139977D02*
X0388461Y0139977D01*
X0388461Y0138779D02*
X0327086Y0138779D01*
X0325887Y0137580D02*
X0388461Y0137580D01*
X0388461Y0136382D02*
X0324689Y0136382D01*
X0323490Y0135183D02*
X0388461Y0135183D01*
X0388461Y0133984D02*
X0322292Y0133984D01*
X0321093Y0132786D02*
X0388461Y0132786D01*
X0388461Y0131587D02*
X0319895Y0131587D01*
X0318696Y0130389D02*
X0388461Y0130389D01*
X0388461Y0129190D02*
X0317498Y0129190D01*
X0316299Y0127992D02*
X0388461Y0127992D01*
X0388461Y0126793D02*
X0315101Y0126793D01*
X0313902Y0125595D02*
X0388461Y0125595D01*
X0388461Y0124396D02*
X0312704Y0124396D01*
X0311505Y0123198D02*
X0388461Y0123198D01*
X0388461Y0121999D02*
X0310307Y0121999D01*
X0309108Y0120801D02*
X0388461Y0120801D01*
X0388461Y0119602D02*
X0307910Y0119602D01*
X0306711Y0118404D02*
X0388461Y0118404D01*
X0388461Y0117205D02*
X0305513Y0117205D01*
X0304314Y0116007D02*
X0388461Y0116007D01*
X0388461Y0114808D02*
X0303116Y0114808D01*
X0301917Y0113610D02*
X0388461Y0113610D01*
X0388461Y0112411D02*
X0300719Y0112411D01*
X0299520Y0111213D02*
X0388461Y0111213D01*
X0388461Y0110014D02*
X0298322Y0110014D01*
X0297123Y0108816D02*
X0388461Y0108816D01*
X0388461Y0107617D02*
X0295925Y0107617D01*
X0294726Y0106419D02*
X0373309Y0106419D01*
X0371209Y0105220D02*
X0293528Y0105220D01*
X0292329Y0104022D02*
X0369828Y0104022D01*
X0368680Y0102823D02*
X0291131Y0102823D01*
X0289932Y0101625D02*
X0367988Y0101625D01*
X0367306Y0100426D02*
X0288734Y0100426D01*
X0287535Y0099228D02*
X0366985Y0099228D01*
X0366664Y0098029D02*
X0286337Y0098029D01*
X0285138Y0096831D02*
X0366571Y0096831D01*
X0366571Y0095632D02*
X0283940Y0095632D01*
X0282741Y0094434D02*
X0366673Y0094434D01*
X0366995Y0093235D02*
X0282277Y0093235D01*
X0282670Y0092037D02*
X0367318Y0092037D01*
X0368010Y0090838D02*
X0282670Y0090838D01*
X0282432Y0089640D02*
X0368702Y0089640D01*
X0369866Y0088441D02*
X0281935Y0088441D01*
X0280817Y0087243D02*
X0371273Y0087243D01*
X0373448Y0086044D02*
X0259866Y0086044D01*
X0259866Y0087243D02*
X0274124Y0087243D01*
X0273006Y0088441D02*
X0259866Y0088441D01*
X0259866Y0089640D02*
X0272509Y0089640D01*
X0272270Y0090838D02*
X0259866Y0090838D01*
X0259866Y0092037D02*
X0272270Y0092037D01*
X0272664Y0093235D02*
X0259866Y0093235D01*
X0259866Y0094434D02*
X0273300Y0094434D01*
X0274499Y0095632D02*
X0259866Y0095632D01*
X0259866Y0096831D02*
X0274551Y0096831D01*
X0273337Y0098029D02*
X0259866Y0098029D01*
X0259866Y0099228D02*
X0272680Y0099228D01*
X0272270Y0100426D02*
X0259866Y0100426D01*
X0259866Y0101625D02*
X0272270Y0101625D01*
X0272494Y0102823D02*
X0259866Y0102823D01*
X0259866Y0104022D02*
X0272990Y0104022D01*
X0274087Y0105220D02*
X0259866Y0105220D01*
X0259866Y0106419D02*
X0275058Y0106419D01*
X0273466Y0107617D02*
X0259866Y0107617D01*
X0259866Y0108816D02*
X0272650Y0108816D01*
X0272199Y0110014D02*
X0259866Y0110014D01*
X0259866Y0111213D02*
X0277086Y0111213D01*
X0277855Y0111213D02*
X0294146Y0111213D01*
X0292948Y0110014D02*
X0282742Y0110014D01*
X0282738Y0109985D02*
X0282870Y0110825D01*
X0282870Y0110866D01*
X0277855Y0110866D01*
X0277855Y0111634D01*
X0282870Y0111634D01*
X0282870Y0111675D01*
X0282738Y0112515D01*
X0282475Y0113323D01*
X0282089Y0114080D01*
X0281589Y0114768D01*
X0280988Y0115369D01*
X0280301Y0115868D01*
X0279543Y0116254D01*
X0279238Y0116354D01*
X0280416Y0116842D01*
X0281879Y0118304D01*
X0282670Y0120216D01*
X0282670Y0122284D01*
X0281879Y0124196D01*
X0280416Y0125658D01*
X0278988Y0126250D01*
X0280416Y0126842D01*
X0281879Y0128304D01*
X0282670Y0130216D01*
X0282670Y0132284D01*
X0281879Y0134196D01*
X0280416Y0135658D01*
X0278988Y0136250D01*
X0280416Y0136842D01*
X0281879Y0138304D01*
X0282436Y0139650D01*
X0298742Y0139650D01*
X0299142Y0139250D01*
X0300799Y0139250D01*
X0302220Y0140672D01*
X0316970Y0155422D01*
X0316970Y0205422D01*
X0318295Y0206746D01*
X0318741Y0206300D01*
X0326600Y0206300D01*
X0327420Y0207120D01*
X0327420Y0210380D01*
X0326600Y0211200D01*
X0318741Y0211200D01*
X0318291Y0210750D01*
X0317299Y0210750D01*
X0318295Y0211746D01*
X0318741Y0211300D01*
X0326600Y0211300D01*
X0327420Y0212120D01*
X0327420Y0215380D01*
X0326600Y0216200D01*
X0318741Y0216200D01*
X0318291Y0215750D01*
X0316642Y0215750D01*
X0309142Y0208250D01*
X0307970Y0207078D01*
X0307970Y0157078D01*
X0299142Y0148250D01*
X0295252Y0148250D01*
X0294386Y0149116D01*
X0293143Y0149631D01*
X0291798Y0149631D01*
X0290555Y0149116D01*
X0289604Y0148165D01*
X0289089Y0146923D01*
X0289089Y0145577D01*
X0289604Y0144335D01*
X0290489Y0143450D01*
X0282188Y0143450D01*
X0281879Y0144196D01*
X0280416Y0145658D01*
X0278988Y0146250D01*
X0280416Y0146842D01*
X0281879Y0148304D01*
X0282670Y0150216D01*
X0282670Y0152284D01*
X0282237Y0153330D01*
X0285657Y0156750D01*
X0289962Y0156750D01*
X0290416Y0156599D01*
X0290719Y0156750D01*
X0291057Y0156750D01*
X0291396Y0157088D01*
X0291824Y0157303D01*
X0291931Y0157624D01*
X0292170Y0157863D01*
X0292170Y0158342D01*
X0292322Y0158796D01*
X0292170Y0159099D01*
X0292170Y0159437D01*
X0291970Y0159637D01*
X0291970Y0212563D01*
X0292170Y0212763D01*
X0297520Y0218113D01*
X0297520Y0217120D01*
X0298341Y0216300D01*
X0302033Y0216300D01*
X0302024Y0216290D01*
X0301940Y0216284D01*
X0301868Y0216200D01*
X0298341Y0216200D01*
X0297520Y0215380D01*
X0297520Y0212120D01*
X0298341Y0211300D01*
X0300970Y0211300D01*
X0300970Y0211200D01*
X0298341Y0211200D01*
X0297520Y0210380D01*
X0297520Y0207120D01*
X0298340Y0206301D01*
X0298303Y0206291D01*
X0297938Y0206080D01*
X0297640Y0205782D01*
X0297430Y0205418D01*
X0297320Y0205011D01*
X0297320Y0203750D01*
X0297320Y0202489D01*
X0297430Y0202082D01*
X0297640Y0201718D01*
X0297938Y0201420D01*
X0298303Y0201209D01*
X0298710Y0201100D01*
X0302270Y0201100D01*
X0302270Y0203750D01*
X0297320Y0203750D01*
X0302270Y0203750D01*
X0302270Y0203750D01*
X0302271Y0203750D01*
X0307220Y0203750D01*
X0307220Y0205011D01*
X0307111Y0205418D01*
X0306901Y0205782D01*
X0306603Y0206080D01*
X0306238Y0206291D01*
X0306201Y0206301D01*
X0307020Y0207120D01*
X0307020Y0210380D01*
X0306200Y0211200D01*
X0304770Y0211200D01*
X0304770Y0211300D01*
X0306200Y0211300D01*
X0307020Y0212120D01*
X0307020Y0212550D01*
X0312657Y0212550D01*
X0317920Y0217813D01*
X0317920Y0217120D01*
X0318741Y0216300D01*
X0326600Y0216300D01*
X0327350Y0217050D01*
X0327877Y0217050D01*
X0327888Y0217024D01*
X0328845Y0216068D01*
X0330094Y0215550D01*
X0331447Y0215550D01*
X0332696Y0216068D01*
X0333653Y0217024D01*
X0334167Y0218266D01*
X0345283Y0207150D01*
X0346857Y0207150D01*
X0365371Y0207150D01*
X0365740Y0206258D01*
X0366448Y0205550D01*
X0327250Y0205550D01*
X0326600Y0206200D01*
X0318741Y0206200D01*
X0317920Y0205380D01*
X0317920Y0202120D01*
X0318741Y0201300D01*
X0326600Y0201300D01*
X0327050Y0201750D01*
X0366248Y0201750D01*
X0365740Y0201242D01*
X0365070Y0199625D01*
X0365070Y0197875D01*
X0365740Y0196258D01*
X0366978Y0195020D01*
X0368595Y0194350D01*
X0370270Y0194350D01*
X0370270Y0187337D01*
X0333490Y0150556D01*
X0333339Y0150618D01*
X0331602Y0150618D01*
X0329996Y0149953D01*
X0328767Y0148725D01*
X0328102Y0147119D01*
X0328102Y0145381D01*
X0328164Y0145231D01*
X0327039Y0144105D01*
X0327039Y0145866D01*
X0322855Y0145866D01*
X0322855Y0146634D01*
X0327039Y0146634D01*
X0327039Y0149429D01*
X0326930Y0149836D01*
X0326719Y0150201D01*
X0326421Y0150499D01*
X0326057Y0150709D01*
X0325650Y0150818D01*
X0322855Y0150818D01*
X0322855Y0146634D01*
X0322086Y0146634D01*
X0322086Y0145866D01*
X0317902Y0145866D01*
X0317902Y0143071D01*
X0318011Y0142664D01*
X0318222Y0142299D01*
X0318520Y0142001D01*
X0318884Y0141791D01*
X0319291Y0141681D01*
X0322086Y0141681D01*
X0322086Y0145866D01*
X0322855Y0145866D01*
X0322855Y0141681D01*
X0324615Y0141681D01*
X0282332Y0099398D01*
X0282670Y0100216D01*
X0282670Y0102284D01*
X0281879Y0104196D01*
X0280416Y0105658D01*
X0279238Y0106146D01*
X0279543Y0106246D01*
X0280301Y0106632D01*
X0280988Y0107131D01*
X0281589Y0107732D01*
X0282089Y0108420D01*
X0282475Y0109177D01*
X0282738Y0109985D01*
X0282291Y0108816D02*
X0291749Y0108816D01*
X0290551Y0107617D02*
X0281474Y0107617D01*
X0279883Y0106419D02*
X0289352Y0106419D01*
X0288154Y0105220D02*
X0280854Y0105220D01*
X0281951Y0104022D02*
X0286955Y0104022D01*
X0285757Y0102823D02*
X0282447Y0102823D01*
X0282670Y0101625D02*
X0284558Y0101625D01*
X0283360Y0100426D02*
X0282670Y0100426D01*
X0282754Y0112411D02*
X0295345Y0112411D01*
X0296543Y0113610D02*
X0282329Y0113610D01*
X0281549Y0114808D02*
X0297742Y0114808D01*
X0298940Y0116007D02*
X0280029Y0116007D01*
X0280780Y0117205D02*
X0300139Y0117205D01*
X0301337Y0118404D02*
X0281920Y0118404D01*
X0282416Y0119602D02*
X0302536Y0119602D01*
X0303734Y0120801D02*
X0282670Y0120801D01*
X0282670Y0121999D02*
X0304933Y0121999D01*
X0306131Y0123198D02*
X0282292Y0123198D01*
X0281678Y0124396D02*
X0307330Y0124396D01*
X0308528Y0125595D02*
X0280479Y0125595D01*
X0280300Y0126793D02*
X0309727Y0126793D01*
X0310925Y0127992D02*
X0281566Y0127992D01*
X0282246Y0129190D02*
X0312124Y0129190D01*
X0313322Y0130389D02*
X0282670Y0130389D01*
X0282670Y0131587D02*
X0314521Y0131587D01*
X0315719Y0132786D02*
X0282463Y0132786D01*
X0281966Y0133984D02*
X0316918Y0133984D01*
X0318116Y0135183D02*
X0280891Y0135183D01*
X0279305Y0136382D02*
X0319315Y0136382D01*
X0320514Y0137580D02*
X0281154Y0137580D01*
X0282075Y0138779D02*
X0321712Y0138779D01*
X0322911Y0139977D02*
X0301526Y0139977D01*
X0302724Y0141176D02*
X0324109Y0141176D01*
X0322855Y0142374D02*
X0322086Y0142374D01*
X0322086Y0143573D02*
X0322855Y0143573D01*
X0322855Y0144771D02*
X0322086Y0144771D01*
X0322086Y0145970D02*
X0307519Y0145970D01*
X0308717Y0147168D02*
X0317902Y0147168D01*
X0317902Y0146634D02*
X0322086Y0146634D01*
X0322086Y0150818D01*
X0319291Y0150818D01*
X0318884Y0150709D01*
X0318520Y0150499D01*
X0318222Y0150201D01*
X0318011Y0149836D01*
X0317902Y0149429D01*
X0317902Y0146634D01*
X0317902Y0148367D02*
X0309916Y0148367D01*
X0311114Y0149565D02*
X0317938Y0149565D01*
X0319087Y0150764D02*
X0312313Y0150764D01*
X0313511Y0151962D02*
X0334896Y0151962D01*
X0336094Y0153161D02*
X0314710Y0153161D01*
X0315908Y0154359D02*
X0337293Y0154359D01*
X0338491Y0155558D02*
X0316970Y0155558D01*
X0316970Y0156756D02*
X0339690Y0156756D01*
X0340888Y0157955D02*
X0316970Y0157955D01*
X0316970Y0159153D02*
X0342087Y0159153D01*
X0343285Y0160352D02*
X0316970Y0160352D01*
X0316970Y0161550D02*
X0344484Y0161550D01*
X0345682Y0162749D02*
X0316970Y0162749D01*
X0316970Y0163947D02*
X0346881Y0163947D01*
X0348079Y0165146D02*
X0316970Y0165146D01*
X0316970Y0166344D02*
X0349278Y0166344D01*
X0350476Y0167543D02*
X0316970Y0167543D01*
X0316970Y0168741D02*
X0351675Y0168741D01*
X0352873Y0169940D02*
X0316970Y0169940D01*
X0316970Y0171138D02*
X0354072Y0171138D01*
X0355270Y0172337D02*
X0316970Y0172337D01*
X0316970Y0173535D02*
X0356469Y0173535D01*
X0357667Y0174734D02*
X0316970Y0174734D01*
X0316970Y0175932D02*
X0358866Y0175932D01*
X0360064Y0177131D02*
X0316970Y0177131D01*
X0316970Y0178329D02*
X0361263Y0178329D01*
X0362461Y0179528D02*
X0316970Y0179528D01*
X0316970Y0180726D02*
X0363660Y0180726D01*
X0364858Y0181925D02*
X0316970Y0181925D01*
X0316970Y0183123D02*
X0366057Y0183123D01*
X0367255Y0184322D02*
X0316970Y0184322D01*
X0316970Y0185520D02*
X0368454Y0185520D01*
X0369652Y0186719D02*
X0316970Y0186719D01*
X0316970Y0187918D02*
X0370270Y0187918D01*
X0370270Y0189116D02*
X0316970Y0189116D01*
X0316970Y0190315D02*
X0370270Y0190315D01*
X0370270Y0191513D02*
X0316970Y0191513D01*
X0316970Y0192712D02*
X0370270Y0192712D01*
X0370270Y0193910D02*
X0316970Y0193910D01*
X0316970Y0195109D02*
X0366889Y0195109D01*
X0365720Y0196307D02*
X0316970Y0196307D01*
X0316970Y0197506D02*
X0365223Y0197506D01*
X0365070Y0198704D02*
X0316970Y0198704D01*
X0316970Y0199903D02*
X0365185Y0199903D01*
X0365682Y0201101D02*
X0316970Y0201101D01*
X0316970Y0202300D02*
X0317920Y0202300D01*
X0317920Y0203498D02*
X0316970Y0203498D01*
X0316970Y0204697D02*
X0317920Y0204697D01*
X0317444Y0205895D02*
X0318436Y0205895D01*
X0317470Y0208750D02*
X0314970Y0206250D01*
X0314970Y0156250D01*
X0300220Y0141500D01*
X0299970Y0141250D01*
X0303923Y0142374D02*
X0318178Y0142374D01*
X0317902Y0143573D02*
X0305121Y0143573D01*
X0306320Y0144771D02*
X0317902Y0144771D01*
X0322086Y0147168D02*
X0322855Y0147168D01*
X0322855Y0145970D02*
X0328102Y0145970D01*
X0328122Y0147168D02*
X0327039Y0147168D01*
X0327039Y0148367D02*
X0328619Y0148367D01*
X0329608Y0149565D02*
X0327003Y0149565D01*
X0325854Y0150764D02*
X0333697Y0150764D01*
X0327705Y0144771D02*
X0327039Y0144771D01*
X0322855Y0148367D02*
X0322086Y0148367D01*
X0322086Y0149565D02*
X0322855Y0149565D01*
X0322855Y0150764D02*
X0322086Y0150764D01*
X0309970Y0156250D02*
X0299970Y0146250D01*
X0292470Y0146250D01*
X0289423Y0144771D02*
X0281303Y0144771D01*
X0282137Y0143573D02*
X0290366Y0143573D01*
X0289089Y0145970D02*
X0279665Y0145970D01*
X0280743Y0147168D02*
X0289191Y0147168D01*
X0289806Y0148367D02*
X0281905Y0148367D01*
X0282401Y0149565D02*
X0291639Y0149565D01*
X0293302Y0149565D02*
X0300457Y0149565D01*
X0299259Y0148367D02*
X0295135Y0148367D01*
X0301656Y0150764D02*
X0282670Y0150764D01*
X0282670Y0151962D02*
X0302854Y0151962D01*
X0304053Y0153161D02*
X0282307Y0153161D01*
X0283267Y0154359D02*
X0305251Y0154359D01*
X0306450Y0155558D02*
X0284465Y0155558D01*
X0289970Y0158750D02*
X0289970Y0213550D01*
X0289970Y0213750D01*
X0287970Y0213063D02*
X0287970Y0184175D01*
X0287627Y0185457D01*
X0286192Y0187942D01*
X0284163Y0189972D01*
X0281677Y0191406D01*
X0278905Y0192149D01*
X0276036Y0192149D01*
X0273264Y0191406D01*
X0270778Y0189972D01*
X0268749Y0187942D01*
X0267870Y0186421D01*
X0267870Y0192963D01*
X0287970Y0213063D01*
X0287970Y0211888D02*
X0286795Y0211888D01*
X0287970Y0210689D02*
X0285597Y0210689D01*
X0284398Y0209491D02*
X0287970Y0209491D01*
X0287970Y0208292D02*
X0283200Y0208292D01*
X0282001Y0207094D02*
X0287970Y0207094D01*
X0287970Y0205895D02*
X0280803Y0205895D01*
X0279604Y0204697D02*
X0287970Y0204697D01*
X0287970Y0203498D02*
X0278406Y0203498D01*
X0277207Y0202300D02*
X0287970Y0202300D01*
X0287970Y0201101D02*
X0276009Y0201101D01*
X0274810Y0199903D02*
X0287970Y0199903D01*
X0287970Y0198704D02*
X0273612Y0198704D01*
X0272413Y0197506D02*
X0287970Y0197506D01*
X0287970Y0196307D02*
X0271215Y0196307D01*
X0270016Y0195109D02*
X0287970Y0195109D01*
X0287970Y0193910D02*
X0268818Y0193910D01*
X0267870Y0192712D02*
X0287970Y0192712D01*
X0287970Y0191513D02*
X0281280Y0191513D01*
X0283569Y0190315D02*
X0287970Y0190315D01*
X0287970Y0189116D02*
X0285018Y0189116D01*
X0286206Y0187918D02*
X0287970Y0187918D01*
X0287970Y0186719D02*
X0286898Y0186719D01*
X0287590Y0185520D02*
X0287970Y0185520D01*
X0287931Y0184322D02*
X0287970Y0184322D01*
X0291970Y0184322D02*
X0307970Y0184322D01*
X0307970Y0185520D02*
X0291970Y0185520D01*
X0291970Y0186719D02*
X0307970Y0186719D01*
X0307970Y0187918D02*
X0291970Y0187918D01*
X0291970Y0189116D02*
X0307970Y0189116D01*
X0307970Y0190315D02*
X0291970Y0190315D01*
X0291970Y0191513D02*
X0307970Y0191513D01*
X0307970Y0192712D02*
X0291970Y0192712D01*
X0291970Y0193910D02*
X0307970Y0193910D01*
X0307970Y0195109D02*
X0291970Y0195109D01*
X0291970Y0196307D02*
X0307970Y0196307D01*
X0307970Y0197506D02*
X0291970Y0197506D01*
X0291970Y0198704D02*
X0307970Y0198704D01*
X0307970Y0199903D02*
X0291970Y0199903D01*
X0291970Y0201101D02*
X0298706Y0201101D01*
X0297371Y0202300D02*
X0291970Y0202300D01*
X0291970Y0203498D02*
X0297320Y0203498D01*
X0297320Y0204697D02*
X0291970Y0204697D01*
X0291970Y0205895D02*
X0297753Y0205895D01*
X0297547Y0207094D02*
X0291970Y0207094D01*
X0291970Y0208292D02*
X0297520Y0208292D01*
X0297520Y0209491D02*
X0291970Y0209491D01*
X0291970Y0210689D02*
X0297830Y0210689D01*
X0297753Y0211888D02*
X0291970Y0211888D01*
X0292494Y0213086D02*
X0297520Y0213086D01*
X0297520Y0214285D02*
X0293692Y0214285D01*
X0294891Y0215483D02*
X0297624Y0215483D01*
X0297959Y0216682D02*
X0296089Y0216682D01*
X0297288Y0217880D02*
X0297520Y0217880D01*
X0302977Y0226270D02*
X0320770Y0226270D01*
X0317920Y0227468D02*
X0307020Y0227468D01*
X0307020Y0228667D02*
X0317920Y0228667D01*
X0317920Y0229865D02*
X0307020Y0229865D01*
X0306336Y0231064D02*
X0307978Y0231064D01*
X0310363Y0231064D02*
X0318604Y0231064D01*
X0317920Y0232262D02*
X0311991Y0232262D01*
X0311172Y0237056D02*
X0363077Y0237056D01*
X0361878Y0238255D02*
X0304770Y0238255D01*
X0304770Y0239453D02*
X0360680Y0239453D01*
X0359481Y0240652D02*
X0304770Y0240652D01*
X0304770Y0241851D02*
X0358283Y0241851D01*
X0357084Y0243049D02*
X0304770Y0243049D01*
X0304770Y0244248D02*
X0355886Y0244248D01*
X0354687Y0245446D02*
X0304770Y0245446D01*
X0304770Y0246645D02*
X0353489Y0246645D01*
X0352290Y0247843D02*
X0304770Y0247843D01*
X0304770Y0249042D02*
X0351092Y0249042D01*
X0349893Y0250240D02*
X0304770Y0250240D01*
X0304770Y0251439D02*
X0348695Y0251439D01*
X0347496Y0252637D02*
X0304770Y0252637D01*
X0304770Y0253836D02*
X0346298Y0253836D01*
X0345099Y0255034D02*
X0304770Y0255034D01*
X0304770Y0256233D02*
X0343901Y0256233D01*
X0342702Y0257431D02*
X0304770Y0257431D01*
X0304770Y0258630D02*
X0341504Y0258630D01*
X0340305Y0259828D02*
X0305036Y0259828D01*
X0306234Y0261027D02*
X0339107Y0261027D01*
X0337908Y0262225D02*
X0307433Y0262225D01*
X0308631Y0263424D02*
X0336710Y0263424D01*
X0335511Y0264622D02*
X0309830Y0264622D01*
X0311028Y0265821D02*
X0334313Y0265821D01*
X0333114Y0267019D02*
X0312227Y0267019D01*
X0313425Y0268218D02*
X0331916Y0268218D01*
X0330717Y0269416D02*
X0314624Y0269416D01*
X0315822Y0270615D02*
X0329519Y0270615D01*
X0328320Y0271813D02*
X0317021Y0271813D01*
X0318219Y0273012D02*
X0327122Y0273012D01*
X0325923Y0274210D02*
X0319418Y0274210D01*
X0320616Y0275409D02*
X0324725Y0275409D01*
X0323526Y0276607D02*
X0321815Y0276607D01*
X0325305Y0280203D02*
X0338831Y0280203D01*
X0337632Y0281401D02*
X0326702Y0281401D01*
X0327420Y0282600D02*
X0336434Y0282600D01*
X0335235Y0283798D02*
X0327420Y0283798D01*
X0327420Y0284997D02*
X0334037Y0284997D01*
X0332838Y0286195D02*
X0326605Y0286195D01*
X0327420Y0287394D02*
X0331640Y0287394D01*
X0330441Y0288592D02*
X0327420Y0288592D01*
X0327420Y0289791D02*
X0329242Y0289791D01*
X0328044Y0290989D02*
X0326811Y0290989D01*
X0363381Y0261027D02*
X0365651Y0261027D01*
X0365155Y0259828D02*
X0364579Y0259828D01*
X0378845Y0252637D02*
X0388461Y0252637D01*
X0388461Y0251439D02*
X0379004Y0251439D01*
X0379616Y0250240D02*
X0388461Y0250240D01*
X0388461Y0249042D02*
X0379870Y0249042D01*
X0379857Y0247843D02*
X0388461Y0247843D01*
X0388461Y0246645D02*
X0379361Y0246645D01*
X0380043Y0253836D02*
X0388461Y0253836D01*
X0388461Y0255034D02*
X0381242Y0255034D01*
X0368352Y0243049D02*
X0362458Y0243049D01*
X0363657Y0241851D02*
X0366348Y0241851D01*
X0365496Y0240652D02*
X0364855Y0240652D01*
X0366140Y0235858D02*
X0326942Y0235858D01*
X0327420Y0234659D02*
X0367848Y0234659D01*
X0366760Y0232262D02*
X0327420Y0232262D01*
X0327420Y0233461D02*
X0378370Y0233461D01*
X0378370Y0234659D02*
X0377093Y0234659D01*
X0378181Y0232262D02*
X0378370Y0232262D01*
X0378370Y0225071D02*
X0378014Y0225071D01*
X0378370Y0223873D02*
X0333935Y0223873D01*
X0335133Y0222674D02*
X0367447Y0222674D01*
X0365974Y0221476D02*
X0336332Y0221476D01*
X0337530Y0220277D02*
X0365341Y0220277D01*
X0365070Y0219079D02*
X0338729Y0219079D01*
X0339927Y0217880D02*
X0365070Y0217880D01*
X0365565Y0216682D02*
X0341126Y0216682D01*
X0342324Y0215483D02*
X0366515Y0215483D01*
X0368441Y0213086D02*
X0344721Y0213086D01*
X0345920Y0211888D02*
X0366386Y0211888D01*
X0365394Y0207094D02*
X0327394Y0207094D01*
X0327420Y0208292D02*
X0344141Y0208292D01*
X0342943Y0209491D02*
X0327420Y0209491D01*
X0327111Y0210689D02*
X0341744Y0210689D01*
X0340546Y0211888D02*
X0327188Y0211888D01*
X0327420Y0213086D02*
X0339347Y0213086D01*
X0338149Y0214285D02*
X0327420Y0214285D01*
X0327317Y0215483D02*
X0336950Y0215483D01*
X0335752Y0216682D02*
X0333311Y0216682D01*
X0334008Y0217880D02*
X0334553Y0217880D01*
X0328230Y0216682D02*
X0326982Y0216682D01*
X0322670Y0213750D02*
X0317470Y0213750D01*
X0309970Y0206250D01*
X0309970Y0156250D01*
X0307648Y0156756D02*
X0291064Y0156756D01*
X0292170Y0157955D02*
X0307970Y0157955D01*
X0307970Y0159153D02*
X0292170Y0159153D01*
X0291970Y0160352D02*
X0307970Y0160352D01*
X0307970Y0161550D02*
X0291970Y0161550D01*
X0291970Y0162749D02*
X0307970Y0162749D01*
X0307970Y0163947D02*
X0291970Y0163947D01*
X0291970Y0165146D02*
X0307970Y0165146D01*
X0307970Y0166344D02*
X0291970Y0166344D01*
X0291970Y0167543D02*
X0307970Y0167543D01*
X0307970Y0168741D02*
X0291970Y0168741D01*
X0291970Y0169940D02*
X0307970Y0169940D01*
X0307970Y0171138D02*
X0291970Y0171138D01*
X0291970Y0172337D02*
X0307970Y0172337D01*
X0307970Y0173535D02*
X0291970Y0173535D01*
X0291970Y0174734D02*
X0307970Y0174734D01*
X0307970Y0175932D02*
X0291970Y0175932D01*
X0291970Y0177131D02*
X0307970Y0177131D01*
X0307970Y0178329D02*
X0291970Y0178329D01*
X0291970Y0179528D02*
X0307970Y0179528D01*
X0307970Y0180726D02*
X0291970Y0180726D01*
X0291970Y0181925D02*
X0307970Y0181925D01*
X0307970Y0183123D02*
X0291970Y0183123D01*
X0302271Y0201100D02*
X0305831Y0201100D01*
X0306238Y0201209D01*
X0306603Y0201420D01*
X0306901Y0201718D01*
X0307111Y0202082D01*
X0307220Y0202489D01*
X0307220Y0203750D01*
X0302271Y0203750D01*
X0302271Y0203750D01*
X0302271Y0201100D01*
X0302270Y0201101D02*
X0302271Y0201101D01*
X0302270Y0202300D02*
X0302271Y0202300D01*
X0302270Y0203498D02*
X0302271Y0203498D01*
X0305835Y0201101D02*
X0307970Y0201101D01*
X0307970Y0202300D02*
X0307170Y0202300D01*
X0307220Y0203498D02*
X0307970Y0203498D01*
X0307970Y0204697D02*
X0307220Y0204697D01*
X0306788Y0205895D02*
X0307970Y0205895D01*
X0307986Y0207094D02*
X0306994Y0207094D01*
X0307020Y0208292D02*
X0309184Y0208292D01*
X0310383Y0209491D02*
X0307020Y0209491D01*
X0306711Y0210689D02*
X0311581Y0210689D01*
X0312780Y0211888D02*
X0306788Y0211888D01*
X0313194Y0213086D02*
X0313978Y0213086D01*
X0314392Y0214285D02*
X0315177Y0214285D01*
X0315591Y0215483D02*
X0316375Y0215483D01*
X0316789Y0216682D02*
X0318359Y0216682D01*
X0315011Y0220277D02*
X0314101Y0220277D01*
X0313253Y0221476D02*
X0316209Y0221476D01*
X0317408Y0222674D02*
X0307020Y0222674D01*
X0307020Y0223873D02*
X0317920Y0223873D01*
X0317920Y0225071D02*
X0307020Y0225071D01*
X0306376Y0221476D02*
X0308688Y0221476D01*
X0317470Y0208750D02*
X0322670Y0208750D01*
X0326905Y0205895D02*
X0366103Y0205895D01*
X0376500Y0213086D02*
X0378370Y0213086D01*
X0378370Y0214285D02*
X0343523Y0214285D01*
X0332736Y0225071D02*
X0366927Y0225071D01*
X0365735Y0226270D02*
X0324570Y0226270D01*
X0327420Y0227468D02*
X0365239Y0227468D01*
X0365070Y0228667D02*
X0327420Y0228667D01*
X0327420Y0229865D02*
X0365170Y0229865D01*
X0365666Y0231064D02*
X0326736Y0231064D01*
X0307169Y0237056D02*
X0304770Y0237056D01*
X0273661Y0191513D02*
X0267870Y0191513D01*
X0267870Y0190315D02*
X0271372Y0190315D01*
X0269923Y0189116D02*
X0267870Y0189116D01*
X0267870Y0187918D02*
X0268735Y0187918D01*
X0268043Y0186719D02*
X0267870Y0186719D01*
X0250666Y0186719D02*
X0241898Y0186719D01*
X0241206Y0187918D02*
X0250666Y0187918D01*
X0250666Y0189116D02*
X0240018Y0189116D01*
X0239163Y0189972D02*
X0241192Y0187942D01*
X0242627Y0185457D01*
X0243370Y0182685D01*
X0243370Y0179815D01*
X0242627Y0177043D01*
X0241192Y0174558D01*
X0239163Y0172528D01*
X0236677Y0171094D01*
X0233905Y0170351D01*
X0231036Y0170351D01*
X0228264Y0171094D01*
X0225778Y0172528D01*
X0223749Y0174558D01*
X0222314Y0177043D01*
X0221571Y0179815D01*
X0221571Y0182685D01*
X0222314Y0185457D01*
X0223749Y0187942D01*
X0225778Y0189972D01*
X0228264Y0191406D01*
X0231036Y0192149D01*
X0233905Y0192149D01*
X0236677Y0191406D01*
X0239163Y0189972D01*
X0238569Y0190315D02*
X0250666Y0190315D01*
X0250666Y0191513D02*
X0236280Y0191513D01*
X0228661Y0191513D02*
X0216570Y0191513D01*
X0216570Y0190315D02*
X0226372Y0190315D01*
X0224923Y0189116D02*
X0216570Y0189116D01*
X0216570Y0187918D02*
X0223735Y0187918D01*
X0223043Y0186719D02*
X0216570Y0186719D01*
X0216570Y0185520D02*
X0222351Y0185520D01*
X0222010Y0184322D02*
X0216570Y0184322D01*
X0216570Y0183123D02*
X0221689Y0183123D01*
X0221571Y0181925D02*
X0216570Y0181925D01*
X0216570Y0180726D02*
X0221571Y0180726D01*
X0221648Y0179528D02*
X0216570Y0179528D01*
X0216570Y0178329D02*
X0221969Y0178329D01*
X0222290Y0177131D02*
X0216570Y0177131D01*
X0216570Y0175932D02*
X0222955Y0175932D01*
X0223647Y0174734D02*
X0216570Y0174734D01*
X0216570Y0173535D02*
X0224771Y0173535D01*
X0226110Y0172337D02*
X0216570Y0172337D01*
X0216570Y0171138D02*
X0228186Y0171138D01*
X0236755Y0171138D02*
X0250666Y0171138D01*
X0250666Y0169940D02*
X0216570Y0169940D01*
X0216570Y0168741D02*
X0250666Y0168741D01*
X0250666Y0167543D02*
X0216570Y0167543D01*
X0226264Y0156756D02*
X0229731Y0156756D01*
X0228412Y0157955D02*
X0227462Y0157955D01*
X0238831Y0172337D02*
X0250666Y0172337D01*
X0250666Y0173535D02*
X0240170Y0173535D01*
X0241294Y0174734D02*
X0250666Y0174734D01*
X0250666Y0175932D02*
X0241986Y0175932D01*
X0242650Y0177131D02*
X0250666Y0177131D01*
X0250666Y0178329D02*
X0242972Y0178329D01*
X0243293Y0179528D02*
X0250666Y0179528D01*
X0250666Y0180726D02*
X0243370Y0180726D01*
X0243370Y0181925D02*
X0250666Y0181925D01*
X0250666Y0183123D02*
X0243252Y0183123D01*
X0242931Y0184322D02*
X0250666Y0184322D01*
X0250666Y0185520D02*
X0242590Y0185520D01*
X0250666Y0192712D02*
X0216570Y0192712D01*
X0216570Y0193910D02*
X0250666Y0193910D01*
X0250666Y0195109D02*
X0216570Y0195109D01*
X0216570Y0196307D02*
X0250666Y0196307D01*
X0250666Y0197506D02*
X0216570Y0197506D01*
X0216570Y0198704D02*
X0250666Y0198704D01*
X0250666Y0199903D02*
X0216570Y0199903D01*
X0216570Y0201101D02*
X0250666Y0201101D01*
X0250666Y0202300D02*
X0216570Y0202300D01*
X0216570Y0203498D02*
X0250666Y0203498D01*
X0250666Y0204697D02*
X0216570Y0204697D01*
X0216570Y0205895D02*
X0250666Y0205895D01*
X0250666Y0207094D02*
X0216570Y0207094D01*
X0216570Y0208292D02*
X0250666Y0208292D01*
X0250666Y0209491D02*
X0216570Y0209491D01*
X0216570Y0210689D02*
X0250666Y0210689D01*
X0250666Y0211888D02*
X0216570Y0211888D01*
X0216570Y0213086D02*
X0250666Y0213086D01*
X0250666Y0214285D02*
X0216570Y0214285D01*
X0216570Y0215483D02*
X0250666Y0215483D01*
X0250666Y0216682D02*
X0216570Y0216682D01*
X0216570Y0217880D02*
X0250666Y0217880D01*
X0250666Y0219079D02*
X0216570Y0219079D01*
X0216570Y0220277D02*
X0250666Y0220277D01*
X0250666Y0221476D02*
X0216570Y0221476D01*
X0216570Y0222674D02*
X0250666Y0222674D01*
X0250666Y0223873D02*
X0216570Y0223873D01*
X0216570Y0225071D02*
X0250666Y0225071D01*
X0250666Y0226270D02*
X0216570Y0226270D01*
X0216570Y0227468D02*
X0250666Y0227468D01*
X0250666Y0228667D02*
X0216570Y0228667D01*
X0216570Y0229865D02*
X0250666Y0229865D01*
X0250666Y0231064D02*
X0216570Y0231064D01*
X0216570Y0232262D02*
X0250666Y0232262D01*
X0250666Y0233461D02*
X0216570Y0233461D01*
X0216048Y0234659D02*
X0250666Y0234659D01*
X0250666Y0235858D02*
X0214849Y0235858D01*
X0215457Y0235250D02*
X0215457Y0235250D01*
X0212770Y0232262D02*
X0212420Y0232262D01*
X0212770Y0231064D02*
X0211736Y0231064D01*
X0212420Y0229865D02*
X0212770Y0229865D01*
X0212770Y0228667D02*
X0212420Y0228667D01*
X0212420Y0227468D02*
X0212770Y0227468D01*
X0212770Y0226270D02*
X0209370Y0226270D01*
X0212420Y0225071D02*
X0212770Y0225071D01*
X0212770Y0223873D02*
X0212420Y0223873D01*
X0212420Y0222674D02*
X0212770Y0222674D01*
X0212770Y0221476D02*
X0211776Y0221476D01*
X0212420Y0220277D02*
X0212770Y0220277D01*
X0212770Y0219079D02*
X0212420Y0219079D01*
X0212420Y0217880D02*
X0212770Y0217880D01*
X0212770Y0216682D02*
X0211982Y0216682D01*
X0212317Y0215483D02*
X0212770Y0215483D01*
X0212770Y0214285D02*
X0212420Y0214285D01*
X0212420Y0213086D02*
X0212770Y0213086D01*
X0212770Y0211888D02*
X0212188Y0211888D01*
X0212111Y0210689D02*
X0212770Y0210689D01*
X0212770Y0209491D02*
X0212420Y0209491D01*
X0212715Y0208292D02*
X0212770Y0208292D01*
X0203605Y0231064D02*
X0202865Y0231064D01*
X0202920Y0232262D02*
X0192020Y0232262D01*
X0192020Y0232120D02*
X0192020Y0235380D01*
X0191200Y0236200D01*
X0188670Y0236200D01*
X0188670Y0237737D01*
X0187557Y0238850D01*
X0178196Y0248211D01*
X0178470Y0248874D01*
X0178470Y0250226D01*
X0177953Y0251476D01*
X0176996Y0252432D01*
X0175747Y0252950D01*
X0174394Y0252950D01*
X0173732Y0252676D01*
X0149970Y0276437D01*
X0148857Y0277550D01*
X0147057Y0277550D01*
X0145470Y0279137D01*
X0144791Y0279816D01*
X0144201Y0281242D01*
X0142963Y0282480D01*
X0141346Y0283150D01*
X0133595Y0283150D01*
X0131978Y0282480D01*
X0130740Y0281242D01*
X0130070Y0279625D01*
X0130070Y0277875D01*
X0130740Y0276258D01*
X0131978Y0275020D01*
X0133595Y0274350D01*
X0141346Y0274350D01*
X0142963Y0275020D01*
X0143588Y0275645D01*
X0145483Y0273750D01*
X0147283Y0273750D01*
X0171670Y0249363D01*
X0171670Y0248874D01*
X0172188Y0247624D01*
X0173145Y0246668D01*
X0174394Y0246150D01*
X0174883Y0246150D01*
X0184833Y0236200D01*
X0183341Y0236200D01*
X0182520Y0235380D01*
X0182520Y0232120D01*
X0183341Y0231300D01*
X0191200Y0231300D01*
X0192020Y0232120D01*
X0191336Y0231064D02*
X0197676Y0231064D01*
X0202920Y0233461D02*
X0192020Y0233461D01*
X0192020Y0234659D02*
X0202920Y0234659D01*
X0203399Y0235858D02*
X0191542Y0235858D01*
X0188670Y0237056D02*
X0203777Y0237056D01*
X0202578Y0238255D02*
X0188152Y0238255D01*
X0187557Y0238850D02*
X0187557Y0238850D01*
X0186954Y0239453D02*
X0201380Y0239453D01*
X0200181Y0240652D02*
X0185755Y0240652D01*
X0184557Y0241851D02*
X0198983Y0241851D01*
X0197784Y0243049D02*
X0183358Y0243049D01*
X0182160Y0244248D02*
X0196586Y0244248D01*
X0195387Y0245446D02*
X0180961Y0245446D01*
X0179763Y0246645D02*
X0194189Y0246645D01*
X0192990Y0247843D02*
X0178564Y0247843D01*
X0178470Y0249042D02*
X0191792Y0249042D01*
X0190593Y0250240D02*
X0178465Y0250240D01*
X0177968Y0251439D02*
X0189395Y0251439D01*
X0188196Y0252637D02*
X0176502Y0252637D01*
X0172572Y0253836D02*
X0186998Y0253836D01*
X0185799Y0255034D02*
X0171373Y0255034D01*
X0170175Y0256233D02*
X0185770Y0256233D01*
X0185770Y0257431D02*
X0168976Y0257431D01*
X0167778Y0258630D02*
X0185770Y0258630D01*
X0185770Y0259828D02*
X0166579Y0259828D01*
X0165381Y0261027D02*
X0185770Y0261027D01*
X0185770Y0262225D02*
X0164182Y0262225D01*
X0162984Y0263424D02*
X0185770Y0263424D01*
X0185770Y0264622D02*
X0161785Y0264622D01*
X0160587Y0265821D02*
X0185770Y0265821D01*
X0185770Y0267019D02*
X0159388Y0267019D01*
X0158190Y0268218D02*
X0185770Y0268218D01*
X0185770Y0269416D02*
X0156991Y0269416D01*
X0155793Y0270615D02*
X0185770Y0270615D01*
X0185770Y0271813D02*
X0154594Y0271813D01*
X0153396Y0273012D02*
X0185770Y0273012D01*
X0185770Y0274210D02*
X0152197Y0274210D01*
X0150999Y0275409D02*
X0185770Y0275409D01*
X0185770Y0276607D02*
X0149800Y0276607D01*
X0149970Y0276437D02*
X0149970Y0276437D01*
X0146802Y0277806D02*
X0179228Y0277806D01*
X0178029Y0279004D02*
X0145603Y0279004D01*
X0144631Y0280203D02*
X0176831Y0280203D01*
X0175632Y0281401D02*
X0144042Y0281401D01*
X0142674Y0282600D02*
X0174434Y0282600D01*
X0173235Y0283798D02*
X0129270Y0283798D01*
X0129270Y0282600D02*
X0132267Y0282600D01*
X0130899Y0281401D02*
X0129270Y0281401D01*
X0129270Y0280203D02*
X0130310Y0280203D01*
X0130070Y0279004D02*
X0129270Y0279004D01*
X0129270Y0277806D02*
X0130099Y0277806D01*
X0130595Y0276607D02*
X0129270Y0276607D01*
X0129270Y0275409D02*
X0131589Y0275409D01*
X0129270Y0274210D02*
X0145023Y0274210D01*
X0143825Y0275409D02*
X0143352Y0275409D01*
X0141679Y0273012D02*
X0148022Y0273012D01*
X0149220Y0271813D02*
X0143630Y0271813D01*
X0144201Y0271242D02*
X0142963Y0272480D01*
X0141346Y0273150D01*
X0133595Y0273150D01*
X0131978Y0272480D01*
X0130740Y0271242D01*
X0130070Y0269625D01*
X0130070Y0267875D01*
X0130740Y0266258D01*
X0131978Y0265020D01*
X0133595Y0264350D01*
X0141346Y0264350D01*
X0142009Y0264625D01*
X0149181Y0257452D01*
X0149170Y0257426D01*
X0149170Y0256074D01*
X0149688Y0254824D01*
X0150645Y0253868D01*
X0151894Y0253350D01*
X0153247Y0253350D01*
X0154496Y0253868D01*
X0155453Y0254824D01*
X0155970Y0256074D01*
X0155970Y0257426D01*
X0155453Y0258676D01*
X0154496Y0259632D01*
X0153247Y0260150D01*
X0151894Y0260150D01*
X0151868Y0260139D01*
X0144654Y0267353D01*
X0144870Y0267875D01*
X0144870Y0269625D01*
X0144201Y0271242D01*
X0144461Y0270615D02*
X0150419Y0270615D01*
X0151617Y0269416D02*
X0144870Y0269416D01*
X0144870Y0268218D02*
X0152816Y0268218D01*
X0154014Y0267019D02*
X0144988Y0267019D01*
X0146187Y0265821D02*
X0155213Y0265821D01*
X0156411Y0264622D02*
X0147385Y0264622D01*
X0148584Y0263424D02*
X0157610Y0263424D01*
X0158808Y0262225D02*
X0149782Y0262225D01*
X0150981Y0261027D02*
X0160007Y0261027D01*
X0161205Y0259828D02*
X0154024Y0259828D01*
X0155472Y0258630D02*
X0157742Y0258630D01*
X0156745Y0257431D02*
X0155968Y0257431D01*
X0155970Y0256233D02*
X0156370Y0256233D01*
X0156268Y0255034D02*
X0155540Y0255034D01*
X0155069Y0253836D02*
X0154419Y0253836D01*
X0153871Y0252637D02*
X0142584Y0252637D01*
X0144004Y0251439D02*
X0152672Y0251439D01*
X0151474Y0250240D02*
X0144616Y0250240D01*
X0144870Y0249042D02*
X0150275Y0249042D01*
X0149077Y0247843D02*
X0145264Y0247843D01*
X0146463Y0246645D02*
X0147878Y0246645D01*
X0150855Y0244248D02*
X0176786Y0244248D01*
X0175587Y0245446D02*
X0152054Y0245446D01*
X0153252Y0246645D02*
X0173200Y0246645D01*
X0172097Y0247843D02*
X0154451Y0247843D01*
X0155649Y0249042D02*
X0171670Y0249042D01*
X0170793Y0250240D02*
X0156848Y0250240D01*
X0158046Y0251439D02*
X0169595Y0251439D01*
X0168396Y0252637D02*
X0160899Y0252637D01*
X0162564Y0253836D02*
X0167198Y0253836D01*
X0165999Y0255034D02*
X0163113Y0255034D01*
X0163170Y0256233D02*
X0164801Y0256233D01*
X0163602Y0257431D02*
X0162796Y0257431D01*
X0162404Y0258630D02*
X0161799Y0258630D01*
X0150722Y0253836D02*
X0129270Y0253836D01*
X0129270Y0255034D02*
X0131964Y0255034D01*
X0131978Y0255020D02*
X0133595Y0254350D01*
X0141346Y0254350D01*
X0142963Y0255020D01*
X0144201Y0256258D01*
X0144870Y0257875D01*
X0144870Y0259625D01*
X0144201Y0261242D01*
X0142963Y0262480D01*
X0141346Y0263150D01*
X0133595Y0263150D01*
X0131978Y0262480D01*
X0130740Y0261242D01*
X0130070Y0259625D01*
X0130070Y0257875D01*
X0130740Y0256258D01*
X0131978Y0255020D01*
X0130765Y0256233D02*
X0129270Y0256233D01*
X0129270Y0257431D02*
X0130254Y0257431D01*
X0130070Y0258630D02*
X0129270Y0258630D01*
X0129270Y0259828D02*
X0130155Y0259828D01*
X0130651Y0261027D02*
X0129270Y0261027D01*
X0129270Y0262225D02*
X0131723Y0262225D01*
X0132938Y0264622D02*
X0129270Y0264622D01*
X0129270Y0263424D02*
X0143210Y0263424D01*
X0143218Y0262225D02*
X0144408Y0262225D01*
X0144290Y0261027D02*
X0145607Y0261027D01*
X0144786Y0259828D02*
X0146805Y0259828D01*
X0148004Y0258630D02*
X0144870Y0258630D01*
X0144687Y0257431D02*
X0149172Y0257431D01*
X0149170Y0256233D02*
X0144176Y0256233D01*
X0142977Y0255034D02*
X0149601Y0255034D01*
X0142011Y0264622D02*
X0142003Y0264622D01*
X0133262Y0273012D02*
X0129270Y0273012D01*
X0129270Y0271813D02*
X0131311Y0271813D01*
X0130480Y0270615D02*
X0129270Y0270615D01*
X0129270Y0269416D02*
X0130070Y0269416D01*
X0130070Y0268218D02*
X0129270Y0268218D01*
X0129270Y0267019D02*
X0130425Y0267019D01*
X0131177Y0265821D02*
X0129270Y0265821D01*
X0129270Y0252637D02*
X0132357Y0252637D01*
X0130937Y0251439D02*
X0129270Y0251439D01*
X0129270Y0250240D02*
X0130325Y0250240D01*
X0130070Y0249042D02*
X0129270Y0249042D01*
X0129270Y0247843D02*
X0130084Y0247843D01*
X0130580Y0246645D02*
X0129363Y0246645D01*
X0130561Y0245446D02*
X0131552Y0245446D01*
X0131760Y0244248D02*
X0143486Y0244248D01*
X0144684Y0243049D02*
X0141589Y0243049D01*
X0143592Y0241851D02*
X0145883Y0241851D01*
X0147081Y0240652D02*
X0144445Y0240652D01*
X0144870Y0239453D02*
X0148280Y0239453D01*
X0149478Y0238255D02*
X0144870Y0238255D01*
X0144531Y0237056D02*
X0150677Y0237056D01*
X0151876Y0235858D02*
X0143801Y0235858D01*
X0142093Y0234659D02*
X0153074Y0234659D01*
X0156051Y0237056D02*
X0183977Y0237056D01*
X0182999Y0235858D02*
X0157249Y0235858D01*
X0158448Y0234659D02*
X0182520Y0234659D01*
X0182520Y0233461D02*
X0159647Y0233461D01*
X0160845Y0232262D02*
X0182520Y0232262D01*
X0183204Y0231064D02*
X0162044Y0231064D01*
X0163242Y0229865D02*
X0182520Y0229865D01*
X0182520Y0228667D02*
X0164441Y0228667D01*
X0165639Y0227468D02*
X0182520Y0227468D01*
X0182391Y0215483D02*
X0182624Y0215483D01*
X0182520Y0214285D02*
X0122070Y0214285D01*
X0122070Y0215483D02*
X0131515Y0215483D01*
X0130565Y0216682D02*
X0122070Y0216682D01*
X0122070Y0217880D02*
X0130070Y0217880D01*
X0130070Y0219079D02*
X0122070Y0219079D01*
X0122070Y0220277D02*
X0130341Y0220277D01*
X0130974Y0221476D02*
X0122070Y0221476D01*
X0122070Y0222674D02*
X0132447Y0222674D01*
X0131927Y0225071D02*
X0122070Y0225071D01*
X0122070Y0223873D02*
X0163861Y0223873D01*
X0154852Y0238255D02*
X0182778Y0238255D01*
X0181580Y0239453D02*
X0153654Y0239453D01*
X0152455Y0240652D02*
X0180381Y0240652D01*
X0179183Y0241851D02*
X0151257Y0241851D01*
X0150058Y0243049D02*
X0177984Y0243049D01*
X0189975Y0256233D02*
X0250666Y0256233D01*
X0250666Y0257431D02*
X0189570Y0257431D01*
X0189570Y0258630D02*
X0250666Y0258630D01*
X0250666Y0259828D02*
X0189570Y0259828D01*
X0189570Y0261027D02*
X0250666Y0261027D01*
X0250666Y0262225D02*
X0189570Y0262225D01*
X0193753Y0263424D02*
X0250666Y0263424D01*
X0250666Y0264622D02*
X0194483Y0264622D01*
X0194670Y0265821D02*
X0250666Y0265821D01*
X0250666Y0267019D02*
X0195227Y0267019D01*
X0196425Y0268218D02*
X0250666Y0268218D01*
X0250666Y0269416D02*
X0197624Y0269416D01*
X0198822Y0270615D02*
X0250666Y0270615D01*
X0250666Y0271813D02*
X0200021Y0271813D01*
X0201219Y0273012D02*
X0250666Y0273012D01*
X0250666Y0274210D02*
X0202418Y0274210D01*
X0203616Y0275409D02*
X0250666Y0275409D01*
X0250666Y0276607D02*
X0204815Y0276607D01*
X0206013Y0277806D02*
X0250666Y0277806D01*
X0250666Y0279004D02*
X0207212Y0279004D01*
X0208410Y0280203D02*
X0250666Y0280203D01*
X0250666Y0281401D02*
X0211702Y0281401D01*
X0212420Y0282600D02*
X0250666Y0282600D01*
X0250666Y0283798D02*
X0212420Y0283798D01*
X0212420Y0284997D02*
X0250666Y0284997D01*
X0250666Y0286195D02*
X0211605Y0286195D01*
X0214701Y0287394D02*
X0250666Y0287394D01*
X0250666Y0288592D02*
X0215900Y0288592D01*
X0217098Y0289791D02*
X0250666Y0289791D01*
X0250666Y0290989D02*
X0218297Y0290989D01*
X0219495Y0292188D02*
X0250666Y0292188D01*
X0250666Y0293387D02*
X0220694Y0293387D01*
X0221070Y0294585D02*
X0250666Y0294585D01*
X0250666Y0295784D02*
X0221070Y0295784D01*
X0221070Y0296982D02*
X0250666Y0296982D01*
X0250666Y0298181D02*
X0221070Y0298181D01*
X0221070Y0299379D02*
X0250666Y0299379D01*
X0250666Y0300578D02*
X0221070Y0300578D01*
X0221070Y0301776D02*
X0250666Y0301776D01*
X0250666Y0302975D02*
X0221070Y0302975D01*
X0221070Y0304173D02*
X0250666Y0304173D01*
X0250666Y0305372D02*
X0221070Y0305372D01*
X0221070Y0306570D02*
X0250666Y0306570D01*
X0250666Y0307769D02*
X0221070Y0307769D01*
X0221070Y0308967D02*
X0250666Y0308967D01*
X0250666Y0310166D02*
X0221070Y0310166D01*
X0221070Y0311364D02*
X0250666Y0311364D01*
X0250666Y0312563D02*
X0221070Y0312563D01*
X0221070Y0313761D02*
X0250666Y0313761D01*
X0250666Y0314960D02*
X0221070Y0314960D01*
X0221070Y0316158D02*
X0250666Y0316158D01*
X0250666Y0317357D02*
X0221070Y0317357D01*
X0221070Y0318555D02*
X0250666Y0318555D01*
X0250666Y0319754D02*
X0221070Y0319754D01*
X0221070Y0320952D02*
X0250666Y0320952D01*
X0250666Y0322151D02*
X0221070Y0322151D01*
X0221070Y0323349D02*
X0250666Y0323349D01*
X0215470Y0323349D02*
X0210157Y0323349D01*
X0208958Y0322151D02*
X0215470Y0322151D01*
X0215470Y0320952D02*
X0207760Y0320952D01*
X0206561Y0319754D02*
X0215470Y0319754D01*
X0215470Y0318555D02*
X0205363Y0318555D01*
X0204164Y0317357D02*
X0215470Y0317357D01*
X0215470Y0316158D02*
X0211868Y0316158D01*
X0212620Y0314960D02*
X0215470Y0314960D01*
X0215470Y0313761D02*
X0212620Y0313761D01*
X0212620Y0312563D02*
X0215470Y0312563D01*
X0215470Y0311364D02*
X0211907Y0311364D01*
X0212420Y0310166D02*
X0215470Y0310166D01*
X0215470Y0308967D02*
X0212420Y0308967D01*
X0212420Y0307769D02*
X0215470Y0307769D01*
X0215470Y0306570D02*
X0211870Y0306570D01*
X0212420Y0305372D02*
X0215470Y0305372D01*
X0215470Y0304173D02*
X0212420Y0304173D01*
X0212420Y0302975D02*
X0215470Y0302975D01*
X0215470Y0301776D02*
X0212076Y0301776D01*
X0212223Y0300578D02*
X0215470Y0300578D01*
X0215470Y0299379D02*
X0212420Y0299379D01*
X0212420Y0298181D02*
X0215470Y0298181D01*
X0214416Y0296982D02*
X0212282Y0296982D01*
X0203324Y0295784D02*
X0200591Y0295784D01*
X0201789Y0296982D02*
X0203059Y0296982D01*
X0202920Y0294585D02*
X0199392Y0294585D01*
X0198194Y0293387D02*
X0202920Y0293387D01*
X0202920Y0292188D02*
X0196995Y0292188D01*
X0197261Y0290989D02*
X0203530Y0290989D01*
X0202920Y0289791D02*
X0197370Y0289791D01*
X0197047Y0288592D02*
X0202920Y0288592D01*
X0202920Y0287394D02*
X0196123Y0287394D01*
X0192020Y0284997D02*
X0202920Y0284997D01*
X0202920Y0283798D02*
X0192020Y0283798D01*
X0192020Y0282600D02*
X0202920Y0282600D01*
X0203639Y0281401D02*
X0191302Y0281401D01*
X0189570Y0280203D02*
X0203036Y0280203D01*
X0201838Y0279004D02*
X0189570Y0279004D01*
X0189570Y0277806D02*
X0200639Y0277806D01*
X0199441Y0276607D02*
X0189570Y0276607D01*
X0189570Y0275409D02*
X0198242Y0275409D01*
X0197044Y0274210D02*
X0189570Y0274210D01*
X0189570Y0273012D02*
X0195845Y0273012D01*
X0194647Y0271813D02*
X0189570Y0271813D01*
X0189570Y0270615D02*
X0193448Y0270615D01*
X0192250Y0269416D02*
X0189570Y0269416D01*
X0183239Y0281401D02*
X0181006Y0281401D01*
X0179808Y0282600D02*
X0182520Y0282600D01*
X0182520Y0283798D02*
X0178609Y0283798D01*
X0177411Y0284997D02*
X0182520Y0284997D01*
X0183336Y0286195D02*
X0176212Y0286195D01*
X0175014Y0287394D02*
X0178640Y0287394D01*
X0177441Y0288592D02*
X0173815Y0288592D01*
X0172616Y0289791D02*
X0176242Y0289791D01*
X0175044Y0290989D02*
X0171418Y0290989D01*
X0170219Y0292188D02*
X0173845Y0292188D01*
X0172647Y0293387D02*
X0169021Y0293387D01*
X0167822Y0294585D02*
X0171448Y0294585D01*
X0170250Y0295784D02*
X0166624Y0295784D01*
X0165425Y0296982D02*
X0169051Y0296982D01*
X0167853Y0298181D02*
X0164227Y0298181D01*
X0163028Y0299379D02*
X0166654Y0299379D01*
X0165456Y0300578D02*
X0161830Y0300578D01*
X0160631Y0301776D02*
X0164257Y0301776D01*
X0163059Y0302975D02*
X0159433Y0302975D01*
X0158234Y0304173D02*
X0161860Y0304173D01*
X0160662Y0305372D02*
X0157036Y0305372D01*
X0155837Y0306570D02*
X0159463Y0306570D01*
X0158265Y0307769D02*
X0155070Y0307769D01*
X0154971Y0308967D02*
X0157066Y0308967D01*
X0160043Y0311364D02*
X0176598Y0311364D01*
X0177796Y0312563D02*
X0158845Y0312563D01*
X0161242Y0310166D02*
X0175399Y0310166D01*
X0174201Y0308967D02*
X0162440Y0308967D01*
X0163639Y0307769D02*
X0173002Y0307769D01*
X0171804Y0306570D02*
X0164837Y0306570D01*
X0166036Y0305372D02*
X0171370Y0305372D01*
X0171370Y0304173D02*
X0167234Y0304173D01*
X0168433Y0302975D02*
X0170587Y0302975D01*
X0169974Y0301776D02*
X0169631Y0301776D01*
X0175170Y0304173D02*
X0182520Y0304173D01*
X0182520Y0302975D02*
X0175954Y0302975D01*
X0176567Y0301776D02*
X0182864Y0301776D01*
X0180211Y0300578D02*
X0176670Y0300578D01*
X0176341Y0299379D02*
X0179013Y0299379D01*
X0178570Y0298181D02*
X0175409Y0298181D01*
X0174425Y0296982D02*
X0178570Y0296982D01*
X0177796Y0295784D02*
X0175624Y0295784D01*
X0176822Y0294585D02*
X0177178Y0294585D01*
X0169640Y0287394D02*
X0144671Y0287394D01*
X0144870Y0287875D02*
X0144870Y0289625D01*
X0144201Y0291242D01*
X0142963Y0292480D01*
X0141346Y0293150D01*
X0133595Y0293150D01*
X0131978Y0292480D01*
X0130740Y0291242D01*
X0130070Y0289625D01*
X0130070Y0287875D01*
X0130740Y0286258D01*
X0131978Y0285020D01*
X0133595Y0284350D01*
X0141346Y0284350D01*
X0142963Y0285020D01*
X0144201Y0286258D01*
X0144870Y0287875D01*
X0144870Y0288592D02*
X0168441Y0288592D01*
X0167242Y0289791D02*
X0144802Y0289791D01*
X0144305Y0290989D02*
X0166044Y0290989D01*
X0164845Y0292188D02*
X0143255Y0292188D01*
X0141913Y0294585D02*
X0162448Y0294585D01*
X0161250Y0295784D02*
X0143727Y0295784D01*
X0144201Y0296258D02*
X0144870Y0297875D01*
X0144870Y0299625D01*
X0144201Y0301242D01*
X0142963Y0302480D01*
X0141346Y0303150D01*
X0133595Y0303150D01*
X0131978Y0302480D01*
X0130740Y0301242D01*
X0130070Y0299625D01*
X0130070Y0297875D01*
X0130740Y0296258D01*
X0131978Y0295020D01*
X0133595Y0294350D01*
X0141346Y0294350D01*
X0142963Y0295020D01*
X0144201Y0296258D01*
X0144501Y0296982D02*
X0160051Y0296982D01*
X0158853Y0298181D02*
X0144870Y0298181D01*
X0144870Y0299379D02*
X0157654Y0299379D01*
X0156456Y0300578D02*
X0144476Y0300578D01*
X0143667Y0301776D02*
X0155257Y0301776D01*
X0154059Y0302975D02*
X0141769Y0302975D01*
X0143315Y0305372D02*
X0149541Y0305372D01*
X0148603Y0306570D02*
X0144330Y0306570D01*
X0144826Y0307769D02*
X0148270Y0307769D01*
X0148370Y0308967D02*
X0145375Y0308967D01*
X0143596Y0312563D02*
X0142764Y0312563D01*
X0141346Y0314350D02*
X0142963Y0315020D01*
X0144201Y0316258D01*
X0144870Y0317875D01*
X0144870Y0319625D01*
X0144201Y0321242D01*
X0142963Y0322480D01*
X0141346Y0323150D01*
X0133595Y0323150D01*
X0131978Y0322480D01*
X0130740Y0321242D01*
X0130070Y0319625D01*
X0130070Y0317875D01*
X0130740Y0316258D01*
X0131978Y0315020D01*
X0133595Y0314350D01*
X0141346Y0314350D01*
X0142818Y0314960D02*
X0180193Y0314960D01*
X0178995Y0313761D02*
X0129270Y0313761D01*
X0129270Y0312563D02*
X0132177Y0312563D01*
X0130862Y0311364D02*
X0129270Y0311364D01*
X0129270Y0310166D02*
X0130294Y0310166D01*
X0130070Y0308967D02*
X0129270Y0308967D01*
X0129270Y0307769D02*
X0130114Y0307769D01*
X0130611Y0306570D02*
X0129270Y0306570D01*
X0129270Y0305372D02*
X0131626Y0305372D01*
X0129270Y0304173D02*
X0152860Y0304173D01*
X0144101Y0316158D02*
X0183299Y0316158D01*
X0183276Y0311364D02*
X0181972Y0311364D01*
X0182520Y0310166D02*
X0180773Y0310166D01*
X0179575Y0308967D02*
X0182520Y0308967D01*
X0182520Y0307769D02*
X0178376Y0307769D01*
X0177178Y0306570D02*
X0183070Y0306570D01*
X0182520Y0305372D02*
X0175979Y0305372D01*
X0191265Y0311364D02*
X0192798Y0311364D01*
X0192020Y0312563D02*
X0193996Y0312563D01*
X0195195Y0313761D02*
X0192020Y0313761D01*
X0192020Y0314960D02*
X0196393Y0314960D01*
X0197592Y0316158D02*
X0191242Y0316158D01*
X0198790Y0317357D02*
X0144656Y0317357D01*
X0144870Y0318555D02*
X0199989Y0318555D01*
X0201187Y0319754D02*
X0144817Y0319754D01*
X0144321Y0320952D02*
X0202386Y0320952D01*
X0203584Y0322151D02*
X0143292Y0322151D01*
X0132757Y0323349D02*
X0204783Y0323349D01*
X0211355Y0324548D02*
X0215470Y0324548D01*
X0215470Y0325746D02*
X0212554Y0325746D01*
X0213752Y0326945D02*
X0215470Y0326945D01*
X0215470Y0328143D02*
X0214951Y0328143D01*
X0207670Y0316400D02*
X0204110Y0316400D01*
X0203703Y0316291D01*
X0203338Y0316080D01*
X0203040Y0315782D01*
X0202830Y0315418D01*
X0202720Y0315011D01*
X0202720Y0313750D01*
X0207670Y0313750D01*
X0207670Y0313750D01*
X0207670Y0316400D01*
X0207670Y0316158D02*
X0207671Y0316158D01*
X0207670Y0314960D02*
X0207671Y0314960D01*
X0207670Y0313761D02*
X0207671Y0313761D01*
X0203473Y0316158D02*
X0202966Y0316158D01*
X0202720Y0314960D02*
X0201767Y0314960D01*
X0202720Y0313761D02*
X0200569Y0313761D01*
X0199370Y0312563D02*
X0202720Y0312563D01*
X0203434Y0311364D02*
X0198172Y0311364D01*
X0196973Y0310166D02*
X0202920Y0310166D01*
X0202920Y0308967D02*
X0195775Y0308967D01*
X0196360Y0307769D02*
X0202920Y0307769D01*
X0203470Y0306570D02*
X0197145Y0306570D01*
X0197370Y0305372D02*
X0202105Y0305372D01*
X0200907Y0304173D02*
X0197163Y0304173D01*
X0196403Y0302975D02*
X0199708Y0302975D01*
X0198510Y0301776D02*
X0192184Y0301776D01*
X0191823Y0300578D02*
X0197311Y0300578D01*
X0196113Y0299379D02*
X0192020Y0299379D01*
X0192020Y0298181D02*
X0194914Y0298181D01*
X0193716Y0296982D02*
X0191882Y0296982D01*
X0191617Y0295784D02*
X0192517Y0295784D01*
X0191205Y0286195D02*
X0203736Y0286195D01*
X0172037Y0284997D02*
X0142907Y0284997D01*
X0144138Y0286195D02*
X0170838Y0286195D01*
X0163647Y0293387D02*
X0129270Y0293387D01*
X0129270Y0294585D02*
X0133028Y0294585D01*
X0131214Y0295784D02*
X0129270Y0295784D01*
X0129270Y0296982D02*
X0130440Y0296982D01*
X0130070Y0298181D02*
X0129270Y0298181D01*
X0129270Y0299379D02*
X0130070Y0299379D01*
X0130465Y0300578D02*
X0129270Y0300578D01*
X0129270Y0301776D02*
X0131274Y0301776D01*
X0133172Y0302975D02*
X0129270Y0302975D01*
X0129270Y0292188D02*
X0131686Y0292188D01*
X0130636Y0290989D02*
X0129270Y0290989D01*
X0129270Y0289791D02*
X0130139Y0289791D01*
X0130070Y0288592D02*
X0129270Y0288592D01*
X0129270Y0287394D02*
X0130270Y0287394D01*
X0130802Y0286195D02*
X0129270Y0286195D01*
X0129270Y0284997D02*
X0132033Y0284997D01*
X0132123Y0314960D02*
X0129270Y0314960D01*
X0129270Y0316158D02*
X0130840Y0316158D01*
X0130285Y0317357D02*
X0129270Y0317357D01*
X0129270Y0318555D02*
X0130070Y0318555D01*
X0130124Y0319754D02*
X0129270Y0319754D01*
X0130360Y0320952D02*
X0130620Y0320952D01*
X0131558Y0322151D02*
X0131649Y0322151D01*
X0122070Y0329342D02*
X0154975Y0329342D01*
X0156174Y0330540D02*
X0122070Y0330540D01*
X0122070Y0331739D02*
X0157372Y0331739D01*
X0158571Y0332937D02*
X0122070Y0332937D01*
X0122070Y0334136D02*
X0159769Y0334136D01*
X0160968Y0335334D02*
X0122070Y0335334D01*
X0122070Y0336533D02*
X0162166Y0336533D01*
X0163365Y0337731D02*
X0122070Y0337731D01*
X0122070Y0338930D02*
X0164563Y0338930D01*
X0165762Y0340128D02*
X0122070Y0340128D01*
X0122070Y0341327D02*
X0166960Y0341327D01*
X0168159Y0342525D02*
X0122070Y0342525D01*
X0122070Y0343724D02*
X0169357Y0343724D01*
X0170556Y0344922D02*
X0122070Y0344922D01*
X0122070Y0346121D02*
X0171754Y0346121D01*
X0172953Y0347320D02*
X0122070Y0347320D01*
X0122070Y0348518D02*
X0174152Y0348518D01*
X0175350Y0349717D02*
X0122070Y0349717D01*
X0122070Y0350915D02*
X0176549Y0350915D01*
X0177747Y0352114D02*
X0122070Y0352114D01*
X0122070Y0353312D02*
X0178946Y0353312D01*
X0180144Y0354511D02*
X0122070Y0354511D01*
X0122070Y0355709D02*
X0181343Y0355709D01*
X0182541Y0356908D02*
X0122070Y0356908D01*
X0122070Y0358106D02*
X0183740Y0358106D01*
X0184938Y0359305D02*
X0122070Y0359305D01*
X0122070Y0360503D02*
X0186137Y0360503D01*
X0187335Y0361702D02*
X0122070Y0361702D01*
X0122070Y0362900D02*
X0188534Y0362900D01*
X0189732Y0364099D02*
X0122070Y0364099D01*
X0122070Y0365297D02*
X0190931Y0365297D01*
X0191516Y0366681D02*
X0191923Y0366791D01*
X0192288Y0367001D01*
X0192585Y0367299D01*
X0192796Y0367664D01*
X0192905Y0368071D01*
X0192905Y0370866D01*
X0188721Y0370866D01*
X0188721Y0371634D01*
X0192905Y0371634D01*
X0192905Y0374429D01*
X0192796Y0374836D01*
X0192585Y0375201D01*
X0192288Y0375499D01*
X0191923Y0375709D01*
X0191516Y0375818D01*
X0188721Y0375818D01*
X0188721Y0371634D01*
X0187952Y0371634D01*
X0187952Y0370866D01*
X0183768Y0370866D01*
X0183768Y0368071D01*
X0183877Y0367664D01*
X0184088Y0367299D01*
X0184386Y0367001D01*
X0184751Y0366791D01*
X0185157Y0366681D01*
X0187952Y0366681D01*
X0187952Y0370866D01*
X0188721Y0370866D01*
X0188721Y0366681D01*
X0191516Y0366681D01*
X0192129Y0366496D02*
X0122070Y0366496D01*
X0122070Y0367694D02*
X0155714Y0367694D01*
X0155862Y0367547D02*
X0157468Y0366881D01*
X0159206Y0366881D01*
X0160811Y0367547D01*
X0162040Y0368775D01*
X0162705Y0370381D01*
X0162705Y0372119D01*
X0162040Y0373725D01*
X0160811Y0374953D01*
X0159206Y0375618D01*
X0157468Y0375618D01*
X0155862Y0374953D01*
X0154633Y0373725D01*
X0153968Y0372119D01*
X0153968Y0370381D01*
X0154633Y0368775D01*
X0155862Y0367547D01*
X0154585Y0368893D02*
X0122070Y0368893D01*
X0122070Y0370091D02*
X0154088Y0370091D01*
X0153968Y0371290D02*
X0122070Y0371290D01*
X0122070Y0372488D02*
X0154121Y0372488D01*
X0154618Y0373687D02*
X0122070Y0373687D01*
X0122070Y0374885D02*
X0155794Y0374885D01*
X0160879Y0374885D02*
X0165794Y0374885D01*
X0165862Y0374953D02*
X0164633Y0373725D01*
X0163968Y0372119D01*
X0163968Y0370381D01*
X0164633Y0368775D01*
X0165862Y0367547D01*
X0167468Y0366881D01*
X0169206Y0366881D01*
X0170811Y0367547D01*
X0172040Y0368775D01*
X0172705Y0370381D01*
X0172705Y0372119D01*
X0172040Y0373725D01*
X0170811Y0374953D01*
X0169206Y0375618D01*
X0167468Y0375618D01*
X0165862Y0374953D01*
X0164618Y0373687D02*
X0162056Y0373687D01*
X0162552Y0372488D02*
X0164121Y0372488D01*
X0163968Y0371290D02*
X0162705Y0371290D01*
X0162585Y0370091D02*
X0164088Y0370091D01*
X0164585Y0368893D02*
X0162089Y0368893D01*
X0160959Y0367694D02*
X0165714Y0367694D01*
X0170959Y0367694D02*
X0175714Y0367694D01*
X0174585Y0368893D02*
X0172089Y0368893D01*
X0172585Y0370091D02*
X0174088Y0370091D01*
X0173968Y0371290D02*
X0172705Y0371290D01*
X0172552Y0372488D02*
X0174121Y0372488D01*
X0174618Y0373687D02*
X0172056Y0373687D01*
X0170879Y0374885D02*
X0175794Y0374885D01*
X0178317Y0376084D02*
X0122070Y0376084D01*
X0122070Y0377282D02*
X0179470Y0377282D01*
X0179814Y0378481D02*
X0122070Y0378481D01*
X0122070Y0379679D02*
X0181013Y0379679D01*
X0182211Y0380878D02*
X0122070Y0380878D01*
X0122070Y0382076D02*
X0183410Y0382076D01*
X0184608Y0383275D02*
X0122070Y0383275D01*
X0122070Y0384473D02*
X0185807Y0384473D01*
X0187005Y0385672D02*
X0122070Y0385672D01*
X0122070Y0386870D02*
X0188204Y0386870D01*
X0189402Y0388069D02*
X0122070Y0388069D01*
X0122070Y0389267D02*
X0190601Y0389267D01*
X0191799Y0390466D02*
X0122070Y0390466D01*
X0122070Y0391664D02*
X0192998Y0391664D01*
X0194196Y0392863D02*
X0122070Y0392863D01*
X0122070Y0394061D02*
X0195395Y0394061D01*
X0196593Y0395260D02*
X0122070Y0395260D01*
X0122070Y0396458D02*
X0197792Y0396458D01*
X0198990Y0397657D02*
X0122070Y0397657D01*
X0122070Y0398855D02*
X0200189Y0398855D01*
X0201387Y0400054D02*
X0122070Y0400054D01*
X0122070Y0401253D02*
X0202586Y0401253D01*
X0203785Y0402451D02*
X0122070Y0402451D01*
X0122070Y0403650D02*
X0204983Y0403650D01*
X0206182Y0404848D02*
X0122070Y0404848D01*
X0122070Y0406047D02*
X0207380Y0406047D01*
X0208579Y0407245D02*
X0122070Y0407245D01*
X0122070Y0408444D02*
X0209777Y0408444D01*
X0210976Y0409642D02*
X0122070Y0409642D01*
X0182493Y0374885D02*
X0183906Y0374885D01*
X0183877Y0374836D02*
X0183768Y0374429D01*
X0183768Y0371634D01*
X0187952Y0371634D01*
X0187952Y0375818D01*
X0185157Y0375818D01*
X0184751Y0375709D01*
X0184386Y0375499D01*
X0184088Y0375201D01*
X0183877Y0374836D01*
X0183768Y0373687D02*
X0182056Y0373687D01*
X0182552Y0372488D02*
X0183768Y0372488D01*
X0182705Y0371290D02*
X0187952Y0371290D01*
X0188721Y0371290D02*
X0193870Y0371290D01*
X0193870Y0372488D02*
X0192905Y0372488D01*
X0192905Y0373687D02*
X0193870Y0373687D01*
X0193870Y0374885D02*
X0192768Y0374885D01*
X0193870Y0376084D02*
X0183270Y0376084D01*
X0183990Y0377282D02*
X0193870Y0377282D01*
X0193870Y0378481D02*
X0185188Y0378481D01*
X0186387Y0379679D02*
X0193870Y0379679D01*
X0193870Y0380878D02*
X0187585Y0380878D01*
X0188784Y0382076D02*
X0194210Y0382076D01*
X0195408Y0383275D02*
X0189982Y0383275D01*
X0191181Y0384473D02*
X0196607Y0384473D01*
X0197805Y0385672D02*
X0192379Y0385672D01*
X0193578Y0386870D02*
X0199004Y0386870D01*
X0200202Y0388069D02*
X0194776Y0388069D01*
X0195975Y0389267D02*
X0201401Y0389267D01*
X0202599Y0390466D02*
X0197173Y0390466D01*
X0198372Y0391664D02*
X0203798Y0391664D01*
X0204996Y0392863D02*
X0199570Y0392863D01*
X0200769Y0394061D02*
X0206195Y0394061D01*
X0207393Y0395260D02*
X0201967Y0395260D01*
X0203166Y0396458D02*
X0208592Y0396458D01*
X0209790Y0397657D02*
X0204364Y0397657D01*
X0205563Y0398855D02*
X0210989Y0398855D01*
X0212187Y0400054D02*
X0206761Y0400054D01*
X0207960Y0401253D02*
X0213386Y0401253D01*
X0214585Y0402451D02*
X0209158Y0402451D01*
X0210357Y0403650D02*
X0215783Y0403650D01*
X0216982Y0404848D02*
X0211556Y0404848D01*
X0212754Y0406047D02*
X0218180Y0406047D01*
X0219379Y0407245D02*
X0213953Y0407245D01*
X0215151Y0408444D02*
X0220577Y0408444D01*
X0221776Y0409642D02*
X0216350Y0409642D01*
X0217548Y0410841D02*
X0222974Y0410841D01*
X0224173Y0412039D02*
X0218747Y0412039D01*
X0219945Y0413238D02*
X0225371Y0413238D01*
X0226570Y0414436D02*
X0221144Y0414436D01*
X0222342Y0415635D02*
X0227270Y0415635D01*
X0227270Y0416833D02*
X0223541Y0416833D01*
X0224739Y0418032D02*
X0227580Y0418032D01*
X0228097Y0419230D02*
X0225938Y0419230D01*
X0227136Y0420429D02*
X0229295Y0420429D01*
X0230043Y0421627D02*
X0228335Y0421627D01*
X0228348Y0410841D02*
X0229602Y0410841D01*
X0228260Y0409642D02*
X0227150Y0409642D01*
X0227528Y0408444D02*
X0225951Y0408444D01*
X0224753Y0407245D02*
X0227161Y0407245D01*
X0227248Y0404848D02*
X0222356Y0404848D01*
X0223554Y0406047D02*
X0232086Y0406047D01*
X0232855Y0406047D02*
X0250666Y0406047D01*
X0230384Y0401253D02*
X0218760Y0401253D01*
X0219958Y0402451D02*
X0228633Y0402451D01*
X0227735Y0403650D02*
X0221157Y0403650D01*
X0217561Y0400054D02*
X0228921Y0400054D01*
X0227921Y0398855D02*
X0216363Y0398855D01*
X0215164Y0397657D02*
X0227425Y0397657D01*
X0227270Y0396458D02*
X0213966Y0396458D01*
X0212767Y0395260D02*
X0227270Y0395260D01*
X0227749Y0394061D02*
X0211569Y0394061D01*
X0210370Y0392863D02*
X0228504Y0392863D01*
X0229953Y0391664D02*
X0209172Y0391664D01*
X0207973Y0390466D02*
X0229332Y0390466D01*
X0228134Y0389267D02*
X0206775Y0389267D01*
X0205576Y0388069D02*
X0227595Y0388069D01*
X0227270Y0386870D02*
X0204378Y0386870D01*
X0203179Y0385672D02*
X0227270Y0385672D01*
X0227578Y0384473D02*
X0201981Y0384473D01*
X0200782Y0383275D02*
X0228092Y0383275D01*
X0229290Y0382076D02*
X0199584Y0382076D01*
X0198385Y0380878D02*
X0230055Y0380878D01*
X0228546Y0379679D02*
X0197670Y0379679D01*
X0197670Y0378481D02*
X0227766Y0378481D01*
X0227270Y0377282D02*
X0197670Y0377282D01*
X0197670Y0376084D02*
X0227270Y0376084D01*
X0226619Y0374885D02*
X0197670Y0374885D01*
X0197670Y0373687D02*
X0225420Y0373687D01*
X0224222Y0372488D02*
X0197670Y0372488D01*
X0197670Y0371290D02*
X0223023Y0371290D01*
X0221825Y0370091D02*
X0197670Y0370091D01*
X0197670Y0368893D02*
X0220626Y0368893D01*
X0219428Y0367694D02*
X0197670Y0367694D01*
X0197503Y0366496D02*
X0218229Y0366496D01*
X0217031Y0365297D02*
X0196305Y0365297D01*
X0195106Y0364099D02*
X0215832Y0364099D01*
X0214634Y0362900D02*
X0193908Y0362900D01*
X0192709Y0361702D02*
X0213670Y0361702D01*
X0213670Y0360503D02*
X0191511Y0360503D01*
X0190312Y0359305D02*
X0213670Y0359305D01*
X0213670Y0358106D02*
X0189114Y0358106D01*
X0187915Y0356908D02*
X0213670Y0356908D01*
X0213670Y0355709D02*
X0186717Y0355709D01*
X0185518Y0354511D02*
X0213670Y0354511D01*
X0213670Y0353312D02*
X0184320Y0353312D01*
X0183121Y0352114D02*
X0213670Y0352114D01*
X0213670Y0350915D02*
X0181923Y0350915D01*
X0180724Y0349717D02*
X0213670Y0349717D01*
X0213670Y0348518D02*
X0179525Y0348518D01*
X0178327Y0347320D02*
X0213670Y0347320D01*
X0193328Y0367694D02*
X0192804Y0367694D01*
X0192905Y0368893D02*
X0193870Y0368893D01*
X0193870Y0370091D02*
X0192905Y0370091D01*
X0188721Y0370091D02*
X0187952Y0370091D01*
X0187952Y0368893D02*
X0188721Y0368893D01*
X0188721Y0367694D02*
X0187952Y0367694D01*
X0183869Y0367694D02*
X0180959Y0367694D01*
X0182089Y0368893D02*
X0183768Y0368893D01*
X0183768Y0370091D02*
X0182585Y0370091D01*
X0187952Y0372488D02*
X0188721Y0372488D01*
X0188721Y0373687D02*
X0187952Y0373687D01*
X0187952Y0374885D02*
X0188721Y0374885D01*
X0191173Y0255034D02*
X0250666Y0255034D01*
X0250666Y0253836D02*
X0192372Y0253836D01*
X0193570Y0252637D02*
X0250666Y0252637D01*
X0250666Y0251439D02*
X0194769Y0251439D01*
X0195967Y0250240D02*
X0250666Y0250240D01*
X0250666Y0249042D02*
X0197166Y0249042D01*
X0198364Y0247843D02*
X0250666Y0247843D01*
X0250666Y0246645D02*
X0199563Y0246645D01*
X0200761Y0245446D02*
X0250666Y0245446D01*
X0250666Y0244248D02*
X0201960Y0244248D01*
X0203158Y0243049D02*
X0250666Y0243049D01*
X0250666Y0241851D02*
X0204357Y0241851D01*
X0205555Y0240652D02*
X0250666Y0240652D01*
X0250666Y0239453D02*
X0206754Y0239453D01*
X0207952Y0238255D02*
X0250666Y0238255D01*
X0250666Y0237056D02*
X0209151Y0237056D01*
X0182520Y0213086D02*
X0180921Y0213086D01*
X0182120Y0211888D02*
X0182753Y0211888D01*
X0182371Y0202300D02*
X0143411Y0202300D01*
X0130735Y0226270D02*
X0122070Y0226270D01*
X0122070Y0227468D02*
X0130239Y0227468D01*
X0130070Y0228667D02*
X0122070Y0228667D01*
X0122070Y0229865D02*
X0130170Y0229865D01*
X0130666Y0231064D02*
X0122070Y0231064D01*
X0122070Y0232262D02*
X0131760Y0232262D01*
X0132958Y0243049D02*
X0133352Y0243049D01*
X0259866Y0138779D02*
X0272866Y0138779D01*
X0273787Y0137580D02*
X0259866Y0137580D01*
X0259866Y0136382D02*
X0275636Y0136382D01*
X0274050Y0135183D02*
X0259866Y0135183D01*
X0259866Y0133984D02*
X0272975Y0133984D01*
X0272478Y0132786D02*
X0259866Y0132786D01*
X0259866Y0131587D02*
X0272270Y0131587D01*
X0272270Y0130389D02*
X0259866Y0130389D01*
X0259866Y0129190D02*
X0272695Y0129190D01*
X0273375Y0127992D02*
X0259866Y0127992D01*
X0259866Y0126793D02*
X0274641Y0126793D01*
X0274461Y0125595D02*
X0259866Y0125595D01*
X0259866Y0124396D02*
X0273263Y0124396D01*
X0272649Y0123198D02*
X0259866Y0123198D01*
X0259866Y0121999D02*
X0272270Y0121999D01*
X0272270Y0120801D02*
X0259866Y0120801D01*
X0259866Y0119602D02*
X0272524Y0119602D01*
X0273021Y0118404D02*
X0259866Y0118404D01*
X0259866Y0117205D02*
X0274161Y0117205D01*
X0274912Y0116007D02*
X0259866Y0116007D01*
X0259866Y0114808D02*
X0273392Y0114808D01*
X0272612Y0113610D02*
X0259866Y0113610D01*
X0259866Y0112411D02*
X0272187Y0112411D01*
X0250666Y0086044D02*
X0136493Y0086044D01*
X0381493Y0086044D02*
X0388461Y0086044D01*
X0388461Y0087243D02*
X0383668Y0087243D01*
X0385075Y0088441D02*
X0388461Y0088441D01*
X0388461Y0089640D02*
X0386239Y0089640D01*
X0386931Y0090838D02*
X0388461Y0090838D01*
X0388461Y0092037D02*
X0387623Y0092037D01*
X0387946Y0093235D02*
X0388461Y0093235D01*
X0388461Y0094434D02*
X0388267Y0094434D01*
X0388370Y0095632D02*
X0388461Y0095632D01*
X0388461Y0096831D02*
X0388370Y0096831D01*
X0388277Y0098029D02*
X0388461Y0098029D01*
X0388461Y0099228D02*
X0387956Y0099228D01*
X0387635Y0100426D02*
X0388461Y0100426D01*
X0388461Y0101625D02*
X0386953Y0101625D01*
X0386261Y0102823D02*
X0388461Y0102823D01*
X0388461Y0104022D02*
X0385113Y0104022D01*
X0383732Y0105220D02*
X0388461Y0105220D01*
X0388461Y0106419D02*
X0381631Y0106419D01*
X0378370Y0222674D02*
X0377494Y0222674D01*
X0377674Y0282600D02*
X0378370Y0282600D01*
D16*
X0357470Y0296250D03*
X0347470Y0306250D03*
X0312470Y0346250D03*
X0302470Y0381250D03*
X0277470Y0301250D03*
X0282470Y0201250D03*
X0292470Y0146250D03*
D17*
X0300170Y0141550D02*
X0300220Y0141500D01*
X0300170Y0141550D02*
X0277670Y0141550D01*
X0277470Y0141250D01*
X0277470Y0151250D02*
X0284870Y0158650D01*
X0290270Y0158650D01*
X0289970Y0158750D01*
X0277470Y0161250D02*
X0276770Y0161350D01*
X0265970Y0172150D01*
X0265970Y0193750D01*
X0300170Y0227950D01*
X0301970Y0227950D01*
X0302270Y0228750D01*
X0302270Y0223750D02*
X0301970Y0223450D01*
X0300170Y0223450D01*
X0290270Y0213550D01*
X0289970Y0213550D01*
X0283070Y0201850D02*
X0282470Y0201250D01*
X0302270Y0208750D02*
X0302870Y0209050D01*
X0302870Y0213550D01*
X0302270Y0213750D01*
X0302870Y0214450D01*
X0311870Y0214450D01*
X0322670Y0225250D01*
X0322670Y0223750D01*
X0322670Y0223450D01*
X0331670Y0223450D01*
X0346070Y0209050D01*
X0372170Y0209050D01*
X0372470Y0208750D01*
X0376670Y0203650D02*
X0380270Y0207250D01*
X0380270Y0241450D01*
X0373070Y0248650D01*
X0372470Y0248750D01*
X0367670Y0254050D02*
X0377570Y0254050D01*
X0382070Y0258550D01*
X0382070Y0318850D01*
X0334370Y0366550D01*
X0327170Y0366550D01*
X0277470Y0416250D01*
X0276770Y0425950D02*
X0277470Y0426250D01*
X0276770Y0425950D02*
X0264170Y0413350D01*
X0264170Y0301750D01*
X0301070Y0264850D01*
X0304670Y0264850D01*
X0306470Y0266650D01*
X0306470Y0273850D01*
X0320870Y0288250D01*
X0322670Y0288250D01*
X0322670Y0288750D01*
X0322670Y0293650D02*
X0322670Y0293750D01*
X0322670Y0293650D02*
X0328070Y0293650D01*
X0367670Y0254050D01*
X0372470Y0258750D02*
X0373070Y0259450D01*
X0380270Y0266650D01*
X0380270Y0310750D01*
X0377570Y0313450D01*
X0368570Y0313450D01*
X0365870Y0316150D01*
X0318170Y0316150D01*
X0317270Y0315250D01*
X0317270Y0311650D01*
X0304670Y0299050D01*
X0302870Y0299050D01*
X0302270Y0298750D01*
X0302870Y0294550D02*
X0302270Y0293750D01*
X0302870Y0293650D01*
X0302870Y0289150D01*
X0302270Y0288750D01*
X0302270Y0283750D02*
X0302870Y0283750D01*
X0302870Y0268450D01*
X0302870Y0260350D02*
X0322670Y0280150D01*
X0364070Y0238750D01*
X0372470Y0238750D01*
X0372470Y0268750D02*
X0372170Y0269350D01*
X0343370Y0298150D01*
X0322670Y0298150D01*
X0322670Y0298750D01*
X0322670Y0303750D02*
X0322670Y0305350D01*
X0311870Y0294550D01*
X0302870Y0294550D01*
X0302270Y0303750D02*
X0301970Y0304450D01*
X0293870Y0304450D01*
X0265970Y0332350D01*
X0265970Y0385450D01*
X0276770Y0396250D01*
X0277470Y0396250D01*
X0277670Y0406150D02*
X0277470Y0406250D01*
X0292470Y0391250D02*
X0292470Y0311250D01*
X0294770Y0308950D01*
X0301970Y0308950D01*
X0302270Y0308750D01*
X0302870Y0313450D02*
X0302270Y0313750D01*
X0302870Y0313450D02*
X0313670Y0313450D01*
X0322670Y0308950D02*
X0322670Y0308750D01*
X0322670Y0305350D01*
X0322670Y0308950D02*
X0329770Y0308950D01*
X0337470Y0301250D01*
X0362470Y0301250D01*
X0372170Y0308950D01*
X0372470Y0308750D01*
X0322670Y0283750D02*
X0322670Y0280150D01*
X0302870Y0260350D02*
X0302870Y0234250D01*
X0302270Y0233750D01*
X0309170Y0234250D02*
X0322670Y0234250D01*
X0322670Y0233750D01*
X0322670Y0228750D02*
X0322670Y0225250D01*
X0322670Y0218950D02*
X0322670Y0218750D01*
X0322670Y0218950D02*
X0330770Y0218950D01*
X0322670Y0203750D02*
X0322670Y0203650D01*
X0376670Y0203650D01*
X0372470Y0198750D02*
X0372170Y0198250D01*
X0372170Y0186550D01*
X0332570Y0146950D01*
X0332470Y0146250D01*
X0331670Y0146050D01*
X0277670Y0092050D01*
X0277470Y0091250D01*
X0225470Y0158650D02*
X0214670Y0158650D01*
X0214670Y0233350D01*
X0213770Y0234250D01*
X0209270Y0234250D01*
X0207670Y0233750D01*
X0208370Y0233350D01*
X0209270Y0234250D01*
X0187670Y0255850D01*
X0187670Y0279250D01*
X0180470Y0279250D01*
X0151670Y0308050D01*
X0157070Y0311650D02*
X0145370Y0311650D01*
X0142670Y0308950D01*
X0138170Y0308950D01*
X0137470Y0308750D01*
X0127370Y0320650D02*
X0127370Y0245950D01*
X0134570Y0238750D01*
X0137470Y0238750D01*
X0138170Y0248650D02*
X0137470Y0248750D01*
X0138170Y0248650D02*
X0141770Y0248650D01*
X0147170Y0243250D01*
X0159770Y0255850D01*
X0152570Y0256750D02*
X0140870Y0268450D01*
X0138170Y0268450D01*
X0137470Y0268750D01*
X0138170Y0278350D02*
X0137470Y0278750D01*
X0138170Y0278350D02*
X0143570Y0278350D01*
X0146270Y0275650D01*
X0148070Y0275650D01*
X0174170Y0249550D01*
X0175070Y0249550D01*
X0174170Y0249550D02*
X0186770Y0236950D01*
X0186770Y0234250D01*
X0187270Y0233750D01*
X0187670Y0228850D02*
X0187270Y0228750D01*
X0187670Y0228850D02*
X0200270Y0228850D01*
X0202070Y0224350D02*
X0202970Y0223450D01*
X0207470Y0223450D01*
X0207670Y0223750D01*
X0207470Y0224350D01*
X0207470Y0227950D01*
X0207670Y0228750D01*
X0202070Y0224350D02*
X0191270Y0213550D01*
X0188570Y0213550D01*
X0187270Y0213750D01*
X0187670Y0214450D01*
X0188570Y0213550D01*
X0187670Y0212650D01*
X0187670Y0209050D01*
X0187270Y0208750D01*
X0186770Y0209050D01*
X0182270Y0209050D01*
X0179570Y0211750D01*
X0145370Y0211750D01*
X0142670Y0209050D01*
X0138170Y0209050D01*
X0137470Y0208750D01*
X0147170Y0243250D02*
X0173270Y0217150D01*
X0181370Y0217150D01*
X0183170Y0218950D01*
X0186770Y0218950D01*
X0187270Y0218750D01*
X0187670Y0223450D02*
X0187270Y0223750D01*
X0187670Y0223450D02*
X0193070Y0223450D01*
X0193970Y0222550D01*
X0202070Y0219850D02*
X0193970Y0211750D01*
X0193970Y0209950D01*
X0197570Y0209950D02*
X0197570Y0162250D01*
X0201170Y0171250D02*
X0212870Y0182950D01*
X0212870Y0205450D01*
X0209270Y0209050D01*
X0208370Y0209050D01*
X0207670Y0208750D01*
X0207470Y0213550D02*
X0202970Y0213550D01*
X0202070Y0214450D01*
X0197570Y0209950D01*
X0201170Y0205450D02*
X0202970Y0203650D01*
X0207470Y0203650D01*
X0207670Y0203750D01*
X0207470Y0213550D02*
X0207670Y0213750D01*
X0207670Y0218750D02*
X0207470Y0218950D01*
X0202970Y0218950D01*
X0202070Y0219850D01*
X0191270Y0265750D02*
X0207470Y0281950D01*
X0207470Y0283750D01*
X0207670Y0283750D01*
X0207670Y0288750D02*
X0208370Y0289150D01*
X0213770Y0289150D01*
X0219170Y0294550D01*
X0219170Y0341350D01*
X0231770Y0353950D01*
X0231770Y0355750D01*
X0232470Y0356250D01*
X0229070Y0363850D02*
X0231770Y0366550D01*
X0232470Y0366250D01*
X0229070Y0363850D02*
X0228170Y0363850D01*
X0217370Y0353050D01*
X0217370Y0297250D01*
X0213770Y0293650D01*
X0212870Y0294550D01*
X0211970Y0293650D01*
X0208370Y0293650D01*
X0207670Y0293750D01*
X0207670Y0298750D02*
X0207470Y0299050D01*
X0201170Y0299050D01*
X0193970Y0291850D01*
X0193970Y0290050D01*
X0193070Y0293650D02*
X0202970Y0303550D01*
X0207470Y0303550D01*
X0207670Y0303750D01*
X0207470Y0304450D01*
X0207470Y0308050D01*
X0207670Y0308750D01*
X0193970Y0305350D02*
X0193070Y0305350D01*
X0191270Y0303550D01*
X0187670Y0303550D01*
X0187270Y0303750D01*
X0186770Y0299050D02*
X0181370Y0299050D01*
X0180470Y0298150D01*
X0180470Y0293650D01*
X0179570Y0289150D02*
X0186770Y0289150D01*
X0187270Y0288750D01*
X0187670Y0289150D01*
X0187670Y0292750D01*
X0188570Y0293650D01*
X0187270Y0293750D01*
X0187670Y0294550D01*
X0188570Y0293650D01*
X0193070Y0293650D01*
X0187270Y0298750D02*
X0186770Y0299050D01*
X0187270Y0308750D02*
X0187670Y0308950D01*
X0193070Y0308950D01*
X0215570Y0331450D01*
X0215570Y0361150D01*
X0228170Y0373750D01*
X0229070Y0373750D01*
X0231770Y0376450D01*
X0232470Y0376250D01*
X0195770Y0380950D02*
X0195770Y0367450D01*
X0154370Y0326050D01*
X0132770Y0326050D01*
X0127370Y0320650D01*
X0157070Y0311650D02*
X0179570Y0289150D01*
X0187270Y0283750D02*
X0187670Y0283750D01*
X0187670Y0279250D01*
X0173270Y0300850D02*
X0173270Y0305350D01*
X0181370Y0313450D01*
X0186770Y0313450D01*
X0187270Y0313750D01*
X0178337Y0371250D02*
X0178670Y0371950D01*
X0178670Y0373750D01*
X0181370Y0376450D01*
X0181370Y0377350D01*
X0229970Y0425950D01*
X0231770Y0425950D01*
X0232470Y0426250D01*
X0232470Y0416250D02*
X0231770Y0416050D01*
X0229970Y0414250D01*
X0229070Y0414250D01*
X0195770Y0380950D01*
X0312470Y0346250D02*
X0312770Y0346750D01*
X0310970Y0218950D02*
X0302870Y0218950D01*
X0302270Y0218750D01*
X0232470Y0161250D02*
X0231770Y0161350D01*
X0229070Y0161350D01*
X0228170Y0160450D01*
X0227270Y0160450D01*
X0225470Y0158650D01*
X0214670Y0158650D02*
X0175070Y0158650D01*
X0167870Y0151450D01*
X0167870Y0150550D01*
X0164270Y0146950D01*
X0162470Y0146950D01*
X0162470Y0146250D01*
D18*
X0197570Y0162250D03*
X0201170Y0171250D03*
X0201170Y0205450D03*
X0193970Y0209950D03*
X0193970Y0222550D03*
X0200270Y0228850D03*
X0175070Y0249550D03*
X0159770Y0255850D03*
X0152570Y0256750D03*
X0180470Y0293650D03*
X0173270Y0300850D03*
X0151670Y0308050D03*
X0191270Y0265750D03*
X0193970Y0290050D03*
X0193970Y0305350D03*
X0302870Y0268450D03*
X0309170Y0234250D03*
X0310970Y0218950D03*
X0330770Y0218950D03*
X0313670Y0313450D03*
M02*
