G75*
%MOIN*%
%OFA0B0*%
%FSLAX25Y25*%
%IPPOS*%
%LPD*%
%AMOC8*
5,1,8,0,0,1.08239X$1,22.5*
%
%ADD10C,0.13398*%
%ADD11C,0.06000*%
%ADD12C,0.06800*%
%ADD13C,0.08400*%
%ADD14C,0.08200*%
%ADD15C,0.06343*%
%ADD16C,0.12020*%
%ADD17C,0.13600*%
%ADD18C,0.08600*%
%ADD19C,0.04800*%
%ADD20C,0.04762*%
D10*
X0016600Y0016600D03*
X0046600Y0131600D03*
X0156600Y0131600D03*
X0186600Y0016600D03*
X0186600Y0381600D03*
X0016600Y0381600D03*
D11*
X0116600Y0314200D02*
X0116600Y0309000D01*
X0126600Y0309000D02*
X0126600Y0314200D01*
X0136600Y0314200D02*
X0136600Y0309000D01*
X0146600Y0309000D02*
X0146600Y0314200D01*
X0156600Y0314200D02*
X0156600Y0309000D01*
X0166600Y0309000D02*
X0166600Y0314200D01*
X0176600Y0314200D02*
X0176600Y0309000D01*
X0186600Y0309000D02*
X0186600Y0314200D01*
X0186600Y0284200D02*
X0186600Y0279000D01*
X0176600Y0279000D02*
X0176600Y0284200D01*
X0166600Y0284200D02*
X0166600Y0279000D01*
X0156600Y0279000D02*
X0156600Y0284200D01*
X0146600Y0284200D02*
X0146600Y0279000D01*
X0136600Y0279000D02*
X0136600Y0284200D01*
X0126600Y0284200D02*
X0126600Y0279000D01*
X0116600Y0279000D02*
X0116600Y0284200D01*
D12*
X0034600Y0251600D02*
X0028600Y0251600D01*
X0028600Y0241600D02*
X0034600Y0241600D01*
X0034600Y0231600D02*
X0028600Y0231600D01*
X0028600Y0221600D02*
X0034600Y0221600D01*
X0034600Y0211600D02*
X0028600Y0211600D01*
X0028600Y0201600D02*
X0034600Y0201600D01*
X0041600Y0064600D02*
X0041600Y0058600D01*
X0051600Y0058600D02*
X0051600Y0064600D01*
X0061600Y0064600D02*
X0061600Y0058600D01*
X0071600Y0058600D02*
X0071600Y0064600D01*
X0081600Y0064600D02*
X0081600Y0058600D01*
X0091600Y0058600D02*
X0091600Y0064600D01*
X0101600Y0064600D02*
X0101600Y0058600D01*
X0111600Y0058600D02*
X0111600Y0064600D01*
X0121600Y0064600D02*
X0121600Y0058600D01*
X0131600Y0058600D02*
X0131600Y0064600D01*
X0141600Y0064600D02*
X0141600Y0058600D01*
X0151600Y0058600D02*
X0151600Y0064600D01*
X0161600Y0064600D02*
X0161600Y0058600D01*
X0161600Y0034600D02*
X0161600Y0028600D01*
X0151600Y0028600D02*
X0151600Y0034600D01*
X0141600Y0034600D02*
X0141600Y0028600D01*
X0131600Y0028600D02*
X0131600Y0034600D01*
X0121600Y0034600D02*
X0121600Y0028600D01*
X0111600Y0028600D02*
X0111600Y0034600D01*
X0101600Y0034600D02*
X0101600Y0028600D01*
X0091600Y0028600D02*
X0091600Y0034600D01*
X0081600Y0034600D02*
X0081600Y0028600D01*
X0071600Y0028600D02*
X0071600Y0034600D01*
X0061600Y0034600D02*
X0061600Y0028600D01*
X0051600Y0028600D02*
X0051600Y0034600D01*
X0041600Y0034600D02*
X0041600Y0028600D01*
D13*
X0046600Y0096600D03*
X0056600Y0096600D03*
X0066600Y0096600D03*
X0076600Y0096600D03*
X0086600Y0096600D03*
X0096600Y0096600D03*
X0106600Y0096600D03*
X0116600Y0096600D03*
X0126600Y0096600D03*
X0136600Y0096600D03*
X0146600Y0096600D03*
X0156600Y0096600D03*
X0156600Y0166600D03*
X0146600Y0166600D03*
X0136600Y0166600D03*
X0126600Y0166600D03*
X0116600Y0166600D03*
X0106600Y0166600D03*
X0096600Y0166600D03*
X0086600Y0166600D03*
X0076600Y0166600D03*
X0066600Y0166600D03*
X0056600Y0166600D03*
X0046600Y0166600D03*
D14*
X0066600Y0201600D03*
X0066600Y0211600D03*
X0066600Y0221600D03*
X0066600Y0231600D03*
X0066600Y0241600D03*
X0066600Y0251600D03*
X0076600Y0256600D03*
X0086600Y0256600D03*
X0096600Y0256600D03*
X0106600Y0256600D03*
X0111100Y0246800D03*
X0116600Y0256600D03*
X0121100Y0246800D03*
X0126600Y0256600D03*
X0136600Y0256600D03*
X0146600Y0256600D03*
X0156600Y0256600D03*
X0166600Y0256600D03*
X0176600Y0256600D03*
X0186600Y0256600D03*
X0186600Y0196600D03*
X0176600Y0196600D03*
X0166600Y0196600D03*
X0156600Y0196600D03*
X0146600Y0196600D03*
X0136600Y0196600D03*
X0126600Y0196600D03*
X0116600Y0196600D03*
X0106600Y0196600D03*
X0096600Y0196600D03*
X0086600Y0196600D03*
X0076600Y0196600D03*
D15*
X0074100Y0331600D03*
X0069100Y0341600D03*
X0064100Y0331600D03*
X0059100Y0341600D03*
X0054100Y0331600D03*
X0079100Y0341600D03*
X0084100Y0331600D03*
X0089100Y0341600D03*
D16*
X0103600Y0332112D03*
X0103600Y0378600D03*
X0039600Y0378600D03*
X0039600Y0332112D03*
D17*
X0049100Y0366600D03*
X0094100Y0366600D03*
D18*
X0136800Y0367700D02*
X0136800Y0375500D01*
X0156500Y0375500D02*
X0156500Y0367700D01*
D19*
X0120400Y0227500D03*
X0110500Y0223000D03*
X0091600Y0204100D03*
X0116800Y0187000D03*
X0164500Y0154600D03*
X0184300Y0180700D03*
D20*
X0186600Y0171600D03*
X0156600Y0241600D03*
X0136600Y0216600D03*
X0076600Y0316600D03*
X0066600Y0291600D03*
X0051600Y0311600D03*
X0036600Y0314100D03*
X0056600Y0236600D03*
X0051600Y0226600D03*
X0051600Y0091600D03*
X0051600Y0071600D03*
X0066600Y0081600D03*
X0086600Y0041600D03*
X0096600Y0046600D03*
X0106600Y0046600D03*
X0116600Y0046600D03*
X0126600Y0046600D03*
X0136600Y0041600D03*
X0131600Y0081600D03*
X0141600Y0081600D03*
X0156600Y0081600D03*
X0171600Y0046600D03*
X0166600Y0011600D03*
X0116600Y0081600D03*
M02*
