G75*
%MOIN*%
%OFA0B0*%
%FSLAX25Y25*%
%IPPOS*%
%LPD*%
%AMOC8*
5,1,8,0,0,1.08239X$1,22.5*
%
%ADD10C,0.05200*%
%ADD11C,0.06000*%
%ADD12C,0.07600*%
%ADD13C,0.07400*%
%ADD14C,0.05543*%
%ADD15C,0.11220*%
%ADD16C,0.07800*%
%ADD17C,0.01000*%
%ADD18C,0.04000*%
%ADD19C,0.01200*%
%ADD20C,0.03962*%
D10*
X0116600Y0279000D02*
X0116600Y0284200D01*
X0126600Y0284200D02*
X0126600Y0279000D01*
X0136600Y0279000D02*
X0136600Y0284200D01*
X0146600Y0284200D02*
X0146600Y0279000D01*
X0156600Y0279000D02*
X0156600Y0284200D01*
X0166600Y0284200D02*
X0166600Y0279000D01*
X0176600Y0279000D02*
X0176600Y0284200D01*
X0186600Y0284200D02*
X0186600Y0279000D01*
X0186600Y0309000D02*
X0186600Y0314200D01*
X0176600Y0314200D02*
X0176600Y0309000D01*
X0166600Y0309000D02*
X0166600Y0314200D01*
X0156600Y0314200D02*
X0156600Y0309000D01*
X0146600Y0309000D02*
X0146600Y0314200D01*
X0136600Y0314200D02*
X0136600Y0309000D01*
X0126600Y0309000D02*
X0126600Y0314200D01*
X0116600Y0314200D02*
X0116600Y0309000D01*
D11*
X0034600Y0251600D02*
X0028600Y0251600D01*
X0028600Y0241600D02*
X0034600Y0241600D01*
X0034600Y0231600D02*
X0028600Y0231600D01*
X0028600Y0221600D02*
X0034600Y0221600D01*
X0034600Y0211600D02*
X0028600Y0211600D01*
X0028600Y0201600D02*
X0034600Y0201600D01*
X0041600Y0064600D02*
X0041600Y0058600D01*
X0051600Y0058600D02*
X0051600Y0064600D01*
X0061600Y0064600D02*
X0061600Y0058600D01*
X0071600Y0058600D02*
X0071600Y0064600D01*
X0081600Y0064600D02*
X0081600Y0058600D01*
X0091600Y0058600D02*
X0091600Y0064600D01*
X0101600Y0064600D02*
X0101600Y0058600D01*
X0111600Y0058600D02*
X0111600Y0064600D01*
X0121600Y0064600D02*
X0121600Y0058600D01*
X0131600Y0058600D02*
X0131600Y0064600D01*
X0141600Y0064600D02*
X0141600Y0058600D01*
X0151600Y0058600D02*
X0151600Y0064600D01*
X0161600Y0064600D02*
X0161600Y0058600D01*
X0161600Y0034600D02*
X0161600Y0028600D01*
X0151600Y0028600D02*
X0151600Y0034600D01*
X0141600Y0034600D02*
X0141600Y0028600D01*
X0131600Y0028600D02*
X0131600Y0034600D01*
X0121600Y0034600D02*
X0121600Y0028600D01*
X0111600Y0028600D02*
X0111600Y0034600D01*
X0101600Y0034600D02*
X0101600Y0028600D01*
X0091600Y0028600D02*
X0091600Y0034600D01*
X0081600Y0034600D02*
X0081600Y0028600D01*
X0071600Y0028600D02*
X0071600Y0034600D01*
X0061600Y0034600D02*
X0061600Y0028600D01*
X0051600Y0028600D02*
X0051600Y0034600D01*
X0041600Y0034600D02*
X0041600Y0028600D01*
D12*
X0046600Y0096600D03*
X0056600Y0096600D03*
X0066600Y0096600D03*
X0076600Y0096600D03*
X0086600Y0096600D03*
X0096600Y0096600D03*
X0106600Y0096600D03*
X0116600Y0096600D03*
X0126600Y0096600D03*
X0136600Y0096600D03*
X0146600Y0096600D03*
X0156600Y0096600D03*
X0156600Y0166600D03*
X0146600Y0166600D03*
X0136600Y0166600D03*
X0126600Y0166600D03*
X0116600Y0166600D03*
X0106600Y0166600D03*
X0096600Y0166600D03*
X0086600Y0166600D03*
X0076600Y0166600D03*
X0066600Y0166600D03*
X0056600Y0166600D03*
X0046600Y0166600D03*
D13*
X0066600Y0201600D03*
X0066600Y0211600D03*
X0066600Y0221600D03*
X0066600Y0231600D03*
X0066600Y0241600D03*
X0066600Y0251600D03*
X0076600Y0256600D03*
X0086600Y0256600D03*
X0096600Y0256600D03*
X0106600Y0256600D03*
X0111100Y0246800D03*
X0116600Y0256600D03*
X0121100Y0246800D03*
X0126600Y0256600D03*
X0136600Y0256600D03*
X0146600Y0256600D03*
X0156600Y0256600D03*
X0166600Y0256600D03*
X0176600Y0256600D03*
X0186600Y0256600D03*
X0186600Y0196600D03*
X0176600Y0196600D03*
X0166600Y0196600D03*
X0156600Y0196600D03*
X0146600Y0196600D03*
X0136600Y0196600D03*
X0126600Y0196600D03*
X0116600Y0196600D03*
X0106600Y0196600D03*
X0096600Y0196600D03*
X0086600Y0196600D03*
X0076600Y0196600D03*
D14*
X0074100Y0331600D03*
X0069100Y0341600D03*
X0064100Y0331600D03*
X0059100Y0341600D03*
X0054100Y0331600D03*
X0079100Y0341600D03*
X0084100Y0331600D03*
X0089100Y0341600D03*
D15*
X0103600Y0332112D03*
X0103600Y0378600D03*
X0039600Y0378600D03*
X0039600Y0332112D03*
D16*
X0136800Y0367700D02*
X0136800Y0375500D01*
X0156500Y0375500D02*
X0156500Y0367700D01*
D17*
X0145600Y0340900D02*
X0089800Y0340900D01*
X0089100Y0341600D01*
X0115000Y0288700D02*
X0091600Y0265300D01*
X0091600Y0254500D01*
X0088000Y0250900D01*
X0074500Y0250900D01*
X0068200Y0257200D01*
X0064600Y0257200D01*
X0039400Y0232000D01*
X0039400Y0169900D01*
X0034000Y0164500D01*
X0034000Y0060100D01*
X0054700Y0039400D01*
X0073600Y0039400D01*
X0077200Y0035800D01*
X0077200Y0026800D01*
X0079900Y0024100D01*
X0114100Y0024100D01*
X0121600Y0031600D01*
X0122200Y0032200D01*
X0122200Y0061000D01*
X0121600Y0061600D01*
X0126700Y0057400D02*
X0126700Y0096100D01*
X0126600Y0096600D01*
X0102400Y0070900D02*
X0111400Y0061900D01*
X0111600Y0061600D01*
X0111400Y0061000D01*
X0111400Y0032200D01*
X0111600Y0031600D01*
X0101600Y0031600D02*
X0101500Y0032200D01*
X0101500Y0061000D01*
X0101600Y0061600D01*
X0101500Y0061900D01*
X0094300Y0069100D01*
X0063700Y0069100D01*
X0039400Y0093400D01*
X0039400Y0099700D01*
X0043900Y0104200D01*
X0101500Y0104200D01*
X0192400Y0195100D01*
X0192400Y0198700D01*
X0167200Y0223900D01*
X0167200Y0256300D01*
X0166600Y0256600D01*
X0171700Y0268900D02*
X0130300Y0268900D01*
X0121300Y0277900D01*
X0121300Y0285100D01*
X0117700Y0288700D01*
X0115000Y0288700D01*
X0115900Y0281500D02*
X0116600Y0281600D01*
X0115900Y0281500D02*
X0106900Y0272500D01*
X0106900Y0257200D01*
X0106600Y0256600D01*
X0106000Y0256300D01*
X0106000Y0244600D01*
X0093400Y0232000D01*
X0067300Y0232000D01*
X0066600Y0231600D01*
X0076600Y0256600D02*
X0076300Y0257200D01*
X0059200Y0274300D01*
X0059200Y0340900D01*
X0059100Y0341600D01*
X0106000Y0244600D02*
X0109600Y0241000D01*
X0139300Y0241000D01*
X0181600Y0198700D01*
X0181600Y0194200D01*
X0157300Y0169900D01*
X0157300Y0167200D01*
X0156600Y0166600D01*
X0164500Y0154600D02*
X0168100Y0151000D01*
X0168100Y0127600D01*
X0161800Y0121300D01*
X0161800Y0061900D01*
X0161600Y0061600D01*
X0161800Y0061000D01*
X0161800Y0032200D01*
X0161600Y0031600D01*
X0146500Y0026800D02*
X0146500Y0086200D01*
X0156400Y0096100D01*
X0156600Y0096600D01*
X0126700Y0057400D02*
X0141100Y0043000D01*
X0141100Y0032200D01*
X0141600Y0031600D01*
X0146500Y0026800D02*
X0142000Y0022300D01*
X0079000Y0022300D01*
X0071800Y0029500D01*
X0071800Y0031300D01*
X0071600Y0031600D01*
X0081600Y0031600D02*
X0081700Y0032200D01*
X0081700Y0061000D01*
X0081600Y0061600D01*
X0091600Y0061600D02*
X0091600Y0031600D01*
X0102400Y0070900D02*
X0064600Y0070900D01*
X0041200Y0094300D01*
X0041200Y0098800D01*
X0044800Y0102400D01*
X0102400Y0102400D01*
X0180700Y0180700D01*
X0184300Y0180700D01*
X0156400Y0196000D02*
X0156600Y0196600D01*
X0156400Y0196000D02*
X0143800Y0183400D01*
X0055600Y0183400D01*
X0035800Y0163600D01*
X0035800Y0077200D01*
X0051100Y0061900D01*
X0051600Y0061600D01*
X0098800Y0187000D02*
X0116800Y0187000D01*
X0098800Y0187000D02*
X0091600Y0194200D01*
X0091600Y0198700D01*
X0120400Y0227500D01*
X0110500Y0223000D02*
X0091600Y0204100D01*
X0170800Y0315700D02*
X0145600Y0340900D01*
X0170800Y0315700D02*
X0170800Y0308500D01*
X0186100Y0293200D01*
X0186100Y0282400D01*
X0186600Y0281600D01*
X0171700Y0268900D02*
X0183400Y0257200D01*
X0186100Y0257200D01*
X0186600Y0256600D01*
D18*
X0184300Y0180700D03*
X0164500Y0154600D03*
X0120400Y0227500D03*
X0110500Y0223000D03*
X0091600Y0204100D03*
X0116800Y0187000D03*
D19*
X0006200Y0020231D02*
X0006200Y0377969D01*
X0007078Y0375704D01*
X0009850Y0372662D01*
X0009851Y0372662D01*
X0013535Y0370828D01*
X0017633Y0370448D01*
X0017633Y0370448D01*
X0021592Y0371574D01*
X0021592Y0371574D01*
X0024877Y0374055D01*
X0027044Y0377554D01*
X0027044Y0377554D01*
X0027800Y0381600D01*
X0027044Y0385646D01*
X0024877Y0389145D01*
X0024877Y0389145D01*
X0022817Y0390701D01*
X0034344Y0390701D01*
X0033730Y0389219D01*
X0033730Y0387381D01*
X0034434Y0385683D01*
X0035601Y0384515D01*
X0033657Y0382571D01*
X0032590Y0379994D01*
X0032590Y0377206D01*
X0033657Y0374629D01*
X0035629Y0372657D01*
X0038206Y0371590D01*
X0039279Y0371590D01*
X0038850Y0370846D01*
X0038100Y0368048D01*
X0038100Y0365152D01*
X0038850Y0362354D01*
X0040298Y0359846D01*
X0042346Y0357798D01*
X0044854Y0356350D01*
X0047652Y0355600D01*
X0050548Y0355600D01*
X0053346Y0356350D01*
X0055854Y0357798D01*
X0057902Y0359846D01*
X0059350Y0362354D01*
X0060100Y0365152D01*
X0060100Y0368048D01*
X0059350Y0370846D01*
X0057902Y0373354D01*
X0055854Y0375402D01*
X0053346Y0376850D01*
X0050548Y0377600D01*
X0047652Y0377600D01*
X0046610Y0377321D01*
X0046610Y0379994D01*
X0045543Y0382571D01*
X0044434Y0383680D01*
X0098766Y0383680D01*
X0097657Y0382571D01*
X0096590Y0379994D01*
X0096590Y0377321D01*
X0095548Y0377600D01*
X0092652Y0377600D01*
X0089854Y0376850D01*
X0087346Y0375402D01*
X0085298Y0373354D01*
X0083850Y0370846D01*
X0083100Y0368048D01*
X0083100Y0365152D01*
X0083850Y0362354D01*
X0085298Y0359846D01*
X0087346Y0357798D01*
X0089854Y0356350D01*
X0092652Y0355600D01*
X0095548Y0355600D01*
X0098346Y0356350D01*
X0100854Y0357798D01*
X0102902Y0359846D01*
X0104350Y0362354D01*
X0105100Y0365152D01*
X0105100Y0368048D01*
X0104350Y0370846D01*
X0103921Y0371590D01*
X0104994Y0371590D01*
X0107571Y0372657D01*
X0109543Y0374629D01*
X0110610Y0377206D01*
X0110610Y0379994D01*
X0109543Y0382571D01*
X0107599Y0384515D01*
X0108766Y0385683D01*
X0109470Y0387381D01*
X0109470Y0389219D01*
X0108856Y0390701D01*
X0180178Y0390701D01*
X0179851Y0390538D01*
X0179850Y0390538D01*
X0177078Y0387496D01*
X0175591Y0383658D01*
X0175591Y0379542D01*
X0177078Y0375704D01*
X0179850Y0372662D01*
X0179851Y0372662D01*
X0183535Y0370828D01*
X0187633Y0370448D01*
X0187633Y0370448D01*
X0191592Y0371574D01*
X0191592Y0371574D01*
X0193850Y0373279D01*
X0193850Y0199937D01*
X0169100Y0224687D01*
X0169100Y0252115D01*
X0169489Y0252276D01*
X0170924Y0253711D01*
X0171600Y0255344D01*
X0172276Y0253711D01*
X0173711Y0252276D01*
X0175586Y0251500D01*
X0177614Y0251500D01*
X0179489Y0252276D01*
X0180924Y0253711D01*
X0181600Y0255344D01*
X0182276Y0253711D01*
X0183711Y0252276D01*
X0185586Y0251500D01*
X0187614Y0251500D01*
X0189489Y0252276D01*
X0190924Y0253711D01*
X0191700Y0255586D01*
X0191700Y0257614D01*
X0190924Y0259489D01*
X0189489Y0260924D01*
X0187614Y0261700D01*
X0185586Y0261700D01*
X0183711Y0260924D01*
X0183037Y0260250D01*
X0173600Y0269687D01*
X0172487Y0270800D01*
X0131087Y0270800D01*
X0126887Y0275000D01*
X0127396Y0275000D01*
X0128866Y0275609D01*
X0129991Y0276734D01*
X0130600Y0278204D01*
X0130600Y0284996D01*
X0129991Y0286466D01*
X0128866Y0287591D01*
X0127396Y0288200D01*
X0125804Y0288200D01*
X0124334Y0287591D01*
X0123209Y0286466D01*
X0123037Y0286050D01*
X0119600Y0289487D01*
X0118487Y0290600D01*
X0114213Y0290600D01*
X0090813Y0267200D01*
X0089700Y0266087D01*
X0089700Y0260899D01*
X0089378Y0261133D01*
X0088634Y0261512D01*
X0087841Y0261769D01*
X0087017Y0261900D01*
X0087000Y0261900D01*
X0087000Y0257000D01*
X0086200Y0257000D01*
X0086200Y0261900D01*
X0086183Y0261900D01*
X0085359Y0261769D01*
X0084566Y0261512D01*
X0083822Y0261133D01*
X0083147Y0260643D01*
X0082557Y0260053D01*
X0082067Y0259378D01*
X0081688Y0258634D01*
X0081508Y0258079D01*
X0080924Y0259489D01*
X0079489Y0260924D01*
X0077614Y0261700D01*
X0075586Y0261700D01*
X0074809Y0261378D01*
X0061100Y0275087D01*
X0061100Y0328700D01*
X0061737Y0328063D01*
X0063270Y0327428D01*
X0064930Y0327428D01*
X0066463Y0328063D01*
X0067637Y0329237D01*
X0068272Y0330770D01*
X0068272Y0332430D01*
X0067637Y0333963D01*
X0066463Y0335137D01*
X0064930Y0335772D01*
X0063270Y0335772D01*
X0061737Y0335137D01*
X0061100Y0334500D01*
X0061100Y0337913D01*
X0061463Y0338063D01*
X0062637Y0339237D01*
X0063272Y0340770D01*
X0063272Y0342430D01*
X0062637Y0343963D01*
X0061463Y0345137D01*
X0059930Y0345772D01*
X0058270Y0345772D01*
X0056737Y0345137D01*
X0055563Y0343963D01*
X0054928Y0342430D01*
X0054928Y0340770D01*
X0055563Y0339237D01*
X0056737Y0338063D01*
X0057300Y0337830D01*
X0057300Y0334582D01*
X0056948Y0334934D01*
X0056391Y0335339D01*
X0055778Y0335651D01*
X0055124Y0335864D01*
X0054444Y0335972D01*
X0054386Y0335972D01*
X0054386Y0331886D01*
X0053814Y0331886D01*
X0053814Y0335972D01*
X0053756Y0335972D01*
X0053076Y0335864D01*
X0052422Y0335651D01*
X0051809Y0335339D01*
X0051252Y0334934D01*
X0050765Y0334448D01*
X0050361Y0333891D01*
X0050049Y0333278D01*
X0049836Y0332624D01*
X0049728Y0331944D01*
X0049728Y0331886D01*
X0053814Y0331886D01*
X0053814Y0331314D01*
X0054386Y0331314D01*
X0054386Y0327228D01*
X0054444Y0327228D01*
X0055124Y0327336D01*
X0055778Y0327549D01*
X0056391Y0327861D01*
X0056948Y0328265D01*
X0057300Y0328618D01*
X0057300Y0273513D01*
X0071998Y0258816D01*
X0071500Y0257614D01*
X0071500Y0256587D01*
X0070100Y0257987D01*
X0068987Y0259100D01*
X0063813Y0259100D01*
X0038613Y0233900D01*
X0038469Y0233756D01*
X0038330Y0234092D01*
X0037092Y0235330D01*
X0035475Y0236000D01*
X0027725Y0236000D01*
X0026108Y0235330D01*
X0024870Y0234092D01*
X0024200Y0232475D01*
X0024200Y0230725D01*
X0024870Y0229108D01*
X0026108Y0227870D01*
X0027725Y0227200D01*
X0035475Y0227200D01*
X0037092Y0227870D01*
X0037500Y0228277D01*
X0037500Y0224923D01*
X0037092Y0225330D01*
X0035475Y0226000D01*
X0027725Y0226000D01*
X0026108Y0225330D01*
X0024870Y0224092D01*
X0024200Y0222475D01*
X0024200Y0220725D01*
X0024870Y0219108D01*
X0026108Y0217870D01*
X0027725Y0217200D01*
X0035475Y0217200D01*
X0037092Y0217870D01*
X0037500Y0218277D01*
X0037500Y0214923D01*
X0037092Y0215330D01*
X0035475Y0216000D01*
X0027725Y0216000D01*
X0026108Y0215330D01*
X0024870Y0214092D01*
X0024200Y0212475D01*
X0024200Y0210725D01*
X0024870Y0209108D01*
X0026108Y0207870D01*
X0027725Y0207200D01*
X0035475Y0207200D01*
X0037092Y0207870D01*
X0037500Y0208277D01*
X0037500Y0204923D01*
X0037092Y0205330D01*
X0035475Y0206000D01*
X0027725Y0206000D01*
X0026108Y0205330D01*
X0024870Y0204092D01*
X0024200Y0202475D01*
X0024200Y0200725D01*
X0024870Y0199108D01*
X0026108Y0197870D01*
X0027725Y0197200D01*
X0035475Y0197200D01*
X0037092Y0197870D01*
X0037500Y0198277D01*
X0037500Y0170687D01*
X0033213Y0166400D01*
X0032100Y0165287D01*
X0032100Y0059313D01*
X0052413Y0039000D01*
X0050725Y0039000D01*
X0049108Y0038330D01*
X0047870Y0037092D01*
X0047200Y0035475D01*
X0047200Y0027725D01*
X0047870Y0026108D01*
X0049108Y0024870D01*
X0050725Y0024200D01*
X0052475Y0024200D01*
X0054092Y0024870D01*
X0055330Y0026108D01*
X0056000Y0027725D01*
X0056000Y0035475D01*
X0055330Y0037092D01*
X0054923Y0037500D01*
X0058277Y0037500D01*
X0057870Y0037092D01*
X0057200Y0035475D01*
X0057200Y0027725D01*
X0057870Y0026108D01*
X0059108Y0024870D01*
X0060725Y0024200D01*
X0062475Y0024200D01*
X0064092Y0024870D01*
X0065330Y0026108D01*
X0066000Y0027725D01*
X0066000Y0035475D01*
X0065330Y0037092D01*
X0064923Y0037500D01*
X0068277Y0037500D01*
X0067870Y0037092D01*
X0067200Y0035475D01*
X0067200Y0027725D01*
X0067870Y0026108D01*
X0069108Y0024870D01*
X0070725Y0024200D01*
X0072475Y0024200D01*
X0073845Y0024768D01*
X0077100Y0021513D01*
X0078213Y0020400D01*
X0142787Y0020400D01*
X0147287Y0024900D01*
X0148182Y0025795D01*
X0149108Y0024870D01*
X0150725Y0024200D01*
X0152475Y0024200D01*
X0154092Y0024870D01*
X0155330Y0026108D01*
X0156000Y0027725D01*
X0156000Y0035475D01*
X0155330Y0037092D01*
X0154092Y0038330D01*
X0152475Y0039000D01*
X0150725Y0039000D01*
X0149108Y0038330D01*
X0148400Y0037623D01*
X0148400Y0055577D01*
X0149108Y0054870D01*
X0150725Y0054200D01*
X0152475Y0054200D01*
X0154092Y0054870D01*
X0155330Y0056108D01*
X0156000Y0057725D01*
X0156000Y0065475D01*
X0155330Y0067092D01*
X0154092Y0068330D01*
X0152475Y0069000D01*
X0150725Y0069000D01*
X0149108Y0068330D01*
X0148400Y0067623D01*
X0148400Y0085413D01*
X0154732Y0091745D01*
X0155566Y0091400D01*
X0157634Y0091400D01*
X0159546Y0092192D01*
X0159900Y0092546D01*
X0159900Y0068658D01*
X0159108Y0068330D01*
X0157870Y0067092D01*
X0157200Y0065475D01*
X0157200Y0057725D01*
X0157870Y0056108D01*
X0159108Y0054870D01*
X0159900Y0054542D01*
X0159900Y0038658D01*
X0159108Y0038330D01*
X0157870Y0037092D01*
X0157200Y0035475D01*
X0157200Y0027725D01*
X0157870Y0026108D01*
X0159108Y0024870D01*
X0160725Y0024200D01*
X0162475Y0024200D01*
X0164092Y0024870D01*
X0165330Y0026108D01*
X0166000Y0027725D01*
X0166000Y0035475D01*
X0165330Y0037092D01*
X0164092Y0038330D01*
X0163700Y0038493D01*
X0163700Y0054707D01*
X0164092Y0054870D01*
X0165330Y0056108D01*
X0166000Y0057725D01*
X0166000Y0065475D01*
X0165330Y0067092D01*
X0164092Y0068330D01*
X0163700Y0068493D01*
X0163700Y0120513D01*
X0168887Y0125700D01*
X0170000Y0126813D01*
X0170000Y0151787D01*
X0167889Y0153898D01*
X0167900Y0153924D01*
X0167900Y0155276D01*
X0167382Y0156526D01*
X0166426Y0157482D01*
X0165176Y0158000D01*
X0163824Y0158000D01*
X0162574Y0157482D01*
X0161618Y0156526D01*
X0161100Y0155276D01*
X0161100Y0153924D01*
X0161618Y0152674D01*
X0162574Y0151718D01*
X0163824Y0151200D01*
X0165176Y0151200D01*
X0165202Y0151211D01*
X0166200Y0150213D01*
X0166200Y0136771D01*
X0165322Y0138292D01*
X0163292Y0140322D01*
X0160807Y0141756D01*
X0158035Y0142499D01*
X0155165Y0142499D01*
X0152393Y0141756D01*
X0149908Y0140322D01*
X0147878Y0138292D01*
X0146444Y0135807D01*
X0145701Y0133035D01*
X0145701Y0130165D01*
X0146444Y0127393D01*
X0147878Y0124908D01*
X0149908Y0122878D01*
X0152393Y0121444D01*
X0155165Y0120701D01*
X0158035Y0120701D01*
X0159900Y0121201D01*
X0159900Y0100654D01*
X0159546Y0101008D01*
X0157634Y0101800D01*
X0155566Y0101800D01*
X0153654Y0101008D01*
X0152192Y0099546D01*
X0151600Y0098117D01*
X0151008Y0099546D01*
X0149546Y0101008D01*
X0147634Y0101800D01*
X0145566Y0101800D01*
X0143654Y0101008D01*
X0142192Y0099546D01*
X0141600Y0098117D01*
X0141008Y0099546D01*
X0139546Y0101008D01*
X0137634Y0101800D01*
X0135566Y0101800D01*
X0133654Y0101008D01*
X0132192Y0099546D01*
X0131600Y0098117D01*
X0131008Y0099546D01*
X0129546Y0101008D01*
X0127634Y0101800D01*
X0125566Y0101800D01*
X0123654Y0101008D01*
X0122192Y0099546D01*
X0121600Y0098117D01*
X0121008Y0099546D01*
X0119546Y0101008D01*
X0117634Y0101800D01*
X0115566Y0101800D01*
X0113654Y0101008D01*
X0112192Y0099546D01*
X0111600Y0098117D01*
X0111008Y0099546D01*
X0109546Y0101008D01*
X0107634Y0101800D01*
X0105566Y0101800D01*
X0103724Y0101037D01*
X0104300Y0101613D01*
X0181439Y0178752D01*
X0182374Y0177818D01*
X0183624Y0177300D01*
X0184976Y0177300D01*
X0186226Y0177818D01*
X0187182Y0178774D01*
X0187700Y0180024D01*
X0187700Y0181376D01*
X0187182Y0182626D01*
X0186226Y0183582D01*
X0184976Y0184100D01*
X0184087Y0184100D01*
X0193850Y0193863D01*
X0193850Y0024921D01*
X0191592Y0026626D01*
X0187633Y0027752D01*
X0183535Y0027372D01*
X0179851Y0025538D01*
X0179850Y0025538D01*
X0177078Y0022496D01*
X0175591Y0018658D01*
X0175591Y0014542D01*
X0177078Y0010704D01*
X0179850Y0007662D01*
X0179851Y0007662D01*
X0182787Y0006200D01*
X0020277Y0006200D01*
X0021592Y0006574D01*
X0021592Y0006574D01*
X0024877Y0009055D01*
X0027044Y0012554D01*
X0027044Y0012554D01*
X0027800Y0016600D01*
X0027800Y0016600D01*
X0027044Y0020646D01*
X0024877Y0024145D01*
X0021592Y0026626D01*
X0017633Y0027752D01*
X0013535Y0027372D01*
X0009851Y0025538D01*
X0009850Y0025538D01*
X0007078Y0022496D01*
X0006200Y0020231D01*
X0006200Y0020776D02*
X0006411Y0020776D01*
X0006200Y0021975D02*
X0006876Y0021975D01*
X0007078Y0022496D02*
X0007078Y0022496D01*
X0007695Y0023173D02*
X0006200Y0023173D01*
X0006200Y0024372D02*
X0008787Y0024372D01*
X0009916Y0025570D02*
X0006200Y0025570D01*
X0006200Y0026769D02*
X0012323Y0026769D01*
X0013535Y0027372D02*
X0013535Y0027372D01*
X0017633Y0027752D02*
X0017633Y0027752D01*
X0021090Y0026769D02*
X0037370Y0026769D01*
X0037337Y0026834D02*
X0037666Y0026189D01*
X0038091Y0025603D01*
X0038603Y0025091D01*
X0039189Y0024666D01*
X0039834Y0024337D01*
X0040523Y0024113D01*
X0041200Y0024006D01*
X0041200Y0031200D01*
X0037000Y0031200D01*
X0037000Y0028238D01*
X0037113Y0027523D01*
X0037337Y0026834D01*
X0037043Y0027967D02*
X0006200Y0027967D01*
X0006200Y0029166D02*
X0037000Y0029166D01*
X0037000Y0030364D02*
X0006200Y0030364D01*
X0006200Y0031563D02*
X0041200Y0031563D01*
X0041200Y0031200D02*
X0041200Y0032000D01*
X0041200Y0039194D01*
X0040523Y0039087D01*
X0039834Y0038863D01*
X0039189Y0038534D01*
X0038603Y0038109D01*
X0038091Y0037597D01*
X0037666Y0037011D01*
X0037337Y0036366D01*
X0037113Y0035677D01*
X0037000Y0034962D01*
X0037000Y0032000D01*
X0041200Y0032000D01*
X0042000Y0032000D01*
X0042000Y0039194D01*
X0042677Y0039087D01*
X0043366Y0038863D01*
X0044011Y0038534D01*
X0044597Y0038109D01*
X0045109Y0037597D01*
X0045534Y0037011D01*
X0045863Y0036366D01*
X0046087Y0035677D01*
X0046200Y0034962D01*
X0046200Y0032000D01*
X0042000Y0032000D01*
X0042000Y0031200D01*
X0046200Y0031200D01*
X0046200Y0028238D01*
X0046087Y0027523D01*
X0045863Y0026834D01*
X0045534Y0026189D01*
X0045109Y0025603D01*
X0044597Y0025091D01*
X0044011Y0024666D01*
X0043366Y0024337D01*
X0042677Y0024113D01*
X0042000Y0024006D01*
X0042000Y0031200D01*
X0041200Y0031200D01*
X0041200Y0030364D02*
X0042000Y0030364D01*
X0042000Y0029166D02*
X0041200Y0029166D01*
X0041200Y0027967D02*
X0042000Y0027967D01*
X0042000Y0026769D02*
X0041200Y0026769D01*
X0041200Y0025570D02*
X0042000Y0025570D01*
X0042000Y0024372D02*
X0041200Y0024372D01*
X0039766Y0024372D02*
X0024577Y0024372D01*
X0024877Y0024145D02*
X0024877Y0024145D01*
X0025479Y0023173D02*
X0075440Y0023173D01*
X0076638Y0021975D02*
X0026221Y0021975D01*
X0026963Y0020776D02*
X0077837Y0020776D01*
X0074241Y0024372D02*
X0072890Y0024372D01*
X0070310Y0024372D02*
X0062890Y0024372D01*
X0064793Y0025570D02*
X0068407Y0025570D01*
X0067596Y0026769D02*
X0065604Y0026769D01*
X0066000Y0027967D02*
X0067200Y0027967D01*
X0067200Y0029166D02*
X0066000Y0029166D01*
X0066000Y0030364D02*
X0067200Y0030364D01*
X0067200Y0031563D02*
X0066000Y0031563D01*
X0066000Y0032761D02*
X0067200Y0032761D01*
X0067200Y0033960D02*
X0066000Y0033960D01*
X0066000Y0035158D02*
X0067200Y0035158D01*
X0067565Y0036357D02*
X0065635Y0036357D01*
X0060310Y0024372D02*
X0052890Y0024372D01*
X0054793Y0025570D02*
X0058407Y0025570D01*
X0057596Y0026769D02*
X0055604Y0026769D01*
X0056000Y0027967D02*
X0057200Y0027967D01*
X0057200Y0029166D02*
X0056000Y0029166D01*
X0056000Y0030364D02*
X0057200Y0030364D01*
X0057200Y0031563D02*
X0056000Y0031563D01*
X0056000Y0032761D02*
X0057200Y0032761D01*
X0057200Y0033960D02*
X0056000Y0033960D01*
X0056000Y0035158D02*
X0057200Y0035158D01*
X0057565Y0036357D02*
X0055635Y0036357D01*
X0055487Y0041300D02*
X0042674Y0054113D01*
X0042677Y0054113D01*
X0043366Y0054337D01*
X0044011Y0054666D01*
X0044597Y0055091D01*
X0045109Y0055603D01*
X0045534Y0056189D01*
X0045863Y0056834D01*
X0046087Y0057523D01*
X0046200Y0058238D01*
X0046200Y0061200D01*
X0042000Y0061200D01*
X0042000Y0062000D01*
X0046200Y0062000D01*
X0046200Y0064113D01*
X0047200Y0063113D01*
X0047200Y0057725D01*
X0047870Y0056108D01*
X0049108Y0054870D01*
X0050725Y0054200D01*
X0052475Y0054200D01*
X0054092Y0054870D01*
X0055330Y0056108D01*
X0056000Y0057725D01*
X0056000Y0065475D01*
X0055330Y0067092D01*
X0054092Y0068330D01*
X0052475Y0069000D01*
X0050725Y0069000D01*
X0049108Y0068330D01*
X0048232Y0067455D01*
X0037700Y0077987D01*
X0037700Y0092413D01*
X0061113Y0069000D01*
X0060725Y0069000D01*
X0059108Y0068330D01*
X0057870Y0067092D01*
X0057200Y0065475D01*
X0057200Y0057725D01*
X0057870Y0056108D01*
X0059108Y0054870D01*
X0060725Y0054200D01*
X0062475Y0054200D01*
X0064092Y0054870D01*
X0065330Y0056108D01*
X0066000Y0057725D01*
X0066000Y0065475D01*
X0065330Y0067092D01*
X0065223Y0067200D01*
X0067977Y0067200D01*
X0067870Y0067092D01*
X0067200Y0065475D01*
X0067200Y0057725D01*
X0067870Y0056108D01*
X0069108Y0054870D01*
X0070725Y0054200D01*
X0072475Y0054200D01*
X0074092Y0054870D01*
X0075330Y0056108D01*
X0076000Y0057725D01*
X0076000Y0065475D01*
X0075330Y0067092D01*
X0075223Y0067200D01*
X0077977Y0067200D01*
X0077870Y0067092D01*
X0077200Y0065475D01*
X0077200Y0057725D01*
X0077870Y0056108D01*
X0079108Y0054870D01*
X0079800Y0054583D01*
X0079800Y0038617D01*
X0079108Y0038330D01*
X0078232Y0037455D01*
X0077987Y0037700D01*
X0074387Y0041300D01*
X0055487Y0041300D01*
X0054438Y0042349D02*
X0079800Y0042349D01*
X0079800Y0041151D02*
X0074536Y0041151D01*
X0075735Y0039952D02*
X0079800Y0039952D01*
X0079800Y0038754D02*
X0076933Y0038754D01*
X0078132Y0037555D02*
X0078333Y0037555D01*
X0079800Y0043548D02*
X0053239Y0043548D01*
X0052041Y0044746D02*
X0079800Y0044746D01*
X0079800Y0045945D02*
X0050842Y0045945D01*
X0049644Y0047143D02*
X0079800Y0047143D01*
X0079800Y0048342D02*
X0048445Y0048342D01*
X0047247Y0049540D02*
X0079800Y0049540D01*
X0079800Y0050739D02*
X0046048Y0050739D01*
X0044850Y0051937D02*
X0079800Y0051937D01*
X0079800Y0053136D02*
X0043651Y0053136D01*
X0043358Y0054334D02*
X0050400Y0054334D01*
X0048444Y0055533D02*
X0045038Y0055533D01*
X0045811Y0056732D02*
X0047611Y0056732D01*
X0047200Y0057930D02*
X0046151Y0057930D01*
X0046200Y0059129D02*
X0047200Y0059129D01*
X0047200Y0060327D02*
X0046200Y0060327D01*
X0047200Y0061526D02*
X0042000Y0061526D01*
X0041200Y0061526D02*
X0035900Y0061526D01*
X0035900Y0060887D02*
X0035900Y0074413D01*
X0041130Y0069183D01*
X0040523Y0069087D01*
X0039834Y0068863D01*
X0039189Y0068534D01*
X0038603Y0068109D01*
X0038091Y0067597D01*
X0037666Y0067011D01*
X0037337Y0066366D01*
X0037113Y0065677D01*
X0037000Y0064962D01*
X0037000Y0062000D01*
X0041200Y0062000D01*
X0041200Y0061200D01*
X0037000Y0061200D01*
X0037000Y0059787D01*
X0035900Y0060887D01*
X0036460Y0060327D02*
X0037000Y0060327D01*
X0037000Y0062724D02*
X0035900Y0062724D01*
X0035900Y0063923D02*
X0037000Y0063923D01*
X0037025Y0065121D02*
X0035900Y0065121D01*
X0035900Y0066320D02*
X0037322Y0066320D01*
X0038034Y0067518D02*
X0035900Y0067518D01*
X0035900Y0068717D02*
X0039547Y0068717D01*
X0040398Y0069915D02*
X0035900Y0069915D01*
X0035900Y0071114D02*
X0039199Y0071114D01*
X0038001Y0072312D02*
X0035900Y0072312D01*
X0035900Y0073511D02*
X0036802Y0073511D01*
X0039779Y0075908D02*
X0054205Y0075908D01*
X0053007Y0077106D02*
X0038581Y0077106D01*
X0037700Y0078305D02*
X0051808Y0078305D01*
X0050610Y0079503D02*
X0037700Y0079503D01*
X0037700Y0080702D02*
X0049411Y0080702D01*
X0048213Y0081900D02*
X0037700Y0081900D01*
X0037700Y0083099D02*
X0047014Y0083099D01*
X0045816Y0084297D02*
X0037700Y0084297D01*
X0037700Y0085496D02*
X0044617Y0085496D01*
X0043419Y0086694D02*
X0037700Y0086694D01*
X0037700Y0087893D02*
X0042220Y0087893D01*
X0041022Y0089091D02*
X0037700Y0089091D01*
X0037700Y0090290D02*
X0039823Y0090290D01*
X0038625Y0091488D02*
X0037700Y0091488D01*
X0032100Y0091488D02*
X0006200Y0091488D01*
X0006200Y0090290D02*
X0032100Y0090290D01*
X0032100Y0089091D02*
X0006200Y0089091D01*
X0006200Y0087893D02*
X0032100Y0087893D01*
X0032100Y0086694D02*
X0006200Y0086694D01*
X0006200Y0085496D02*
X0032100Y0085496D01*
X0032100Y0084297D02*
X0006200Y0084297D01*
X0006200Y0083099D02*
X0032100Y0083099D01*
X0032100Y0081900D02*
X0006200Y0081900D01*
X0006200Y0080702D02*
X0032100Y0080702D01*
X0032100Y0079503D02*
X0006200Y0079503D01*
X0006200Y0078305D02*
X0032100Y0078305D01*
X0032100Y0077106D02*
X0006200Y0077106D01*
X0006200Y0075908D02*
X0032100Y0075908D01*
X0032100Y0074709D02*
X0006200Y0074709D01*
X0006200Y0073511D02*
X0032100Y0073511D01*
X0032100Y0072312D02*
X0006200Y0072312D01*
X0006200Y0071114D02*
X0032100Y0071114D01*
X0032100Y0069915D02*
X0006200Y0069915D01*
X0006200Y0068717D02*
X0032100Y0068717D01*
X0032100Y0067518D02*
X0006200Y0067518D01*
X0006200Y0066320D02*
X0032100Y0066320D01*
X0032100Y0065121D02*
X0006200Y0065121D01*
X0006200Y0063923D02*
X0032100Y0063923D01*
X0032100Y0062724D02*
X0006200Y0062724D01*
X0006200Y0061526D02*
X0032100Y0061526D01*
X0032100Y0060327D02*
X0006200Y0060327D01*
X0006200Y0059129D02*
X0032284Y0059129D01*
X0033483Y0057930D02*
X0006200Y0057930D01*
X0006200Y0056732D02*
X0034681Y0056732D01*
X0035880Y0055533D02*
X0006200Y0055533D01*
X0006200Y0054334D02*
X0037078Y0054334D01*
X0038277Y0053136D02*
X0006200Y0053136D01*
X0006200Y0051937D02*
X0039476Y0051937D01*
X0040674Y0050739D02*
X0006200Y0050739D01*
X0006200Y0049540D02*
X0041873Y0049540D01*
X0043071Y0048342D02*
X0006200Y0048342D01*
X0006200Y0047143D02*
X0044270Y0047143D01*
X0045468Y0045945D02*
X0006200Y0045945D01*
X0006200Y0044746D02*
X0046667Y0044746D01*
X0047865Y0043548D02*
X0006200Y0043548D01*
X0006200Y0042349D02*
X0049064Y0042349D01*
X0050262Y0041151D02*
X0006200Y0041151D01*
X0006200Y0039952D02*
X0051461Y0039952D01*
X0050131Y0038754D02*
X0043580Y0038754D01*
X0042000Y0038754D02*
X0041200Y0038754D01*
X0041200Y0037555D02*
X0042000Y0037555D01*
X0042000Y0036357D02*
X0041200Y0036357D01*
X0041200Y0035158D02*
X0042000Y0035158D01*
X0042000Y0033960D02*
X0041200Y0033960D01*
X0041200Y0032761D02*
X0042000Y0032761D01*
X0042000Y0031563D02*
X0047200Y0031563D01*
X0047200Y0032761D02*
X0046200Y0032761D01*
X0046200Y0033960D02*
X0047200Y0033960D01*
X0047200Y0035158D02*
X0046169Y0035158D01*
X0045866Y0036357D02*
X0047565Y0036357D01*
X0048333Y0037555D02*
X0045139Y0037555D01*
X0046200Y0030364D02*
X0047200Y0030364D01*
X0047200Y0029166D02*
X0046200Y0029166D01*
X0046157Y0027967D02*
X0047200Y0027967D01*
X0047596Y0026769D02*
X0045830Y0026769D01*
X0045076Y0025570D02*
X0048407Y0025570D01*
X0050310Y0024372D02*
X0043434Y0024372D01*
X0038124Y0025570D02*
X0022990Y0025570D01*
X0021592Y0026626D02*
X0021592Y0026626D01*
X0027243Y0019578D02*
X0175947Y0019578D01*
X0175591Y0018379D02*
X0027467Y0018379D01*
X0027691Y0017181D02*
X0175591Y0017181D01*
X0175591Y0015982D02*
X0027684Y0015982D01*
X0027460Y0014784D02*
X0175591Y0014784D01*
X0175961Y0013585D02*
X0027236Y0013585D01*
X0026940Y0012387D02*
X0176426Y0012387D01*
X0176890Y0011188D02*
X0026198Y0011188D01*
X0025456Y0009990D02*
X0177729Y0009990D01*
X0177078Y0010704D02*
X0177078Y0010704D01*
X0178821Y0008791D02*
X0024528Y0008791D01*
X0024877Y0009055D02*
X0024877Y0009055D01*
X0024877Y0009055D01*
X0022941Y0007593D02*
X0179990Y0007593D01*
X0182397Y0006394D02*
X0020959Y0006394D01*
X0006200Y0032761D02*
X0037000Y0032761D01*
X0037000Y0033960D02*
X0006200Y0033960D01*
X0006200Y0035158D02*
X0037031Y0035158D01*
X0037334Y0036357D02*
X0006200Y0036357D01*
X0006200Y0037555D02*
X0038061Y0037555D01*
X0039620Y0038754D02*
X0006200Y0038754D01*
X0006200Y0092687D02*
X0032100Y0092687D01*
X0032100Y0093885D02*
X0006200Y0093885D01*
X0006200Y0095084D02*
X0032100Y0095084D01*
X0032100Y0096282D02*
X0006200Y0096282D01*
X0006200Y0097481D02*
X0032100Y0097481D01*
X0032100Y0098679D02*
X0006200Y0098679D01*
X0006200Y0099878D02*
X0032100Y0099878D01*
X0032100Y0101076D02*
X0006200Y0101076D01*
X0006200Y0102275D02*
X0032100Y0102275D01*
X0032100Y0103473D02*
X0006200Y0103473D01*
X0006200Y0104672D02*
X0032100Y0104672D01*
X0032100Y0105870D02*
X0006200Y0105870D01*
X0006200Y0107069D02*
X0032100Y0107069D01*
X0032100Y0108268D02*
X0006200Y0108268D01*
X0006200Y0109466D02*
X0032100Y0109466D01*
X0032100Y0110665D02*
X0006200Y0110665D01*
X0006200Y0111863D02*
X0032100Y0111863D01*
X0032100Y0113062D02*
X0006200Y0113062D01*
X0006200Y0114260D02*
X0032100Y0114260D01*
X0032100Y0115459D02*
X0006200Y0115459D01*
X0006200Y0116657D02*
X0032100Y0116657D01*
X0032100Y0117856D02*
X0006200Y0117856D01*
X0006200Y0119054D02*
X0032100Y0119054D01*
X0032100Y0120253D02*
X0006200Y0120253D01*
X0006200Y0121451D02*
X0032100Y0121451D01*
X0032100Y0122650D02*
X0006200Y0122650D01*
X0006200Y0123848D02*
X0032100Y0123848D01*
X0032100Y0125047D02*
X0006200Y0125047D01*
X0006200Y0126245D02*
X0032100Y0126245D01*
X0032100Y0127444D02*
X0006200Y0127444D01*
X0006200Y0128642D02*
X0032100Y0128642D01*
X0032100Y0129841D02*
X0006200Y0129841D01*
X0006200Y0131039D02*
X0032100Y0131039D01*
X0032100Y0132238D02*
X0006200Y0132238D01*
X0006200Y0133436D02*
X0032100Y0133436D01*
X0032100Y0134635D02*
X0006200Y0134635D01*
X0006200Y0135833D02*
X0032100Y0135833D01*
X0032100Y0137032D02*
X0006200Y0137032D01*
X0006200Y0138230D02*
X0032100Y0138230D01*
X0032100Y0139429D02*
X0006200Y0139429D01*
X0006200Y0140627D02*
X0032100Y0140627D01*
X0032100Y0141826D02*
X0006200Y0141826D01*
X0006200Y0143024D02*
X0032100Y0143024D01*
X0032100Y0144223D02*
X0006200Y0144223D01*
X0006200Y0145421D02*
X0032100Y0145421D01*
X0032100Y0146620D02*
X0006200Y0146620D01*
X0006200Y0147818D02*
X0032100Y0147818D01*
X0032100Y0149017D02*
X0006200Y0149017D01*
X0006200Y0150215D02*
X0032100Y0150215D01*
X0032100Y0151414D02*
X0006200Y0151414D01*
X0006200Y0152612D02*
X0032100Y0152612D01*
X0032100Y0153811D02*
X0006200Y0153811D01*
X0006200Y0155009D02*
X0032100Y0155009D01*
X0032100Y0156208D02*
X0006200Y0156208D01*
X0006200Y0157406D02*
X0032100Y0157406D01*
X0032100Y0158605D02*
X0006200Y0158605D01*
X0006200Y0159803D02*
X0032100Y0159803D01*
X0032100Y0161002D02*
X0006200Y0161002D01*
X0006200Y0162201D02*
X0032100Y0162201D01*
X0032100Y0163399D02*
X0006200Y0163399D01*
X0006200Y0164598D02*
X0032100Y0164598D01*
X0032609Y0165796D02*
X0006200Y0165796D01*
X0006200Y0166995D02*
X0033808Y0166995D01*
X0035006Y0168193D02*
X0006200Y0168193D01*
X0006200Y0169392D02*
X0036205Y0169392D01*
X0037403Y0170590D02*
X0006200Y0170590D01*
X0006200Y0171789D02*
X0037500Y0171789D01*
X0037500Y0172987D02*
X0006200Y0172987D01*
X0006200Y0174186D02*
X0037500Y0174186D01*
X0037500Y0175384D02*
X0006200Y0175384D01*
X0006200Y0176583D02*
X0037500Y0176583D01*
X0037500Y0177781D02*
X0006200Y0177781D01*
X0006200Y0178980D02*
X0037500Y0178980D01*
X0037500Y0180178D02*
X0006200Y0180178D01*
X0006200Y0181377D02*
X0037500Y0181377D01*
X0037500Y0182575D02*
X0006200Y0182575D01*
X0006200Y0183774D02*
X0037500Y0183774D01*
X0037500Y0184972D02*
X0006200Y0184972D01*
X0006200Y0186171D02*
X0037500Y0186171D01*
X0037500Y0187369D02*
X0006200Y0187369D01*
X0006200Y0188568D02*
X0037500Y0188568D01*
X0037500Y0189766D02*
X0006200Y0189766D01*
X0006200Y0190965D02*
X0037500Y0190965D01*
X0037500Y0192163D02*
X0006200Y0192163D01*
X0006200Y0193362D02*
X0037500Y0193362D01*
X0037500Y0194560D02*
X0006200Y0194560D01*
X0006200Y0195759D02*
X0037500Y0195759D01*
X0037500Y0196957D02*
X0006200Y0196957D01*
X0006200Y0198156D02*
X0025822Y0198156D01*
X0024768Y0199354D02*
X0006200Y0199354D01*
X0006200Y0200553D02*
X0024271Y0200553D01*
X0024200Y0201751D02*
X0006200Y0201751D01*
X0006200Y0202950D02*
X0024397Y0202950D01*
X0024926Y0204148D02*
X0006200Y0204148D01*
X0006200Y0205347D02*
X0026148Y0205347D01*
X0026412Y0207744D02*
X0006200Y0207744D01*
X0006200Y0208942D02*
X0025035Y0208942D01*
X0024442Y0210141D02*
X0006200Y0210141D01*
X0006200Y0211339D02*
X0024200Y0211339D01*
X0024226Y0212538D02*
X0006200Y0212538D01*
X0006200Y0213737D02*
X0024722Y0213737D01*
X0025712Y0214935D02*
X0006200Y0214935D01*
X0006200Y0216134D02*
X0037500Y0216134D01*
X0037500Y0217332D02*
X0035794Y0217332D01*
X0037488Y0214935D02*
X0037500Y0214935D01*
X0037500Y0207744D02*
X0036788Y0207744D01*
X0037500Y0206545D02*
X0006200Y0206545D01*
X0006200Y0217332D02*
X0027406Y0217332D01*
X0025447Y0218531D02*
X0006200Y0218531D01*
X0006200Y0219729D02*
X0024612Y0219729D01*
X0024200Y0220928D02*
X0006200Y0220928D01*
X0006200Y0222126D02*
X0024200Y0222126D01*
X0024552Y0223325D02*
X0006200Y0223325D01*
X0006200Y0224523D02*
X0025301Y0224523D01*
X0027053Y0225722D02*
X0006200Y0225722D01*
X0006200Y0226920D02*
X0037500Y0226920D01*
X0037500Y0225722D02*
X0036147Y0225722D01*
X0037341Y0228119D02*
X0037500Y0228119D01*
X0038311Y0234111D02*
X0038824Y0234111D01*
X0040023Y0235310D02*
X0037113Y0235310D01*
X0036699Y0237707D02*
X0042420Y0237707D01*
X0043618Y0238905D02*
X0038128Y0238905D01*
X0038330Y0239108D02*
X0039000Y0240725D01*
X0039000Y0242475D01*
X0038330Y0244092D01*
X0037092Y0245330D01*
X0035475Y0246000D01*
X0027725Y0246000D01*
X0026108Y0245330D01*
X0024870Y0244092D01*
X0024200Y0242475D01*
X0024200Y0240725D01*
X0024870Y0239108D01*
X0026108Y0237870D01*
X0027725Y0237200D01*
X0035475Y0237200D01*
X0037092Y0237870D01*
X0038330Y0239108D01*
X0038743Y0240104D02*
X0044817Y0240104D01*
X0046015Y0241302D02*
X0039000Y0241302D01*
X0038989Y0242501D02*
X0047214Y0242501D01*
X0048412Y0243699D02*
X0038493Y0243699D01*
X0037525Y0244898D02*
X0049611Y0244898D01*
X0050809Y0246096D02*
X0006200Y0246096D01*
X0006200Y0244898D02*
X0025675Y0244898D01*
X0024707Y0243699D02*
X0006200Y0243699D01*
X0006200Y0242501D02*
X0024211Y0242501D01*
X0024200Y0241302D02*
X0006200Y0241302D01*
X0006200Y0240104D02*
X0024457Y0240104D01*
X0025072Y0238905D02*
X0006200Y0238905D01*
X0006200Y0237707D02*
X0026501Y0237707D01*
X0026087Y0235310D02*
X0006200Y0235310D01*
X0006200Y0236508D02*
X0041221Y0236508D01*
X0044198Y0234111D02*
X0062120Y0234111D01*
X0062276Y0234489D02*
X0061500Y0232614D01*
X0061500Y0230586D01*
X0062276Y0228711D01*
X0063711Y0227276D01*
X0065344Y0226600D01*
X0063711Y0225924D01*
X0062276Y0224489D01*
X0061500Y0222614D01*
X0061500Y0220586D01*
X0062276Y0218711D01*
X0063711Y0217276D01*
X0065344Y0216600D01*
X0063711Y0215924D01*
X0062276Y0214489D01*
X0061500Y0212614D01*
X0061500Y0210586D01*
X0062276Y0208711D01*
X0063711Y0207276D01*
X0065344Y0206600D01*
X0063711Y0205924D01*
X0062276Y0204489D01*
X0061500Y0202614D01*
X0061500Y0200586D01*
X0062276Y0198711D01*
X0063711Y0197276D01*
X0065586Y0196500D01*
X0067614Y0196500D01*
X0069489Y0197276D01*
X0070924Y0198711D01*
X0071700Y0200586D01*
X0071700Y0202614D01*
X0070924Y0204489D01*
X0069489Y0205924D01*
X0067856Y0206600D01*
X0069489Y0207276D01*
X0070924Y0208711D01*
X0071700Y0210586D01*
X0071700Y0212614D01*
X0070924Y0214489D01*
X0069489Y0215924D01*
X0067856Y0216600D01*
X0069489Y0217276D01*
X0070924Y0218711D01*
X0071700Y0220586D01*
X0071700Y0222614D01*
X0070924Y0224489D01*
X0069489Y0225924D01*
X0067856Y0226600D01*
X0069489Y0227276D01*
X0070924Y0228711D01*
X0071499Y0230100D01*
X0094187Y0230100D01*
X0106000Y0241913D01*
X0108813Y0239100D01*
X0138513Y0239100D01*
X0175913Y0201700D01*
X0175586Y0201700D01*
X0173711Y0200924D01*
X0172276Y0199489D01*
X0171600Y0197856D01*
X0170924Y0199489D01*
X0169489Y0200924D01*
X0167614Y0201700D01*
X0165586Y0201700D01*
X0163711Y0200924D01*
X0162276Y0199489D01*
X0161600Y0197856D01*
X0160924Y0199489D01*
X0159489Y0200924D01*
X0157614Y0201700D01*
X0155586Y0201700D01*
X0153711Y0200924D01*
X0152276Y0199489D01*
X0151600Y0197856D01*
X0150924Y0199489D01*
X0149489Y0200924D01*
X0147614Y0201700D01*
X0145586Y0201700D01*
X0143711Y0200924D01*
X0142276Y0199489D01*
X0141600Y0197856D01*
X0140924Y0199489D01*
X0139489Y0200924D01*
X0137614Y0201700D01*
X0135586Y0201700D01*
X0133711Y0200924D01*
X0132276Y0199489D01*
X0131600Y0197856D01*
X0130924Y0199489D01*
X0129489Y0200924D01*
X0127614Y0201700D01*
X0125586Y0201700D01*
X0123711Y0200924D01*
X0122276Y0199489D01*
X0121600Y0197856D01*
X0120924Y0199489D01*
X0119489Y0200924D01*
X0117614Y0201700D01*
X0115586Y0201700D01*
X0113711Y0200924D01*
X0112276Y0199489D01*
X0111600Y0197856D01*
X0110924Y0199489D01*
X0109489Y0200924D01*
X0107614Y0201700D01*
X0105586Y0201700D01*
X0103711Y0200924D01*
X0102276Y0199489D01*
X0101600Y0197856D01*
X0100924Y0199489D01*
X0099489Y0200924D01*
X0097614Y0201700D01*
X0097287Y0201700D01*
X0119698Y0224111D01*
X0119724Y0224100D01*
X0121076Y0224100D01*
X0122326Y0224618D01*
X0123282Y0225574D01*
X0123800Y0226824D01*
X0123800Y0228176D01*
X0123282Y0229426D01*
X0122326Y0230382D01*
X0121076Y0230900D01*
X0119724Y0230900D01*
X0118474Y0230382D01*
X0117518Y0229426D01*
X0117000Y0228176D01*
X0117000Y0226824D01*
X0117011Y0226798D01*
X0113897Y0223684D01*
X0113382Y0224926D01*
X0112426Y0225882D01*
X0111176Y0226400D01*
X0109824Y0226400D01*
X0108574Y0225882D01*
X0107618Y0224926D01*
X0107100Y0223676D01*
X0107100Y0222324D01*
X0107111Y0222298D01*
X0092302Y0207489D01*
X0092276Y0207500D01*
X0090924Y0207500D01*
X0089674Y0206982D01*
X0088718Y0206026D01*
X0088200Y0204776D01*
X0088200Y0203424D01*
X0088718Y0202174D01*
X0089674Y0201218D01*
X0090916Y0200703D01*
X0090813Y0200600D01*
X0090313Y0200100D01*
X0089489Y0200924D01*
X0087614Y0201700D01*
X0085586Y0201700D01*
X0083711Y0200924D01*
X0082276Y0199489D01*
X0081600Y0197856D01*
X0080924Y0199489D01*
X0079489Y0200924D01*
X0077614Y0201700D01*
X0075586Y0201700D01*
X0073711Y0200924D01*
X0072276Y0199489D01*
X0071500Y0197614D01*
X0071500Y0195586D01*
X0072276Y0193711D01*
X0073711Y0192276D01*
X0075586Y0191500D01*
X0077614Y0191500D01*
X0079489Y0192276D01*
X0080924Y0193711D01*
X0081600Y0195344D01*
X0082276Y0193711D01*
X0083711Y0192276D01*
X0085586Y0191500D01*
X0087614Y0191500D01*
X0089489Y0192276D01*
X0090163Y0192950D01*
X0096900Y0186213D01*
X0097813Y0185300D01*
X0054813Y0185300D01*
X0053700Y0184187D01*
X0041300Y0171787D01*
X0041300Y0231213D01*
X0062087Y0252000D01*
X0066200Y0252000D01*
X0066200Y0251200D01*
X0061300Y0251200D01*
X0061300Y0251183D01*
X0061430Y0250359D01*
X0061688Y0249566D01*
X0062067Y0248822D01*
X0062557Y0248147D01*
X0063147Y0247557D01*
X0063822Y0247067D01*
X0064566Y0246688D01*
X0065121Y0246508D01*
X0063711Y0245924D01*
X0062276Y0244489D01*
X0061500Y0242614D01*
X0061500Y0240586D01*
X0062276Y0238711D01*
X0063711Y0237276D01*
X0065344Y0236600D01*
X0063711Y0235924D01*
X0062276Y0234489D01*
X0063097Y0235310D02*
X0045397Y0235310D01*
X0046595Y0236508D02*
X0065123Y0236508D01*
X0063281Y0237707D02*
X0047794Y0237707D01*
X0048992Y0238905D02*
X0062196Y0238905D01*
X0061700Y0240104D02*
X0050191Y0240104D01*
X0051389Y0241302D02*
X0061500Y0241302D01*
X0061500Y0242501D02*
X0052588Y0242501D01*
X0053786Y0243699D02*
X0061949Y0243699D01*
X0062685Y0244898D02*
X0054985Y0244898D01*
X0056183Y0246096D02*
X0064128Y0246096D01*
X0063509Y0247295D02*
X0057382Y0247295D01*
X0058580Y0248493D02*
X0062306Y0248493D01*
X0061647Y0249692D02*
X0059779Y0249692D01*
X0060977Y0250890D02*
X0061346Y0250890D01*
X0059199Y0254486D02*
X0038189Y0254486D01*
X0038109Y0254597D02*
X0037597Y0255109D01*
X0037011Y0255534D01*
X0036366Y0255863D01*
X0035677Y0256087D01*
X0034962Y0256200D01*
X0032000Y0256200D01*
X0032000Y0252000D01*
X0031200Y0252000D01*
X0031200Y0256200D01*
X0028238Y0256200D01*
X0027523Y0256087D01*
X0026834Y0255863D01*
X0026189Y0255534D01*
X0025603Y0255109D01*
X0025091Y0254597D01*
X0024666Y0254011D01*
X0024337Y0253366D01*
X0024113Y0252677D01*
X0024006Y0252000D01*
X0031200Y0252000D01*
X0031200Y0251200D01*
X0032000Y0251200D01*
X0032000Y0252000D01*
X0039194Y0252000D01*
X0039087Y0252677D01*
X0038863Y0253366D01*
X0038534Y0254011D01*
X0038109Y0254597D01*
X0038888Y0253287D02*
X0058000Y0253287D01*
X0056802Y0252089D02*
X0039180Y0252089D01*
X0039194Y0251200D02*
X0032000Y0251200D01*
X0032000Y0247000D01*
X0034962Y0247000D01*
X0035677Y0247113D01*
X0036366Y0247337D01*
X0037011Y0247666D01*
X0037597Y0248091D01*
X0038109Y0248603D01*
X0038534Y0249189D01*
X0038863Y0249834D01*
X0039087Y0250523D01*
X0039194Y0251200D01*
X0039145Y0250890D02*
X0055603Y0250890D01*
X0054405Y0249692D02*
X0038790Y0249692D01*
X0037999Y0248493D02*
X0053206Y0248493D01*
X0052008Y0247295D02*
X0036236Y0247295D01*
X0032000Y0247295D02*
X0031200Y0247295D01*
X0031200Y0247000D02*
X0031200Y0251200D01*
X0024006Y0251200D01*
X0024113Y0250523D01*
X0024337Y0249834D01*
X0024666Y0249189D01*
X0025091Y0248603D01*
X0025603Y0248091D01*
X0026189Y0247666D01*
X0026834Y0247337D01*
X0027523Y0247113D01*
X0028238Y0247000D01*
X0031200Y0247000D01*
X0031200Y0248493D02*
X0032000Y0248493D01*
X0032000Y0249692D02*
X0031200Y0249692D01*
X0031200Y0250890D02*
X0032000Y0250890D01*
X0032000Y0252089D02*
X0031200Y0252089D01*
X0031200Y0253287D02*
X0032000Y0253287D01*
X0032000Y0254486D02*
X0031200Y0254486D01*
X0031200Y0255684D02*
X0032000Y0255684D01*
X0026484Y0255684D02*
X0006200Y0255684D01*
X0006200Y0254486D02*
X0025011Y0254486D01*
X0024312Y0253287D02*
X0006200Y0253287D01*
X0006200Y0252089D02*
X0024020Y0252089D01*
X0024055Y0250890D02*
X0006200Y0250890D01*
X0006200Y0249692D02*
X0024410Y0249692D01*
X0025201Y0248493D02*
X0006200Y0248493D01*
X0006200Y0247295D02*
X0026964Y0247295D01*
X0024889Y0234111D02*
X0006200Y0234111D01*
X0006200Y0232913D02*
X0024381Y0232913D01*
X0024200Y0231714D02*
X0006200Y0231714D01*
X0006200Y0230516D02*
X0024287Y0230516D01*
X0024783Y0229317D02*
X0006200Y0229317D01*
X0006200Y0228119D02*
X0025859Y0228119D01*
X0037052Y0205347D02*
X0037500Y0205347D01*
X0041300Y0205347D02*
X0063134Y0205347D01*
X0062135Y0204148D02*
X0041300Y0204148D01*
X0041300Y0202950D02*
X0061639Y0202950D01*
X0061500Y0201751D02*
X0041300Y0201751D01*
X0041300Y0200553D02*
X0061514Y0200553D01*
X0062010Y0199354D02*
X0041300Y0199354D01*
X0041300Y0198156D02*
X0062832Y0198156D01*
X0064481Y0196957D02*
X0041300Y0196957D01*
X0041300Y0195759D02*
X0071500Y0195759D01*
X0071500Y0196957D02*
X0068719Y0196957D01*
X0070368Y0198156D02*
X0071724Y0198156D01*
X0072221Y0199354D02*
X0071190Y0199354D01*
X0071686Y0200553D02*
X0073340Y0200553D01*
X0071700Y0201751D02*
X0089140Y0201751D01*
X0089860Y0200553D02*
X0090766Y0200553D01*
X0088396Y0202950D02*
X0071561Y0202950D01*
X0071065Y0204148D02*
X0088200Y0204148D01*
X0088436Y0205347D02*
X0070066Y0205347D01*
X0067988Y0206545D02*
X0089237Y0206545D01*
X0092557Y0207744D02*
X0069956Y0207744D01*
X0071019Y0208942D02*
X0093755Y0208942D01*
X0094954Y0210141D02*
X0071516Y0210141D01*
X0071700Y0211339D02*
X0096152Y0211339D01*
X0097351Y0212538D02*
X0071700Y0212538D01*
X0071235Y0213737D02*
X0098550Y0213737D01*
X0099748Y0214935D02*
X0070477Y0214935D01*
X0068982Y0216134D02*
X0100947Y0216134D01*
X0102145Y0217332D02*
X0069545Y0217332D01*
X0070743Y0218531D02*
X0103344Y0218531D01*
X0104542Y0219729D02*
X0071345Y0219729D01*
X0071700Y0220928D02*
X0105741Y0220928D01*
X0106939Y0222126D02*
X0071700Y0222126D01*
X0071406Y0223325D02*
X0107100Y0223325D01*
X0107451Y0224523D02*
X0070889Y0224523D01*
X0069691Y0225722D02*
X0108413Y0225722D01*
X0112587Y0225722D02*
X0115935Y0225722D01*
X0117000Y0226920D02*
X0068629Y0226920D01*
X0070331Y0228119D02*
X0117000Y0228119D01*
X0117473Y0229317D02*
X0071175Y0229317D01*
X0064571Y0226920D02*
X0041300Y0226920D01*
X0041300Y0225722D02*
X0063509Y0225722D01*
X0062311Y0224523D02*
X0041300Y0224523D01*
X0041300Y0223325D02*
X0061794Y0223325D01*
X0061500Y0222126D02*
X0041300Y0222126D01*
X0041300Y0220928D02*
X0061500Y0220928D01*
X0061855Y0219729D02*
X0041300Y0219729D01*
X0041300Y0218531D02*
X0062457Y0218531D01*
X0063655Y0217332D02*
X0041300Y0217332D01*
X0041300Y0216134D02*
X0064218Y0216134D01*
X0062723Y0214935D02*
X0041300Y0214935D01*
X0041300Y0213737D02*
X0061965Y0213737D01*
X0061500Y0212538D02*
X0041300Y0212538D01*
X0041300Y0211339D02*
X0061500Y0211339D01*
X0061684Y0210141D02*
X0041300Y0210141D01*
X0041300Y0208942D02*
X0062181Y0208942D01*
X0063244Y0207744D02*
X0041300Y0207744D01*
X0041300Y0206545D02*
X0065212Y0206545D01*
X0071925Y0194560D02*
X0041300Y0194560D01*
X0041300Y0193362D02*
X0072626Y0193362D01*
X0073984Y0192163D02*
X0041300Y0192163D01*
X0041300Y0190965D02*
X0092148Y0190965D01*
X0090950Y0192163D02*
X0089216Y0192163D01*
X0093347Y0189766D02*
X0041300Y0189766D01*
X0041300Y0188568D02*
X0094545Y0188568D01*
X0095744Y0187369D02*
X0041300Y0187369D01*
X0041300Y0186171D02*
X0096942Y0186171D01*
X0101476Y0198156D02*
X0101724Y0198156D01*
X0102221Y0199354D02*
X0100979Y0199354D01*
X0099860Y0200553D02*
X0103340Y0200553D01*
X0099735Y0204148D02*
X0173465Y0204148D01*
X0174663Y0202950D02*
X0098537Y0202950D01*
X0097338Y0201751D02*
X0175862Y0201751D01*
X0173340Y0200553D02*
X0169860Y0200553D01*
X0170979Y0199354D02*
X0172221Y0199354D01*
X0171724Y0198156D02*
X0171476Y0198156D01*
X0171600Y0195344D02*
X0172276Y0193711D01*
X0173711Y0192276D01*
X0175586Y0191500D01*
X0176213Y0191500D01*
X0156513Y0171800D01*
X0155566Y0171800D01*
X0153654Y0171008D01*
X0152192Y0169546D01*
X0151704Y0168367D01*
X0151604Y0168673D01*
X0151218Y0169430D01*
X0150719Y0170118D01*
X0150118Y0170719D01*
X0149430Y0171218D01*
X0148673Y0171604D01*
X0147865Y0171867D01*
X0147025Y0172000D01*
X0146984Y0172000D01*
X0146984Y0166984D01*
X0146216Y0166984D01*
X0146216Y0172000D01*
X0146175Y0172000D01*
X0145335Y0171867D01*
X0144527Y0171604D01*
X0143770Y0171218D01*
X0143082Y0170719D01*
X0142481Y0170118D01*
X0141982Y0169430D01*
X0141596Y0168673D01*
X0141496Y0168367D01*
X0141008Y0169546D01*
X0139546Y0171008D01*
X0137634Y0171800D01*
X0135566Y0171800D01*
X0133654Y0171008D01*
X0132192Y0169546D01*
X0131600Y0168117D01*
X0131008Y0169546D01*
X0129546Y0171008D01*
X0127634Y0171800D01*
X0125566Y0171800D01*
X0123654Y0171008D01*
X0122192Y0169546D01*
X0121600Y0168117D01*
X0121008Y0169546D01*
X0119546Y0171008D01*
X0117634Y0171800D01*
X0115566Y0171800D01*
X0113654Y0171008D01*
X0112192Y0169546D01*
X0111704Y0168367D01*
X0111604Y0168673D01*
X0111218Y0169430D01*
X0110719Y0170118D01*
X0110118Y0170719D01*
X0109430Y0171218D01*
X0108673Y0171604D01*
X0107865Y0171867D01*
X0107025Y0172000D01*
X0106984Y0172000D01*
X0106984Y0166984D01*
X0106216Y0166984D01*
X0106216Y0166216D01*
X0106984Y0166216D01*
X0106984Y0161200D01*
X0107025Y0161200D01*
X0107865Y0161333D01*
X0108673Y0161596D01*
X0109430Y0161982D01*
X0110118Y0162481D01*
X0110719Y0163082D01*
X0111218Y0163770D01*
X0111604Y0164527D01*
X0111704Y0164833D01*
X0112192Y0163654D01*
X0113654Y0162192D01*
X0115566Y0161400D01*
X0117634Y0161400D01*
X0119546Y0162192D01*
X0121008Y0163654D01*
X0121600Y0165083D01*
X0122192Y0163654D01*
X0123654Y0162192D01*
X0125566Y0161400D01*
X0127634Y0161400D01*
X0129546Y0162192D01*
X0131008Y0163654D01*
X0131600Y0165083D01*
X0132192Y0163654D01*
X0133654Y0162192D01*
X0135566Y0161400D01*
X0137634Y0161400D01*
X0139546Y0162192D01*
X0141008Y0163654D01*
X0141496Y0164833D01*
X0141596Y0164527D01*
X0141982Y0163770D01*
X0142481Y0163082D01*
X0143082Y0162481D01*
X0143770Y0161982D01*
X0144527Y0161596D01*
X0145335Y0161333D01*
X0146175Y0161200D01*
X0146216Y0161200D01*
X0146216Y0166216D01*
X0146984Y0166216D01*
X0146984Y0161200D01*
X0147025Y0161200D01*
X0147865Y0161333D01*
X0148673Y0161596D01*
X0149430Y0161982D01*
X0150118Y0162481D01*
X0150719Y0163082D01*
X0151218Y0163770D01*
X0151604Y0164527D01*
X0151704Y0164833D01*
X0152192Y0163654D01*
X0153654Y0162192D01*
X0155566Y0161400D01*
X0156013Y0161400D01*
X0100713Y0106100D01*
X0043113Y0106100D01*
X0038613Y0101600D01*
X0037700Y0100687D01*
X0037700Y0125217D01*
X0037878Y0124908D01*
X0039908Y0122878D01*
X0042393Y0121444D01*
X0045165Y0120701D01*
X0048035Y0120701D01*
X0050807Y0121444D01*
X0053292Y0122878D01*
X0055322Y0124908D01*
X0056756Y0127393D01*
X0057499Y0130165D01*
X0057499Y0133035D01*
X0056756Y0135807D01*
X0055322Y0138292D01*
X0053292Y0140322D01*
X0050807Y0141756D01*
X0048035Y0142499D01*
X0045165Y0142499D01*
X0042393Y0141756D01*
X0039908Y0140322D01*
X0037878Y0138292D01*
X0037700Y0137983D01*
X0037700Y0162813D01*
X0041400Y0166513D01*
X0041400Y0165566D01*
X0042192Y0163654D01*
X0043654Y0162192D01*
X0045566Y0161400D01*
X0047634Y0161400D01*
X0049546Y0162192D01*
X0051008Y0163654D01*
X0051600Y0165083D01*
X0052192Y0163654D01*
X0053654Y0162192D01*
X0055566Y0161400D01*
X0057634Y0161400D01*
X0059546Y0162192D01*
X0061008Y0163654D01*
X0061600Y0165083D01*
X0062192Y0163654D01*
X0063654Y0162192D01*
X0065566Y0161400D01*
X0067634Y0161400D01*
X0069546Y0162192D01*
X0071008Y0163654D01*
X0071600Y0165083D01*
X0072192Y0163654D01*
X0073654Y0162192D01*
X0075566Y0161400D01*
X0077634Y0161400D01*
X0079546Y0162192D01*
X0081008Y0163654D01*
X0081496Y0164833D01*
X0081596Y0164527D01*
X0081982Y0163770D01*
X0082481Y0163082D01*
X0083082Y0162481D01*
X0083770Y0161982D01*
X0084527Y0161596D01*
X0085335Y0161333D01*
X0086175Y0161200D01*
X0086216Y0161200D01*
X0086216Y0166216D01*
X0086984Y0166216D01*
X0086984Y0161200D01*
X0087025Y0161200D01*
X0087865Y0161333D01*
X0088673Y0161596D01*
X0089430Y0161982D01*
X0090118Y0162481D01*
X0090719Y0163082D01*
X0091218Y0163770D01*
X0091600Y0164519D01*
X0091982Y0163770D01*
X0092481Y0163082D01*
X0093082Y0162481D01*
X0093770Y0161982D01*
X0094527Y0161596D01*
X0095335Y0161333D01*
X0096175Y0161200D01*
X0096216Y0161200D01*
X0096216Y0166216D01*
X0086984Y0166216D01*
X0086984Y0166984D01*
X0092000Y0166984D01*
X0096216Y0166984D01*
X0096216Y0166216D01*
X0096984Y0166216D01*
X0096984Y0161200D01*
X0097025Y0161200D01*
X0097865Y0161333D01*
X0098673Y0161596D01*
X0099430Y0161982D01*
X0100118Y0162481D01*
X0100719Y0163082D01*
X0101218Y0163770D01*
X0101600Y0164519D01*
X0101982Y0163770D01*
X0102481Y0163082D01*
X0103082Y0162481D01*
X0103770Y0161982D01*
X0104527Y0161596D01*
X0105335Y0161333D01*
X0106175Y0161200D01*
X0106216Y0161200D01*
X0106216Y0166216D01*
X0096984Y0166216D01*
X0096984Y0166984D01*
X0096216Y0166984D01*
X0096216Y0172000D01*
X0096175Y0172000D01*
X0095335Y0171867D01*
X0094527Y0171604D01*
X0093770Y0171218D01*
X0093082Y0170719D01*
X0092481Y0170118D01*
X0091982Y0169430D01*
X0091600Y0168681D01*
X0091218Y0169430D01*
X0090719Y0170118D01*
X0090118Y0170719D01*
X0089430Y0171218D01*
X0088673Y0171604D01*
X0087865Y0171867D01*
X0087025Y0172000D01*
X0086984Y0172000D01*
X0086984Y0166984D01*
X0086216Y0166984D01*
X0086216Y0172000D01*
X0086175Y0172000D01*
X0085335Y0171867D01*
X0084527Y0171604D01*
X0083770Y0171218D01*
X0083082Y0170719D01*
X0082481Y0170118D01*
X0081982Y0169430D01*
X0081596Y0168673D01*
X0081496Y0168367D01*
X0081008Y0169546D01*
X0079546Y0171008D01*
X0077634Y0171800D01*
X0075566Y0171800D01*
X0073654Y0171008D01*
X0072192Y0169546D01*
X0071600Y0168117D01*
X0071008Y0169546D01*
X0069546Y0171008D01*
X0067634Y0171800D01*
X0065566Y0171800D01*
X0063654Y0171008D01*
X0062192Y0169546D01*
X0061600Y0168117D01*
X0061008Y0169546D01*
X0059546Y0171008D01*
X0057634Y0171800D01*
X0055566Y0171800D01*
X0053654Y0171008D01*
X0052192Y0169546D01*
X0051600Y0168117D01*
X0051008Y0169546D01*
X0049546Y0171008D01*
X0047634Y0171800D01*
X0046687Y0171800D01*
X0056387Y0181500D01*
X0144587Y0181500D01*
X0154879Y0191792D01*
X0155586Y0191500D01*
X0157614Y0191500D01*
X0159489Y0192276D01*
X0160924Y0193711D01*
X0161600Y0195344D01*
X0162276Y0193711D01*
X0163711Y0192276D01*
X0165586Y0191500D01*
X0167614Y0191500D01*
X0169489Y0192276D01*
X0170924Y0193711D01*
X0171600Y0195344D01*
X0171275Y0194560D02*
X0171925Y0194560D01*
X0172626Y0193362D02*
X0170574Y0193362D01*
X0169216Y0192163D02*
X0173984Y0192163D01*
X0175678Y0190965D02*
X0154052Y0190965D01*
X0152853Y0189766D02*
X0174479Y0189766D01*
X0173281Y0188568D02*
X0151655Y0188568D01*
X0150456Y0187369D02*
X0172082Y0187369D01*
X0170884Y0186171D02*
X0149258Y0186171D01*
X0148059Y0184972D02*
X0169685Y0184972D01*
X0168487Y0183774D02*
X0146861Y0183774D01*
X0145662Y0182575D02*
X0167288Y0182575D01*
X0166090Y0181377D02*
X0056264Y0181377D01*
X0055065Y0180178D02*
X0164891Y0180178D01*
X0163693Y0178980D02*
X0053867Y0178980D01*
X0052668Y0177781D02*
X0162494Y0177781D01*
X0161296Y0176583D02*
X0051470Y0176583D01*
X0050271Y0175384D02*
X0160097Y0175384D01*
X0158899Y0174186D02*
X0049073Y0174186D01*
X0047874Y0172987D02*
X0157700Y0172987D01*
X0155538Y0171789D02*
X0148106Y0171789D01*
X0146984Y0171789D02*
X0146216Y0171789D01*
X0145094Y0171789D02*
X0137662Y0171789D01*
X0135538Y0171789D02*
X0127662Y0171789D01*
X0125538Y0171789D02*
X0117662Y0171789D01*
X0115538Y0171789D02*
X0108106Y0171789D01*
X0106984Y0171789D02*
X0106216Y0171789D01*
X0106216Y0172000D02*
X0106175Y0172000D01*
X0105335Y0171867D01*
X0104527Y0171604D01*
X0103770Y0171218D01*
X0103082Y0170719D01*
X0102481Y0170118D01*
X0101982Y0169430D01*
X0101600Y0168681D01*
X0101218Y0169430D01*
X0100719Y0170118D01*
X0100118Y0170719D01*
X0099430Y0171218D01*
X0098673Y0171604D01*
X0097865Y0171867D01*
X0097025Y0172000D01*
X0096984Y0172000D01*
X0096984Y0166984D01*
X0101200Y0166984D01*
X0106216Y0166984D01*
X0106216Y0172000D01*
X0105094Y0171789D02*
X0098106Y0171789D01*
X0096984Y0171789D02*
X0096216Y0171789D01*
X0095094Y0171789D02*
X0088106Y0171789D01*
X0086984Y0171789D02*
X0086216Y0171789D01*
X0085094Y0171789D02*
X0077662Y0171789D01*
X0075538Y0171789D02*
X0067662Y0171789D01*
X0065538Y0171789D02*
X0057662Y0171789D01*
X0055538Y0171789D02*
X0047662Y0171789D01*
X0049964Y0170590D02*
X0053236Y0170590D01*
X0052128Y0169392D02*
X0051072Y0169392D01*
X0051569Y0168193D02*
X0051631Y0168193D01*
X0051801Y0164598D02*
X0051399Y0164598D01*
X0050753Y0163399D02*
X0052447Y0163399D01*
X0053646Y0162201D02*
X0049554Y0162201D01*
X0043646Y0162201D02*
X0037700Y0162201D01*
X0037700Y0161002D02*
X0155615Y0161002D01*
X0154417Y0159803D02*
X0037700Y0159803D01*
X0037700Y0158605D02*
X0153218Y0158605D01*
X0152019Y0157406D02*
X0037700Y0157406D01*
X0037700Y0156208D02*
X0150821Y0156208D01*
X0149622Y0155009D02*
X0037700Y0155009D01*
X0037700Y0153811D02*
X0148424Y0153811D01*
X0147225Y0152612D02*
X0037700Y0152612D01*
X0037700Y0151414D02*
X0146027Y0151414D01*
X0144828Y0150215D02*
X0037700Y0150215D01*
X0037700Y0149017D02*
X0143630Y0149017D01*
X0142431Y0147818D02*
X0037700Y0147818D01*
X0037700Y0146620D02*
X0141233Y0146620D01*
X0140034Y0145421D02*
X0037700Y0145421D01*
X0037700Y0144223D02*
X0138836Y0144223D01*
X0137637Y0143024D02*
X0037700Y0143024D01*
X0037700Y0141826D02*
X0042652Y0141826D01*
X0040437Y0140627D02*
X0037700Y0140627D01*
X0037700Y0139429D02*
X0039015Y0139429D01*
X0037843Y0138230D02*
X0037700Y0138230D01*
X0037700Y0125047D02*
X0037798Y0125047D01*
X0037700Y0123848D02*
X0038938Y0123848D01*
X0037700Y0122650D02*
X0040304Y0122650D01*
X0042380Y0121451D02*
X0037700Y0121451D01*
X0037700Y0120253D02*
X0114866Y0120253D01*
X0116064Y0121451D02*
X0050820Y0121451D01*
X0052896Y0122650D02*
X0117263Y0122650D01*
X0118461Y0123848D02*
X0054262Y0123848D01*
X0055402Y0125047D02*
X0119660Y0125047D01*
X0120858Y0126245D02*
X0056094Y0126245D01*
X0056770Y0127444D02*
X0122057Y0127444D01*
X0123255Y0128642D02*
X0057091Y0128642D01*
X0057412Y0129841D02*
X0124454Y0129841D01*
X0125652Y0131039D02*
X0057499Y0131039D01*
X0057499Y0132238D02*
X0126851Y0132238D01*
X0128049Y0133436D02*
X0057392Y0133436D01*
X0057071Y0134635D02*
X0129248Y0134635D01*
X0130446Y0135833D02*
X0056741Y0135833D01*
X0056049Y0137032D02*
X0131645Y0137032D01*
X0132843Y0138230D02*
X0055357Y0138230D01*
X0054185Y0139429D02*
X0134042Y0139429D01*
X0135240Y0140627D02*
X0052763Y0140627D01*
X0050548Y0141826D02*
X0136439Y0141826D01*
X0139719Y0137032D02*
X0147151Y0137032D01*
X0147843Y0138230D02*
X0140917Y0138230D01*
X0142116Y0139429D02*
X0149015Y0139429D01*
X0150437Y0140627D02*
X0143314Y0140627D01*
X0144513Y0141826D02*
X0152652Y0141826D01*
X0149307Y0146620D02*
X0166200Y0146620D01*
X0166200Y0147818D02*
X0150505Y0147818D01*
X0151704Y0149017D02*
X0166200Y0149017D01*
X0166198Y0150215D02*
X0152902Y0150215D01*
X0154101Y0151414D02*
X0163307Y0151414D01*
X0161679Y0152612D02*
X0155299Y0152612D01*
X0156498Y0153811D02*
X0161147Y0153811D01*
X0161100Y0155009D02*
X0157696Y0155009D01*
X0158895Y0156208D02*
X0161486Y0156208D01*
X0162498Y0157406D02*
X0160093Y0157406D01*
X0161292Y0158605D02*
X0193850Y0158605D01*
X0193850Y0159803D02*
X0162490Y0159803D01*
X0163689Y0161002D02*
X0193850Y0161002D01*
X0193850Y0162201D02*
X0164888Y0162201D01*
X0166086Y0163399D02*
X0193850Y0163399D01*
X0193850Y0164598D02*
X0167285Y0164598D01*
X0168483Y0165796D02*
X0193850Y0165796D01*
X0193850Y0166995D02*
X0169682Y0166995D01*
X0170880Y0168193D02*
X0193850Y0168193D01*
X0193850Y0169392D02*
X0172079Y0169392D01*
X0173277Y0170590D02*
X0193850Y0170590D01*
X0193850Y0171789D02*
X0174476Y0171789D01*
X0175674Y0172987D02*
X0193850Y0172987D01*
X0193850Y0174186D02*
X0176873Y0174186D01*
X0178071Y0175384D02*
X0193850Y0175384D01*
X0193850Y0176583D02*
X0179270Y0176583D01*
X0180468Y0177781D02*
X0182462Y0177781D01*
X0186138Y0177781D02*
X0193850Y0177781D01*
X0193850Y0178980D02*
X0187268Y0178980D01*
X0187700Y0180178D02*
X0193850Y0180178D01*
X0193850Y0181377D02*
X0187700Y0181377D01*
X0187203Y0182575D02*
X0193850Y0182575D01*
X0193850Y0183774D02*
X0185764Y0183774D01*
X0184959Y0184972D02*
X0193850Y0184972D01*
X0193850Y0186171D02*
X0186158Y0186171D01*
X0187356Y0187369D02*
X0193850Y0187369D01*
X0193850Y0188568D02*
X0188555Y0188568D01*
X0189753Y0189766D02*
X0193850Y0189766D01*
X0193850Y0190965D02*
X0190952Y0190965D01*
X0192150Y0192163D02*
X0193850Y0192163D01*
X0193850Y0193362D02*
X0193349Y0193362D01*
X0193234Y0200553D02*
X0193850Y0200553D01*
X0193850Y0201751D02*
X0192036Y0201751D01*
X0190837Y0202950D02*
X0193850Y0202950D01*
X0193850Y0204148D02*
X0189639Y0204148D01*
X0188440Y0205347D02*
X0193850Y0205347D01*
X0193850Y0206545D02*
X0187242Y0206545D01*
X0186043Y0207744D02*
X0193850Y0207744D01*
X0193850Y0208942D02*
X0184845Y0208942D01*
X0183646Y0210141D02*
X0193850Y0210141D01*
X0193850Y0211339D02*
X0182448Y0211339D01*
X0181249Y0212538D02*
X0193850Y0212538D01*
X0193850Y0213737D02*
X0180050Y0213737D01*
X0178852Y0214935D02*
X0193850Y0214935D01*
X0193850Y0216134D02*
X0177653Y0216134D01*
X0176455Y0217332D02*
X0193850Y0217332D01*
X0193850Y0218531D02*
X0175256Y0218531D01*
X0174058Y0219729D02*
X0193850Y0219729D01*
X0193850Y0220928D02*
X0172859Y0220928D01*
X0171661Y0222126D02*
X0193850Y0222126D01*
X0193850Y0223325D02*
X0170462Y0223325D01*
X0169264Y0224523D02*
X0193850Y0224523D01*
X0193850Y0225722D02*
X0169100Y0225722D01*
X0169100Y0226920D02*
X0193850Y0226920D01*
X0193850Y0228119D02*
X0169100Y0228119D01*
X0169100Y0229317D02*
X0193850Y0229317D01*
X0193850Y0230516D02*
X0169100Y0230516D01*
X0169100Y0231714D02*
X0193850Y0231714D01*
X0193850Y0232913D02*
X0169100Y0232913D01*
X0169100Y0234111D02*
X0193850Y0234111D01*
X0193850Y0235310D02*
X0169100Y0235310D01*
X0169100Y0236508D02*
X0193850Y0236508D01*
X0193850Y0237707D02*
X0169100Y0237707D01*
X0169100Y0238905D02*
X0193850Y0238905D01*
X0193850Y0240104D02*
X0169100Y0240104D01*
X0169100Y0241302D02*
X0193850Y0241302D01*
X0193850Y0242501D02*
X0169100Y0242501D01*
X0169100Y0243699D02*
X0193850Y0243699D01*
X0193850Y0244898D02*
X0169100Y0244898D01*
X0169100Y0246096D02*
X0193850Y0246096D01*
X0193850Y0247295D02*
X0169100Y0247295D01*
X0169100Y0248493D02*
X0193850Y0248493D01*
X0193850Y0249692D02*
X0169100Y0249692D01*
X0169100Y0250890D02*
X0193850Y0250890D01*
X0193850Y0252089D02*
X0189036Y0252089D01*
X0190500Y0253287D02*
X0193850Y0253287D01*
X0193850Y0254486D02*
X0191244Y0254486D01*
X0191700Y0255684D02*
X0193850Y0255684D01*
X0193850Y0256883D02*
X0191700Y0256883D01*
X0191507Y0258081D02*
X0193850Y0258081D01*
X0193850Y0259280D02*
X0191010Y0259280D01*
X0189934Y0260478D02*
X0193850Y0260478D01*
X0193850Y0261677D02*
X0187670Y0261677D01*
X0185530Y0261677D02*
X0181610Y0261677D01*
X0180412Y0262875D02*
X0193850Y0262875D01*
X0193850Y0264074D02*
X0179213Y0264074D01*
X0178014Y0265272D02*
X0193850Y0265272D01*
X0193850Y0266471D02*
X0176816Y0266471D01*
X0175617Y0267670D02*
X0193850Y0267670D01*
X0193850Y0268868D02*
X0174419Y0268868D01*
X0173220Y0270067D02*
X0193850Y0270067D01*
X0193850Y0271265D02*
X0130622Y0271265D01*
X0129423Y0272464D02*
X0193850Y0272464D01*
X0193850Y0273662D02*
X0128225Y0273662D01*
X0127026Y0274861D02*
X0145887Y0274861D01*
X0145616Y0274903D02*
X0146269Y0274800D01*
X0146400Y0274800D01*
X0146400Y0281400D01*
X0146800Y0281400D01*
X0146800Y0281800D01*
X0150800Y0281800D01*
X0150800Y0284531D01*
X0150697Y0285184D01*
X0150492Y0285812D01*
X0150192Y0286401D01*
X0149804Y0286936D01*
X0149336Y0287404D01*
X0148801Y0287792D01*
X0148212Y0288092D01*
X0147584Y0288297D01*
X0146931Y0288400D01*
X0146800Y0288400D01*
X0146800Y0281800D01*
X0146400Y0281800D01*
X0146400Y0288400D01*
X0146269Y0288400D01*
X0145616Y0288297D01*
X0144988Y0288092D01*
X0144399Y0287792D01*
X0143864Y0287404D01*
X0143396Y0286936D01*
X0143008Y0286401D01*
X0142708Y0285812D01*
X0142503Y0285184D01*
X0142400Y0284531D01*
X0142400Y0281800D01*
X0146400Y0281800D01*
X0146400Y0281400D01*
X0142400Y0281400D01*
X0142400Y0278669D01*
X0142503Y0278016D01*
X0142708Y0277388D01*
X0143008Y0276799D01*
X0143396Y0276264D01*
X0143864Y0275796D01*
X0144399Y0275408D01*
X0144988Y0275108D01*
X0145616Y0274903D01*
X0146400Y0274861D02*
X0146800Y0274861D01*
X0146800Y0274800D02*
X0146931Y0274800D01*
X0147584Y0274903D01*
X0148212Y0275108D01*
X0148801Y0275408D01*
X0149336Y0275796D01*
X0149804Y0276264D01*
X0150192Y0276799D01*
X0150492Y0277388D01*
X0150697Y0278016D01*
X0150800Y0278669D01*
X0150800Y0281400D01*
X0146800Y0281400D01*
X0146800Y0274800D01*
X0147313Y0274861D02*
X0155887Y0274861D01*
X0155616Y0274903D02*
X0156269Y0274800D01*
X0156400Y0274800D01*
X0156400Y0281400D01*
X0156800Y0281400D01*
X0156800Y0281800D01*
X0160800Y0281800D01*
X0160800Y0284531D01*
X0160697Y0285184D01*
X0160492Y0285812D01*
X0160192Y0286401D01*
X0159804Y0286936D01*
X0159336Y0287404D01*
X0158801Y0287792D01*
X0158212Y0288092D01*
X0157584Y0288297D01*
X0156931Y0288400D01*
X0156800Y0288400D01*
X0156800Y0281800D01*
X0156400Y0281800D01*
X0156400Y0288400D01*
X0156269Y0288400D01*
X0155616Y0288297D01*
X0154988Y0288092D01*
X0154399Y0287792D01*
X0153864Y0287404D01*
X0153396Y0286936D01*
X0153008Y0286401D01*
X0152708Y0285812D01*
X0152503Y0285184D01*
X0152400Y0284531D01*
X0152400Y0281800D01*
X0156400Y0281800D01*
X0156400Y0281400D01*
X0152400Y0281400D01*
X0152400Y0278669D01*
X0152503Y0278016D01*
X0152708Y0277388D01*
X0153008Y0276799D01*
X0153396Y0276264D01*
X0153864Y0275796D01*
X0154399Y0275408D01*
X0154988Y0275108D01*
X0155616Y0274903D01*
X0156400Y0274861D02*
X0156800Y0274861D01*
X0156800Y0274800D02*
X0156931Y0274800D01*
X0157584Y0274903D01*
X0158212Y0275108D01*
X0158801Y0275408D01*
X0159336Y0275796D01*
X0159804Y0276264D01*
X0160192Y0276799D01*
X0160492Y0277388D01*
X0160697Y0278016D01*
X0160800Y0278669D01*
X0160800Y0281400D01*
X0156800Y0281400D01*
X0156800Y0274800D01*
X0157313Y0274861D02*
X0175887Y0274861D01*
X0175616Y0274903D02*
X0176269Y0274800D01*
X0176400Y0274800D01*
X0176400Y0281400D01*
X0176800Y0281400D01*
X0176800Y0281800D01*
X0180800Y0281800D01*
X0180800Y0284531D01*
X0180697Y0285184D01*
X0180492Y0285812D01*
X0180192Y0286401D01*
X0179804Y0286936D01*
X0179336Y0287404D01*
X0178801Y0287792D01*
X0178212Y0288092D01*
X0177584Y0288297D01*
X0176931Y0288400D01*
X0176800Y0288400D01*
X0176800Y0281800D01*
X0176400Y0281800D01*
X0176400Y0288400D01*
X0176269Y0288400D01*
X0175616Y0288297D01*
X0174988Y0288092D01*
X0174399Y0287792D01*
X0173864Y0287404D01*
X0173396Y0286936D01*
X0173008Y0286401D01*
X0172708Y0285812D01*
X0172503Y0285184D01*
X0172400Y0284531D01*
X0172400Y0281800D01*
X0176400Y0281800D01*
X0176400Y0281400D01*
X0172400Y0281400D01*
X0172400Y0278669D01*
X0172503Y0278016D01*
X0172708Y0277388D01*
X0173008Y0276799D01*
X0173396Y0276264D01*
X0173864Y0275796D01*
X0174399Y0275408D01*
X0174988Y0275108D01*
X0175616Y0274903D01*
X0176400Y0274861D02*
X0176800Y0274861D01*
X0176800Y0274800D02*
X0176931Y0274800D01*
X0177584Y0274903D01*
X0178212Y0275108D01*
X0178801Y0275408D01*
X0179336Y0275796D01*
X0179804Y0276264D01*
X0180192Y0276799D01*
X0180492Y0277388D01*
X0180697Y0278016D01*
X0180800Y0278669D01*
X0180800Y0281400D01*
X0176800Y0281400D01*
X0176800Y0274800D01*
X0177313Y0274861D02*
X0193850Y0274861D01*
X0193850Y0276059D02*
X0189316Y0276059D01*
X0188866Y0275609D02*
X0189991Y0276734D01*
X0190600Y0278204D01*
X0190600Y0284996D01*
X0189991Y0286466D01*
X0188866Y0287591D01*
X0188000Y0287950D01*
X0188000Y0293987D01*
X0177152Y0304835D01*
X0177584Y0304903D01*
X0178212Y0305108D01*
X0178801Y0305408D01*
X0179336Y0305796D01*
X0179804Y0306264D01*
X0180192Y0306799D01*
X0180492Y0307388D01*
X0180697Y0308016D01*
X0180800Y0308669D01*
X0180800Y0311400D01*
X0176800Y0311400D01*
X0176800Y0311800D01*
X0176400Y0311800D01*
X0176400Y0318400D01*
X0176269Y0318400D01*
X0175616Y0318297D01*
X0174988Y0318092D01*
X0174399Y0317792D01*
X0173864Y0317404D01*
X0173396Y0316936D01*
X0173008Y0316401D01*
X0172708Y0315812D01*
X0172700Y0315788D01*
X0172700Y0316487D01*
X0147500Y0341687D01*
X0146387Y0342800D01*
X0093118Y0342800D01*
X0092637Y0343963D01*
X0091463Y0345137D01*
X0089930Y0345772D01*
X0088270Y0345772D01*
X0086737Y0345137D01*
X0085563Y0343963D01*
X0084928Y0342430D01*
X0084928Y0340770D01*
X0085563Y0339237D01*
X0086737Y0338063D01*
X0088270Y0337428D01*
X0089930Y0337428D01*
X0091463Y0338063D01*
X0092400Y0339000D01*
X0101911Y0339000D01*
X0099629Y0338055D01*
X0097657Y0336083D01*
X0096590Y0333506D01*
X0096590Y0330717D01*
X0097657Y0328141D01*
X0099629Y0326169D01*
X0102206Y0325102D01*
X0104994Y0325102D01*
X0107571Y0326169D01*
X0109543Y0328141D01*
X0110610Y0330717D01*
X0110610Y0333506D01*
X0109543Y0336083D01*
X0107571Y0338055D01*
X0105289Y0339000D01*
X0144813Y0339000D01*
X0165669Y0318144D01*
X0164334Y0317591D01*
X0163209Y0316466D01*
X0162600Y0314996D01*
X0162600Y0308204D01*
X0163209Y0306734D01*
X0164334Y0305609D01*
X0165804Y0305000D01*
X0167396Y0305000D01*
X0168866Y0305609D01*
X0169935Y0306678D01*
X0170013Y0306600D01*
X0184200Y0292413D01*
X0184200Y0287457D01*
X0183209Y0286466D01*
X0182600Y0284996D01*
X0182600Y0278204D01*
X0183209Y0276734D01*
X0184334Y0275609D01*
X0185804Y0275000D01*
X0187396Y0275000D01*
X0188866Y0275609D01*
X0190208Y0277258D02*
X0193850Y0277258D01*
X0193850Y0278456D02*
X0190600Y0278456D01*
X0190600Y0279655D02*
X0193850Y0279655D01*
X0193850Y0280853D02*
X0190600Y0280853D01*
X0190600Y0282052D02*
X0193850Y0282052D01*
X0193850Y0283250D02*
X0190600Y0283250D01*
X0190600Y0284449D02*
X0193850Y0284449D01*
X0193850Y0285647D02*
X0190330Y0285647D01*
X0189611Y0286846D02*
X0193850Y0286846D01*
X0193850Y0288044D02*
X0188000Y0288044D01*
X0188000Y0289243D02*
X0193850Y0289243D01*
X0193850Y0290441D02*
X0188000Y0290441D01*
X0188000Y0291640D02*
X0193850Y0291640D01*
X0193850Y0292838D02*
X0188000Y0292838D01*
X0187950Y0294037D02*
X0193850Y0294037D01*
X0193850Y0295235D02*
X0186752Y0295235D01*
X0185553Y0296434D02*
X0193850Y0296434D01*
X0193850Y0297632D02*
X0184355Y0297632D01*
X0183156Y0298831D02*
X0193850Y0298831D01*
X0193850Y0300029D02*
X0181958Y0300029D01*
X0180759Y0301228D02*
X0193850Y0301228D01*
X0193850Y0302426D02*
X0179561Y0302426D01*
X0178362Y0303625D02*
X0193850Y0303625D01*
X0193850Y0304823D02*
X0187078Y0304823D01*
X0186931Y0304800D02*
X0187584Y0304903D01*
X0188212Y0305108D01*
X0188801Y0305408D01*
X0189336Y0305796D01*
X0189804Y0306264D01*
X0190192Y0306799D01*
X0190492Y0307388D01*
X0190697Y0308016D01*
X0190800Y0308669D01*
X0190800Y0311400D01*
X0186800Y0311400D01*
X0186800Y0311800D01*
X0190800Y0311800D01*
X0190800Y0314531D01*
X0190697Y0315184D01*
X0190492Y0315812D01*
X0190192Y0316401D01*
X0189804Y0316936D01*
X0189336Y0317404D01*
X0188801Y0317792D01*
X0188212Y0318092D01*
X0187584Y0318297D01*
X0186931Y0318400D01*
X0186800Y0318400D01*
X0186800Y0311800D01*
X0186400Y0311800D01*
X0186400Y0318400D01*
X0186269Y0318400D01*
X0185616Y0318297D01*
X0184988Y0318092D01*
X0184399Y0317792D01*
X0183864Y0317404D01*
X0183396Y0316936D01*
X0183008Y0316401D01*
X0182708Y0315812D01*
X0182503Y0315184D01*
X0182400Y0314531D01*
X0182400Y0311800D01*
X0186400Y0311800D01*
X0186400Y0311400D01*
X0186800Y0311400D01*
X0186800Y0304800D01*
X0186931Y0304800D01*
X0186800Y0304823D02*
X0186400Y0304823D01*
X0186400Y0304800D02*
X0186400Y0311400D01*
X0182400Y0311400D01*
X0182400Y0308669D01*
X0182503Y0308016D01*
X0182708Y0307388D01*
X0183008Y0306799D01*
X0183396Y0306264D01*
X0183864Y0305796D01*
X0184399Y0305408D01*
X0184988Y0305108D01*
X0185616Y0304903D01*
X0186269Y0304800D01*
X0186400Y0304800D01*
X0186122Y0304823D02*
X0177164Y0304823D01*
X0179562Y0306022D02*
X0183638Y0306022D01*
X0182793Y0307220D02*
X0180407Y0307220D01*
X0180760Y0308419D02*
X0182440Y0308419D01*
X0182400Y0309617D02*
X0180800Y0309617D01*
X0180800Y0310816D02*
X0182400Y0310816D01*
X0182400Y0312014D02*
X0180800Y0312014D01*
X0180800Y0311800D02*
X0180800Y0314531D01*
X0180697Y0315184D01*
X0180492Y0315812D01*
X0180192Y0316401D01*
X0179804Y0316936D01*
X0179336Y0317404D01*
X0178801Y0317792D01*
X0178212Y0318092D01*
X0177584Y0318297D01*
X0176931Y0318400D01*
X0176800Y0318400D01*
X0176800Y0311800D01*
X0180800Y0311800D01*
X0180800Y0313213D02*
X0182400Y0313213D01*
X0182400Y0314411D02*
X0180800Y0314411D01*
X0180558Y0315610D02*
X0182642Y0315610D01*
X0183304Y0316808D02*
X0179896Y0316808D01*
X0178380Y0318007D02*
X0184820Y0318007D01*
X0186400Y0318007D02*
X0186800Y0318007D01*
X0186800Y0316808D02*
X0186400Y0316808D01*
X0186400Y0315610D02*
X0186800Y0315610D01*
X0186800Y0314411D02*
X0186400Y0314411D01*
X0186400Y0313213D02*
X0186800Y0313213D01*
X0186800Y0312014D02*
X0186400Y0312014D01*
X0186400Y0310816D02*
X0186800Y0310816D01*
X0186800Y0309617D02*
X0186400Y0309617D01*
X0186400Y0308419D02*
X0186800Y0308419D01*
X0186800Y0307220D02*
X0186400Y0307220D01*
X0186400Y0306022D02*
X0186800Y0306022D01*
X0189562Y0306022D02*
X0193850Y0306022D01*
X0193850Y0307220D02*
X0190407Y0307220D01*
X0190760Y0308419D02*
X0193850Y0308419D01*
X0193850Y0309617D02*
X0190800Y0309617D01*
X0190800Y0310816D02*
X0193850Y0310816D01*
X0193850Y0312014D02*
X0190800Y0312014D01*
X0190800Y0313213D02*
X0193850Y0313213D01*
X0193850Y0314411D02*
X0190800Y0314411D01*
X0190558Y0315610D02*
X0193850Y0315610D01*
X0193850Y0316808D02*
X0189896Y0316808D01*
X0188380Y0318007D02*
X0193850Y0318007D01*
X0193850Y0319205D02*
X0169981Y0319205D01*
X0171180Y0318007D02*
X0174820Y0318007D01*
X0176400Y0318007D02*
X0176800Y0318007D01*
X0176800Y0316808D02*
X0176400Y0316808D01*
X0176400Y0315610D02*
X0176800Y0315610D01*
X0176800Y0314411D02*
X0176400Y0314411D01*
X0176400Y0313213D02*
X0176800Y0313213D01*
X0176800Y0312014D02*
X0176400Y0312014D01*
X0173304Y0316808D02*
X0172379Y0316808D01*
X0168783Y0320404D02*
X0193850Y0320404D01*
X0193850Y0321603D02*
X0167584Y0321603D01*
X0166386Y0322801D02*
X0193850Y0322801D01*
X0193850Y0324000D02*
X0165187Y0324000D01*
X0163989Y0325198D02*
X0193850Y0325198D01*
X0193850Y0326397D02*
X0162790Y0326397D01*
X0161592Y0327595D02*
X0193850Y0327595D01*
X0193850Y0328794D02*
X0160393Y0328794D01*
X0159195Y0329992D02*
X0193850Y0329992D01*
X0193850Y0331191D02*
X0157996Y0331191D01*
X0156798Y0332389D02*
X0193850Y0332389D01*
X0193850Y0333588D02*
X0155599Y0333588D01*
X0154401Y0334786D02*
X0193850Y0334786D01*
X0193850Y0335985D02*
X0153202Y0335985D01*
X0152004Y0337183D02*
X0193850Y0337183D01*
X0193850Y0338382D02*
X0150805Y0338382D01*
X0149607Y0339580D02*
X0193850Y0339580D01*
X0193850Y0340779D02*
X0148408Y0340779D01*
X0147210Y0341977D02*
X0193850Y0341977D01*
X0193850Y0343176D02*
X0092963Y0343176D01*
X0092225Y0344374D02*
X0193850Y0344374D01*
X0193850Y0345573D02*
X0090410Y0345573D01*
X0087790Y0345573D02*
X0080410Y0345573D01*
X0079930Y0345772D02*
X0078270Y0345772D01*
X0076737Y0345137D01*
X0075563Y0343963D01*
X0074928Y0342430D01*
X0074928Y0340770D01*
X0075563Y0339237D01*
X0076737Y0338063D01*
X0078270Y0337428D01*
X0079930Y0337428D01*
X0081463Y0338063D01*
X0082637Y0339237D01*
X0083272Y0340770D01*
X0083272Y0342430D01*
X0082637Y0343963D01*
X0081463Y0345137D01*
X0079930Y0345772D01*
X0077790Y0345573D02*
X0070410Y0345573D01*
X0069930Y0345772D02*
X0068270Y0345772D01*
X0066737Y0345137D01*
X0065563Y0343963D01*
X0064928Y0342430D01*
X0064928Y0340770D01*
X0065563Y0339237D01*
X0066737Y0338063D01*
X0068270Y0337428D01*
X0069930Y0337428D01*
X0071463Y0338063D01*
X0072637Y0339237D01*
X0073272Y0340770D01*
X0073272Y0342430D01*
X0072637Y0343963D01*
X0071463Y0345137D01*
X0069930Y0345772D01*
X0067790Y0345573D02*
X0060410Y0345573D01*
X0062225Y0344374D02*
X0065975Y0344374D01*
X0065237Y0343176D02*
X0062963Y0343176D01*
X0063272Y0341977D02*
X0064928Y0341977D01*
X0064928Y0340779D02*
X0063272Y0340779D01*
X0062779Y0339580D02*
X0065421Y0339580D01*
X0066419Y0338382D02*
X0061781Y0338382D01*
X0061100Y0337183D02*
X0098757Y0337183D01*
X0097616Y0335985D02*
X0061100Y0335985D01*
X0061100Y0334786D02*
X0061387Y0334786D01*
X0061100Y0327595D02*
X0062868Y0327595D01*
X0061100Y0326397D02*
X0099401Y0326397D01*
X0098203Y0327595D02*
X0085869Y0327595D01*
X0085778Y0327549D02*
X0086391Y0327861D01*
X0086948Y0328265D01*
X0087434Y0328752D01*
X0087839Y0329309D01*
X0088151Y0329922D01*
X0088364Y0330576D01*
X0088472Y0331256D01*
X0088472Y0331314D01*
X0084386Y0331314D01*
X0084386Y0331886D01*
X0088472Y0331886D01*
X0088472Y0331944D01*
X0088364Y0332624D01*
X0088151Y0333278D01*
X0087839Y0333891D01*
X0087434Y0334448D01*
X0086948Y0334934D01*
X0086391Y0335339D01*
X0085778Y0335651D01*
X0085124Y0335864D01*
X0084444Y0335972D01*
X0084386Y0335972D01*
X0084386Y0331886D01*
X0083814Y0331886D01*
X0083814Y0335972D01*
X0083756Y0335972D01*
X0083076Y0335864D01*
X0082422Y0335651D01*
X0081809Y0335339D01*
X0081252Y0334934D01*
X0080765Y0334448D01*
X0080361Y0333891D01*
X0080049Y0333278D01*
X0079836Y0332624D01*
X0079728Y0331944D01*
X0079728Y0331886D01*
X0083814Y0331886D01*
X0083814Y0331314D01*
X0084386Y0331314D01*
X0084386Y0327228D01*
X0084444Y0327228D01*
X0085124Y0327336D01*
X0085778Y0327549D01*
X0084386Y0327595D02*
X0083814Y0327595D01*
X0083814Y0327228D02*
X0083814Y0331314D01*
X0079728Y0331314D01*
X0079728Y0331256D01*
X0079836Y0330576D01*
X0080049Y0329922D01*
X0080361Y0329309D01*
X0080765Y0328752D01*
X0081252Y0328265D01*
X0081809Y0327861D01*
X0082422Y0327549D01*
X0083076Y0327336D01*
X0083756Y0327228D01*
X0083814Y0327228D01*
X0082331Y0327595D02*
X0075332Y0327595D01*
X0074930Y0327428D02*
X0076463Y0328063D01*
X0077637Y0329237D01*
X0078272Y0330770D01*
X0078272Y0332430D01*
X0077637Y0333963D01*
X0076463Y0335137D01*
X0074930Y0335772D01*
X0073270Y0335772D01*
X0071737Y0335137D01*
X0070563Y0333963D01*
X0069928Y0332430D01*
X0069928Y0330770D01*
X0070563Y0329237D01*
X0071737Y0328063D01*
X0073270Y0327428D01*
X0074930Y0327428D01*
X0072868Y0327595D02*
X0065332Y0327595D01*
X0067193Y0328794D02*
X0071007Y0328794D01*
X0070251Y0329992D02*
X0067949Y0329992D01*
X0068272Y0331191D02*
X0069928Y0331191D01*
X0069928Y0332389D02*
X0068272Y0332389D01*
X0067792Y0333588D02*
X0070408Y0333588D01*
X0071387Y0334786D02*
X0066813Y0334786D01*
X0061100Y0325198D02*
X0101973Y0325198D01*
X0105227Y0325198D02*
X0158615Y0325198D01*
X0159813Y0324000D02*
X0061100Y0324000D01*
X0061100Y0322801D02*
X0161012Y0322801D01*
X0161600Y0321600D02*
X0141600Y0321600D01*
X0141600Y0271600D01*
X0161600Y0271600D01*
X0161600Y0321600D01*
X0162210Y0321603D02*
X0061100Y0321603D01*
X0061100Y0320404D02*
X0163409Y0320404D01*
X0164607Y0319205D02*
X0061100Y0319205D01*
X0061100Y0318007D02*
X0115338Y0318007D01*
X0115804Y0318200D02*
X0114334Y0317591D01*
X0113209Y0316466D01*
X0112600Y0314996D01*
X0112600Y0308204D01*
X0113209Y0306734D01*
X0114334Y0305609D01*
X0115804Y0305000D01*
X0117396Y0305000D01*
X0118866Y0305609D01*
X0119991Y0306734D01*
X0120600Y0308204D01*
X0120600Y0314996D01*
X0119991Y0316466D01*
X0118866Y0317591D01*
X0117396Y0318200D01*
X0115804Y0318200D01*
X0113552Y0316808D02*
X0061100Y0316808D01*
X0061100Y0315610D02*
X0112854Y0315610D01*
X0112600Y0314411D02*
X0061100Y0314411D01*
X0061100Y0313213D02*
X0112600Y0313213D01*
X0112600Y0312014D02*
X0061100Y0312014D01*
X0061100Y0310816D02*
X0112600Y0310816D01*
X0112600Y0309617D02*
X0061100Y0309617D01*
X0061100Y0308419D02*
X0112600Y0308419D01*
X0113008Y0307220D02*
X0061100Y0307220D01*
X0061100Y0306022D02*
X0113921Y0306022D01*
X0119279Y0306022D02*
X0123638Y0306022D01*
X0123864Y0305796D02*
X0124399Y0305408D01*
X0124988Y0305108D01*
X0125616Y0304903D01*
X0126269Y0304800D01*
X0126400Y0304800D01*
X0126400Y0311400D01*
X0126800Y0311400D01*
X0126800Y0311800D01*
X0130800Y0311800D01*
X0130800Y0314531D01*
X0130697Y0315184D01*
X0130492Y0315812D01*
X0130192Y0316401D01*
X0129804Y0316936D01*
X0129336Y0317404D01*
X0128801Y0317792D01*
X0128212Y0318092D01*
X0127584Y0318297D01*
X0126931Y0318400D01*
X0126800Y0318400D01*
X0126800Y0311800D01*
X0126400Y0311800D01*
X0126400Y0318400D01*
X0126269Y0318400D01*
X0125616Y0318297D01*
X0124988Y0318092D01*
X0124399Y0317792D01*
X0123864Y0317404D01*
X0123396Y0316936D01*
X0123008Y0316401D01*
X0122708Y0315812D01*
X0122503Y0315184D01*
X0122400Y0314531D01*
X0122400Y0311800D01*
X0126400Y0311800D01*
X0126400Y0311400D01*
X0122400Y0311400D01*
X0122400Y0308669D01*
X0122503Y0308016D01*
X0122708Y0307388D01*
X0123008Y0306799D01*
X0123396Y0306264D01*
X0123864Y0305796D01*
X0122793Y0307220D02*
X0120192Y0307220D01*
X0120600Y0308419D02*
X0122440Y0308419D01*
X0122400Y0309617D02*
X0120600Y0309617D01*
X0120600Y0310816D02*
X0122400Y0310816D01*
X0122400Y0312014D02*
X0120600Y0312014D01*
X0120600Y0313213D02*
X0122400Y0313213D01*
X0122400Y0314411D02*
X0120600Y0314411D01*
X0120346Y0315610D02*
X0122642Y0315610D01*
X0123304Y0316808D02*
X0119648Y0316808D01*
X0117862Y0318007D02*
X0124820Y0318007D01*
X0126400Y0318007D02*
X0126800Y0318007D01*
X0126800Y0316808D02*
X0126400Y0316808D01*
X0126400Y0315610D02*
X0126800Y0315610D01*
X0126800Y0314411D02*
X0126400Y0314411D01*
X0126400Y0313213D02*
X0126800Y0313213D01*
X0126800Y0312014D02*
X0126400Y0312014D01*
X0126800Y0311400D02*
X0130800Y0311400D01*
X0130800Y0308669D01*
X0130697Y0308016D01*
X0130492Y0307388D01*
X0130192Y0306799D01*
X0129804Y0306264D01*
X0129336Y0305796D01*
X0128801Y0305408D01*
X0128212Y0305108D01*
X0127584Y0304903D01*
X0126931Y0304800D01*
X0126800Y0304800D01*
X0126800Y0311400D01*
X0126800Y0310816D02*
X0126400Y0310816D01*
X0126400Y0309617D02*
X0126800Y0309617D01*
X0126800Y0308419D02*
X0126400Y0308419D01*
X0126400Y0307220D02*
X0126800Y0307220D01*
X0126800Y0306022D02*
X0126400Y0306022D01*
X0126400Y0304823D02*
X0126800Y0304823D01*
X0127078Y0304823D02*
X0146122Y0304823D01*
X0146269Y0304800D02*
X0146400Y0304800D01*
X0146400Y0311400D01*
X0146800Y0311400D01*
X0146800Y0311800D01*
X0150800Y0311800D01*
X0150800Y0314531D01*
X0150697Y0315184D01*
X0150492Y0315812D01*
X0150192Y0316401D01*
X0149804Y0316936D01*
X0149336Y0317404D01*
X0148801Y0317792D01*
X0148212Y0318092D01*
X0147584Y0318297D01*
X0146931Y0318400D01*
X0146800Y0318400D01*
X0146800Y0311800D01*
X0146400Y0311800D01*
X0146400Y0318400D01*
X0146269Y0318400D01*
X0145616Y0318297D01*
X0144988Y0318092D01*
X0144399Y0317792D01*
X0143864Y0317404D01*
X0143396Y0316936D01*
X0143008Y0316401D01*
X0142708Y0315812D01*
X0142503Y0315184D01*
X0142400Y0314531D01*
X0142400Y0311800D01*
X0146400Y0311800D01*
X0146400Y0311400D01*
X0142400Y0311400D01*
X0142400Y0308669D01*
X0142503Y0308016D01*
X0142708Y0307388D01*
X0143008Y0306799D01*
X0143396Y0306264D01*
X0143864Y0305796D01*
X0144399Y0305408D01*
X0144988Y0305108D01*
X0145616Y0304903D01*
X0146269Y0304800D01*
X0146400Y0304823D02*
X0146800Y0304823D01*
X0146800Y0304800D02*
X0146931Y0304800D01*
X0147584Y0304903D01*
X0148212Y0305108D01*
X0148801Y0305408D01*
X0149336Y0305796D01*
X0149804Y0306264D01*
X0150192Y0306799D01*
X0150492Y0307388D01*
X0150697Y0308016D01*
X0150800Y0308669D01*
X0150800Y0311400D01*
X0146800Y0311400D01*
X0146800Y0304800D01*
X0147078Y0304823D02*
X0156122Y0304823D01*
X0156269Y0304800D02*
X0156400Y0304800D01*
X0156400Y0311400D01*
X0156800Y0311400D01*
X0156800Y0311800D01*
X0160800Y0311800D01*
X0160800Y0314531D01*
X0160697Y0315184D01*
X0160492Y0315812D01*
X0160192Y0316401D01*
X0159804Y0316936D01*
X0159336Y0317404D01*
X0158801Y0317792D01*
X0158212Y0318092D01*
X0157584Y0318297D01*
X0156931Y0318400D01*
X0156800Y0318400D01*
X0156800Y0311800D01*
X0156400Y0311800D01*
X0156400Y0318400D01*
X0156269Y0318400D01*
X0155616Y0318297D01*
X0154988Y0318092D01*
X0154399Y0317792D01*
X0153864Y0317404D01*
X0153396Y0316936D01*
X0153008Y0316401D01*
X0152708Y0315812D01*
X0152503Y0315184D01*
X0152400Y0314531D01*
X0152400Y0311800D01*
X0156400Y0311800D01*
X0156400Y0311400D01*
X0152400Y0311400D01*
X0152400Y0308669D01*
X0152503Y0308016D01*
X0152708Y0307388D01*
X0153008Y0306799D01*
X0153396Y0306264D01*
X0153864Y0305796D01*
X0154399Y0305408D01*
X0154988Y0305108D01*
X0155616Y0304903D01*
X0156269Y0304800D01*
X0156400Y0304823D02*
X0156800Y0304823D01*
X0156800Y0304800D02*
X0156931Y0304800D01*
X0157584Y0304903D01*
X0158212Y0305108D01*
X0158801Y0305408D01*
X0159336Y0305796D01*
X0159804Y0306264D01*
X0160192Y0306799D01*
X0160492Y0307388D01*
X0160697Y0308016D01*
X0160800Y0308669D01*
X0160800Y0311400D01*
X0156800Y0311400D01*
X0156800Y0304800D01*
X0157078Y0304823D02*
X0171790Y0304823D01*
X0172988Y0303625D02*
X0061100Y0303625D01*
X0061100Y0304823D02*
X0126122Y0304823D01*
X0129562Y0306022D02*
X0133921Y0306022D01*
X0134334Y0305609D02*
X0133209Y0306734D01*
X0132600Y0308204D01*
X0132600Y0314996D01*
X0133209Y0316466D01*
X0134334Y0317591D01*
X0135804Y0318200D01*
X0137396Y0318200D01*
X0138866Y0317591D01*
X0139991Y0316466D01*
X0140600Y0314996D01*
X0140600Y0308204D01*
X0139991Y0306734D01*
X0138866Y0305609D01*
X0137396Y0305000D01*
X0135804Y0305000D01*
X0134334Y0305609D01*
X0133008Y0307220D02*
X0130407Y0307220D01*
X0130760Y0308419D02*
X0132600Y0308419D01*
X0132600Y0309617D02*
X0130800Y0309617D01*
X0130800Y0310816D02*
X0132600Y0310816D01*
X0132600Y0312014D02*
X0130800Y0312014D01*
X0130800Y0313213D02*
X0132600Y0313213D01*
X0132600Y0314411D02*
X0130800Y0314411D01*
X0130558Y0315610D02*
X0132854Y0315610D01*
X0133552Y0316808D02*
X0129896Y0316808D01*
X0128380Y0318007D02*
X0135338Y0318007D01*
X0137862Y0318007D02*
X0144820Y0318007D01*
X0146400Y0318007D02*
X0146800Y0318007D01*
X0146800Y0316808D02*
X0146400Y0316808D01*
X0146400Y0315610D02*
X0146800Y0315610D01*
X0146800Y0314411D02*
X0146400Y0314411D01*
X0146400Y0313213D02*
X0146800Y0313213D01*
X0146800Y0312014D02*
X0146400Y0312014D01*
X0146400Y0310816D02*
X0146800Y0310816D01*
X0146800Y0309617D02*
X0146400Y0309617D01*
X0146400Y0308419D02*
X0146800Y0308419D01*
X0146800Y0307220D02*
X0146400Y0307220D01*
X0146400Y0306022D02*
X0146800Y0306022D01*
X0149562Y0306022D02*
X0153638Y0306022D01*
X0152793Y0307220D02*
X0150407Y0307220D01*
X0150760Y0308419D02*
X0152440Y0308419D01*
X0152400Y0309617D02*
X0150800Y0309617D01*
X0150800Y0310816D02*
X0152400Y0310816D01*
X0152400Y0312014D02*
X0150800Y0312014D01*
X0150800Y0313213D02*
X0152400Y0313213D01*
X0152400Y0314411D02*
X0150800Y0314411D01*
X0150558Y0315610D02*
X0152642Y0315610D01*
X0153304Y0316808D02*
X0149896Y0316808D01*
X0148380Y0318007D02*
X0154820Y0318007D01*
X0156400Y0318007D02*
X0156800Y0318007D01*
X0156800Y0316808D02*
X0156400Y0316808D01*
X0156400Y0315610D02*
X0156800Y0315610D01*
X0156800Y0314411D02*
X0156400Y0314411D01*
X0156400Y0313213D02*
X0156800Y0313213D01*
X0156800Y0312014D02*
X0156400Y0312014D01*
X0156400Y0310816D02*
X0156800Y0310816D01*
X0156800Y0309617D02*
X0156400Y0309617D01*
X0156400Y0308419D02*
X0156800Y0308419D01*
X0156800Y0307220D02*
X0156400Y0307220D01*
X0156400Y0306022D02*
X0156800Y0306022D01*
X0159562Y0306022D02*
X0163921Y0306022D01*
X0163008Y0307220D02*
X0160407Y0307220D01*
X0161600Y0307220D02*
X0141600Y0307220D01*
X0142793Y0307220D02*
X0140192Y0307220D01*
X0140600Y0308419D02*
X0142440Y0308419D01*
X0141600Y0308419D02*
X0161600Y0308419D01*
X0160760Y0308419D02*
X0162600Y0308419D01*
X0162600Y0309617D02*
X0160800Y0309617D01*
X0161600Y0309617D02*
X0141600Y0309617D01*
X0142400Y0309617D02*
X0140600Y0309617D01*
X0140600Y0310816D02*
X0142400Y0310816D01*
X0141600Y0310816D02*
X0161600Y0310816D01*
X0160800Y0310816D02*
X0162600Y0310816D01*
X0162600Y0312014D02*
X0160800Y0312014D01*
X0161600Y0312014D02*
X0141600Y0312014D01*
X0142400Y0312014D02*
X0140600Y0312014D01*
X0140600Y0313213D02*
X0142400Y0313213D01*
X0141600Y0313213D02*
X0161600Y0313213D01*
X0160800Y0313213D02*
X0162600Y0313213D01*
X0162600Y0314411D02*
X0160800Y0314411D01*
X0161600Y0314411D02*
X0141600Y0314411D01*
X0142400Y0314411D02*
X0140600Y0314411D01*
X0140346Y0315610D02*
X0142642Y0315610D01*
X0141600Y0315610D02*
X0161600Y0315610D01*
X0160558Y0315610D02*
X0162854Y0315610D01*
X0163552Y0316808D02*
X0159896Y0316808D01*
X0161600Y0316808D02*
X0141600Y0316808D01*
X0141600Y0318007D02*
X0161600Y0318007D01*
X0161600Y0319205D02*
X0141600Y0319205D01*
X0141600Y0320404D02*
X0161600Y0320404D01*
X0158380Y0318007D02*
X0165338Y0318007D01*
X0161600Y0306022D02*
X0141600Y0306022D01*
X0141600Y0304823D02*
X0161600Y0304823D01*
X0161600Y0303625D02*
X0141600Y0303625D01*
X0141600Y0302426D02*
X0161600Y0302426D01*
X0161600Y0301228D02*
X0141600Y0301228D01*
X0141600Y0300029D02*
X0161600Y0300029D01*
X0161600Y0298831D02*
X0141600Y0298831D01*
X0141600Y0297632D02*
X0161600Y0297632D01*
X0161600Y0296434D02*
X0141600Y0296434D01*
X0141600Y0295235D02*
X0161600Y0295235D01*
X0161600Y0294037D02*
X0141600Y0294037D01*
X0141600Y0292838D02*
X0161600Y0292838D01*
X0161600Y0291640D02*
X0141600Y0291640D01*
X0141600Y0290441D02*
X0161600Y0290441D01*
X0161600Y0289243D02*
X0141600Y0289243D01*
X0141600Y0288044D02*
X0161600Y0288044D01*
X0161600Y0286846D02*
X0141600Y0286846D01*
X0141600Y0285647D02*
X0161600Y0285647D01*
X0160546Y0285647D02*
X0162870Y0285647D01*
X0162600Y0284996D02*
X0163209Y0286466D01*
X0164334Y0287591D01*
X0165804Y0288200D01*
X0167396Y0288200D01*
X0168866Y0287591D01*
X0169991Y0286466D01*
X0170600Y0284996D01*
X0170600Y0278204D01*
X0169991Y0276734D01*
X0168866Y0275609D01*
X0167396Y0275000D01*
X0165804Y0275000D01*
X0164334Y0275609D01*
X0163209Y0276734D01*
X0162600Y0278204D01*
X0162600Y0284996D01*
X0162600Y0284449D02*
X0160800Y0284449D01*
X0161600Y0284449D02*
X0141600Y0284449D01*
X0142400Y0284449D02*
X0140600Y0284449D01*
X0140600Y0284996D02*
X0139991Y0286466D01*
X0138866Y0287591D01*
X0137396Y0288200D01*
X0135804Y0288200D01*
X0134334Y0287591D01*
X0133209Y0286466D01*
X0132600Y0284996D01*
X0132600Y0278204D01*
X0133209Y0276734D01*
X0134334Y0275609D01*
X0135804Y0275000D01*
X0137396Y0275000D01*
X0138866Y0275609D01*
X0139991Y0276734D01*
X0140600Y0278204D01*
X0140600Y0284996D01*
X0140330Y0285647D02*
X0142654Y0285647D01*
X0143331Y0286846D02*
X0139611Y0286846D01*
X0137772Y0288044D02*
X0144893Y0288044D01*
X0146400Y0288044D02*
X0146800Y0288044D01*
X0146800Y0286846D02*
X0146400Y0286846D01*
X0146400Y0285647D02*
X0146800Y0285647D01*
X0146800Y0284449D02*
X0146400Y0284449D01*
X0146400Y0283250D02*
X0146800Y0283250D01*
X0146800Y0282052D02*
X0146400Y0282052D01*
X0146400Y0280853D02*
X0146800Y0280853D01*
X0146800Y0279655D02*
X0146400Y0279655D01*
X0146400Y0278456D02*
X0146800Y0278456D01*
X0146800Y0277258D02*
X0146400Y0277258D01*
X0146400Y0276059D02*
X0146800Y0276059D01*
X0149599Y0276059D02*
X0153601Y0276059D01*
X0152774Y0277258D02*
X0150426Y0277258D01*
X0150766Y0278456D02*
X0152434Y0278456D01*
X0152400Y0279655D02*
X0150800Y0279655D01*
X0150800Y0280853D02*
X0152400Y0280853D01*
X0152400Y0282052D02*
X0150800Y0282052D01*
X0150800Y0283250D02*
X0152400Y0283250D01*
X0152400Y0284449D02*
X0150800Y0284449D01*
X0150546Y0285647D02*
X0152654Y0285647D01*
X0153331Y0286846D02*
X0149869Y0286846D01*
X0148307Y0288044D02*
X0154893Y0288044D01*
X0156400Y0288044D02*
X0156800Y0288044D01*
X0156800Y0286846D02*
X0156400Y0286846D01*
X0156400Y0285647D02*
X0156800Y0285647D01*
X0156800Y0284449D02*
X0156400Y0284449D01*
X0156400Y0283250D02*
X0156800Y0283250D01*
X0156800Y0282052D02*
X0156400Y0282052D01*
X0156400Y0280853D02*
X0156800Y0280853D01*
X0156800Y0279655D02*
X0156400Y0279655D01*
X0156400Y0278456D02*
X0156800Y0278456D01*
X0156800Y0277258D02*
X0156400Y0277258D01*
X0156400Y0276059D02*
X0156800Y0276059D01*
X0159599Y0276059D02*
X0163884Y0276059D01*
X0162992Y0277258D02*
X0160426Y0277258D01*
X0161600Y0277258D02*
X0141600Y0277258D01*
X0142774Y0277258D02*
X0140208Y0277258D01*
X0140600Y0278456D02*
X0142434Y0278456D01*
X0141600Y0278456D02*
X0161600Y0278456D01*
X0160766Y0278456D02*
X0162600Y0278456D01*
X0162600Y0279655D02*
X0160800Y0279655D01*
X0161600Y0279655D02*
X0141600Y0279655D01*
X0142400Y0279655D02*
X0140600Y0279655D01*
X0140600Y0280853D02*
X0142400Y0280853D01*
X0141600Y0280853D02*
X0161600Y0280853D01*
X0160800Y0280853D02*
X0162600Y0280853D01*
X0162600Y0282052D02*
X0160800Y0282052D01*
X0161600Y0282052D02*
X0141600Y0282052D01*
X0142400Y0282052D02*
X0140600Y0282052D01*
X0140600Y0283250D02*
X0142400Y0283250D01*
X0141600Y0283250D02*
X0161600Y0283250D01*
X0160800Y0283250D02*
X0162600Y0283250D01*
X0163589Y0286846D02*
X0159869Y0286846D01*
X0158307Y0288044D02*
X0165428Y0288044D01*
X0167772Y0288044D02*
X0174893Y0288044D01*
X0176400Y0288044D02*
X0176800Y0288044D01*
X0176800Y0286846D02*
X0176400Y0286846D01*
X0176400Y0285647D02*
X0176800Y0285647D01*
X0176800Y0284449D02*
X0176400Y0284449D01*
X0176400Y0283250D02*
X0176800Y0283250D01*
X0176800Y0282052D02*
X0176400Y0282052D01*
X0176400Y0280853D02*
X0176800Y0280853D01*
X0176800Y0279655D02*
X0176400Y0279655D01*
X0176400Y0278456D02*
X0176800Y0278456D01*
X0176800Y0277258D02*
X0176400Y0277258D01*
X0176400Y0276059D02*
X0176800Y0276059D01*
X0179599Y0276059D02*
X0183884Y0276059D01*
X0182992Y0277258D02*
X0180426Y0277258D01*
X0180766Y0278456D02*
X0182600Y0278456D01*
X0182600Y0279655D02*
X0180800Y0279655D01*
X0180800Y0280853D02*
X0182600Y0280853D01*
X0182600Y0282052D02*
X0180800Y0282052D01*
X0180800Y0283250D02*
X0182600Y0283250D01*
X0182600Y0284449D02*
X0180800Y0284449D01*
X0180546Y0285647D02*
X0182870Y0285647D01*
X0183589Y0286846D02*
X0179869Y0286846D01*
X0178307Y0288044D02*
X0184200Y0288044D01*
X0184200Y0289243D02*
X0119844Y0289243D01*
X0118646Y0290441D02*
X0184200Y0290441D01*
X0184200Y0291640D02*
X0061100Y0291640D01*
X0061100Y0292838D02*
X0183775Y0292838D01*
X0182576Y0294037D02*
X0061100Y0294037D01*
X0061100Y0295235D02*
X0181378Y0295235D01*
X0180179Y0296434D02*
X0061100Y0296434D01*
X0061100Y0297632D02*
X0178981Y0297632D01*
X0177782Y0298831D02*
X0061100Y0298831D01*
X0061100Y0300029D02*
X0176584Y0300029D01*
X0175385Y0301228D02*
X0061100Y0301228D01*
X0061100Y0302426D02*
X0174187Y0302426D01*
X0170591Y0306022D02*
X0169279Y0306022D01*
X0169611Y0286846D02*
X0173331Y0286846D01*
X0172654Y0285647D02*
X0170330Y0285647D01*
X0170600Y0284449D02*
X0172400Y0284449D01*
X0172400Y0283250D02*
X0170600Y0283250D01*
X0170600Y0282052D02*
X0172400Y0282052D01*
X0172400Y0280853D02*
X0170600Y0280853D01*
X0170600Y0279655D02*
X0172400Y0279655D01*
X0172434Y0278456D02*
X0170600Y0278456D01*
X0170208Y0277258D02*
X0172774Y0277258D01*
X0173601Y0276059D02*
X0169316Y0276059D01*
X0161600Y0276059D02*
X0141600Y0276059D01*
X0141600Y0274861D02*
X0161600Y0274861D01*
X0161600Y0273662D02*
X0141600Y0273662D01*
X0141600Y0272464D02*
X0161600Y0272464D01*
X0161600Y0255344D02*
X0162276Y0253711D01*
X0163711Y0252276D01*
X0165300Y0251618D01*
X0165300Y0223113D01*
X0186713Y0201700D01*
X0185586Y0201700D01*
X0183711Y0200924D01*
X0182887Y0200100D01*
X0141200Y0241787D01*
X0140087Y0242900D01*
X0124412Y0242900D01*
X0125424Y0243911D01*
X0126200Y0245786D01*
X0126200Y0247814D01*
X0125424Y0249689D01*
X0123989Y0251124D01*
X0122114Y0251900D01*
X0120086Y0251900D01*
X0118211Y0251124D01*
X0116776Y0249689D01*
X0116100Y0248056D01*
X0115424Y0249689D01*
X0113989Y0251124D01*
X0112114Y0251900D01*
X0110086Y0251900D01*
X0108211Y0251124D01*
X0107900Y0250812D01*
X0107900Y0251618D01*
X0109489Y0252276D01*
X0110924Y0253711D01*
X0111600Y0255344D01*
X0112276Y0253711D01*
X0113711Y0252276D01*
X0115586Y0251500D01*
X0117614Y0251500D01*
X0119489Y0252276D01*
X0120924Y0253711D01*
X0121600Y0255344D01*
X0122276Y0253711D01*
X0123711Y0252276D01*
X0125586Y0251500D01*
X0127614Y0251500D01*
X0129489Y0252276D01*
X0130924Y0253711D01*
X0131600Y0255344D01*
X0132276Y0253711D01*
X0133711Y0252276D01*
X0135586Y0251500D01*
X0137614Y0251500D01*
X0139489Y0252276D01*
X0140924Y0253711D01*
X0141600Y0255344D01*
X0142276Y0253711D01*
X0143711Y0252276D01*
X0145586Y0251500D01*
X0147614Y0251500D01*
X0149489Y0252276D01*
X0150924Y0253711D01*
X0151600Y0255344D01*
X0152276Y0253711D01*
X0153711Y0252276D01*
X0155586Y0251500D01*
X0157614Y0251500D01*
X0159489Y0252276D01*
X0160924Y0253711D01*
X0161600Y0255344D01*
X0161245Y0254486D02*
X0161955Y0254486D01*
X0162700Y0253287D02*
X0160500Y0253287D01*
X0159036Y0252089D02*
X0164164Y0252089D01*
X0165300Y0250890D02*
X0124222Y0250890D01*
X0124164Y0252089D02*
X0119036Y0252089D01*
X0117978Y0250890D02*
X0114222Y0250890D01*
X0114164Y0252089D02*
X0109036Y0252089D01*
X0107978Y0250890D02*
X0107900Y0250890D01*
X0110500Y0253287D02*
X0112700Y0253287D01*
X0111955Y0254486D02*
X0111244Y0254486D01*
X0115421Y0249692D02*
X0116779Y0249692D01*
X0116281Y0248493D02*
X0115919Y0248493D01*
X0120500Y0253287D02*
X0122700Y0253287D01*
X0121955Y0254486D02*
X0121244Y0254486D01*
X0125421Y0249692D02*
X0165300Y0249692D01*
X0165300Y0248493D02*
X0125919Y0248493D01*
X0126200Y0247295D02*
X0165300Y0247295D01*
X0165300Y0246096D02*
X0126200Y0246096D01*
X0125832Y0244898D02*
X0165300Y0244898D01*
X0165300Y0243699D02*
X0125212Y0243699D01*
X0129036Y0252089D02*
X0134164Y0252089D01*
X0132700Y0253287D02*
X0130500Y0253287D01*
X0131245Y0254486D02*
X0131955Y0254486D01*
X0139036Y0252089D02*
X0144164Y0252089D01*
X0142700Y0253287D02*
X0140500Y0253287D01*
X0141245Y0254486D02*
X0141955Y0254486D01*
X0140486Y0242501D02*
X0165300Y0242501D01*
X0165300Y0241302D02*
X0141685Y0241302D01*
X0142883Y0240104D02*
X0165300Y0240104D01*
X0165300Y0238905D02*
X0144082Y0238905D01*
X0145280Y0237707D02*
X0165300Y0237707D01*
X0165300Y0236508D02*
X0146479Y0236508D01*
X0147677Y0235310D02*
X0165300Y0235310D01*
X0165300Y0234111D02*
X0148876Y0234111D01*
X0150074Y0232913D02*
X0165300Y0232913D01*
X0165300Y0231714D02*
X0151273Y0231714D01*
X0152471Y0230516D02*
X0165300Y0230516D01*
X0165300Y0229317D02*
X0153670Y0229317D01*
X0154868Y0228119D02*
X0165300Y0228119D01*
X0165300Y0226920D02*
X0156067Y0226920D01*
X0157265Y0225722D02*
X0165300Y0225722D01*
X0165300Y0224523D02*
X0158464Y0224523D01*
X0159662Y0223325D02*
X0165300Y0223325D01*
X0166287Y0222126D02*
X0160861Y0222126D01*
X0162059Y0220928D02*
X0167485Y0220928D01*
X0168684Y0219729D02*
X0163258Y0219729D01*
X0164456Y0218531D02*
X0169882Y0218531D01*
X0171081Y0217332D02*
X0165655Y0217332D01*
X0166853Y0216134D02*
X0172279Y0216134D01*
X0173478Y0214935D02*
X0168052Y0214935D01*
X0169250Y0213737D02*
X0174676Y0213737D01*
X0175875Y0212538D02*
X0170449Y0212538D01*
X0171648Y0211339D02*
X0177074Y0211339D01*
X0178272Y0210141D02*
X0172846Y0210141D01*
X0174045Y0208942D02*
X0179471Y0208942D01*
X0180669Y0207744D02*
X0175243Y0207744D01*
X0176442Y0206545D02*
X0181868Y0206545D01*
X0183066Y0205347D02*
X0177640Y0205347D01*
X0178839Y0204148D02*
X0184265Y0204148D01*
X0185463Y0202950D02*
X0180037Y0202950D01*
X0181236Y0201751D02*
X0186662Y0201751D01*
X0183340Y0200553D02*
X0182434Y0200553D01*
X0172266Y0205347D02*
X0100934Y0205347D01*
X0102132Y0206545D02*
X0171068Y0206545D01*
X0169869Y0207744D02*
X0103331Y0207744D01*
X0104529Y0208942D02*
X0168671Y0208942D01*
X0167472Y0210141D02*
X0105728Y0210141D01*
X0106926Y0211339D02*
X0166274Y0211339D01*
X0165075Y0212538D02*
X0108125Y0212538D01*
X0109323Y0213737D02*
X0163876Y0213737D01*
X0162678Y0214935D02*
X0110522Y0214935D01*
X0111721Y0216134D02*
X0161479Y0216134D01*
X0160281Y0217332D02*
X0112919Y0217332D01*
X0114118Y0218531D02*
X0159082Y0218531D01*
X0157884Y0219729D02*
X0115316Y0219729D01*
X0116515Y0220928D02*
X0156685Y0220928D01*
X0155487Y0222126D02*
X0117713Y0222126D01*
X0118912Y0223325D02*
X0154288Y0223325D01*
X0153090Y0224523D02*
X0122098Y0224523D01*
X0123343Y0225722D02*
X0151891Y0225722D01*
X0150693Y0226920D02*
X0123800Y0226920D01*
X0123800Y0228119D02*
X0149494Y0228119D01*
X0148296Y0229317D02*
X0123327Y0229317D01*
X0122004Y0230516D02*
X0147097Y0230516D01*
X0145899Y0231714D02*
X0095801Y0231714D01*
X0094603Y0230516D02*
X0118796Y0230516D01*
X0114736Y0224523D02*
X0113549Y0224523D01*
X0107809Y0240104D02*
X0104191Y0240104D01*
X0105389Y0241302D02*
X0106611Y0241302D01*
X0102992Y0238905D02*
X0138708Y0238905D01*
X0139906Y0237707D02*
X0101794Y0237707D01*
X0100595Y0236508D02*
X0141105Y0236508D01*
X0142303Y0235310D02*
X0099397Y0235310D01*
X0098198Y0234111D02*
X0143502Y0234111D01*
X0144700Y0232913D02*
X0097000Y0232913D01*
X0087000Y0258081D02*
X0086200Y0258081D01*
X0086200Y0259280D02*
X0087000Y0259280D01*
X0087000Y0260478D02*
X0086200Y0260478D01*
X0086200Y0261677D02*
X0087000Y0261677D01*
X0088126Y0261677D02*
X0089700Y0261677D01*
X0089700Y0262875D02*
X0073312Y0262875D01*
X0074510Y0261677D02*
X0075530Y0261677D01*
X0077670Y0261677D02*
X0085074Y0261677D01*
X0082983Y0260478D02*
X0079934Y0260478D01*
X0081010Y0259280D02*
X0082017Y0259280D01*
X0081507Y0258081D02*
X0081509Y0258081D01*
X0089700Y0264074D02*
X0072113Y0264074D01*
X0070914Y0265272D02*
X0089700Y0265272D01*
X0090084Y0266471D02*
X0069716Y0266471D01*
X0068517Y0267670D02*
X0091283Y0267670D01*
X0092481Y0268868D02*
X0067319Y0268868D01*
X0066120Y0270067D02*
X0093680Y0270067D01*
X0094878Y0271265D02*
X0064922Y0271265D01*
X0063723Y0272464D02*
X0096077Y0272464D01*
X0097275Y0273662D02*
X0062525Y0273662D01*
X0061326Y0274861D02*
X0098474Y0274861D01*
X0099672Y0276059D02*
X0061100Y0276059D01*
X0061100Y0277258D02*
X0100871Y0277258D01*
X0102069Y0278456D02*
X0061100Y0278456D01*
X0061100Y0279655D02*
X0103268Y0279655D01*
X0104466Y0280853D02*
X0061100Y0280853D01*
X0061100Y0282052D02*
X0105665Y0282052D01*
X0106863Y0283250D02*
X0061100Y0283250D01*
X0061100Y0284449D02*
X0108062Y0284449D01*
X0109260Y0285647D02*
X0061100Y0285647D01*
X0061100Y0286846D02*
X0110459Y0286846D01*
X0111657Y0288044D02*
X0061100Y0288044D01*
X0061100Y0289243D02*
X0112856Y0289243D01*
X0114054Y0290441D02*
X0061100Y0290441D01*
X0057300Y0290441D02*
X0006200Y0290441D01*
X0006200Y0289243D02*
X0057300Y0289243D01*
X0057300Y0288044D02*
X0006200Y0288044D01*
X0006200Y0286846D02*
X0057300Y0286846D01*
X0057300Y0285647D02*
X0006200Y0285647D01*
X0006200Y0284449D02*
X0057300Y0284449D01*
X0057300Y0283250D02*
X0006200Y0283250D01*
X0006200Y0282052D02*
X0057300Y0282052D01*
X0057300Y0280853D02*
X0006200Y0280853D01*
X0006200Y0279655D02*
X0057300Y0279655D01*
X0057300Y0278456D02*
X0006200Y0278456D01*
X0006200Y0277258D02*
X0057300Y0277258D01*
X0057300Y0276059D02*
X0006200Y0276059D01*
X0006200Y0274861D02*
X0057300Y0274861D01*
X0057300Y0273662D02*
X0006200Y0273662D01*
X0006200Y0272464D02*
X0058349Y0272464D01*
X0059548Y0271265D02*
X0006200Y0271265D01*
X0006200Y0270067D02*
X0060746Y0270067D01*
X0061945Y0268868D02*
X0006200Y0268868D01*
X0006200Y0267670D02*
X0063143Y0267670D01*
X0064342Y0266471D02*
X0006200Y0266471D01*
X0006200Y0265272D02*
X0065541Y0265272D01*
X0066739Y0264074D02*
X0006200Y0264074D01*
X0006200Y0262875D02*
X0067938Y0262875D01*
X0069136Y0261677D02*
X0006200Y0261677D01*
X0006200Y0260478D02*
X0070335Y0260478D01*
X0071533Y0259280D02*
X0006200Y0259280D01*
X0006200Y0258081D02*
X0062794Y0258081D01*
X0061596Y0256883D02*
X0006200Y0256883D01*
X0006200Y0291640D02*
X0057300Y0291640D01*
X0057300Y0292838D02*
X0006200Y0292838D01*
X0006200Y0294037D02*
X0057300Y0294037D01*
X0057300Y0295235D02*
X0006200Y0295235D01*
X0006200Y0296434D02*
X0057300Y0296434D01*
X0057300Y0297632D02*
X0006200Y0297632D01*
X0006200Y0298831D02*
X0057300Y0298831D01*
X0057300Y0300029D02*
X0006200Y0300029D01*
X0006200Y0301228D02*
X0057300Y0301228D01*
X0057300Y0302426D02*
X0006200Y0302426D01*
X0006200Y0303625D02*
X0057300Y0303625D01*
X0057300Y0304823D02*
X0006200Y0304823D01*
X0006200Y0306022D02*
X0057300Y0306022D01*
X0057300Y0307220D02*
X0006200Y0307220D01*
X0006200Y0308419D02*
X0057300Y0308419D01*
X0057300Y0309617D02*
X0006200Y0309617D01*
X0006200Y0310816D02*
X0057300Y0310816D01*
X0057300Y0312014D02*
X0006200Y0312014D01*
X0006200Y0313213D02*
X0057300Y0313213D01*
X0057300Y0314411D02*
X0006200Y0314411D01*
X0006200Y0315610D02*
X0057300Y0315610D01*
X0057300Y0316808D02*
X0006200Y0316808D01*
X0006200Y0318007D02*
X0057300Y0318007D01*
X0057300Y0319205D02*
X0006200Y0319205D01*
X0006200Y0320404D02*
X0057300Y0320404D01*
X0057300Y0321603D02*
X0006200Y0321603D01*
X0006200Y0322801D02*
X0057300Y0322801D01*
X0057300Y0324000D02*
X0006200Y0324000D01*
X0006200Y0325198D02*
X0037973Y0325198D01*
X0038206Y0325102D02*
X0040994Y0325102D01*
X0043571Y0326169D01*
X0045543Y0328141D01*
X0046610Y0330717D01*
X0046610Y0333506D01*
X0045543Y0336083D01*
X0043571Y0338055D01*
X0040994Y0339122D01*
X0038206Y0339122D01*
X0035629Y0338055D01*
X0033657Y0336083D01*
X0032590Y0333506D01*
X0032590Y0330717D01*
X0033657Y0328141D01*
X0035629Y0326169D01*
X0038206Y0325102D01*
X0035401Y0326397D02*
X0006200Y0326397D01*
X0006200Y0327595D02*
X0034203Y0327595D01*
X0033387Y0328794D02*
X0006200Y0328794D01*
X0006200Y0329992D02*
X0032890Y0329992D01*
X0032590Y0331191D02*
X0006200Y0331191D01*
X0006200Y0332389D02*
X0032590Y0332389D01*
X0032623Y0333588D02*
X0006200Y0333588D01*
X0006200Y0334786D02*
X0033120Y0334786D01*
X0033616Y0335985D02*
X0006200Y0335985D01*
X0006200Y0337183D02*
X0034757Y0337183D01*
X0036418Y0338382D02*
X0006200Y0338382D01*
X0006200Y0339580D02*
X0055421Y0339580D01*
X0054928Y0340779D02*
X0006200Y0340779D01*
X0006200Y0341977D02*
X0054928Y0341977D01*
X0055237Y0343176D02*
X0006200Y0343176D01*
X0006200Y0344374D02*
X0055975Y0344374D01*
X0057790Y0345573D02*
X0006200Y0345573D01*
X0006200Y0346771D02*
X0193850Y0346771D01*
X0193850Y0347970D02*
X0006200Y0347970D01*
X0006200Y0349168D02*
X0193850Y0349168D01*
X0193850Y0350367D02*
X0006200Y0350367D01*
X0006200Y0351565D02*
X0193850Y0351565D01*
X0193850Y0352764D02*
X0006200Y0352764D01*
X0006200Y0353962D02*
X0193850Y0353962D01*
X0193850Y0355161D02*
X0006200Y0355161D01*
X0006200Y0356359D02*
X0044837Y0356359D01*
X0042761Y0357558D02*
X0006200Y0357558D01*
X0006200Y0358756D02*
X0041387Y0358756D01*
X0040235Y0359955D02*
X0006200Y0359955D01*
X0006200Y0361153D02*
X0039543Y0361153D01*
X0038851Y0362352D02*
X0006200Y0362352D01*
X0006200Y0363550D02*
X0038529Y0363550D01*
X0038208Y0364749D02*
X0006200Y0364749D01*
X0006200Y0365947D02*
X0038100Y0365947D01*
X0038100Y0367146D02*
X0006200Y0367146D01*
X0006200Y0368344D02*
X0038179Y0368344D01*
X0038501Y0369543D02*
X0006200Y0369543D01*
X0006200Y0370741D02*
X0014464Y0370741D01*
X0013535Y0370828D02*
X0013535Y0370828D01*
X0011301Y0371940D02*
X0006200Y0371940D01*
X0006200Y0373139D02*
X0009416Y0373139D01*
X0008324Y0374337D02*
X0006200Y0374337D01*
X0006200Y0375536D02*
X0007231Y0375536D01*
X0007078Y0375704D02*
X0007078Y0375704D01*
X0006679Y0376734D02*
X0006200Y0376734D01*
X0006200Y0377933D02*
X0006214Y0377933D01*
X0018666Y0370741D02*
X0038822Y0370741D01*
X0037360Y0371940D02*
X0022077Y0371940D01*
X0023664Y0373139D02*
X0035148Y0373139D01*
X0033949Y0374337D02*
X0025052Y0374337D01*
X0024877Y0374055D02*
X0024877Y0374055D01*
X0025794Y0375536D02*
X0033282Y0375536D01*
X0032785Y0376734D02*
X0026536Y0376734D01*
X0027114Y0377933D02*
X0032590Y0377933D01*
X0032590Y0379131D02*
X0027338Y0379131D01*
X0027562Y0380330D02*
X0032729Y0380330D01*
X0033225Y0381528D02*
X0027787Y0381528D01*
X0027589Y0382727D02*
X0033813Y0382727D01*
X0035011Y0383925D02*
X0027365Y0383925D01*
X0027141Y0385124D02*
X0034993Y0385124D01*
X0034169Y0386322D02*
X0026625Y0386322D01*
X0027044Y0385646D02*
X0027044Y0385646D01*
X0025883Y0387521D02*
X0033730Y0387521D01*
X0033730Y0388719D02*
X0025141Y0388719D01*
X0024877Y0389145D02*
X0024877Y0389145D01*
X0023854Y0389918D02*
X0034020Y0389918D01*
X0045387Y0382727D02*
X0097813Y0382727D01*
X0097225Y0381528D02*
X0045975Y0381528D01*
X0046471Y0380330D02*
X0096729Y0380330D01*
X0096590Y0379131D02*
X0046610Y0379131D01*
X0046610Y0377933D02*
X0096590Y0377933D01*
X0089653Y0376734D02*
X0053547Y0376734D01*
X0055623Y0375536D02*
X0087577Y0375536D01*
X0086281Y0374337D02*
X0056919Y0374337D01*
X0058027Y0373139D02*
X0085173Y0373139D01*
X0084481Y0371940D02*
X0058719Y0371940D01*
X0059378Y0370741D02*
X0083822Y0370741D01*
X0083501Y0369543D02*
X0059699Y0369543D01*
X0060021Y0368344D02*
X0083179Y0368344D01*
X0083100Y0367146D02*
X0060100Y0367146D01*
X0060100Y0365947D02*
X0083100Y0365947D01*
X0083208Y0364749D02*
X0059992Y0364749D01*
X0059671Y0363550D02*
X0083529Y0363550D01*
X0083851Y0362352D02*
X0059349Y0362352D01*
X0058657Y0361153D02*
X0084543Y0361153D01*
X0085235Y0359955D02*
X0057965Y0359955D01*
X0056813Y0358756D02*
X0086387Y0358756D01*
X0087761Y0357558D02*
X0055439Y0357558D01*
X0053363Y0356359D02*
X0089837Y0356359D01*
X0085975Y0344374D02*
X0082225Y0344374D01*
X0082963Y0343176D02*
X0085237Y0343176D01*
X0084928Y0341977D02*
X0083272Y0341977D01*
X0083272Y0340779D02*
X0084928Y0340779D01*
X0085421Y0339580D02*
X0082779Y0339580D01*
X0081781Y0338382D02*
X0086419Y0338382D01*
X0087096Y0334786D02*
X0097120Y0334786D01*
X0096623Y0333588D02*
X0087994Y0333588D01*
X0088401Y0332389D02*
X0096590Y0332389D01*
X0096590Y0331191D02*
X0088461Y0331191D01*
X0088174Y0329992D02*
X0096890Y0329992D01*
X0097387Y0328794D02*
X0087465Y0328794D01*
X0084386Y0328794D02*
X0083814Y0328794D01*
X0083814Y0329992D02*
X0084386Y0329992D01*
X0084386Y0331191D02*
X0083814Y0331191D01*
X0083814Y0332389D02*
X0084386Y0332389D01*
X0084386Y0333588D02*
X0083814Y0333588D01*
X0083814Y0334786D02*
X0084386Y0334786D01*
X0081104Y0334786D02*
X0076813Y0334786D01*
X0077792Y0333588D02*
X0080206Y0333588D01*
X0079799Y0332389D02*
X0078272Y0332389D01*
X0078272Y0331191D02*
X0079739Y0331191D01*
X0080026Y0329992D02*
X0077949Y0329992D01*
X0077193Y0328794D02*
X0080735Y0328794D01*
X0076419Y0338382D02*
X0071781Y0338382D01*
X0072779Y0339580D02*
X0075421Y0339580D01*
X0074928Y0340779D02*
X0073272Y0340779D01*
X0073272Y0341977D02*
X0074928Y0341977D01*
X0075237Y0343176D02*
X0072963Y0343176D01*
X0072225Y0344374D02*
X0075975Y0344374D01*
X0091781Y0338382D02*
X0100418Y0338382D01*
X0106782Y0338382D02*
X0145431Y0338382D01*
X0146630Y0337183D02*
X0108443Y0337183D01*
X0109584Y0335985D02*
X0147828Y0335985D01*
X0149027Y0334786D02*
X0110080Y0334786D01*
X0110577Y0333588D02*
X0150225Y0333588D01*
X0151424Y0332389D02*
X0110610Y0332389D01*
X0110610Y0331191D02*
X0152622Y0331191D01*
X0153821Y0329992D02*
X0110310Y0329992D01*
X0109813Y0328794D02*
X0155019Y0328794D01*
X0156218Y0327595D02*
X0108997Y0327595D01*
X0107799Y0326397D02*
X0157416Y0326397D01*
X0143304Y0316808D02*
X0139648Y0316808D01*
X0139279Y0306022D02*
X0143638Y0306022D01*
X0135428Y0288044D02*
X0127772Y0288044D01*
X0129611Y0286846D02*
X0133589Y0286846D01*
X0132870Y0285647D02*
X0130330Y0285647D01*
X0130600Y0284449D02*
X0132600Y0284449D01*
X0132600Y0283250D02*
X0130600Y0283250D01*
X0130600Y0282052D02*
X0132600Y0282052D01*
X0132600Y0280853D02*
X0130600Y0280853D01*
X0130600Y0279655D02*
X0132600Y0279655D01*
X0132600Y0278456D02*
X0130600Y0278456D01*
X0130208Y0277258D02*
X0132992Y0277258D01*
X0133884Y0276059D02*
X0129316Y0276059D01*
X0123589Y0286846D02*
X0122241Y0286846D01*
X0121043Y0288044D02*
X0125428Y0288044D01*
X0139316Y0276059D02*
X0143601Y0276059D01*
X0151245Y0254486D02*
X0151955Y0254486D01*
X0152700Y0253287D02*
X0150500Y0253287D01*
X0149036Y0252089D02*
X0154164Y0252089D01*
X0169100Y0252089D02*
X0174164Y0252089D01*
X0172700Y0253287D02*
X0170500Y0253287D01*
X0171245Y0254486D02*
X0171955Y0254486D01*
X0179036Y0252089D02*
X0184164Y0252089D01*
X0182700Y0253287D02*
X0180500Y0253287D01*
X0181245Y0254486D02*
X0181955Y0254486D01*
X0182809Y0260478D02*
X0183266Y0260478D01*
X0163340Y0200553D02*
X0159860Y0200553D01*
X0160979Y0199354D02*
X0162221Y0199354D01*
X0161724Y0198156D02*
X0161476Y0198156D01*
X0161275Y0194560D02*
X0161925Y0194560D01*
X0162626Y0193362D02*
X0160574Y0193362D01*
X0159216Y0192163D02*
X0163984Y0192163D01*
X0153340Y0200553D02*
X0149860Y0200553D01*
X0150979Y0199354D02*
X0152221Y0199354D01*
X0151724Y0198156D02*
X0151476Y0198156D01*
X0143340Y0200553D02*
X0139860Y0200553D01*
X0140979Y0199354D02*
X0142221Y0199354D01*
X0141724Y0198156D02*
X0141476Y0198156D01*
X0133340Y0200553D02*
X0129860Y0200553D01*
X0130979Y0199354D02*
X0132221Y0199354D01*
X0131724Y0198156D02*
X0131476Y0198156D01*
X0123340Y0200553D02*
X0119860Y0200553D01*
X0120979Y0199354D02*
X0122221Y0199354D01*
X0121724Y0198156D02*
X0121476Y0198156D01*
X0113340Y0200553D02*
X0109860Y0200553D01*
X0110979Y0199354D02*
X0112221Y0199354D01*
X0111724Y0198156D02*
X0111476Y0198156D01*
X0110247Y0170590D02*
X0113236Y0170590D01*
X0112128Y0169392D02*
X0111238Y0169392D01*
X0111627Y0164598D02*
X0111801Y0164598D01*
X0112447Y0163399D02*
X0110949Y0163399D01*
X0109732Y0162201D02*
X0113646Y0162201D01*
X0119554Y0162201D02*
X0123646Y0162201D01*
X0122447Y0163399D02*
X0120753Y0163399D01*
X0121399Y0164598D02*
X0121801Y0164598D01*
X0121631Y0168193D02*
X0121569Y0168193D01*
X0121072Y0169392D02*
X0122128Y0169392D01*
X0123236Y0170590D02*
X0119964Y0170590D01*
X0129964Y0170590D02*
X0133236Y0170590D01*
X0132128Y0169392D02*
X0131072Y0169392D01*
X0131569Y0168193D02*
X0131631Y0168193D01*
X0131801Y0164598D02*
X0131399Y0164598D01*
X0130753Y0163399D02*
X0132447Y0163399D01*
X0133646Y0162201D02*
X0129554Y0162201D01*
X0139554Y0162201D02*
X0143468Y0162201D01*
X0142251Y0163399D02*
X0140753Y0163399D01*
X0141399Y0164598D02*
X0141573Y0164598D01*
X0141962Y0169392D02*
X0141072Y0169392D01*
X0139964Y0170590D02*
X0142953Y0170590D01*
X0146216Y0170590D02*
X0146984Y0170590D01*
X0146984Y0169392D02*
X0146216Y0169392D01*
X0146216Y0168193D02*
X0146984Y0168193D01*
X0146984Y0166995D02*
X0146216Y0166995D01*
X0146216Y0165796D02*
X0146984Y0165796D01*
X0146984Y0164598D02*
X0146216Y0164598D01*
X0146216Y0163399D02*
X0146984Y0163399D01*
X0146984Y0162201D02*
X0146216Y0162201D01*
X0149732Y0162201D02*
X0153646Y0162201D01*
X0152447Y0163399D02*
X0150949Y0163399D01*
X0151627Y0164598D02*
X0151801Y0164598D01*
X0152128Y0169392D02*
X0151238Y0169392D01*
X0150247Y0170590D02*
X0153236Y0170590D01*
X0166502Y0157406D02*
X0193850Y0157406D01*
X0193850Y0156208D02*
X0167514Y0156208D01*
X0167900Y0155009D02*
X0193850Y0155009D01*
X0193850Y0153811D02*
X0167976Y0153811D01*
X0169175Y0152612D02*
X0193850Y0152612D01*
X0193850Y0151414D02*
X0170000Y0151414D01*
X0170000Y0150215D02*
X0193850Y0150215D01*
X0193850Y0149017D02*
X0170000Y0149017D01*
X0170000Y0147818D02*
X0193850Y0147818D01*
X0193850Y0146620D02*
X0170000Y0146620D01*
X0170000Y0145421D02*
X0193850Y0145421D01*
X0193850Y0144223D02*
X0170000Y0144223D01*
X0170000Y0143024D02*
X0193850Y0143024D01*
X0193850Y0141826D02*
X0170000Y0141826D01*
X0170000Y0140627D02*
X0193850Y0140627D01*
X0193850Y0139429D02*
X0170000Y0139429D01*
X0170000Y0138230D02*
X0193850Y0138230D01*
X0193850Y0137032D02*
X0170000Y0137032D01*
X0170000Y0135833D02*
X0193850Y0135833D01*
X0193850Y0134635D02*
X0170000Y0134635D01*
X0170000Y0133436D02*
X0193850Y0133436D01*
X0193850Y0132238D02*
X0170000Y0132238D01*
X0170000Y0131039D02*
X0193850Y0131039D01*
X0193850Y0129841D02*
X0170000Y0129841D01*
X0170000Y0128642D02*
X0193850Y0128642D01*
X0193850Y0127444D02*
X0170000Y0127444D01*
X0169432Y0126245D02*
X0193850Y0126245D01*
X0193850Y0125047D02*
X0168234Y0125047D01*
X0167035Y0123848D02*
X0193850Y0123848D01*
X0193850Y0122650D02*
X0165837Y0122650D01*
X0164638Y0121451D02*
X0193850Y0121451D01*
X0193850Y0120253D02*
X0163700Y0120253D01*
X0163700Y0119054D02*
X0193850Y0119054D01*
X0193850Y0117856D02*
X0163700Y0117856D01*
X0163700Y0116657D02*
X0193850Y0116657D01*
X0193850Y0115459D02*
X0163700Y0115459D01*
X0163700Y0114260D02*
X0193850Y0114260D01*
X0193850Y0113062D02*
X0163700Y0113062D01*
X0163700Y0111863D02*
X0193850Y0111863D01*
X0193850Y0110665D02*
X0163700Y0110665D01*
X0163700Y0109466D02*
X0193850Y0109466D01*
X0193850Y0108268D02*
X0163700Y0108268D01*
X0163700Y0107069D02*
X0193850Y0107069D01*
X0193850Y0105870D02*
X0163700Y0105870D01*
X0163700Y0104672D02*
X0193850Y0104672D01*
X0193850Y0103473D02*
X0163700Y0103473D01*
X0163700Y0102275D02*
X0193850Y0102275D01*
X0193850Y0101076D02*
X0163700Y0101076D01*
X0163700Y0099878D02*
X0193850Y0099878D01*
X0193850Y0098679D02*
X0163700Y0098679D01*
X0163700Y0097481D02*
X0193850Y0097481D01*
X0193850Y0096282D02*
X0163700Y0096282D01*
X0163700Y0095084D02*
X0193850Y0095084D01*
X0193850Y0093885D02*
X0163700Y0093885D01*
X0163700Y0092687D02*
X0193850Y0092687D01*
X0193850Y0091488D02*
X0163700Y0091488D01*
X0163700Y0090290D02*
X0193850Y0090290D01*
X0193850Y0089091D02*
X0163700Y0089091D01*
X0163700Y0087893D02*
X0193850Y0087893D01*
X0193850Y0086694D02*
X0163700Y0086694D01*
X0163700Y0085496D02*
X0193850Y0085496D01*
X0193850Y0084297D02*
X0163700Y0084297D01*
X0163700Y0083099D02*
X0193850Y0083099D01*
X0193850Y0081900D02*
X0163700Y0081900D01*
X0163700Y0080702D02*
X0193850Y0080702D01*
X0193850Y0079503D02*
X0163700Y0079503D01*
X0163700Y0078305D02*
X0193850Y0078305D01*
X0193850Y0077106D02*
X0163700Y0077106D01*
X0163700Y0075908D02*
X0193850Y0075908D01*
X0193850Y0074709D02*
X0163700Y0074709D01*
X0163700Y0073511D02*
X0193850Y0073511D01*
X0193850Y0072312D02*
X0163700Y0072312D01*
X0163700Y0071114D02*
X0193850Y0071114D01*
X0193850Y0069915D02*
X0163700Y0069915D01*
X0163700Y0068717D02*
X0193850Y0068717D01*
X0193850Y0067518D02*
X0164904Y0067518D01*
X0165650Y0066320D02*
X0193850Y0066320D01*
X0193850Y0065121D02*
X0166000Y0065121D01*
X0166000Y0063923D02*
X0193850Y0063923D01*
X0193850Y0062724D02*
X0166000Y0062724D01*
X0166000Y0061526D02*
X0193850Y0061526D01*
X0193850Y0060327D02*
X0166000Y0060327D01*
X0166000Y0059129D02*
X0193850Y0059129D01*
X0193850Y0057930D02*
X0166000Y0057930D01*
X0165589Y0056732D02*
X0193850Y0056732D01*
X0193850Y0055533D02*
X0164756Y0055533D01*
X0163700Y0054334D02*
X0193850Y0054334D01*
X0193850Y0053136D02*
X0163700Y0053136D01*
X0163700Y0051937D02*
X0193850Y0051937D01*
X0193850Y0050739D02*
X0163700Y0050739D01*
X0163700Y0049540D02*
X0193850Y0049540D01*
X0193850Y0048342D02*
X0163700Y0048342D01*
X0163700Y0047143D02*
X0193850Y0047143D01*
X0193850Y0045945D02*
X0163700Y0045945D01*
X0163700Y0044746D02*
X0193850Y0044746D01*
X0193850Y0043548D02*
X0163700Y0043548D01*
X0163700Y0042349D02*
X0193850Y0042349D01*
X0193850Y0041151D02*
X0163700Y0041151D01*
X0163700Y0039952D02*
X0193850Y0039952D01*
X0193850Y0038754D02*
X0163700Y0038754D01*
X0164867Y0037555D02*
X0193850Y0037555D01*
X0193850Y0036357D02*
X0165635Y0036357D01*
X0166000Y0035158D02*
X0193850Y0035158D01*
X0193850Y0033960D02*
X0166000Y0033960D01*
X0166000Y0032761D02*
X0193850Y0032761D01*
X0193850Y0031563D02*
X0166000Y0031563D01*
X0166000Y0030364D02*
X0193850Y0030364D01*
X0193850Y0029166D02*
X0166000Y0029166D01*
X0166000Y0027967D02*
X0193850Y0027967D01*
X0193850Y0026769D02*
X0191090Y0026769D01*
X0191592Y0026626D02*
X0191592Y0026626D01*
X0192990Y0025570D02*
X0193850Y0025570D01*
X0187633Y0027752D02*
X0187633Y0027752D01*
X0183535Y0027372D02*
X0183535Y0027372D01*
X0182323Y0026769D02*
X0165604Y0026769D01*
X0164793Y0025570D02*
X0179916Y0025570D01*
X0178787Y0024372D02*
X0162890Y0024372D01*
X0160310Y0024372D02*
X0152890Y0024372D01*
X0154793Y0025570D02*
X0158407Y0025570D01*
X0157596Y0026769D02*
X0155604Y0026769D01*
X0156000Y0027967D02*
X0157200Y0027967D01*
X0157200Y0029166D02*
X0156000Y0029166D01*
X0156000Y0030364D02*
X0157200Y0030364D01*
X0157200Y0031563D02*
X0156000Y0031563D01*
X0156000Y0032761D02*
X0157200Y0032761D01*
X0157200Y0033960D02*
X0156000Y0033960D01*
X0156000Y0035158D02*
X0157200Y0035158D01*
X0157565Y0036357D02*
X0155635Y0036357D01*
X0154867Y0037555D02*
X0158333Y0037555D01*
X0159900Y0038754D02*
X0153069Y0038754D01*
X0150131Y0038754D02*
X0148400Y0038754D01*
X0148400Y0039952D02*
X0159900Y0039952D01*
X0159900Y0041151D02*
X0148400Y0041151D01*
X0148400Y0042349D02*
X0159900Y0042349D01*
X0159900Y0043548D02*
X0148400Y0043548D01*
X0148400Y0044746D02*
X0159900Y0044746D01*
X0159900Y0045945D02*
X0148400Y0045945D01*
X0148400Y0047143D02*
X0159900Y0047143D01*
X0159900Y0048342D02*
X0148400Y0048342D01*
X0148400Y0049540D02*
X0159900Y0049540D01*
X0159900Y0050739D02*
X0148400Y0050739D01*
X0148400Y0051937D02*
X0159900Y0051937D01*
X0159900Y0053136D02*
X0148400Y0053136D01*
X0148400Y0054334D02*
X0150400Y0054334D01*
X0148444Y0055533D02*
X0148400Y0055533D01*
X0144600Y0055377D02*
X0144600Y0037823D01*
X0144092Y0038330D01*
X0143000Y0038783D01*
X0143000Y0043787D01*
X0132554Y0054233D01*
X0134092Y0054870D01*
X0135330Y0056108D01*
X0136000Y0057725D01*
X0136000Y0065475D01*
X0135330Y0067092D01*
X0134092Y0068330D01*
X0132475Y0069000D01*
X0130725Y0069000D01*
X0129108Y0068330D01*
X0128600Y0067823D01*
X0128600Y0091800D01*
X0129546Y0092192D01*
X0131008Y0093654D01*
X0131600Y0095083D01*
X0132192Y0093654D01*
X0133654Y0092192D01*
X0135566Y0091400D01*
X0137634Y0091400D01*
X0139546Y0092192D01*
X0141008Y0093654D01*
X0141600Y0095083D01*
X0142192Y0093654D01*
X0143654Y0092192D01*
X0145566Y0091400D01*
X0147634Y0091400D01*
X0149546Y0092192D01*
X0151008Y0093654D01*
X0151600Y0095083D01*
X0151921Y0094308D01*
X0145713Y0088100D01*
X0144600Y0086987D01*
X0144600Y0067823D01*
X0144092Y0068330D01*
X0142475Y0069000D01*
X0140725Y0069000D01*
X0139108Y0068330D01*
X0137870Y0067092D01*
X0137200Y0065475D01*
X0137200Y0057725D01*
X0137870Y0056108D01*
X0139108Y0054870D01*
X0140725Y0054200D01*
X0142475Y0054200D01*
X0144092Y0054870D01*
X0144600Y0055377D01*
X0144600Y0054334D02*
X0142800Y0054334D01*
X0144600Y0053136D02*
X0133651Y0053136D01*
X0132800Y0054334D02*
X0140400Y0054334D01*
X0138444Y0055533D02*
X0134756Y0055533D01*
X0135589Y0056732D02*
X0137611Y0056732D01*
X0137200Y0057930D02*
X0136000Y0057930D01*
X0136000Y0059129D02*
X0137200Y0059129D01*
X0137200Y0060327D02*
X0136000Y0060327D01*
X0136000Y0061526D02*
X0137200Y0061526D01*
X0137200Y0062724D02*
X0136000Y0062724D01*
X0136000Y0063923D02*
X0137200Y0063923D01*
X0137200Y0065121D02*
X0136000Y0065121D01*
X0135650Y0066320D02*
X0137550Y0066320D01*
X0138296Y0067518D02*
X0134904Y0067518D01*
X0133159Y0068717D02*
X0140041Y0068717D01*
X0143159Y0068717D02*
X0144600Y0068717D01*
X0144600Y0069915D02*
X0128600Y0069915D01*
X0128600Y0068717D02*
X0130041Y0068717D01*
X0128600Y0071114D02*
X0144600Y0071114D01*
X0144600Y0072312D02*
X0128600Y0072312D01*
X0128600Y0073511D02*
X0144600Y0073511D01*
X0144600Y0074709D02*
X0128600Y0074709D01*
X0128600Y0075908D02*
X0144600Y0075908D01*
X0144600Y0077106D02*
X0128600Y0077106D01*
X0128600Y0078305D02*
X0144600Y0078305D01*
X0144600Y0079503D02*
X0128600Y0079503D01*
X0128600Y0080702D02*
X0144600Y0080702D01*
X0144600Y0081900D02*
X0128600Y0081900D01*
X0128600Y0083099D02*
X0144600Y0083099D01*
X0144600Y0084297D02*
X0128600Y0084297D01*
X0128600Y0085496D02*
X0144600Y0085496D01*
X0144600Y0086694D02*
X0128600Y0086694D01*
X0128600Y0087893D02*
X0145506Y0087893D01*
X0145713Y0088100D02*
X0145713Y0088100D01*
X0146704Y0089091D02*
X0128600Y0089091D01*
X0128600Y0090290D02*
X0147903Y0090290D01*
X0147848Y0091488D02*
X0149101Y0091488D01*
X0150041Y0092687D02*
X0150300Y0092687D01*
X0151104Y0093885D02*
X0151498Y0093885D01*
X0153277Y0090290D02*
X0159900Y0090290D01*
X0159900Y0091488D02*
X0157848Y0091488D01*
X0155352Y0091488D02*
X0154475Y0091488D01*
X0152078Y0089091D02*
X0159900Y0089091D01*
X0159900Y0087893D02*
X0150880Y0087893D01*
X0149681Y0086694D02*
X0159900Y0086694D01*
X0159900Y0085496D02*
X0148483Y0085496D01*
X0148400Y0084297D02*
X0159900Y0084297D01*
X0159900Y0083099D02*
X0148400Y0083099D01*
X0148400Y0081900D02*
X0159900Y0081900D01*
X0159900Y0080702D02*
X0148400Y0080702D01*
X0148400Y0079503D02*
X0159900Y0079503D01*
X0159900Y0078305D02*
X0148400Y0078305D01*
X0148400Y0077106D02*
X0159900Y0077106D01*
X0159900Y0075908D02*
X0148400Y0075908D01*
X0148400Y0074709D02*
X0159900Y0074709D01*
X0159900Y0073511D02*
X0148400Y0073511D01*
X0148400Y0072312D02*
X0159900Y0072312D01*
X0159900Y0071114D02*
X0148400Y0071114D01*
X0148400Y0069915D02*
X0159900Y0069915D01*
X0159900Y0068717D02*
X0153159Y0068717D01*
X0154904Y0067518D02*
X0158296Y0067518D01*
X0157550Y0066320D02*
X0155650Y0066320D01*
X0156000Y0065121D02*
X0157200Y0065121D01*
X0157200Y0063923D02*
X0156000Y0063923D01*
X0156000Y0062724D02*
X0157200Y0062724D01*
X0157200Y0061526D02*
X0156000Y0061526D01*
X0156000Y0060327D02*
X0157200Y0060327D01*
X0157200Y0059129D02*
X0156000Y0059129D01*
X0156000Y0057930D02*
X0157200Y0057930D01*
X0157611Y0056732D02*
X0155589Y0056732D01*
X0154756Y0055533D02*
X0158444Y0055533D01*
X0159900Y0054334D02*
X0152800Y0054334D01*
X0144600Y0051937D02*
X0134850Y0051937D01*
X0136048Y0050739D02*
X0144600Y0050739D01*
X0144600Y0049540D02*
X0137247Y0049540D01*
X0138445Y0048342D02*
X0144600Y0048342D01*
X0144600Y0047143D02*
X0139644Y0047143D01*
X0140842Y0045945D02*
X0144600Y0045945D01*
X0144600Y0044746D02*
X0142041Y0044746D01*
X0143000Y0043548D02*
X0144600Y0043548D01*
X0144600Y0042349D02*
X0143000Y0042349D01*
X0143000Y0041151D02*
X0144600Y0041151D01*
X0144600Y0039952D02*
X0143000Y0039952D01*
X0143069Y0038754D02*
X0144600Y0038754D01*
X0139200Y0038754D02*
X0133069Y0038754D01*
X0132475Y0039000D02*
X0130725Y0039000D01*
X0129108Y0038330D01*
X0127870Y0037092D01*
X0127200Y0035475D01*
X0127200Y0027725D01*
X0127870Y0026108D01*
X0129108Y0024870D01*
X0130725Y0024200D01*
X0132475Y0024200D01*
X0134092Y0024870D01*
X0135330Y0026108D01*
X0136000Y0027725D01*
X0136000Y0035475D01*
X0135330Y0037092D01*
X0134092Y0038330D01*
X0132475Y0039000D01*
X0130131Y0038754D02*
X0124100Y0038754D01*
X0124100Y0038323D02*
X0124100Y0054877D01*
X0125318Y0056095D01*
X0125913Y0055500D01*
X0139200Y0042213D01*
X0139200Y0038368D01*
X0139108Y0038330D01*
X0137870Y0037092D01*
X0137200Y0035475D01*
X0137200Y0027725D01*
X0137870Y0026108D01*
X0139108Y0024870D01*
X0140725Y0024200D01*
X0141213Y0024200D01*
X0116887Y0024200D01*
X0118332Y0025645D01*
X0119108Y0024870D01*
X0120725Y0024200D01*
X0122475Y0024200D01*
X0124092Y0024870D01*
X0125330Y0026108D01*
X0126000Y0027725D01*
X0126000Y0035475D01*
X0125330Y0037092D01*
X0124100Y0038323D01*
X0124867Y0037555D02*
X0128333Y0037555D01*
X0127565Y0036357D02*
X0125635Y0036357D01*
X0126000Y0035158D02*
X0127200Y0035158D01*
X0127200Y0033960D02*
X0126000Y0033960D01*
X0126000Y0032761D02*
X0127200Y0032761D01*
X0127200Y0031563D02*
X0126000Y0031563D01*
X0126000Y0030364D02*
X0127200Y0030364D01*
X0127200Y0029166D02*
X0126000Y0029166D01*
X0126000Y0027967D02*
X0127200Y0027967D01*
X0127596Y0026769D02*
X0125604Y0026769D01*
X0124793Y0025570D02*
X0128407Y0025570D01*
X0130310Y0024372D02*
X0122890Y0024372D01*
X0120310Y0024372D02*
X0117059Y0024372D01*
X0118257Y0025570D02*
X0118407Y0025570D01*
X0116000Y0028687D02*
X0116000Y0035475D01*
X0115330Y0037092D01*
X0114092Y0038330D01*
X0113300Y0038658D01*
X0113300Y0054542D01*
X0114092Y0054870D01*
X0115330Y0056108D01*
X0116000Y0057725D01*
X0116000Y0065475D01*
X0115330Y0067092D01*
X0114092Y0068330D01*
X0112475Y0069000D01*
X0110725Y0069000D01*
X0109108Y0068330D01*
X0108382Y0067605D01*
X0104300Y0071687D01*
X0103187Y0072800D01*
X0065387Y0072800D01*
X0046787Y0091400D01*
X0047634Y0091400D01*
X0049546Y0092192D01*
X0051008Y0093654D01*
X0051600Y0095083D01*
X0052192Y0093654D01*
X0053654Y0092192D01*
X0055566Y0091400D01*
X0057634Y0091400D01*
X0059546Y0092192D01*
X0061008Y0093654D01*
X0061600Y0095083D01*
X0062192Y0093654D01*
X0063654Y0092192D01*
X0065566Y0091400D01*
X0067634Y0091400D01*
X0069546Y0092192D01*
X0071008Y0093654D01*
X0071600Y0095083D01*
X0072192Y0093654D01*
X0073654Y0092192D01*
X0075566Y0091400D01*
X0077634Y0091400D01*
X0079546Y0092192D01*
X0081008Y0093654D01*
X0081600Y0095083D01*
X0082192Y0093654D01*
X0083654Y0092192D01*
X0085566Y0091400D01*
X0087634Y0091400D01*
X0089546Y0092192D01*
X0091008Y0093654D01*
X0091600Y0095083D01*
X0092192Y0093654D01*
X0093654Y0092192D01*
X0095566Y0091400D01*
X0097634Y0091400D01*
X0099546Y0092192D01*
X0101008Y0093654D01*
X0101600Y0095083D01*
X0102192Y0093654D01*
X0103654Y0092192D01*
X0105566Y0091400D01*
X0107634Y0091400D01*
X0109546Y0092192D01*
X0111008Y0093654D01*
X0111600Y0095083D01*
X0112192Y0093654D01*
X0113654Y0092192D01*
X0115566Y0091400D01*
X0117634Y0091400D01*
X0119546Y0092192D01*
X0121008Y0093654D01*
X0121600Y0095083D01*
X0122192Y0093654D01*
X0123654Y0092192D01*
X0124800Y0091717D01*
X0124800Y0067623D01*
X0124092Y0068330D01*
X0122475Y0069000D01*
X0120725Y0069000D01*
X0119108Y0068330D01*
X0117870Y0067092D01*
X0117200Y0065475D01*
X0117200Y0057725D01*
X0117870Y0056108D01*
X0119108Y0054870D01*
X0120300Y0054376D01*
X0120300Y0038824D01*
X0119108Y0038330D01*
X0117870Y0037092D01*
X0117200Y0035475D01*
X0117200Y0029887D01*
X0116000Y0028687D01*
X0116000Y0029166D02*
X0116479Y0029166D01*
X0116000Y0030364D02*
X0117200Y0030364D01*
X0117200Y0031563D02*
X0116000Y0031563D01*
X0116000Y0032761D02*
X0117200Y0032761D01*
X0117200Y0033960D02*
X0116000Y0033960D01*
X0116000Y0035158D02*
X0117200Y0035158D01*
X0117565Y0036357D02*
X0115635Y0036357D01*
X0114867Y0037555D02*
X0118333Y0037555D01*
X0120131Y0038754D02*
X0113300Y0038754D01*
X0113300Y0039952D02*
X0120300Y0039952D01*
X0120300Y0041151D02*
X0113300Y0041151D01*
X0113300Y0042349D02*
X0120300Y0042349D01*
X0120300Y0043548D02*
X0113300Y0043548D01*
X0113300Y0044746D02*
X0120300Y0044746D01*
X0120300Y0045945D02*
X0113300Y0045945D01*
X0113300Y0047143D02*
X0120300Y0047143D01*
X0120300Y0048342D02*
X0113300Y0048342D01*
X0113300Y0049540D02*
X0120300Y0049540D01*
X0120300Y0050739D02*
X0113300Y0050739D01*
X0113300Y0051937D02*
X0120300Y0051937D01*
X0120300Y0053136D02*
X0113300Y0053136D01*
X0113300Y0054334D02*
X0120300Y0054334D01*
X0118444Y0055533D02*
X0114756Y0055533D01*
X0115589Y0056732D02*
X0117611Y0056732D01*
X0117200Y0057930D02*
X0116000Y0057930D01*
X0116000Y0059129D02*
X0117200Y0059129D01*
X0117200Y0060327D02*
X0116000Y0060327D01*
X0116000Y0061526D02*
X0117200Y0061526D01*
X0117200Y0062724D02*
X0116000Y0062724D01*
X0116000Y0063923D02*
X0117200Y0063923D01*
X0117200Y0065121D02*
X0116000Y0065121D01*
X0115650Y0066320D02*
X0117550Y0066320D01*
X0118296Y0067518D02*
X0114904Y0067518D01*
X0113159Y0068717D02*
X0120041Y0068717D01*
X0123159Y0068717D02*
X0124800Y0068717D01*
X0124800Y0069915D02*
X0106072Y0069915D01*
X0107270Y0068717D02*
X0110041Y0068717D01*
X0106000Y0064613D02*
X0107200Y0063413D01*
X0107200Y0057725D01*
X0107870Y0056108D01*
X0109108Y0054870D01*
X0109500Y0054707D01*
X0109500Y0038493D01*
X0109108Y0038330D01*
X0107870Y0037092D01*
X0107200Y0035475D01*
X0107200Y0027725D01*
X0107870Y0026108D01*
X0107977Y0026000D01*
X0105223Y0026000D01*
X0105330Y0026108D01*
X0106000Y0027725D01*
X0106000Y0035475D01*
X0105330Y0037092D01*
X0104092Y0038330D01*
X0103400Y0038617D01*
X0103400Y0054583D01*
X0104092Y0054870D01*
X0105330Y0056108D01*
X0106000Y0057725D01*
X0106000Y0064613D01*
X0106000Y0063923D02*
X0106690Y0063923D01*
X0107200Y0062724D02*
X0106000Y0062724D01*
X0106000Y0061526D02*
X0107200Y0061526D01*
X0107200Y0060327D02*
X0106000Y0060327D01*
X0106000Y0059129D02*
X0107200Y0059129D01*
X0107200Y0057930D02*
X0106000Y0057930D01*
X0105589Y0056732D02*
X0107611Y0056732D01*
X0108444Y0055533D02*
X0104756Y0055533D01*
X0103400Y0054334D02*
X0109500Y0054334D01*
X0109500Y0053136D02*
X0103400Y0053136D01*
X0103400Y0051937D02*
X0109500Y0051937D01*
X0109500Y0050739D02*
X0103400Y0050739D01*
X0103400Y0049540D02*
X0109500Y0049540D01*
X0109500Y0048342D02*
X0103400Y0048342D01*
X0103400Y0047143D02*
X0109500Y0047143D01*
X0109500Y0045945D02*
X0103400Y0045945D01*
X0103400Y0044746D02*
X0109500Y0044746D01*
X0109500Y0043548D02*
X0103400Y0043548D01*
X0103400Y0042349D02*
X0109500Y0042349D01*
X0109500Y0041151D02*
X0103400Y0041151D01*
X0103400Y0039952D02*
X0109500Y0039952D01*
X0109500Y0038754D02*
X0103400Y0038754D01*
X0104867Y0037555D02*
X0108333Y0037555D01*
X0107565Y0036357D02*
X0105635Y0036357D01*
X0106000Y0035158D02*
X0107200Y0035158D01*
X0107200Y0033960D02*
X0106000Y0033960D01*
X0106000Y0032761D02*
X0107200Y0032761D01*
X0107200Y0031563D02*
X0106000Y0031563D01*
X0106000Y0030364D02*
X0107200Y0030364D01*
X0107200Y0029166D02*
X0106000Y0029166D01*
X0106000Y0027967D02*
X0107200Y0027967D01*
X0107596Y0026769D02*
X0105604Y0026769D01*
X0097977Y0026000D02*
X0095223Y0026000D01*
X0095330Y0026108D01*
X0096000Y0027725D01*
X0096000Y0035475D01*
X0095330Y0037092D01*
X0094092Y0038330D01*
X0093500Y0038576D01*
X0093500Y0054624D01*
X0094092Y0054870D01*
X0095330Y0056108D01*
X0096000Y0057725D01*
X0096000Y0064713D01*
X0097200Y0063513D01*
X0097200Y0057725D01*
X0097870Y0056108D01*
X0099108Y0054870D01*
X0099600Y0054666D01*
X0099600Y0038534D01*
X0099108Y0038330D01*
X0097870Y0037092D01*
X0097200Y0035475D01*
X0097200Y0027725D01*
X0097870Y0026108D01*
X0097977Y0026000D01*
X0097596Y0026769D02*
X0095604Y0026769D01*
X0096000Y0027967D02*
X0097200Y0027967D01*
X0097200Y0029166D02*
X0096000Y0029166D01*
X0096000Y0030364D02*
X0097200Y0030364D01*
X0097200Y0031563D02*
X0096000Y0031563D01*
X0096000Y0032761D02*
X0097200Y0032761D01*
X0097200Y0033960D02*
X0096000Y0033960D01*
X0096000Y0035158D02*
X0097200Y0035158D01*
X0097565Y0036357D02*
X0095635Y0036357D01*
X0094867Y0037555D02*
X0098333Y0037555D01*
X0099600Y0038754D02*
X0093500Y0038754D01*
X0093500Y0039952D02*
X0099600Y0039952D01*
X0099600Y0041151D02*
X0093500Y0041151D01*
X0093500Y0042349D02*
X0099600Y0042349D01*
X0099600Y0043548D02*
X0093500Y0043548D01*
X0093500Y0044746D02*
X0099600Y0044746D01*
X0099600Y0045945D02*
X0093500Y0045945D01*
X0093500Y0047143D02*
X0099600Y0047143D01*
X0099600Y0048342D02*
X0093500Y0048342D01*
X0093500Y0049540D02*
X0099600Y0049540D01*
X0099600Y0050739D02*
X0093500Y0050739D01*
X0093500Y0051937D02*
X0099600Y0051937D01*
X0099600Y0053136D02*
X0093500Y0053136D01*
X0093500Y0054334D02*
X0099600Y0054334D01*
X0098444Y0055533D02*
X0094756Y0055533D01*
X0095589Y0056732D02*
X0097611Y0056732D01*
X0097200Y0057930D02*
X0096000Y0057930D01*
X0096000Y0059129D02*
X0097200Y0059129D01*
X0097200Y0060327D02*
X0096000Y0060327D01*
X0096000Y0061526D02*
X0097200Y0061526D01*
X0097200Y0062724D02*
X0096000Y0062724D01*
X0096000Y0063923D02*
X0096790Y0063923D01*
X0089700Y0054624D02*
X0089700Y0038576D01*
X0089108Y0038330D01*
X0087870Y0037092D01*
X0087200Y0035475D01*
X0087200Y0027725D01*
X0087870Y0026108D01*
X0087977Y0026000D01*
X0085223Y0026000D01*
X0085330Y0026108D01*
X0086000Y0027725D01*
X0086000Y0035475D01*
X0085330Y0037092D01*
X0084092Y0038330D01*
X0083600Y0038534D01*
X0083600Y0054666D01*
X0084092Y0054870D01*
X0085330Y0056108D01*
X0086000Y0057725D01*
X0086000Y0065475D01*
X0085330Y0067092D01*
X0085223Y0067200D01*
X0087977Y0067200D01*
X0087870Y0067092D01*
X0087200Y0065475D01*
X0087200Y0057725D01*
X0087870Y0056108D01*
X0089108Y0054870D01*
X0089700Y0054624D01*
X0089700Y0054334D02*
X0083600Y0054334D01*
X0083600Y0053136D02*
X0089700Y0053136D01*
X0089700Y0051937D02*
X0083600Y0051937D01*
X0083600Y0050739D02*
X0089700Y0050739D01*
X0089700Y0049540D02*
X0083600Y0049540D01*
X0083600Y0048342D02*
X0089700Y0048342D01*
X0089700Y0047143D02*
X0083600Y0047143D01*
X0083600Y0045945D02*
X0089700Y0045945D01*
X0089700Y0044746D02*
X0083600Y0044746D01*
X0083600Y0043548D02*
X0089700Y0043548D01*
X0089700Y0042349D02*
X0083600Y0042349D01*
X0083600Y0041151D02*
X0089700Y0041151D01*
X0089700Y0039952D02*
X0083600Y0039952D01*
X0083600Y0038754D02*
X0089700Y0038754D01*
X0088333Y0037555D02*
X0084867Y0037555D01*
X0085635Y0036357D02*
X0087565Y0036357D01*
X0087200Y0035158D02*
X0086000Y0035158D01*
X0086000Y0033960D02*
X0087200Y0033960D01*
X0087200Y0032761D02*
X0086000Y0032761D01*
X0086000Y0031563D02*
X0087200Y0031563D01*
X0087200Y0030364D02*
X0086000Y0030364D01*
X0086000Y0029166D02*
X0087200Y0029166D01*
X0087200Y0027967D02*
X0086000Y0027967D01*
X0085604Y0026769D02*
X0087596Y0026769D01*
X0079800Y0054334D02*
X0072800Y0054334D01*
X0074756Y0055533D02*
X0078444Y0055533D01*
X0077611Y0056732D02*
X0075589Y0056732D01*
X0076000Y0057930D02*
X0077200Y0057930D01*
X0077200Y0059129D02*
X0076000Y0059129D01*
X0076000Y0060327D02*
X0077200Y0060327D01*
X0077200Y0061526D02*
X0076000Y0061526D01*
X0076000Y0062724D02*
X0077200Y0062724D01*
X0077200Y0063923D02*
X0076000Y0063923D01*
X0076000Y0065121D02*
X0077200Y0065121D01*
X0077550Y0066320D02*
X0075650Y0066320D01*
X0070400Y0054334D02*
X0062800Y0054334D01*
X0064756Y0055533D02*
X0068444Y0055533D01*
X0067611Y0056732D02*
X0065589Y0056732D01*
X0066000Y0057930D02*
X0067200Y0057930D01*
X0067200Y0059129D02*
X0066000Y0059129D01*
X0066000Y0060327D02*
X0067200Y0060327D01*
X0067200Y0061526D02*
X0066000Y0061526D01*
X0066000Y0062724D02*
X0067200Y0062724D01*
X0067200Y0063923D02*
X0066000Y0063923D01*
X0066000Y0065121D02*
X0067200Y0065121D01*
X0067550Y0066320D02*
X0065650Y0066320D01*
X0064676Y0073511D02*
X0124800Y0073511D01*
X0124800Y0074709D02*
X0063478Y0074709D01*
X0062279Y0075908D02*
X0124800Y0075908D01*
X0124800Y0077106D02*
X0061081Y0077106D01*
X0059882Y0078305D02*
X0124800Y0078305D01*
X0124800Y0079503D02*
X0058684Y0079503D01*
X0057485Y0080702D02*
X0124800Y0080702D01*
X0124800Y0081900D02*
X0056287Y0081900D01*
X0055088Y0083099D02*
X0124800Y0083099D01*
X0124800Y0084297D02*
X0053890Y0084297D01*
X0052691Y0085496D02*
X0124800Y0085496D01*
X0124800Y0086694D02*
X0051493Y0086694D01*
X0050294Y0087893D02*
X0124800Y0087893D01*
X0124800Y0089091D02*
X0049096Y0089091D01*
X0047897Y0090290D02*
X0124800Y0090290D01*
X0124800Y0091488D02*
X0117848Y0091488D01*
X0115352Y0091488D02*
X0107848Y0091488D01*
X0110041Y0092687D02*
X0113159Y0092687D01*
X0112096Y0093885D02*
X0111104Y0093885D01*
X0111367Y0098679D02*
X0111833Y0098679D01*
X0112524Y0099878D02*
X0110676Y0099878D01*
X0109381Y0101076D02*
X0113819Y0101076D01*
X0119381Y0101076D02*
X0123819Y0101076D01*
X0122524Y0099878D02*
X0120676Y0099878D01*
X0121367Y0098679D02*
X0121833Y0098679D01*
X0122096Y0093885D02*
X0121104Y0093885D01*
X0120041Y0092687D02*
X0123159Y0092687D01*
X0128600Y0091488D02*
X0135352Y0091488D01*
X0137848Y0091488D02*
X0145352Y0091488D01*
X0143159Y0092687D02*
X0140041Y0092687D01*
X0141104Y0093885D02*
X0142096Y0093885D01*
X0141833Y0098679D02*
X0141367Y0098679D01*
X0140676Y0099878D02*
X0142524Y0099878D01*
X0143819Y0101076D02*
X0139381Y0101076D01*
X0133819Y0101076D02*
X0129381Y0101076D01*
X0130676Y0099878D02*
X0132524Y0099878D01*
X0131833Y0098679D02*
X0131367Y0098679D01*
X0131104Y0093885D02*
X0132096Y0093885D01*
X0133159Y0092687D02*
X0130041Y0092687D01*
X0124800Y0072312D02*
X0103675Y0072312D01*
X0104300Y0071687D02*
X0104300Y0071687D01*
X0104873Y0071114D02*
X0124800Y0071114D01*
X0124756Y0055533D02*
X0125880Y0055533D01*
X0127078Y0054334D02*
X0124100Y0054334D01*
X0124100Y0053136D02*
X0128277Y0053136D01*
X0129476Y0051937D02*
X0124100Y0051937D01*
X0124100Y0050739D02*
X0130674Y0050739D01*
X0131873Y0049540D02*
X0124100Y0049540D01*
X0124100Y0048342D02*
X0133071Y0048342D01*
X0134270Y0047143D02*
X0124100Y0047143D01*
X0124100Y0045945D02*
X0135468Y0045945D01*
X0136667Y0044746D02*
X0124100Y0044746D01*
X0124100Y0043548D02*
X0137865Y0043548D01*
X0139064Y0042349D02*
X0124100Y0042349D01*
X0124100Y0041151D02*
X0139200Y0041151D01*
X0139200Y0039952D02*
X0124100Y0039952D01*
X0132890Y0024372D02*
X0140310Y0024372D01*
X0141213Y0024200D02*
X0141213Y0024200D01*
X0138407Y0025570D02*
X0134793Y0025570D01*
X0135604Y0026769D02*
X0137596Y0026769D01*
X0137200Y0027967D02*
X0136000Y0027967D01*
X0136000Y0029166D02*
X0137200Y0029166D01*
X0137200Y0030364D02*
X0136000Y0030364D01*
X0136000Y0031563D02*
X0137200Y0031563D01*
X0137200Y0032761D02*
X0136000Y0032761D01*
X0136000Y0033960D02*
X0137200Y0033960D01*
X0137200Y0035158D02*
X0136000Y0035158D01*
X0135635Y0036357D02*
X0137565Y0036357D01*
X0138333Y0037555D02*
X0134867Y0037555D01*
X0143163Y0020776D02*
X0176411Y0020776D01*
X0176876Y0021975D02*
X0144362Y0021975D01*
X0145560Y0023173D02*
X0177695Y0023173D01*
X0177078Y0022496D02*
X0177078Y0022496D01*
X0150310Y0024372D02*
X0146759Y0024372D01*
X0147957Y0025570D02*
X0148407Y0025570D01*
X0148400Y0068717D02*
X0150041Y0068717D01*
X0151367Y0098679D02*
X0151833Y0098679D01*
X0152524Y0099878D02*
X0150676Y0099878D01*
X0149381Y0101076D02*
X0153819Y0101076D01*
X0159381Y0101076D02*
X0159900Y0101076D01*
X0159900Y0102275D02*
X0104962Y0102275D01*
X0103819Y0101076D02*
X0103763Y0101076D01*
X0106160Y0103473D02*
X0159900Y0103473D01*
X0159900Y0104672D02*
X0107359Y0104672D01*
X0108557Y0105870D02*
X0159900Y0105870D01*
X0159900Y0107069D02*
X0109756Y0107069D01*
X0110954Y0108268D02*
X0159900Y0108268D01*
X0159900Y0109466D02*
X0112153Y0109466D01*
X0113352Y0110665D02*
X0159900Y0110665D01*
X0159900Y0111863D02*
X0114550Y0111863D01*
X0115749Y0113062D02*
X0159900Y0113062D01*
X0159900Y0114260D02*
X0116947Y0114260D01*
X0118146Y0115459D02*
X0159900Y0115459D01*
X0159900Y0116657D02*
X0119344Y0116657D01*
X0120543Y0117856D02*
X0159900Y0117856D01*
X0159900Y0119054D02*
X0121741Y0119054D01*
X0122940Y0120253D02*
X0159900Y0120253D01*
X0152380Y0121451D02*
X0124138Y0121451D01*
X0125337Y0122650D02*
X0150304Y0122650D01*
X0148938Y0123848D02*
X0126535Y0123848D01*
X0127734Y0125047D02*
X0147798Y0125047D01*
X0147106Y0126245D02*
X0128932Y0126245D01*
X0130131Y0127444D02*
X0146430Y0127444D01*
X0146109Y0128642D02*
X0131329Y0128642D01*
X0132528Y0129841D02*
X0145788Y0129841D01*
X0145701Y0131039D02*
X0133726Y0131039D01*
X0134925Y0132238D02*
X0145701Y0132238D01*
X0145808Y0133436D02*
X0136123Y0133436D01*
X0137322Y0134635D02*
X0146129Y0134635D01*
X0146459Y0135833D02*
X0138520Y0135833D01*
X0145711Y0143024D02*
X0166200Y0143024D01*
X0166200Y0141826D02*
X0160548Y0141826D01*
X0162763Y0140627D02*
X0166200Y0140627D01*
X0166200Y0139429D02*
X0164185Y0139429D01*
X0165357Y0138230D02*
X0166200Y0138230D01*
X0166200Y0137032D02*
X0166049Y0137032D01*
X0166200Y0144223D02*
X0146910Y0144223D01*
X0148108Y0145421D02*
X0166200Y0145421D01*
X0113667Y0119054D02*
X0037700Y0119054D01*
X0037700Y0117856D02*
X0112469Y0117856D01*
X0111270Y0116657D02*
X0037700Y0116657D01*
X0037700Y0115459D02*
X0110072Y0115459D01*
X0108873Y0114260D02*
X0037700Y0114260D01*
X0037700Y0113062D02*
X0107675Y0113062D01*
X0106476Y0111863D02*
X0037700Y0111863D01*
X0037700Y0110665D02*
X0105278Y0110665D01*
X0104079Y0109466D02*
X0037700Y0109466D01*
X0037700Y0108268D02*
X0102881Y0108268D01*
X0101682Y0107069D02*
X0037700Y0107069D01*
X0037700Y0105870D02*
X0042883Y0105870D01*
X0041685Y0104672D02*
X0037700Y0104672D01*
X0037700Y0103473D02*
X0040486Y0103473D01*
X0039288Y0102275D02*
X0037700Y0102275D01*
X0037700Y0101076D02*
X0038089Y0101076D01*
X0047848Y0091488D02*
X0055352Y0091488D01*
X0057848Y0091488D02*
X0065352Y0091488D01*
X0067848Y0091488D02*
X0075352Y0091488D01*
X0077848Y0091488D02*
X0085352Y0091488D01*
X0087848Y0091488D02*
X0095352Y0091488D01*
X0093159Y0092687D02*
X0090041Y0092687D01*
X0091104Y0093885D02*
X0092096Y0093885D01*
X0097848Y0091488D02*
X0105352Y0091488D01*
X0103159Y0092687D02*
X0100041Y0092687D01*
X0101104Y0093885D02*
X0102096Y0093885D01*
X0087550Y0066320D02*
X0085650Y0066320D01*
X0086000Y0065121D02*
X0087200Y0065121D01*
X0087200Y0063923D02*
X0086000Y0063923D01*
X0086000Y0062724D02*
X0087200Y0062724D01*
X0087200Y0061526D02*
X0086000Y0061526D01*
X0086000Y0060327D02*
X0087200Y0060327D01*
X0087200Y0059129D02*
X0086000Y0059129D01*
X0086000Y0057930D02*
X0087200Y0057930D01*
X0087611Y0056732D02*
X0085589Y0056732D01*
X0084756Y0055533D02*
X0088444Y0055533D01*
X0083159Y0092687D02*
X0080041Y0092687D01*
X0081104Y0093885D02*
X0082096Y0093885D01*
X0073159Y0092687D02*
X0070041Y0092687D01*
X0071104Y0093885D02*
X0072096Y0093885D01*
X0063159Y0092687D02*
X0060041Y0092687D01*
X0061104Y0093885D02*
X0062096Y0093885D01*
X0053159Y0092687D02*
X0050041Y0092687D01*
X0051104Y0093885D02*
X0052096Y0093885D01*
X0055404Y0074709D02*
X0040978Y0074709D01*
X0042176Y0073511D02*
X0056602Y0073511D01*
X0057801Y0072312D02*
X0043375Y0072312D01*
X0044573Y0071114D02*
X0058999Y0071114D01*
X0060198Y0069915D02*
X0045772Y0069915D01*
X0046970Y0068717D02*
X0050041Y0068717D01*
X0048296Y0067518D02*
X0048169Y0067518D01*
X0046390Y0063923D02*
X0046200Y0063923D01*
X0046200Y0062724D02*
X0047200Y0062724D01*
X0052800Y0054334D02*
X0060400Y0054334D01*
X0058444Y0055533D02*
X0054756Y0055533D01*
X0055589Y0056732D02*
X0057611Y0056732D01*
X0057200Y0057930D02*
X0056000Y0057930D01*
X0056000Y0059129D02*
X0057200Y0059129D01*
X0057200Y0060327D02*
X0056000Y0060327D01*
X0056000Y0061526D02*
X0057200Y0061526D01*
X0057200Y0062724D02*
X0056000Y0062724D01*
X0056000Y0063923D02*
X0057200Y0063923D01*
X0057200Y0065121D02*
X0056000Y0065121D01*
X0055650Y0066320D02*
X0057550Y0066320D01*
X0058296Y0067518D02*
X0054904Y0067518D01*
X0053159Y0068717D02*
X0060041Y0068717D01*
X0059554Y0162201D02*
X0063646Y0162201D01*
X0062447Y0163399D02*
X0060753Y0163399D01*
X0061399Y0164598D02*
X0061801Y0164598D01*
X0061631Y0168193D02*
X0061569Y0168193D01*
X0061072Y0169392D02*
X0062128Y0169392D01*
X0063236Y0170590D02*
X0059964Y0170590D01*
X0050890Y0181377D02*
X0041300Y0181377D01*
X0041300Y0182575D02*
X0052088Y0182575D01*
X0053287Y0183774D02*
X0041300Y0183774D01*
X0041300Y0184972D02*
X0054485Y0184972D01*
X0049691Y0180178D02*
X0041300Y0180178D01*
X0041300Y0178980D02*
X0048493Y0178980D01*
X0047294Y0177781D02*
X0041300Y0177781D01*
X0041300Y0176583D02*
X0046096Y0176583D01*
X0044897Y0175384D02*
X0041300Y0175384D01*
X0041300Y0174186D02*
X0043699Y0174186D01*
X0042500Y0172987D02*
X0041300Y0172987D01*
X0041300Y0171789D02*
X0041302Y0171789D01*
X0041400Y0165796D02*
X0040683Y0165796D01*
X0041801Y0164598D02*
X0039485Y0164598D01*
X0038286Y0163399D02*
X0042447Y0163399D01*
X0037500Y0198156D02*
X0037378Y0198156D01*
X0041300Y0228119D02*
X0062869Y0228119D01*
X0062025Y0229317D02*
X0041300Y0229317D01*
X0041300Y0230516D02*
X0061529Y0230516D01*
X0061500Y0231714D02*
X0041801Y0231714D01*
X0043000Y0232913D02*
X0061624Y0232913D01*
X0060397Y0255684D02*
X0036716Y0255684D01*
X0070006Y0258081D02*
X0071693Y0258081D01*
X0071500Y0256883D02*
X0071204Y0256883D01*
X0079860Y0200553D02*
X0083340Y0200553D01*
X0082221Y0199354D02*
X0080979Y0199354D01*
X0081476Y0198156D02*
X0081724Y0198156D01*
X0081925Y0194560D02*
X0081275Y0194560D01*
X0080574Y0193362D02*
X0082626Y0193362D01*
X0083984Y0192163D02*
X0079216Y0192163D01*
X0079964Y0170590D02*
X0082953Y0170590D01*
X0081962Y0169392D02*
X0081072Y0169392D01*
X0081399Y0164598D02*
X0081573Y0164598D01*
X0082251Y0163399D02*
X0080753Y0163399D01*
X0079554Y0162201D02*
X0083468Y0162201D01*
X0086216Y0162201D02*
X0086984Y0162201D01*
X0086984Y0163399D02*
X0086216Y0163399D01*
X0086216Y0164598D02*
X0086984Y0164598D01*
X0086984Y0165796D02*
X0086216Y0165796D01*
X0086216Y0166995D02*
X0086984Y0166995D01*
X0086984Y0168193D02*
X0086216Y0168193D01*
X0086216Y0169392D02*
X0086984Y0169392D01*
X0086984Y0170590D02*
X0086216Y0170590D01*
X0090247Y0170590D02*
X0092953Y0170590D01*
X0091962Y0169392D02*
X0091238Y0169392D01*
X0090949Y0163399D02*
X0092251Y0163399D01*
X0093468Y0162201D02*
X0089732Y0162201D01*
X0096216Y0162201D02*
X0096984Y0162201D01*
X0096984Y0163399D02*
X0096216Y0163399D01*
X0096216Y0164598D02*
X0096984Y0164598D01*
X0096984Y0165796D02*
X0096216Y0165796D01*
X0096216Y0166995D02*
X0096984Y0166995D01*
X0096984Y0168193D02*
X0096216Y0168193D01*
X0096216Y0169392D02*
X0096984Y0169392D01*
X0096984Y0170590D02*
X0096216Y0170590D01*
X0100247Y0170590D02*
X0102953Y0170590D01*
X0101962Y0169392D02*
X0101238Y0169392D01*
X0100949Y0163399D02*
X0102251Y0163399D01*
X0103468Y0162201D02*
X0099732Y0162201D01*
X0106216Y0162201D02*
X0106984Y0162201D01*
X0106984Y0163399D02*
X0106216Y0163399D01*
X0106216Y0164598D02*
X0106984Y0164598D01*
X0106984Y0165796D02*
X0106216Y0165796D01*
X0106216Y0166995D02*
X0106984Y0166995D01*
X0106984Y0168193D02*
X0106216Y0168193D01*
X0106216Y0169392D02*
X0106984Y0169392D01*
X0106984Y0170590D02*
X0106216Y0170590D01*
X0073236Y0170590D02*
X0069964Y0170590D01*
X0071072Y0169392D02*
X0072128Y0169392D01*
X0071631Y0168193D02*
X0071569Y0168193D01*
X0071399Y0164598D02*
X0071801Y0164598D01*
X0072447Y0163399D02*
X0070753Y0163399D01*
X0069554Y0162201D02*
X0073646Y0162201D01*
X0057300Y0325198D02*
X0041227Y0325198D01*
X0043799Y0326397D02*
X0057300Y0326397D01*
X0057300Y0327595D02*
X0055869Y0327595D01*
X0054386Y0327595D02*
X0053814Y0327595D01*
X0053814Y0327228D02*
X0053814Y0331314D01*
X0049728Y0331314D01*
X0049728Y0331256D01*
X0049836Y0330576D01*
X0050049Y0329922D01*
X0050361Y0329309D01*
X0050765Y0328752D01*
X0051252Y0328265D01*
X0051809Y0327861D01*
X0052422Y0327549D01*
X0053076Y0327336D01*
X0053756Y0327228D01*
X0053814Y0327228D01*
X0052331Y0327595D02*
X0044997Y0327595D01*
X0045813Y0328794D02*
X0050735Y0328794D01*
X0050026Y0329992D02*
X0046310Y0329992D01*
X0046610Y0331191D02*
X0049739Y0331191D01*
X0049799Y0332389D02*
X0046610Y0332389D01*
X0046577Y0333588D02*
X0050206Y0333588D01*
X0051104Y0334786D02*
X0046080Y0334786D01*
X0045584Y0335985D02*
X0057300Y0335985D01*
X0057300Y0337183D02*
X0044443Y0337183D01*
X0042782Y0338382D02*
X0056419Y0338382D01*
X0057096Y0334786D02*
X0057300Y0334786D01*
X0054386Y0334786D02*
X0053814Y0334786D01*
X0053814Y0333588D02*
X0054386Y0333588D01*
X0054386Y0332389D02*
X0053814Y0332389D01*
X0053814Y0331191D02*
X0054386Y0331191D01*
X0054386Y0329992D02*
X0053814Y0329992D01*
X0053814Y0328794D02*
X0054386Y0328794D01*
X0098363Y0356359D02*
X0193850Y0356359D01*
X0193850Y0357558D02*
X0100439Y0357558D01*
X0101813Y0358756D02*
X0193850Y0358756D01*
X0193850Y0359955D02*
X0102965Y0359955D01*
X0103657Y0361153D02*
X0193850Y0361153D01*
X0193850Y0362352D02*
X0138139Y0362352D01*
X0138088Y0362335D02*
X0138911Y0362603D01*
X0139683Y0362996D01*
X0140383Y0363505D01*
X0140995Y0364117D01*
X0141504Y0364817D01*
X0141897Y0365589D01*
X0142165Y0366412D01*
X0142300Y0367267D01*
X0142300Y0371000D01*
X0137400Y0371000D01*
X0137400Y0372200D01*
X0136200Y0372200D01*
X0136200Y0380974D01*
X0135512Y0380865D01*
X0134689Y0380597D01*
X0133917Y0380204D01*
X0133217Y0379695D01*
X0132605Y0379083D01*
X0132096Y0378383D01*
X0131703Y0377611D01*
X0131435Y0376788D01*
X0131300Y0375933D01*
X0131300Y0372200D01*
X0136200Y0372200D01*
X0136200Y0371000D01*
X0131300Y0371000D01*
X0131300Y0367267D01*
X0131435Y0366412D01*
X0131703Y0365589D01*
X0132096Y0364817D01*
X0132605Y0364117D01*
X0133217Y0363505D01*
X0133917Y0362996D01*
X0134689Y0362603D01*
X0135512Y0362335D01*
X0136200Y0362226D01*
X0136200Y0371000D01*
X0137400Y0371000D01*
X0137400Y0362226D01*
X0138088Y0362335D01*
X0137400Y0362352D02*
X0136200Y0362352D01*
X0135461Y0362352D02*
X0104349Y0362352D01*
X0104671Y0363550D02*
X0133171Y0363550D01*
X0132146Y0364749D02*
X0104992Y0364749D01*
X0105100Y0365947D02*
X0131586Y0365947D01*
X0131319Y0367146D02*
X0105100Y0367146D01*
X0105021Y0368344D02*
X0131300Y0368344D01*
X0131300Y0369543D02*
X0104699Y0369543D01*
X0104378Y0370741D02*
X0131300Y0370741D01*
X0131300Y0373139D02*
X0108052Y0373139D01*
X0109251Y0374337D02*
X0131300Y0374337D01*
X0131300Y0375536D02*
X0109918Y0375536D01*
X0110415Y0376734D02*
X0131427Y0376734D01*
X0131867Y0377933D02*
X0110610Y0377933D01*
X0110610Y0379131D02*
X0132653Y0379131D01*
X0134164Y0380330D02*
X0110471Y0380330D01*
X0109975Y0381528D02*
X0175591Y0381528D01*
X0175591Y0380330D02*
X0158690Y0380330D01*
X0159502Y0379993D02*
X0157554Y0380800D01*
X0155446Y0380800D01*
X0153498Y0379993D01*
X0152007Y0378502D01*
X0151200Y0376554D01*
X0151200Y0366646D01*
X0152007Y0364698D01*
X0153498Y0363207D01*
X0155446Y0362400D01*
X0157554Y0362400D01*
X0159502Y0363207D01*
X0160993Y0364698D01*
X0161800Y0366646D01*
X0161800Y0376554D01*
X0160993Y0378502D01*
X0159502Y0379993D01*
X0160364Y0379131D02*
X0175750Y0379131D01*
X0176214Y0377933D02*
X0161229Y0377933D01*
X0161726Y0376734D02*
X0176679Y0376734D01*
X0177078Y0375704D02*
X0177078Y0375704D01*
X0177231Y0375536D02*
X0161800Y0375536D01*
X0161800Y0374337D02*
X0178324Y0374337D01*
X0179416Y0373139D02*
X0161800Y0373139D01*
X0161800Y0371940D02*
X0181301Y0371940D01*
X0183535Y0370828D02*
X0183535Y0370828D01*
X0184464Y0370741D02*
X0161800Y0370741D01*
X0161800Y0369543D02*
X0193850Y0369543D01*
X0193850Y0370741D02*
X0188666Y0370741D01*
X0192077Y0371940D02*
X0193850Y0371940D01*
X0193850Y0373139D02*
X0193664Y0373139D01*
X0193850Y0368344D02*
X0161800Y0368344D01*
X0161800Y0367146D02*
X0193850Y0367146D01*
X0193850Y0365947D02*
X0161511Y0365947D01*
X0161014Y0364749D02*
X0193850Y0364749D01*
X0193850Y0363550D02*
X0159846Y0363550D01*
X0153154Y0363550D02*
X0140429Y0363550D01*
X0141454Y0364749D02*
X0151986Y0364749D01*
X0151489Y0365947D02*
X0142014Y0365947D01*
X0142281Y0367146D02*
X0151200Y0367146D01*
X0151200Y0368344D02*
X0142300Y0368344D01*
X0142300Y0369543D02*
X0151200Y0369543D01*
X0151200Y0370741D02*
X0142300Y0370741D01*
X0142300Y0372200D02*
X0142300Y0375933D01*
X0142165Y0376788D01*
X0141897Y0377611D01*
X0141504Y0378383D01*
X0140995Y0379083D01*
X0140383Y0379695D01*
X0139683Y0380204D01*
X0138911Y0380597D01*
X0138088Y0380865D01*
X0137400Y0380974D01*
X0137400Y0372200D01*
X0142300Y0372200D01*
X0142300Y0373139D02*
X0151200Y0373139D01*
X0151200Y0374337D02*
X0142300Y0374337D01*
X0142300Y0375536D02*
X0151200Y0375536D01*
X0151274Y0376734D02*
X0142173Y0376734D01*
X0141733Y0377933D02*
X0151771Y0377933D01*
X0152636Y0379131D02*
X0140947Y0379131D01*
X0139436Y0380330D02*
X0154310Y0380330D01*
X0151200Y0371940D02*
X0137400Y0371940D01*
X0137400Y0373139D02*
X0136200Y0373139D01*
X0136200Y0374337D02*
X0137400Y0374337D01*
X0137400Y0375536D02*
X0136200Y0375536D01*
X0136200Y0376734D02*
X0137400Y0376734D01*
X0137400Y0377933D02*
X0136200Y0377933D01*
X0136200Y0379131D02*
X0137400Y0379131D01*
X0137400Y0380330D02*
X0136200Y0380330D01*
X0136200Y0371940D02*
X0105840Y0371940D01*
X0109387Y0382727D02*
X0175591Y0382727D01*
X0175694Y0383925D02*
X0108189Y0383925D01*
X0108207Y0385124D02*
X0176159Y0385124D01*
X0176623Y0386322D02*
X0109031Y0386322D01*
X0109470Y0387521D02*
X0177100Y0387521D01*
X0177078Y0387496D02*
X0177078Y0387496D01*
X0178193Y0388719D02*
X0109470Y0388719D01*
X0109180Y0389918D02*
X0179285Y0389918D01*
X0137400Y0370741D02*
X0136200Y0370741D01*
X0136200Y0369543D02*
X0137400Y0369543D01*
X0137400Y0368344D02*
X0136200Y0368344D01*
X0136200Y0367146D02*
X0137400Y0367146D01*
X0137400Y0365947D02*
X0136200Y0365947D01*
X0136200Y0364749D02*
X0137400Y0364749D01*
X0137400Y0363550D02*
X0136200Y0363550D01*
D20*
X0076600Y0316600D03*
X0066600Y0291600D03*
X0051600Y0311600D03*
X0036600Y0314100D03*
X0056600Y0236600D03*
X0051600Y0226600D03*
X0051600Y0091600D03*
X0051600Y0071600D03*
X0066600Y0081600D03*
X0086600Y0041600D03*
X0096600Y0046600D03*
X0106600Y0046600D03*
X0116600Y0046600D03*
X0126600Y0046600D03*
X0136600Y0041600D03*
X0131600Y0081600D03*
X0141600Y0081600D03*
X0156600Y0081600D03*
X0171600Y0046600D03*
X0166600Y0011600D03*
X0116600Y0081600D03*
X0186600Y0171600D03*
X0156600Y0241600D03*
X0136600Y0216600D03*
M02*
