%
M48
M72
T01C0.02362
T02C0.02400
T03C0.03200
T04C0.03543
T05C0.03937
T06C0.04000
T07C0.05200
T08C0.07480
T09C0.12598
T10C0.12800
%
T01
X51600Y71600
X51600Y91600
X66600Y81600
X86600Y41600
X96600Y46600
X106600Y46600
X116600Y46600
X126600Y46600
X136600Y41600
X131600Y81600
X141600Y81600
X156600Y81600
X171600Y46600
X166600Y11600
X116600Y81600
X186600Y171600
X156600Y241600
X136600Y216600
X76600Y316600
X66600Y291600
X51600Y311600
X36600Y314100
X56600Y236600
X51600Y226600
T02
X91600Y204100
X110500Y223000
X120400Y227500
X116800Y187000
X164500Y154600
X184300Y180700
T03
X186600Y281600
X176600Y281600
X166600Y281600
X156600Y281600
X146600Y281600
X136600Y281600
X126600Y281600
X116600Y281600
X116600Y311600
X126600Y311600
X136600Y311600
X146600Y311600
X156600Y311600
X166600Y311600
X176600Y311600
X186600Y311600
T04
X89100Y341600
X84100Y331600
X79100Y341600
X74100Y331600
X69100Y341600
X64100Y331600
X59100Y341600
X54100Y331600
T05
X56600Y166600
X46600Y166600
X66600Y166600
X76600Y166600
X86600Y166600
X96600Y166600
X106600Y166600
X116600Y166600
X126600Y166600
X136600Y166600
X146600Y166600
X156600Y166600
X156600Y96600
X146600Y96600
X136600Y96600
X126600Y96600
X116600Y96600
X106600Y96600
X96600Y96600
X86600Y96600
X76600Y96600
X66600Y96600
X56600Y96600
X46600Y96600
T06
X41600Y61600
X51600Y61600
X61600Y61600
X71600Y61600
X81600Y61600
X91600Y61600
X101600Y61600
X111600Y61600
X121600Y61600
X131600Y61600
X141600Y61600
X151600Y61600
X161600Y61600
X161600Y31600
X151600Y31600
X141600Y31600
X131600Y31600
X121600Y31600
X111600Y31600
X101600Y31600
X91600Y31600
X81600Y31600
X71600Y31600
X61600Y31600
X51600Y31600
X41600Y31600
X76600Y196600
X86600Y196600
X96600Y196600
X106600Y196600
X116600Y196600
X126600Y196600
X136600Y196600
X146600Y196600
X156600Y196600
X166600Y196600
X176600Y196600
X186600Y196600
X186600Y256600
X176600Y256600
X166600Y256600
X156600Y256600
X146600Y256600
X136600Y256600
X126600Y256600
X121100Y246800
X116600Y256600
X111100Y246800
X106600Y256600
X96600Y256600
X86600Y256600
X76600Y256600
X66600Y251600
X66600Y241600
X66600Y231600
X66600Y221600
X66600Y211600
X66600Y201600
X31600Y201600
X31600Y211600
X31600Y221600
X31600Y231600
X31600Y241600
X31600Y251600
T07
X136800Y371600
X156500Y371600
T08
X103600Y378600
X103600Y332112
X39600Y332112
X39600Y378600
T09
X16600Y16600
X46600Y131600
X156600Y131600
X186600Y16600
X186600Y381600
X16600Y381600
T10
X49100Y366600
X94100Y366600
M30
