G75*
%MOIN*%
%OFA0B0*%
%FSLAX25Y25*%
%IPPOS*%
%LPD*%
%AMOC8*
5,1,8,0,0,1.08239X$1,22.5*
%
%ADD10C,0.00000*%
%ADD11C,0.00039*%
D10*
X0001600Y0001600D02*
X0001600Y0395301D01*
X0198450Y0395301D01*
X0198450Y0001600D01*
X0001600Y0001600D01*
X0010301Y0016600D02*
X0010303Y0016758D01*
X0010309Y0016916D01*
X0010319Y0017074D01*
X0010333Y0017232D01*
X0010351Y0017389D01*
X0010372Y0017546D01*
X0010398Y0017702D01*
X0010428Y0017858D01*
X0010461Y0018013D01*
X0010499Y0018166D01*
X0010540Y0018319D01*
X0010585Y0018471D01*
X0010634Y0018622D01*
X0010687Y0018771D01*
X0010743Y0018919D01*
X0010803Y0019065D01*
X0010867Y0019210D01*
X0010935Y0019353D01*
X0011006Y0019495D01*
X0011080Y0019635D01*
X0011158Y0019772D01*
X0011240Y0019908D01*
X0011324Y0020042D01*
X0011413Y0020173D01*
X0011504Y0020302D01*
X0011599Y0020429D01*
X0011696Y0020554D01*
X0011797Y0020676D01*
X0011901Y0020795D01*
X0012008Y0020912D01*
X0012118Y0021026D01*
X0012231Y0021137D01*
X0012346Y0021246D01*
X0012464Y0021351D01*
X0012585Y0021453D01*
X0012708Y0021553D01*
X0012834Y0021649D01*
X0012962Y0021742D01*
X0013092Y0021832D01*
X0013225Y0021918D01*
X0013360Y0022002D01*
X0013496Y0022081D01*
X0013635Y0022158D01*
X0013776Y0022230D01*
X0013918Y0022300D01*
X0014062Y0022365D01*
X0014208Y0022427D01*
X0014355Y0022485D01*
X0014504Y0022540D01*
X0014654Y0022591D01*
X0014805Y0022638D01*
X0014957Y0022681D01*
X0015110Y0022720D01*
X0015265Y0022756D01*
X0015420Y0022787D01*
X0015576Y0022815D01*
X0015732Y0022839D01*
X0015889Y0022859D01*
X0016047Y0022875D01*
X0016204Y0022887D01*
X0016363Y0022895D01*
X0016521Y0022899D01*
X0016679Y0022899D01*
X0016837Y0022895D01*
X0016996Y0022887D01*
X0017153Y0022875D01*
X0017311Y0022859D01*
X0017468Y0022839D01*
X0017624Y0022815D01*
X0017780Y0022787D01*
X0017935Y0022756D01*
X0018090Y0022720D01*
X0018243Y0022681D01*
X0018395Y0022638D01*
X0018546Y0022591D01*
X0018696Y0022540D01*
X0018845Y0022485D01*
X0018992Y0022427D01*
X0019138Y0022365D01*
X0019282Y0022300D01*
X0019424Y0022230D01*
X0019565Y0022158D01*
X0019704Y0022081D01*
X0019840Y0022002D01*
X0019975Y0021918D01*
X0020108Y0021832D01*
X0020238Y0021742D01*
X0020366Y0021649D01*
X0020492Y0021553D01*
X0020615Y0021453D01*
X0020736Y0021351D01*
X0020854Y0021246D01*
X0020969Y0021137D01*
X0021082Y0021026D01*
X0021192Y0020912D01*
X0021299Y0020795D01*
X0021403Y0020676D01*
X0021504Y0020554D01*
X0021601Y0020429D01*
X0021696Y0020302D01*
X0021787Y0020173D01*
X0021876Y0020042D01*
X0021960Y0019908D01*
X0022042Y0019772D01*
X0022120Y0019635D01*
X0022194Y0019495D01*
X0022265Y0019353D01*
X0022333Y0019210D01*
X0022397Y0019065D01*
X0022457Y0018919D01*
X0022513Y0018771D01*
X0022566Y0018622D01*
X0022615Y0018471D01*
X0022660Y0018319D01*
X0022701Y0018166D01*
X0022739Y0018013D01*
X0022772Y0017858D01*
X0022802Y0017702D01*
X0022828Y0017546D01*
X0022849Y0017389D01*
X0022867Y0017232D01*
X0022881Y0017074D01*
X0022891Y0016916D01*
X0022897Y0016758D01*
X0022899Y0016600D01*
X0022897Y0016442D01*
X0022891Y0016284D01*
X0022881Y0016126D01*
X0022867Y0015968D01*
X0022849Y0015811D01*
X0022828Y0015654D01*
X0022802Y0015498D01*
X0022772Y0015342D01*
X0022739Y0015187D01*
X0022701Y0015034D01*
X0022660Y0014881D01*
X0022615Y0014729D01*
X0022566Y0014578D01*
X0022513Y0014429D01*
X0022457Y0014281D01*
X0022397Y0014135D01*
X0022333Y0013990D01*
X0022265Y0013847D01*
X0022194Y0013705D01*
X0022120Y0013565D01*
X0022042Y0013428D01*
X0021960Y0013292D01*
X0021876Y0013158D01*
X0021787Y0013027D01*
X0021696Y0012898D01*
X0021601Y0012771D01*
X0021504Y0012646D01*
X0021403Y0012524D01*
X0021299Y0012405D01*
X0021192Y0012288D01*
X0021082Y0012174D01*
X0020969Y0012063D01*
X0020854Y0011954D01*
X0020736Y0011849D01*
X0020615Y0011747D01*
X0020492Y0011647D01*
X0020366Y0011551D01*
X0020238Y0011458D01*
X0020108Y0011368D01*
X0019975Y0011282D01*
X0019840Y0011198D01*
X0019704Y0011119D01*
X0019565Y0011042D01*
X0019424Y0010970D01*
X0019282Y0010900D01*
X0019138Y0010835D01*
X0018992Y0010773D01*
X0018845Y0010715D01*
X0018696Y0010660D01*
X0018546Y0010609D01*
X0018395Y0010562D01*
X0018243Y0010519D01*
X0018090Y0010480D01*
X0017935Y0010444D01*
X0017780Y0010413D01*
X0017624Y0010385D01*
X0017468Y0010361D01*
X0017311Y0010341D01*
X0017153Y0010325D01*
X0016996Y0010313D01*
X0016837Y0010305D01*
X0016679Y0010301D01*
X0016521Y0010301D01*
X0016363Y0010305D01*
X0016204Y0010313D01*
X0016047Y0010325D01*
X0015889Y0010341D01*
X0015732Y0010361D01*
X0015576Y0010385D01*
X0015420Y0010413D01*
X0015265Y0010444D01*
X0015110Y0010480D01*
X0014957Y0010519D01*
X0014805Y0010562D01*
X0014654Y0010609D01*
X0014504Y0010660D01*
X0014355Y0010715D01*
X0014208Y0010773D01*
X0014062Y0010835D01*
X0013918Y0010900D01*
X0013776Y0010970D01*
X0013635Y0011042D01*
X0013496Y0011119D01*
X0013360Y0011198D01*
X0013225Y0011282D01*
X0013092Y0011368D01*
X0012962Y0011458D01*
X0012834Y0011551D01*
X0012708Y0011647D01*
X0012585Y0011747D01*
X0012464Y0011849D01*
X0012346Y0011954D01*
X0012231Y0012063D01*
X0012118Y0012174D01*
X0012008Y0012288D01*
X0011901Y0012405D01*
X0011797Y0012524D01*
X0011696Y0012646D01*
X0011599Y0012771D01*
X0011504Y0012898D01*
X0011413Y0013027D01*
X0011324Y0013158D01*
X0011240Y0013292D01*
X0011158Y0013428D01*
X0011080Y0013565D01*
X0011006Y0013705D01*
X0010935Y0013847D01*
X0010867Y0013990D01*
X0010803Y0014135D01*
X0010743Y0014281D01*
X0010687Y0014429D01*
X0010634Y0014578D01*
X0010585Y0014729D01*
X0010540Y0014881D01*
X0010499Y0015034D01*
X0010461Y0015187D01*
X0010428Y0015342D01*
X0010398Y0015498D01*
X0010372Y0015654D01*
X0010351Y0015811D01*
X0010333Y0015968D01*
X0010319Y0016126D01*
X0010309Y0016284D01*
X0010303Y0016442D01*
X0010301Y0016600D01*
X0040301Y0131600D02*
X0040303Y0131758D01*
X0040309Y0131916D01*
X0040319Y0132074D01*
X0040333Y0132232D01*
X0040351Y0132389D01*
X0040372Y0132546D01*
X0040398Y0132702D01*
X0040428Y0132858D01*
X0040461Y0133013D01*
X0040499Y0133166D01*
X0040540Y0133319D01*
X0040585Y0133471D01*
X0040634Y0133622D01*
X0040687Y0133771D01*
X0040743Y0133919D01*
X0040803Y0134065D01*
X0040867Y0134210D01*
X0040935Y0134353D01*
X0041006Y0134495D01*
X0041080Y0134635D01*
X0041158Y0134772D01*
X0041240Y0134908D01*
X0041324Y0135042D01*
X0041413Y0135173D01*
X0041504Y0135302D01*
X0041599Y0135429D01*
X0041696Y0135554D01*
X0041797Y0135676D01*
X0041901Y0135795D01*
X0042008Y0135912D01*
X0042118Y0136026D01*
X0042231Y0136137D01*
X0042346Y0136246D01*
X0042464Y0136351D01*
X0042585Y0136453D01*
X0042708Y0136553D01*
X0042834Y0136649D01*
X0042962Y0136742D01*
X0043092Y0136832D01*
X0043225Y0136918D01*
X0043360Y0137002D01*
X0043496Y0137081D01*
X0043635Y0137158D01*
X0043776Y0137230D01*
X0043918Y0137300D01*
X0044062Y0137365D01*
X0044208Y0137427D01*
X0044355Y0137485D01*
X0044504Y0137540D01*
X0044654Y0137591D01*
X0044805Y0137638D01*
X0044957Y0137681D01*
X0045110Y0137720D01*
X0045265Y0137756D01*
X0045420Y0137787D01*
X0045576Y0137815D01*
X0045732Y0137839D01*
X0045889Y0137859D01*
X0046047Y0137875D01*
X0046204Y0137887D01*
X0046363Y0137895D01*
X0046521Y0137899D01*
X0046679Y0137899D01*
X0046837Y0137895D01*
X0046996Y0137887D01*
X0047153Y0137875D01*
X0047311Y0137859D01*
X0047468Y0137839D01*
X0047624Y0137815D01*
X0047780Y0137787D01*
X0047935Y0137756D01*
X0048090Y0137720D01*
X0048243Y0137681D01*
X0048395Y0137638D01*
X0048546Y0137591D01*
X0048696Y0137540D01*
X0048845Y0137485D01*
X0048992Y0137427D01*
X0049138Y0137365D01*
X0049282Y0137300D01*
X0049424Y0137230D01*
X0049565Y0137158D01*
X0049704Y0137081D01*
X0049840Y0137002D01*
X0049975Y0136918D01*
X0050108Y0136832D01*
X0050238Y0136742D01*
X0050366Y0136649D01*
X0050492Y0136553D01*
X0050615Y0136453D01*
X0050736Y0136351D01*
X0050854Y0136246D01*
X0050969Y0136137D01*
X0051082Y0136026D01*
X0051192Y0135912D01*
X0051299Y0135795D01*
X0051403Y0135676D01*
X0051504Y0135554D01*
X0051601Y0135429D01*
X0051696Y0135302D01*
X0051787Y0135173D01*
X0051876Y0135042D01*
X0051960Y0134908D01*
X0052042Y0134772D01*
X0052120Y0134635D01*
X0052194Y0134495D01*
X0052265Y0134353D01*
X0052333Y0134210D01*
X0052397Y0134065D01*
X0052457Y0133919D01*
X0052513Y0133771D01*
X0052566Y0133622D01*
X0052615Y0133471D01*
X0052660Y0133319D01*
X0052701Y0133166D01*
X0052739Y0133013D01*
X0052772Y0132858D01*
X0052802Y0132702D01*
X0052828Y0132546D01*
X0052849Y0132389D01*
X0052867Y0132232D01*
X0052881Y0132074D01*
X0052891Y0131916D01*
X0052897Y0131758D01*
X0052899Y0131600D01*
X0052897Y0131442D01*
X0052891Y0131284D01*
X0052881Y0131126D01*
X0052867Y0130968D01*
X0052849Y0130811D01*
X0052828Y0130654D01*
X0052802Y0130498D01*
X0052772Y0130342D01*
X0052739Y0130187D01*
X0052701Y0130034D01*
X0052660Y0129881D01*
X0052615Y0129729D01*
X0052566Y0129578D01*
X0052513Y0129429D01*
X0052457Y0129281D01*
X0052397Y0129135D01*
X0052333Y0128990D01*
X0052265Y0128847D01*
X0052194Y0128705D01*
X0052120Y0128565D01*
X0052042Y0128428D01*
X0051960Y0128292D01*
X0051876Y0128158D01*
X0051787Y0128027D01*
X0051696Y0127898D01*
X0051601Y0127771D01*
X0051504Y0127646D01*
X0051403Y0127524D01*
X0051299Y0127405D01*
X0051192Y0127288D01*
X0051082Y0127174D01*
X0050969Y0127063D01*
X0050854Y0126954D01*
X0050736Y0126849D01*
X0050615Y0126747D01*
X0050492Y0126647D01*
X0050366Y0126551D01*
X0050238Y0126458D01*
X0050108Y0126368D01*
X0049975Y0126282D01*
X0049840Y0126198D01*
X0049704Y0126119D01*
X0049565Y0126042D01*
X0049424Y0125970D01*
X0049282Y0125900D01*
X0049138Y0125835D01*
X0048992Y0125773D01*
X0048845Y0125715D01*
X0048696Y0125660D01*
X0048546Y0125609D01*
X0048395Y0125562D01*
X0048243Y0125519D01*
X0048090Y0125480D01*
X0047935Y0125444D01*
X0047780Y0125413D01*
X0047624Y0125385D01*
X0047468Y0125361D01*
X0047311Y0125341D01*
X0047153Y0125325D01*
X0046996Y0125313D01*
X0046837Y0125305D01*
X0046679Y0125301D01*
X0046521Y0125301D01*
X0046363Y0125305D01*
X0046204Y0125313D01*
X0046047Y0125325D01*
X0045889Y0125341D01*
X0045732Y0125361D01*
X0045576Y0125385D01*
X0045420Y0125413D01*
X0045265Y0125444D01*
X0045110Y0125480D01*
X0044957Y0125519D01*
X0044805Y0125562D01*
X0044654Y0125609D01*
X0044504Y0125660D01*
X0044355Y0125715D01*
X0044208Y0125773D01*
X0044062Y0125835D01*
X0043918Y0125900D01*
X0043776Y0125970D01*
X0043635Y0126042D01*
X0043496Y0126119D01*
X0043360Y0126198D01*
X0043225Y0126282D01*
X0043092Y0126368D01*
X0042962Y0126458D01*
X0042834Y0126551D01*
X0042708Y0126647D01*
X0042585Y0126747D01*
X0042464Y0126849D01*
X0042346Y0126954D01*
X0042231Y0127063D01*
X0042118Y0127174D01*
X0042008Y0127288D01*
X0041901Y0127405D01*
X0041797Y0127524D01*
X0041696Y0127646D01*
X0041599Y0127771D01*
X0041504Y0127898D01*
X0041413Y0128027D01*
X0041324Y0128158D01*
X0041240Y0128292D01*
X0041158Y0128428D01*
X0041080Y0128565D01*
X0041006Y0128705D01*
X0040935Y0128847D01*
X0040867Y0128990D01*
X0040803Y0129135D01*
X0040743Y0129281D01*
X0040687Y0129429D01*
X0040634Y0129578D01*
X0040585Y0129729D01*
X0040540Y0129881D01*
X0040499Y0130034D01*
X0040461Y0130187D01*
X0040428Y0130342D01*
X0040398Y0130498D01*
X0040372Y0130654D01*
X0040351Y0130811D01*
X0040333Y0130968D01*
X0040319Y0131126D01*
X0040309Y0131284D01*
X0040303Y0131442D01*
X0040301Y0131600D01*
X0150301Y0131600D02*
X0150303Y0131758D01*
X0150309Y0131916D01*
X0150319Y0132074D01*
X0150333Y0132232D01*
X0150351Y0132389D01*
X0150372Y0132546D01*
X0150398Y0132702D01*
X0150428Y0132858D01*
X0150461Y0133013D01*
X0150499Y0133166D01*
X0150540Y0133319D01*
X0150585Y0133471D01*
X0150634Y0133622D01*
X0150687Y0133771D01*
X0150743Y0133919D01*
X0150803Y0134065D01*
X0150867Y0134210D01*
X0150935Y0134353D01*
X0151006Y0134495D01*
X0151080Y0134635D01*
X0151158Y0134772D01*
X0151240Y0134908D01*
X0151324Y0135042D01*
X0151413Y0135173D01*
X0151504Y0135302D01*
X0151599Y0135429D01*
X0151696Y0135554D01*
X0151797Y0135676D01*
X0151901Y0135795D01*
X0152008Y0135912D01*
X0152118Y0136026D01*
X0152231Y0136137D01*
X0152346Y0136246D01*
X0152464Y0136351D01*
X0152585Y0136453D01*
X0152708Y0136553D01*
X0152834Y0136649D01*
X0152962Y0136742D01*
X0153092Y0136832D01*
X0153225Y0136918D01*
X0153360Y0137002D01*
X0153496Y0137081D01*
X0153635Y0137158D01*
X0153776Y0137230D01*
X0153918Y0137300D01*
X0154062Y0137365D01*
X0154208Y0137427D01*
X0154355Y0137485D01*
X0154504Y0137540D01*
X0154654Y0137591D01*
X0154805Y0137638D01*
X0154957Y0137681D01*
X0155110Y0137720D01*
X0155265Y0137756D01*
X0155420Y0137787D01*
X0155576Y0137815D01*
X0155732Y0137839D01*
X0155889Y0137859D01*
X0156047Y0137875D01*
X0156204Y0137887D01*
X0156363Y0137895D01*
X0156521Y0137899D01*
X0156679Y0137899D01*
X0156837Y0137895D01*
X0156996Y0137887D01*
X0157153Y0137875D01*
X0157311Y0137859D01*
X0157468Y0137839D01*
X0157624Y0137815D01*
X0157780Y0137787D01*
X0157935Y0137756D01*
X0158090Y0137720D01*
X0158243Y0137681D01*
X0158395Y0137638D01*
X0158546Y0137591D01*
X0158696Y0137540D01*
X0158845Y0137485D01*
X0158992Y0137427D01*
X0159138Y0137365D01*
X0159282Y0137300D01*
X0159424Y0137230D01*
X0159565Y0137158D01*
X0159704Y0137081D01*
X0159840Y0137002D01*
X0159975Y0136918D01*
X0160108Y0136832D01*
X0160238Y0136742D01*
X0160366Y0136649D01*
X0160492Y0136553D01*
X0160615Y0136453D01*
X0160736Y0136351D01*
X0160854Y0136246D01*
X0160969Y0136137D01*
X0161082Y0136026D01*
X0161192Y0135912D01*
X0161299Y0135795D01*
X0161403Y0135676D01*
X0161504Y0135554D01*
X0161601Y0135429D01*
X0161696Y0135302D01*
X0161787Y0135173D01*
X0161876Y0135042D01*
X0161960Y0134908D01*
X0162042Y0134772D01*
X0162120Y0134635D01*
X0162194Y0134495D01*
X0162265Y0134353D01*
X0162333Y0134210D01*
X0162397Y0134065D01*
X0162457Y0133919D01*
X0162513Y0133771D01*
X0162566Y0133622D01*
X0162615Y0133471D01*
X0162660Y0133319D01*
X0162701Y0133166D01*
X0162739Y0133013D01*
X0162772Y0132858D01*
X0162802Y0132702D01*
X0162828Y0132546D01*
X0162849Y0132389D01*
X0162867Y0132232D01*
X0162881Y0132074D01*
X0162891Y0131916D01*
X0162897Y0131758D01*
X0162899Y0131600D01*
X0162897Y0131442D01*
X0162891Y0131284D01*
X0162881Y0131126D01*
X0162867Y0130968D01*
X0162849Y0130811D01*
X0162828Y0130654D01*
X0162802Y0130498D01*
X0162772Y0130342D01*
X0162739Y0130187D01*
X0162701Y0130034D01*
X0162660Y0129881D01*
X0162615Y0129729D01*
X0162566Y0129578D01*
X0162513Y0129429D01*
X0162457Y0129281D01*
X0162397Y0129135D01*
X0162333Y0128990D01*
X0162265Y0128847D01*
X0162194Y0128705D01*
X0162120Y0128565D01*
X0162042Y0128428D01*
X0161960Y0128292D01*
X0161876Y0128158D01*
X0161787Y0128027D01*
X0161696Y0127898D01*
X0161601Y0127771D01*
X0161504Y0127646D01*
X0161403Y0127524D01*
X0161299Y0127405D01*
X0161192Y0127288D01*
X0161082Y0127174D01*
X0160969Y0127063D01*
X0160854Y0126954D01*
X0160736Y0126849D01*
X0160615Y0126747D01*
X0160492Y0126647D01*
X0160366Y0126551D01*
X0160238Y0126458D01*
X0160108Y0126368D01*
X0159975Y0126282D01*
X0159840Y0126198D01*
X0159704Y0126119D01*
X0159565Y0126042D01*
X0159424Y0125970D01*
X0159282Y0125900D01*
X0159138Y0125835D01*
X0158992Y0125773D01*
X0158845Y0125715D01*
X0158696Y0125660D01*
X0158546Y0125609D01*
X0158395Y0125562D01*
X0158243Y0125519D01*
X0158090Y0125480D01*
X0157935Y0125444D01*
X0157780Y0125413D01*
X0157624Y0125385D01*
X0157468Y0125361D01*
X0157311Y0125341D01*
X0157153Y0125325D01*
X0156996Y0125313D01*
X0156837Y0125305D01*
X0156679Y0125301D01*
X0156521Y0125301D01*
X0156363Y0125305D01*
X0156204Y0125313D01*
X0156047Y0125325D01*
X0155889Y0125341D01*
X0155732Y0125361D01*
X0155576Y0125385D01*
X0155420Y0125413D01*
X0155265Y0125444D01*
X0155110Y0125480D01*
X0154957Y0125519D01*
X0154805Y0125562D01*
X0154654Y0125609D01*
X0154504Y0125660D01*
X0154355Y0125715D01*
X0154208Y0125773D01*
X0154062Y0125835D01*
X0153918Y0125900D01*
X0153776Y0125970D01*
X0153635Y0126042D01*
X0153496Y0126119D01*
X0153360Y0126198D01*
X0153225Y0126282D01*
X0153092Y0126368D01*
X0152962Y0126458D01*
X0152834Y0126551D01*
X0152708Y0126647D01*
X0152585Y0126747D01*
X0152464Y0126849D01*
X0152346Y0126954D01*
X0152231Y0127063D01*
X0152118Y0127174D01*
X0152008Y0127288D01*
X0151901Y0127405D01*
X0151797Y0127524D01*
X0151696Y0127646D01*
X0151599Y0127771D01*
X0151504Y0127898D01*
X0151413Y0128027D01*
X0151324Y0128158D01*
X0151240Y0128292D01*
X0151158Y0128428D01*
X0151080Y0128565D01*
X0151006Y0128705D01*
X0150935Y0128847D01*
X0150867Y0128990D01*
X0150803Y0129135D01*
X0150743Y0129281D01*
X0150687Y0129429D01*
X0150634Y0129578D01*
X0150585Y0129729D01*
X0150540Y0129881D01*
X0150499Y0130034D01*
X0150461Y0130187D01*
X0150428Y0130342D01*
X0150398Y0130498D01*
X0150372Y0130654D01*
X0150351Y0130811D01*
X0150333Y0130968D01*
X0150319Y0131126D01*
X0150309Y0131284D01*
X0150303Y0131442D01*
X0150301Y0131600D01*
X0180301Y0016600D02*
X0180303Y0016758D01*
X0180309Y0016916D01*
X0180319Y0017074D01*
X0180333Y0017232D01*
X0180351Y0017389D01*
X0180372Y0017546D01*
X0180398Y0017702D01*
X0180428Y0017858D01*
X0180461Y0018013D01*
X0180499Y0018166D01*
X0180540Y0018319D01*
X0180585Y0018471D01*
X0180634Y0018622D01*
X0180687Y0018771D01*
X0180743Y0018919D01*
X0180803Y0019065D01*
X0180867Y0019210D01*
X0180935Y0019353D01*
X0181006Y0019495D01*
X0181080Y0019635D01*
X0181158Y0019772D01*
X0181240Y0019908D01*
X0181324Y0020042D01*
X0181413Y0020173D01*
X0181504Y0020302D01*
X0181599Y0020429D01*
X0181696Y0020554D01*
X0181797Y0020676D01*
X0181901Y0020795D01*
X0182008Y0020912D01*
X0182118Y0021026D01*
X0182231Y0021137D01*
X0182346Y0021246D01*
X0182464Y0021351D01*
X0182585Y0021453D01*
X0182708Y0021553D01*
X0182834Y0021649D01*
X0182962Y0021742D01*
X0183092Y0021832D01*
X0183225Y0021918D01*
X0183360Y0022002D01*
X0183496Y0022081D01*
X0183635Y0022158D01*
X0183776Y0022230D01*
X0183918Y0022300D01*
X0184062Y0022365D01*
X0184208Y0022427D01*
X0184355Y0022485D01*
X0184504Y0022540D01*
X0184654Y0022591D01*
X0184805Y0022638D01*
X0184957Y0022681D01*
X0185110Y0022720D01*
X0185265Y0022756D01*
X0185420Y0022787D01*
X0185576Y0022815D01*
X0185732Y0022839D01*
X0185889Y0022859D01*
X0186047Y0022875D01*
X0186204Y0022887D01*
X0186363Y0022895D01*
X0186521Y0022899D01*
X0186679Y0022899D01*
X0186837Y0022895D01*
X0186996Y0022887D01*
X0187153Y0022875D01*
X0187311Y0022859D01*
X0187468Y0022839D01*
X0187624Y0022815D01*
X0187780Y0022787D01*
X0187935Y0022756D01*
X0188090Y0022720D01*
X0188243Y0022681D01*
X0188395Y0022638D01*
X0188546Y0022591D01*
X0188696Y0022540D01*
X0188845Y0022485D01*
X0188992Y0022427D01*
X0189138Y0022365D01*
X0189282Y0022300D01*
X0189424Y0022230D01*
X0189565Y0022158D01*
X0189704Y0022081D01*
X0189840Y0022002D01*
X0189975Y0021918D01*
X0190108Y0021832D01*
X0190238Y0021742D01*
X0190366Y0021649D01*
X0190492Y0021553D01*
X0190615Y0021453D01*
X0190736Y0021351D01*
X0190854Y0021246D01*
X0190969Y0021137D01*
X0191082Y0021026D01*
X0191192Y0020912D01*
X0191299Y0020795D01*
X0191403Y0020676D01*
X0191504Y0020554D01*
X0191601Y0020429D01*
X0191696Y0020302D01*
X0191787Y0020173D01*
X0191876Y0020042D01*
X0191960Y0019908D01*
X0192042Y0019772D01*
X0192120Y0019635D01*
X0192194Y0019495D01*
X0192265Y0019353D01*
X0192333Y0019210D01*
X0192397Y0019065D01*
X0192457Y0018919D01*
X0192513Y0018771D01*
X0192566Y0018622D01*
X0192615Y0018471D01*
X0192660Y0018319D01*
X0192701Y0018166D01*
X0192739Y0018013D01*
X0192772Y0017858D01*
X0192802Y0017702D01*
X0192828Y0017546D01*
X0192849Y0017389D01*
X0192867Y0017232D01*
X0192881Y0017074D01*
X0192891Y0016916D01*
X0192897Y0016758D01*
X0192899Y0016600D01*
X0192897Y0016442D01*
X0192891Y0016284D01*
X0192881Y0016126D01*
X0192867Y0015968D01*
X0192849Y0015811D01*
X0192828Y0015654D01*
X0192802Y0015498D01*
X0192772Y0015342D01*
X0192739Y0015187D01*
X0192701Y0015034D01*
X0192660Y0014881D01*
X0192615Y0014729D01*
X0192566Y0014578D01*
X0192513Y0014429D01*
X0192457Y0014281D01*
X0192397Y0014135D01*
X0192333Y0013990D01*
X0192265Y0013847D01*
X0192194Y0013705D01*
X0192120Y0013565D01*
X0192042Y0013428D01*
X0191960Y0013292D01*
X0191876Y0013158D01*
X0191787Y0013027D01*
X0191696Y0012898D01*
X0191601Y0012771D01*
X0191504Y0012646D01*
X0191403Y0012524D01*
X0191299Y0012405D01*
X0191192Y0012288D01*
X0191082Y0012174D01*
X0190969Y0012063D01*
X0190854Y0011954D01*
X0190736Y0011849D01*
X0190615Y0011747D01*
X0190492Y0011647D01*
X0190366Y0011551D01*
X0190238Y0011458D01*
X0190108Y0011368D01*
X0189975Y0011282D01*
X0189840Y0011198D01*
X0189704Y0011119D01*
X0189565Y0011042D01*
X0189424Y0010970D01*
X0189282Y0010900D01*
X0189138Y0010835D01*
X0188992Y0010773D01*
X0188845Y0010715D01*
X0188696Y0010660D01*
X0188546Y0010609D01*
X0188395Y0010562D01*
X0188243Y0010519D01*
X0188090Y0010480D01*
X0187935Y0010444D01*
X0187780Y0010413D01*
X0187624Y0010385D01*
X0187468Y0010361D01*
X0187311Y0010341D01*
X0187153Y0010325D01*
X0186996Y0010313D01*
X0186837Y0010305D01*
X0186679Y0010301D01*
X0186521Y0010301D01*
X0186363Y0010305D01*
X0186204Y0010313D01*
X0186047Y0010325D01*
X0185889Y0010341D01*
X0185732Y0010361D01*
X0185576Y0010385D01*
X0185420Y0010413D01*
X0185265Y0010444D01*
X0185110Y0010480D01*
X0184957Y0010519D01*
X0184805Y0010562D01*
X0184654Y0010609D01*
X0184504Y0010660D01*
X0184355Y0010715D01*
X0184208Y0010773D01*
X0184062Y0010835D01*
X0183918Y0010900D01*
X0183776Y0010970D01*
X0183635Y0011042D01*
X0183496Y0011119D01*
X0183360Y0011198D01*
X0183225Y0011282D01*
X0183092Y0011368D01*
X0182962Y0011458D01*
X0182834Y0011551D01*
X0182708Y0011647D01*
X0182585Y0011747D01*
X0182464Y0011849D01*
X0182346Y0011954D01*
X0182231Y0012063D01*
X0182118Y0012174D01*
X0182008Y0012288D01*
X0181901Y0012405D01*
X0181797Y0012524D01*
X0181696Y0012646D01*
X0181599Y0012771D01*
X0181504Y0012898D01*
X0181413Y0013027D01*
X0181324Y0013158D01*
X0181240Y0013292D01*
X0181158Y0013428D01*
X0181080Y0013565D01*
X0181006Y0013705D01*
X0180935Y0013847D01*
X0180867Y0013990D01*
X0180803Y0014135D01*
X0180743Y0014281D01*
X0180687Y0014429D01*
X0180634Y0014578D01*
X0180585Y0014729D01*
X0180540Y0014881D01*
X0180499Y0015034D01*
X0180461Y0015187D01*
X0180428Y0015342D01*
X0180398Y0015498D01*
X0180372Y0015654D01*
X0180351Y0015811D01*
X0180333Y0015968D01*
X0180319Y0016126D01*
X0180309Y0016284D01*
X0180303Y0016442D01*
X0180301Y0016600D01*
X0087700Y0366600D02*
X0087702Y0366760D01*
X0087708Y0366919D01*
X0087718Y0367078D01*
X0087732Y0367237D01*
X0087750Y0367396D01*
X0087771Y0367554D01*
X0087797Y0367711D01*
X0087827Y0367868D01*
X0087860Y0368024D01*
X0087898Y0368179D01*
X0087939Y0368333D01*
X0087984Y0368486D01*
X0088033Y0368638D01*
X0088086Y0368789D01*
X0088142Y0368938D01*
X0088203Y0369086D01*
X0088266Y0369232D01*
X0088334Y0369377D01*
X0088405Y0369520D01*
X0088479Y0369661D01*
X0088557Y0369800D01*
X0088639Y0369937D01*
X0088724Y0370072D01*
X0088812Y0370205D01*
X0088904Y0370336D01*
X0088998Y0370464D01*
X0089096Y0370590D01*
X0089197Y0370714D01*
X0089301Y0370835D01*
X0089408Y0370953D01*
X0089518Y0371069D01*
X0089631Y0371182D01*
X0089747Y0371292D01*
X0089865Y0371399D01*
X0089986Y0371503D01*
X0090110Y0371604D01*
X0090236Y0371702D01*
X0090364Y0371796D01*
X0090495Y0371888D01*
X0090628Y0371976D01*
X0090763Y0372061D01*
X0090900Y0372143D01*
X0091039Y0372221D01*
X0091180Y0372295D01*
X0091323Y0372366D01*
X0091468Y0372434D01*
X0091614Y0372497D01*
X0091762Y0372558D01*
X0091911Y0372614D01*
X0092062Y0372667D01*
X0092214Y0372716D01*
X0092367Y0372761D01*
X0092521Y0372802D01*
X0092676Y0372840D01*
X0092832Y0372873D01*
X0092989Y0372903D01*
X0093146Y0372929D01*
X0093304Y0372950D01*
X0093463Y0372968D01*
X0093622Y0372982D01*
X0093781Y0372992D01*
X0093940Y0372998D01*
X0094100Y0373000D01*
X0094260Y0372998D01*
X0094419Y0372992D01*
X0094578Y0372982D01*
X0094737Y0372968D01*
X0094896Y0372950D01*
X0095054Y0372929D01*
X0095211Y0372903D01*
X0095368Y0372873D01*
X0095524Y0372840D01*
X0095679Y0372802D01*
X0095833Y0372761D01*
X0095986Y0372716D01*
X0096138Y0372667D01*
X0096289Y0372614D01*
X0096438Y0372558D01*
X0096586Y0372497D01*
X0096732Y0372434D01*
X0096877Y0372366D01*
X0097020Y0372295D01*
X0097161Y0372221D01*
X0097300Y0372143D01*
X0097437Y0372061D01*
X0097572Y0371976D01*
X0097705Y0371888D01*
X0097836Y0371796D01*
X0097964Y0371702D01*
X0098090Y0371604D01*
X0098214Y0371503D01*
X0098335Y0371399D01*
X0098453Y0371292D01*
X0098569Y0371182D01*
X0098682Y0371069D01*
X0098792Y0370953D01*
X0098899Y0370835D01*
X0099003Y0370714D01*
X0099104Y0370590D01*
X0099202Y0370464D01*
X0099296Y0370336D01*
X0099388Y0370205D01*
X0099476Y0370072D01*
X0099561Y0369937D01*
X0099643Y0369800D01*
X0099721Y0369661D01*
X0099795Y0369520D01*
X0099866Y0369377D01*
X0099934Y0369232D01*
X0099997Y0369086D01*
X0100058Y0368938D01*
X0100114Y0368789D01*
X0100167Y0368638D01*
X0100216Y0368486D01*
X0100261Y0368333D01*
X0100302Y0368179D01*
X0100340Y0368024D01*
X0100373Y0367868D01*
X0100403Y0367711D01*
X0100429Y0367554D01*
X0100450Y0367396D01*
X0100468Y0367237D01*
X0100482Y0367078D01*
X0100492Y0366919D01*
X0100498Y0366760D01*
X0100500Y0366600D01*
X0100498Y0366440D01*
X0100492Y0366281D01*
X0100482Y0366122D01*
X0100468Y0365963D01*
X0100450Y0365804D01*
X0100429Y0365646D01*
X0100403Y0365489D01*
X0100373Y0365332D01*
X0100340Y0365176D01*
X0100302Y0365021D01*
X0100261Y0364867D01*
X0100216Y0364714D01*
X0100167Y0364562D01*
X0100114Y0364411D01*
X0100058Y0364262D01*
X0099997Y0364114D01*
X0099934Y0363968D01*
X0099866Y0363823D01*
X0099795Y0363680D01*
X0099721Y0363539D01*
X0099643Y0363400D01*
X0099561Y0363263D01*
X0099476Y0363128D01*
X0099388Y0362995D01*
X0099296Y0362864D01*
X0099202Y0362736D01*
X0099104Y0362610D01*
X0099003Y0362486D01*
X0098899Y0362365D01*
X0098792Y0362247D01*
X0098682Y0362131D01*
X0098569Y0362018D01*
X0098453Y0361908D01*
X0098335Y0361801D01*
X0098214Y0361697D01*
X0098090Y0361596D01*
X0097964Y0361498D01*
X0097836Y0361404D01*
X0097705Y0361312D01*
X0097572Y0361224D01*
X0097437Y0361139D01*
X0097300Y0361057D01*
X0097161Y0360979D01*
X0097020Y0360905D01*
X0096877Y0360834D01*
X0096732Y0360766D01*
X0096586Y0360703D01*
X0096438Y0360642D01*
X0096289Y0360586D01*
X0096138Y0360533D01*
X0095986Y0360484D01*
X0095833Y0360439D01*
X0095679Y0360398D01*
X0095524Y0360360D01*
X0095368Y0360327D01*
X0095211Y0360297D01*
X0095054Y0360271D01*
X0094896Y0360250D01*
X0094737Y0360232D01*
X0094578Y0360218D01*
X0094419Y0360208D01*
X0094260Y0360202D01*
X0094100Y0360200D01*
X0093940Y0360202D01*
X0093781Y0360208D01*
X0093622Y0360218D01*
X0093463Y0360232D01*
X0093304Y0360250D01*
X0093146Y0360271D01*
X0092989Y0360297D01*
X0092832Y0360327D01*
X0092676Y0360360D01*
X0092521Y0360398D01*
X0092367Y0360439D01*
X0092214Y0360484D01*
X0092062Y0360533D01*
X0091911Y0360586D01*
X0091762Y0360642D01*
X0091614Y0360703D01*
X0091468Y0360766D01*
X0091323Y0360834D01*
X0091180Y0360905D01*
X0091039Y0360979D01*
X0090900Y0361057D01*
X0090763Y0361139D01*
X0090628Y0361224D01*
X0090495Y0361312D01*
X0090364Y0361404D01*
X0090236Y0361498D01*
X0090110Y0361596D01*
X0089986Y0361697D01*
X0089865Y0361801D01*
X0089747Y0361908D01*
X0089631Y0362018D01*
X0089518Y0362131D01*
X0089408Y0362247D01*
X0089301Y0362365D01*
X0089197Y0362486D01*
X0089096Y0362610D01*
X0088998Y0362736D01*
X0088904Y0362864D01*
X0088812Y0362995D01*
X0088724Y0363128D01*
X0088639Y0363263D01*
X0088557Y0363400D01*
X0088479Y0363539D01*
X0088405Y0363680D01*
X0088334Y0363823D01*
X0088266Y0363968D01*
X0088203Y0364114D01*
X0088142Y0364262D01*
X0088086Y0364411D01*
X0088033Y0364562D01*
X0087984Y0364714D01*
X0087939Y0364867D01*
X0087898Y0365021D01*
X0087860Y0365176D01*
X0087827Y0365332D01*
X0087797Y0365489D01*
X0087771Y0365646D01*
X0087750Y0365804D01*
X0087732Y0365963D01*
X0087718Y0366122D01*
X0087708Y0366281D01*
X0087702Y0366440D01*
X0087700Y0366600D01*
X0042700Y0366600D02*
X0042702Y0366760D01*
X0042708Y0366919D01*
X0042718Y0367078D01*
X0042732Y0367237D01*
X0042750Y0367396D01*
X0042771Y0367554D01*
X0042797Y0367711D01*
X0042827Y0367868D01*
X0042860Y0368024D01*
X0042898Y0368179D01*
X0042939Y0368333D01*
X0042984Y0368486D01*
X0043033Y0368638D01*
X0043086Y0368789D01*
X0043142Y0368938D01*
X0043203Y0369086D01*
X0043266Y0369232D01*
X0043334Y0369377D01*
X0043405Y0369520D01*
X0043479Y0369661D01*
X0043557Y0369800D01*
X0043639Y0369937D01*
X0043724Y0370072D01*
X0043812Y0370205D01*
X0043904Y0370336D01*
X0043998Y0370464D01*
X0044096Y0370590D01*
X0044197Y0370714D01*
X0044301Y0370835D01*
X0044408Y0370953D01*
X0044518Y0371069D01*
X0044631Y0371182D01*
X0044747Y0371292D01*
X0044865Y0371399D01*
X0044986Y0371503D01*
X0045110Y0371604D01*
X0045236Y0371702D01*
X0045364Y0371796D01*
X0045495Y0371888D01*
X0045628Y0371976D01*
X0045763Y0372061D01*
X0045900Y0372143D01*
X0046039Y0372221D01*
X0046180Y0372295D01*
X0046323Y0372366D01*
X0046468Y0372434D01*
X0046614Y0372497D01*
X0046762Y0372558D01*
X0046911Y0372614D01*
X0047062Y0372667D01*
X0047214Y0372716D01*
X0047367Y0372761D01*
X0047521Y0372802D01*
X0047676Y0372840D01*
X0047832Y0372873D01*
X0047989Y0372903D01*
X0048146Y0372929D01*
X0048304Y0372950D01*
X0048463Y0372968D01*
X0048622Y0372982D01*
X0048781Y0372992D01*
X0048940Y0372998D01*
X0049100Y0373000D01*
X0049260Y0372998D01*
X0049419Y0372992D01*
X0049578Y0372982D01*
X0049737Y0372968D01*
X0049896Y0372950D01*
X0050054Y0372929D01*
X0050211Y0372903D01*
X0050368Y0372873D01*
X0050524Y0372840D01*
X0050679Y0372802D01*
X0050833Y0372761D01*
X0050986Y0372716D01*
X0051138Y0372667D01*
X0051289Y0372614D01*
X0051438Y0372558D01*
X0051586Y0372497D01*
X0051732Y0372434D01*
X0051877Y0372366D01*
X0052020Y0372295D01*
X0052161Y0372221D01*
X0052300Y0372143D01*
X0052437Y0372061D01*
X0052572Y0371976D01*
X0052705Y0371888D01*
X0052836Y0371796D01*
X0052964Y0371702D01*
X0053090Y0371604D01*
X0053214Y0371503D01*
X0053335Y0371399D01*
X0053453Y0371292D01*
X0053569Y0371182D01*
X0053682Y0371069D01*
X0053792Y0370953D01*
X0053899Y0370835D01*
X0054003Y0370714D01*
X0054104Y0370590D01*
X0054202Y0370464D01*
X0054296Y0370336D01*
X0054388Y0370205D01*
X0054476Y0370072D01*
X0054561Y0369937D01*
X0054643Y0369800D01*
X0054721Y0369661D01*
X0054795Y0369520D01*
X0054866Y0369377D01*
X0054934Y0369232D01*
X0054997Y0369086D01*
X0055058Y0368938D01*
X0055114Y0368789D01*
X0055167Y0368638D01*
X0055216Y0368486D01*
X0055261Y0368333D01*
X0055302Y0368179D01*
X0055340Y0368024D01*
X0055373Y0367868D01*
X0055403Y0367711D01*
X0055429Y0367554D01*
X0055450Y0367396D01*
X0055468Y0367237D01*
X0055482Y0367078D01*
X0055492Y0366919D01*
X0055498Y0366760D01*
X0055500Y0366600D01*
X0055498Y0366440D01*
X0055492Y0366281D01*
X0055482Y0366122D01*
X0055468Y0365963D01*
X0055450Y0365804D01*
X0055429Y0365646D01*
X0055403Y0365489D01*
X0055373Y0365332D01*
X0055340Y0365176D01*
X0055302Y0365021D01*
X0055261Y0364867D01*
X0055216Y0364714D01*
X0055167Y0364562D01*
X0055114Y0364411D01*
X0055058Y0364262D01*
X0054997Y0364114D01*
X0054934Y0363968D01*
X0054866Y0363823D01*
X0054795Y0363680D01*
X0054721Y0363539D01*
X0054643Y0363400D01*
X0054561Y0363263D01*
X0054476Y0363128D01*
X0054388Y0362995D01*
X0054296Y0362864D01*
X0054202Y0362736D01*
X0054104Y0362610D01*
X0054003Y0362486D01*
X0053899Y0362365D01*
X0053792Y0362247D01*
X0053682Y0362131D01*
X0053569Y0362018D01*
X0053453Y0361908D01*
X0053335Y0361801D01*
X0053214Y0361697D01*
X0053090Y0361596D01*
X0052964Y0361498D01*
X0052836Y0361404D01*
X0052705Y0361312D01*
X0052572Y0361224D01*
X0052437Y0361139D01*
X0052300Y0361057D01*
X0052161Y0360979D01*
X0052020Y0360905D01*
X0051877Y0360834D01*
X0051732Y0360766D01*
X0051586Y0360703D01*
X0051438Y0360642D01*
X0051289Y0360586D01*
X0051138Y0360533D01*
X0050986Y0360484D01*
X0050833Y0360439D01*
X0050679Y0360398D01*
X0050524Y0360360D01*
X0050368Y0360327D01*
X0050211Y0360297D01*
X0050054Y0360271D01*
X0049896Y0360250D01*
X0049737Y0360232D01*
X0049578Y0360218D01*
X0049419Y0360208D01*
X0049260Y0360202D01*
X0049100Y0360200D01*
X0048940Y0360202D01*
X0048781Y0360208D01*
X0048622Y0360218D01*
X0048463Y0360232D01*
X0048304Y0360250D01*
X0048146Y0360271D01*
X0047989Y0360297D01*
X0047832Y0360327D01*
X0047676Y0360360D01*
X0047521Y0360398D01*
X0047367Y0360439D01*
X0047214Y0360484D01*
X0047062Y0360533D01*
X0046911Y0360586D01*
X0046762Y0360642D01*
X0046614Y0360703D01*
X0046468Y0360766D01*
X0046323Y0360834D01*
X0046180Y0360905D01*
X0046039Y0360979D01*
X0045900Y0361057D01*
X0045763Y0361139D01*
X0045628Y0361224D01*
X0045495Y0361312D01*
X0045364Y0361404D01*
X0045236Y0361498D01*
X0045110Y0361596D01*
X0044986Y0361697D01*
X0044865Y0361801D01*
X0044747Y0361908D01*
X0044631Y0362018D01*
X0044518Y0362131D01*
X0044408Y0362247D01*
X0044301Y0362365D01*
X0044197Y0362486D01*
X0044096Y0362610D01*
X0043998Y0362736D01*
X0043904Y0362864D01*
X0043812Y0362995D01*
X0043724Y0363128D01*
X0043639Y0363263D01*
X0043557Y0363400D01*
X0043479Y0363539D01*
X0043405Y0363680D01*
X0043334Y0363823D01*
X0043266Y0363968D01*
X0043203Y0364114D01*
X0043142Y0364262D01*
X0043086Y0364411D01*
X0043033Y0364562D01*
X0042984Y0364714D01*
X0042939Y0364867D01*
X0042898Y0365021D01*
X0042860Y0365176D01*
X0042827Y0365332D01*
X0042797Y0365489D01*
X0042771Y0365646D01*
X0042750Y0365804D01*
X0042732Y0365963D01*
X0042718Y0366122D01*
X0042708Y0366281D01*
X0042702Y0366440D01*
X0042700Y0366600D01*
X0010301Y0381600D02*
X0010303Y0381758D01*
X0010309Y0381916D01*
X0010319Y0382074D01*
X0010333Y0382232D01*
X0010351Y0382389D01*
X0010372Y0382546D01*
X0010398Y0382702D01*
X0010428Y0382858D01*
X0010461Y0383013D01*
X0010499Y0383166D01*
X0010540Y0383319D01*
X0010585Y0383471D01*
X0010634Y0383622D01*
X0010687Y0383771D01*
X0010743Y0383919D01*
X0010803Y0384065D01*
X0010867Y0384210D01*
X0010935Y0384353D01*
X0011006Y0384495D01*
X0011080Y0384635D01*
X0011158Y0384772D01*
X0011240Y0384908D01*
X0011324Y0385042D01*
X0011413Y0385173D01*
X0011504Y0385302D01*
X0011599Y0385429D01*
X0011696Y0385554D01*
X0011797Y0385676D01*
X0011901Y0385795D01*
X0012008Y0385912D01*
X0012118Y0386026D01*
X0012231Y0386137D01*
X0012346Y0386246D01*
X0012464Y0386351D01*
X0012585Y0386453D01*
X0012708Y0386553D01*
X0012834Y0386649D01*
X0012962Y0386742D01*
X0013092Y0386832D01*
X0013225Y0386918D01*
X0013360Y0387002D01*
X0013496Y0387081D01*
X0013635Y0387158D01*
X0013776Y0387230D01*
X0013918Y0387300D01*
X0014062Y0387365D01*
X0014208Y0387427D01*
X0014355Y0387485D01*
X0014504Y0387540D01*
X0014654Y0387591D01*
X0014805Y0387638D01*
X0014957Y0387681D01*
X0015110Y0387720D01*
X0015265Y0387756D01*
X0015420Y0387787D01*
X0015576Y0387815D01*
X0015732Y0387839D01*
X0015889Y0387859D01*
X0016047Y0387875D01*
X0016204Y0387887D01*
X0016363Y0387895D01*
X0016521Y0387899D01*
X0016679Y0387899D01*
X0016837Y0387895D01*
X0016996Y0387887D01*
X0017153Y0387875D01*
X0017311Y0387859D01*
X0017468Y0387839D01*
X0017624Y0387815D01*
X0017780Y0387787D01*
X0017935Y0387756D01*
X0018090Y0387720D01*
X0018243Y0387681D01*
X0018395Y0387638D01*
X0018546Y0387591D01*
X0018696Y0387540D01*
X0018845Y0387485D01*
X0018992Y0387427D01*
X0019138Y0387365D01*
X0019282Y0387300D01*
X0019424Y0387230D01*
X0019565Y0387158D01*
X0019704Y0387081D01*
X0019840Y0387002D01*
X0019975Y0386918D01*
X0020108Y0386832D01*
X0020238Y0386742D01*
X0020366Y0386649D01*
X0020492Y0386553D01*
X0020615Y0386453D01*
X0020736Y0386351D01*
X0020854Y0386246D01*
X0020969Y0386137D01*
X0021082Y0386026D01*
X0021192Y0385912D01*
X0021299Y0385795D01*
X0021403Y0385676D01*
X0021504Y0385554D01*
X0021601Y0385429D01*
X0021696Y0385302D01*
X0021787Y0385173D01*
X0021876Y0385042D01*
X0021960Y0384908D01*
X0022042Y0384772D01*
X0022120Y0384635D01*
X0022194Y0384495D01*
X0022265Y0384353D01*
X0022333Y0384210D01*
X0022397Y0384065D01*
X0022457Y0383919D01*
X0022513Y0383771D01*
X0022566Y0383622D01*
X0022615Y0383471D01*
X0022660Y0383319D01*
X0022701Y0383166D01*
X0022739Y0383013D01*
X0022772Y0382858D01*
X0022802Y0382702D01*
X0022828Y0382546D01*
X0022849Y0382389D01*
X0022867Y0382232D01*
X0022881Y0382074D01*
X0022891Y0381916D01*
X0022897Y0381758D01*
X0022899Y0381600D01*
X0022897Y0381442D01*
X0022891Y0381284D01*
X0022881Y0381126D01*
X0022867Y0380968D01*
X0022849Y0380811D01*
X0022828Y0380654D01*
X0022802Y0380498D01*
X0022772Y0380342D01*
X0022739Y0380187D01*
X0022701Y0380034D01*
X0022660Y0379881D01*
X0022615Y0379729D01*
X0022566Y0379578D01*
X0022513Y0379429D01*
X0022457Y0379281D01*
X0022397Y0379135D01*
X0022333Y0378990D01*
X0022265Y0378847D01*
X0022194Y0378705D01*
X0022120Y0378565D01*
X0022042Y0378428D01*
X0021960Y0378292D01*
X0021876Y0378158D01*
X0021787Y0378027D01*
X0021696Y0377898D01*
X0021601Y0377771D01*
X0021504Y0377646D01*
X0021403Y0377524D01*
X0021299Y0377405D01*
X0021192Y0377288D01*
X0021082Y0377174D01*
X0020969Y0377063D01*
X0020854Y0376954D01*
X0020736Y0376849D01*
X0020615Y0376747D01*
X0020492Y0376647D01*
X0020366Y0376551D01*
X0020238Y0376458D01*
X0020108Y0376368D01*
X0019975Y0376282D01*
X0019840Y0376198D01*
X0019704Y0376119D01*
X0019565Y0376042D01*
X0019424Y0375970D01*
X0019282Y0375900D01*
X0019138Y0375835D01*
X0018992Y0375773D01*
X0018845Y0375715D01*
X0018696Y0375660D01*
X0018546Y0375609D01*
X0018395Y0375562D01*
X0018243Y0375519D01*
X0018090Y0375480D01*
X0017935Y0375444D01*
X0017780Y0375413D01*
X0017624Y0375385D01*
X0017468Y0375361D01*
X0017311Y0375341D01*
X0017153Y0375325D01*
X0016996Y0375313D01*
X0016837Y0375305D01*
X0016679Y0375301D01*
X0016521Y0375301D01*
X0016363Y0375305D01*
X0016204Y0375313D01*
X0016047Y0375325D01*
X0015889Y0375341D01*
X0015732Y0375361D01*
X0015576Y0375385D01*
X0015420Y0375413D01*
X0015265Y0375444D01*
X0015110Y0375480D01*
X0014957Y0375519D01*
X0014805Y0375562D01*
X0014654Y0375609D01*
X0014504Y0375660D01*
X0014355Y0375715D01*
X0014208Y0375773D01*
X0014062Y0375835D01*
X0013918Y0375900D01*
X0013776Y0375970D01*
X0013635Y0376042D01*
X0013496Y0376119D01*
X0013360Y0376198D01*
X0013225Y0376282D01*
X0013092Y0376368D01*
X0012962Y0376458D01*
X0012834Y0376551D01*
X0012708Y0376647D01*
X0012585Y0376747D01*
X0012464Y0376849D01*
X0012346Y0376954D01*
X0012231Y0377063D01*
X0012118Y0377174D01*
X0012008Y0377288D01*
X0011901Y0377405D01*
X0011797Y0377524D01*
X0011696Y0377646D01*
X0011599Y0377771D01*
X0011504Y0377898D01*
X0011413Y0378027D01*
X0011324Y0378158D01*
X0011240Y0378292D01*
X0011158Y0378428D01*
X0011080Y0378565D01*
X0011006Y0378705D01*
X0010935Y0378847D01*
X0010867Y0378990D01*
X0010803Y0379135D01*
X0010743Y0379281D01*
X0010687Y0379429D01*
X0010634Y0379578D01*
X0010585Y0379729D01*
X0010540Y0379881D01*
X0010499Y0380034D01*
X0010461Y0380187D01*
X0010428Y0380342D01*
X0010398Y0380498D01*
X0010372Y0380654D01*
X0010351Y0380811D01*
X0010333Y0380968D01*
X0010319Y0381126D01*
X0010309Y0381284D01*
X0010303Y0381442D01*
X0010301Y0381600D01*
X0180301Y0381600D02*
X0180303Y0381758D01*
X0180309Y0381916D01*
X0180319Y0382074D01*
X0180333Y0382232D01*
X0180351Y0382389D01*
X0180372Y0382546D01*
X0180398Y0382702D01*
X0180428Y0382858D01*
X0180461Y0383013D01*
X0180499Y0383166D01*
X0180540Y0383319D01*
X0180585Y0383471D01*
X0180634Y0383622D01*
X0180687Y0383771D01*
X0180743Y0383919D01*
X0180803Y0384065D01*
X0180867Y0384210D01*
X0180935Y0384353D01*
X0181006Y0384495D01*
X0181080Y0384635D01*
X0181158Y0384772D01*
X0181240Y0384908D01*
X0181324Y0385042D01*
X0181413Y0385173D01*
X0181504Y0385302D01*
X0181599Y0385429D01*
X0181696Y0385554D01*
X0181797Y0385676D01*
X0181901Y0385795D01*
X0182008Y0385912D01*
X0182118Y0386026D01*
X0182231Y0386137D01*
X0182346Y0386246D01*
X0182464Y0386351D01*
X0182585Y0386453D01*
X0182708Y0386553D01*
X0182834Y0386649D01*
X0182962Y0386742D01*
X0183092Y0386832D01*
X0183225Y0386918D01*
X0183360Y0387002D01*
X0183496Y0387081D01*
X0183635Y0387158D01*
X0183776Y0387230D01*
X0183918Y0387300D01*
X0184062Y0387365D01*
X0184208Y0387427D01*
X0184355Y0387485D01*
X0184504Y0387540D01*
X0184654Y0387591D01*
X0184805Y0387638D01*
X0184957Y0387681D01*
X0185110Y0387720D01*
X0185265Y0387756D01*
X0185420Y0387787D01*
X0185576Y0387815D01*
X0185732Y0387839D01*
X0185889Y0387859D01*
X0186047Y0387875D01*
X0186204Y0387887D01*
X0186363Y0387895D01*
X0186521Y0387899D01*
X0186679Y0387899D01*
X0186837Y0387895D01*
X0186996Y0387887D01*
X0187153Y0387875D01*
X0187311Y0387859D01*
X0187468Y0387839D01*
X0187624Y0387815D01*
X0187780Y0387787D01*
X0187935Y0387756D01*
X0188090Y0387720D01*
X0188243Y0387681D01*
X0188395Y0387638D01*
X0188546Y0387591D01*
X0188696Y0387540D01*
X0188845Y0387485D01*
X0188992Y0387427D01*
X0189138Y0387365D01*
X0189282Y0387300D01*
X0189424Y0387230D01*
X0189565Y0387158D01*
X0189704Y0387081D01*
X0189840Y0387002D01*
X0189975Y0386918D01*
X0190108Y0386832D01*
X0190238Y0386742D01*
X0190366Y0386649D01*
X0190492Y0386553D01*
X0190615Y0386453D01*
X0190736Y0386351D01*
X0190854Y0386246D01*
X0190969Y0386137D01*
X0191082Y0386026D01*
X0191192Y0385912D01*
X0191299Y0385795D01*
X0191403Y0385676D01*
X0191504Y0385554D01*
X0191601Y0385429D01*
X0191696Y0385302D01*
X0191787Y0385173D01*
X0191876Y0385042D01*
X0191960Y0384908D01*
X0192042Y0384772D01*
X0192120Y0384635D01*
X0192194Y0384495D01*
X0192265Y0384353D01*
X0192333Y0384210D01*
X0192397Y0384065D01*
X0192457Y0383919D01*
X0192513Y0383771D01*
X0192566Y0383622D01*
X0192615Y0383471D01*
X0192660Y0383319D01*
X0192701Y0383166D01*
X0192739Y0383013D01*
X0192772Y0382858D01*
X0192802Y0382702D01*
X0192828Y0382546D01*
X0192849Y0382389D01*
X0192867Y0382232D01*
X0192881Y0382074D01*
X0192891Y0381916D01*
X0192897Y0381758D01*
X0192899Y0381600D01*
X0192897Y0381442D01*
X0192891Y0381284D01*
X0192881Y0381126D01*
X0192867Y0380968D01*
X0192849Y0380811D01*
X0192828Y0380654D01*
X0192802Y0380498D01*
X0192772Y0380342D01*
X0192739Y0380187D01*
X0192701Y0380034D01*
X0192660Y0379881D01*
X0192615Y0379729D01*
X0192566Y0379578D01*
X0192513Y0379429D01*
X0192457Y0379281D01*
X0192397Y0379135D01*
X0192333Y0378990D01*
X0192265Y0378847D01*
X0192194Y0378705D01*
X0192120Y0378565D01*
X0192042Y0378428D01*
X0191960Y0378292D01*
X0191876Y0378158D01*
X0191787Y0378027D01*
X0191696Y0377898D01*
X0191601Y0377771D01*
X0191504Y0377646D01*
X0191403Y0377524D01*
X0191299Y0377405D01*
X0191192Y0377288D01*
X0191082Y0377174D01*
X0190969Y0377063D01*
X0190854Y0376954D01*
X0190736Y0376849D01*
X0190615Y0376747D01*
X0190492Y0376647D01*
X0190366Y0376551D01*
X0190238Y0376458D01*
X0190108Y0376368D01*
X0189975Y0376282D01*
X0189840Y0376198D01*
X0189704Y0376119D01*
X0189565Y0376042D01*
X0189424Y0375970D01*
X0189282Y0375900D01*
X0189138Y0375835D01*
X0188992Y0375773D01*
X0188845Y0375715D01*
X0188696Y0375660D01*
X0188546Y0375609D01*
X0188395Y0375562D01*
X0188243Y0375519D01*
X0188090Y0375480D01*
X0187935Y0375444D01*
X0187780Y0375413D01*
X0187624Y0375385D01*
X0187468Y0375361D01*
X0187311Y0375341D01*
X0187153Y0375325D01*
X0186996Y0375313D01*
X0186837Y0375305D01*
X0186679Y0375301D01*
X0186521Y0375301D01*
X0186363Y0375305D01*
X0186204Y0375313D01*
X0186047Y0375325D01*
X0185889Y0375341D01*
X0185732Y0375361D01*
X0185576Y0375385D01*
X0185420Y0375413D01*
X0185265Y0375444D01*
X0185110Y0375480D01*
X0184957Y0375519D01*
X0184805Y0375562D01*
X0184654Y0375609D01*
X0184504Y0375660D01*
X0184355Y0375715D01*
X0184208Y0375773D01*
X0184062Y0375835D01*
X0183918Y0375900D01*
X0183776Y0375970D01*
X0183635Y0376042D01*
X0183496Y0376119D01*
X0183360Y0376198D01*
X0183225Y0376282D01*
X0183092Y0376368D01*
X0182962Y0376458D01*
X0182834Y0376551D01*
X0182708Y0376647D01*
X0182585Y0376747D01*
X0182464Y0376849D01*
X0182346Y0376954D01*
X0182231Y0377063D01*
X0182118Y0377174D01*
X0182008Y0377288D01*
X0181901Y0377405D01*
X0181797Y0377524D01*
X0181696Y0377646D01*
X0181599Y0377771D01*
X0181504Y0377898D01*
X0181413Y0378027D01*
X0181324Y0378158D01*
X0181240Y0378292D01*
X0181158Y0378428D01*
X0181080Y0378565D01*
X0181006Y0378705D01*
X0180935Y0378847D01*
X0180867Y0378990D01*
X0180803Y0379135D01*
X0180743Y0379281D01*
X0180687Y0379429D01*
X0180634Y0379578D01*
X0180585Y0379729D01*
X0180540Y0379881D01*
X0180499Y0380034D01*
X0180461Y0380187D01*
X0180428Y0380342D01*
X0180398Y0380498D01*
X0180372Y0380654D01*
X0180351Y0380811D01*
X0180333Y0380968D01*
X0180319Y0381126D01*
X0180309Y0381284D01*
X0180303Y0381442D01*
X0180301Y0381600D01*
D11*
X0104850Y0388300D02*
X0038350Y0388300D01*
M02*
