G75*
%MOIN*%
%OFA0B0*%
%FSLAX25Y25*%
%IPPOS*%
%LPD*%
%AMOC8*
5,1,8,0,0,1.08239X$1,22.5*
%
%ADD10R,0.02600X0.08000*%
%ADD11C,0.05200*%
%ADD12C,0.06000*%
%ADD13R,0.05118X0.05906*%
%ADD14C,0.07600*%
%ADD15C,0.07400*%
%ADD16C,0.05543*%
%ADD17C,0.11220*%
%ADD18C,0.07800*%
%ADD19C,0.01000*%
%ADD20C,0.04000*%
%ADD21C,0.01200*%
%ADD22C,0.03962*%
D10*
X0029100Y0279500D03*
X0034100Y0279500D03*
X0039100Y0279500D03*
X0044100Y0279500D03*
X0044100Y0303700D03*
X0039100Y0303700D03*
X0034100Y0303700D03*
X0029100Y0303700D03*
D11*
X0116600Y0309000D02*
X0116600Y0314200D01*
X0126600Y0314200D02*
X0126600Y0309000D01*
X0136600Y0309000D02*
X0136600Y0314200D01*
X0146600Y0314200D02*
X0146600Y0309000D01*
X0156600Y0309000D02*
X0156600Y0314200D01*
X0166600Y0314200D02*
X0166600Y0309000D01*
X0176600Y0309000D02*
X0176600Y0314200D01*
X0186600Y0314200D02*
X0186600Y0309000D01*
X0186600Y0284200D02*
X0186600Y0279000D01*
X0176600Y0279000D02*
X0176600Y0284200D01*
X0166600Y0284200D02*
X0166600Y0279000D01*
X0156600Y0279000D02*
X0156600Y0284200D01*
X0146600Y0284200D02*
X0146600Y0279000D01*
X0136600Y0279000D02*
X0136600Y0284200D01*
X0126600Y0284200D02*
X0126600Y0279000D01*
X0116600Y0279000D02*
X0116600Y0284200D01*
D12*
X0034600Y0251600D02*
X0028600Y0251600D01*
X0028600Y0241600D02*
X0034600Y0241600D01*
X0034600Y0231600D02*
X0028600Y0231600D01*
X0028600Y0221600D02*
X0034600Y0221600D01*
X0034600Y0211600D02*
X0028600Y0211600D01*
X0028600Y0201600D02*
X0034600Y0201600D01*
X0041600Y0064600D02*
X0041600Y0058600D01*
X0051600Y0058600D02*
X0051600Y0064600D01*
X0061600Y0064600D02*
X0061600Y0058600D01*
X0071600Y0058600D02*
X0071600Y0064600D01*
X0081600Y0064600D02*
X0081600Y0058600D01*
X0091600Y0058600D02*
X0091600Y0064600D01*
X0101600Y0064600D02*
X0101600Y0058600D01*
X0111600Y0058600D02*
X0111600Y0064600D01*
X0121600Y0064600D02*
X0121600Y0058600D01*
X0131600Y0058600D02*
X0131600Y0064600D01*
X0141600Y0064600D02*
X0141600Y0058600D01*
X0151600Y0058600D02*
X0151600Y0064600D01*
X0161600Y0064600D02*
X0161600Y0058600D01*
X0161600Y0034600D02*
X0161600Y0028600D01*
X0151600Y0028600D02*
X0151600Y0034600D01*
X0141600Y0034600D02*
X0141600Y0028600D01*
X0131600Y0028600D02*
X0131600Y0034600D01*
X0121600Y0034600D02*
X0121600Y0028600D01*
X0111600Y0028600D02*
X0111600Y0034600D01*
X0101600Y0034600D02*
X0101600Y0028600D01*
X0091600Y0028600D02*
X0091600Y0034600D01*
X0081600Y0034600D02*
X0081600Y0028600D01*
X0071600Y0028600D02*
X0071600Y0034600D01*
X0061600Y0034600D02*
X0061600Y0028600D01*
X0051600Y0028600D02*
X0051600Y0034600D01*
X0041600Y0034600D02*
X0041600Y0028600D01*
D13*
X0077860Y0286600D03*
X0085340Y0286600D03*
X0085340Y0301600D03*
X0077860Y0301600D03*
D14*
X0076600Y0166600D03*
X0066600Y0166600D03*
X0056600Y0166600D03*
X0046600Y0166600D03*
X0046600Y0096600D03*
X0056600Y0096600D03*
X0066600Y0096600D03*
X0076600Y0096600D03*
X0086600Y0096600D03*
X0096600Y0096600D03*
X0106600Y0096600D03*
X0116600Y0096600D03*
X0126600Y0096600D03*
X0136600Y0096600D03*
X0146600Y0096600D03*
X0156600Y0096600D03*
X0156600Y0166600D03*
X0146600Y0166600D03*
X0136600Y0166600D03*
X0126600Y0166600D03*
X0116600Y0166600D03*
X0106600Y0166600D03*
X0096600Y0166600D03*
X0086600Y0166600D03*
D15*
X0086600Y0196600D03*
X0076600Y0196600D03*
X0066600Y0201600D03*
X0066600Y0211600D03*
X0066600Y0221600D03*
X0066600Y0231600D03*
X0066600Y0241600D03*
X0066600Y0251600D03*
X0076600Y0256600D03*
X0086600Y0256600D03*
X0096600Y0256600D03*
X0106600Y0256600D03*
X0111100Y0246800D03*
X0116600Y0256600D03*
X0121100Y0246800D03*
X0126600Y0256600D03*
X0136600Y0256600D03*
X0146600Y0256600D03*
X0156600Y0256600D03*
X0166600Y0256600D03*
X0176600Y0256600D03*
X0186600Y0256600D03*
X0186600Y0196600D03*
X0176600Y0196600D03*
X0166600Y0196600D03*
X0156600Y0196600D03*
X0146600Y0196600D03*
X0136600Y0196600D03*
X0126600Y0196600D03*
X0116600Y0196600D03*
X0106600Y0196600D03*
X0096600Y0196600D03*
D16*
X0084100Y0331600D03*
X0089100Y0341600D03*
X0079100Y0341600D03*
X0074100Y0331600D03*
X0069100Y0341600D03*
X0064100Y0331600D03*
X0059100Y0341600D03*
X0054100Y0331600D03*
D17*
X0039600Y0332112D03*
X0039600Y0378600D03*
X0103600Y0378600D03*
X0103600Y0332112D03*
D18*
X0136800Y0367700D02*
X0136800Y0375500D01*
X0156500Y0375500D02*
X0156500Y0367700D01*
D19*
X0156500Y0371600D02*
X0151900Y0367000D01*
X0151900Y0308500D01*
X0136600Y0293200D01*
X0136600Y0281600D01*
X0126600Y0281600D02*
X0125800Y0281500D01*
X0106000Y0261700D01*
X0094300Y0261700D01*
X0091600Y0259000D01*
X0091600Y0221200D01*
X0115900Y0196900D01*
X0116600Y0196600D01*
X0116800Y0187000D02*
X0136600Y0167200D01*
X0136600Y0166600D01*
X0126600Y0166600D02*
X0125800Y0167200D01*
X0121300Y0171700D01*
X0114100Y0171700D01*
X0091600Y0194200D01*
X0091600Y0204100D01*
X0110500Y0223000D02*
X0110500Y0246400D01*
X0111100Y0246800D01*
X0120400Y0246400D02*
X0120400Y0227500D01*
X0120400Y0246400D02*
X0121100Y0246800D01*
X0115900Y0281500D02*
X0116600Y0281600D01*
X0116800Y0282400D01*
X0116800Y0311200D01*
X0116600Y0311600D01*
X0115900Y0281500D02*
X0075400Y0281500D01*
X0071800Y0285100D01*
X0032200Y0285100D01*
X0029500Y0282400D01*
X0029500Y0279700D01*
X0029100Y0279500D01*
X0034000Y0278800D02*
X0034100Y0279500D01*
X0034000Y0278800D02*
X0034000Y0263500D01*
X0024100Y0253600D01*
X0024100Y0229300D01*
X0031300Y0222100D01*
X0031600Y0221600D01*
X0032200Y0222100D01*
X0066400Y0222100D01*
X0066600Y0221600D01*
X0071800Y0216700D02*
X0067300Y0212200D01*
X0066600Y0211600D01*
X0066400Y0211300D01*
X0032200Y0211300D01*
X0031600Y0211600D01*
X0031600Y0201600D02*
X0032200Y0201400D01*
X0066400Y0201400D01*
X0066600Y0201600D01*
X0071800Y0216700D02*
X0071800Y0253600D01*
X0068200Y0257200D01*
X0059200Y0257200D01*
X0039400Y0277000D01*
X0039400Y0278800D01*
X0039100Y0279500D01*
X0048400Y0286900D02*
X0034900Y0300400D01*
X0034900Y0303100D01*
X0034100Y0303700D01*
X0034900Y0304000D01*
X0034900Y0306700D01*
X0037600Y0309400D01*
X0038500Y0309400D01*
X0060100Y0331000D01*
X0063700Y0331000D01*
X0064100Y0331600D01*
X0069100Y0341600D02*
X0069100Y0302200D01*
X0077200Y0302200D01*
X0077860Y0301600D01*
X0080800Y0296800D02*
X0085300Y0301300D01*
X0085340Y0301600D01*
X0085300Y0302200D01*
X0085300Y0320200D01*
X0074500Y0331000D01*
X0074100Y0331600D01*
X0079100Y0341600D02*
X0079000Y0341800D01*
X0074500Y0346300D01*
X0057400Y0346300D01*
X0049300Y0338200D01*
X0049300Y0331900D01*
X0029500Y0312100D01*
X0029500Y0304000D01*
X0029100Y0303700D01*
X0039100Y0303700D02*
X0039400Y0303100D01*
X0039400Y0300400D01*
X0043000Y0296800D01*
X0080800Y0296800D01*
X0086200Y0295000D02*
X0086200Y0286900D01*
X0085340Y0286600D01*
X0077860Y0286600D02*
X0077200Y0286900D01*
X0048400Y0286900D01*
X0045700Y0302200D02*
X0044800Y0303100D01*
X0044100Y0303700D01*
X0045700Y0302200D02*
X0069100Y0302200D01*
X0086200Y0295000D02*
X0089800Y0298600D01*
X0089800Y0331900D01*
X0079900Y0341800D01*
X0079100Y0341600D01*
X0066400Y0241900D02*
X0032200Y0241900D01*
X0031600Y0241600D01*
X0032200Y0232000D02*
X0031600Y0231600D01*
X0032200Y0232000D02*
X0066400Y0232000D01*
X0066600Y0231600D01*
X0066600Y0241600D02*
X0066400Y0241900D01*
X0066600Y0096600D02*
X0066400Y0096100D01*
X0061900Y0091600D01*
X0061900Y0061900D01*
X0061600Y0061600D01*
X0056500Y0057400D02*
X0060100Y0053800D01*
X0124000Y0053800D01*
X0131200Y0061000D01*
X0131600Y0061600D01*
X0136600Y0057400D02*
X0132100Y0052900D01*
X0132100Y0032200D01*
X0131600Y0031600D01*
X0136600Y0026800D02*
X0133900Y0024100D01*
X0099700Y0024100D01*
X0096100Y0027700D01*
X0096100Y0036700D01*
X0080800Y0052000D01*
X0052000Y0052000D01*
X0046600Y0057400D01*
X0046600Y0096600D01*
X0056500Y0096100D02*
X0056600Y0096600D01*
X0056500Y0096100D02*
X0056500Y0057400D01*
X0050200Y0039400D02*
X0073600Y0039400D01*
X0080800Y0032200D01*
X0081600Y0031600D01*
X0082600Y0041200D02*
X0091600Y0032200D01*
X0091600Y0031600D01*
X0082600Y0041200D02*
X0042100Y0041200D01*
X0036700Y0035800D01*
X0036700Y0026800D01*
X0055600Y0007900D01*
X0152800Y0007900D01*
X0192400Y0047500D01*
X0192400Y0198700D01*
X0181600Y0209500D01*
X0181600Y0259000D01*
X0178900Y0261700D01*
X0164500Y0261700D01*
X0160000Y0257200D01*
X0157300Y0257200D01*
X0156600Y0256600D01*
X0176600Y0256600D02*
X0177100Y0256300D01*
X0177100Y0203200D01*
X0181600Y0198700D01*
X0181600Y0183400D01*
X0184300Y0180700D01*
X0180700Y0181600D02*
X0177100Y0185200D01*
X0177100Y0196000D01*
X0176600Y0196600D01*
X0169900Y0193300D02*
X0166600Y0196600D01*
X0169900Y0193300D02*
X0169900Y0060100D01*
X0151900Y0042100D01*
X0151900Y0032200D01*
X0151600Y0031600D01*
X0146500Y0026800D02*
X0146500Y0096100D01*
X0146600Y0096600D01*
X0151900Y0084400D02*
X0168100Y0100600D01*
X0168100Y0175300D01*
X0147400Y0196000D01*
X0146600Y0196600D01*
X0156600Y0166600D02*
X0157300Y0166300D01*
X0164500Y0159100D01*
X0164500Y0154600D01*
X0180700Y0181600D02*
X0180700Y0041200D01*
X0151000Y0011500D01*
X0069100Y0011500D01*
X0052000Y0028600D01*
X0052000Y0031300D01*
X0051600Y0031600D01*
X0046600Y0035800D02*
X0050200Y0039400D01*
X0046600Y0035800D02*
X0046600Y0026800D01*
X0063700Y0009700D01*
X0151900Y0009700D01*
X0190600Y0048400D01*
X0190600Y0179800D01*
X0187000Y0183400D01*
X0187000Y0196000D01*
X0186600Y0196600D01*
X0136600Y0096600D02*
X0136600Y0057400D01*
X0141100Y0061000D02*
X0141600Y0061600D01*
X0141100Y0061000D02*
X0141100Y0040300D01*
X0136600Y0035800D01*
X0136600Y0026800D01*
X0142000Y0022300D02*
X0146500Y0026800D01*
X0142000Y0022300D02*
X0070900Y0022300D01*
X0061600Y0031600D01*
X0071600Y0061600D02*
X0071800Y0061900D01*
X0071800Y0091600D01*
X0076300Y0096100D01*
X0076600Y0096600D01*
X0151900Y0084400D02*
X0151900Y0061900D01*
X0151600Y0061600D01*
D20*
X0164500Y0154600D03*
X0184300Y0180700D03*
X0120400Y0227500D03*
X0110500Y0223000D03*
X0091600Y0204100D03*
X0116800Y0187000D03*
D21*
X0006200Y0020231D02*
X0006200Y0377969D01*
X0007078Y0375704D01*
X0009850Y0372662D01*
X0009851Y0372662D01*
X0013535Y0370828D01*
X0017633Y0370448D01*
X0017633Y0370448D01*
X0021592Y0371574D01*
X0021592Y0371574D01*
X0024877Y0374055D01*
X0027044Y0377554D01*
X0027044Y0377554D01*
X0027800Y0381600D01*
X0027044Y0385646D01*
X0024877Y0389145D01*
X0024877Y0389145D01*
X0022817Y0390701D01*
X0034344Y0390701D01*
X0033730Y0389219D01*
X0033730Y0387381D01*
X0034434Y0385683D01*
X0035601Y0384515D01*
X0033657Y0382571D01*
X0032590Y0379994D01*
X0032590Y0377206D01*
X0033657Y0374629D01*
X0035629Y0372657D01*
X0038206Y0371590D01*
X0039279Y0371590D01*
X0038850Y0370846D01*
X0038100Y0368048D01*
X0038100Y0365152D01*
X0038850Y0362354D01*
X0040298Y0359846D01*
X0042346Y0357798D01*
X0044854Y0356350D01*
X0047652Y0355600D01*
X0050548Y0355600D01*
X0053346Y0356350D01*
X0055854Y0357798D01*
X0057902Y0359846D01*
X0059350Y0362354D01*
X0060100Y0365152D01*
X0060100Y0368048D01*
X0059350Y0370846D01*
X0057902Y0373354D01*
X0055854Y0375402D01*
X0053346Y0376850D01*
X0050548Y0377600D01*
X0047652Y0377600D01*
X0046610Y0377321D01*
X0046610Y0379994D01*
X0045543Y0382571D01*
X0044434Y0383680D01*
X0098766Y0383680D01*
X0097657Y0382571D01*
X0096590Y0379994D01*
X0096590Y0377321D01*
X0095548Y0377600D01*
X0092652Y0377600D01*
X0089854Y0376850D01*
X0087346Y0375402D01*
X0085298Y0373354D01*
X0083850Y0370846D01*
X0083100Y0368048D01*
X0083100Y0365152D01*
X0083850Y0362354D01*
X0085298Y0359846D01*
X0087346Y0357798D01*
X0089854Y0356350D01*
X0092652Y0355600D01*
X0095548Y0355600D01*
X0098346Y0356350D01*
X0100854Y0357798D01*
X0102902Y0359846D01*
X0104350Y0362354D01*
X0105100Y0365152D01*
X0105100Y0368048D01*
X0104350Y0370846D01*
X0103921Y0371590D01*
X0104994Y0371590D01*
X0107571Y0372657D01*
X0109543Y0374629D01*
X0110610Y0377206D01*
X0110610Y0379994D01*
X0109543Y0382571D01*
X0107599Y0384515D01*
X0108766Y0385683D01*
X0109470Y0387381D01*
X0109470Y0389219D01*
X0108856Y0390701D01*
X0180178Y0390701D01*
X0179851Y0390538D01*
X0179850Y0390538D01*
X0177078Y0387496D01*
X0175591Y0383658D01*
X0175591Y0379542D01*
X0177078Y0375704D01*
X0179850Y0372662D01*
X0179851Y0372662D01*
X0183535Y0370828D01*
X0187633Y0370448D01*
X0187633Y0370448D01*
X0191592Y0371574D01*
X0191592Y0371574D01*
X0193850Y0373279D01*
X0193850Y0199937D01*
X0193187Y0200600D01*
X0183500Y0210287D01*
X0183500Y0252488D01*
X0183711Y0252276D01*
X0185586Y0251500D01*
X0187614Y0251500D01*
X0189489Y0252276D01*
X0190924Y0253711D01*
X0191700Y0255586D01*
X0191700Y0257614D01*
X0190924Y0259489D01*
X0189489Y0260924D01*
X0187614Y0261700D01*
X0185586Y0261700D01*
X0183711Y0260924D01*
X0183037Y0260250D01*
X0182387Y0260900D01*
X0179687Y0263600D01*
X0163713Y0263600D01*
X0162600Y0262487D01*
X0160263Y0260150D01*
X0159489Y0260924D01*
X0157614Y0261700D01*
X0155586Y0261700D01*
X0153711Y0260924D01*
X0152276Y0259489D01*
X0151600Y0257856D01*
X0150924Y0259489D01*
X0149489Y0260924D01*
X0147614Y0261700D01*
X0145586Y0261700D01*
X0143711Y0260924D01*
X0142276Y0259489D01*
X0141600Y0257856D01*
X0140924Y0259489D01*
X0139489Y0260924D01*
X0137614Y0261700D01*
X0135586Y0261700D01*
X0133711Y0260924D01*
X0132276Y0259489D01*
X0131600Y0257856D01*
X0130924Y0259489D01*
X0129489Y0260924D01*
X0127614Y0261700D01*
X0125586Y0261700D01*
X0123711Y0260924D01*
X0122276Y0259489D01*
X0121600Y0257856D01*
X0120924Y0259489D01*
X0119489Y0260924D01*
X0117614Y0261700D01*
X0115586Y0261700D01*
X0113711Y0260924D01*
X0112276Y0259489D01*
X0111600Y0257856D01*
X0110924Y0259489D01*
X0109489Y0260924D01*
X0108373Y0261386D01*
X0123465Y0276478D01*
X0124334Y0275609D01*
X0125804Y0275000D01*
X0127396Y0275000D01*
X0128866Y0275609D01*
X0129991Y0276734D01*
X0130600Y0278204D01*
X0130600Y0284996D01*
X0129991Y0286466D01*
X0128866Y0287591D01*
X0127396Y0288200D01*
X0125804Y0288200D01*
X0124334Y0287591D01*
X0123209Y0286466D01*
X0122600Y0284996D01*
X0122600Y0280987D01*
X0120600Y0278987D01*
X0120600Y0284996D01*
X0119991Y0286466D01*
X0118866Y0287591D01*
X0118700Y0287660D01*
X0118700Y0305540D01*
X0118866Y0305609D01*
X0119991Y0306734D01*
X0120600Y0308204D01*
X0120600Y0314996D01*
X0119991Y0316466D01*
X0118866Y0317591D01*
X0117396Y0318200D01*
X0115804Y0318200D01*
X0114334Y0317591D01*
X0113209Y0316466D01*
X0112600Y0314996D01*
X0112600Y0308204D01*
X0113209Y0306734D01*
X0114334Y0305609D01*
X0114900Y0305375D01*
X0114900Y0287825D01*
X0114334Y0287591D01*
X0113209Y0286466D01*
X0112600Y0284996D01*
X0112600Y0283400D01*
X0089299Y0283400D01*
X0089299Y0290133D01*
X0088479Y0290953D01*
X0088100Y0290953D01*
X0088100Y0294213D01*
X0090587Y0296700D01*
X0091700Y0297813D01*
X0091700Y0332687D01*
X0083272Y0341115D01*
X0083272Y0342430D01*
X0082637Y0343963D01*
X0081463Y0345137D01*
X0079930Y0345772D01*
X0078270Y0345772D01*
X0077878Y0345609D01*
X0075287Y0348200D01*
X0056613Y0348200D01*
X0055500Y0347087D01*
X0047400Y0338987D01*
X0047400Y0332687D01*
X0046610Y0331897D01*
X0046610Y0333506D01*
X0045543Y0336083D01*
X0043571Y0338055D01*
X0040994Y0339122D01*
X0038206Y0339122D01*
X0035629Y0338055D01*
X0033657Y0336083D01*
X0032590Y0333506D01*
X0032590Y0330717D01*
X0033657Y0328141D01*
X0035629Y0326169D01*
X0038206Y0325102D01*
X0039815Y0325102D01*
X0027600Y0312887D01*
X0027600Y0309100D01*
X0027220Y0309100D01*
X0026400Y0308280D01*
X0026400Y0299120D01*
X0027220Y0298300D01*
X0030980Y0298300D01*
X0031600Y0298920D01*
X0032220Y0298300D01*
X0034313Y0298300D01*
X0045613Y0287000D01*
X0031413Y0287000D01*
X0030300Y0285887D01*
X0029313Y0284900D01*
X0027220Y0284900D01*
X0026400Y0284080D01*
X0026400Y0274920D01*
X0027220Y0274100D01*
X0030980Y0274100D01*
X0031600Y0274720D01*
X0032100Y0274220D01*
X0032100Y0264287D01*
X0023313Y0255500D01*
X0022200Y0254387D01*
X0022200Y0228513D01*
X0025745Y0224968D01*
X0024870Y0224092D01*
X0024200Y0222475D01*
X0024200Y0220725D01*
X0024870Y0219108D01*
X0026108Y0217870D01*
X0027725Y0217200D01*
X0035475Y0217200D01*
X0037092Y0217870D01*
X0038330Y0219108D01*
X0038783Y0220200D01*
X0061660Y0220200D01*
X0062276Y0218711D01*
X0063711Y0217276D01*
X0065344Y0216600D01*
X0063711Y0215924D01*
X0062276Y0214489D01*
X0061743Y0213200D01*
X0038700Y0213200D01*
X0038330Y0214092D01*
X0037092Y0215330D01*
X0035475Y0216000D01*
X0027725Y0216000D01*
X0026108Y0215330D01*
X0024870Y0214092D01*
X0024200Y0212475D01*
X0024200Y0210725D01*
X0024870Y0209108D01*
X0026108Y0207870D01*
X0027725Y0207200D01*
X0035475Y0207200D01*
X0037092Y0207870D01*
X0038330Y0209108D01*
X0038451Y0209400D01*
X0061991Y0209400D01*
X0062276Y0208711D01*
X0063711Y0207276D01*
X0065344Y0206600D01*
X0063711Y0205924D01*
X0062276Y0204489D01*
X0061784Y0203300D01*
X0038658Y0203300D01*
X0038330Y0204092D01*
X0037092Y0205330D01*
X0035475Y0206000D01*
X0027725Y0206000D01*
X0026108Y0205330D01*
X0024870Y0204092D01*
X0024200Y0202475D01*
X0024200Y0200725D01*
X0024870Y0199108D01*
X0026108Y0197870D01*
X0027725Y0197200D01*
X0035475Y0197200D01*
X0037092Y0197870D01*
X0038330Y0199108D01*
X0038493Y0199500D01*
X0061950Y0199500D01*
X0062276Y0198711D01*
X0063711Y0197276D01*
X0065586Y0196500D01*
X0067614Y0196500D01*
X0069489Y0197276D01*
X0070924Y0198711D01*
X0071700Y0200586D01*
X0071700Y0202614D01*
X0070924Y0204489D01*
X0069489Y0205924D01*
X0067856Y0206600D01*
X0069489Y0207276D01*
X0070924Y0208711D01*
X0071700Y0210586D01*
X0071700Y0212614D01*
X0071320Y0213533D01*
X0073700Y0215913D01*
X0073700Y0252288D01*
X0073711Y0252276D01*
X0075586Y0251500D01*
X0077614Y0251500D01*
X0079489Y0252276D01*
X0080924Y0253711D01*
X0081508Y0255121D01*
X0081688Y0254566D01*
X0082067Y0253822D01*
X0082557Y0253147D01*
X0083147Y0252557D01*
X0083822Y0252067D01*
X0084566Y0251688D01*
X0085359Y0251430D01*
X0086183Y0251300D01*
X0086200Y0251300D01*
X0086200Y0256200D01*
X0087000Y0256200D01*
X0087000Y0251300D01*
X0087017Y0251300D01*
X0087841Y0251430D01*
X0088634Y0251688D01*
X0089378Y0252067D01*
X0089700Y0252301D01*
X0089700Y0220413D01*
X0108978Y0201135D01*
X0107614Y0201700D01*
X0105586Y0201700D01*
X0103711Y0200924D01*
X0102276Y0199489D01*
X0101600Y0197856D01*
X0100924Y0199489D01*
X0099489Y0200924D01*
X0097614Y0201700D01*
X0095586Y0201700D01*
X0093711Y0200924D01*
X0093500Y0200712D01*
X0093500Y0201207D01*
X0093526Y0201218D01*
X0094482Y0202174D01*
X0095000Y0203424D01*
X0095000Y0204776D01*
X0094482Y0206026D01*
X0093526Y0206982D01*
X0092276Y0207500D01*
X0090924Y0207500D01*
X0089674Y0206982D01*
X0088718Y0206026D01*
X0088200Y0204776D01*
X0088200Y0203424D01*
X0088718Y0202174D01*
X0089674Y0201218D01*
X0089700Y0201207D01*
X0089700Y0200712D01*
X0089489Y0200924D01*
X0087614Y0201700D01*
X0085586Y0201700D01*
X0083711Y0200924D01*
X0082276Y0199489D01*
X0081600Y0197856D01*
X0080924Y0199489D01*
X0079489Y0200924D01*
X0077614Y0201700D01*
X0075586Y0201700D01*
X0073711Y0200924D01*
X0072276Y0199489D01*
X0071500Y0197614D01*
X0071500Y0195586D01*
X0072276Y0193711D01*
X0073711Y0192276D01*
X0075586Y0191500D01*
X0077614Y0191500D01*
X0079489Y0192276D01*
X0080924Y0193711D01*
X0081600Y0195344D01*
X0082276Y0193711D01*
X0083711Y0192276D01*
X0085586Y0191500D01*
X0087614Y0191500D01*
X0089489Y0192276D01*
X0090163Y0192950D01*
X0112200Y0170913D01*
X0112880Y0170233D01*
X0112192Y0169546D01*
X0111704Y0168367D01*
X0111604Y0168673D01*
X0111218Y0169430D01*
X0110719Y0170118D01*
X0110118Y0170719D01*
X0109430Y0171218D01*
X0108673Y0171604D01*
X0107865Y0171867D01*
X0107025Y0172000D01*
X0106984Y0172000D01*
X0106984Y0166984D01*
X0106216Y0166984D01*
X0106216Y0166216D01*
X0096984Y0166216D01*
X0096984Y0161200D01*
X0097025Y0161200D01*
X0097865Y0161333D01*
X0098673Y0161596D01*
X0099430Y0161982D01*
X0100118Y0162481D01*
X0100719Y0163082D01*
X0101218Y0163770D01*
X0101600Y0164519D01*
X0101982Y0163770D01*
X0102481Y0163082D01*
X0103082Y0162481D01*
X0103770Y0161982D01*
X0104527Y0161596D01*
X0105335Y0161333D01*
X0106175Y0161200D01*
X0106216Y0161200D01*
X0106216Y0166216D01*
X0106984Y0166216D01*
X0106984Y0161200D01*
X0107025Y0161200D01*
X0107865Y0161333D01*
X0108673Y0161596D01*
X0109430Y0161982D01*
X0110118Y0162481D01*
X0110719Y0163082D01*
X0111218Y0163770D01*
X0111604Y0164527D01*
X0111704Y0164833D01*
X0112192Y0163654D01*
X0113654Y0162192D01*
X0115566Y0161400D01*
X0117634Y0161400D01*
X0119546Y0162192D01*
X0121008Y0163654D01*
X0121600Y0165083D01*
X0122192Y0163654D01*
X0123654Y0162192D01*
X0125566Y0161400D01*
X0127634Y0161400D01*
X0129546Y0162192D01*
X0131008Y0163654D01*
X0131600Y0165083D01*
X0132192Y0163654D01*
X0133654Y0162192D01*
X0135566Y0161400D01*
X0137634Y0161400D01*
X0139546Y0162192D01*
X0141008Y0163654D01*
X0141496Y0164833D01*
X0141596Y0164527D01*
X0141982Y0163770D01*
X0142481Y0163082D01*
X0143082Y0162481D01*
X0143770Y0161982D01*
X0144527Y0161596D01*
X0145335Y0161333D01*
X0146175Y0161200D01*
X0146216Y0161200D01*
X0146216Y0166216D01*
X0146984Y0166216D01*
X0146984Y0161200D01*
X0147025Y0161200D01*
X0147865Y0161333D01*
X0148673Y0161596D01*
X0149430Y0161982D01*
X0150118Y0162481D01*
X0150719Y0163082D01*
X0151218Y0163770D01*
X0151604Y0164527D01*
X0151704Y0164833D01*
X0152192Y0163654D01*
X0153654Y0162192D01*
X0155566Y0161400D01*
X0157634Y0161400D01*
X0158963Y0161950D01*
X0162600Y0158313D01*
X0162600Y0157493D01*
X0162574Y0157482D01*
X0161618Y0156526D01*
X0161100Y0155276D01*
X0161100Y0153924D01*
X0161618Y0152674D01*
X0162574Y0151718D01*
X0163824Y0151200D01*
X0165176Y0151200D01*
X0166200Y0151624D01*
X0166200Y0136771D01*
X0165322Y0138292D01*
X0163292Y0140322D01*
X0160807Y0141756D01*
X0158035Y0142499D01*
X0155165Y0142499D01*
X0152393Y0141756D01*
X0149908Y0140322D01*
X0147878Y0138292D01*
X0146444Y0135807D01*
X0145701Y0133035D01*
X0145701Y0130165D01*
X0146444Y0127393D01*
X0147878Y0124908D01*
X0149908Y0122878D01*
X0152393Y0121444D01*
X0155165Y0120701D01*
X0158035Y0120701D01*
X0160807Y0121444D01*
X0163292Y0122878D01*
X0165322Y0124908D01*
X0166200Y0126429D01*
X0166200Y0101387D01*
X0161800Y0096987D01*
X0161800Y0097634D01*
X0161008Y0099546D01*
X0159546Y0101008D01*
X0157634Y0101800D01*
X0155566Y0101800D01*
X0153654Y0101008D01*
X0152192Y0099546D01*
X0151600Y0098117D01*
X0151008Y0099546D01*
X0149546Y0101008D01*
X0147634Y0101800D01*
X0145566Y0101800D01*
X0143654Y0101008D01*
X0142192Y0099546D01*
X0141600Y0098117D01*
X0141008Y0099546D01*
X0139546Y0101008D01*
X0137634Y0101800D01*
X0135566Y0101800D01*
X0133654Y0101008D01*
X0132192Y0099546D01*
X0131600Y0098117D01*
X0131008Y0099546D01*
X0129546Y0101008D01*
X0127634Y0101800D01*
X0125566Y0101800D01*
X0123654Y0101008D01*
X0122192Y0099546D01*
X0121600Y0098117D01*
X0121008Y0099546D01*
X0119546Y0101008D01*
X0117634Y0101800D01*
X0115566Y0101800D01*
X0113654Y0101008D01*
X0112192Y0099546D01*
X0111600Y0098117D01*
X0111008Y0099546D01*
X0109546Y0101008D01*
X0107634Y0101800D01*
X0105566Y0101800D01*
X0103654Y0101008D01*
X0102192Y0099546D01*
X0101600Y0098117D01*
X0101008Y0099546D01*
X0099546Y0101008D01*
X0097634Y0101800D01*
X0095566Y0101800D01*
X0093654Y0101008D01*
X0092192Y0099546D01*
X0091600Y0098117D01*
X0091008Y0099546D01*
X0089546Y0101008D01*
X0087634Y0101800D01*
X0085566Y0101800D01*
X0083654Y0101008D01*
X0082192Y0099546D01*
X0081600Y0098117D01*
X0081008Y0099546D01*
X0079546Y0101008D01*
X0077634Y0101800D01*
X0075566Y0101800D01*
X0073654Y0101008D01*
X0072192Y0099546D01*
X0071600Y0098117D01*
X0071008Y0099546D01*
X0069546Y0101008D01*
X0067634Y0101800D01*
X0065566Y0101800D01*
X0063654Y0101008D01*
X0062192Y0099546D01*
X0061600Y0098117D01*
X0061008Y0099546D01*
X0059546Y0101008D01*
X0057634Y0101800D01*
X0055566Y0101800D01*
X0053654Y0101008D01*
X0052192Y0099546D01*
X0051600Y0098117D01*
X0051008Y0099546D01*
X0049546Y0101008D01*
X0047634Y0101800D01*
X0045566Y0101800D01*
X0043654Y0101008D01*
X0042192Y0099546D01*
X0041400Y0097634D01*
X0041400Y0095566D01*
X0042192Y0093654D01*
X0043654Y0092192D01*
X0044700Y0091759D01*
X0044700Y0068005D01*
X0044597Y0068109D01*
X0044011Y0068534D01*
X0043366Y0068863D01*
X0042677Y0069087D01*
X0042000Y0069194D01*
X0042000Y0062000D01*
X0041200Y0062000D01*
X0041200Y0069194D01*
X0040523Y0069087D01*
X0039834Y0068863D01*
X0039189Y0068534D01*
X0038603Y0068109D01*
X0038091Y0067597D01*
X0037666Y0067011D01*
X0037337Y0066366D01*
X0037113Y0065677D01*
X0037000Y0064962D01*
X0037000Y0062000D01*
X0041200Y0062000D01*
X0041200Y0061200D01*
X0042000Y0061200D01*
X0042000Y0054006D01*
X0042677Y0054113D01*
X0043366Y0054337D01*
X0044011Y0054666D01*
X0044597Y0055091D01*
X0045109Y0055603D01*
X0045362Y0055951D01*
X0051213Y0050100D01*
X0080013Y0050100D01*
X0091113Y0039000D01*
X0090725Y0039000D01*
X0089108Y0038330D01*
X0088632Y0037855D01*
X0083387Y0043100D01*
X0041313Y0043100D01*
X0040200Y0041987D01*
X0034800Y0036587D01*
X0034800Y0026013D01*
X0035913Y0024900D01*
X0054613Y0006200D01*
X0020277Y0006200D01*
X0021592Y0006574D01*
X0021592Y0006574D01*
X0024877Y0009055D01*
X0027044Y0012554D01*
X0027044Y0012554D01*
X0027800Y0016600D01*
X0027800Y0016600D01*
X0027044Y0020646D01*
X0024877Y0024145D01*
X0021592Y0026626D01*
X0017633Y0027752D01*
X0013535Y0027372D01*
X0009851Y0025538D01*
X0009850Y0025538D01*
X0007078Y0022496D01*
X0006200Y0020231D01*
X0006200Y0020776D02*
X0006411Y0020776D01*
X0006200Y0021975D02*
X0006876Y0021975D01*
X0007078Y0022496D02*
X0007078Y0022496D01*
X0007695Y0023173D02*
X0006200Y0023173D01*
X0006200Y0024372D02*
X0008787Y0024372D01*
X0009916Y0025570D02*
X0006200Y0025570D01*
X0006200Y0026769D02*
X0012323Y0026769D01*
X0013535Y0027372D02*
X0013535Y0027372D01*
X0017633Y0027752D02*
X0017633Y0027752D01*
X0021090Y0026769D02*
X0034800Y0026769D01*
X0034800Y0027967D02*
X0006200Y0027967D01*
X0006200Y0029166D02*
X0034800Y0029166D01*
X0034800Y0030364D02*
X0006200Y0030364D01*
X0006200Y0031563D02*
X0034800Y0031563D01*
X0034800Y0032761D02*
X0006200Y0032761D01*
X0006200Y0033960D02*
X0034800Y0033960D01*
X0034800Y0035158D02*
X0006200Y0035158D01*
X0006200Y0036357D02*
X0034800Y0036357D01*
X0035768Y0037555D02*
X0006200Y0037555D01*
X0006200Y0038754D02*
X0036967Y0038754D01*
X0038165Y0039952D02*
X0006200Y0039952D01*
X0006200Y0041151D02*
X0039364Y0041151D01*
X0040562Y0042349D02*
X0006200Y0042349D01*
X0006200Y0043548D02*
X0086565Y0043548D01*
X0085367Y0044746D02*
X0006200Y0044746D01*
X0006200Y0045945D02*
X0084168Y0045945D01*
X0082970Y0047143D02*
X0006200Y0047143D01*
X0006200Y0048342D02*
X0081771Y0048342D01*
X0080573Y0049540D02*
X0006200Y0049540D01*
X0006200Y0050739D02*
X0050574Y0050739D01*
X0049376Y0051937D02*
X0006200Y0051937D01*
X0006200Y0053136D02*
X0048177Y0053136D01*
X0046978Y0054334D02*
X0043358Y0054334D01*
X0042000Y0054334D02*
X0041200Y0054334D01*
X0041200Y0054006D02*
X0041200Y0061200D01*
X0037000Y0061200D01*
X0037000Y0058238D01*
X0037113Y0057523D01*
X0037337Y0056834D01*
X0037666Y0056189D01*
X0038091Y0055603D01*
X0038603Y0055091D01*
X0039189Y0054666D01*
X0039834Y0054337D01*
X0040523Y0054113D01*
X0041200Y0054006D01*
X0039842Y0054334D02*
X0006200Y0054334D01*
X0006200Y0055533D02*
X0038162Y0055533D01*
X0037389Y0056732D02*
X0006200Y0056732D01*
X0006200Y0057930D02*
X0037049Y0057930D01*
X0037000Y0059129D02*
X0006200Y0059129D01*
X0006200Y0060327D02*
X0037000Y0060327D01*
X0037000Y0062724D02*
X0006200Y0062724D01*
X0006200Y0061526D02*
X0041200Y0061526D01*
X0041200Y0062724D02*
X0042000Y0062724D01*
X0042000Y0063923D02*
X0041200Y0063923D01*
X0041200Y0065121D02*
X0042000Y0065121D01*
X0042000Y0066320D02*
X0041200Y0066320D01*
X0041200Y0067518D02*
X0042000Y0067518D01*
X0042000Y0068717D02*
X0041200Y0068717D01*
X0039547Y0068717D02*
X0006200Y0068717D01*
X0006200Y0069915D02*
X0044700Y0069915D01*
X0044700Y0068717D02*
X0043653Y0068717D01*
X0044700Y0071114D02*
X0006200Y0071114D01*
X0006200Y0072312D02*
X0044700Y0072312D01*
X0044700Y0073511D02*
X0006200Y0073511D01*
X0006200Y0074709D02*
X0044700Y0074709D01*
X0044700Y0075908D02*
X0006200Y0075908D01*
X0006200Y0077106D02*
X0044700Y0077106D01*
X0044700Y0078305D02*
X0006200Y0078305D01*
X0006200Y0079503D02*
X0044700Y0079503D01*
X0044700Y0080702D02*
X0006200Y0080702D01*
X0006200Y0081900D02*
X0044700Y0081900D01*
X0044700Y0083099D02*
X0006200Y0083099D01*
X0006200Y0084297D02*
X0044700Y0084297D01*
X0044700Y0085496D02*
X0006200Y0085496D01*
X0006200Y0086694D02*
X0044700Y0086694D01*
X0044700Y0087893D02*
X0006200Y0087893D01*
X0006200Y0089091D02*
X0044700Y0089091D01*
X0044700Y0090290D02*
X0006200Y0090290D01*
X0006200Y0091488D02*
X0044700Y0091488D01*
X0043159Y0092687D02*
X0006200Y0092687D01*
X0006200Y0093885D02*
X0042096Y0093885D01*
X0041600Y0095084D02*
X0006200Y0095084D01*
X0006200Y0096282D02*
X0041400Y0096282D01*
X0041400Y0097481D02*
X0006200Y0097481D01*
X0006200Y0098679D02*
X0041833Y0098679D01*
X0042524Y0099878D02*
X0006200Y0099878D01*
X0006200Y0101076D02*
X0043819Y0101076D01*
X0048500Y0091759D02*
X0049546Y0092192D01*
X0051008Y0093654D01*
X0051600Y0095083D01*
X0052192Y0093654D01*
X0053654Y0092192D01*
X0054600Y0091800D01*
X0054600Y0067823D01*
X0054092Y0068330D01*
X0052475Y0069000D01*
X0050725Y0069000D01*
X0049108Y0068330D01*
X0048500Y0067723D01*
X0048500Y0091759D01*
X0048500Y0091488D02*
X0054600Y0091488D01*
X0054600Y0090290D02*
X0048500Y0090290D01*
X0048500Y0089091D02*
X0054600Y0089091D01*
X0054600Y0087893D02*
X0048500Y0087893D01*
X0048500Y0086694D02*
X0054600Y0086694D01*
X0054600Y0085496D02*
X0048500Y0085496D01*
X0048500Y0084297D02*
X0054600Y0084297D01*
X0054600Y0083099D02*
X0048500Y0083099D01*
X0048500Y0081900D02*
X0054600Y0081900D01*
X0054600Y0080702D02*
X0048500Y0080702D01*
X0048500Y0079503D02*
X0054600Y0079503D01*
X0054600Y0078305D02*
X0048500Y0078305D01*
X0048500Y0077106D02*
X0054600Y0077106D01*
X0054600Y0075908D02*
X0048500Y0075908D01*
X0048500Y0074709D02*
X0054600Y0074709D01*
X0054600Y0073511D02*
X0048500Y0073511D01*
X0048500Y0072312D02*
X0054600Y0072312D01*
X0054600Y0071114D02*
X0048500Y0071114D01*
X0048500Y0069915D02*
X0054600Y0069915D01*
X0054600Y0068717D02*
X0053159Y0068717D01*
X0050041Y0068717D02*
X0048500Y0068717D01*
X0042000Y0060327D02*
X0041200Y0060327D01*
X0041200Y0059129D02*
X0042000Y0059129D01*
X0042000Y0057930D02*
X0041200Y0057930D01*
X0041200Y0056732D02*
X0042000Y0056732D01*
X0042000Y0055533D02*
X0041200Y0055533D01*
X0045038Y0055533D02*
X0045780Y0055533D01*
X0037000Y0063923D02*
X0006200Y0063923D01*
X0006200Y0065121D02*
X0037025Y0065121D01*
X0037322Y0066320D02*
X0006200Y0066320D01*
X0006200Y0067518D02*
X0038034Y0067518D01*
X0050041Y0092687D02*
X0053159Y0092687D01*
X0052096Y0093885D02*
X0051104Y0093885D01*
X0051367Y0098679D02*
X0051833Y0098679D01*
X0052524Y0099878D02*
X0050676Y0099878D01*
X0049381Y0101076D02*
X0053819Y0101076D01*
X0059381Y0101076D02*
X0063819Y0101076D01*
X0062524Y0099878D02*
X0060676Y0099878D01*
X0061367Y0098679D02*
X0061833Y0098679D01*
X0064732Y0091745D02*
X0065566Y0091400D01*
X0067634Y0091400D01*
X0069546Y0092192D01*
X0071008Y0093654D01*
X0071600Y0095083D01*
X0071892Y0094379D01*
X0069900Y0092387D01*
X0069900Y0068658D01*
X0069108Y0068330D01*
X0067870Y0067092D01*
X0067200Y0065475D01*
X0067200Y0057725D01*
X0067870Y0056108D01*
X0068277Y0055700D01*
X0064923Y0055700D01*
X0065330Y0056108D01*
X0066000Y0057725D01*
X0066000Y0065475D01*
X0065330Y0067092D01*
X0064092Y0068330D01*
X0063800Y0068451D01*
X0063800Y0090813D01*
X0064732Y0091745D01*
X0064475Y0091488D02*
X0065352Y0091488D01*
X0063800Y0090290D02*
X0069900Y0090290D01*
X0069900Y0091488D02*
X0067848Y0091488D01*
X0070041Y0092687D02*
X0070200Y0092687D01*
X0071104Y0093885D02*
X0071398Y0093885D01*
X0074375Y0091488D02*
X0075352Y0091488D01*
X0075566Y0091400D02*
X0077634Y0091400D01*
X0079546Y0092192D01*
X0081008Y0093654D01*
X0081600Y0095083D01*
X0082192Y0093654D01*
X0083654Y0092192D01*
X0085566Y0091400D01*
X0087634Y0091400D01*
X0089546Y0092192D01*
X0091008Y0093654D01*
X0091600Y0095083D01*
X0092192Y0093654D01*
X0093654Y0092192D01*
X0095566Y0091400D01*
X0097634Y0091400D01*
X0099546Y0092192D01*
X0101008Y0093654D01*
X0101600Y0095083D01*
X0102192Y0093654D01*
X0103654Y0092192D01*
X0105566Y0091400D01*
X0107634Y0091400D01*
X0109546Y0092192D01*
X0111008Y0093654D01*
X0111600Y0095083D01*
X0112192Y0093654D01*
X0113654Y0092192D01*
X0115566Y0091400D01*
X0117634Y0091400D01*
X0119546Y0092192D01*
X0121008Y0093654D01*
X0121600Y0095083D01*
X0122192Y0093654D01*
X0123654Y0092192D01*
X0125566Y0091400D01*
X0127634Y0091400D01*
X0129546Y0092192D01*
X0131008Y0093654D01*
X0131600Y0095083D01*
X0132192Y0093654D01*
X0133654Y0092192D01*
X0134700Y0091759D01*
X0134700Y0067723D01*
X0134092Y0068330D01*
X0132475Y0069000D01*
X0130725Y0069000D01*
X0129108Y0068330D01*
X0127870Y0067092D01*
X0127200Y0065475D01*
X0127200Y0059687D01*
X0126000Y0058487D01*
X0126000Y0065475D01*
X0125330Y0067092D01*
X0124092Y0068330D01*
X0122475Y0069000D01*
X0120725Y0069000D01*
X0119108Y0068330D01*
X0117870Y0067092D01*
X0117200Y0065475D01*
X0117200Y0057725D01*
X0117870Y0056108D01*
X0118277Y0055700D01*
X0114923Y0055700D01*
X0115330Y0056108D01*
X0116000Y0057725D01*
X0116000Y0065475D01*
X0115330Y0067092D01*
X0114092Y0068330D01*
X0112475Y0069000D01*
X0110725Y0069000D01*
X0109108Y0068330D01*
X0107870Y0067092D01*
X0107200Y0065475D01*
X0107200Y0057725D01*
X0107870Y0056108D01*
X0108277Y0055700D01*
X0104923Y0055700D01*
X0105330Y0056108D01*
X0106000Y0057725D01*
X0106000Y0065475D01*
X0105330Y0067092D01*
X0104092Y0068330D01*
X0102475Y0069000D01*
X0100725Y0069000D01*
X0099108Y0068330D01*
X0097870Y0067092D01*
X0097200Y0065475D01*
X0097200Y0057725D01*
X0097870Y0056108D01*
X0098277Y0055700D01*
X0094923Y0055700D01*
X0095330Y0056108D01*
X0096000Y0057725D01*
X0096000Y0065475D01*
X0095330Y0067092D01*
X0094092Y0068330D01*
X0092475Y0069000D01*
X0090725Y0069000D01*
X0089108Y0068330D01*
X0087870Y0067092D01*
X0087200Y0065475D01*
X0087200Y0057725D01*
X0087870Y0056108D01*
X0088277Y0055700D01*
X0084923Y0055700D01*
X0085330Y0056108D01*
X0086000Y0057725D01*
X0086000Y0065475D01*
X0085330Y0067092D01*
X0084092Y0068330D01*
X0082475Y0069000D01*
X0080725Y0069000D01*
X0079108Y0068330D01*
X0077870Y0067092D01*
X0077200Y0065475D01*
X0077200Y0057725D01*
X0077870Y0056108D01*
X0078277Y0055700D01*
X0074923Y0055700D01*
X0075330Y0056108D01*
X0076000Y0057725D01*
X0076000Y0065475D01*
X0075330Y0067092D01*
X0074092Y0068330D01*
X0073700Y0068493D01*
X0073700Y0090813D01*
X0074662Y0091775D01*
X0075566Y0091400D01*
X0073700Y0090290D02*
X0134700Y0090290D01*
X0134700Y0091488D02*
X0127848Y0091488D01*
X0125352Y0091488D02*
X0117848Y0091488D01*
X0115352Y0091488D02*
X0107848Y0091488D01*
X0110041Y0092687D02*
X0113159Y0092687D01*
X0112096Y0093885D02*
X0111104Y0093885D01*
X0111367Y0098679D02*
X0111833Y0098679D01*
X0112524Y0099878D02*
X0110676Y0099878D01*
X0109381Y0101076D02*
X0113819Y0101076D01*
X0119381Y0101076D02*
X0123819Y0101076D01*
X0122524Y0099878D02*
X0120676Y0099878D01*
X0121367Y0098679D02*
X0121833Y0098679D01*
X0122096Y0093885D02*
X0121104Y0093885D01*
X0120041Y0092687D02*
X0123159Y0092687D01*
X0130041Y0092687D02*
X0133159Y0092687D01*
X0132096Y0093885D02*
X0131104Y0093885D01*
X0131367Y0098679D02*
X0131833Y0098679D01*
X0132524Y0099878D02*
X0130676Y0099878D01*
X0129381Y0101076D02*
X0133819Y0101076D01*
X0139381Y0101076D02*
X0143819Y0101076D01*
X0142524Y0099878D02*
X0140676Y0099878D01*
X0141367Y0098679D02*
X0141833Y0098679D01*
X0141600Y0095083D02*
X0142192Y0093654D01*
X0143654Y0092192D01*
X0144600Y0091800D01*
X0144600Y0067823D01*
X0144092Y0068330D01*
X0142475Y0069000D01*
X0140725Y0069000D01*
X0139108Y0068330D01*
X0138500Y0067723D01*
X0138500Y0091759D01*
X0139546Y0092192D01*
X0141008Y0093654D01*
X0141600Y0095083D01*
X0141104Y0093885D02*
X0142096Y0093885D01*
X0143159Y0092687D02*
X0140041Y0092687D01*
X0138500Y0091488D02*
X0144600Y0091488D01*
X0144600Y0090290D02*
X0138500Y0090290D01*
X0138500Y0089091D02*
X0144600Y0089091D01*
X0144600Y0087893D02*
X0138500Y0087893D01*
X0138500Y0086694D02*
X0144600Y0086694D01*
X0144600Y0085496D02*
X0138500Y0085496D01*
X0138500Y0084297D02*
X0144600Y0084297D01*
X0144600Y0083099D02*
X0138500Y0083099D01*
X0138500Y0081900D02*
X0144600Y0081900D01*
X0144600Y0080702D02*
X0138500Y0080702D01*
X0138500Y0079503D02*
X0144600Y0079503D01*
X0144600Y0078305D02*
X0138500Y0078305D01*
X0138500Y0077106D02*
X0144600Y0077106D01*
X0144600Y0075908D02*
X0138500Y0075908D01*
X0138500Y0074709D02*
X0144600Y0074709D01*
X0144600Y0073511D02*
X0138500Y0073511D01*
X0138500Y0072312D02*
X0144600Y0072312D01*
X0144600Y0071114D02*
X0138500Y0071114D01*
X0138500Y0069915D02*
X0144600Y0069915D01*
X0144600Y0068717D02*
X0143159Y0068717D01*
X0140041Y0068717D02*
X0138500Y0068717D01*
X0134700Y0068717D02*
X0133159Y0068717D01*
X0134700Y0069915D02*
X0073700Y0069915D01*
X0073700Y0068717D02*
X0080041Y0068717D01*
X0078296Y0067518D02*
X0074904Y0067518D01*
X0075650Y0066320D02*
X0077550Y0066320D01*
X0077200Y0065121D02*
X0076000Y0065121D01*
X0076000Y0063923D02*
X0077200Y0063923D01*
X0077200Y0062724D02*
X0076000Y0062724D01*
X0076000Y0061526D02*
X0077200Y0061526D01*
X0077200Y0060327D02*
X0076000Y0060327D01*
X0076000Y0059129D02*
X0077200Y0059129D01*
X0077200Y0057930D02*
X0076000Y0057930D01*
X0075589Y0056732D02*
X0077611Y0056732D01*
X0083587Y0051900D02*
X0124787Y0051900D01*
X0125900Y0053013D01*
X0128432Y0055545D01*
X0129108Y0054870D01*
X0130716Y0054203D01*
X0130200Y0053687D01*
X0130200Y0038783D01*
X0129108Y0038330D01*
X0127870Y0037092D01*
X0127200Y0035475D01*
X0127200Y0027725D01*
X0127870Y0026108D01*
X0127977Y0026000D01*
X0125223Y0026000D01*
X0125330Y0026108D01*
X0126000Y0027725D01*
X0126000Y0035475D01*
X0125330Y0037092D01*
X0124092Y0038330D01*
X0122475Y0039000D01*
X0120725Y0039000D01*
X0119108Y0038330D01*
X0117870Y0037092D01*
X0117200Y0035475D01*
X0117200Y0027725D01*
X0117870Y0026108D01*
X0117977Y0026000D01*
X0115223Y0026000D01*
X0115330Y0026108D01*
X0116000Y0027725D01*
X0116000Y0035475D01*
X0115330Y0037092D01*
X0114092Y0038330D01*
X0112475Y0039000D01*
X0110725Y0039000D01*
X0109108Y0038330D01*
X0107870Y0037092D01*
X0107200Y0035475D01*
X0107200Y0027725D01*
X0107870Y0026108D01*
X0107977Y0026000D01*
X0105223Y0026000D01*
X0105330Y0026108D01*
X0106000Y0027725D01*
X0106000Y0035475D01*
X0105330Y0037092D01*
X0104092Y0038330D01*
X0102475Y0039000D01*
X0100725Y0039000D01*
X0099108Y0038330D01*
X0098000Y0037223D01*
X0098000Y0037487D01*
X0083587Y0051900D01*
X0084748Y0050739D02*
X0130200Y0050739D01*
X0130200Y0051937D02*
X0124824Y0051937D01*
X0126023Y0053136D02*
X0130200Y0053136D01*
X0130400Y0054334D02*
X0127221Y0054334D01*
X0128420Y0055533D02*
X0128444Y0055533D01*
X0126642Y0059129D02*
X0126000Y0059129D01*
X0126000Y0060327D02*
X0127200Y0060327D01*
X0127200Y0061526D02*
X0126000Y0061526D01*
X0126000Y0062724D02*
X0127200Y0062724D01*
X0127200Y0063923D02*
X0126000Y0063923D01*
X0126000Y0065121D02*
X0127200Y0065121D01*
X0127550Y0066320D02*
X0125650Y0066320D01*
X0124904Y0067518D02*
X0128296Y0067518D01*
X0130041Y0068717D02*
X0123159Y0068717D01*
X0120041Y0068717D02*
X0113159Y0068717D01*
X0114904Y0067518D02*
X0118296Y0067518D01*
X0117550Y0066320D02*
X0115650Y0066320D01*
X0116000Y0065121D02*
X0117200Y0065121D01*
X0117200Y0063923D02*
X0116000Y0063923D01*
X0116000Y0062724D02*
X0117200Y0062724D01*
X0117200Y0061526D02*
X0116000Y0061526D01*
X0116000Y0060327D02*
X0117200Y0060327D01*
X0117200Y0059129D02*
X0116000Y0059129D01*
X0116000Y0057930D02*
X0117200Y0057930D01*
X0117611Y0056732D02*
X0115589Y0056732D01*
X0108296Y0067518D02*
X0104904Y0067518D01*
X0105650Y0066320D02*
X0107550Y0066320D01*
X0107200Y0065121D02*
X0106000Y0065121D01*
X0106000Y0063923D02*
X0107200Y0063923D01*
X0107200Y0062724D02*
X0106000Y0062724D01*
X0106000Y0061526D02*
X0107200Y0061526D01*
X0107200Y0060327D02*
X0106000Y0060327D01*
X0106000Y0059129D02*
X0107200Y0059129D01*
X0107200Y0057930D02*
X0106000Y0057930D01*
X0105589Y0056732D02*
X0107611Y0056732D01*
X0110041Y0068717D02*
X0103159Y0068717D01*
X0100041Y0068717D02*
X0093159Y0068717D01*
X0094904Y0067518D02*
X0098296Y0067518D01*
X0097550Y0066320D02*
X0095650Y0066320D01*
X0096000Y0065121D02*
X0097200Y0065121D01*
X0097200Y0063923D02*
X0096000Y0063923D01*
X0096000Y0062724D02*
X0097200Y0062724D01*
X0097200Y0061526D02*
X0096000Y0061526D01*
X0096000Y0060327D02*
X0097200Y0060327D01*
X0097200Y0059129D02*
X0096000Y0059129D01*
X0096000Y0057930D02*
X0097200Y0057930D01*
X0097611Y0056732D02*
X0095589Y0056732D01*
X0089542Y0045945D02*
X0130200Y0045945D01*
X0130200Y0047143D02*
X0088344Y0047143D01*
X0087145Y0048342D02*
X0130200Y0048342D01*
X0130200Y0049540D02*
X0085947Y0049540D01*
X0090741Y0044746D02*
X0130200Y0044746D01*
X0130200Y0043548D02*
X0091939Y0043548D01*
X0093138Y0042349D02*
X0130200Y0042349D01*
X0130200Y0041151D02*
X0094336Y0041151D01*
X0095535Y0039952D02*
X0130200Y0039952D01*
X0130131Y0038754D02*
X0123069Y0038754D01*
X0124867Y0037555D02*
X0128333Y0037555D01*
X0127565Y0036357D02*
X0125635Y0036357D01*
X0126000Y0035158D02*
X0127200Y0035158D01*
X0127200Y0033960D02*
X0126000Y0033960D01*
X0126000Y0032761D02*
X0127200Y0032761D01*
X0127200Y0031563D02*
X0126000Y0031563D01*
X0126000Y0030364D02*
X0127200Y0030364D01*
X0127200Y0029166D02*
X0126000Y0029166D01*
X0126000Y0027967D02*
X0127200Y0027967D01*
X0127596Y0026769D02*
X0125604Y0026769D01*
X0118333Y0037555D02*
X0114867Y0037555D01*
X0115635Y0036357D02*
X0117565Y0036357D01*
X0117200Y0035158D02*
X0116000Y0035158D01*
X0116000Y0033960D02*
X0117200Y0033960D01*
X0117200Y0032761D02*
X0116000Y0032761D01*
X0116000Y0031563D02*
X0117200Y0031563D01*
X0117200Y0030364D02*
X0116000Y0030364D01*
X0116000Y0029166D02*
X0117200Y0029166D01*
X0117200Y0027967D02*
X0116000Y0027967D01*
X0115604Y0026769D02*
X0117596Y0026769D01*
X0120131Y0038754D02*
X0113069Y0038754D01*
X0110131Y0038754D02*
X0103069Y0038754D01*
X0104867Y0037555D02*
X0108333Y0037555D01*
X0107565Y0036357D02*
X0105635Y0036357D01*
X0106000Y0035158D02*
X0107200Y0035158D01*
X0107200Y0033960D02*
X0106000Y0033960D01*
X0106000Y0032761D02*
X0107200Y0032761D01*
X0107200Y0031563D02*
X0106000Y0031563D01*
X0106000Y0030364D02*
X0107200Y0030364D01*
X0107200Y0029166D02*
X0106000Y0029166D01*
X0106000Y0027967D02*
X0107200Y0027967D01*
X0107596Y0026769D02*
X0105604Y0026769D01*
X0098333Y0037555D02*
X0097932Y0037555D01*
X0096733Y0038754D02*
X0100131Y0038754D01*
X0090131Y0038754D02*
X0087733Y0038754D01*
X0086535Y0039952D02*
X0090161Y0039952D01*
X0088962Y0041151D02*
X0085336Y0041151D01*
X0084138Y0042349D02*
X0087764Y0042349D01*
X0087611Y0056732D02*
X0085589Y0056732D01*
X0086000Y0057930D02*
X0087200Y0057930D01*
X0087200Y0059129D02*
X0086000Y0059129D01*
X0086000Y0060327D02*
X0087200Y0060327D01*
X0087200Y0061526D02*
X0086000Y0061526D01*
X0086000Y0062724D02*
X0087200Y0062724D01*
X0087200Y0063923D02*
X0086000Y0063923D01*
X0086000Y0065121D02*
X0087200Y0065121D01*
X0087550Y0066320D02*
X0085650Y0066320D01*
X0084904Y0067518D02*
X0088296Y0067518D01*
X0090041Y0068717D02*
X0083159Y0068717D01*
X0073700Y0071114D02*
X0134700Y0071114D01*
X0134700Y0072312D02*
X0073700Y0072312D01*
X0073700Y0073511D02*
X0134700Y0073511D01*
X0134700Y0074709D02*
X0073700Y0074709D01*
X0073700Y0075908D02*
X0134700Y0075908D01*
X0134700Y0077106D02*
X0073700Y0077106D01*
X0073700Y0078305D02*
X0134700Y0078305D01*
X0134700Y0079503D02*
X0073700Y0079503D01*
X0073700Y0080702D02*
X0134700Y0080702D01*
X0134700Y0081900D02*
X0073700Y0081900D01*
X0073700Y0083099D02*
X0134700Y0083099D01*
X0134700Y0084297D02*
X0073700Y0084297D01*
X0073700Y0085496D02*
X0134700Y0085496D01*
X0134700Y0086694D02*
X0073700Y0086694D01*
X0073700Y0087893D02*
X0134700Y0087893D01*
X0134700Y0089091D02*
X0073700Y0089091D01*
X0069900Y0089091D02*
X0063800Y0089091D01*
X0063800Y0087893D02*
X0069900Y0087893D01*
X0069900Y0086694D02*
X0063800Y0086694D01*
X0063800Y0085496D02*
X0069900Y0085496D01*
X0069900Y0084297D02*
X0063800Y0084297D01*
X0063800Y0083099D02*
X0069900Y0083099D01*
X0069900Y0081900D02*
X0063800Y0081900D01*
X0063800Y0080702D02*
X0069900Y0080702D01*
X0069900Y0079503D02*
X0063800Y0079503D01*
X0063800Y0078305D02*
X0069900Y0078305D01*
X0069900Y0077106D02*
X0063800Y0077106D01*
X0063800Y0075908D02*
X0069900Y0075908D01*
X0069900Y0074709D02*
X0063800Y0074709D01*
X0063800Y0073511D02*
X0069900Y0073511D01*
X0069900Y0072312D02*
X0063800Y0072312D01*
X0063800Y0071114D02*
X0069900Y0071114D01*
X0069900Y0069915D02*
X0063800Y0069915D01*
X0063800Y0068717D02*
X0069900Y0068717D01*
X0068296Y0067518D02*
X0064904Y0067518D01*
X0065650Y0066320D02*
X0067550Y0066320D01*
X0067200Y0065121D02*
X0066000Y0065121D01*
X0066000Y0063923D02*
X0067200Y0063923D01*
X0067200Y0062724D02*
X0066000Y0062724D01*
X0066000Y0061526D02*
X0067200Y0061526D01*
X0067200Y0060327D02*
X0066000Y0060327D01*
X0066000Y0059129D02*
X0067200Y0059129D01*
X0067200Y0057930D02*
X0066000Y0057930D01*
X0065589Y0056732D02*
X0067611Y0056732D01*
X0058277Y0037500D02*
X0057870Y0037092D01*
X0057200Y0035475D01*
X0057200Y0027725D01*
X0057870Y0026108D01*
X0059108Y0024870D01*
X0060725Y0024200D01*
X0062475Y0024200D01*
X0064092Y0024870D01*
X0064868Y0025645D01*
X0069000Y0021513D01*
X0069000Y0021513D01*
X0070113Y0020400D01*
X0142787Y0020400D01*
X0147287Y0024900D01*
X0148182Y0025795D01*
X0149108Y0024870D01*
X0150725Y0024200D01*
X0152475Y0024200D01*
X0154092Y0024870D01*
X0155330Y0026108D01*
X0156000Y0027725D01*
X0156000Y0035475D01*
X0155330Y0037092D01*
X0154092Y0038330D01*
X0153800Y0038451D01*
X0153800Y0041313D01*
X0170687Y0058200D01*
X0171800Y0059313D01*
X0171800Y0194087D01*
X0171290Y0194597D01*
X0171600Y0195344D01*
X0172276Y0193711D01*
X0173711Y0192276D01*
X0175200Y0191660D01*
X0175200Y0184413D01*
X0176313Y0183300D01*
X0178800Y0180813D01*
X0178800Y0041987D01*
X0166000Y0029187D01*
X0166000Y0035475D01*
X0165330Y0037092D01*
X0164092Y0038330D01*
X0162475Y0039000D01*
X0160725Y0039000D01*
X0159108Y0038330D01*
X0157870Y0037092D01*
X0157200Y0035475D01*
X0157200Y0027725D01*
X0157870Y0026108D01*
X0159108Y0024870D01*
X0160725Y0024200D01*
X0161013Y0024200D01*
X0150213Y0013400D01*
X0069887Y0013400D01*
X0055872Y0027415D01*
X0056000Y0027725D01*
X0056000Y0035475D01*
X0055330Y0037092D01*
X0054923Y0037500D01*
X0058277Y0037500D01*
X0057565Y0036357D02*
X0055635Y0036357D01*
X0056000Y0035158D02*
X0057200Y0035158D01*
X0057200Y0033960D02*
X0056000Y0033960D01*
X0056000Y0032761D02*
X0057200Y0032761D01*
X0057200Y0031563D02*
X0056000Y0031563D01*
X0056000Y0030364D02*
X0057200Y0030364D01*
X0057200Y0029166D02*
X0056000Y0029166D01*
X0056000Y0027967D02*
X0057200Y0027967D01*
X0057596Y0026769D02*
X0056518Y0026769D01*
X0057717Y0025570D02*
X0058407Y0025570D01*
X0058915Y0024372D02*
X0060310Y0024372D01*
X0060114Y0023173D02*
X0067340Y0023173D01*
X0068538Y0021975D02*
X0061312Y0021975D01*
X0062511Y0020776D02*
X0069737Y0020776D01*
X0067305Y0015982D02*
X0152795Y0015982D01*
X0151597Y0014784D02*
X0068503Y0014784D01*
X0069702Y0013585D02*
X0150398Y0013585D01*
X0153994Y0017181D02*
X0066106Y0017181D01*
X0064908Y0018379D02*
X0155192Y0018379D01*
X0156391Y0019578D02*
X0063709Y0019578D01*
X0062890Y0024372D02*
X0066141Y0024372D01*
X0064943Y0025570D02*
X0064793Y0025570D01*
X0053220Y0007593D02*
X0022941Y0007593D01*
X0024528Y0008791D02*
X0052022Y0008791D01*
X0050823Y0009990D02*
X0025456Y0009990D01*
X0024877Y0009055D02*
X0024877Y0009055D01*
X0024877Y0009055D01*
X0026198Y0011188D02*
X0049625Y0011188D01*
X0048426Y0012387D02*
X0026940Y0012387D01*
X0027236Y0013585D02*
X0047228Y0013585D01*
X0046029Y0014784D02*
X0027460Y0014784D01*
X0027684Y0015982D02*
X0044831Y0015982D01*
X0043632Y0017181D02*
X0027691Y0017181D01*
X0027467Y0018379D02*
X0042434Y0018379D01*
X0041235Y0019578D02*
X0027243Y0019578D01*
X0026963Y0020776D02*
X0040037Y0020776D01*
X0038838Y0021975D02*
X0026221Y0021975D01*
X0025479Y0023173D02*
X0037640Y0023173D01*
X0036441Y0024372D02*
X0024577Y0024372D01*
X0024877Y0024145D02*
X0024877Y0024145D01*
X0022990Y0025570D02*
X0035243Y0025570D01*
X0021592Y0026626D02*
X0021592Y0026626D01*
X0020959Y0006394D02*
X0054419Y0006394D01*
X0077848Y0091488D02*
X0085352Y0091488D01*
X0087848Y0091488D02*
X0095352Y0091488D01*
X0093159Y0092687D02*
X0090041Y0092687D01*
X0091104Y0093885D02*
X0092096Y0093885D01*
X0091833Y0098679D02*
X0091367Y0098679D01*
X0090676Y0099878D02*
X0092524Y0099878D01*
X0093819Y0101076D02*
X0089381Y0101076D01*
X0083819Y0101076D02*
X0079381Y0101076D01*
X0080676Y0099878D02*
X0082524Y0099878D01*
X0081833Y0098679D02*
X0081367Y0098679D01*
X0081104Y0093885D02*
X0082096Y0093885D01*
X0083159Y0092687D02*
X0080041Y0092687D01*
X0073819Y0101076D02*
X0069381Y0101076D01*
X0070676Y0099878D02*
X0072524Y0099878D01*
X0071833Y0098679D02*
X0071367Y0098679D01*
X0053292Y0122878D02*
X0055322Y0124908D01*
X0056756Y0127393D01*
X0057499Y0130165D01*
X0057499Y0133035D01*
X0056756Y0135807D01*
X0055322Y0138292D01*
X0053292Y0140322D01*
X0050807Y0141756D01*
X0048035Y0142499D01*
X0045165Y0142499D01*
X0042393Y0141756D01*
X0039908Y0140322D01*
X0037878Y0138292D01*
X0036444Y0135807D01*
X0035701Y0133035D01*
X0035701Y0130165D01*
X0036444Y0127393D01*
X0037878Y0124908D01*
X0039908Y0122878D01*
X0042393Y0121444D01*
X0045165Y0120701D01*
X0048035Y0120701D01*
X0050807Y0121444D01*
X0053292Y0122878D01*
X0052896Y0122650D02*
X0150304Y0122650D01*
X0148938Y0123848D02*
X0054262Y0123848D01*
X0055402Y0125047D02*
X0147798Y0125047D01*
X0147106Y0126245D02*
X0056094Y0126245D01*
X0056770Y0127444D02*
X0146430Y0127444D01*
X0146109Y0128642D02*
X0057091Y0128642D01*
X0057412Y0129841D02*
X0145788Y0129841D01*
X0145701Y0131039D02*
X0057499Y0131039D01*
X0057499Y0132238D02*
X0145701Y0132238D01*
X0145808Y0133436D02*
X0057392Y0133436D01*
X0057071Y0134635D02*
X0146129Y0134635D01*
X0146459Y0135833D02*
X0056741Y0135833D01*
X0056049Y0137032D02*
X0147151Y0137032D01*
X0147843Y0138230D02*
X0055357Y0138230D01*
X0054185Y0139429D02*
X0149015Y0139429D01*
X0150437Y0140627D02*
X0052763Y0140627D01*
X0050548Y0141826D02*
X0152652Y0141826D01*
X0160548Y0141826D02*
X0166200Y0141826D01*
X0166200Y0143024D02*
X0006200Y0143024D01*
X0006200Y0141826D02*
X0042652Y0141826D01*
X0040437Y0140627D02*
X0006200Y0140627D01*
X0006200Y0139429D02*
X0039015Y0139429D01*
X0037843Y0138230D02*
X0006200Y0138230D01*
X0006200Y0137032D02*
X0037151Y0137032D01*
X0036459Y0135833D02*
X0006200Y0135833D01*
X0006200Y0134635D02*
X0036129Y0134635D01*
X0035808Y0133436D02*
X0006200Y0133436D01*
X0006200Y0132238D02*
X0035701Y0132238D01*
X0035701Y0131039D02*
X0006200Y0131039D01*
X0006200Y0129841D02*
X0035788Y0129841D01*
X0036109Y0128642D02*
X0006200Y0128642D01*
X0006200Y0127444D02*
X0036430Y0127444D01*
X0037106Y0126245D02*
X0006200Y0126245D01*
X0006200Y0125047D02*
X0037798Y0125047D01*
X0038938Y0123848D02*
X0006200Y0123848D01*
X0006200Y0122650D02*
X0040304Y0122650D01*
X0042380Y0121451D02*
X0006200Y0121451D01*
X0006200Y0120253D02*
X0166200Y0120253D01*
X0166200Y0121451D02*
X0160820Y0121451D01*
X0162896Y0122650D02*
X0166200Y0122650D01*
X0166200Y0123848D02*
X0164262Y0123848D01*
X0165402Y0125047D02*
X0166200Y0125047D01*
X0166200Y0126245D02*
X0166094Y0126245D01*
X0166200Y0119054D02*
X0006200Y0119054D01*
X0006200Y0117856D02*
X0166200Y0117856D01*
X0166200Y0116657D02*
X0006200Y0116657D01*
X0006200Y0115459D02*
X0166200Y0115459D01*
X0166200Y0114260D02*
X0006200Y0114260D01*
X0006200Y0113062D02*
X0166200Y0113062D01*
X0166200Y0111863D02*
X0006200Y0111863D01*
X0006200Y0110665D02*
X0166200Y0110665D01*
X0166200Y0109466D02*
X0006200Y0109466D01*
X0006200Y0108268D02*
X0166200Y0108268D01*
X0166200Y0107069D02*
X0006200Y0107069D01*
X0006200Y0105870D02*
X0166200Y0105870D01*
X0166200Y0104672D02*
X0006200Y0104672D01*
X0006200Y0103473D02*
X0166200Y0103473D01*
X0166200Y0102275D02*
X0006200Y0102275D01*
X0006200Y0144223D02*
X0166200Y0144223D01*
X0166200Y0145421D02*
X0006200Y0145421D01*
X0006200Y0146620D02*
X0166200Y0146620D01*
X0166200Y0147818D02*
X0006200Y0147818D01*
X0006200Y0149017D02*
X0166200Y0149017D01*
X0166200Y0150215D02*
X0006200Y0150215D01*
X0006200Y0151414D02*
X0163307Y0151414D01*
X0161679Y0152612D02*
X0006200Y0152612D01*
X0006200Y0153811D02*
X0161147Y0153811D01*
X0161100Y0155009D02*
X0006200Y0155009D01*
X0006200Y0156208D02*
X0161486Y0156208D01*
X0162498Y0157406D02*
X0006200Y0157406D01*
X0006200Y0158605D02*
X0162308Y0158605D01*
X0161109Y0159803D02*
X0006200Y0159803D01*
X0006200Y0161002D02*
X0159911Y0161002D01*
X0161689Y0164598D02*
X0166200Y0164598D01*
X0166200Y0165796D02*
X0161800Y0165796D01*
X0161800Y0165566D02*
X0161800Y0167634D01*
X0161008Y0169546D01*
X0159546Y0171008D01*
X0157634Y0171800D01*
X0155566Y0171800D01*
X0153654Y0171008D01*
X0152192Y0169546D01*
X0151704Y0168367D01*
X0151604Y0168673D01*
X0151218Y0169430D01*
X0150719Y0170118D01*
X0150118Y0170719D01*
X0149430Y0171218D01*
X0148673Y0171604D01*
X0147865Y0171867D01*
X0147025Y0172000D01*
X0146984Y0172000D01*
X0146984Y0166984D01*
X0146216Y0166984D01*
X0146216Y0172000D01*
X0146175Y0172000D01*
X0145335Y0171867D01*
X0144527Y0171604D01*
X0143770Y0171218D01*
X0143082Y0170719D01*
X0142481Y0170118D01*
X0141982Y0169430D01*
X0141596Y0168673D01*
X0141496Y0168367D01*
X0141008Y0169546D01*
X0139546Y0171008D01*
X0137634Y0171800D01*
X0135566Y0171800D01*
X0134944Y0171543D01*
X0120189Y0186298D01*
X0120200Y0186324D01*
X0120200Y0187676D01*
X0119682Y0188926D01*
X0118726Y0189882D01*
X0117476Y0190400D01*
X0116124Y0190400D01*
X0114874Y0189882D01*
X0113918Y0188926D01*
X0113400Y0187676D01*
X0113400Y0186324D01*
X0113918Y0185074D01*
X0114874Y0184118D01*
X0116124Y0183600D01*
X0117476Y0183600D01*
X0117502Y0183611D01*
X0132009Y0169104D01*
X0131600Y0168117D01*
X0131008Y0169546D01*
X0129546Y0171008D01*
X0127634Y0171800D01*
X0125566Y0171800D01*
X0124379Y0171308D01*
X0122087Y0173600D01*
X0114887Y0173600D01*
X0096987Y0191500D01*
X0097614Y0191500D01*
X0099489Y0192276D01*
X0100924Y0193711D01*
X0101600Y0195344D01*
X0102276Y0193711D01*
X0103711Y0192276D01*
X0105586Y0191500D01*
X0107614Y0191500D01*
X0109489Y0192276D01*
X0110924Y0193711D01*
X0111600Y0195344D01*
X0112276Y0193711D01*
X0113711Y0192276D01*
X0115586Y0191500D01*
X0117614Y0191500D01*
X0119489Y0192276D01*
X0120924Y0193711D01*
X0121600Y0195344D01*
X0122276Y0193711D01*
X0123711Y0192276D01*
X0125586Y0191500D01*
X0127614Y0191500D01*
X0129489Y0192276D01*
X0130924Y0193711D01*
X0131600Y0195344D01*
X0132276Y0193711D01*
X0133711Y0192276D01*
X0135586Y0191500D01*
X0137614Y0191500D01*
X0139489Y0192276D01*
X0140924Y0193711D01*
X0141600Y0195344D01*
X0142276Y0193711D01*
X0143711Y0192276D01*
X0145586Y0191500D01*
X0147614Y0191500D01*
X0148745Y0191968D01*
X0166200Y0174513D01*
X0166200Y0160087D01*
X0161484Y0164803D01*
X0161800Y0165566D01*
X0161800Y0166995D02*
X0166200Y0166995D01*
X0166200Y0168193D02*
X0161569Y0168193D01*
X0161072Y0169392D02*
X0166200Y0169392D01*
X0166200Y0170590D02*
X0159964Y0170590D01*
X0157662Y0171789D02*
X0166200Y0171789D01*
X0166200Y0172987D02*
X0133500Y0172987D01*
X0134698Y0171789D02*
X0135538Y0171789D01*
X0137662Y0171789D02*
X0145094Y0171789D01*
X0146216Y0171789D02*
X0146984Y0171789D01*
X0148106Y0171789D02*
X0155538Y0171789D01*
X0153236Y0170590D02*
X0150247Y0170590D01*
X0151238Y0169392D02*
X0152128Y0169392D01*
X0151801Y0164598D02*
X0151627Y0164598D01*
X0150949Y0163399D02*
X0152447Y0163399D01*
X0153646Y0162201D02*
X0149732Y0162201D01*
X0146984Y0162201D02*
X0146216Y0162201D01*
X0146216Y0163399D02*
X0146984Y0163399D01*
X0146984Y0164598D02*
X0146216Y0164598D01*
X0146216Y0165796D02*
X0146984Y0165796D01*
X0146984Y0166995D02*
X0146216Y0166995D01*
X0146216Y0168193D02*
X0146984Y0168193D01*
X0146984Y0169392D02*
X0146216Y0169392D01*
X0146216Y0170590D02*
X0146984Y0170590D01*
X0142953Y0170590D02*
X0139964Y0170590D01*
X0141072Y0169392D02*
X0141962Y0169392D01*
X0141573Y0164598D02*
X0141399Y0164598D01*
X0140753Y0163399D02*
X0142251Y0163399D01*
X0143468Y0162201D02*
X0139554Y0162201D01*
X0133646Y0162201D02*
X0129554Y0162201D01*
X0130753Y0163399D02*
X0132447Y0163399D01*
X0131801Y0164598D02*
X0131399Y0164598D01*
X0131569Y0168193D02*
X0131631Y0168193D01*
X0131721Y0169392D02*
X0131072Y0169392D01*
X0130523Y0170590D02*
X0129964Y0170590D01*
X0129324Y0171789D02*
X0127662Y0171789D01*
X0128126Y0172987D02*
X0122700Y0172987D01*
X0123898Y0171789D02*
X0125538Y0171789D01*
X0126927Y0174186D02*
X0114301Y0174186D01*
X0113103Y0175384D02*
X0125729Y0175384D01*
X0124530Y0176583D02*
X0111904Y0176583D01*
X0110706Y0177781D02*
X0123332Y0177781D01*
X0122133Y0178980D02*
X0109507Y0178980D01*
X0108309Y0180178D02*
X0120935Y0180178D01*
X0119736Y0181377D02*
X0107110Y0181377D01*
X0105912Y0182575D02*
X0118538Y0182575D01*
X0121515Y0184972D02*
X0155741Y0184972D01*
X0156939Y0183774D02*
X0122713Y0183774D01*
X0123912Y0182575D02*
X0158138Y0182575D01*
X0159336Y0181377D02*
X0125110Y0181377D01*
X0126309Y0180178D02*
X0160535Y0180178D01*
X0161733Y0178980D02*
X0127507Y0178980D01*
X0128706Y0177781D02*
X0162932Y0177781D01*
X0164130Y0176583D02*
X0129904Y0176583D01*
X0131103Y0175384D02*
X0165329Y0175384D01*
X0166200Y0174186D02*
X0132301Y0174186D01*
X0122447Y0163399D02*
X0120753Y0163399D01*
X0121399Y0164598D02*
X0121801Y0164598D01*
X0123646Y0162201D02*
X0119554Y0162201D01*
X0113646Y0162201D02*
X0109732Y0162201D01*
X0110949Y0163399D02*
X0112447Y0163399D01*
X0111801Y0164598D02*
X0111627Y0164598D01*
X0111238Y0169392D02*
X0112128Y0169392D01*
X0112523Y0170590D02*
X0110247Y0170590D01*
X0111324Y0171789D02*
X0108106Y0171789D01*
X0106984Y0171789D02*
X0106216Y0171789D01*
X0106216Y0172000D02*
X0106175Y0172000D01*
X0105335Y0171867D01*
X0104527Y0171604D01*
X0103770Y0171218D01*
X0103082Y0170719D01*
X0102481Y0170118D01*
X0101982Y0169430D01*
X0101600Y0168681D01*
X0101218Y0169430D01*
X0100719Y0170118D01*
X0100118Y0170719D01*
X0099430Y0171218D01*
X0098673Y0171604D01*
X0097865Y0171867D01*
X0097025Y0172000D01*
X0096984Y0172000D01*
X0096984Y0166984D01*
X0102000Y0166984D01*
X0106216Y0166984D01*
X0106216Y0172000D01*
X0105094Y0171789D02*
X0098106Y0171789D01*
X0096984Y0171789D02*
X0096216Y0171789D01*
X0096216Y0172000D02*
X0096175Y0172000D01*
X0095335Y0171867D01*
X0094527Y0171604D01*
X0093770Y0171218D01*
X0093082Y0170719D01*
X0092481Y0170118D01*
X0091982Y0169430D01*
X0091600Y0168681D01*
X0091218Y0169430D01*
X0090719Y0170118D01*
X0090118Y0170719D01*
X0089430Y0171218D01*
X0088673Y0171604D01*
X0087865Y0171867D01*
X0087025Y0172000D01*
X0086984Y0172000D01*
X0086984Y0166984D01*
X0092000Y0166984D01*
X0096216Y0166984D01*
X0096216Y0166216D01*
X0086984Y0166216D01*
X0086984Y0161200D01*
X0087025Y0161200D01*
X0087865Y0161333D01*
X0088673Y0161596D01*
X0089430Y0161982D01*
X0090118Y0162481D01*
X0090719Y0163082D01*
X0091218Y0163770D01*
X0091600Y0164519D01*
X0091982Y0163770D01*
X0092481Y0163082D01*
X0093082Y0162481D01*
X0093770Y0161982D01*
X0094527Y0161596D01*
X0095335Y0161333D01*
X0096175Y0161200D01*
X0096216Y0161200D01*
X0096216Y0166216D01*
X0096984Y0166216D01*
X0096984Y0166984D01*
X0096216Y0166984D01*
X0096216Y0172000D01*
X0095094Y0171789D02*
X0088106Y0171789D01*
X0086984Y0171789D02*
X0086216Y0171789D01*
X0086216Y0172000D02*
X0086175Y0172000D01*
X0085335Y0171867D01*
X0084527Y0171604D01*
X0083770Y0171218D01*
X0083082Y0170719D01*
X0082481Y0170118D01*
X0081982Y0169430D01*
X0081596Y0168673D01*
X0081496Y0168367D01*
X0081008Y0169546D01*
X0079546Y0171008D01*
X0077634Y0171800D01*
X0075566Y0171800D01*
X0073654Y0171008D01*
X0072192Y0169546D01*
X0071600Y0168117D01*
X0071008Y0169546D01*
X0069546Y0171008D01*
X0067634Y0171800D01*
X0065566Y0171800D01*
X0063654Y0171008D01*
X0062192Y0169546D01*
X0061600Y0168117D01*
X0061008Y0169546D01*
X0059546Y0171008D01*
X0057634Y0171800D01*
X0055566Y0171800D01*
X0053654Y0171008D01*
X0052192Y0169546D01*
X0051600Y0168117D01*
X0051008Y0169546D01*
X0049546Y0171008D01*
X0047634Y0171800D01*
X0045566Y0171800D01*
X0043654Y0171008D01*
X0042192Y0169546D01*
X0041400Y0167634D01*
X0041400Y0165566D01*
X0042192Y0163654D01*
X0043654Y0162192D01*
X0045566Y0161400D01*
X0047634Y0161400D01*
X0049546Y0162192D01*
X0051008Y0163654D01*
X0051600Y0165083D01*
X0052192Y0163654D01*
X0053654Y0162192D01*
X0055566Y0161400D01*
X0057634Y0161400D01*
X0059546Y0162192D01*
X0061008Y0163654D01*
X0061600Y0165083D01*
X0062192Y0163654D01*
X0063654Y0162192D01*
X0065566Y0161400D01*
X0067634Y0161400D01*
X0069546Y0162192D01*
X0071008Y0163654D01*
X0071600Y0165083D01*
X0072192Y0163654D01*
X0073654Y0162192D01*
X0075566Y0161400D01*
X0077634Y0161400D01*
X0079546Y0162192D01*
X0081008Y0163654D01*
X0081496Y0164833D01*
X0081596Y0164527D01*
X0081982Y0163770D01*
X0082481Y0163082D01*
X0083082Y0162481D01*
X0083770Y0161982D01*
X0084527Y0161596D01*
X0085335Y0161333D01*
X0086175Y0161200D01*
X0086216Y0161200D01*
X0086216Y0166216D01*
X0086984Y0166216D01*
X0086984Y0166984D01*
X0086216Y0166984D01*
X0086216Y0172000D01*
X0085094Y0171789D02*
X0077662Y0171789D01*
X0075538Y0171789D02*
X0067662Y0171789D01*
X0065538Y0171789D02*
X0057662Y0171789D01*
X0055538Y0171789D02*
X0047662Y0171789D01*
X0045538Y0171789D02*
X0006200Y0171789D01*
X0006200Y0172987D02*
X0110126Y0172987D01*
X0108927Y0174186D02*
X0006200Y0174186D01*
X0006200Y0175384D02*
X0107729Y0175384D01*
X0106530Y0176583D02*
X0006200Y0176583D01*
X0006200Y0177781D02*
X0105332Y0177781D01*
X0104133Y0178980D02*
X0006200Y0178980D01*
X0006200Y0180178D02*
X0102935Y0180178D01*
X0101736Y0181377D02*
X0006200Y0181377D01*
X0006200Y0182575D02*
X0100538Y0182575D01*
X0099339Y0183774D02*
X0006200Y0183774D01*
X0006200Y0184972D02*
X0098141Y0184972D01*
X0096942Y0186171D02*
X0006200Y0186171D01*
X0006200Y0187369D02*
X0095744Y0187369D01*
X0094545Y0188568D02*
X0006200Y0188568D01*
X0006200Y0189766D02*
X0093347Y0189766D01*
X0092148Y0190965D02*
X0006200Y0190965D01*
X0006200Y0192163D02*
X0073984Y0192163D01*
X0072626Y0193362D02*
X0006200Y0193362D01*
X0006200Y0194560D02*
X0071925Y0194560D01*
X0071500Y0195759D02*
X0006200Y0195759D01*
X0006200Y0196957D02*
X0064481Y0196957D01*
X0062832Y0198156D02*
X0037378Y0198156D01*
X0038432Y0199354D02*
X0062010Y0199354D01*
X0062135Y0204148D02*
X0038274Y0204148D01*
X0037052Y0205347D02*
X0063134Y0205347D01*
X0065212Y0206545D02*
X0006200Y0206545D01*
X0006200Y0205347D02*
X0026148Y0205347D01*
X0024926Y0204148D02*
X0006200Y0204148D01*
X0006200Y0202950D02*
X0024397Y0202950D01*
X0024200Y0201751D02*
X0006200Y0201751D01*
X0006200Y0200553D02*
X0024271Y0200553D01*
X0024768Y0199354D02*
X0006200Y0199354D01*
X0006200Y0198156D02*
X0025822Y0198156D01*
X0026412Y0207744D02*
X0006200Y0207744D01*
X0006200Y0208942D02*
X0025035Y0208942D01*
X0024442Y0210141D02*
X0006200Y0210141D01*
X0006200Y0211339D02*
X0024200Y0211339D01*
X0024226Y0212538D02*
X0006200Y0212538D01*
X0006200Y0213737D02*
X0024722Y0213737D01*
X0025712Y0214935D02*
X0006200Y0214935D01*
X0006200Y0216134D02*
X0064218Y0216134D01*
X0063655Y0217332D02*
X0035794Y0217332D01*
X0037753Y0218531D02*
X0062457Y0218531D01*
X0061855Y0219729D02*
X0038588Y0219729D01*
X0038368Y0224000D02*
X0038330Y0224092D01*
X0037092Y0225330D01*
X0035475Y0226000D01*
X0030087Y0226000D01*
X0028887Y0227200D01*
X0035475Y0227200D01*
X0037092Y0227870D01*
X0038330Y0229108D01*
X0038741Y0230100D01*
X0061701Y0230100D01*
X0062276Y0228711D01*
X0063711Y0227276D01*
X0065344Y0226600D01*
X0063711Y0225924D01*
X0062276Y0224489D01*
X0062074Y0224000D01*
X0038368Y0224000D01*
X0037899Y0224523D02*
X0062311Y0224523D01*
X0063509Y0225722D02*
X0036147Y0225722D01*
X0037341Y0228119D02*
X0062869Y0228119D01*
X0062025Y0229317D02*
X0038417Y0229317D01*
X0038410Y0233900D02*
X0038330Y0234092D01*
X0037092Y0235330D01*
X0035475Y0236000D01*
X0027725Y0236000D01*
X0026108Y0235330D01*
X0026000Y0235223D01*
X0026000Y0237977D01*
X0026108Y0237870D01*
X0027725Y0237200D01*
X0035475Y0237200D01*
X0037092Y0237870D01*
X0038330Y0239108D01*
X0038700Y0240000D01*
X0061743Y0240000D01*
X0062276Y0238711D01*
X0063711Y0237276D01*
X0065344Y0236600D01*
X0063711Y0235924D01*
X0062276Y0234489D01*
X0062032Y0233900D01*
X0038410Y0233900D01*
X0038311Y0234111D02*
X0062120Y0234111D01*
X0063097Y0235310D02*
X0037113Y0235310D01*
X0036699Y0237707D02*
X0063281Y0237707D01*
X0062196Y0238905D02*
X0038128Y0238905D01*
X0038451Y0243800D02*
X0038330Y0244092D01*
X0037092Y0245330D01*
X0035475Y0246000D01*
X0027725Y0246000D01*
X0026108Y0245330D01*
X0026000Y0245223D01*
X0026000Y0247803D01*
X0026189Y0247666D01*
X0026834Y0247337D01*
X0027523Y0247113D01*
X0028238Y0247000D01*
X0031200Y0247000D01*
X0031200Y0251200D01*
X0032000Y0251200D01*
X0032000Y0252000D01*
X0031200Y0252000D01*
X0031200Y0256200D01*
X0029387Y0256200D01*
X0035900Y0262713D01*
X0035900Y0274100D01*
X0035980Y0274100D01*
X0036600Y0274720D01*
X0037220Y0274100D01*
X0039613Y0274100D01*
X0057300Y0256413D01*
X0058413Y0255300D01*
X0062805Y0255300D01*
X0062557Y0255053D01*
X0062067Y0254378D01*
X0061688Y0253634D01*
X0061430Y0252841D01*
X0061300Y0252017D01*
X0061300Y0252000D01*
X0066200Y0252000D01*
X0066200Y0251200D01*
X0061300Y0251200D01*
X0061300Y0251183D01*
X0061430Y0250359D01*
X0061688Y0249566D01*
X0062067Y0248822D01*
X0062557Y0248147D01*
X0063147Y0247557D01*
X0063822Y0247067D01*
X0064566Y0246688D01*
X0065121Y0246508D01*
X0063711Y0245924D01*
X0062276Y0244489D01*
X0061991Y0243800D01*
X0038451Y0243800D01*
X0037525Y0244898D02*
X0062685Y0244898D01*
X0064128Y0246096D02*
X0026000Y0246096D01*
X0026000Y0247295D02*
X0026964Y0247295D01*
X0031200Y0247295D02*
X0032000Y0247295D01*
X0032000Y0247000D02*
X0034962Y0247000D01*
X0035677Y0247113D01*
X0036366Y0247337D01*
X0037011Y0247666D01*
X0037597Y0248091D01*
X0038109Y0248603D01*
X0038534Y0249189D01*
X0038863Y0249834D01*
X0039087Y0250523D01*
X0039194Y0251200D01*
X0032000Y0251200D01*
X0032000Y0247000D01*
X0032000Y0248493D02*
X0031200Y0248493D01*
X0031200Y0249692D02*
X0032000Y0249692D01*
X0032000Y0250890D02*
X0031200Y0250890D01*
X0031200Y0252089D02*
X0032000Y0252089D01*
X0032000Y0252000D02*
X0032000Y0256200D01*
X0034962Y0256200D01*
X0035677Y0256087D01*
X0036366Y0255863D01*
X0037011Y0255534D01*
X0037597Y0255109D01*
X0038109Y0254597D01*
X0038534Y0254011D01*
X0038863Y0253366D01*
X0039087Y0252677D01*
X0039194Y0252000D01*
X0032000Y0252000D01*
X0032000Y0253287D02*
X0031200Y0253287D01*
X0031200Y0254486D02*
X0032000Y0254486D01*
X0032000Y0255684D02*
X0031200Y0255684D01*
X0030070Y0256883D02*
X0056830Y0256883D01*
X0055632Y0258081D02*
X0031268Y0258081D01*
X0032467Y0259280D02*
X0054433Y0259280D01*
X0053235Y0260478D02*
X0033665Y0260478D01*
X0034864Y0261677D02*
X0052036Y0261677D01*
X0050838Y0262875D02*
X0035900Y0262875D01*
X0035900Y0264074D02*
X0049639Y0264074D01*
X0048441Y0265272D02*
X0035900Y0265272D01*
X0035900Y0266471D02*
X0047242Y0266471D01*
X0046043Y0267670D02*
X0035900Y0267670D01*
X0035900Y0268868D02*
X0044845Y0268868D01*
X0043646Y0270067D02*
X0035900Y0270067D01*
X0035900Y0271265D02*
X0042448Y0271265D01*
X0041249Y0272464D02*
X0035900Y0272464D01*
X0035900Y0273662D02*
X0040051Y0273662D01*
X0044150Y0279450D02*
X0044150Y0279550D01*
X0047000Y0279550D01*
X0047000Y0283200D01*
X0071013Y0283200D01*
X0073500Y0280713D01*
X0074613Y0279600D01*
X0112600Y0279600D01*
X0112600Y0278204D01*
X0113209Y0276734D01*
X0114334Y0275609D01*
X0115804Y0275000D01*
X0116613Y0275000D01*
X0105213Y0263600D01*
X0093513Y0263600D01*
X0090813Y0260900D01*
X0090304Y0260391D01*
X0090053Y0260643D01*
X0089378Y0261133D01*
X0088634Y0261512D01*
X0087841Y0261769D01*
X0087017Y0261900D01*
X0087000Y0261900D01*
X0087000Y0257000D01*
X0086200Y0257000D01*
X0086200Y0261900D01*
X0086183Y0261900D01*
X0085359Y0261769D01*
X0084566Y0261512D01*
X0083822Y0261133D01*
X0083147Y0260643D01*
X0082557Y0260053D01*
X0082067Y0259378D01*
X0081688Y0258634D01*
X0081508Y0258079D01*
X0080924Y0259489D01*
X0079489Y0260924D01*
X0077614Y0261700D01*
X0075586Y0261700D01*
X0073711Y0260924D01*
X0072276Y0259489D01*
X0071500Y0257614D01*
X0071500Y0256587D01*
X0068987Y0259100D01*
X0059987Y0259100D01*
X0045187Y0273900D01*
X0045611Y0273900D01*
X0046018Y0274009D01*
X0046382Y0274220D01*
X0046680Y0274518D01*
X0046891Y0274882D01*
X0047000Y0275289D01*
X0047000Y0279450D01*
X0044150Y0279450D01*
X0047000Y0279655D02*
X0074558Y0279655D01*
X0073360Y0280853D02*
X0047000Y0280853D01*
X0047000Y0282052D02*
X0072161Y0282052D01*
X0073901Y0288800D02*
X0049187Y0288800D01*
X0043087Y0294900D01*
X0081587Y0294900D01*
X0083934Y0297247D01*
X0085760Y0297247D01*
X0084300Y0295787D01*
X0084300Y0290953D01*
X0082201Y0290953D01*
X0081600Y0290352D01*
X0080999Y0290953D01*
X0074721Y0290953D01*
X0073901Y0290133D01*
X0073901Y0288800D01*
X0073901Y0289243D02*
X0048744Y0289243D01*
X0047546Y0290441D02*
X0074209Y0290441D01*
X0081510Y0290441D02*
X0081690Y0290441D01*
X0084300Y0291640D02*
X0046347Y0291640D01*
X0045149Y0292838D02*
X0084300Y0292838D01*
X0084300Y0294037D02*
X0043950Y0294037D01*
X0040973Y0291640D02*
X0006200Y0291640D01*
X0006200Y0292838D02*
X0039775Y0292838D01*
X0038576Y0294037D02*
X0006200Y0294037D01*
X0006200Y0295235D02*
X0037378Y0295235D01*
X0036179Y0296434D02*
X0006200Y0296434D01*
X0006200Y0297632D02*
X0034981Y0297632D01*
X0031689Y0298831D02*
X0031511Y0298831D01*
X0026689Y0298831D02*
X0006200Y0298831D01*
X0006200Y0300029D02*
X0026400Y0300029D01*
X0026400Y0301228D02*
X0006200Y0301228D01*
X0006200Y0302426D02*
X0026400Y0302426D01*
X0026400Y0303625D02*
X0006200Y0303625D01*
X0006200Y0304823D02*
X0026400Y0304823D01*
X0026400Y0306022D02*
X0006200Y0306022D01*
X0006200Y0307220D02*
X0026400Y0307220D01*
X0026539Y0308419D02*
X0006200Y0308419D01*
X0006200Y0309617D02*
X0027600Y0309617D01*
X0027600Y0310816D02*
X0006200Y0310816D01*
X0006200Y0312014D02*
X0027600Y0312014D01*
X0027926Y0313213D02*
X0006200Y0313213D01*
X0006200Y0314411D02*
X0029124Y0314411D01*
X0030323Y0315610D02*
X0006200Y0315610D01*
X0006200Y0316808D02*
X0031521Y0316808D01*
X0032720Y0318007D02*
X0006200Y0318007D01*
X0006200Y0319205D02*
X0033919Y0319205D01*
X0035117Y0320404D02*
X0006200Y0320404D01*
X0006200Y0321603D02*
X0036316Y0321603D01*
X0037514Y0322801D02*
X0006200Y0322801D01*
X0006200Y0324000D02*
X0038713Y0324000D01*
X0037973Y0325198D02*
X0006200Y0325198D01*
X0006200Y0326397D02*
X0035401Y0326397D01*
X0034203Y0327595D02*
X0006200Y0327595D01*
X0006200Y0328794D02*
X0033387Y0328794D01*
X0032890Y0329992D02*
X0006200Y0329992D01*
X0006200Y0331191D02*
X0032590Y0331191D01*
X0032590Y0332389D02*
X0006200Y0332389D01*
X0006200Y0333588D02*
X0032623Y0333588D01*
X0033120Y0334786D02*
X0006200Y0334786D01*
X0006200Y0335985D02*
X0033616Y0335985D01*
X0034757Y0337183D02*
X0006200Y0337183D01*
X0006200Y0338382D02*
X0036418Y0338382D01*
X0042782Y0338382D02*
X0047400Y0338382D01*
X0047400Y0337183D02*
X0044443Y0337183D01*
X0045584Y0335985D02*
X0047400Y0335985D01*
X0047400Y0334786D02*
X0046080Y0334786D01*
X0046577Y0333588D02*
X0047400Y0333588D01*
X0047102Y0332389D02*
X0046610Y0332389D01*
X0047682Y0327595D02*
X0052331Y0327595D01*
X0052422Y0327549D02*
X0053076Y0327336D01*
X0053657Y0327244D01*
X0037713Y0311300D01*
X0036813Y0311300D01*
X0035700Y0310187D01*
X0035700Y0310187D01*
X0034613Y0309100D01*
X0032220Y0309100D01*
X0031600Y0308480D01*
X0031400Y0308680D01*
X0031400Y0311313D01*
X0050039Y0329952D01*
X0050049Y0329922D01*
X0050361Y0329309D01*
X0050765Y0328752D01*
X0051252Y0328265D01*
X0051809Y0327861D01*
X0052422Y0327549D01*
X0052810Y0326397D02*
X0046484Y0326397D01*
X0045285Y0325198D02*
X0051611Y0325198D01*
X0050413Y0324000D02*
X0044087Y0324000D01*
X0042888Y0322801D02*
X0049214Y0322801D01*
X0048016Y0321603D02*
X0041690Y0321603D01*
X0040491Y0320404D02*
X0046817Y0320404D01*
X0045619Y0319205D02*
X0039292Y0319205D01*
X0038094Y0318007D02*
X0044420Y0318007D01*
X0043221Y0316808D02*
X0036895Y0316808D01*
X0035697Y0315610D02*
X0042023Y0315610D01*
X0040824Y0314411D02*
X0034498Y0314411D01*
X0033300Y0313213D02*
X0039626Y0313213D01*
X0038427Y0312014D02*
X0032101Y0312014D01*
X0031400Y0310816D02*
X0036329Y0310816D01*
X0035130Y0309617D02*
X0031400Y0309617D01*
X0040887Y0309100D02*
X0060794Y0329007D01*
X0061737Y0328063D01*
X0063270Y0327428D01*
X0064930Y0327428D01*
X0066463Y0328063D01*
X0067200Y0328800D01*
X0067200Y0304100D01*
X0046800Y0304100D01*
X0046800Y0308280D01*
X0045980Y0309100D01*
X0042220Y0309100D01*
X0041600Y0308480D01*
X0040980Y0309100D01*
X0040887Y0309100D01*
X0041404Y0309617D02*
X0067200Y0309617D01*
X0067200Y0308419D02*
X0046661Y0308419D01*
X0046800Y0307220D02*
X0067200Y0307220D01*
X0067200Y0306022D02*
X0046800Y0306022D01*
X0046800Y0304823D02*
X0067200Y0304823D01*
X0071000Y0304823D02*
X0073901Y0304823D01*
X0073901Y0305133D02*
X0073901Y0304100D01*
X0071000Y0304100D01*
X0071000Y0328800D01*
X0071737Y0328063D01*
X0073270Y0327428D01*
X0074930Y0327428D01*
X0075251Y0327562D01*
X0083400Y0319413D01*
X0083400Y0305953D01*
X0082201Y0305953D01*
X0081600Y0305352D01*
X0080999Y0305953D01*
X0074721Y0305953D01*
X0073901Y0305133D01*
X0071000Y0306022D02*
X0083400Y0306022D01*
X0083400Y0307220D02*
X0071000Y0307220D01*
X0071000Y0308419D02*
X0083400Y0308419D01*
X0083400Y0309617D02*
X0071000Y0309617D01*
X0071000Y0310816D02*
X0083400Y0310816D01*
X0083400Y0312014D02*
X0071000Y0312014D01*
X0071000Y0313213D02*
X0083400Y0313213D01*
X0083400Y0314411D02*
X0071000Y0314411D01*
X0071000Y0315610D02*
X0083400Y0315610D01*
X0083400Y0316808D02*
X0071000Y0316808D01*
X0071000Y0318007D02*
X0083400Y0318007D01*
X0083400Y0319205D02*
X0071000Y0319205D01*
X0071000Y0320404D02*
X0082409Y0320404D01*
X0081210Y0321603D02*
X0071000Y0321603D01*
X0071000Y0322801D02*
X0080012Y0322801D01*
X0078813Y0324000D02*
X0071000Y0324000D01*
X0071000Y0325198D02*
X0077615Y0325198D01*
X0076416Y0326397D02*
X0071000Y0326397D01*
X0071000Y0327595D02*
X0072868Y0327595D01*
X0071007Y0328794D02*
X0071000Y0328794D01*
X0067200Y0328794D02*
X0067193Y0328794D01*
X0067200Y0327595D02*
X0065332Y0327595D01*
X0067200Y0326397D02*
X0058184Y0326397D01*
X0059382Y0327595D02*
X0062868Y0327595D01*
X0061007Y0328794D02*
X0060581Y0328794D01*
X0058456Y0332043D02*
X0058364Y0332624D01*
X0058151Y0333278D01*
X0057839Y0333891D01*
X0057434Y0334448D01*
X0056948Y0334934D01*
X0056391Y0335339D01*
X0055778Y0335651D01*
X0055124Y0335864D01*
X0054444Y0335972D01*
X0054386Y0335972D01*
X0054386Y0331886D01*
X0053814Y0331886D01*
X0053814Y0335972D01*
X0053756Y0335972D01*
X0053076Y0335864D01*
X0052422Y0335651D01*
X0051809Y0335339D01*
X0051252Y0334934D01*
X0051200Y0334882D01*
X0051200Y0337413D01*
X0054928Y0341141D01*
X0054928Y0340770D01*
X0055563Y0339237D01*
X0056737Y0338063D01*
X0058270Y0337428D01*
X0059930Y0337428D01*
X0061463Y0338063D01*
X0062637Y0339237D01*
X0063272Y0340770D01*
X0063272Y0342430D01*
X0062637Y0343963D01*
X0062200Y0344400D01*
X0066000Y0344400D01*
X0065563Y0343963D01*
X0064928Y0342430D01*
X0064928Y0340770D01*
X0065563Y0339237D01*
X0066737Y0338063D01*
X0067200Y0337872D01*
X0067200Y0334400D01*
X0066463Y0335137D01*
X0064930Y0335772D01*
X0063270Y0335772D01*
X0061737Y0335137D01*
X0060563Y0333963D01*
X0060123Y0332900D01*
X0059313Y0332900D01*
X0058456Y0332043D01*
X0058401Y0332389D02*
X0058802Y0332389D01*
X0057994Y0333588D02*
X0060408Y0333588D01*
X0061387Y0334786D02*
X0057096Y0334786D01*
X0056419Y0338382D02*
X0052169Y0338382D01*
X0051200Y0337183D02*
X0067200Y0337183D01*
X0067200Y0335985D02*
X0051200Y0335985D01*
X0053814Y0334786D02*
X0054386Y0334786D01*
X0054386Y0333588D02*
X0053814Y0333588D01*
X0053814Y0332389D02*
X0054386Y0332389D01*
X0050735Y0328794D02*
X0048881Y0328794D01*
X0054588Y0322801D02*
X0067200Y0322801D01*
X0067200Y0321603D02*
X0053390Y0321603D01*
X0052191Y0320404D02*
X0067200Y0320404D01*
X0067200Y0319205D02*
X0050992Y0319205D01*
X0049794Y0318007D02*
X0067200Y0318007D01*
X0067200Y0316808D02*
X0048595Y0316808D01*
X0047397Y0315610D02*
X0067200Y0315610D01*
X0067200Y0314411D02*
X0046198Y0314411D01*
X0045000Y0313213D02*
X0067200Y0313213D01*
X0067200Y0312014D02*
X0043801Y0312014D01*
X0042603Y0310816D02*
X0067200Y0310816D01*
X0067200Y0324000D02*
X0055787Y0324000D01*
X0056985Y0325198D02*
X0067200Y0325198D01*
X0067200Y0334786D02*
X0066813Y0334786D01*
X0066419Y0338382D02*
X0061781Y0338382D01*
X0062779Y0339580D02*
X0065421Y0339580D01*
X0064928Y0340779D02*
X0063272Y0340779D01*
X0063272Y0341977D02*
X0064928Y0341977D01*
X0065237Y0343176D02*
X0062963Y0343176D01*
X0062225Y0344374D02*
X0065975Y0344374D01*
X0071000Y0337872D02*
X0071463Y0338063D01*
X0072637Y0339237D01*
X0073272Y0340770D01*
X0073272Y0342430D01*
X0072637Y0343963D01*
X0072200Y0344400D01*
X0073713Y0344400D01*
X0075149Y0342964D01*
X0074928Y0342430D01*
X0074928Y0340770D01*
X0075563Y0339237D01*
X0076737Y0338063D01*
X0078270Y0337428D01*
X0079930Y0337428D01*
X0081100Y0337913D01*
X0083139Y0335874D01*
X0083076Y0335864D01*
X0082422Y0335651D01*
X0081809Y0335339D01*
X0081252Y0334934D01*
X0080765Y0334448D01*
X0080361Y0333891D01*
X0080049Y0333278D01*
X0079836Y0332624D01*
X0079728Y0331944D01*
X0079728Y0331886D01*
X0083814Y0331886D01*
X0083814Y0331314D01*
X0084386Y0331314D01*
X0084386Y0327228D01*
X0084444Y0327228D01*
X0085124Y0327336D01*
X0085778Y0327549D01*
X0086391Y0327861D01*
X0086948Y0328265D01*
X0087434Y0328752D01*
X0087839Y0329309D01*
X0087900Y0329429D01*
X0087900Y0305953D01*
X0087200Y0305953D01*
X0087200Y0320987D01*
X0078021Y0330166D01*
X0078272Y0330770D01*
X0078272Y0332430D01*
X0077637Y0333963D01*
X0076463Y0335137D01*
X0074930Y0335772D01*
X0073270Y0335772D01*
X0071737Y0335137D01*
X0071000Y0334400D01*
X0071000Y0337872D01*
X0071000Y0337183D02*
X0081830Y0337183D01*
X0083028Y0335985D02*
X0071000Y0335985D01*
X0071000Y0334786D02*
X0071387Y0334786D01*
X0071781Y0338382D02*
X0076419Y0338382D01*
X0075421Y0339580D02*
X0072779Y0339580D01*
X0073272Y0340779D02*
X0074928Y0340779D01*
X0074928Y0341977D02*
X0073272Y0341977D01*
X0072963Y0343176D02*
X0074937Y0343176D01*
X0073739Y0344374D02*
X0072225Y0344374D01*
X0075517Y0347970D02*
X0150000Y0347970D01*
X0150000Y0349168D02*
X0006200Y0349168D01*
X0006200Y0347970D02*
X0056383Y0347970D01*
X0055184Y0346771D02*
X0006200Y0346771D01*
X0006200Y0345573D02*
X0053986Y0345573D01*
X0052787Y0344374D02*
X0006200Y0344374D01*
X0006200Y0343176D02*
X0051589Y0343176D01*
X0050390Y0341977D02*
X0006200Y0341977D01*
X0006200Y0340779D02*
X0049192Y0340779D01*
X0047993Y0339580D02*
X0006200Y0339580D01*
X0006200Y0350367D02*
X0150000Y0350367D01*
X0150000Y0351565D02*
X0006200Y0351565D01*
X0006200Y0352764D02*
X0150000Y0352764D01*
X0150000Y0353962D02*
X0006200Y0353962D01*
X0006200Y0355161D02*
X0150000Y0355161D01*
X0150000Y0356359D02*
X0098363Y0356359D01*
X0100439Y0357558D02*
X0150000Y0357558D01*
X0150000Y0358756D02*
X0101813Y0358756D01*
X0102965Y0359955D02*
X0150000Y0359955D01*
X0150000Y0361153D02*
X0103657Y0361153D01*
X0104349Y0362352D02*
X0135461Y0362352D01*
X0135512Y0362335D02*
X0134689Y0362603D01*
X0133917Y0362996D01*
X0133217Y0363505D01*
X0132605Y0364117D01*
X0132096Y0364817D01*
X0131703Y0365589D01*
X0131435Y0366412D01*
X0131300Y0367267D01*
X0131300Y0371000D01*
X0136200Y0371000D01*
X0136200Y0372200D01*
X0136200Y0380974D01*
X0135512Y0380865D01*
X0134689Y0380597D01*
X0133917Y0380204D01*
X0133217Y0379695D01*
X0132605Y0379083D01*
X0132096Y0378383D01*
X0131703Y0377611D01*
X0131435Y0376788D01*
X0131300Y0375933D01*
X0131300Y0372200D01*
X0136200Y0372200D01*
X0137400Y0372200D01*
X0137400Y0380974D01*
X0138088Y0380865D01*
X0138911Y0380597D01*
X0139683Y0380204D01*
X0140383Y0379695D01*
X0140995Y0379083D01*
X0141504Y0378383D01*
X0141897Y0377611D01*
X0142165Y0376788D01*
X0142300Y0375933D01*
X0142300Y0372200D01*
X0137400Y0372200D01*
X0137400Y0371000D01*
X0142300Y0371000D01*
X0142300Y0367267D01*
X0142165Y0366412D01*
X0141897Y0365589D01*
X0141504Y0364817D01*
X0140995Y0364117D01*
X0140383Y0363505D01*
X0139683Y0362996D01*
X0138911Y0362603D01*
X0138088Y0362335D01*
X0137400Y0362226D01*
X0137400Y0371000D01*
X0136200Y0371000D01*
X0136200Y0362226D01*
X0135512Y0362335D01*
X0136200Y0362352D02*
X0137400Y0362352D01*
X0138139Y0362352D02*
X0150000Y0362352D01*
X0150000Y0363550D02*
X0140429Y0363550D01*
X0141454Y0364749D02*
X0150000Y0364749D01*
X0150000Y0365947D02*
X0142014Y0365947D01*
X0142281Y0367146D02*
X0150000Y0367146D01*
X0150000Y0367787D02*
X0150000Y0316666D01*
X0149804Y0316936D01*
X0149336Y0317404D01*
X0148801Y0317792D01*
X0148212Y0318092D01*
X0147584Y0318297D01*
X0146931Y0318400D01*
X0146800Y0318400D01*
X0146800Y0311800D01*
X0146400Y0311800D01*
X0146400Y0318400D01*
X0146269Y0318400D01*
X0145616Y0318297D01*
X0144988Y0318092D01*
X0144399Y0317792D01*
X0143864Y0317404D01*
X0143396Y0316936D01*
X0143008Y0316401D01*
X0142708Y0315812D01*
X0142503Y0315184D01*
X0142400Y0314531D01*
X0142400Y0311800D01*
X0146400Y0311800D01*
X0146400Y0311400D01*
X0142400Y0311400D01*
X0142400Y0308669D01*
X0142503Y0308016D01*
X0142708Y0307388D01*
X0143008Y0306799D01*
X0143396Y0306264D01*
X0143864Y0305796D01*
X0144399Y0305408D01*
X0144988Y0305108D01*
X0145616Y0304903D01*
X0134700Y0293987D01*
X0134700Y0287743D01*
X0134334Y0287591D01*
X0133209Y0286466D01*
X0132600Y0284996D01*
X0132600Y0278204D01*
X0133209Y0276734D01*
X0134334Y0275609D01*
X0135804Y0275000D01*
X0137396Y0275000D01*
X0138866Y0275609D01*
X0139991Y0276734D01*
X0140600Y0278204D01*
X0140600Y0284996D01*
X0139991Y0286466D01*
X0138866Y0287591D01*
X0138500Y0287743D01*
X0138500Y0292413D01*
X0152687Y0306600D01*
X0152967Y0306880D01*
X0153008Y0306799D01*
X0153396Y0306264D01*
X0153864Y0305796D01*
X0154399Y0305408D01*
X0154988Y0305108D01*
X0155616Y0304903D01*
X0156269Y0304800D01*
X0156400Y0304800D01*
X0156400Y0311400D01*
X0156800Y0311400D01*
X0156800Y0311800D01*
X0156400Y0311800D01*
X0156400Y0318400D01*
X0156269Y0318400D01*
X0155616Y0318297D01*
X0154988Y0318092D01*
X0154399Y0317792D01*
X0153864Y0317404D01*
X0153800Y0317340D01*
X0153800Y0363082D01*
X0155446Y0362400D01*
X0157554Y0362400D01*
X0159502Y0363207D01*
X0160993Y0364698D01*
X0161800Y0366646D01*
X0161800Y0376554D01*
X0160993Y0378502D01*
X0159502Y0379993D01*
X0157554Y0380800D01*
X0155446Y0380800D01*
X0153498Y0379993D01*
X0152007Y0378502D01*
X0151200Y0376554D01*
X0151200Y0368987D01*
X0150000Y0367787D01*
X0150557Y0368344D02*
X0142300Y0368344D01*
X0142300Y0369543D02*
X0151200Y0369543D01*
X0151200Y0370741D02*
X0142300Y0370741D01*
X0142300Y0373139D02*
X0151200Y0373139D01*
X0151200Y0374337D02*
X0142300Y0374337D01*
X0142300Y0375536D02*
X0151200Y0375536D01*
X0151274Y0376734D02*
X0142173Y0376734D01*
X0141733Y0377933D02*
X0151771Y0377933D01*
X0152636Y0379131D02*
X0140947Y0379131D01*
X0139436Y0380330D02*
X0154310Y0380330D01*
X0151200Y0371940D02*
X0137400Y0371940D01*
X0137400Y0373139D02*
X0136200Y0373139D01*
X0136200Y0374337D02*
X0137400Y0374337D01*
X0137400Y0375536D02*
X0136200Y0375536D01*
X0136200Y0376734D02*
X0137400Y0376734D01*
X0137400Y0377933D02*
X0136200Y0377933D01*
X0136200Y0379131D02*
X0137400Y0379131D01*
X0137400Y0380330D02*
X0136200Y0380330D01*
X0134164Y0380330D02*
X0110471Y0380330D01*
X0110610Y0379131D02*
X0132653Y0379131D01*
X0131867Y0377933D02*
X0110610Y0377933D01*
X0110415Y0376734D02*
X0131427Y0376734D01*
X0131300Y0375536D02*
X0109918Y0375536D01*
X0109251Y0374337D02*
X0131300Y0374337D01*
X0131300Y0373139D02*
X0108052Y0373139D01*
X0105840Y0371940D02*
X0136200Y0371940D01*
X0136200Y0370741D02*
X0137400Y0370741D01*
X0137400Y0369543D02*
X0136200Y0369543D01*
X0136200Y0368344D02*
X0137400Y0368344D01*
X0137400Y0367146D02*
X0136200Y0367146D01*
X0136200Y0365947D02*
X0137400Y0365947D01*
X0137400Y0364749D02*
X0136200Y0364749D01*
X0136200Y0363550D02*
X0137400Y0363550D01*
X0133171Y0363550D02*
X0104671Y0363550D01*
X0104992Y0364749D02*
X0132146Y0364749D01*
X0131586Y0365947D02*
X0105100Y0365947D01*
X0105100Y0367146D02*
X0131319Y0367146D01*
X0131300Y0368344D02*
X0105021Y0368344D01*
X0104699Y0369543D02*
X0131300Y0369543D01*
X0131300Y0370741D02*
X0104378Y0370741D01*
X0109975Y0381528D02*
X0175591Y0381528D01*
X0175591Y0380330D02*
X0158690Y0380330D01*
X0160364Y0379131D02*
X0175750Y0379131D01*
X0176214Y0377933D02*
X0161229Y0377933D01*
X0161726Y0376734D02*
X0176679Y0376734D01*
X0177078Y0375704D02*
X0177078Y0375704D01*
X0177231Y0375536D02*
X0161800Y0375536D01*
X0161800Y0374337D02*
X0178324Y0374337D01*
X0179416Y0373139D02*
X0161800Y0373139D01*
X0161800Y0371940D02*
X0181301Y0371940D01*
X0183535Y0370828D02*
X0183535Y0370828D01*
X0184464Y0370741D02*
X0161800Y0370741D01*
X0161800Y0369543D02*
X0193850Y0369543D01*
X0193850Y0370741D02*
X0188666Y0370741D01*
X0192077Y0371940D02*
X0193850Y0371940D01*
X0193850Y0373139D02*
X0193664Y0373139D01*
X0193850Y0368344D02*
X0161800Y0368344D01*
X0161800Y0367146D02*
X0193850Y0367146D01*
X0193850Y0365947D02*
X0161511Y0365947D01*
X0161014Y0364749D02*
X0193850Y0364749D01*
X0193850Y0363550D02*
X0159846Y0363550D01*
X0153800Y0362352D02*
X0193850Y0362352D01*
X0193850Y0361153D02*
X0153800Y0361153D01*
X0153800Y0359955D02*
X0193850Y0359955D01*
X0193850Y0358756D02*
X0153800Y0358756D01*
X0153800Y0357558D02*
X0193850Y0357558D01*
X0193850Y0356359D02*
X0153800Y0356359D01*
X0153800Y0355161D02*
X0193850Y0355161D01*
X0193850Y0353962D02*
X0153800Y0353962D01*
X0153800Y0352764D02*
X0193850Y0352764D01*
X0193850Y0351565D02*
X0153800Y0351565D01*
X0153800Y0350367D02*
X0193850Y0350367D01*
X0193850Y0349168D02*
X0153800Y0349168D01*
X0153800Y0347970D02*
X0193850Y0347970D01*
X0193850Y0346771D02*
X0153800Y0346771D01*
X0153800Y0345573D02*
X0193850Y0345573D01*
X0193850Y0344374D02*
X0153800Y0344374D01*
X0153800Y0343176D02*
X0193850Y0343176D01*
X0193850Y0341977D02*
X0153800Y0341977D01*
X0153800Y0340779D02*
X0193850Y0340779D01*
X0193850Y0339580D02*
X0153800Y0339580D01*
X0153800Y0338382D02*
X0193850Y0338382D01*
X0193850Y0337183D02*
X0153800Y0337183D01*
X0153800Y0335985D02*
X0193850Y0335985D01*
X0193850Y0334786D02*
X0153800Y0334786D01*
X0153800Y0333588D02*
X0193850Y0333588D01*
X0193850Y0332389D02*
X0153800Y0332389D01*
X0153800Y0331191D02*
X0193850Y0331191D01*
X0193850Y0329992D02*
X0153800Y0329992D01*
X0153800Y0328794D02*
X0193850Y0328794D01*
X0193850Y0327595D02*
X0153800Y0327595D01*
X0153800Y0326397D02*
X0193850Y0326397D01*
X0193850Y0325198D02*
X0153800Y0325198D01*
X0153800Y0324000D02*
X0193850Y0324000D01*
X0193850Y0322801D02*
X0153800Y0322801D01*
X0153800Y0321603D02*
X0193850Y0321603D01*
X0193850Y0320404D02*
X0153800Y0320404D01*
X0153800Y0319205D02*
X0193850Y0319205D01*
X0193850Y0318007D02*
X0188380Y0318007D01*
X0188212Y0318092D02*
X0187584Y0318297D01*
X0186931Y0318400D01*
X0186800Y0318400D01*
X0186800Y0311800D01*
X0190800Y0311800D01*
X0190800Y0314531D01*
X0190697Y0315184D01*
X0190492Y0315812D01*
X0190192Y0316401D01*
X0189804Y0316936D01*
X0189336Y0317404D01*
X0188801Y0317792D01*
X0188212Y0318092D01*
X0186800Y0318007D02*
X0186400Y0318007D01*
X0186400Y0318400D02*
X0186269Y0318400D01*
X0185616Y0318297D01*
X0184988Y0318092D01*
X0184399Y0317792D01*
X0183864Y0317404D01*
X0183396Y0316936D01*
X0183008Y0316401D01*
X0182708Y0315812D01*
X0182503Y0315184D01*
X0182400Y0314531D01*
X0182400Y0311800D01*
X0186400Y0311800D01*
X0186400Y0318400D01*
X0186400Y0316808D02*
X0186800Y0316808D01*
X0186800Y0315610D02*
X0186400Y0315610D01*
X0186400Y0314411D02*
X0186800Y0314411D01*
X0186800Y0313213D02*
X0186400Y0313213D01*
X0186400Y0312014D02*
X0186800Y0312014D01*
X0186800Y0311800D02*
X0186400Y0311800D01*
X0186400Y0311400D01*
X0186800Y0311400D01*
X0186800Y0311800D01*
X0186800Y0311400D02*
X0190800Y0311400D01*
X0190800Y0308669D01*
X0190697Y0308016D01*
X0190492Y0307388D01*
X0190192Y0306799D01*
X0189804Y0306264D01*
X0189336Y0305796D01*
X0188801Y0305408D01*
X0188212Y0305108D01*
X0187584Y0304903D01*
X0186931Y0304800D01*
X0186800Y0304800D01*
X0186800Y0311400D01*
X0186400Y0311400D02*
X0186400Y0304800D01*
X0186269Y0304800D01*
X0185616Y0304903D01*
X0184988Y0305108D01*
X0184399Y0305408D01*
X0183864Y0305796D01*
X0183396Y0306264D01*
X0183008Y0306799D01*
X0182708Y0307388D01*
X0182503Y0308016D01*
X0182400Y0308669D01*
X0182400Y0311400D01*
X0186400Y0311400D01*
X0186400Y0310816D02*
X0186800Y0310816D01*
X0186800Y0309617D02*
X0186400Y0309617D01*
X0186400Y0308419D02*
X0186800Y0308419D01*
X0186800Y0307220D02*
X0186400Y0307220D01*
X0186400Y0306022D02*
X0186800Y0306022D01*
X0186800Y0304823D02*
X0186400Y0304823D01*
X0186122Y0304823D02*
X0177078Y0304823D01*
X0176931Y0304800D02*
X0177584Y0304903D01*
X0178212Y0305108D01*
X0178801Y0305408D01*
X0179336Y0305796D01*
X0179804Y0306264D01*
X0180192Y0306799D01*
X0180492Y0307388D01*
X0180697Y0308016D01*
X0180800Y0308669D01*
X0180800Y0311400D01*
X0176800Y0311400D01*
X0176800Y0311800D01*
X0180800Y0311800D01*
X0180800Y0314531D01*
X0180697Y0315184D01*
X0180492Y0315812D01*
X0180192Y0316401D01*
X0179804Y0316936D01*
X0179336Y0317404D01*
X0178801Y0317792D01*
X0178212Y0318092D01*
X0177584Y0318297D01*
X0176931Y0318400D01*
X0176800Y0318400D01*
X0176800Y0311800D01*
X0176400Y0311800D01*
X0176400Y0318400D01*
X0176269Y0318400D01*
X0175616Y0318297D01*
X0174988Y0318092D01*
X0174399Y0317792D01*
X0173864Y0317404D01*
X0173396Y0316936D01*
X0173008Y0316401D01*
X0172708Y0315812D01*
X0172503Y0315184D01*
X0172400Y0314531D01*
X0172400Y0311800D01*
X0176400Y0311800D01*
X0176400Y0311400D01*
X0176800Y0311400D01*
X0176800Y0304800D01*
X0176931Y0304800D01*
X0176800Y0304823D02*
X0176400Y0304823D01*
X0176400Y0304800D02*
X0176400Y0311400D01*
X0172400Y0311400D01*
X0172400Y0308669D01*
X0172503Y0308016D01*
X0172708Y0307388D01*
X0173008Y0306799D01*
X0173396Y0306264D01*
X0173864Y0305796D01*
X0174399Y0305408D01*
X0174988Y0305108D01*
X0175616Y0304903D01*
X0176269Y0304800D01*
X0176400Y0304800D01*
X0176122Y0304823D02*
X0157078Y0304823D01*
X0156931Y0304800D02*
X0157584Y0304903D01*
X0158212Y0305108D01*
X0158801Y0305408D01*
X0159336Y0305796D01*
X0159804Y0306264D01*
X0160192Y0306799D01*
X0160492Y0307388D01*
X0160697Y0308016D01*
X0160800Y0308669D01*
X0160800Y0311400D01*
X0156800Y0311400D01*
X0156800Y0304800D01*
X0156931Y0304800D01*
X0156800Y0304823D02*
X0156400Y0304823D01*
X0156122Y0304823D02*
X0150910Y0304823D01*
X0149712Y0303625D02*
X0193850Y0303625D01*
X0193850Y0304823D02*
X0187078Y0304823D01*
X0189562Y0306022D02*
X0193850Y0306022D01*
X0193850Y0307220D02*
X0190407Y0307220D01*
X0190760Y0308419D02*
X0193850Y0308419D01*
X0193850Y0309617D02*
X0190800Y0309617D01*
X0190800Y0310816D02*
X0193850Y0310816D01*
X0193850Y0312014D02*
X0190800Y0312014D01*
X0190800Y0313213D02*
X0193850Y0313213D01*
X0193850Y0314411D02*
X0190800Y0314411D01*
X0190558Y0315610D02*
X0193850Y0315610D01*
X0193850Y0316808D02*
X0189896Y0316808D01*
X0184820Y0318007D02*
X0178380Y0318007D01*
X0176800Y0318007D02*
X0176400Y0318007D01*
X0176400Y0316808D02*
X0176800Y0316808D01*
X0176800Y0315610D02*
X0176400Y0315610D01*
X0176400Y0314411D02*
X0176800Y0314411D01*
X0176800Y0313213D02*
X0176400Y0313213D01*
X0176400Y0312014D02*
X0176800Y0312014D01*
X0176800Y0310816D02*
X0176400Y0310816D01*
X0176400Y0309617D02*
X0176800Y0309617D01*
X0176800Y0308419D02*
X0176400Y0308419D01*
X0176400Y0307220D02*
X0176800Y0307220D01*
X0176800Y0306022D02*
X0176400Y0306022D01*
X0173638Y0306022D02*
X0169279Y0306022D01*
X0168866Y0305609D02*
X0169991Y0306734D01*
X0170600Y0308204D01*
X0170600Y0314996D01*
X0169991Y0316466D01*
X0168866Y0317591D01*
X0167396Y0318200D01*
X0165804Y0318200D01*
X0164334Y0317591D01*
X0163209Y0316466D01*
X0162600Y0314996D01*
X0162600Y0308204D01*
X0163209Y0306734D01*
X0164334Y0305609D01*
X0165804Y0305000D01*
X0167396Y0305000D01*
X0168866Y0305609D01*
X0170192Y0307220D02*
X0172793Y0307220D01*
X0172440Y0308419D02*
X0170600Y0308419D01*
X0170600Y0309617D02*
X0172400Y0309617D01*
X0172400Y0310816D02*
X0170600Y0310816D01*
X0170600Y0312014D02*
X0172400Y0312014D01*
X0172400Y0313213D02*
X0170600Y0313213D01*
X0170600Y0314411D02*
X0172400Y0314411D01*
X0172642Y0315610D02*
X0170346Y0315610D01*
X0169648Y0316808D02*
X0173304Y0316808D01*
X0174820Y0318007D02*
X0167862Y0318007D01*
X0165338Y0318007D02*
X0158380Y0318007D01*
X0158212Y0318092D02*
X0157584Y0318297D01*
X0156931Y0318400D01*
X0156800Y0318400D01*
X0156800Y0311800D01*
X0160800Y0311800D01*
X0160800Y0314531D01*
X0160697Y0315184D01*
X0160492Y0315812D01*
X0160192Y0316401D01*
X0159804Y0316936D01*
X0159336Y0317404D01*
X0158801Y0317792D01*
X0158212Y0318092D01*
X0156800Y0318007D02*
X0156400Y0318007D01*
X0156400Y0316808D02*
X0156800Y0316808D01*
X0156800Y0315610D02*
X0156400Y0315610D01*
X0156400Y0314411D02*
X0156800Y0314411D01*
X0156800Y0313213D02*
X0156400Y0313213D01*
X0156400Y0312014D02*
X0156800Y0312014D01*
X0156800Y0310816D02*
X0156400Y0310816D01*
X0156400Y0309617D02*
X0156800Y0309617D01*
X0156800Y0308419D02*
X0156400Y0308419D01*
X0156400Y0307220D02*
X0156800Y0307220D01*
X0156800Y0306022D02*
X0156400Y0306022D01*
X0153638Y0306022D02*
X0152109Y0306022D01*
X0148513Y0302426D02*
X0193850Y0302426D01*
X0193850Y0301228D02*
X0147315Y0301228D01*
X0146116Y0300029D02*
X0193850Y0300029D01*
X0193850Y0298831D02*
X0144918Y0298831D01*
X0143719Y0297632D02*
X0193850Y0297632D01*
X0193850Y0296434D02*
X0142521Y0296434D01*
X0141322Y0295235D02*
X0193850Y0295235D01*
X0193850Y0294037D02*
X0140124Y0294037D01*
X0138925Y0292838D02*
X0193850Y0292838D01*
X0193850Y0291640D02*
X0138500Y0291640D01*
X0138500Y0290441D02*
X0193850Y0290441D01*
X0193850Y0289243D02*
X0138500Y0289243D01*
X0138500Y0288044D02*
X0144893Y0288044D01*
X0144988Y0288092D02*
X0144399Y0287792D01*
X0143864Y0287404D01*
X0143396Y0286936D01*
X0143008Y0286401D01*
X0142708Y0285812D01*
X0142503Y0285184D01*
X0142400Y0284531D01*
X0142400Y0281800D01*
X0146400Y0281800D01*
X0146400Y0288400D01*
X0146269Y0288400D01*
X0145616Y0288297D01*
X0144988Y0288092D01*
X0146400Y0288044D02*
X0146800Y0288044D01*
X0146800Y0288400D02*
X0146800Y0281800D01*
X0150800Y0281800D01*
X0150800Y0284531D01*
X0150697Y0285184D01*
X0150492Y0285812D01*
X0150192Y0286401D01*
X0149804Y0286936D01*
X0149336Y0287404D01*
X0148801Y0287792D01*
X0148212Y0288092D01*
X0147584Y0288297D01*
X0146931Y0288400D01*
X0146800Y0288400D01*
X0148307Y0288044D02*
X0154893Y0288044D01*
X0154988Y0288092D02*
X0154399Y0287792D01*
X0153864Y0287404D01*
X0153396Y0286936D01*
X0153008Y0286401D01*
X0152708Y0285812D01*
X0152503Y0285184D01*
X0152400Y0284531D01*
X0152400Y0281800D01*
X0156400Y0281800D01*
X0156400Y0288400D01*
X0156269Y0288400D01*
X0155616Y0288297D01*
X0154988Y0288092D01*
X0156400Y0288044D02*
X0156800Y0288044D01*
X0156800Y0288400D02*
X0156800Y0281800D01*
X0160800Y0281800D01*
X0160800Y0284531D01*
X0160697Y0285184D01*
X0160492Y0285812D01*
X0160192Y0286401D01*
X0159804Y0286936D01*
X0159336Y0287404D01*
X0158801Y0287792D01*
X0158212Y0288092D01*
X0157584Y0288297D01*
X0156931Y0288400D01*
X0156800Y0288400D01*
X0158307Y0288044D02*
X0165428Y0288044D01*
X0165804Y0288200D02*
X0164334Y0287591D01*
X0163209Y0286466D01*
X0162600Y0284996D01*
X0162600Y0278204D01*
X0163209Y0276734D01*
X0164334Y0275609D01*
X0165804Y0275000D01*
X0167396Y0275000D01*
X0168866Y0275609D01*
X0169991Y0276734D01*
X0170600Y0278204D01*
X0170600Y0284996D01*
X0169991Y0286466D01*
X0168866Y0287591D01*
X0167396Y0288200D01*
X0165804Y0288200D01*
X0167772Y0288044D02*
X0174893Y0288044D01*
X0174988Y0288092D02*
X0174399Y0287792D01*
X0173864Y0287404D01*
X0173396Y0286936D01*
X0173008Y0286401D01*
X0172708Y0285812D01*
X0172503Y0285184D01*
X0172400Y0284531D01*
X0172400Y0281800D01*
X0176400Y0281800D01*
X0176400Y0288400D01*
X0176269Y0288400D01*
X0175616Y0288297D01*
X0174988Y0288092D01*
X0176400Y0288044D02*
X0176800Y0288044D01*
X0176800Y0288400D02*
X0176800Y0281800D01*
X0180800Y0281800D01*
X0180800Y0284531D01*
X0180697Y0285184D01*
X0180492Y0285812D01*
X0180192Y0286401D01*
X0179804Y0286936D01*
X0179336Y0287404D01*
X0178801Y0287792D01*
X0178212Y0288092D01*
X0177584Y0288297D01*
X0176931Y0288400D01*
X0176800Y0288400D01*
X0178307Y0288044D02*
X0185428Y0288044D01*
X0185804Y0288200D02*
X0184334Y0287591D01*
X0183209Y0286466D01*
X0182600Y0284996D01*
X0182600Y0278204D01*
X0183209Y0276734D01*
X0184334Y0275609D01*
X0185804Y0275000D01*
X0187396Y0275000D01*
X0188866Y0275609D01*
X0189991Y0276734D01*
X0190600Y0278204D01*
X0190600Y0284996D01*
X0189991Y0286466D01*
X0188866Y0287591D01*
X0187396Y0288200D01*
X0185804Y0288200D01*
X0187772Y0288044D02*
X0193850Y0288044D01*
X0193850Y0286846D02*
X0189611Y0286846D01*
X0190330Y0285647D02*
X0193850Y0285647D01*
X0193850Y0284449D02*
X0190600Y0284449D01*
X0190600Y0283250D02*
X0193850Y0283250D01*
X0193850Y0282052D02*
X0190600Y0282052D01*
X0190600Y0280853D02*
X0193850Y0280853D01*
X0193850Y0279655D02*
X0190600Y0279655D01*
X0190600Y0278456D02*
X0193850Y0278456D01*
X0193850Y0277258D02*
X0190208Y0277258D01*
X0189316Y0276059D02*
X0193850Y0276059D01*
X0193850Y0274861D02*
X0177313Y0274861D01*
X0177584Y0274903D02*
X0178212Y0275108D01*
X0178801Y0275408D01*
X0179336Y0275796D01*
X0179804Y0276264D01*
X0180192Y0276799D01*
X0180492Y0277388D01*
X0180697Y0278016D01*
X0180800Y0278669D01*
X0180800Y0281400D01*
X0176800Y0281400D01*
X0176800Y0281800D01*
X0176400Y0281800D01*
X0176400Y0281400D01*
X0176800Y0281400D01*
X0176800Y0274800D01*
X0176931Y0274800D01*
X0177584Y0274903D01*
X0176800Y0274861D02*
X0176400Y0274861D01*
X0176400Y0274800D02*
X0176400Y0281400D01*
X0172400Y0281400D01*
X0172400Y0278669D01*
X0172503Y0278016D01*
X0172708Y0277388D01*
X0173008Y0276799D01*
X0173396Y0276264D01*
X0173864Y0275796D01*
X0174399Y0275408D01*
X0174988Y0275108D01*
X0175616Y0274903D01*
X0176269Y0274800D01*
X0176400Y0274800D01*
X0175887Y0274861D02*
X0157313Y0274861D01*
X0157584Y0274903D02*
X0158212Y0275108D01*
X0158801Y0275408D01*
X0159336Y0275796D01*
X0159804Y0276264D01*
X0160192Y0276799D01*
X0160492Y0277388D01*
X0160697Y0278016D01*
X0160800Y0278669D01*
X0160800Y0281400D01*
X0156800Y0281400D01*
X0156800Y0281800D01*
X0156400Y0281800D01*
X0156400Y0281400D01*
X0156800Y0281400D01*
X0156800Y0274800D01*
X0156931Y0274800D01*
X0157584Y0274903D01*
X0156800Y0274861D02*
X0156400Y0274861D01*
X0156400Y0274800D02*
X0156400Y0281400D01*
X0152400Y0281400D01*
X0152400Y0278669D01*
X0152503Y0278016D01*
X0152708Y0277388D01*
X0153008Y0276799D01*
X0153396Y0276264D01*
X0153864Y0275796D01*
X0154399Y0275408D01*
X0154988Y0275108D01*
X0155616Y0274903D01*
X0156269Y0274800D01*
X0156400Y0274800D01*
X0155887Y0274861D02*
X0147313Y0274861D01*
X0147584Y0274903D02*
X0148212Y0275108D01*
X0148801Y0275408D01*
X0149336Y0275796D01*
X0149804Y0276264D01*
X0150192Y0276799D01*
X0150492Y0277388D01*
X0150697Y0278016D01*
X0150800Y0278669D01*
X0150800Y0281400D01*
X0146800Y0281400D01*
X0146800Y0281800D01*
X0146400Y0281800D01*
X0146400Y0281400D01*
X0146800Y0281400D01*
X0146800Y0274800D01*
X0146931Y0274800D01*
X0147584Y0274903D01*
X0146800Y0274861D02*
X0146400Y0274861D01*
X0146400Y0274800D02*
X0146400Y0281400D01*
X0142400Y0281400D01*
X0142400Y0278669D01*
X0142503Y0278016D01*
X0142708Y0277388D01*
X0143008Y0276799D01*
X0143396Y0276264D01*
X0143864Y0275796D01*
X0144399Y0275408D01*
X0144988Y0275108D01*
X0145616Y0274903D01*
X0146269Y0274800D01*
X0146400Y0274800D01*
X0145887Y0274861D02*
X0121848Y0274861D01*
X0123046Y0276059D02*
X0123884Y0276059D01*
X0120649Y0273662D02*
X0193850Y0273662D01*
X0193850Y0272464D02*
X0119451Y0272464D01*
X0118252Y0271265D02*
X0193850Y0271265D01*
X0193850Y0270067D02*
X0117054Y0270067D01*
X0115855Y0268868D02*
X0193850Y0268868D01*
X0193850Y0267670D02*
X0114656Y0267670D01*
X0113458Y0266471D02*
X0193850Y0266471D01*
X0193850Y0265272D02*
X0112259Y0265272D01*
X0111061Y0264074D02*
X0193850Y0264074D01*
X0193850Y0262875D02*
X0180412Y0262875D01*
X0181610Y0261677D02*
X0185530Y0261677D01*
X0187670Y0261677D02*
X0193850Y0261677D01*
X0193850Y0260478D02*
X0189934Y0260478D01*
X0191010Y0259280D02*
X0193850Y0259280D01*
X0193850Y0258081D02*
X0191507Y0258081D01*
X0191700Y0256883D02*
X0193850Y0256883D01*
X0193850Y0255684D02*
X0191700Y0255684D01*
X0191244Y0254486D02*
X0193850Y0254486D01*
X0193850Y0253287D02*
X0190500Y0253287D01*
X0189036Y0252089D02*
X0193850Y0252089D01*
X0193850Y0250890D02*
X0183500Y0250890D01*
X0183500Y0249692D02*
X0193850Y0249692D01*
X0193850Y0248493D02*
X0183500Y0248493D01*
X0183500Y0247295D02*
X0193850Y0247295D01*
X0193850Y0246096D02*
X0183500Y0246096D01*
X0183500Y0244898D02*
X0193850Y0244898D01*
X0193850Y0243699D02*
X0183500Y0243699D01*
X0183500Y0242501D02*
X0193850Y0242501D01*
X0193850Y0241302D02*
X0183500Y0241302D01*
X0183500Y0240104D02*
X0193850Y0240104D01*
X0193850Y0238905D02*
X0183500Y0238905D01*
X0183500Y0237707D02*
X0193850Y0237707D01*
X0193850Y0236508D02*
X0183500Y0236508D01*
X0183500Y0235310D02*
X0193850Y0235310D01*
X0193850Y0234111D02*
X0183500Y0234111D01*
X0183500Y0232913D02*
X0193850Y0232913D01*
X0193850Y0231714D02*
X0183500Y0231714D01*
X0183500Y0230516D02*
X0193850Y0230516D01*
X0193850Y0229317D02*
X0183500Y0229317D01*
X0183500Y0228119D02*
X0193850Y0228119D01*
X0193850Y0226920D02*
X0183500Y0226920D01*
X0183500Y0225722D02*
X0193850Y0225722D01*
X0193850Y0224523D02*
X0183500Y0224523D01*
X0183500Y0223325D02*
X0193850Y0223325D01*
X0193850Y0222126D02*
X0183500Y0222126D01*
X0183500Y0220928D02*
X0193850Y0220928D01*
X0193850Y0219729D02*
X0183500Y0219729D01*
X0183500Y0218531D02*
X0193850Y0218531D01*
X0193850Y0217332D02*
X0183500Y0217332D01*
X0183500Y0216134D02*
X0193850Y0216134D01*
X0193850Y0214935D02*
X0183500Y0214935D01*
X0183500Y0213737D02*
X0193850Y0213737D01*
X0193850Y0212538D02*
X0183500Y0212538D01*
X0183500Y0211339D02*
X0193850Y0211339D01*
X0193850Y0210141D02*
X0183646Y0210141D01*
X0184845Y0208942D02*
X0193850Y0208942D01*
X0193850Y0207744D02*
X0186043Y0207744D01*
X0187242Y0206545D02*
X0193850Y0206545D01*
X0193850Y0205347D02*
X0188440Y0205347D01*
X0189639Y0204148D02*
X0193850Y0204148D01*
X0193850Y0202950D02*
X0190837Y0202950D01*
X0192036Y0201751D02*
X0193850Y0201751D01*
X0193850Y0200553D02*
X0193234Y0200553D01*
X0187697Y0180016D02*
X0188700Y0179013D01*
X0188700Y0049187D01*
X0182600Y0043087D01*
X0182600Y0177724D01*
X0183624Y0177300D01*
X0184976Y0177300D01*
X0186226Y0177818D01*
X0187182Y0178774D01*
X0187697Y0180016D01*
X0187268Y0178980D02*
X0188700Y0178980D01*
X0188700Y0177781D02*
X0186138Y0177781D01*
X0188700Y0176583D02*
X0182600Y0176583D01*
X0182600Y0175384D02*
X0188700Y0175384D01*
X0188700Y0174186D02*
X0182600Y0174186D01*
X0182600Y0172987D02*
X0188700Y0172987D01*
X0188700Y0171789D02*
X0182600Y0171789D01*
X0182600Y0170590D02*
X0188700Y0170590D01*
X0188700Y0169392D02*
X0182600Y0169392D01*
X0182600Y0168193D02*
X0188700Y0168193D01*
X0188700Y0166995D02*
X0182600Y0166995D01*
X0182600Y0165796D02*
X0188700Y0165796D01*
X0188700Y0164598D02*
X0182600Y0164598D01*
X0182600Y0163399D02*
X0188700Y0163399D01*
X0188700Y0162201D02*
X0182600Y0162201D01*
X0182600Y0161002D02*
X0188700Y0161002D01*
X0188700Y0159803D02*
X0182600Y0159803D01*
X0182600Y0158605D02*
X0188700Y0158605D01*
X0188700Y0157406D02*
X0182600Y0157406D01*
X0182600Y0156208D02*
X0188700Y0156208D01*
X0188700Y0155009D02*
X0182600Y0155009D01*
X0182600Y0153811D02*
X0188700Y0153811D01*
X0188700Y0152612D02*
X0182600Y0152612D01*
X0182600Y0151414D02*
X0188700Y0151414D01*
X0188700Y0150215D02*
X0182600Y0150215D01*
X0182600Y0149017D02*
X0188700Y0149017D01*
X0188700Y0147818D02*
X0182600Y0147818D01*
X0182600Y0146620D02*
X0188700Y0146620D01*
X0188700Y0145421D02*
X0182600Y0145421D01*
X0182600Y0144223D02*
X0188700Y0144223D01*
X0188700Y0143024D02*
X0182600Y0143024D01*
X0182600Y0141826D02*
X0188700Y0141826D01*
X0188700Y0140627D02*
X0182600Y0140627D01*
X0182600Y0139429D02*
X0188700Y0139429D01*
X0188700Y0138230D02*
X0182600Y0138230D01*
X0182600Y0137032D02*
X0188700Y0137032D01*
X0188700Y0135833D02*
X0182600Y0135833D01*
X0182600Y0134635D02*
X0188700Y0134635D01*
X0188700Y0133436D02*
X0182600Y0133436D01*
X0182600Y0132238D02*
X0188700Y0132238D01*
X0188700Y0131039D02*
X0182600Y0131039D01*
X0182600Y0129841D02*
X0188700Y0129841D01*
X0188700Y0128642D02*
X0182600Y0128642D01*
X0182600Y0127444D02*
X0188700Y0127444D01*
X0188700Y0126245D02*
X0182600Y0126245D01*
X0182600Y0125047D02*
X0188700Y0125047D01*
X0188700Y0123848D02*
X0182600Y0123848D01*
X0182600Y0122650D02*
X0188700Y0122650D01*
X0188700Y0121451D02*
X0182600Y0121451D01*
X0182600Y0120253D02*
X0188700Y0120253D01*
X0188700Y0119054D02*
X0182600Y0119054D01*
X0182600Y0117856D02*
X0188700Y0117856D01*
X0188700Y0116657D02*
X0182600Y0116657D01*
X0182600Y0115459D02*
X0188700Y0115459D01*
X0188700Y0114260D02*
X0182600Y0114260D01*
X0182600Y0113062D02*
X0188700Y0113062D01*
X0188700Y0111863D02*
X0182600Y0111863D01*
X0182600Y0110665D02*
X0188700Y0110665D01*
X0188700Y0109466D02*
X0182600Y0109466D01*
X0182600Y0108268D02*
X0188700Y0108268D01*
X0188700Y0107069D02*
X0182600Y0107069D01*
X0182600Y0105870D02*
X0188700Y0105870D01*
X0188700Y0104672D02*
X0182600Y0104672D01*
X0182600Y0103473D02*
X0188700Y0103473D01*
X0188700Y0102275D02*
X0182600Y0102275D01*
X0182600Y0101076D02*
X0188700Y0101076D01*
X0188700Y0099878D02*
X0182600Y0099878D01*
X0182600Y0098679D02*
X0188700Y0098679D01*
X0188700Y0097481D02*
X0182600Y0097481D01*
X0182600Y0096282D02*
X0188700Y0096282D01*
X0188700Y0095084D02*
X0182600Y0095084D01*
X0182600Y0093885D02*
X0188700Y0093885D01*
X0188700Y0092687D02*
X0182600Y0092687D01*
X0182600Y0091488D02*
X0188700Y0091488D01*
X0188700Y0090290D02*
X0182600Y0090290D01*
X0182600Y0089091D02*
X0188700Y0089091D01*
X0188700Y0087893D02*
X0182600Y0087893D01*
X0182600Y0086694D02*
X0188700Y0086694D01*
X0188700Y0085496D02*
X0182600Y0085496D01*
X0182600Y0084297D02*
X0188700Y0084297D01*
X0188700Y0083099D02*
X0182600Y0083099D01*
X0182600Y0081900D02*
X0188700Y0081900D01*
X0188700Y0080702D02*
X0182600Y0080702D01*
X0182600Y0079503D02*
X0188700Y0079503D01*
X0188700Y0078305D02*
X0182600Y0078305D01*
X0182600Y0077106D02*
X0188700Y0077106D01*
X0188700Y0075908D02*
X0182600Y0075908D01*
X0182600Y0074709D02*
X0188700Y0074709D01*
X0188700Y0073511D02*
X0182600Y0073511D01*
X0182600Y0072312D02*
X0188700Y0072312D01*
X0188700Y0071114D02*
X0182600Y0071114D01*
X0182600Y0069915D02*
X0188700Y0069915D01*
X0188700Y0068717D02*
X0182600Y0068717D01*
X0182600Y0067518D02*
X0188700Y0067518D01*
X0188700Y0066320D02*
X0182600Y0066320D01*
X0182600Y0065121D02*
X0188700Y0065121D01*
X0188700Y0063923D02*
X0182600Y0063923D01*
X0182600Y0062724D02*
X0188700Y0062724D01*
X0188700Y0061526D02*
X0182600Y0061526D01*
X0182600Y0060327D02*
X0188700Y0060327D01*
X0188700Y0059129D02*
X0182600Y0059129D01*
X0182600Y0057930D02*
X0188700Y0057930D01*
X0188700Y0056732D02*
X0182600Y0056732D01*
X0182600Y0055533D02*
X0188700Y0055533D01*
X0188700Y0054334D02*
X0182600Y0054334D01*
X0182600Y0053136D02*
X0188700Y0053136D01*
X0188700Y0051937D02*
X0182600Y0051937D01*
X0182600Y0050739D02*
X0188700Y0050739D01*
X0188700Y0049540D02*
X0182600Y0049540D01*
X0182600Y0048342D02*
X0187855Y0048342D01*
X0186656Y0047143D02*
X0182600Y0047143D01*
X0182600Y0045945D02*
X0185458Y0045945D01*
X0184259Y0044746D02*
X0182600Y0044746D01*
X0182600Y0043548D02*
X0183061Y0043548D01*
X0186341Y0038754D02*
X0193850Y0038754D01*
X0193850Y0039952D02*
X0187539Y0039952D01*
X0188738Y0041151D02*
X0193850Y0041151D01*
X0193850Y0042349D02*
X0189936Y0042349D01*
X0191135Y0043548D02*
X0193850Y0043548D01*
X0193850Y0044746D02*
X0192333Y0044746D01*
X0193532Y0045945D02*
X0193850Y0045945D01*
X0193850Y0046263D02*
X0193850Y0024921D01*
X0191592Y0026626D01*
X0187633Y0027752D01*
X0183535Y0027372D01*
X0179851Y0025538D01*
X0179850Y0025538D01*
X0177078Y0022496D01*
X0175591Y0018658D01*
X0175591Y0014542D01*
X0177078Y0010704D01*
X0179850Y0007662D01*
X0179851Y0007662D01*
X0182787Y0006200D01*
X0153787Y0006200D01*
X0154700Y0007113D01*
X0193850Y0046263D01*
X0193850Y0037555D02*
X0185142Y0037555D01*
X0183944Y0036357D02*
X0193850Y0036357D01*
X0193850Y0035158D02*
X0182745Y0035158D01*
X0181547Y0033960D02*
X0193850Y0033960D01*
X0193850Y0032761D02*
X0180348Y0032761D01*
X0179150Y0031563D02*
X0193850Y0031563D01*
X0193850Y0030364D02*
X0177951Y0030364D01*
X0176753Y0029166D02*
X0193850Y0029166D01*
X0193850Y0027967D02*
X0175554Y0027967D01*
X0174356Y0026769D02*
X0182323Y0026769D01*
X0183535Y0027372D02*
X0183535Y0027372D01*
X0179916Y0025570D02*
X0173157Y0025570D01*
X0171959Y0024372D02*
X0178787Y0024372D01*
X0177695Y0023173D02*
X0170760Y0023173D01*
X0169562Y0021975D02*
X0176876Y0021975D01*
X0177078Y0022496D02*
X0177078Y0022496D01*
X0176411Y0020776D02*
X0168363Y0020776D01*
X0167165Y0019578D02*
X0175947Y0019578D01*
X0175591Y0018379D02*
X0165966Y0018379D01*
X0164768Y0017181D02*
X0175591Y0017181D01*
X0175591Y0015982D02*
X0163569Y0015982D01*
X0162371Y0014784D02*
X0175591Y0014784D01*
X0175961Y0013585D02*
X0161172Y0013585D01*
X0159974Y0012387D02*
X0176426Y0012387D01*
X0176890Y0011188D02*
X0158775Y0011188D01*
X0157577Y0009990D02*
X0177729Y0009990D01*
X0177078Y0010704D02*
X0177078Y0010704D01*
X0178821Y0008791D02*
X0156378Y0008791D01*
X0155180Y0007593D02*
X0179990Y0007593D01*
X0182397Y0006394D02*
X0153981Y0006394D01*
X0157589Y0020776D02*
X0143163Y0020776D01*
X0144362Y0021975D02*
X0158788Y0021975D01*
X0159986Y0023173D02*
X0145560Y0023173D01*
X0146759Y0024372D02*
X0150310Y0024372D01*
X0148407Y0025570D02*
X0147957Y0025570D01*
X0152890Y0024372D02*
X0160310Y0024372D01*
X0158407Y0025570D02*
X0154793Y0025570D01*
X0155604Y0026769D02*
X0157596Y0026769D01*
X0157200Y0027967D02*
X0156000Y0027967D01*
X0156000Y0029166D02*
X0157200Y0029166D01*
X0157200Y0030364D02*
X0156000Y0030364D01*
X0156000Y0031563D02*
X0157200Y0031563D01*
X0157200Y0032761D02*
X0156000Y0032761D01*
X0156000Y0033960D02*
X0157200Y0033960D01*
X0157200Y0035158D02*
X0156000Y0035158D01*
X0155635Y0036357D02*
X0157565Y0036357D01*
X0158333Y0037555D02*
X0154867Y0037555D01*
X0153800Y0038754D02*
X0160131Y0038754D01*
X0163069Y0038754D02*
X0175567Y0038754D01*
X0176765Y0039952D02*
X0153800Y0039952D01*
X0153800Y0041151D02*
X0177964Y0041151D01*
X0178800Y0042349D02*
X0154836Y0042349D01*
X0156035Y0043548D02*
X0178800Y0043548D01*
X0178800Y0044746D02*
X0157233Y0044746D01*
X0158432Y0045945D02*
X0178800Y0045945D01*
X0178800Y0047143D02*
X0159630Y0047143D01*
X0160829Y0048342D02*
X0178800Y0048342D01*
X0178800Y0049540D02*
X0162027Y0049540D01*
X0163226Y0050739D02*
X0178800Y0050739D01*
X0178800Y0051937D02*
X0164424Y0051937D01*
X0165623Y0053136D02*
X0178800Y0053136D01*
X0178800Y0054334D02*
X0166821Y0054334D01*
X0168020Y0055533D02*
X0178800Y0055533D01*
X0178800Y0056732D02*
X0169219Y0056732D01*
X0170417Y0057930D02*
X0178800Y0057930D01*
X0178800Y0059129D02*
X0171616Y0059129D01*
X0171800Y0060327D02*
X0178800Y0060327D01*
X0178800Y0061526D02*
X0171800Y0061526D01*
X0171800Y0062724D02*
X0178800Y0062724D01*
X0178800Y0063923D02*
X0171800Y0063923D01*
X0171800Y0065121D02*
X0178800Y0065121D01*
X0178800Y0066320D02*
X0171800Y0066320D01*
X0171800Y0067518D02*
X0178800Y0067518D01*
X0178800Y0068717D02*
X0171800Y0068717D01*
X0171800Y0069915D02*
X0178800Y0069915D01*
X0178800Y0071114D02*
X0171800Y0071114D01*
X0171800Y0072312D02*
X0178800Y0072312D01*
X0178800Y0073511D02*
X0171800Y0073511D01*
X0171800Y0074709D02*
X0178800Y0074709D01*
X0178800Y0075908D02*
X0171800Y0075908D01*
X0171800Y0077106D02*
X0178800Y0077106D01*
X0178800Y0078305D02*
X0171800Y0078305D01*
X0171800Y0079503D02*
X0178800Y0079503D01*
X0178800Y0080702D02*
X0171800Y0080702D01*
X0171800Y0081900D02*
X0178800Y0081900D01*
X0178800Y0083099D02*
X0171800Y0083099D01*
X0171800Y0084297D02*
X0178800Y0084297D01*
X0178800Y0085496D02*
X0171800Y0085496D01*
X0171800Y0086694D02*
X0178800Y0086694D01*
X0178800Y0087893D02*
X0171800Y0087893D01*
X0171800Y0089091D02*
X0178800Y0089091D01*
X0178800Y0090290D02*
X0171800Y0090290D01*
X0171800Y0091488D02*
X0178800Y0091488D01*
X0178800Y0092687D02*
X0171800Y0092687D01*
X0171800Y0093885D02*
X0178800Y0093885D01*
X0178800Y0095084D02*
X0171800Y0095084D01*
X0171800Y0096282D02*
X0178800Y0096282D01*
X0178800Y0097481D02*
X0171800Y0097481D01*
X0171800Y0098679D02*
X0178800Y0098679D01*
X0178800Y0099878D02*
X0171800Y0099878D01*
X0171800Y0101076D02*
X0178800Y0101076D01*
X0178800Y0102275D02*
X0171800Y0102275D01*
X0171800Y0103473D02*
X0178800Y0103473D01*
X0178800Y0104672D02*
X0171800Y0104672D01*
X0171800Y0105870D02*
X0178800Y0105870D01*
X0178800Y0107069D02*
X0171800Y0107069D01*
X0171800Y0108268D02*
X0178800Y0108268D01*
X0178800Y0109466D02*
X0171800Y0109466D01*
X0171800Y0110665D02*
X0178800Y0110665D01*
X0178800Y0111863D02*
X0171800Y0111863D01*
X0171800Y0113062D02*
X0178800Y0113062D01*
X0178800Y0114260D02*
X0171800Y0114260D01*
X0171800Y0115459D02*
X0178800Y0115459D01*
X0178800Y0116657D02*
X0171800Y0116657D01*
X0171800Y0117856D02*
X0178800Y0117856D01*
X0178800Y0119054D02*
X0171800Y0119054D01*
X0171800Y0120253D02*
X0178800Y0120253D01*
X0178800Y0121451D02*
X0171800Y0121451D01*
X0171800Y0122650D02*
X0178800Y0122650D01*
X0178800Y0123848D02*
X0171800Y0123848D01*
X0171800Y0125047D02*
X0178800Y0125047D01*
X0178800Y0126245D02*
X0171800Y0126245D01*
X0171800Y0127444D02*
X0178800Y0127444D01*
X0178800Y0128642D02*
X0171800Y0128642D01*
X0171800Y0129841D02*
X0178800Y0129841D01*
X0178800Y0131039D02*
X0171800Y0131039D01*
X0171800Y0132238D02*
X0178800Y0132238D01*
X0178800Y0133436D02*
X0171800Y0133436D01*
X0171800Y0134635D02*
X0178800Y0134635D01*
X0178800Y0135833D02*
X0171800Y0135833D01*
X0171800Y0137032D02*
X0178800Y0137032D01*
X0178800Y0138230D02*
X0171800Y0138230D01*
X0171800Y0139429D02*
X0178800Y0139429D01*
X0178800Y0140627D02*
X0171800Y0140627D01*
X0171800Y0141826D02*
X0178800Y0141826D01*
X0178800Y0143024D02*
X0171800Y0143024D01*
X0171800Y0144223D02*
X0178800Y0144223D01*
X0178800Y0145421D02*
X0171800Y0145421D01*
X0171800Y0146620D02*
X0178800Y0146620D01*
X0178800Y0147818D02*
X0171800Y0147818D01*
X0171800Y0149017D02*
X0178800Y0149017D01*
X0178800Y0150215D02*
X0171800Y0150215D01*
X0171800Y0151414D02*
X0178800Y0151414D01*
X0178800Y0152612D02*
X0171800Y0152612D01*
X0171800Y0153811D02*
X0178800Y0153811D01*
X0178800Y0155009D02*
X0171800Y0155009D01*
X0171800Y0156208D02*
X0178800Y0156208D01*
X0178800Y0157406D02*
X0171800Y0157406D01*
X0171800Y0158605D02*
X0178800Y0158605D01*
X0178800Y0159803D02*
X0171800Y0159803D01*
X0171800Y0161002D02*
X0178800Y0161002D01*
X0178800Y0162201D02*
X0171800Y0162201D01*
X0171800Y0163399D02*
X0178800Y0163399D01*
X0178800Y0164598D02*
X0171800Y0164598D01*
X0171800Y0165796D02*
X0178800Y0165796D01*
X0178800Y0166995D02*
X0171800Y0166995D01*
X0171800Y0168193D02*
X0178800Y0168193D01*
X0178800Y0169392D02*
X0171800Y0169392D01*
X0171800Y0170590D02*
X0178800Y0170590D01*
X0178800Y0171789D02*
X0171800Y0171789D01*
X0171800Y0172987D02*
X0178800Y0172987D01*
X0178800Y0174186D02*
X0171800Y0174186D01*
X0171800Y0175384D02*
X0178800Y0175384D01*
X0178800Y0176583D02*
X0171800Y0176583D01*
X0171800Y0177781D02*
X0178800Y0177781D01*
X0178800Y0178980D02*
X0171800Y0178980D01*
X0171800Y0180178D02*
X0178800Y0180178D01*
X0178236Y0181377D02*
X0171800Y0181377D01*
X0171800Y0182575D02*
X0177038Y0182575D01*
X0175839Y0183774D02*
X0171800Y0183774D01*
X0171800Y0184972D02*
X0175200Y0184972D01*
X0175200Y0186171D02*
X0171800Y0186171D01*
X0171800Y0187369D02*
X0175200Y0187369D01*
X0175200Y0188568D02*
X0171800Y0188568D01*
X0171800Y0189766D02*
X0175200Y0189766D01*
X0175200Y0190965D02*
X0171800Y0190965D01*
X0171800Y0192163D02*
X0173984Y0192163D01*
X0172626Y0193362D02*
X0171800Y0193362D01*
X0171925Y0194560D02*
X0171327Y0194560D01*
X0171600Y0197856D02*
X0170924Y0199489D01*
X0169489Y0200924D01*
X0167614Y0201700D01*
X0165586Y0201700D01*
X0163711Y0200924D01*
X0162276Y0199489D01*
X0161600Y0197856D01*
X0160924Y0199489D01*
X0159489Y0200924D01*
X0157614Y0201700D01*
X0155586Y0201700D01*
X0153711Y0200924D01*
X0152276Y0199489D01*
X0151600Y0197856D01*
X0150924Y0199489D01*
X0149489Y0200924D01*
X0147614Y0201700D01*
X0145586Y0201700D01*
X0143711Y0200924D01*
X0142276Y0199489D01*
X0141600Y0197856D01*
X0140924Y0199489D01*
X0139489Y0200924D01*
X0137614Y0201700D01*
X0135586Y0201700D01*
X0133711Y0200924D01*
X0132276Y0199489D01*
X0131600Y0197856D01*
X0130924Y0199489D01*
X0129489Y0200924D01*
X0127614Y0201700D01*
X0125586Y0201700D01*
X0123711Y0200924D01*
X0122276Y0199489D01*
X0121600Y0197856D01*
X0120924Y0199489D01*
X0119489Y0200924D01*
X0117614Y0201700D01*
X0115586Y0201700D01*
X0114314Y0201173D01*
X0093500Y0221987D01*
X0093500Y0252488D01*
X0093711Y0252276D01*
X0095586Y0251500D01*
X0097614Y0251500D01*
X0099489Y0252276D01*
X0100924Y0253711D01*
X0101600Y0255344D01*
X0102276Y0253711D01*
X0103711Y0252276D01*
X0105586Y0251500D01*
X0107614Y0251500D01*
X0109489Y0252276D01*
X0110924Y0253711D01*
X0111600Y0255344D01*
X0112276Y0253711D01*
X0113711Y0252276D01*
X0115586Y0251500D01*
X0117614Y0251500D01*
X0119489Y0252276D01*
X0120924Y0253711D01*
X0121600Y0255344D01*
X0122276Y0253711D01*
X0123711Y0252276D01*
X0125586Y0251500D01*
X0127614Y0251500D01*
X0129489Y0252276D01*
X0130924Y0253711D01*
X0131600Y0255344D01*
X0132276Y0253711D01*
X0133711Y0252276D01*
X0135586Y0251500D01*
X0137614Y0251500D01*
X0139489Y0252276D01*
X0140924Y0253711D01*
X0141600Y0255344D01*
X0142276Y0253711D01*
X0143711Y0252276D01*
X0145586Y0251500D01*
X0147614Y0251500D01*
X0149489Y0252276D01*
X0150924Y0253711D01*
X0151600Y0255344D01*
X0152276Y0253711D01*
X0153711Y0252276D01*
X0155586Y0251500D01*
X0157614Y0251500D01*
X0159489Y0252276D01*
X0160924Y0253711D01*
X0161600Y0255344D01*
X0162276Y0253711D01*
X0163711Y0252276D01*
X0165586Y0251500D01*
X0167614Y0251500D01*
X0169489Y0252276D01*
X0170924Y0253711D01*
X0171600Y0255344D01*
X0172276Y0253711D01*
X0173711Y0252276D01*
X0175200Y0251660D01*
X0175200Y0202413D01*
X0175913Y0201700D01*
X0175586Y0201700D01*
X0173711Y0200924D01*
X0172276Y0199489D01*
X0171600Y0197856D01*
X0171476Y0198156D02*
X0171724Y0198156D01*
X0172221Y0199354D02*
X0170979Y0199354D01*
X0169860Y0200553D02*
X0173340Y0200553D01*
X0175862Y0201751D02*
X0113736Y0201751D01*
X0112537Y0202950D02*
X0175200Y0202950D01*
X0175200Y0204148D02*
X0111339Y0204148D01*
X0110140Y0205347D02*
X0175200Y0205347D01*
X0175200Y0206545D02*
X0108942Y0206545D01*
X0107743Y0207744D02*
X0175200Y0207744D01*
X0175200Y0208942D02*
X0106545Y0208942D01*
X0105346Y0210141D02*
X0175200Y0210141D01*
X0175200Y0211339D02*
X0104148Y0211339D01*
X0102949Y0212538D02*
X0175200Y0212538D01*
X0175200Y0213737D02*
X0101750Y0213737D01*
X0100552Y0214935D02*
X0175200Y0214935D01*
X0175200Y0216134D02*
X0099353Y0216134D01*
X0098155Y0217332D02*
X0175200Y0217332D01*
X0175200Y0218531D02*
X0096956Y0218531D01*
X0095758Y0219729D02*
X0109512Y0219729D01*
X0109824Y0219600D02*
X0108574Y0220118D01*
X0107618Y0221074D01*
X0107100Y0222324D01*
X0107100Y0223676D01*
X0107618Y0224926D01*
X0108574Y0225882D01*
X0108600Y0225893D01*
X0108600Y0242315D01*
X0108211Y0242476D01*
X0106776Y0243911D01*
X0106000Y0245786D01*
X0106000Y0247814D01*
X0106776Y0249689D01*
X0108211Y0251124D01*
X0110086Y0251900D01*
X0112114Y0251900D01*
X0113989Y0251124D01*
X0115424Y0249689D01*
X0116100Y0248056D01*
X0116776Y0249689D01*
X0118211Y0251124D01*
X0120086Y0251900D01*
X0122114Y0251900D01*
X0123989Y0251124D01*
X0125424Y0249689D01*
X0126200Y0247814D01*
X0126200Y0245786D01*
X0125424Y0243911D01*
X0123989Y0242476D01*
X0122300Y0241777D01*
X0122300Y0230393D01*
X0122326Y0230382D01*
X0123282Y0229426D01*
X0123800Y0228176D01*
X0123800Y0226824D01*
X0123282Y0225574D01*
X0122326Y0224618D01*
X0121076Y0224100D01*
X0119724Y0224100D01*
X0118474Y0224618D01*
X0117518Y0225574D01*
X0117000Y0226824D01*
X0117000Y0228176D01*
X0117518Y0229426D01*
X0118474Y0230382D01*
X0118500Y0230393D01*
X0118500Y0242357D01*
X0118211Y0242476D01*
X0116776Y0243911D01*
X0116100Y0245544D01*
X0115424Y0243911D01*
X0113989Y0242476D01*
X0112400Y0241818D01*
X0112400Y0225893D01*
X0112426Y0225882D01*
X0113382Y0224926D01*
X0113900Y0223676D01*
X0113900Y0222324D01*
X0113382Y0221074D01*
X0112426Y0220118D01*
X0111176Y0219600D01*
X0109824Y0219600D01*
X0111488Y0219729D02*
X0175200Y0219729D01*
X0175200Y0220928D02*
X0113236Y0220928D01*
X0113818Y0222126D02*
X0175200Y0222126D01*
X0175200Y0223325D02*
X0113900Y0223325D01*
X0113549Y0224523D02*
X0118702Y0224523D01*
X0117456Y0225722D02*
X0112587Y0225722D01*
X0112400Y0226920D02*
X0117000Y0226920D01*
X0117000Y0228119D02*
X0112400Y0228119D01*
X0112400Y0229317D02*
X0117473Y0229317D01*
X0118500Y0230516D02*
X0112400Y0230516D01*
X0112400Y0231714D02*
X0118500Y0231714D01*
X0118500Y0232913D02*
X0112400Y0232913D01*
X0112400Y0234111D02*
X0118500Y0234111D01*
X0118500Y0235310D02*
X0112400Y0235310D01*
X0112400Y0236508D02*
X0118500Y0236508D01*
X0118500Y0237707D02*
X0112400Y0237707D01*
X0112400Y0238905D02*
X0118500Y0238905D01*
X0118500Y0240104D02*
X0112400Y0240104D01*
X0112400Y0241302D02*
X0118500Y0241302D01*
X0118187Y0242501D02*
X0114013Y0242501D01*
X0115212Y0243699D02*
X0116988Y0243699D01*
X0116368Y0244898D02*
X0115832Y0244898D01*
X0115919Y0248493D02*
X0116281Y0248493D01*
X0116779Y0249692D02*
X0115421Y0249692D01*
X0114222Y0250890D02*
X0117978Y0250890D01*
X0119036Y0252089D02*
X0124164Y0252089D01*
X0124222Y0250890D02*
X0175200Y0250890D01*
X0175200Y0249692D02*
X0125421Y0249692D01*
X0125919Y0248493D02*
X0175200Y0248493D01*
X0175200Y0247295D02*
X0126200Y0247295D01*
X0126200Y0246096D02*
X0175200Y0246096D01*
X0175200Y0244898D02*
X0125832Y0244898D01*
X0125212Y0243699D02*
X0175200Y0243699D01*
X0175200Y0242501D02*
X0124013Y0242501D01*
X0122300Y0241302D02*
X0175200Y0241302D01*
X0175200Y0240104D02*
X0122300Y0240104D01*
X0122300Y0238905D02*
X0175200Y0238905D01*
X0175200Y0237707D02*
X0122300Y0237707D01*
X0122300Y0236508D02*
X0175200Y0236508D01*
X0175200Y0235310D02*
X0122300Y0235310D01*
X0122300Y0234111D02*
X0175200Y0234111D01*
X0175200Y0232913D02*
X0122300Y0232913D01*
X0122300Y0231714D02*
X0175200Y0231714D01*
X0175200Y0230516D02*
X0122300Y0230516D01*
X0123327Y0229317D02*
X0175200Y0229317D01*
X0175200Y0228119D02*
X0123800Y0228119D01*
X0123800Y0226920D02*
X0175200Y0226920D01*
X0175200Y0225722D02*
X0123343Y0225722D01*
X0122098Y0224523D02*
X0175200Y0224523D01*
X0163340Y0200553D02*
X0159860Y0200553D01*
X0160979Y0199354D02*
X0162221Y0199354D01*
X0161724Y0198156D02*
X0161476Y0198156D01*
X0154542Y0186171D02*
X0120316Y0186171D01*
X0120200Y0187369D02*
X0153344Y0187369D01*
X0152145Y0188568D02*
X0119831Y0188568D01*
X0118842Y0189766D02*
X0150947Y0189766D01*
X0149748Y0190965D02*
X0097522Y0190965D01*
X0098721Y0189766D02*
X0114758Y0189766D01*
X0113769Y0188568D02*
X0099919Y0188568D01*
X0101118Y0187369D02*
X0113400Y0187369D01*
X0113463Y0186171D02*
X0102316Y0186171D01*
X0103515Y0184972D02*
X0114019Y0184972D01*
X0115704Y0183774D02*
X0104713Y0183774D01*
X0103984Y0192163D02*
X0099216Y0192163D01*
X0100574Y0193362D02*
X0102626Y0193362D01*
X0101925Y0194560D02*
X0101275Y0194560D01*
X0101476Y0198156D02*
X0101724Y0198156D01*
X0102221Y0199354D02*
X0100979Y0199354D01*
X0099860Y0200553D02*
X0103340Y0200553D01*
X0104766Y0205347D02*
X0094764Y0205347D01*
X0095000Y0204148D02*
X0105965Y0204148D01*
X0107163Y0202950D02*
X0094804Y0202950D01*
X0094060Y0201751D02*
X0108362Y0201751D01*
X0111275Y0194560D02*
X0111925Y0194560D01*
X0112626Y0193362D02*
X0110574Y0193362D01*
X0109216Y0192163D02*
X0113984Y0192163D01*
X0119216Y0192163D02*
X0123984Y0192163D01*
X0122626Y0193362D02*
X0120574Y0193362D01*
X0121275Y0194560D02*
X0121925Y0194560D01*
X0121724Y0198156D02*
X0121476Y0198156D01*
X0120979Y0199354D02*
X0122221Y0199354D01*
X0123340Y0200553D02*
X0119860Y0200553D01*
X0129860Y0200553D02*
X0133340Y0200553D01*
X0132221Y0199354D02*
X0130979Y0199354D01*
X0131476Y0198156D02*
X0131724Y0198156D01*
X0131925Y0194560D02*
X0131275Y0194560D01*
X0130574Y0193362D02*
X0132626Y0193362D01*
X0133984Y0192163D02*
X0129216Y0192163D01*
X0139216Y0192163D02*
X0143984Y0192163D01*
X0142626Y0193362D02*
X0140574Y0193362D01*
X0141275Y0194560D02*
X0141925Y0194560D01*
X0141724Y0198156D02*
X0141476Y0198156D01*
X0140979Y0199354D02*
X0142221Y0199354D01*
X0143340Y0200553D02*
X0139860Y0200553D01*
X0149860Y0200553D02*
X0153340Y0200553D01*
X0152221Y0199354D02*
X0150979Y0199354D01*
X0151476Y0198156D02*
X0151724Y0198156D01*
X0162888Y0163399D02*
X0166200Y0163399D01*
X0166200Y0162201D02*
X0164086Y0162201D01*
X0165285Y0161002D02*
X0166200Y0161002D01*
X0166200Y0151414D02*
X0165693Y0151414D01*
X0166200Y0140627D02*
X0162763Y0140627D01*
X0164185Y0139429D02*
X0166200Y0139429D01*
X0166200Y0138230D02*
X0165357Y0138230D01*
X0166049Y0137032D02*
X0166200Y0137032D01*
X0152380Y0121451D02*
X0050820Y0121451D01*
X0049554Y0162201D02*
X0053646Y0162201D01*
X0052447Y0163399D02*
X0050753Y0163399D01*
X0051399Y0164598D02*
X0051801Y0164598D01*
X0051631Y0168193D02*
X0051569Y0168193D01*
X0051072Y0169392D02*
X0052128Y0169392D01*
X0053236Y0170590D02*
X0049964Y0170590D01*
X0043236Y0170590D02*
X0006200Y0170590D01*
X0006200Y0169392D02*
X0042128Y0169392D01*
X0041631Y0168193D02*
X0006200Y0168193D01*
X0006200Y0166995D02*
X0041400Y0166995D01*
X0041400Y0165796D02*
X0006200Y0165796D01*
X0006200Y0164598D02*
X0041801Y0164598D01*
X0042447Y0163399D02*
X0006200Y0163399D01*
X0006200Y0162201D02*
X0043646Y0162201D01*
X0059554Y0162201D02*
X0063646Y0162201D01*
X0062447Y0163399D02*
X0060753Y0163399D01*
X0061399Y0164598D02*
X0061801Y0164598D01*
X0061631Y0168193D02*
X0061569Y0168193D01*
X0061072Y0169392D02*
X0062128Y0169392D01*
X0063236Y0170590D02*
X0059964Y0170590D01*
X0069964Y0170590D02*
X0073236Y0170590D01*
X0072128Y0169392D02*
X0071072Y0169392D01*
X0071569Y0168193D02*
X0071631Y0168193D01*
X0071801Y0164598D02*
X0071399Y0164598D01*
X0070753Y0163399D02*
X0072447Y0163399D01*
X0073646Y0162201D02*
X0069554Y0162201D01*
X0079554Y0162201D02*
X0083468Y0162201D01*
X0082251Y0163399D02*
X0080753Y0163399D01*
X0081399Y0164598D02*
X0081573Y0164598D01*
X0081962Y0169392D02*
X0081072Y0169392D01*
X0079964Y0170590D02*
X0082953Y0170590D01*
X0086216Y0170590D02*
X0086984Y0170590D01*
X0086984Y0169392D02*
X0086216Y0169392D01*
X0086216Y0168193D02*
X0086984Y0168193D01*
X0086984Y0166995D02*
X0086216Y0166995D01*
X0086216Y0165796D02*
X0086984Y0165796D01*
X0086984Y0164598D02*
X0086216Y0164598D01*
X0086216Y0163399D02*
X0086984Y0163399D01*
X0086984Y0162201D02*
X0086216Y0162201D01*
X0089732Y0162201D02*
X0093468Y0162201D01*
X0092251Y0163399D02*
X0090949Y0163399D01*
X0091238Y0169392D02*
X0091962Y0169392D01*
X0092953Y0170590D02*
X0090247Y0170590D01*
X0096216Y0170590D02*
X0096984Y0170590D01*
X0096984Y0169392D02*
X0096216Y0169392D01*
X0096216Y0168193D02*
X0096984Y0168193D01*
X0096984Y0166995D02*
X0096216Y0166995D01*
X0096216Y0165796D02*
X0096984Y0165796D01*
X0096984Y0164598D02*
X0096216Y0164598D01*
X0096216Y0163399D02*
X0096984Y0163399D01*
X0096984Y0162201D02*
X0096216Y0162201D01*
X0099732Y0162201D02*
X0103468Y0162201D01*
X0102251Y0163399D02*
X0100949Y0163399D01*
X0101238Y0169392D02*
X0101962Y0169392D01*
X0102953Y0170590D02*
X0100247Y0170590D01*
X0106216Y0170590D02*
X0106984Y0170590D01*
X0106984Y0169392D02*
X0106216Y0169392D01*
X0106216Y0168193D02*
X0106984Y0168193D01*
X0106984Y0166995D02*
X0106216Y0166995D01*
X0106216Y0165796D02*
X0106984Y0165796D01*
X0106984Y0164598D02*
X0106216Y0164598D01*
X0106216Y0163399D02*
X0106984Y0163399D01*
X0106984Y0162201D02*
X0106216Y0162201D01*
X0090950Y0192163D02*
X0089216Y0192163D01*
X0083984Y0192163D02*
X0079216Y0192163D01*
X0080574Y0193362D02*
X0082626Y0193362D01*
X0081925Y0194560D02*
X0081275Y0194560D01*
X0081476Y0198156D02*
X0081724Y0198156D01*
X0082221Y0199354D02*
X0080979Y0199354D01*
X0079860Y0200553D02*
X0083340Y0200553D01*
X0088396Y0202950D02*
X0071561Y0202950D01*
X0071700Y0201751D02*
X0089140Y0201751D01*
X0088200Y0204148D02*
X0071065Y0204148D01*
X0070066Y0205347D02*
X0088436Y0205347D01*
X0089237Y0206545D02*
X0067988Y0206545D01*
X0069956Y0207744D02*
X0102369Y0207744D01*
X0101171Y0208942D02*
X0071019Y0208942D01*
X0071516Y0210141D02*
X0099972Y0210141D01*
X0098774Y0211339D02*
X0071700Y0211339D01*
X0071700Y0212538D02*
X0097575Y0212538D01*
X0096376Y0213737D02*
X0071523Y0213737D01*
X0072722Y0214935D02*
X0095178Y0214935D01*
X0093979Y0216134D02*
X0073700Y0216134D01*
X0073700Y0217332D02*
X0092781Y0217332D01*
X0091582Y0218531D02*
X0073700Y0218531D01*
X0073700Y0219729D02*
X0090384Y0219729D01*
X0089700Y0220928D02*
X0073700Y0220928D01*
X0073700Y0222126D02*
X0089700Y0222126D01*
X0089700Y0223325D02*
X0073700Y0223325D01*
X0073700Y0224523D02*
X0089700Y0224523D01*
X0089700Y0225722D02*
X0073700Y0225722D01*
X0073700Y0226920D02*
X0089700Y0226920D01*
X0089700Y0228119D02*
X0073700Y0228119D01*
X0073700Y0229317D02*
X0089700Y0229317D01*
X0089700Y0230516D02*
X0073700Y0230516D01*
X0073700Y0231714D02*
X0089700Y0231714D01*
X0089700Y0232913D02*
X0073700Y0232913D01*
X0073700Y0234111D02*
X0089700Y0234111D01*
X0089700Y0235310D02*
X0073700Y0235310D01*
X0073700Y0236508D02*
X0089700Y0236508D01*
X0089700Y0237707D02*
X0073700Y0237707D01*
X0073700Y0238905D02*
X0089700Y0238905D01*
X0089700Y0240104D02*
X0073700Y0240104D01*
X0073700Y0241302D02*
X0089700Y0241302D01*
X0089700Y0242501D02*
X0073700Y0242501D01*
X0073700Y0243699D02*
X0089700Y0243699D01*
X0089700Y0244898D02*
X0073700Y0244898D01*
X0073700Y0246096D02*
X0089700Y0246096D01*
X0089700Y0247295D02*
X0073700Y0247295D01*
X0073700Y0248493D02*
X0089700Y0248493D01*
X0089700Y0249692D02*
X0073700Y0249692D01*
X0073700Y0250890D02*
X0089700Y0250890D01*
X0089700Y0252089D02*
X0089408Y0252089D01*
X0087000Y0252089D02*
X0086200Y0252089D01*
X0086200Y0253287D02*
X0087000Y0253287D01*
X0087000Y0254486D02*
X0086200Y0254486D01*
X0086200Y0255684D02*
X0087000Y0255684D01*
X0087000Y0258081D02*
X0086200Y0258081D01*
X0086200Y0259280D02*
X0087000Y0259280D01*
X0087000Y0260478D02*
X0086200Y0260478D01*
X0086200Y0261677D02*
X0087000Y0261677D01*
X0088126Y0261677D02*
X0091590Y0261677D01*
X0092788Y0262875D02*
X0056212Y0262875D01*
X0057410Y0261677D02*
X0075530Y0261677D01*
X0077670Y0261677D02*
X0085074Y0261677D01*
X0082983Y0260478D02*
X0079934Y0260478D01*
X0081010Y0259280D02*
X0082017Y0259280D01*
X0081507Y0258081D02*
X0081509Y0258081D01*
X0081729Y0254486D02*
X0081244Y0254486D01*
X0080500Y0253287D02*
X0082456Y0253287D01*
X0083792Y0252089D02*
X0079036Y0252089D01*
X0074164Y0252089D02*
X0073700Y0252089D01*
X0071500Y0256883D02*
X0071204Y0256883D01*
X0071693Y0258081D02*
X0070006Y0258081D01*
X0072190Y0259280D02*
X0059807Y0259280D01*
X0058609Y0260478D02*
X0073266Y0260478D01*
X0063509Y0247295D02*
X0036236Y0247295D01*
X0037999Y0248493D02*
X0062306Y0248493D01*
X0061647Y0249692D02*
X0038790Y0249692D01*
X0039145Y0250890D02*
X0061346Y0250890D01*
X0061311Y0252089D02*
X0039180Y0252089D01*
X0038888Y0253287D02*
X0061576Y0253287D01*
X0062146Y0254486D02*
X0038189Y0254486D01*
X0036716Y0255684D02*
X0058029Y0255684D01*
X0055013Y0264074D02*
X0105687Y0264074D01*
X0106886Y0265272D02*
X0053814Y0265272D01*
X0052616Y0266471D02*
X0108084Y0266471D01*
X0109283Y0267670D02*
X0051417Y0267670D01*
X0050219Y0268868D02*
X0110481Y0268868D01*
X0111680Y0270067D02*
X0049020Y0270067D01*
X0047822Y0271265D02*
X0112878Y0271265D01*
X0114077Y0272464D02*
X0046623Y0272464D01*
X0045425Y0273662D02*
X0115275Y0273662D01*
X0116474Y0274861D02*
X0046878Y0274861D01*
X0047000Y0276059D02*
X0113884Y0276059D01*
X0112992Y0277258D02*
X0047000Y0277258D01*
X0047000Y0278456D02*
X0112600Y0278456D01*
X0112600Y0284449D02*
X0089299Y0284449D01*
X0089299Y0285647D02*
X0112870Y0285647D01*
X0113589Y0286846D02*
X0089299Y0286846D01*
X0089299Y0288044D02*
X0114900Y0288044D01*
X0114900Y0289243D02*
X0089299Y0289243D01*
X0088991Y0290441D02*
X0114900Y0290441D01*
X0114900Y0291640D02*
X0088100Y0291640D01*
X0088100Y0292838D02*
X0114900Y0292838D01*
X0114900Y0294037D02*
X0088100Y0294037D01*
X0089122Y0295235D02*
X0114900Y0295235D01*
X0114900Y0296434D02*
X0090321Y0296434D01*
X0091519Y0297632D02*
X0114900Y0297632D01*
X0114900Y0298831D02*
X0091700Y0298831D01*
X0091700Y0300029D02*
X0114900Y0300029D01*
X0114900Y0301228D02*
X0091700Y0301228D01*
X0091700Y0302426D02*
X0114900Y0302426D01*
X0114900Y0303625D02*
X0091700Y0303625D01*
X0091700Y0304823D02*
X0114900Y0304823D01*
X0113921Y0306022D02*
X0091700Y0306022D01*
X0091700Y0307220D02*
X0113008Y0307220D01*
X0112600Y0308419D02*
X0091700Y0308419D01*
X0091700Y0309617D02*
X0112600Y0309617D01*
X0112600Y0310816D02*
X0091700Y0310816D01*
X0091700Y0312014D02*
X0112600Y0312014D01*
X0112600Y0313213D02*
X0091700Y0313213D01*
X0091700Y0314411D02*
X0112600Y0314411D01*
X0112854Y0315610D02*
X0091700Y0315610D01*
X0091700Y0316808D02*
X0113552Y0316808D01*
X0115338Y0318007D02*
X0091700Y0318007D01*
X0091700Y0319205D02*
X0150000Y0319205D01*
X0150000Y0318007D02*
X0148380Y0318007D01*
X0146800Y0318007D02*
X0146400Y0318007D01*
X0146400Y0316808D02*
X0146800Y0316808D01*
X0146800Y0315610D02*
X0146400Y0315610D01*
X0146400Y0314411D02*
X0146800Y0314411D01*
X0146800Y0313213D02*
X0146400Y0313213D01*
X0146400Y0312014D02*
X0146800Y0312014D01*
X0149896Y0316808D02*
X0150000Y0316808D01*
X0150000Y0320404D02*
X0091700Y0320404D01*
X0091700Y0321603D02*
X0150000Y0321603D01*
X0150000Y0322801D02*
X0091700Y0322801D01*
X0091700Y0324000D02*
X0150000Y0324000D01*
X0150000Y0325198D02*
X0105227Y0325198D01*
X0104994Y0325102D02*
X0107571Y0326169D01*
X0109543Y0328141D01*
X0110610Y0330717D01*
X0110610Y0333506D01*
X0109543Y0336083D01*
X0107571Y0338055D01*
X0104994Y0339122D01*
X0102206Y0339122D01*
X0099629Y0338055D01*
X0097657Y0336083D01*
X0096590Y0333506D01*
X0096590Y0330717D01*
X0097657Y0328141D01*
X0099629Y0326169D01*
X0102206Y0325102D01*
X0104994Y0325102D01*
X0101973Y0325198D02*
X0091700Y0325198D01*
X0091700Y0326397D02*
X0099401Y0326397D01*
X0098203Y0327595D02*
X0091700Y0327595D01*
X0091700Y0328794D02*
X0097387Y0328794D01*
X0096890Y0329992D02*
X0091700Y0329992D01*
X0091700Y0331191D02*
X0096590Y0331191D01*
X0096590Y0332389D02*
X0091700Y0332389D01*
X0090799Y0333588D02*
X0096623Y0333588D01*
X0097120Y0334786D02*
X0089601Y0334786D01*
X0088402Y0335985D02*
X0097616Y0335985D01*
X0098757Y0337183D02*
X0087204Y0337183D01*
X0086737Y0338063D02*
X0088270Y0337428D01*
X0089930Y0337428D01*
X0091463Y0338063D01*
X0092637Y0339237D01*
X0093272Y0340770D01*
X0093272Y0342430D01*
X0092637Y0343963D01*
X0091463Y0345137D01*
X0089930Y0345772D01*
X0088270Y0345772D01*
X0086737Y0345137D01*
X0085563Y0343963D01*
X0084928Y0342430D01*
X0084928Y0340770D01*
X0085563Y0339237D01*
X0086737Y0338063D01*
X0086419Y0338382D02*
X0086005Y0338382D01*
X0085421Y0339580D02*
X0084807Y0339580D01*
X0084928Y0340779D02*
X0083608Y0340779D01*
X0083272Y0341977D02*
X0084928Y0341977D01*
X0085237Y0343176D02*
X0082963Y0343176D01*
X0082225Y0344374D02*
X0085975Y0344374D01*
X0087790Y0345573D02*
X0080410Y0345573D01*
X0076716Y0346771D02*
X0150000Y0346771D01*
X0150000Y0345573D02*
X0090410Y0345573D01*
X0092225Y0344374D02*
X0150000Y0344374D01*
X0150000Y0343176D02*
X0092963Y0343176D01*
X0093272Y0341977D02*
X0150000Y0341977D01*
X0150000Y0340779D02*
X0093272Y0340779D01*
X0092779Y0339580D02*
X0150000Y0339580D01*
X0150000Y0338382D02*
X0106782Y0338382D01*
X0108443Y0337183D02*
X0150000Y0337183D01*
X0150000Y0335985D02*
X0109584Y0335985D01*
X0110080Y0334786D02*
X0150000Y0334786D01*
X0150000Y0333588D02*
X0110577Y0333588D01*
X0110610Y0332389D02*
X0150000Y0332389D01*
X0150000Y0331191D02*
X0110610Y0331191D01*
X0110310Y0329992D02*
X0150000Y0329992D01*
X0150000Y0328794D02*
X0109813Y0328794D01*
X0108997Y0327595D02*
X0150000Y0327595D01*
X0150000Y0326397D02*
X0107799Y0326397D01*
X0100418Y0338382D02*
X0091781Y0338382D01*
X0087900Y0328794D02*
X0087465Y0328794D01*
X0087900Y0327595D02*
X0085869Y0327595D01*
X0084386Y0327595D02*
X0083814Y0327595D01*
X0083814Y0327228D02*
X0083814Y0331314D01*
X0079728Y0331314D01*
X0079728Y0331256D01*
X0079836Y0330576D01*
X0080049Y0329922D01*
X0080361Y0329309D01*
X0080765Y0328752D01*
X0081252Y0328265D01*
X0081809Y0327861D01*
X0082422Y0327549D01*
X0083076Y0327336D01*
X0083756Y0327228D01*
X0083814Y0327228D01*
X0082331Y0327595D02*
X0080592Y0327595D01*
X0080735Y0328794D02*
X0079393Y0328794D01*
X0080026Y0329992D02*
X0078195Y0329992D01*
X0078272Y0331191D02*
X0079739Y0331191D01*
X0079799Y0332389D02*
X0078272Y0332389D01*
X0077792Y0333588D02*
X0080206Y0333588D01*
X0081104Y0334786D02*
X0076813Y0334786D01*
X0081790Y0326397D02*
X0087900Y0326397D01*
X0087900Y0325198D02*
X0082989Y0325198D01*
X0084187Y0324000D02*
X0087900Y0324000D01*
X0087900Y0322801D02*
X0085386Y0322801D01*
X0086584Y0321603D02*
X0087900Y0321603D01*
X0087900Y0320404D02*
X0087200Y0320404D01*
X0087200Y0319205D02*
X0087900Y0319205D01*
X0087900Y0318007D02*
X0087200Y0318007D01*
X0087200Y0316808D02*
X0087900Y0316808D01*
X0087900Y0315610D02*
X0087200Y0315610D01*
X0087200Y0314411D02*
X0087900Y0314411D01*
X0087900Y0313213D02*
X0087200Y0313213D01*
X0087200Y0312014D02*
X0087900Y0312014D01*
X0087900Y0310816D02*
X0087200Y0310816D01*
X0087200Y0309617D02*
X0087900Y0309617D01*
X0087900Y0308419D02*
X0087200Y0308419D01*
X0087200Y0307220D02*
X0087900Y0307220D01*
X0087900Y0306022D02*
X0087200Y0306022D01*
X0084947Y0296434D02*
X0083121Y0296434D01*
X0084300Y0295235D02*
X0081922Y0295235D01*
X0083814Y0328794D02*
X0084386Y0328794D01*
X0084386Y0329992D02*
X0083814Y0329992D01*
X0083814Y0331191D02*
X0084386Y0331191D01*
X0089837Y0356359D02*
X0053363Y0356359D01*
X0055439Y0357558D02*
X0087761Y0357558D01*
X0086387Y0358756D02*
X0056813Y0358756D01*
X0057965Y0359955D02*
X0085235Y0359955D01*
X0084543Y0361153D02*
X0058657Y0361153D01*
X0059349Y0362352D02*
X0083851Y0362352D01*
X0083529Y0363550D02*
X0059671Y0363550D01*
X0059992Y0364749D02*
X0083208Y0364749D01*
X0083100Y0365947D02*
X0060100Y0365947D01*
X0060100Y0367146D02*
X0083100Y0367146D01*
X0083179Y0368344D02*
X0060021Y0368344D01*
X0059699Y0369543D02*
X0083501Y0369543D01*
X0083822Y0370741D02*
X0059378Y0370741D01*
X0058719Y0371940D02*
X0084481Y0371940D01*
X0085173Y0373139D02*
X0058027Y0373139D01*
X0056919Y0374337D02*
X0086281Y0374337D01*
X0087577Y0375536D02*
X0055623Y0375536D01*
X0053547Y0376734D02*
X0089653Y0376734D01*
X0096590Y0377933D02*
X0046610Y0377933D01*
X0046610Y0379131D02*
X0096590Y0379131D01*
X0096729Y0380330D02*
X0046471Y0380330D01*
X0045975Y0381528D02*
X0097225Y0381528D01*
X0097813Y0382727D02*
X0045387Y0382727D01*
X0038822Y0370741D02*
X0018666Y0370741D01*
X0022077Y0371940D02*
X0037360Y0371940D01*
X0035148Y0373139D02*
X0023664Y0373139D01*
X0024877Y0374055D02*
X0024877Y0374055D01*
X0025052Y0374337D02*
X0033949Y0374337D01*
X0033282Y0375536D02*
X0025794Y0375536D01*
X0026536Y0376734D02*
X0032785Y0376734D01*
X0032590Y0377933D02*
X0027114Y0377933D01*
X0027338Y0379131D02*
X0032590Y0379131D01*
X0032729Y0380330D02*
X0027562Y0380330D01*
X0027787Y0381528D02*
X0033225Y0381528D01*
X0033813Y0382727D02*
X0027589Y0382727D01*
X0027365Y0383925D02*
X0035011Y0383925D01*
X0034993Y0385124D02*
X0027141Y0385124D01*
X0027044Y0385646D02*
X0027044Y0385646D01*
X0026625Y0386322D02*
X0034169Y0386322D01*
X0033730Y0387521D02*
X0025883Y0387521D01*
X0025141Y0388719D02*
X0033730Y0388719D01*
X0034020Y0389918D02*
X0023854Y0389918D01*
X0024877Y0389145D02*
X0024877Y0389145D01*
X0014464Y0370741D02*
X0006200Y0370741D01*
X0006200Y0369543D02*
X0038501Y0369543D01*
X0038179Y0368344D02*
X0006200Y0368344D01*
X0006200Y0367146D02*
X0038100Y0367146D01*
X0038100Y0365947D02*
X0006200Y0365947D01*
X0006200Y0364749D02*
X0038208Y0364749D01*
X0038529Y0363550D02*
X0006200Y0363550D01*
X0006200Y0362352D02*
X0038851Y0362352D01*
X0039543Y0361153D02*
X0006200Y0361153D01*
X0006200Y0359955D02*
X0040235Y0359955D01*
X0041387Y0358756D02*
X0006200Y0358756D01*
X0006200Y0357558D02*
X0042761Y0357558D01*
X0044837Y0356359D02*
X0006200Y0356359D01*
X0006200Y0371940D02*
X0011301Y0371940D01*
X0009416Y0373139D02*
X0006200Y0373139D01*
X0006200Y0374337D02*
X0008324Y0374337D01*
X0007231Y0375536D02*
X0006200Y0375536D01*
X0007078Y0375704D02*
X0007078Y0375704D01*
X0006679Y0376734D02*
X0006200Y0376734D01*
X0006200Y0377933D02*
X0006214Y0377933D01*
X0013535Y0370828D02*
X0013535Y0370828D01*
X0053367Y0339580D02*
X0055421Y0339580D01*
X0054928Y0340779D02*
X0054566Y0340779D01*
X0042172Y0290441D02*
X0006200Y0290441D01*
X0006200Y0289243D02*
X0043370Y0289243D01*
X0044569Y0288044D02*
X0006200Y0288044D01*
X0006200Y0286846D02*
X0031259Y0286846D01*
X0030060Y0285647D02*
X0006200Y0285647D01*
X0006200Y0284449D02*
X0026769Y0284449D01*
X0026400Y0283250D02*
X0006200Y0283250D01*
X0006200Y0282052D02*
X0026400Y0282052D01*
X0026400Y0280853D02*
X0006200Y0280853D01*
X0006200Y0279655D02*
X0026400Y0279655D01*
X0026400Y0278456D02*
X0006200Y0278456D01*
X0006200Y0277258D02*
X0026400Y0277258D01*
X0026400Y0276059D02*
X0006200Y0276059D01*
X0006200Y0274861D02*
X0026460Y0274861D01*
X0032100Y0273662D02*
X0006200Y0273662D01*
X0006200Y0272464D02*
X0032100Y0272464D01*
X0032100Y0271265D02*
X0006200Y0271265D01*
X0006200Y0270067D02*
X0032100Y0270067D01*
X0032100Y0268868D02*
X0006200Y0268868D01*
X0006200Y0267670D02*
X0032100Y0267670D01*
X0032100Y0266471D02*
X0006200Y0266471D01*
X0006200Y0265272D02*
X0032100Y0265272D01*
X0031887Y0264074D02*
X0006200Y0264074D01*
X0006200Y0262875D02*
X0030688Y0262875D01*
X0029490Y0261677D02*
X0006200Y0261677D01*
X0006200Y0260478D02*
X0028291Y0260478D01*
X0027093Y0259280D02*
X0006200Y0259280D01*
X0006200Y0258081D02*
X0025894Y0258081D01*
X0024696Y0256883D02*
X0006200Y0256883D01*
X0006200Y0255684D02*
X0023497Y0255684D01*
X0022299Y0254486D02*
X0006200Y0254486D01*
X0006200Y0253287D02*
X0022200Y0253287D01*
X0022200Y0252089D02*
X0006200Y0252089D01*
X0006200Y0250890D02*
X0022200Y0250890D01*
X0022200Y0249692D02*
X0006200Y0249692D01*
X0006200Y0248493D02*
X0022200Y0248493D01*
X0022200Y0247295D02*
X0006200Y0247295D01*
X0006200Y0246096D02*
X0022200Y0246096D01*
X0022200Y0244898D02*
X0006200Y0244898D01*
X0006200Y0243699D02*
X0022200Y0243699D01*
X0022200Y0242501D02*
X0006200Y0242501D01*
X0006200Y0241302D02*
X0022200Y0241302D01*
X0022200Y0240104D02*
X0006200Y0240104D01*
X0006200Y0238905D02*
X0022200Y0238905D01*
X0022200Y0237707D02*
X0006200Y0237707D01*
X0006200Y0236508D02*
X0022200Y0236508D01*
X0022200Y0235310D02*
X0006200Y0235310D01*
X0006200Y0234111D02*
X0022200Y0234111D01*
X0022200Y0232913D02*
X0006200Y0232913D01*
X0006200Y0231714D02*
X0022200Y0231714D01*
X0022200Y0230516D02*
X0006200Y0230516D01*
X0006200Y0229317D02*
X0022200Y0229317D01*
X0022594Y0228119D02*
X0006200Y0228119D01*
X0006200Y0226920D02*
X0023793Y0226920D01*
X0024991Y0225722D02*
X0006200Y0225722D01*
X0006200Y0224523D02*
X0025301Y0224523D01*
X0024552Y0223325D02*
X0006200Y0223325D01*
X0006200Y0222126D02*
X0024200Y0222126D01*
X0024200Y0220928D02*
X0006200Y0220928D01*
X0006200Y0219729D02*
X0024612Y0219729D01*
X0025447Y0218531D02*
X0006200Y0218531D01*
X0006200Y0217332D02*
X0027406Y0217332D01*
X0029167Y0226920D02*
X0064571Y0226920D01*
X0065123Y0236508D02*
X0026000Y0236508D01*
X0026000Y0235310D02*
X0026087Y0235310D01*
X0026000Y0237707D02*
X0026501Y0237707D01*
X0037488Y0214935D02*
X0062723Y0214935D01*
X0061965Y0213737D02*
X0038478Y0213737D01*
X0038165Y0208942D02*
X0062181Y0208942D01*
X0063244Y0207744D02*
X0036788Y0207744D01*
X0068719Y0196957D02*
X0071500Y0196957D01*
X0071724Y0198156D02*
X0070368Y0198156D01*
X0071190Y0199354D02*
X0072221Y0199354D01*
X0071686Y0200553D02*
X0073340Y0200553D01*
X0093963Y0206545D02*
X0103568Y0206545D01*
X0107764Y0220928D02*
X0094559Y0220928D01*
X0093500Y0222126D02*
X0107182Y0222126D01*
X0107100Y0223325D02*
X0093500Y0223325D01*
X0093500Y0224523D02*
X0107451Y0224523D01*
X0108413Y0225722D02*
X0093500Y0225722D01*
X0093500Y0226920D02*
X0108600Y0226920D01*
X0108600Y0228119D02*
X0093500Y0228119D01*
X0093500Y0229317D02*
X0108600Y0229317D01*
X0108600Y0230516D02*
X0093500Y0230516D01*
X0093500Y0231714D02*
X0108600Y0231714D01*
X0108600Y0232913D02*
X0093500Y0232913D01*
X0093500Y0234111D02*
X0108600Y0234111D01*
X0108600Y0235310D02*
X0093500Y0235310D01*
X0093500Y0236508D02*
X0108600Y0236508D01*
X0108600Y0237707D02*
X0093500Y0237707D01*
X0093500Y0238905D02*
X0108600Y0238905D01*
X0108600Y0240104D02*
X0093500Y0240104D01*
X0093500Y0241302D02*
X0108600Y0241302D01*
X0108187Y0242501D02*
X0093500Y0242501D01*
X0093500Y0243699D02*
X0106988Y0243699D01*
X0106368Y0244898D02*
X0093500Y0244898D01*
X0093500Y0246096D02*
X0106000Y0246096D01*
X0106000Y0247295D02*
X0093500Y0247295D01*
X0093500Y0248493D02*
X0106281Y0248493D01*
X0106779Y0249692D02*
X0093500Y0249692D01*
X0093500Y0250890D02*
X0107978Y0250890D01*
X0109036Y0252089D02*
X0114164Y0252089D01*
X0112700Y0253287D02*
X0110500Y0253287D01*
X0111244Y0254486D02*
X0111955Y0254486D01*
X0111693Y0258081D02*
X0111507Y0258081D01*
X0111010Y0259280D02*
X0112190Y0259280D01*
X0113266Y0260478D02*
X0109934Y0260478D01*
X0108664Y0261677D02*
X0115530Y0261677D01*
X0117670Y0261677D02*
X0125530Y0261677D01*
X0127670Y0261677D02*
X0135530Y0261677D01*
X0137670Y0261677D02*
X0145530Y0261677D01*
X0147670Y0261677D02*
X0155530Y0261677D01*
X0157670Y0261677D02*
X0161790Y0261677D01*
X0162988Y0262875D02*
X0109862Y0262875D01*
X0104164Y0252089D02*
X0099036Y0252089D01*
X0100500Y0253287D02*
X0102700Y0253287D01*
X0101955Y0254486D02*
X0101244Y0254486D01*
X0094164Y0252089D02*
X0093500Y0252089D01*
X0090391Y0260478D02*
X0090217Y0260478D01*
X0119611Y0286846D02*
X0123589Y0286846D01*
X0122870Y0285647D02*
X0120330Y0285647D01*
X0120600Y0284449D02*
X0122600Y0284449D01*
X0122600Y0283250D02*
X0120600Y0283250D01*
X0120600Y0282052D02*
X0122600Y0282052D01*
X0122466Y0280853D02*
X0120600Y0280853D01*
X0120600Y0279655D02*
X0121268Y0279655D01*
X0118700Y0288044D02*
X0125428Y0288044D01*
X0127772Y0288044D02*
X0134700Y0288044D01*
X0134700Y0289243D02*
X0118700Y0289243D01*
X0118700Y0290441D02*
X0134700Y0290441D01*
X0134700Y0291640D02*
X0118700Y0291640D01*
X0118700Y0292838D02*
X0134700Y0292838D01*
X0134750Y0294037D02*
X0118700Y0294037D01*
X0118700Y0295235D02*
X0135948Y0295235D01*
X0137147Y0296434D02*
X0118700Y0296434D01*
X0118700Y0297632D02*
X0138345Y0297632D01*
X0139544Y0298831D02*
X0118700Y0298831D01*
X0118700Y0300029D02*
X0140742Y0300029D01*
X0141941Y0301228D02*
X0118700Y0301228D01*
X0118700Y0302426D02*
X0143139Y0302426D01*
X0144338Y0303625D02*
X0118700Y0303625D01*
X0118700Y0304823D02*
X0126122Y0304823D01*
X0126269Y0304800D02*
X0126400Y0304800D01*
X0126400Y0311400D01*
X0126800Y0311400D01*
X0126800Y0311800D01*
X0130800Y0311800D01*
X0130800Y0314531D01*
X0130697Y0315184D01*
X0130492Y0315812D01*
X0130192Y0316401D01*
X0129804Y0316936D01*
X0129336Y0317404D01*
X0128801Y0317792D01*
X0128212Y0318092D01*
X0127584Y0318297D01*
X0126931Y0318400D01*
X0126800Y0318400D01*
X0126800Y0311800D01*
X0126400Y0311800D01*
X0126400Y0318400D01*
X0126269Y0318400D01*
X0125616Y0318297D01*
X0124988Y0318092D01*
X0124399Y0317792D01*
X0123864Y0317404D01*
X0123396Y0316936D01*
X0123008Y0316401D01*
X0122708Y0315812D01*
X0122503Y0315184D01*
X0122400Y0314531D01*
X0122400Y0311800D01*
X0126400Y0311800D01*
X0126400Y0311400D01*
X0122400Y0311400D01*
X0122400Y0308669D01*
X0122503Y0308016D01*
X0122708Y0307388D01*
X0123008Y0306799D01*
X0123396Y0306264D01*
X0123864Y0305796D01*
X0124399Y0305408D01*
X0124988Y0305108D01*
X0125616Y0304903D01*
X0126269Y0304800D01*
X0126400Y0304823D02*
X0126800Y0304823D01*
X0126800Y0304800D02*
X0126931Y0304800D01*
X0127584Y0304903D01*
X0128212Y0305108D01*
X0128801Y0305408D01*
X0129336Y0305796D01*
X0129804Y0306264D01*
X0130192Y0306799D01*
X0130492Y0307388D01*
X0130697Y0308016D01*
X0130800Y0308669D01*
X0130800Y0311400D01*
X0126800Y0311400D01*
X0126800Y0304800D01*
X0127078Y0304823D02*
X0145536Y0304823D01*
X0143638Y0306022D02*
X0139279Y0306022D01*
X0138866Y0305609D02*
X0139991Y0306734D01*
X0140600Y0308204D01*
X0140600Y0314996D01*
X0139991Y0316466D01*
X0138866Y0317591D01*
X0137396Y0318200D01*
X0135804Y0318200D01*
X0134334Y0317591D01*
X0133209Y0316466D01*
X0132600Y0314996D01*
X0132600Y0308204D01*
X0133209Y0306734D01*
X0134334Y0305609D01*
X0135804Y0305000D01*
X0137396Y0305000D01*
X0138866Y0305609D01*
X0140192Y0307220D02*
X0142793Y0307220D01*
X0142440Y0308419D02*
X0140600Y0308419D01*
X0140600Y0309617D02*
X0142400Y0309617D01*
X0142400Y0310816D02*
X0140600Y0310816D01*
X0140600Y0312014D02*
X0142400Y0312014D01*
X0142400Y0313213D02*
X0140600Y0313213D01*
X0140600Y0314411D02*
X0142400Y0314411D01*
X0142642Y0315610D02*
X0140346Y0315610D01*
X0139648Y0316808D02*
X0143304Y0316808D01*
X0144820Y0318007D02*
X0137862Y0318007D01*
X0135338Y0318007D02*
X0128380Y0318007D01*
X0126800Y0318007D02*
X0126400Y0318007D01*
X0126400Y0316808D02*
X0126800Y0316808D01*
X0126800Y0315610D02*
X0126400Y0315610D01*
X0126400Y0314411D02*
X0126800Y0314411D01*
X0126800Y0313213D02*
X0126400Y0313213D01*
X0126400Y0312014D02*
X0126800Y0312014D01*
X0126800Y0310816D02*
X0126400Y0310816D01*
X0126400Y0309617D02*
X0126800Y0309617D01*
X0126800Y0308419D02*
X0126400Y0308419D01*
X0126400Y0307220D02*
X0126800Y0307220D01*
X0126800Y0306022D02*
X0126400Y0306022D01*
X0129562Y0306022D02*
X0133921Y0306022D01*
X0133008Y0307220D02*
X0130407Y0307220D01*
X0130760Y0308419D02*
X0132600Y0308419D01*
X0132600Y0309617D02*
X0130800Y0309617D01*
X0130800Y0310816D02*
X0132600Y0310816D01*
X0132600Y0312014D02*
X0130800Y0312014D01*
X0130800Y0313213D02*
X0132600Y0313213D01*
X0132600Y0314411D02*
X0130800Y0314411D01*
X0130558Y0315610D02*
X0132854Y0315610D01*
X0133552Y0316808D02*
X0129896Y0316808D01*
X0124820Y0318007D02*
X0117862Y0318007D01*
X0119648Y0316808D02*
X0123304Y0316808D01*
X0122642Y0315610D02*
X0120346Y0315610D01*
X0120600Y0314411D02*
X0122400Y0314411D01*
X0122400Y0313213D02*
X0120600Y0313213D01*
X0120600Y0312014D02*
X0122400Y0312014D01*
X0122400Y0310816D02*
X0120600Y0310816D01*
X0120600Y0309617D02*
X0122400Y0309617D01*
X0122440Y0308419D02*
X0120600Y0308419D01*
X0120192Y0307220D02*
X0122793Y0307220D01*
X0123638Y0306022D02*
X0119279Y0306022D01*
X0129611Y0286846D02*
X0133589Y0286846D01*
X0132870Y0285647D02*
X0130330Y0285647D01*
X0130600Y0284449D02*
X0132600Y0284449D01*
X0132600Y0283250D02*
X0130600Y0283250D01*
X0130600Y0282052D02*
X0132600Y0282052D01*
X0132600Y0280853D02*
X0130600Y0280853D01*
X0130600Y0279655D02*
X0132600Y0279655D01*
X0132600Y0278456D02*
X0130600Y0278456D01*
X0130208Y0277258D02*
X0132992Y0277258D01*
X0133884Y0276059D02*
X0129316Y0276059D01*
X0129934Y0260478D02*
X0133266Y0260478D01*
X0132190Y0259280D02*
X0131010Y0259280D01*
X0131507Y0258081D02*
X0131693Y0258081D01*
X0131955Y0254486D02*
X0131244Y0254486D01*
X0130500Y0253287D02*
X0132700Y0253287D01*
X0134164Y0252089D02*
X0129036Y0252089D01*
X0122700Y0253287D02*
X0120500Y0253287D01*
X0121244Y0254486D02*
X0121955Y0254486D01*
X0121693Y0258081D02*
X0121507Y0258081D01*
X0121010Y0259280D02*
X0122190Y0259280D01*
X0123266Y0260478D02*
X0119934Y0260478D01*
X0139934Y0260478D02*
X0143266Y0260478D01*
X0142190Y0259280D02*
X0141010Y0259280D01*
X0141507Y0258081D02*
X0141693Y0258081D01*
X0141955Y0254486D02*
X0141244Y0254486D01*
X0140500Y0253287D02*
X0142700Y0253287D01*
X0144164Y0252089D02*
X0139036Y0252089D01*
X0149036Y0252089D02*
X0154164Y0252089D01*
X0152700Y0253287D02*
X0150500Y0253287D01*
X0151244Y0254486D02*
X0151955Y0254486D01*
X0151693Y0258081D02*
X0151507Y0258081D01*
X0151010Y0259280D02*
X0152190Y0259280D01*
X0153266Y0260478D02*
X0149934Y0260478D01*
X0149599Y0276059D02*
X0153601Y0276059D01*
X0152774Y0277258D02*
X0150426Y0277258D01*
X0150766Y0278456D02*
X0152434Y0278456D01*
X0152400Y0279655D02*
X0150800Y0279655D01*
X0150800Y0280853D02*
X0152400Y0280853D01*
X0152400Y0282052D02*
X0150800Y0282052D01*
X0150800Y0283250D02*
X0152400Y0283250D01*
X0152400Y0284449D02*
X0150800Y0284449D01*
X0150546Y0285647D02*
X0152654Y0285647D01*
X0153331Y0286846D02*
X0149869Y0286846D01*
X0146800Y0286846D02*
X0146400Y0286846D01*
X0146400Y0285647D02*
X0146800Y0285647D01*
X0146800Y0284449D02*
X0146400Y0284449D01*
X0146400Y0283250D02*
X0146800Y0283250D01*
X0146800Y0282052D02*
X0146400Y0282052D01*
X0146400Y0280853D02*
X0146800Y0280853D01*
X0146800Y0279655D02*
X0146400Y0279655D01*
X0146400Y0278456D02*
X0146800Y0278456D01*
X0146800Y0277258D02*
X0146400Y0277258D01*
X0146400Y0276059D02*
X0146800Y0276059D01*
X0143601Y0276059D02*
X0139316Y0276059D01*
X0140208Y0277258D02*
X0142774Y0277258D01*
X0142434Y0278456D02*
X0140600Y0278456D01*
X0140600Y0279655D02*
X0142400Y0279655D01*
X0142400Y0280853D02*
X0140600Y0280853D01*
X0140600Y0282052D02*
X0142400Y0282052D01*
X0142400Y0283250D02*
X0140600Y0283250D01*
X0140600Y0284449D02*
X0142400Y0284449D01*
X0142654Y0285647D02*
X0140330Y0285647D01*
X0139611Y0286846D02*
X0143331Y0286846D01*
X0156400Y0286846D02*
X0156800Y0286846D01*
X0156800Y0285647D02*
X0156400Y0285647D01*
X0156400Y0284449D02*
X0156800Y0284449D01*
X0156800Y0283250D02*
X0156400Y0283250D01*
X0156400Y0282052D02*
X0156800Y0282052D01*
X0156800Y0280853D02*
X0156400Y0280853D01*
X0156400Y0279655D02*
X0156800Y0279655D01*
X0156800Y0278456D02*
X0156400Y0278456D01*
X0156400Y0277258D02*
X0156800Y0277258D01*
X0156800Y0276059D02*
X0156400Y0276059D01*
X0159599Y0276059D02*
X0163884Y0276059D01*
X0162992Y0277258D02*
X0160426Y0277258D01*
X0160766Y0278456D02*
X0162600Y0278456D01*
X0162600Y0279655D02*
X0160800Y0279655D01*
X0160800Y0280853D02*
X0162600Y0280853D01*
X0162600Y0282052D02*
X0160800Y0282052D01*
X0160800Y0283250D02*
X0162600Y0283250D01*
X0162600Y0284449D02*
X0160800Y0284449D01*
X0160546Y0285647D02*
X0162870Y0285647D01*
X0163589Y0286846D02*
X0159869Y0286846D01*
X0169611Y0286846D02*
X0173331Y0286846D01*
X0172654Y0285647D02*
X0170330Y0285647D01*
X0170600Y0284449D02*
X0172400Y0284449D01*
X0172400Y0283250D02*
X0170600Y0283250D01*
X0170600Y0282052D02*
X0172400Y0282052D01*
X0172400Y0280853D02*
X0170600Y0280853D01*
X0170600Y0279655D02*
X0172400Y0279655D01*
X0172434Y0278456D02*
X0170600Y0278456D01*
X0170208Y0277258D02*
X0172774Y0277258D01*
X0173601Y0276059D02*
X0169316Y0276059D01*
X0176400Y0276059D02*
X0176800Y0276059D01*
X0176800Y0277258D02*
X0176400Y0277258D01*
X0176400Y0278456D02*
X0176800Y0278456D01*
X0176800Y0279655D02*
X0176400Y0279655D01*
X0176400Y0280853D02*
X0176800Y0280853D01*
X0176800Y0282052D02*
X0176400Y0282052D01*
X0176400Y0283250D02*
X0176800Y0283250D01*
X0176800Y0284449D02*
X0176400Y0284449D01*
X0176400Y0285647D02*
X0176800Y0285647D01*
X0176800Y0286846D02*
X0176400Y0286846D01*
X0179869Y0286846D02*
X0183589Y0286846D01*
X0182870Y0285647D02*
X0180546Y0285647D01*
X0180800Y0284449D02*
X0182600Y0284449D01*
X0182600Y0283250D02*
X0180800Y0283250D01*
X0180800Y0282052D02*
X0182600Y0282052D01*
X0182600Y0280853D02*
X0180800Y0280853D01*
X0180800Y0279655D02*
X0182600Y0279655D01*
X0182600Y0278456D02*
X0180766Y0278456D01*
X0180426Y0277258D02*
X0182992Y0277258D01*
X0183884Y0276059D02*
X0179599Y0276059D01*
X0182809Y0260478D02*
X0183266Y0260478D01*
X0183500Y0252089D02*
X0184164Y0252089D01*
X0174164Y0252089D02*
X0169036Y0252089D01*
X0170500Y0253287D02*
X0172700Y0253287D01*
X0171955Y0254486D02*
X0171244Y0254486D01*
X0164164Y0252089D02*
X0159036Y0252089D01*
X0160500Y0253287D02*
X0162700Y0253287D01*
X0161955Y0254486D02*
X0161244Y0254486D01*
X0160591Y0260478D02*
X0159934Y0260478D01*
X0159562Y0306022D02*
X0163921Y0306022D01*
X0163008Y0307220D02*
X0160407Y0307220D01*
X0160760Y0308419D02*
X0162600Y0308419D01*
X0162600Y0309617D02*
X0160800Y0309617D01*
X0160800Y0310816D02*
X0162600Y0310816D01*
X0162600Y0312014D02*
X0160800Y0312014D01*
X0160800Y0313213D02*
X0162600Y0313213D01*
X0162600Y0314411D02*
X0160800Y0314411D01*
X0160558Y0315610D02*
X0162854Y0315610D01*
X0163552Y0316808D02*
X0159896Y0316808D01*
X0154820Y0318007D02*
X0153800Y0318007D01*
X0179896Y0316808D02*
X0183304Y0316808D01*
X0182642Y0315610D02*
X0180558Y0315610D01*
X0180800Y0314411D02*
X0182400Y0314411D01*
X0182400Y0313213D02*
X0180800Y0313213D01*
X0180800Y0312014D02*
X0182400Y0312014D01*
X0182400Y0310816D02*
X0180800Y0310816D01*
X0180800Y0309617D02*
X0182400Y0309617D01*
X0182440Y0308419D02*
X0180760Y0308419D01*
X0180407Y0307220D02*
X0182793Y0307220D01*
X0183638Y0306022D02*
X0179562Y0306022D01*
X0175591Y0382727D02*
X0109387Y0382727D01*
X0108189Y0383925D02*
X0175694Y0383925D01*
X0176159Y0385124D02*
X0108207Y0385124D01*
X0109031Y0386322D02*
X0176623Y0386322D01*
X0177078Y0387496D02*
X0177078Y0387496D01*
X0177100Y0387521D02*
X0109470Y0387521D01*
X0109470Y0388719D02*
X0178193Y0388719D01*
X0179285Y0389918D02*
X0109180Y0389918D01*
X0103819Y0101076D02*
X0099381Y0101076D01*
X0100676Y0099878D02*
X0102524Y0099878D01*
X0101833Y0098679D02*
X0101367Y0098679D01*
X0101104Y0093885D02*
X0102096Y0093885D01*
X0103159Y0092687D02*
X0100041Y0092687D01*
X0097848Y0091488D02*
X0105352Y0091488D01*
X0137387Y0055500D02*
X0134000Y0052113D01*
X0134000Y0038368D01*
X0134092Y0038330D01*
X0135268Y0037155D01*
X0135813Y0037700D01*
X0139200Y0041087D01*
X0139200Y0054832D01*
X0139108Y0054870D01*
X0137932Y0056045D01*
X0137387Y0055500D01*
X0137420Y0055533D02*
X0138444Y0055533D01*
X0139200Y0054334D02*
X0136221Y0054334D01*
X0135023Y0053136D02*
X0139200Y0053136D01*
X0139200Y0051937D02*
X0134000Y0051937D01*
X0134000Y0050739D02*
X0139200Y0050739D01*
X0139200Y0049540D02*
X0134000Y0049540D01*
X0134000Y0048342D02*
X0139200Y0048342D01*
X0139200Y0047143D02*
X0134000Y0047143D01*
X0134000Y0045945D02*
X0139200Y0045945D01*
X0139200Y0044746D02*
X0134000Y0044746D01*
X0134000Y0043548D02*
X0139200Y0043548D01*
X0139200Y0042349D02*
X0134000Y0042349D01*
X0134000Y0041151D02*
X0139200Y0041151D01*
X0138065Y0039952D02*
X0134000Y0039952D01*
X0134000Y0038754D02*
X0136867Y0038754D01*
X0135668Y0037555D02*
X0134867Y0037555D01*
X0148400Y0037623D02*
X0148400Y0055577D01*
X0149108Y0054870D01*
X0150725Y0054200D01*
X0152475Y0054200D01*
X0154092Y0054870D01*
X0155330Y0056108D01*
X0156000Y0057725D01*
X0156000Y0065475D01*
X0155330Y0067092D01*
X0154092Y0068330D01*
X0153800Y0068451D01*
X0153800Y0083613D01*
X0168000Y0097813D01*
X0168000Y0060887D01*
X0166000Y0058887D01*
X0166000Y0065475D01*
X0165330Y0067092D01*
X0164092Y0068330D01*
X0162475Y0069000D01*
X0160725Y0069000D01*
X0159108Y0068330D01*
X0157870Y0067092D01*
X0157200Y0065475D01*
X0157200Y0057725D01*
X0157870Y0056108D01*
X0159108Y0054870D01*
X0160725Y0054200D01*
X0161313Y0054200D01*
X0150000Y0042887D01*
X0150000Y0038700D01*
X0149108Y0038330D01*
X0148400Y0037623D01*
X0148400Y0038754D02*
X0150000Y0038754D01*
X0150000Y0039952D02*
X0148400Y0039952D01*
X0148400Y0041151D02*
X0150000Y0041151D01*
X0150000Y0042349D02*
X0148400Y0042349D01*
X0148400Y0043548D02*
X0150661Y0043548D01*
X0151859Y0044746D02*
X0148400Y0044746D01*
X0148400Y0045945D02*
X0153058Y0045945D01*
X0154256Y0047143D02*
X0148400Y0047143D01*
X0148400Y0048342D02*
X0155455Y0048342D01*
X0156653Y0049540D02*
X0148400Y0049540D01*
X0148400Y0050739D02*
X0157852Y0050739D01*
X0159050Y0051937D02*
X0148400Y0051937D01*
X0148400Y0053136D02*
X0160249Y0053136D01*
X0160400Y0054334D02*
X0152800Y0054334D01*
X0154756Y0055533D02*
X0158444Y0055533D01*
X0157611Y0056732D02*
X0155589Y0056732D01*
X0156000Y0057930D02*
X0157200Y0057930D01*
X0157200Y0059129D02*
X0156000Y0059129D01*
X0156000Y0060327D02*
X0157200Y0060327D01*
X0157200Y0061526D02*
X0156000Y0061526D01*
X0156000Y0062724D02*
X0157200Y0062724D01*
X0157200Y0063923D02*
X0156000Y0063923D01*
X0156000Y0065121D02*
X0157200Y0065121D01*
X0157550Y0066320D02*
X0155650Y0066320D01*
X0154904Y0067518D02*
X0158296Y0067518D01*
X0160041Y0068717D02*
X0153800Y0068717D01*
X0153800Y0069915D02*
X0168000Y0069915D01*
X0168000Y0068717D02*
X0163159Y0068717D01*
X0164904Y0067518D02*
X0168000Y0067518D01*
X0168000Y0066320D02*
X0165650Y0066320D01*
X0166000Y0065121D02*
X0168000Y0065121D01*
X0168000Y0063923D02*
X0166000Y0063923D01*
X0166000Y0062724D02*
X0168000Y0062724D01*
X0168000Y0061526D02*
X0166000Y0061526D01*
X0166000Y0060327D02*
X0167440Y0060327D01*
X0166242Y0059129D02*
X0166000Y0059129D01*
X0168000Y0071114D02*
X0153800Y0071114D01*
X0153800Y0072312D02*
X0168000Y0072312D01*
X0168000Y0073511D02*
X0153800Y0073511D01*
X0153800Y0074709D02*
X0168000Y0074709D01*
X0168000Y0075908D02*
X0153800Y0075908D01*
X0153800Y0077106D02*
X0168000Y0077106D01*
X0168000Y0078305D02*
X0153800Y0078305D01*
X0153800Y0079503D02*
X0168000Y0079503D01*
X0168000Y0080702D02*
X0153800Y0080702D01*
X0153800Y0081900D02*
X0168000Y0081900D01*
X0168000Y0083099D02*
X0153800Y0083099D01*
X0154484Y0084297D02*
X0168000Y0084297D01*
X0168000Y0085496D02*
X0155683Y0085496D01*
X0156881Y0086694D02*
X0168000Y0086694D01*
X0168000Y0087893D02*
X0158080Y0087893D01*
X0159278Y0089091D02*
X0168000Y0089091D01*
X0168000Y0090290D02*
X0160477Y0090290D01*
X0161675Y0091488D02*
X0168000Y0091488D01*
X0168000Y0092687D02*
X0162874Y0092687D01*
X0164072Y0093885D02*
X0168000Y0093885D01*
X0168000Y0095084D02*
X0165271Y0095084D01*
X0166469Y0096282D02*
X0168000Y0096282D01*
X0168000Y0097481D02*
X0167668Y0097481D01*
X0164691Y0099878D02*
X0160676Y0099878D01*
X0161367Y0098679D02*
X0163492Y0098679D01*
X0162294Y0097481D02*
X0161800Y0097481D01*
X0159381Y0101076D02*
X0165889Y0101076D01*
X0153819Y0101076D02*
X0149381Y0101076D01*
X0150676Y0099878D02*
X0152524Y0099878D01*
X0151833Y0098679D02*
X0151367Y0098679D01*
X0148444Y0055533D02*
X0148400Y0055533D01*
X0148400Y0054334D02*
X0150400Y0054334D01*
X0164867Y0037555D02*
X0174368Y0037555D01*
X0173170Y0036357D02*
X0165635Y0036357D01*
X0166000Y0035158D02*
X0171971Y0035158D01*
X0170773Y0033960D02*
X0166000Y0033960D01*
X0166000Y0032761D02*
X0169574Y0032761D01*
X0168376Y0031563D02*
X0166000Y0031563D01*
X0166000Y0030364D02*
X0167177Y0030364D01*
X0187633Y0027752D02*
X0187633Y0027752D01*
X0191090Y0026769D02*
X0193850Y0026769D01*
X0193850Y0025570D02*
X0192990Y0025570D01*
X0191592Y0026626D02*
X0191592Y0026626D01*
D22*
X0171600Y0046600D03*
X0166600Y0011600D03*
X0136600Y0041600D03*
X0126600Y0046600D03*
X0116600Y0046600D03*
X0106600Y0046600D03*
X0096600Y0046600D03*
X0086600Y0041600D03*
X0066600Y0081600D03*
X0051600Y0071600D03*
X0051600Y0091600D03*
X0116600Y0081600D03*
X0131600Y0081600D03*
X0141600Y0081600D03*
X0156600Y0081600D03*
X0186600Y0171600D03*
X0156600Y0241600D03*
X0136600Y0216600D03*
X0076600Y0316600D03*
X0066600Y0291600D03*
X0051600Y0311600D03*
X0036600Y0314100D03*
X0056600Y0236600D03*
X0051600Y0226600D03*
M02*
