G75*
%MOIN*%
%OFA0B0*%
%FSLAX25Y25*%
%IPPOS*%
%LPD*%
%AMOC8*
5,1,8,0,0,1.08239X$1,22.5*
%
%ADD10C,0.00000*%
%ADD11C,0.01200*%
%ADD12C,0.00600*%
%ADD13C,0.00400*%
%ADD14C,0.00200*%
%ADD15C,0.00500*%
%ADD16C,0.05000*%
%ADD17C,0.00800*%
%ADD18C,0.00039*%
%ADD19C,0.00700*%
D10*
X0001600Y0001600D02*
X0001600Y0395301D01*
X0198450Y0395301D01*
X0198450Y0001600D01*
X0001600Y0001600D01*
X0010301Y0016600D02*
X0010303Y0016758D01*
X0010309Y0016916D01*
X0010319Y0017074D01*
X0010333Y0017232D01*
X0010351Y0017389D01*
X0010372Y0017546D01*
X0010398Y0017702D01*
X0010428Y0017858D01*
X0010461Y0018013D01*
X0010499Y0018166D01*
X0010540Y0018319D01*
X0010585Y0018471D01*
X0010634Y0018622D01*
X0010687Y0018771D01*
X0010743Y0018919D01*
X0010803Y0019065D01*
X0010867Y0019210D01*
X0010935Y0019353D01*
X0011006Y0019495D01*
X0011080Y0019635D01*
X0011158Y0019772D01*
X0011240Y0019908D01*
X0011324Y0020042D01*
X0011413Y0020173D01*
X0011504Y0020302D01*
X0011599Y0020429D01*
X0011696Y0020554D01*
X0011797Y0020676D01*
X0011901Y0020795D01*
X0012008Y0020912D01*
X0012118Y0021026D01*
X0012231Y0021137D01*
X0012346Y0021246D01*
X0012464Y0021351D01*
X0012585Y0021453D01*
X0012708Y0021553D01*
X0012834Y0021649D01*
X0012962Y0021742D01*
X0013092Y0021832D01*
X0013225Y0021918D01*
X0013360Y0022002D01*
X0013496Y0022081D01*
X0013635Y0022158D01*
X0013776Y0022230D01*
X0013918Y0022300D01*
X0014062Y0022365D01*
X0014208Y0022427D01*
X0014355Y0022485D01*
X0014504Y0022540D01*
X0014654Y0022591D01*
X0014805Y0022638D01*
X0014957Y0022681D01*
X0015110Y0022720D01*
X0015265Y0022756D01*
X0015420Y0022787D01*
X0015576Y0022815D01*
X0015732Y0022839D01*
X0015889Y0022859D01*
X0016047Y0022875D01*
X0016204Y0022887D01*
X0016363Y0022895D01*
X0016521Y0022899D01*
X0016679Y0022899D01*
X0016837Y0022895D01*
X0016996Y0022887D01*
X0017153Y0022875D01*
X0017311Y0022859D01*
X0017468Y0022839D01*
X0017624Y0022815D01*
X0017780Y0022787D01*
X0017935Y0022756D01*
X0018090Y0022720D01*
X0018243Y0022681D01*
X0018395Y0022638D01*
X0018546Y0022591D01*
X0018696Y0022540D01*
X0018845Y0022485D01*
X0018992Y0022427D01*
X0019138Y0022365D01*
X0019282Y0022300D01*
X0019424Y0022230D01*
X0019565Y0022158D01*
X0019704Y0022081D01*
X0019840Y0022002D01*
X0019975Y0021918D01*
X0020108Y0021832D01*
X0020238Y0021742D01*
X0020366Y0021649D01*
X0020492Y0021553D01*
X0020615Y0021453D01*
X0020736Y0021351D01*
X0020854Y0021246D01*
X0020969Y0021137D01*
X0021082Y0021026D01*
X0021192Y0020912D01*
X0021299Y0020795D01*
X0021403Y0020676D01*
X0021504Y0020554D01*
X0021601Y0020429D01*
X0021696Y0020302D01*
X0021787Y0020173D01*
X0021876Y0020042D01*
X0021960Y0019908D01*
X0022042Y0019772D01*
X0022120Y0019635D01*
X0022194Y0019495D01*
X0022265Y0019353D01*
X0022333Y0019210D01*
X0022397Y0019065D01*
X0022457Y0018919D01*
X0022513Y0018771D01*
X0022566Y0018622D01*
X0022615Y0018471D01*
X0022660Y0018319D01*
X0022701Y0018166D01*
X0022739Y0018013D01*
X0022772Y0017858D01*
X0022802Y0017702D01*
X0022828Y0017546D01*
X0022849Y0017389D01*
X0022867Y0017232D01*
X0022881Y0017074D01*
X0022891Y0016916D01*
X0022897Y0016758D01*
X0022899Y0016600D01*
X0022897Y0016442D01*
X0022891Y0016284D01*
X0022881Y0016126D01*
X0022867Y0015968D01*
X0022849Y0015811D01*
X0022828Y0015654D01*
X0022802Y0015498D01*
X0022772Y0015342D01*
X0022739Y0015187D01*
X0022701Y0015034D01*
X0022660Y0014881D01*
X0022615Y0014729D01*
X0022566Y0014578D01*
X0022513Y0014429D01*
X0022457Y0014281D01*
X0022397Y0014135D01*
X0022333Y0013990D01*
X0022265Y0013847D01*
X0022194Y0013705D01*
X0022120Y0013565D01*
X0022042Y0013428D01*
X0021960Y0013292D01*
X0021876Y0013158D01*
X0021787Y0013027D01*
X0021696Y0012898D01*
X0021601Y0012771D01*
X0021504Y0012646D01*
X0021403Y0012524D01*
X0021299Y0012405D01*
X0021192Y0012288D01*
X0021082Y0012174D01*
X0020969Y0012063D01*
X0020854Y0011954D01*
X0020736Y0011849D01*
X0020615Y0011747D01*
X0020492Y0011647D01*
X0020366Y0011551D01*
X0020238Y0011458D01*
X0020108Y0011368D01*
X0019975Y0011282D01*
X0019840Y0011198D01*
X0019704Y0011119D01*
X0019565Y0011042D01*
X0019424Y0010970D01*
X0019282Y0010900D01*
X0019138Y0010835D01*
X0018992Y0010773D01*
X0018845Y0010715D01*
X0018696Y0010660D01*
X0018546Y0010609D01*
X0018395Y0010562D01*
X0018243Y0010519D01*
X0018090Y0010480D01*
X0017935Y0010444D01*
X0017780Y0010413D01*
X0017624Y0010385D01*
X0017468Y0010361D01*
X0017311Y0010341D01*
X0017153Y0010325D01*
X0016996Y0010313D01*
X0016837Y0010305D01*
X0016679Y0010301D01*
X0016521Y0010301D01*
X0016363Y0010305D01*
X0016204Y0010313D01*
X0016047Y0010325D01*
X0015889Y0010341D01*
X0015732Y0010361D01*
X0015576Y0010385D01*
X0015420Y0010413D01*
X0015265Y0010444D01*
X0015110Y0010480D01*
X0014957Y0010519D01*
X0014805Y0010562D01*
X0014654Y0010609D01*
X0014504Y0010660D01*
X0014355Y0010715D01*
X0014208Y0010773D01*
X0014062Y0010835D01*
X0013918Y0010900D01*
X0013776Y0010970D01*
X0013635Y0011042D01*
X0013496Y0011119D01*
X0013360Y0011198D01*
X0013225Y0011282D01*
X0013092Y0011368D01*
X0012962Y0011458D01*
X0012834Y0011551D01*
X0012708Y0011647D01*
X0012585Y0011747D01*
X0012464Y0011849D01*
X0012346Y0011954D01*
X0012231Y0012063D01*
X0012118Y0012174D01*
X0012008Y0012288D01*
X0011901Y0012405D01*
X0011797Y0012524D01*
X0011696Y0012646D01*
X0011599Y0012771D01*
X0011504Y0012898D01*
X0011413Y0013027D01*
X0011324Y0013158D01*
X0011240Y0013292D01*
X0011158Y0013428D01*
X0011080Y0013565D01*
X0011006Y0013705D01*
X0010935Y0013847D01*
X0010867Y0013990D01*
X0010803Y0014135D01*
X0010743Y0014281D01*
X0010687Y0014429D01*
X0010634Y0014578D01*
X0010585Y0014729D01*
X0010540Y0014881D01*
X0010499Y0015034D01*
X0010461Y0015187D01*
X0010428Y0015342D01*
X0010398Y0015498D01*
X0010372Y0015654D01*
X0010351Y0015811D01*
X0010333Y0015968D01*
X0010319Y0016126D01*
X0010309Y0016284D01*
X0010303Y0016442D01*
X0010301Y0016600D01*
X0040301Y0131600D02*
X0040303Y0131758D01*
X0040309Y0131916D01*
X0040319Y0132074D01*
X0040333Y0132232D01*
X0040351Y0132389D01*
X0040372Y0132546D01*
X0040398Y0132702D01*
X0040428Y0132858D01*
X0040461Y0133013D01*
X0040499Y0133166D01*
X0040540Y0133319D01*
X0040585Y0133471D01*
X0040634Y0133622D01*
X0040687Y0133771D01*
X0040743Y0133919D01*
X0040803Y0134065D01*
X0040867Y0134210D01*
X0040935Y0134353D01*
X0041006Y0134495D01*
X0041080Y0134635D01*
X0041158Y0134772D01*
X0041240Y0134908D01*
X0041324Y0135042D01*
X0041413Y0135173D01*
X0041504Y0135302D01*
X0041599Y0135429D01*
X0041696Y0135554D01*
X0041797Y0135676D01*
X0041901Y0135795D01*
X0042008Y0135912D01*
X0042118Y0136026D01*
X0042231Y0136137D01*
X0042346Y0136246D01*
X0042464Y0136351D01*
X0042585Y0136453D01*
X0042708Y0136553D01*
X0042834Y0136649D01*
X0042962Y0136742D01*
X0043092Y0136832D01*
X0043225Y0136918D01*
X0043360Y0137002D01*
X0043496Y0137081D01*
X0043635Y0137158D01*
X0043776Y0137230D01*
X0043918Y0137300D01*
X0044062Y0137365D01*
X0044208Y0137427D01*
X0044355Y0137485D01*
X0044504Y0137540D01*
X0044654Y0137591D01*
X0044805Y0137638D01*
X0044957Y0137681D01*
X0045110Y0137720D01*
X0045265Y0137756D01*
X0045420Y0137787D01*
X0045576Y0137815D01*
X0045732Y0137839D01*
X0045889Y0137859D01*
X0046047Y0137875D01*
X0046204Y0137887D01*
X0046363Y0137895D01*
X0046521Y0137899D01*
X0046679Y0137899D01*
X0046837Y0137895D01*
X0046996Y0137887D01*
X0047153Y0137875D01*
X0047311Y0137859D01*
X0047468Y0137839D01*
X0047624Y0137815D01*
X0047780Y0137787D01*
X0047935Y0137756D01*
X0048090Y0137720D01*
X0048243Y0137681D01*
X0048395Y0137638D01*
X0048546Y0137591D01*
X0048696Y0137540D01*
X0048845Y0137485D01*
X0048992Y0137427D01*
X0049138Y0137365D01*
X0049282Y0137300D01*
X0049424Y0137230D01*
X0049565Y0137158D01*
X0049704Y0137081D01*
X0049840Y0137002D01*
X0049975Y0136918D01*
X0050108Y0136832D01*
X0050238Y0136742D01*
X0050366Y0136649D01*
X0050492Y0136553D01*
X0050615Y0136453D01*
X0050736Y0136351D01*
X0050854Y0136246D01*
X0050969Y0136137D01*
X0051082Y0136026D01*
X0051192Y0135912D01*
X0051299Y0135795D01*
X0051403Y0135676D01*
X0051504Y0135554D01*
X0051601Y0135429D01*
X0051696Y0135302D01*
X0051787Y0135173D01*
X0051876Y0135042D01*
X0051960Y0134908D01*
X0052042Y0134772D01*
X0052120Y0134635D01*
X0052194Y0134495D01*
X0052265Y0134353D01*
X0052333Y0134210D01*
X0052397Y0134065D01*
X0052457Y0133919D01*
X0052513Y0133771D01*
X0052566Y0133622D01*
X0052615Y0133471D01*
X0052660Y0133319D01*
X0052701Y0133166D01*
X0052739Y0133013D01*
X0052772Y0132858D01*
X0052802Y0132702D01*
X0052828Y0132546D01*
X0052849Y0132389D01*
X0052867Y0132232D01*
X0052881Y0132074D01*
X0052891Y0131916D01*
X0052897Y0131758D01*
X0052899Y0131600D01*
X0052897Y0131442D01*
X0052891Y0131284D01*
X0052881Y0131126D01*
X0052867Y0130968D01*
X0052849Y0130811D01*
X0052828Y0130654D01*
X0052802Y0130498D01*
X0052772Y0130342D01*
X0052739Y0130187D01*
X0052701Y0130034D01*
X0052660Y0129881D01*
X0052615Y0129729D01*
X0052566Y0129578D01*
X0052513Y0129429D01*
X0052457Y0129281D01*
X0052397Y0129135D01*
X0052333Y0128990D01*
X0052265Y0128847D01*
X0052194Y0128705D01*
X0052120Y0128565D01*
X0052042Y0128428D01*
X0051960Y0128292D01*
X0051876Y0128158D01*
X0051787Y0128027D01*
X0051696Y0127898D01*
X0051601Y0127771D01*
X0051504Y0127646D01*
X0051403Y0127524D01*
X0051299Y0127405D01*
X0051192Y0127288D01*
X0051082Y0127174D01*
X0050969Y0127063D01*
X0050854Y0126954D01*
X0050736Y0126849D01*
X0050615Y0126747D01*
X0050492Y0126647D01*
X0050366Y0126551D01*
X0050238Y0126458D01*
X0050108Y0126368D01*
X0049975Y0126282D01*
X0049840Y0126198D01*
X0049704Y0126119D01*
X0049565Y0126042D01*
X0049424Y0125970D01*
X0049282Y0125900D01*
X0049138Y0125835D01*
X0048992Y0125773D01*
X0048845Y0125715D01*
X0048696Y0125660D01*
X0048546Y0125609D01*
X0048395Y0125562D01*
X0048243Y0125519D01*
X0048090Y0125480D01*
X0047935Y0125444D01*
X0047780Y0125413D01*
X0047624Y0125385D01*
X0047468Y0125361D01*
X0047311Y0125341D01*
X0047153Y0125325D01*
X0046996Y0125313D01*
X0046837Y0125305D01*
X0046679Y0125301D01*
X0046521Y0125301D01*
X0046363Y0125305D01*
X0046204Y0125313D01*
X0046047Y0125325D01*
X0045889Y0125341D01*
X0045732Y0125361D01*
X0045576Y0125385D01*
X0045420Y0125413D01*
X0045265Y0125444D01*
X0045110Y0125480D01*
X0044957Y0125519D01*
X0044805Y0125562D01*
X0044654Y0125609D01*
X0044504Y0125660D01*
X0044355Y0125715D01*
X0044208Y0125773D01*
X0044062Y0125835D01*
X0043918Y0125900D01*
X0043776Y0125970D01*
X0043635Y0126042D01*
X0043496Y0126119D01*
X0043360Y0126198D01*
X0043225Y0126282D01*
X0043092Y0126368D01*
X0042962Y0126458D01*
X0042834Y0126551D01*
X0042708Y0126647D01*
X0042585Y0126747D01*
X0042464Y0126849D01*
X0042346Y0126954D01*
X0042231Y0127063D01*
X0042118Y0127174D01*
X0042008Y0127288D01*
X0041901Y0127405D01*
X0041797Y0127524D01*
X0041696Y0127646D01*
X0041599Y0127771D01*
X0041504Y0127898D01*
X0041413Y0128027D01*
X0041324Y0128158D01*
X0041240Y0128292D01*
X0041158Y0128428D01*
X0041080Y0128565D01*
X0041006Y0128705D01*
X0040935Y0128847D01*
X0040867Y0128990D01*
X0040803Y0129135D01*
X0040743Y0129281D01*
X0040687Y0129429D01*
X0040634Y0129578D01*
X0040585Y0129729D01*
X0040540Y0129881D01*
X0040499Y0130034D01*
X0040461Y0130187D01*
X0040428Y0130342D01*
X0040398Y0130498D01*
X0040372Y0130654D01*
X0040351Y0130811D01*
X0040333Y0130968D01*
X0040319Y0131126D01*
X0040309Y0131284D01*
X0040303Y0131442D01*
X0040301Y0131600D01*
X0150301Y0131600D02*
X0150303Y0131758D01*
X0150309Y0131916D01*
X0150319Y0132074D01*
X0150333Y0132232D01*
X0150351Y0132389D01*
X0150372Y0132546D01*
X0150398Y0132702D01*
X0150428Y0132858D01*
X0150461Y0133013D01*
X0150499Y0133166D01*
X0150540Y0133319D01*
X0150585Y0133471D01*
X0150634Y0133622D01*
X0150687Y0133771D01*
X0150743Y0133919D01*
X0150803Y0134065D01*
X0150867Y0134210D01*
X0150935Y0134353D01*
X0151006Y0134495D01*
X0151080Y0134635D01*
X0151158Y0134772D01*
X0151240Y0134908D01*
X0151324Y0135042D01*
X0151413Y0135173D01*
X0151504Y0135302D01*
X0151599Y0135429D01*
X0151696Y0135554D01*
X0151797Y0135676D01*
X0151901Y0135795D01*
X0152008Y0135912D01*
X0152118Y0136026D01*
X0152231Y0136137D01*
X0152346Y0136246D01*
X0152464Y0136351D01*
X0152585Y0136453D01*
X0152708Y0136553D01*
X0152834Y0136649D01*
X0152962Y0136742D01*
X0153092Y0136832D01*
X0153225Y0136918D01*
X0153360Y0137002D01*
X0153496Y0137081D01*
X0153635Y0137158D01*
X0153776Y0137230D01*
X0153918Y0137300D01*
X0154062Y0137365D01*
X0154208Y0137427D01*
X0154355Y0137485D01*
X0154504Y0137540D01*
X0154654Y0137591D01*
X0154805Y0137638D01*
X0154957Y0137681D01*
X0155110Y0137720D01*
X0155265Y0137756D01*
X0155420Y0137787D01*
X0155576Y0137815D01*
X0155732Y0137839D01*
X0155889Y0137859D01*
X0156047Y0137875D01*
X0156204Y0137887D01*
X0156363Y0137895D01*
X0156521Y0137899D01*
X0156679Y0137899D01*
X0156837Y0137895D01*
X0156996Y0137887D01*
X0157153Y0137875D01*
X0157311Y0137859D01*
X0157468Y0137839D01*
X0157624Y0137815D01*
X0157780Y0137787D01*
X0157935Y0137756D01*
X0158090Y0137720D01*
X0158243Y0137681D01*
X0158395Y0137638D01*
X0158546Y0137591D01*
X0158696Y0137540D01*
X0158845Y0137485D01*
X0158992Y0137427D01*
X0159138Y0137365D01*
X0159282Y0137300D01*
X0159424Y0137230D01*
X0159565Y0137158D01*
X0159704Y0137081D01*
X0159840Y0137002D01*
X0159975Y0136918D01*
X0160108Y0136832D01*
X0160238Y0136742D01*
X0160366Y0136649D01*
X0160492Y0136553D01*
X0160615Y0136453D01*
X0160736Y0136351D01*
X0160854Y0136246D01*
X0160969Y0136137D01*
X0161082Y0136026D01*
X0161192Y0135912D01*
X0161299Y0135795D01*
X0161403Y0135676D01*
X0161504Y0135554D01*
X0161601Y0135429D01*
X0161696Y0135302D01*
X0161787Y0135173D01*
X0161876Y0135042D01*
X0161960Y0134908D01*
X0162042Y0134772D01*
X0162120Y0134635D01*
X0162194Y0134495D01*
X0162265Y0134353D01*
X0162333Y0134210D01*
X0162397Y0134065D01*
X0162457Y0133919D01*
X0162513Y0133771D01*
X0162566Y0133622D01*
X0162615Y0133471D01*
X0162660Y0133319D01*
X0162701Y0133166D01*
X0162739Y0133013D01*
X0162772Y0132858D01*
X0162802Y0132702D01*
X0162828Y0132546D01*
X0162849Y0132389D01*
X0162867Y0132232D01*
X0162881Y0132074D01*
X0162891Y0131916D01*
X0162897Y0131758D01*
X0162899Y0131600D01*
X0162897Y0131442D01*
X0162891Y0131284D01*
X0162881Y0131126D01*
X0162867Y0130968D01*
X0162849Y0130811D01*
X0162828Y0130654D01*
X0162802Y0130498D01*
X0162772Y0130342D01*
X0162739Y0130187D01*
X0162701Y0130034D01*
X0162660Y0129881D01*
X0162615Y0129729D01*
X0162566Y0129578D01*
X0162513Y0129429D01*
X0162457Y0129281D01*
X0162397Y0129135D01*
X0162333Y0128990D01*
X0162265Y0128847D01*
X0162194Y0128705D01*
X0162120Y0128565D01*
X0162042Y0128428D01*
X0161960Y0128292D01*
X0161876Y0128158D01*
X0161787Y0128027D01*
X0161696Y0127898D01*
X0161601Y0127771D01*
X0161504Y0127646D01*
X0161403Y0127524D01*
X0161299Y0127405D01*
X0161192Y0127288D01*
X0161082Y0127174D01*
X0160969Y0127063D01*
X0160854Y0126954D01*
X0160736Y0126849D01*
X0160615Y0126747D01*
X0160492Y0126647D01*
X0160366Y0126551D01*
X0160238Y0126458D01*
X0160108Y0126368D01*
X0159975Y0126282D01*
X0159840Y0126198D01*
X0159704Y0126119D01*
X0159565Y0126042D01*
X0159424Y0125970D01*
X0159282Y0125900D01*
X0159138Y0125835D01*
X0158992Y0125773D01*
X0158845Y0125715D01*
X0158696Y0125660D01*
X0158546Y0125609D01*
X0158395Y0125562D01*
X0158243Y0125519D01*
X0158090Y0125480D01*
X0157935Y0125444D01*
X0157780Y0125413D01*
X0157624Y0125385D01*
X0157468Y0125361D01*
X0157311Y0125341D01*
X0157153Y0125325D01*
X0156996Y0125313D01*
X0156837Y0125305D01*
X0156679Y0125301D01*
X0156521Y0125301D01*
X0156363Y0125305D01*
X0156204Y0125313D01*
X0156047Y0125325D01*
X0155889Y0125341D01*
X0155732Y0125361D01*
X0155576Y0125385D01*
X0155420Y0125413D01*
X0155265Y0125444D01*
X0155110Y0125480D01*
X0154957Y0125519D01*
X0154805Y0125562D01*
X0154654Y0125609D01*
X0154504Y0125660D01*
X0154355Y0125715D01*
X0154208Y0125773D01*
X0154062Y0125835D01*
X0153918Y0125900D01*
X0153776Y0125970D01*
X0153635Y0126042D01*
X0153496Y0126119D01*
X0153360Y0126198D01*
X0153225Y0126282D01*
X0153092Y0126368D01*
X0152962Y0126458D01*
X0152834Y0126551D01*
X0152708Y0126647D01*
X0152585Y0126747D01*
X0152464Y0126849D01*
X0152346Y0126954D01*
X0152231Y0127063D01*
X0152118Y0127174D01*
X0152008Y0127288D01*
X0151901Y0127405D01*
X0151797Y0127524D01*
X0151696Y0127646D01*
X0151599Y0127771D01*
X0151504Y0127898D01*
X0151413Y0128027D01*
X0151324Y0128158D01*
X0151240Y0128292D01*
X0151158Y0128428D01*
X0151080Y0128565D01*
X0151006Y0128705D01*
X0150935Y0128847D01*
X0150867Y0128990D01*
X0150803Y0129135D01*
X0150743Y0129281D01*
X0150687Y0129429D01*
X0150634Y0129578D01*
X0150585Y0129729D01*
X0150540Y0129881D01*
X0150499Y0130034D01*
X0150461Y0130187D01*
X0150428Y0130342D01*
X0150398Y0130498D01*
X0150372Y0130654D01*
X0150351Y0130811D01*
X0150333Y0130968D01*
X0150319Y0131126D01*
X0150309Y0131284D01*
X0150303Y0131442D01*
X0150301Y0131600D01*
X0180301Y0016600D02*
X0180303Y0016758D01*
X0180309Y0016916D01*
X0180319Y0017074D01*
X0180333Y0017232D01*
X0180351Y0017389D01*
X0180372Y0017546D01*
X0180398Y0017702D01*
X0180428Y0017858D01*
X0180461Y0018013D01*
X0180499Y0018166D01*
X0180540Y0018319D01*
X0180585Y0018471D01*
X0180634Y0018622D01*
X0180687Y0018771D01*
X0180743Y0018919D01*
X0180803Y0019065D01*
X0180867Y0019210D01*
X0180935Y0019353D01*
X0181006Y0019495D01*
X0181080Y0019635D01*
X0181158Y0019772D01*
X0181240Y0019908D01*
X0181324Y0020042D01*
X0181413Y0020173D01*
X0181504Y0020302D01*
X0181599Y0020429D01*
X0181696Y0020554D01*
X0181797Y0020676D01*
X0181901Y0020795D01*
X0182008Y0020912D01*
X0182118Y0021026D01*
X0182231Y0021137D01*
X0182346Y0021246D01*
X0182464Y0021351D01*
X0182585Y0021453D01*
X0182708Y0021553D01*
X0182834Y0021649D01*
X0182962Y0021742D01*
X0183092Y0021832D01*
X0183225Y0021918D01*
X0183360Y0022002D01*
X0183496Y0022081D01*
X0183635Y0022158D01*
X0183776Y0022230D01*
X0183918Y0022300D01*
X0184062Y0022365D01*
X0184208Y0022427D01*
X0184355Y0022485D01*
X0184504Y0022540D01*
X0184654Y0022591D01*
X0184805Y0022638D01*
X0184957Y0022681D01*
X0185110Y0022720D01*
X0185265Y0022756D01*
X0185420Y0022787D01*
X0185576Y0022815D01*
X0185732Y0022839D01*
X0185889Y0022859D01*
X0186047Y0022875D01*
X0186204Y0022887D01*
X0186363Y0022895D01*
X0186521Y0022899D01*
X0186679Y0022899D01*
X0186837Y0022895D01*
X0186996Y0022887D01*
X0187153Y0022875D01*
X0187311Y0022859D01*
X0187468Y0022839D01*
X0187624Y0022815D01*
X0187780Y0022787D01*
X0187935Y0022756D01*
X0188090Y0022720D01*
X0188243Y0022681D01*
X0188395Y0022638D01*
X0188546Y0022591D01*
X0188696Y0022540D01*
X0188845Y0022485D01*
X0188992Y0022427D01*
X0189138Y0022365D01*
X0189282Y0022300D01*
X0189424Y0022230D01*
X0189565Y0022158D01*
X0189704Y0022081D01*
X0189840Y0022002D01*
X0189975Y0021918D01*
X0190108Y0021832D01*
X0190238Y0021742D01*
X0190366Y0021649D01*
X0190492Y0021553D01*
X0190615Y0021453D01*
X0190736Y0021351D01*
X0190854Y0021246D01*
X0190969Y0021137D01*
X0191082Y0021026D01*
X0191192Y0020912D01*
X0191299Y0020795D01*
X0191403Y0020676D01*
X0191504Y0020554D01*
X0191601Y0020429D01*
X0191696Y0020302D01*
X0191787Y0020173D01*
X0191876Y0020042D01*
X0191960Y0019908D01*
X0192042Y0019772D01*
X0192120Y0019635D01*
X0192194Y0019495D01*
X0192265Y0019353D01*
X0192333Y0019210D01*
X0192397Y0019065D01*
X0192457Y0018919D01*
X0192513Y0018771D01*
X0192566Y0018622D01*
X0192615Y0018471D01*
X0192660Y0018319D01*
X0192701Y0018166D01*
X0192739Y0018013D01*
X0192772Y0017858D01*
X0192802Y0017702D01*
X0192828Y0017546D01*
X0192849Y0017389D01*
X0192867Y0017232D01*
X0192881Y0017074D01*
X0192891Y0016916D01*
X0192897Y0016758D01*
X0192899Y0016600D01*
X0192897Y0016442D01*
X0192891Y0016284D01*
X0192881Y0016126D01*
X0192867Y0015968D01*
X0192849Y0015811D01*
X0192828Y0015654D01*
X0192802Y0015498D01*
X0192772Y0015342D01*
X0192739Y0015187D01*
X0192701Y0015034D01*
X0192660Y0014881D01*
X0192615Y0014729D01*
X0192566Y0014578D01*
X0192513Y0014429D01*
X0192457Y0014281D01*
X0192397Y0014135D01*
X0192333Y0013990D01*
X0192265Y0013847D01*
X0192194Y0013705D01*
X0192120Y0013565D01*
X0192042Y0013428D01*
X0191960Y0013292D01*
X0191876Y0013158D01*
X0191787Y0013027D01*
X0191696Y0012898D01*
X0191601Y0012771D01*
X0191504Y0012646D01*
X0191403Y0012524D01*
X0191299Y0012405D01*
X0191192Y0012288D01*
X0191082Y0012174D01*
X0190969Y0012063D01*
X0190854Y0011954D01*
X0190736Y0011849D01*
X0190615Y0011747D01*
X0190492Y0011647D01*
X0190366Y0011551D01*
X0190238Y0011458D01*
X0190108Y0011368D01*
X0189975Y0011282D01*
X0189840Y0011198D01*
X0189704Y0011119D01*
X0189565Y0011042D01*
X0189424Y0010970D01*
X0189282Y0010900D01*
X0189138Y0010835D01*
X0188992Y0010773D01*
X0188845Y0010715D01*
X0188696Y0010660D01*
X0188546Y0010609D01*
X0188395Y0010562D01*
X0188243Y0010519D01*
X0188090Y0010480D01*
X0187935Y0010444D01*
X0187780Y0010413D01*
X0187624Y0010385D01*
X0187468Y0010361D01*
X0187311Y0010341D01*
X0187153Y0010325D01*
X0186996Y0010313D01*
X0186837Y0010305D01*
X0186679Y0010301D01*
X0186521Y0010301D01*
X0186363Y0010305D01*
X0186204Y0010313D01*
X0186047Y0010325D01*
X0185889Y0010341D01*
X0185732Y0010361D01*
X0185576Y0010385D01*
X0185420Y0010413D01*
X0185265Y0010444D01*
X0185110Y0010480D01*
X0184957Y0010519D01*
X0184805Y0010562D01*
X0184654Y0010609D01*
X0184504Y0010660D01*
X0184355Y0010715D01*
X0184208Y0010773D01*
X0184062Y0010835D01*
X0183918Y0010900D01*
X0183776Y0010970D01*
X0183635Y0011042D01*
X0183496Y0011119D01*
X0183360Y0011198D01*
X0183225Y0011282D01*
X0183092Y0011368D01*
X0182962Y0011458D01*
X0182834Y0011551D01*
X0182708Y0011647D01*
X0182585Y0011747D01*
X0182464Y0011849D01*
X0182346Y0011954D01*
X0182231Y0012063D01*
X0182118Y0012174D01*
X0182008Y0012288D01*
X0181901Y0012405D01*
X0181797Y0012524D01*
X0181696Y0012646D01*
X0181599Y0012771D01*
X0181504Y0012898D01*
X0181413Y0013027D01*
X0181324Y0013158D01*
X0181240Y0013292D01*
X0181158Y0013428D01*
X0181080Y0013565D01*
X0181006Y0013705D01*
X0180935Y0013847D01*
X0180867Y0013990D01*
X0180803Y0014135D01*
X0180743Y0014281D01*
X0180687Y0014429D01*
X0180634Y0014578D01*
X0180585Y0014729D01*
X0180540Y0014881D01*
X0180499Y0015034D01*
X0180461Y0015187D01*
X0180428Y0015342D01*
X0180398Y0015498D01*
X0180372Y0015654D01*
X0180351Y0015811D01*
X0180333Y0015968D01*
X0180319Y0016126D01*
X0180309Y0016284D01*
X0180303Y0016442D01*
X0180301Y0016600D01*
X0087700Y0366600D02*
X0087702Y0366760D01*
X0087708Y0366919D01*
X0087718Y0367078D01*
X0087732Y0367237D01*
X0087750Y0367396D01*
X0087771Y0367554D01*
X0087797Y0367711D01*
X0087827Y0367868D01*
X0087860Y0368024D01*
X0087898Y0368179D01*
X0087939Y0368333D01*
X0087984Y0368486D01*
X0088033Y0368638D01*
X0088086Y0368789D01*
X0088142Y0368938D01*
X0088203Y0369086D01*
X0088266Y0369232D01*
X0088334Y0369377D01*
X0088405Y0369520D01*
X0088479Y0369661D01*
X0088557Y0369800D01*
X0088639Y0369937D01*
X0088724Y0370072D01*
X0088812Y0370205D01*
X0088904Y0370336D01*
X0088998Y0370464D01*
X0089096Y0370590D01*
X0089197Y0370714D01*
X0089301Y0370835D01*
X0089408Y0370953D01*
X0089518Y0371069D01*
X0089631Y0371182D01*
X0089747Y0371292D01*
X0089865Y0371399D01*
X0089986Y0371503D01*
X0090110Y0371604D01*
X0090236Y0371702D01*
X0090364Y0371796D01*
X0090495Y0371888D01*
X0090628Y0371976D01*
X0090763Y0372061D01*
X0090900Y0372143D01*
X0091039Y0372221D01*
X0091180Y0372295D01*
X0091323Y0372366D01*
X0091468Y0372434D01*
X0091614Y0372497D01*
X0091762Y0372558D01*
X0091911Y0372614D01*
X0092062Y0372667D01*
X0092214Y0372716D01*
X0092367Y0372761D01*
X0092521Y0372802D01*
X0092676Y0372840D01*
X0092832Y0372873D01*
X0092989Y0372903D01*
X0093146Y0372929D01*
X0093304Y0372950D01*
X0093463Y0372968D01*
X0093622Y0372982D01*
X0093781Y0372992D01*
X0093940Y0372998D01*
X0094100Y0373000D01*
X0094260Y0372998D01*
X0094419Y0372992D01*
X0094578Y0372982D01*
X0094737Y0372968D01*
X0094896Y0372950D01*
X0095054Y0372929D01*
X0095211Y0372903D01*
X0095368Y0372873D01*
X0095524Y0372840D01*
X0095679Y0372802D01*
X0095833Y0372761D01*
X0095986Y0372716D01*
X0096138Y0372667D01*
X0096289Y0372614D01*
X0096438Y0372558D01*
X0096586Y0372497D01*
X0096732Y0372434D01*
X0096877Y0372366D01*
X0097020Y0372295D01*
X0097161Y0372221D01*
X0097300Y0372143D01*
X0097437Y0372061D01*
X0097572Y0371976D01*
X0097705Y0371888D01*
X0097836Y0371796D01*
X0097964Y0371702D01*
X0098090Y0371604D01*
X0098214Y0371503D01*
X0098335Y0371399D01*
X0098453Y0371292D01*
X0098569Y0371182D01*
X0098682Y0371069D01*
X0098792Y0370953D01*
X0098899Y0370835D01*
X0099003Y0370714D01*
X0099104Y0370590D01*
X0099202Y0370464D01*
X0099296Y0370336D01*
X0099388Y0370205D01*
X0099476Y0370072D01*
X0099561Y0369937D01*
X0099643Y0369800D01*
X0099721Y0369661D01*
X0099795Y0369520D01*
X0099866Y0369377D01*
X0099934Y0369232D01*
X0099997Y0369086D01*
X0100058Y0368938D01*
X0100114Y0368789D01*
X0100167Y0368638D01*
X0100216Y0368486D01*
X0100261Y0368333D01*
X0100302Y0368179D01*
X0100340Y0368024D01*
X0100373Y0367868D01*
X0100403Y0367711D01*
X0100429Y0367554D01*
X0100450Y0367396D01*
X0100468Y0367237D01*
X0100482Y0367078D01*
X0100492Y0366919D01*
X0100498Y0366760D01*
X0100500Y0366600D01*
X0100498Y0366440D01*
X0100492Y0366281D01*
X0100482Y0366122D01*
X0100468Y0365963D01*
X0100450Y0365804D01*
X0100429Y0365646D01*
X0100403Y0365489D01*
X0100373Y0365332D01*
X0100340Y0365176D01*
X0100302Y0365021D01*
X0100261Y0364867D01*
X0100216Y0364714D01*
X0100167Y0364562D01*
X0100114Y0364411D01*
X0100058Y0364262D01*
X0099997Y0364114D01*
X0099934Y0363968D01*
X0099866Y0363823D01*
X0099795Y0363680D01*
X0099721Y0363539D01*
X0099643Y0363400D01*
X0099561Y0363263D01*
X0099476Y0363128D01*
X0099388Y0362995D01*
X0099296Y0362864D01*
X0099202Y0362736D01*
X0099104Y0362610D01*
X0099003Y0362486D01*
X0098899Y0362365D01*
X0098792Y0362247D01*
X0098682Y0362131D01*
X0098569Y0362018D01*
X0098453Y0361908D01*
X0098335Y0361801D01*
X0098214Y0361697D01*
X0098090Y0361596D01*
X0097964Y0361498D01*
X0097836Y0361404D01*
X0097705Y0361312D01*
X0097572Y0361224D01*
X0097437Y0361139D01*
X0097300Y0361057D01*
X0097161Y0360979D01*
X0097020Y0360905D01*
X0096877Y0360834D01*
X0096732Y0360766D01*
X0096586Y0360703D01*
X0096438Y0360642D01*
X0096289Y0360586D01*
X0096138Y0360533D01*
X0095986Y0360484D01*
X0095833Y0360439D01*
X0095679Y0360398D01*
X0095524Y0360360D01*
X0095368Y0360327D01*
X0095211Y0360297D01*
X0095054Y0360271D01*
X0094896Y0360250D01*
X0094737Y0360232D01*
X0094578Y0360218D01*
X0094419Y0360208D01*
X0094260Y0360202D01*
X0094100Y0360200D01*
X0093940Y0360202D01*
X0093781Y0360208D01*
X0093622Y0360218D01*
X0093463Y0360232D01*
X0093304Y0360250D01*
X0093146Y0360271D01*
X0092989Y0360297D01*
X0092832Y0360327D01*
X0092676Y0360360D01*
X0092521Y0360398D01*
X0092367Y0360439D01*
X0092214Y0360484D01*
X0092062Y0360533D01*
X0091911Y0360586D01*
X0091762Y0360642D01*
X0091614Y0360703D01*
X0091468Y0360766D01*
X0091323Y0360834D01*
X0091180Y0360905D01*
X0091039Y0360979D01*
X0090900Y0361057D01*
X0090763Y0361139D01*
X0090628Y0361224D01*
X0090495Y0361312D01*
X0090364Y0361404D01*
X0090236Y0361498D01*
X0090110Y0361596D01*
X0089986Y0361697D01*
X0089865Y0361801D01*
X0089747Y0361908D01*
X0089631Y0362018D01*
X0089518Y0362131D01*
X0089408Y0362247D01*
X0089301Y0362365D01*
X0089197Y0362486D01*
X0089096Y0362610D01*
X0088998Y0362736D01*
X0088904Y0362864D01*
X0088812Y0362995D01*
X0088724Y0363128D01*
X0088639Y0363263D01*
X0088557Y0363400D01*
X0088479Y0363539D01*
X0088405Y0363680D01*
X0088334Y0363823D01*
X0088266Y0363968D01*
X0088203Y0364114D01*
X0088142Y0364262D01*
X0088086Y0364411D01*
X0088033Y0364562D01*
X0087984Y0364714D01*
X0087939Y0364867D01*
X0087898Y0365021D01*
X0087860Y0365176D01*
X0087827Y0365332D01*
X0087797Y0365489D01*
X0087771Y0365646D01*
X0087750Y0365804D01*
X0087732Y0365963D01*
X0087718Y0366122D01*
X0087708Y0366281D01*
X0087702Y0366440D01*
X0087700Y0366600D01*
X0042700Y0366600D02*
X0042702Y0366760D01*
X0042708Y0366919D01*
X0042718Y0367078D01*
X0042732Y0367237D01*
X0042750Y0367396D01*
X0042771Y0367554D01*
X0042797Y0367711D01*
X0042827Y0367868D01*
X0042860Y0368024D01*
X0042898Y0368179D01*
X0042939Y0368333D01*
X0042984Y0368486D01*
X0043033Y0368638D01*
X0043086Y0368789D01*
X0043142Y0368938D01*
X0043203Y0369086D01*
X0043266Y0369232D01*
X0043334Y0369377D01*
X0043405Y0369520D01*
X0043479Y0369661D01*
X0043557Y0369800D01*
X0043639Y0369937D01*
X0043724Y0370072D01*
X0043812Y0370205D01*
X0043904Y0370336D01*
X0043998Y0370464D01*
X0044096Y0370590D01*
X0044197Y0370714D01*
X0044301Y0370835D01*
X0044408Y0370953D01*
X0044518Y0371069D01*
X0044631Y0371182D01*
X0044747Y0371292D01*
X0044865Y0371399D01*
X0044986Y0371503D01*
X0045110Y0371604D01*
X0045236Y0371702D01*
X0045364Y0371796D01*
X0045495Y0371888D01*
X0045628Y0371976D01*
X0045763Y0372061D01*
X0045900Y0372143D01*
X0046039Y0372221D01*
X0046180Y0372295D01*
X0046323Y0372366D01*
X0046468Y0372434D01*
X0046614Y0372497D01*
X0046762Y0372558D01*
X0046911Y0372614D01*
X0047062Y0372667D01*
X0047214Y0372716D01*
X0047367Y0372761D01*
X0047521Y0372802D01*
X0047676Y0372840D01*
X0047832Y0372873D01*
X0047989Y0372903D01*
X0048146Y0372929D01*
X0048304Y0372950D01*
X0048463Y0372968D01*
X0048622Y0372982D01*
X0048781Y0372992D01*
X0048940Y0372998D01*
X0049100Y0373000D01*
X0049260Y0372998D01*
X0049419Y0372992D01*
X0049578Y0372982D01*
X0049737Y0372968D01*
X0049896Y0372950D01*
X0050054Y0372929D01*
X0050211Y0372903D01*
X0050368Y0372873D01*
X0050524Y0372840D01*
X0050679Y0372802D01*
X0050833Y0372761D01*
X0050986Y0372716D01*
X0051138Y0372667D01*
X0051289Y0372614D01*
X0051438Y0372558D01*
X0051586Y0372497D01*
X0051732Y0372434D01*
X0051877Y0372366D01*
X0052020Y0372295D01*
X0052161Y0372221D01*
X0052300Y0372143D01*
X0052437Y0372061D01*
X0052572Y0371976D01*
X0052705Y0371888D01*
X0052836Y0371796D01*
X0052964Y0371702D01*
X0053090Y0371604D01*
X0053214Y0371503D01*
X0053335Y0371399D01*
X0053453Y0371292D01*
X0053569Y0371182D01*
X0053682Y0371069D01*
X0053792Y0370953D01*
X0053899Y0370835D01*
X0054003Y0370714D01*
X0054104Y0370590D01*
X0054202Y0370464D01*
X0054296Y0370336D01*
X0054388Y0370205D01*
X0054476Y0370072D01*
X0054561Y0369937D01*
X0054643Y0369800D01*
X0054721Y0369661D01*
X0054795Y0369520D01*
X0054866Y0369377D01*
X0054934Y0369232D01*
X0054997Y0369086D01*
X0055058Y0368938D01*
X0055114Y0368789D01*
X0055167Y0368638D01*
X0055216Y0368486D01*
X0055261Y0368333D01*
X0055302Y0368179D01*
X0055340Y0368024D01*
X0055373Y0367868D01*
X0055403Y0367711D01*
X0055429Y0367554D01*
X0055450Y0367396D01*
X0055468Y0367237D01*
X0055482Y0367078D01*
X0055492Y0366919D01*
X0055498Y0366760D01*
X0055500Y0366600D01*
X0055498Y0366440D01*
X0055492Y0366281D01*
X0055482Y0366122D01*
X0055468Y0365963D01*
X0055450Y0365804D01*
X0055429Y0365646D01*
X0055403Y0365489D01*
X0055373Y0365332D01*
X0055340Y0365176D01*
X0055302Y0365021D01*
X0055261Y0364867D01*
X0055216Y0364714D01*
X0055167Y0364562D01*
X0055114Y0364411D01*
X0055058Y0364262D01*
X0054997Y0364114D01*
X0054934Y0363968D01*
X0054866Y0363823D01*
X0054795Y0363680D01*
X0054721Y0363539D01*
X0054643Y0363400D01*
X0054561Y0363263D01*
X0054476Y0363128D01*
X0054388Y0362995D01*
X0054296Y0362864D01*
X0054202Y0362736D01*
X0054104Y0362610D01*
X0054003Y0362486D01*
X0053899Y0362365D01*
X0053792Y0362247D01*
X0053682Y0362131D01*
X0053569Y0362018D01*
X0053453Y0361908D01*
X0053335Y0361801D01*
X0053214Y0361697D01*
X0053090Y0361596D01*
X0052964Y0361498D01*
X0052836Y0361404D01*
X0052705Y0361312D01*
X0052572Y0361224D01*
X0052437Y0361139D01*
X0052300Y0361057D01*
X0052161Y0360979D01*
X0052020Y0360905D01*
X0051877Y0360834D01*
X0051732Y0360766D01*
X0051586Y0360703D01*
X0051438Y0360642D01*
X0051289Y0360586D01*
X0051138Y0360533D01*
X0050986Y0360484D01*
X0050833Y0360439D01*
X0050679Y0360398D01*
X0050524Y0360360D01*
X0050368Y0360327D01*
X0050211Y0360297D01*
X0050054Y0360271D01*
X0049896Y0360250D01*
X0049737Y0360232D01*
X0049578Y0360218D01*
X0049419Y0360208D01*
X0049260Y0360202D01*
X0049100Y0360200D01*
X0048940Y0360202D01*
X0048781Y0360208D01*
X0048622Y0360218D01*
X0048463Y0360232D01*
X0048304Y0360250D01*
X0048146Y0360271D01*
X0047989Y0360297D01*
X0047832Y0360327D01*
X0047676Y0360360D01*
X0047521Y0360398D01*
X0047367Y0360439D01*
X0047214Y0360484D01*
X0047062Y0360533D01*
X0046911Y0360586D01*
X0046762Y0360642D01*
X0046614Y0360703D01*
X0046468Y0360766D01*
X0046323Y0360834D01*
X0046180Y0360905D01*
X0046039Y0360979D01*
X0045900Y0361057D01*
X0045763Y0361139D01*
X0045628Y0361224D01*
X0045495Y0361312D01*
X0045364Y0361404D01*
X0045236Y0361498D01*
X0045110Y0361596D01*
X0044986Y0361697D01*
X0044865Y0361801D01*
X0044747Y0361908D01*
X0044631Y0362018D01*
X0044518Y0362131D01*
X0044408Y0362247D01*
X0044301Y0362365D01*
X0044197Y0362486D01*
X0044096Y0362610D01*
X0043998Y0362736D01*
X0043904Y0362864D01*
X0043812Y0362995D01*
X0043724Y0363128D01*
X0043639Y0363263D01*
X0043557Y0363400D01*
X0043479Y0363539D01*
X0043405Y0363680D01*
X0043334Y0363823D01*
X0043266Y0363968D01*
X0043203Y0364114D01*
X0043142Y0364262D01*
X0043086Y0364411D01*
X0043033Y0364562D01*
X0042984Y0364714D01*
X0042939Y0364867D01*
X0042898Y0365021D01*
X0042860Y0365176D01*
X0042827Y0365332D01*
X0042797Y0365489D01*
X0042771Y0365646D01*
X0042750Y0365804D01*
X0042732Y0365963D01*
X0042718Y0366122D01*
X0042708Y0366281D01*
X0042702Y0366440D01*
X0042700Y0366600D01*
X0010301Y0381600D02*
X0010303Y0381758D01*
X0010309Y0381916D01*
X0010319Y0382074D01*
X0010333Y0382232D01*
X0010351Y0382389D01*
X0010372Y0382546D01*
X0010398Y0382702D01*
X0010428Y0382858D01*
X0010461Y0383013D01*
X0010499Y0383166D01*
X0010540Y0383319D01*
X0010585Y0383471D01*
X0010634Y0383622D01*
X0010687Y0383771D01*
X0010743Y0383919D01*
X0010803Y0384065D01*
X0010867Y0384210D01*
X0010935Y0384353D01*
X0011006Y0384495D01*
X0011080Y0384635D01*
X0011158Y0384772D01*
X0011240Y0384908D01*
X0011324Y0385042D01*
X0011413Y0385173D01*
X0011504Y0385302D01*
X0011599Y0385429D01*
X0011696Y0385554D01*
X0011797Y0385676D01*
X0011901Y0385795D01*
X0012008Y0385912D01*
X0012118Y0386026D01*
X0012231Y0386137D01*
X0012346Y0386246D01*
X0012464Y0386351D01*
X0012585Y0386453D01*
X0012708Y0386553D01*
X0012834Y0386649D01*
X0012962Y0386742D01*
X0013092Y0386832D01*
X0013225Y0386918D01*
X0013360Y0387002D01*
X0013496Y0387081D01*
X0013635Y0387158D01*
X0013776Y0387230D01*
X0013918Y0387300D01*
X0014062Y0387365D01*
X0014208Y0387427D01*
X0014355Y0387485D01*
X0014504Y0387540D01*
X0014654Y0387591D01*
X0014805Y0387638D01*
X0014957Y0387681D01*
X0015110Y0387720D01*
X0015265Y0387756D01*
X0015420Y0387787D01*
X0015576Y0387815D01*
X0015732Y0387839D01*
X0015889Y0387859D01*
X0016047Y0387875D01*
X0016204Y0387887D01*
X0016363Y0387895D01*
X0016521Y0387899D01*
X0016679Y0387899D01*
X0016837Y0387895D01*
X0016996Y0387887D01*
X0017153Y0387875D01*
X0017311Y0387859D01*
X0017468Y0387839D01*
X0017624Y0387815D01*
X0017780Y0387787D01*
X0017935Y0387756D01*
X0018090Y0387720D01*
X0018243Y0387681D01*
X0018395Y0387638D01*
X0018546Y0387591D01*
X0018696Y0387540D01*
X0018845Y0387485D01*
X0018992Y0387427D01*
X0019138Y0387365D01*
X0019282Y0387300D01*
X0019424Y0387230D01*
X0019565Y0387158D01*
X0019704Y0387081D01*
X0019840Y0387002D01*
X0019975Y0386918D01*
X0020108Y0386832D01*
X0020238Y0386742D01*
X0020366Y0386649D01*
X0020492Y0386553D01*
X0020615Y0386453D01*
X0020736Y0386351D01*
X0020854Y0386246D01*
X0020969Y0386137D01*
X0021082Y0386026D01*
X0021192Y0385912D01*
X0021299Y0385795D01*
X0021403Y0385676D01*
X0021504Y0385554D01*
X0021601Y0385429D01*
X0021696Y0385302D01*
X0021787Y0385173D01*
X0021876Y0385042D01*
X0021960Y0384908D01*
X0022042Y0384772D01*
X0022120Y0384635D01*
X0022194Y0384495D01*
X0022265Y0384353D01*
X0022333Y0384210D01*
X0022397Y0384065D01*
X0022457Y0383919D01*
X0022513Y0383771D01*
X0022566Y0383622D01*
X0022615Y0383471D01*
X0022660Y0383319D01*
X0022701Y0383166D01*
X0022739Y0383013D01*
X0022772Y0382858D01*
X0022802Y0382702D01*
X0022828Y0382546D01*
X0022849Y0382389D01*
X0022867Y0382232D01*
X0022881Y0382074D01*
X0022891Y0381916D01*
X0022897Y0381758D01*
X0022899Y0381600D01*
X0022897Y0381442D01*
X0022891Y0381284D01*
X0022881Y0381126D01*
X0022867Y0380968D01*
X0022849Y0380811D01*
X0022828Y0380654D01*
X0022802Y0380498D01*
X0022772Y0380342D01*
X0022739Y0380187D01*
X0022701Y0380034D01*
X0022660Y0379881D01*
X0022615Y0379729D01*
X0022566Y0379578D01*
X0022513Y0379429D01*
X0022457Y0379281D01*
X0022397Y0379135D01*
X0022333Y0378990D01*
X0022265Y0378847D01*
X0022194Y0378705D01*
X0022120Y0378565D01*
X0022042Y0378428D01*
X0021960Y0378292D01*
X0021876Y0378158D01*
X0021787Y0378027D01*
X0021696Y0377898D01*
X0021601Y0377771D01*
X0021504Y0377646D01*
X0021403Y0377524D01*
X0021299Y0377405D01*
X0021192Y0377288D01*
X0021082Y0377174D01*
X0020969Y0377063D01*
X0020854Y0376954D01*
X0020736Y0376849D01*
X0020615Y0376747D01*
X0020492Y0376647D01*
X0020366Y0376551D01*
X0020238Y0376458D01*
X0020108Y0376368D01*
X0019975Y0376282D01*
X0019840Y0376198D01*
X0019704Y0376119D01*
X0019565Y0376042D01*
X0019424Y0375970D01*
X0019282Y0375900D01*
X0019138Y0375835D01*
X0018992Y0375773D01*
X0018845Y0375715D01*
X0018696Y0375660D01*
X0018546Y0375609D01*
X0018395Y0375562D01*
X0018243Y0375519D01*
X0018090Y0375480D01*
X0017935Y0375444D01*
X0017780Y0375413D01*
X0017624Y0375385D01*
X0017468Y0375361D01*
X0017311Y0375341D01*
X0017153Y0375325D01*
X0016996Y0375313D01*
X0016837Y0375305D01*
X0016679Y0375301D01*
X0016521Y0375301D01*
X0016363Y0375305D01*
X0016204Y0375313D01*
X0016047Y0375325D01*
X0015889Y0375341D01*
X0015732Y0375361D01*
X0015576Y0375385D01*
X0015420Y0375413D01*
X0015265Y0375444D01*
X0015110Y0375480D01*
X0014957Y0375519D01*
X0014805Y0375562D01*
X0014654Y0375609D01*
X0014504Y0375660D01*
X0014355Y0375715D01*
X0014208Y0375773D01*
X0014062Y0375835D01*
X0013918Y0375900D01*
X0013776Y0375970D01*
X0013635Y0376042D01*
X0013496Y0376119D01*
X0013360Y0376198D01*
X0013225Y0376282D01*
X0013092Y0376368D01*
X0012962Y0376458D01*
X0012834Y0376551D01*
X0012708Y0376647D01*
X0012585Y0376747D01*
X0012464Y0376849D01*
X0012346Y0376954D01*
X0012231Y0377063D01*
X0012118Y0377174D01*
X0012008Y0377288D01*
X0011901Y0377405D01*
X0011797Y0377524D01*
X0011696Y0377646D01*
X0011599Y0377771D01*
X0011504Y0377898D01*
X0011413Y0378027D01*
X0011324Y0378158D01*
X0011240Y0378292D01*
X0011158Y0378428D01*
X0011080Y0378565D01*
X0011006Y0378705D01*
X0010935Y0378847D01*
X0010867Y0378990D01*
X0010803Y0379135D01*
X0010743Y0379281D01*
X0010687Y0379429D01*
X0010634Y0379578D01*
X0010585Y0379729D01*
X0010540Y0379881D01*
X0010499Y0380034D01*
X0010461Y0380187D01*
X0010428Y0380342D01*
X0010398Y0380498D01*
X0010372Y0380654D01*
X0010351Y0380811D01*
X0010333Y0380968D01*
X0010319Y0381126D01*
X0010309Y0381284D01*
X0010303Y0381442D01*
X0010301Y0381600D01*
X0180301Y0381600D02*
X0180303Y0381758D01*
X0180309Y0381916D01*
X0180319Y0382074D01*
X0180333Y0382232D01*
X0180351Y0382389D01*
X0180372Y0382546D01*
X0180398Y0382702D01*
X0180428Y0382858D01*
X0180461Y0383013D01*
X0180499Y0383166D01*
X0180540Y0383319D01*
X0180585Y0383471D01*
X0180634Y0383622D01*
X0180687Y0383771D01*
X0180743Y0383919D01*
X0180803Y0384065D01*
X0180867Y0384210D01*
X0180935Y0384353D01*
X0181006Y0384495D01*
X0181080Y0384635D01*
X0181158Y0384772D01*
X0181240Y0384908D01*
X0181324Y0385042D01*
X0181413Y0385173D01*
X0181504Y0385302D01*
X0181599Y0385429D01*
X0181696Y0385554D01*
X0181797Y0385676D01*
X0181901Y0385795D01*
X0182008Y0385912D01*
X0182118Y0386026D01*
X0182231Y0386137D01*
X0182346Y0386246D01*
X0182464Y0386351D01*
X0182585Y0386453D01*
X0182708Y0386553D01*
X0182834Y0386649D01*
X0182962Y0386742D01*
X0183092Y0386832D01*
X0183225Y0386918D01*
X0183360Y0387002D01*
X0183496Y0387081D01*
X0183635Y0387158D01*
X0183776Y0387230D01*
X0183918Y0387300D01*
X0184062Y0387365D01*
X0184208Y0387427D01*
X0184355Y0387485D01*
X0184504Y0387540D01*
X0184654Y0387591D01*
X0184805Y0387638D01*
X0184957Y0387681D01*
X0185110Y0387720D01*
X0185265Y0387756D01*
X0185420Y0387787D01*
X0185576Y0387815D01*
X0185732Y0387839D01*
X0185889Y0387859D01*
X0186047Y0387875D01*
X0186204Y0387887D01*
X0186363Y0387895D01*
X0186521Y0387899D01*
X0186679Y0387899D01*
X0186837Y0387895D01*
X0186996Y0387887D01*
X0187153Y0387875D01*
X0187311Y0387859D01*
X0187468Y0387839D01*
X0187624Y0387815D01*
X0187780Y0387787D01*
X0187935Y0387756D01*
X0188090Y0387720D01*
X0188243Y0387681D01*
X0188395Y0387638D01*
X0188546Y0387591D01*
X0188696Y0387540D01*
X0188845Y0387485D01*
X0188992Y0387427D01*
X0189138Y0387365D01*
X0189282Y0387300D01*
X0189424Y0387230D01*
X0189565Y0387158D01*
X0189704Y0387081D01*
X0189840Y0387002D01*
X0189975Y0386918D01*
X0190108Y0386832D01*
X0190238Y0386742D01*
X0190366Y0386649D01*
X0190492Y0386553D01*
X0190615Y0386453D01*
X0190736Y0386351D01*
X0190854Y0386246D01*
X0190969Y0386137D01*
X0191082Y0386026D01*
X0191192Y0385912D01*
X0191299Y0385795D01*
X0191403Y0385676D01*
X0191504Y0385554D01*
X0191601Y0385429D01*
X0191696Y0385302D01*
X0191787Y0385173D01*
X0191876Y0385042D01*
X0191960Y0384908D01*
X0192042Y0384772D01*
X0192120Y0384635D01*
X0192194Y0384495D01*
X0192265Y0384353D01*
X0192333Y0384210D01*
X0192397Y0384065D01*
X0192457Y0383919D01*
X0192513Y0383771D01*
X0192566Y0383622D01*
X0192615Y0383471D01*
X0192660Y0383319D01*
X0192701Y0383166D01*
X0192739Y0383013D01*
X0192772Y0382858D01*
X0192802Y0382702D01*
X0192828Y0382546D01*
X0192849Y0382389D01*
X0192867Y0382232D01*
X0192881Y0382074D01*
X0192891Y0381916D01*
X0192897Y0381758D01*
X0192899Y0381600D01*
X0192897Y0381442D01*
X0192891Y0381284D01*
X0192881Y0381126D01*
X0192867Y0380968D01*
X0192849Y0380811D01*
X0192828Y0380654D01*
X0192802Y0380498D01*
X0192772Y0380342D01*
X0192739Y0380187D01*
X0192701Y0380034D01*
X0192660Y0379881D01*
X0192615Y0379729D01*
X0192566Y0379578D01*
X0192513Y0379429D01*
X0192457Y0379281D01*
X0192397Y0379135D01*
X0192333Y0378990D01*
X0192265Y0378847D01*
X0192194Y0378705D01*
X0192120Y0378565D01*
X0192042Y0378428D01*
X0191960Y0378292D01*
X0191876Y0378158D01*
X0191787Y0378027D01*
X0191696Y0377898D01*
X0191601Y0377771D01*
X0191504Y0377646D01*
X0191403Y0377524D01*
X0191299Y0377405D01*
X0191192Y0377288D01*
X0191082Y0377174D01*
X0190969Y0377063D01*
X0190854Y0376954D01*
X0190736Y0376849D01*
X0190615Y0376747D01*
X0190492Y0376647D01*
X0190366Y0376551D01*
X0190238Y0376458D01*
X0190108Y0376368D01*
X0189975Y0376282D01*
X0189840Y0376198D01*
X0189704Y0376119D01*
X0189565Y0376042D01*
X0189424Y0375970D01*
X0189282Y0375900D01*
X0189138Y0375835D01*
X0188992Y0375773D01*
X0188845Y0375715D01*
X0188696Y0375660D01*
X0188546Y0375609D01*
X0188395Y0375562D01*
X0188243Y0375519D01*
X0188090Y0375480D01*
X0187935Y0375444D01*
X0187780Y0375413D01*
X0187624Y0375385D01*
X0187468Y0375361D01*
X0187311Y0375341D01*
X0187153Y0375325D01*
X0186996Y0375313D01*
X0186837Y0375305D01*
X0186679Y0375301D01*
X0186521Y0375301D01*
X0186363Y0375305D01*
X0186204Y0375313D01*
X0186047Y0375325D01*
X0185889Y0375341D01*
X0185732Y0375361D01*
X0185576Y0375385D01*
X0185420Y0375413D01*
X0185265Y0375444D01*
X0185110Y0375480D01*
X0184957Y0375519D01*
X0184805Y0375562D01*
X0184654Y0375609D01*
X0184504Y0375660D01*
X0184355Y0375715D01*
X0184208Y0375773D01*
X0184062Y0375835D01*
X0183918Y0375900D01*
X0183776Y0375970D01*
X0183635Y0376042D01*
X0183496Y0376119D01*
X0183360Y0376198D01*
X0183225Y0376282D01*
X0183092Y0376368D01*
X0182962Y0376458D01*
X0182834Y0376551D01*
X0182708Y0376647D01*
X0182585Y0376747D01*
X0182464Y0376849D01*
X0182346Y0376954D01*
X0182231Y0377063D01*
X0182118Y0377174D01*
X0182008Y0377288D01*
X0181901Y0377405D01*
X0181797Y0377524D01*
X0181696Y0377646D01*
X0181599Y0377771D01*
X0181504Y0377898D01*
X0181413Y0378027D01*
X0181324Y0378158D01*
X0181240Y0378292D01*
X0181158Y0378428D01*
X0181080Y0378565D01*
X0181006Y0378705D01*
X0180935Y0378847D01*
X0180867Y0378990D01*
X0180803Y0379135D01*
X0180743Y0379281D01*
X0180687Y0379429D01*
X0180634Y0379578D01*
X0180585Y0379729D01*
X0180540Y0379881D01*
X0180499Y0380034D01*
X0180461Y0380187D01*
X0180428Y0380342D01*
X0180398Y0380498D01*
X0180372Y0380654D01*
X0180351Y0380811D01*
X0180333Y0380968D01*
X0180319Y0381126D01*
X0180309Y0381284D01*
X0180303Y0381442D01*
X0180301Y0381600D01*
D11*
X0165616Y0346210D02*
X0165616Y0337002D01*
X0161012Y0341606D02*
X0170220Y0341606D01*
X0128784Y0341606D02*
X0119576Y0341606D01*
X0061600Y0261600D02*
X0191600Y0261600D01*
X0191600Y0191600D01*
X0061600Y0191600D01*
X0061600Y0261600D01*
D12*
X0045100Y0283900D02*
X0028100Y0283900D01*
X0028024Y0283902D01*
X0027948Y0283908D01*
X0027873Y0283917D01*
X0027798Y0283931D01*
X0027724Y0283948D01*
X0027651Y0283969D01*
X0027579Y0283993D01*
X0027508Y0284022D01*
X0027439Y0284053D01*
X0027372Y0284088D01*
X0027307Y0284127D01*
X0027243Y0284169D01*
X0027182Y0284214D01*
X0027123Y0284262D01*
X0027067Y0284313D01*
X0027013Y0284367D01*
X0026962Y0284423D01*
X0026914Y0284482D01*
X0026869Y0284543D01*
X0026827Y0284607D01*
X0026788Y0284672D01*
X0026753Y0284739D01*
X0026722Y0284808D01*
X0026693Y0284879D01*
X0026669Y0284951D01*
X0026648Y0285024D01*
X0026631Y0285098D01*
X0026617Y0285173D01*
X0026608Y0285248D01*
X0026602Y0285324D01*
X0026600Y0285400D01*
X0026600Y0289600D01*
X0026600Y0293600D01*
X0026600Y0297800D01*
X0026602Y0297876D01*
X0026608Y0297952D01*
X0026617Y0298027D01*
X0026631Y0298102D01*
X0026648Y0298176D01*
X0026669Y0298249D01*
X0026693Y0298321D01*
X0026722Y0298392D01*
X0026753Y0298461D01*
X0026788Y0298528D01*
X0026827Y0298593D01*
X0026869Y0298657D01*
X0026914Y0298718D01*
X0026962Y0298777D01*
X0027013Y0298833D01*
X0027067Y0298887D01*
X0027123Y0298938D01*
X0027182Y0298986D01*
X0027243Y0299031D01*
X0027307Y0299073D01*
X0027372Y0299112D01*
X0027439Y0299147D01*
X0027508Y0299178D01*
X0027579Y0299207D01*
X0027651Y0299231D01*
X0027724Y0299252D01*
X0027798Y0299269D01*
X0027873Y0299283D01*
X0027948Y0299292D01*
X0028024Y0299298D01*
X0028100Y0299300D01*
X0045100Y0299300D01*
X0045176Y0299298D01*
X0045252Y0299292D01*
X0045327Y0299283D01*
X0045402Y0299269D01*
X0045476Y0299252D01*
X0045549Y0299231D01*
X0045621Y0299207D01*
X0045692Y0299178D01*
X0045761Y0299147D01*
X0045828Y0299112D01*
X0045893Y0299073D01*
X0045957Y0299031D01*
X0046018Y0298986D01*
X0046077Y0298938D01*
X0046133Y0298887D01*
X0046187Y0298833D01*
X0046238Y0298777D01*
X0046286Y0298718D01*
X0046331Y0298657D01*
X0046373Y0298593D01*
X0046412Y0298528D01*
X0046447Y0298461D01*
X0046478Y0298392D01*
X0046507Y0298321D01*
X0046531Y0298249D01*
X0046552Y0298176D01*
X0046569Y0298102D01*
X0046583Y0298027D01*
X0046592Y0297952D01*
X0046598Y0297876D01*
X0046600Y0297800D01*
X0046600Y0285400D01*
X0046598Y0285324D01*
X0046592Y0285248D01*
X0046583Y0285173D01*
X0046569Y0285098D01*
X0046552Y0285024D01*
X0046531Y0284951D01*
X0046507Y0284879D01*
X0046478Y0284808D01*
X0046447Y0284739D01*
X0046412Y0284672D01*
X0046373Y0284607D01*
X0046331Y0284543D01*
X0046286Y0284482D01*
X0046238Y0284423D01*
X0046187Y0284367D01*
X0046133Y0284313D01*
X0046077Y0284262D01*
X0046018Y0284214D01*
X0045957Y0284169D01*
X0045893Y0284127D01*
X0045828Y0284088D01*
X0045761Y0284053D01*
X0045692Y0284022D01*
X0045621Y0283993D01*
X0045549Y0283969D01*
X0045476Y0283948D01*
X0045402Y0283931D01*
X0045327Y0283917D01*
X0045252Y0283908D01*
X0045176Y0283902D01*
X0045100Y0283900D01*
X0034100Y0256600D02*
X0036600Y0254100D01*
X0036600Y0249100D01*
X0034100Y0246600D01*
X0036600Y0244100D01*
X0036600Y0239100D01*
X0034100Y0236600D01*
X0036600Y0234100D01*
X0036600Y0229100D01*
X0034100Y0226600D01*
X0036600Y0224100D01*
X0036600Y0219100D01*
X0034100Y0216600D01*
X0036600Y0214100D01*
X0036600Y0209100D01*
X0034100Y0206600D01*
X0036600Y0204100D01*
X0036600Y0199100D01*
X0034100Y0196600D01*
X0029100Y0196600D01*
X0026600Y0199100D01*
X0026600Y0204100D01*
X0029100Y0206600D01*
X0026600Y0209100D01*
X0026600Y0214100D01*
X0029100Y0216600D01*
X0034100Y0216600D01*
X0029100Y0216600D02*
X0026600Y0219100D01*
X0026600Y0224100D01*
X0029100Y0226600D01*
X0026600Y0229100D01*
X0026600Y0234100D01*
X0029100Y0236600D01*
X0026600Y0239100D01*
X0026600Y0244100D01*
X0029100Y0246600D01*
X0026600Y0249100D01*
X0026600Y0254100D01*
X0029100Y0256600D01*
X0034100Y0256600D01*
X0034100Y0246600D02*
X0029100Y0246600D01*
X0029100Y0236600D02*
X0034100Y0236600D01*
X0034100Y0226600D02*
X0029100Y0226600D01*
X0029100Y0206600D02*
X0034100Y0206600D01*
X0016300Y0205770D02*
X0009895Y0205770D01*
X0009895Y0208973D01*
X0010962Y0210041D01*
X0013097Y0210041D01*
X0014165Y0208973D01*
X0014165Y0205770D01*
X0014165Y0207906D02*
X0016300Y0210041D01*
X0016300Y0214351D02*
X0009895Y0214351D01*
X0009895Y0212216D02*
X0009895Y0216486D01*
X0010962Y0218661D02*
X0009895Y0219729D01*
X0009895Y0221864D01*
X0010962Y0222932D01*
X0013097Y0222932D02*
X0013097Y0220797D01*
X0013097Y0222932D02*
X0015232Y0222932D01*
X0016300Y0221864D01*
X0016300Y0219729D01*
X0015232Y0218661D01*
X0010962Y0218661D01*
X0012030Y0225107D02*
X0009895Y0227242D01*
X0012030Y0229377D01*
X0016300Y0229377D01*
X0016300Y0225107D02*
X0012030Y0225107D01*
X0013097Y0225107D02*
X0013097Y0229377D01*
X0009895Y0231552D02*
X0009895Y0235823D01*
X0009895Y0233688D02*
X0016300Y0233688D01*
X0016300Y0237998D02*
X0016300Y0242268D01*
X0016300Y0237998D02*
X0009895Y0237998D01*
X0009895Y0242268D01*
X0013097Y0240133D02*
X0013097Y0237998D01*
X0010962Y0250889D02*
X0015232Y0250889D01*
X0016300Y0251956D01*
X0016300Y0254092D01*
X0015232Y0255159D01*
X0015232Y0257334D02*
X0016300Y0258402D01*
X0016300Y0260537D01*
X0015232Y0261605D01*
X0010962Y0261605D01*
X0009895Y0260537D01*
X0009895Y0258402D01*
X0010962Y0257334D01*
X0015232Y0257334D01*
X0010962Y0255159D02*
X0009895Y0254092D01*
X0009895Y0251956D01*
X0010962Y0250889D01*
X0009895Y0263780D02*
X0016300Y0268050D01*
X0009895Y0268050D01*
X0009895Y0270225D02*
X0009895Y0274496D01*
X0009895Y0272361D02*
X0016300Y0272361D01*
X0016300Y0276671D02*
X0009895Y0276671D01*
X0009895Y0279874D01*
X0010962Y0280941D01*
X0013097Y0280941D01*
X0014165Y0279874D01*
X0014165Y0276671D01*
X0014165Y0278806D02*
X0016300Y0280941D01*
X0015232Y0283116D02*
X0016300Y0284184D01*
X0016300Y0286319D01*
X0015232Y0287387D01*
X0010962Y0287387D01*
X0009895Y0286319D01*
X0009895Y0284184D01*
X0010962Y0283116D01*
X0015232Y0283116D01*
X0016300Y0289562D02*
X0016300Y0293832D01*
X0016300Y0296007D02*
X0016300Y0300278D01*
X0016300Y0302453D02*
X0016300Y0306723D01*
X0016300Y0308898D02*
X0009895Y0308898D01*
X0009895Y0312101D01*
X0010962Y0313169D01*
X0013097Y0313169D01*
X0014165Y0312101D01*
X0014165Y0308898D01*
X0014165Y0311034D02*
X0016300Y0313169D01*
X0013097Y0304588D02*
X0013097Y0302453D01*
X0009895Y0302453D02*
X0016300Y0302453D01*
X0016300Y0296007D02*
X0009895Y0296007D01*
X0009895Y0302453D02*
X0009895Y0306723D01*
X0009895Y0289562D02*
X0016300Y0289562D01*
X0026600Y0289600D02*
X0026688Y0289602D01*
X0026777Y0289608D01*
X0026865Y0289618D01*
X0026952Y0289631D01*
X0027039Y0289649D01*
X0027125Y0289670D01*
X0027210Y0289695D01*
X0027293Y0289724D01*
X0027376Y0289757D01*
X0027456Y0289793D01*
X0027535Y0289832D01*
X0027613Y0289875D01*
X0027688Y0289922D01*
X0027761Y0289972D01*
X0027832Y0290025D01*
X0027901Y0290081D01*
X0027967Y0290140D01*
X0028030Y0290202D01*
X0028090Y0290266D01*
X0028148Y0290333D01*
X0028202Y0290403D01*
X0028254Y0290475D01*
X0028302Y0290549D01*
X0028347Y0290626D01*
X0028388Y0290704D01*
X0028426Y0290784D01*
X0028460Y0290865D01*
X0028491Y0290948D01*
X0028518Y0291033D01*
X0028541Y0291118D01*
X0028560Y0291204D01*
X0028576Y0291292D01*
X0028588Y0291379D01*
X0028596Y0291467D01*
X0028600Y0291556D01*
X0028600Y0291644D01*
X0028596Y0291733D01*
X0028588Y0291821D01*
X0028576Y0291908D01*
X0028560Y0291996D01*
X0028541Y0292082D01*
X0028518Y0292167D01*
X0028491Y0292252D01*
X0028460Y0292335D01*
X0028426Y0292416D01*
X0028388Y0292496D01*
X0028347Y0292574D01*
X0028302Y0292651D01*
X0028254Y0292725D01*
X0028202Y0292797D01*
X0028148Y0292867D01*
X0028090Y0292934D01*
X0028030Y0292998D01*
X0027967Y0293060D01*
X0027901Y0293119D01*
X0027832Y0293175D01*
X0027761Y0293228D01*
X0027688Y0293278D01*
X0027613Y0293325D01*
X0027535Y0293368D01*
X0027456Y0293407D01*
X0027376Y0293443D01*
X0027293Y0293476D01*
X0027210Y0293505D01*
X0027125Y0293530D01*
X0027039Y0293551D01*
X0026952Y0293569D01*
X0026865Y0293582D01*
X0026777Y0293592D01*
X0026688Y0293598D01*
X0026600Y0293600D01*
X0016300Y0263780D02*
X0009895Y0263780D01*
X0012030Y0203595D02*
X0016300Y0203595D01*
X0016300Y0199325D02*
X0012030Y0199325D01*
X0009895Y0201460D01*
X0012030Y0203595D01*
X0013097Y0203595D02*
X0013097Y0199325D01*
X0009895Y0197150D02*
X0009895Y0192879D01*
X0009895Y0195015D02*
X0016300Y0195015D01*
X0015232Y0190704D02*
X0016300Y0189637D01*
X0016300Y0187502D01*
X0015232Y0186434D01*
X0013097Y0187502D02*
X0013097Y0189637D01*
X0014165Y0190704D01*
X0015232Y0190704D01*
X0013097Y0187502D02*
X0012030Y0186434D01*
X0010962Y0186434D01*
X0009895Y0187502D01*
X0009895Y0189637D01*
X0010962Y0190704D01*
X0010962Y0177813D02*
X0009895Y0177813D01*
X0010962Y0177813D02*
X0013097Y0175678D01*
X0016300Y0175678D01*
X0013097Y0175678D02*
X0010962Y0173543D01*
X0009895Y0173543D01*
X0010962Y0171368D02*
X0009895Y0170300D01*
X0009895Y0167097D01*
X0016300Y0167097D01*
X0016300Y0170300D01*
X0015232Y0171368D01*
X0014165Y0171368D01*
X0013097Y0170300D01*
X0013097Y0167097D01*
X0013097Y0164922D02*
X0014165Y0163855D01*
X0014165Y0160652D01*
X0014165Y0162787D02*
X0016300Y0164922D01*
X0016300Y0160652D02*
X0009895Y0160652D01*
X0009895Y0163855D01*
X0010962Y0164922D01*
X0013097Y0164922D01*
X0013097Y0170300D02*
X0012030Y0171368D01*
X0010962Y0171368D01*
X0009895Y0158477D02*
X0009895Y0154206D01*
X0016300Y0154206D01*
X0016300Y0158477D01*
X0015232Y0152031D02*
X0010962Y0152031D01*
X0009895Y0150964D01*
X0009895Y0147761D01*
X0016300Y0147761D01*
X0016300Y0150964D01*
X0015232Y0152031D01*
X0013097Y0154206D02*
X0013097Y0156342D01*
X0010962Y0139140D02*
X0009895Y0138073D01*
X0009895Y0134870D01*
X0016300Y0134870D01*
X0016300Y0138073D01*
X0015232Y0139140D01*
X0010962Y0139140D01*
X0010962Y0132695D02*
X0009895Y0131627D01*
X0009895Y0129492D01*
X0010962Y0128424D01*
X0015232Y0128424D01*
X0016300Y0129492D01*
X0016300Y0131627D01*
X0015232Y0132695D01*
X0010962Y0132695D01*
X0010962Y0126249D02*
X0009895Y0125182D01*
X0009895Y0123047D01*
X0010962Y0121979D01*
X0015232Y0121979D01*
X0016300Y0123047D01*
X0016300Y0125182D01*
X0015232Y0126249D01*
X0010962Y0126249D01*
X0009895Y0119804D02*
X0016300Y0119804D01*
X0014165Y0117669D01*
X0016300Y0115533D01*
X0009895Y0115533D01*
X0009895Y0113358D02*
X0009895Y0109088D01*
X0016300Y0109088D01*
X0016300Y0113358D01*
X0013097Y0111223D02*
X0013097Y0109088D01*
X0009895Y0106913D02*
X0016300Y0106913D01*
X0009895Y0102642D01*
X0016300Y0102642D01*
X0016300Y0100481D02*
X0016300Y0098345D01*
X0016300Y0099413D02*
X0009895Y0099413D01*
X0009895Y0098345D02*
X0009895Y0100481D01*
X0010962Y0096170D02*
X0013097Y0096170D01*
X0014165Y0095103D01*
X0014165Y0091900D01*
X0009895Y0095103D02*
X0010962Y0096170D01*
X0009895Y0095103D02*
X0009895Y0091900D01*
X0016300Y0091900D01*
X0025090Y0064805D02*
X0025090Y0058400D01*
X0022955Y0058400D02*
X0027225Y0058400D01*
X0029400Y0059468D02*
X0030468Y0058400D01*
X0032603Y0058400D01*
X0033670Y0059468D01*
X0033670Y0060535D01*
X0032603Y0061603D01*
X0031535Y0061603D01*
X0032603Y0061603D02*
X0033670Y0062670D01*
X0033670Y0063738D01*
X0032603Y0064805D01*
X0030468Y0064805D01*
X0029400Y0063738D01*
X0025090Y0064805D02*
X0022955Y0062670D01*
X0036600Y0064100D02*
X0036600Y0059100D01*
X0039100Y0056600D01*
X0044100Y0056600D01*
X0046600Y0059100D01*
X0046600Y0064100D01*
X0044100Y0066600D01*
X0039100Y0066600D01*
X0036600Y0064100D01*
X0046600Y0064100D02*
X0049100Y0066600D01*
X0054100Y0066600D01*
X0056600Y0064100D01*
X0059100Y0066600D01*
X0064100Y0066600D01*
X0066600Y0064100D01*
X0069100Y0066600D01*
X0074100Y0066600D01*
X0076600Y0064100D01*
X0079100Y0066600D01*
X0084100Y0066600D01*
X0086600Y0064100D01*
X0089100Y0066600D01*
X0094100Y0066600D01*
X0096600Y0064100D01*
X0099100Y0066600D01*
X0104100Y0066600D01*
X0106600Y0064100D01*
X0109100Y0066600D01*
X0114100Y0066600D01*
X0116600Y0064100D01*
X0119100Y0066600D01*
X0124100Y0066600D01*
X0126600Y0064100D01*
X0129100Y0066600D01*
X0134100Y0066600D01*
X0136600Y0064100D01*
X0139100Y0066600D01*
X0144100Y0066600D01*
X0146600Y0064100D01*
X0149100Y0066600D01*
X0154100Y0066600D01*
X0156600Y0064100D01*
X0159100Y0066600D01*
X0164100Y0066600D01*
X0166600Y0064100D01*
X0166600Y0059100D01*
X0164100Y0056600D01*
X0159100Y0056600D01*
X0156600Y0059100D01*
X0154100Y0056600D01*
X0149100Y0056600D01*
X0146600Y0059100D01*
X0146600Y0064100D01*
X0146600Y0059100D02*
X0144100Y0056600D01*
X0139100Y0056600D01*
X0136600Y0059100D01*
X0134100Y0056600D01*
X0129100Y0056600D01*
X0126600Y0059100D01*
X0124100Y0056600D01*
X0119100Y0056600D01*
X0116600Y0059100D01*
X0116600Y0064100D01*
X0116600Y0059100D02*
X0114100Y0056600D01*
X0109100Y0056600D01*
X0106600Y0059100D01*
X0104100Y0056600D01*
X0099100Y0056600D01*
X0096600Y0059100D01*
X0094100Y0056600D01*
X0089100Y0056600D01*
X0086600Y0059100D01*
X0086600Y0064100D01*
X0086600Y0059100D02*
X0084100Y0056600D01*
X0079100Y0056600D01*
X0076600Y0059100D01*
X0074100Y0056600D01*
X0069100Y0056600D01*
X0066600Y0059100D01*
X0064100Y0056600D01*
X0059100Y0056600D01*
X0056600Y0059100D01*
X0056600Y0064100D01*
X0056600Y0059100D02*
X0054100Y0056600D01*
X0049100Y0056600D01*
X0046600Y0059100D01*
X0044100Y0036600D02*
X0039100Y0036600D01*
X0036600Y0034100D01*
X0036600Y0029100D01*
X0039100Y0026600D01*
X0044100Y0026600D01*
X0046600Y0029100D01*
X0046600Y0034100D01*
X0044100Y0036600D01*
X0046600Y0034100D02*
X0049100Y0036600D01*
X0054100Y0036600D01*
X0056600Y0034100D01*
X0059100Y0036600D01*
X0064100Y0036600D01*
X0066600Y0034100D01*
X0069100Y0036600D01*
X0074100Y0036600D01*
X0076600Y0034100D01*
X0079100Y0036600D01*
X0084100Y0036600D01*
X0086600Y0034100D01*
X0089100Y0036600D01*
X0094100Y0036600D01*
X0096600Y0034100D01*
X0099100Y0036600D01*
X0104100Y0036600D01*
X0106600Y0034100D01*
X0109100Y0036600D01*
X0114100Y0036600D01*
X0116600Y0034100D01*
X0119100Y0036600D01*
X0124100Y0036600D01*
X0126600Y0034100D01*
X0129100Y0036600D01*
X0134100Y0036600D01*
X0136600Y0034100D01*
X0139100Y0036600D01*
X0144100Y0036600D01*
X0146600Y0034100D01*
X0149100Y0036600D01*
X0154100Y0036600D01*
X0156600Y0034100D01*
X0159100Y0036600D01*
X0164100Y0036600D01*
X0166600Y0034100D01*
X0166600Y0029100D01*
X0164100Y0026600D01*
X0159100Y0026600D01*
X0156600Y0029100D01*
X0154100Y0026600D01*
X0149100Y0026600D01*
X0146600Y0029100D01*
X0146600Y0034100D01*
X0146600Y0029100D02*
X0144100Y0026600D01*
X0139100Y0026600D01*
X0136600Y0029100D01*
X0134100Y0026600D01*
X0129100Y0026600D01*
X0126600Y0029100D01*
X0124100Y0026600D01*
X0119100Y0026600D01*
X0116600Y0029100D01*
X0116600Y0034100D01*
X0116600Y0029100D02*
X0114100Y0026600D01*
X0109100Y0026600D01*
X0106600Y0029100D01*
X0104100Y0026600D01*
X0099100Y0026600D01*
X0096600Y0029100D01*
X0094100Y0026600D01*
X0089100Y0026600D01*
X0086600Y0029100D01*
X0086600Y0034100D01*
X0086600Y0029100D02*
X0084100Y0026600D01*
X0079100Y0026600D01*
X0076600Y0029100D01*
X0074100Y0026600D01*
X0069100Y0026600D01*
X0066600Y0029100D01*
X0064100Y0026600D01*
X0059100Y0026600D01*
X0056600Y0029100D01*
X0056600Y0034100D01*
X0056600Y0029100D02*
X0054100Y0026600D01*
X0049100Y0026600D01*
X0046600Y0029100D01*
X0033670Y0029468D02*
X0032603Y0028400D01*
X0030468Y0028400D01*
X0029400Y0029468D01*
X0027225Y0028400D02*
X0022955Y0028400D01*
X0025090Y0028400D02*
X0025090Y0034805D01*
X0022955Y0032670D01*
X0029400Y0033738D02*
X0030468Y0034805D01*
X0032603Y0034805D01*
X0033670Y0033738D01*
X0033670Y0032670D01*
X0032603Y0031603D01*
X0033670Y0030535D01*
X0033670Y0029468D01*
X0032603Y0031603D02*
X0031535Y0031603D01*
X0066600Y0034100D02*
X0066600Y0029100D01*
X0076600Y0029100D02*
X0076600Y0034100D01*
X0076600Y0059100D02*
X0076600Y0064100D01*
X0066600Y0064100D02*
X0066600Y0059100D01*
X0096600Y0059100D02*
X0096600Y0064100D01*
X0106600Y0064100D02*
X0106600Y0059100D01*
X0106600Y0034100D02*
X0106600Y0029100D01*
X0096600Y0029100D02*
X0096600Y0034100D01*
X0126600Y0034100D02*
X0126600Y0029100D01*
X0136600Y0029100D02*
X0136600Y0034100D01*
X0136600Y0059100D02*
X0136600Y0064100D01*
X0126600Y0064100D02*
X0126600Y0059100D01*
X0156600Y0059100D02*
X0156600Y0064100D01*
X0168677Y0062670D02*
X0170812Y0064805D01*
X0170812Y0058400D01*
X0168677Y0058400D02*
X0172948Y0058400D01*
X0184895Y0052642D02*
X0187030Y0054778D01*
X0189165Y0054778D01*
X0191300Y0052642D01*
X0191300Y0050467D02*
X0191300Y0047265D01*
X0190232Y0046197D01*
X0188097Y0046197D01*
X0187030Y0047265D01*
X0187030Y0050467D01*
X0184895Y0044035D02*
X0187030Y0041900D01*
X0189165Y0041900D01*
X0191300Y0044035D01*
X0191300Y0063385D02*
X0187030Y0067655D01*
X0185962Y0067655D01*
X0184895Y0066588D01*
X0184895Y0064453D01*
X0185962Y0063385D01*
X0185962Y0069830D02*
X0184895Y0070898D01*
X0184895Y0073033D01*
X0185962Y0074101D01*
X0190232Y0069830D01*
X0191300Y0070898D01*
X0191300Y0073033D01*
X0190232Y0074101D01*
X0185962Y0074101D01*
X0187030Y0076276D02*
X0184895Y0078411D01*
X0191300Y0078411D01*
X0191300Y0076276D02*
X0191300Y0080546D01*
X0190232Y0082721D02*
X0191300Y0083789D01*
X0191300Y0085924D01*
X0190232Y0086992D01*
X0189165Y0086992D01*
X0188097Y0085924D01*
X0188097Y0083789D01*
X0187030Y0082721D01*
X0185962Y0082721D01*
X0184895Y0083789D01*
X0184895Y0085924D01*
X0185962Y0086992D01*
X0187030Y0086992D01*
X0188097Y0085924D01*
X0188097Y0083789D02*
X0189165Y0082721D01*
X0190232Y0082721D01*
X0190232Y0069830D02*
X0185962Y0069830D01*
X0191300Y0067655D02*
X0191300Y0063385D01*
X0191300Y0095612D02*
X0184895Y0095612D01*
X0187030Y0097748D01*
X0184895Y0099883D01*
X0191300Y0099883D01*
X0191300Y0102058D02*
X0191300Y0104193D01*
X0191300Y0103126D02*
X0184895Y0103126D01*
X0184895Y0104193D02*
X0184895Y0102058D01*
X0185962Y0106355D02*
X0184895Y0107423D01*
X0184895Y0109558D01*
X0185962Y0110625D01*
X0184895Y0112800D02*
X0191300Y0112800D01*
X0190232Y0110625D02*
X0191300Y0109558D01*
X0191300Y0107423D01*
X0190232Y0106355D01*
X0185962Y0106355D01*
X0188097Y0112800D02*
X0188097Y0117071D01*
X0188097Y0119246D02*
X0188097Y0123516D01*
X0187030Y0123516D02*
X0191300Y0123516D01*
X0191300Y0125691D02*
X0191300Y0129962D01*
X0191300Y0132137D02*
X0191300Y0136407D01*
X0191300Y0132137D02*
X0184895Y0132137D01*
X0184895Y0129962D02*
X0184895Y0125691D01*
X0191300Y0125691D01*
X0188097Y0125691D02*
X0188097Y0127827D01*
X0187030Y0123516D02*
X0184895Y0121381D01*
X0187030Y0119246D01*
X0191300Y0119246D01*
X0191300Y0117071D02*
X0184895Y0117071D01*
X0184895Y0145028D02*
X0184895Y0148231D01*
X0185962Y0149298D01*
X0188097Y0149298D01*
X0189165Y0148231D01*
X0189165Y0145028D01*
X0191300Y0145028D02*
X0184895Y0145028D01*
X0185962Y0151473D02*
X0190232Y0151473D01*
X0191300Y0152541D01*
X0191300Y0154676D01*
X0190232Y0155744D01*
X0185962Y0155744D01*
X0184895Y0154676D01*
X0184895Y0152541D01*
X0185962Y0151473D01*
X0189165Y0147163D02*
X0191300Y0149298D01*
X0191300Y0157919D02*
X0184895Y0157919D01*
X0187030Y0160054D01*
X0184895Y0162189D01*
X0191300Y0162189D01*
X0191300Y0164364D02*
X0184895Y0164364D01*
X0187030Y0166500D01*
X0184895Y0168635D01*
X0191300Y0168635D01*
X0191300Y0170810D02*
X0191300Y0175080D01*
X0191300Y0177255D02*
X0191300Y0181526D01*
X0191300Y0177255D02*
X0184895Y0177255D01*
X0184895Y0175080D02*
X0184895Y0170810D01*
X0191300Y0170810D01*
X0188097Y0170810D02*
X0188097Y0172945D01*
X0191600Y0285100D02*
X0191600Y0308100D01*
X0111600Y0308100D01*
X0111600Y0300600D01*
X0111726Y0300598D01*
X0111851Y0300592D01*
X0111976Y0300582D01*
X0112101Y0300568D01*
X0112226Y0300551D01*
X0112350Y0300529D01*
X0112473Y0300504D01*
X0112595Y0300474D01*
X0112716Y0300441D01*
X0112836Y0300404D01*
X0112955Y0300364D01*
X0113072Y0300319D01*
X0113189Y0300271D01*
X0113303Y0300219D01*
X0113416Y0300164D01*
X0113527Y0300105D01*
X0113636Y0300043D01*
X0113743Y0299977D01*
X0113848Y0299908D01*
X0113951Y0299836D01*
X0114052Y0299761D01*
X0114150Y0299682D01*
X0114245Y0299600D01*
X0114338Y0299516D01*
X0114428Y0299428D01*
X0114516Y0299338D01*
X0114600Y0299245D01*
X0114682Y0299150D01*
X0114761Y0299052D01*
X0114836Y0298951D01*
X0114908Y0298848D01*
X0114977Y0298743D01*
X0115043Y0298636D01*
X0115105Y0298527D01*
X0115164Y0298416D01*
X0115219Y0298303D01*
X0115271Y0298189D01*
X0115319Y0298072D01*
X0115364Y0297955D01*
X0115404Y0297836D01*
X0115441Y0297716D01*
X0115474Y0297595D01*
X0115504Y0297473D01*
X0115529Y0297350D01*
X0115551Y0297226D01*
X0115568Y0297101D01*
X0115582Y0296976D01*
X0115592Y0296851D01*
X0115598Y0296726D01*
X0115600Y0296600D01*
X0115598Y0296474D01*
X0115592Y0296349D01*
X0115582Y0296224D01*
X0115568Y0296099D01*
X0115551Y0295974D01*
X0115529Y0295850D01*
X0115504Y0295727D01*
X0115474Y0295605D01*
X0115441Y0295484D01*
X0115404Y0295364D01*
X0115364Y0295245D01*
X0115319Y0295128D01*
X0115271Y0295011D01*
X0115219Y0294897D01*
X0115164Y0294784D01*
X0115105Y0294673D01*
X0115043Y0294564D01*
X0114977Y0294457D01*
X0114908Y0294352D01*
X0114836Y0294249D01*
X0114761Y0294148D01*
X0114682Y0294050D01*
X0114600Y0293955D01*
X0114516Y0293862D01*
X0114428Y0293772D01*
X0114338Y0293684D01*
X0114245Y0293600D01*
X0114150Y0293518D01*
X0114052Y0293439D01*
X0113951Y0293364D01*
X0113848Y0293292D01*
X0113743Y0293223D01*
X0113636Y0293157D01*
X0113527Y0293095D01*
X0113416Y0293036D01*
X0113303Y0292981D01*
X0113189Y0292929D01*
X0113072Y0292881D01*
X0112955Y0292836D01*
X0112836Y0292796D01*
X0112716Y0292759D01*
X0112595Y0292726D01*
X0112473Y0292696D01*
X0112350Y0292671D01*
X0112226Y0292649D01*
X0112101Y0292632D01*
X0111976Y0292618D01*
X0111851Y0292608D01*
X0111726Y0292602D01*
X0111600Y0292600D01*
X0111600Y0285100D01*
X0191600Y0285100D01*
X0166600Y0347100D02*
X0166600Y0359100D01*
X0126600Y0359100D01*
X0126600Y0365100D01*
X0126600Y0369100D01*
X0130300Y0369100D01*
X0130300Y0370600D02*
X0128800Y0370600D01*
X0128800Y0388600D01*
X0128800Y0396100D01*
X0126600Y0396100D01*
X0126600Y0392100D01*
X0126600Y0387600D01*
X0126600Y0369100D01*
X0124600Y0366100D02*
X0126600Y0365100D01*
X0124600Y0366100D02*
X0124600Y0347100D01*
X0126600Y0347100D01*
X0166600Y0347100D01*
X0164500Y0348100D02*
X0148500Y0348100D01*
X0148500Y0358100D01*
X0164500Y0358100D01*
X0164500Y0348100D01*
X0162900Y0354100D02*
X0150900Y0351600D01*
X0150400Y0352100D02*
X0162400Y0354600D01*
X0162134Y0355341D02*
X0162218Y0355292D01*
X0162299Y0355240D01*
X0162378Y0355185D01*
X0162455Y0355126D01*
X0162529Y0355065D01*
X0162601Y0355000D01*
X0162670Y0354932D01*
X0162736Y0354862D01*
X0162799Y0354789D01*
X0162859Y0354713D01*
X0162915Y0354635D01*
X0162969Y0354555D01*
X0163019Y0354473D01*
X0163066Y0354388D01*
X0163109Y0354302D01*
X0163149Y0354214D01*
X0163185Y0354124D01*
X0163217Y0354033D01*
X0163245Y0353941D01*
X0163270Y0353848D01*
X0163291Y0353754D01*
X0163307Y0353658D01*
X0163320Y0353563D01*
X0163329Y0353467D01*
X0163334Y0353370D01*
X0163335Y0353274D01*
X0163332Y0353177D01*
X0163325Y0353081D01*
X0163314Y0352985D01*
X0163299Y0352890D01*
X0163280Y0352795D01*
X0163257Y0352701D01*
X0163230Y0352609D01*
X0163200Y0352517D01*
X0163166Y0352427D01*
X0163128Y0352338D01*
X0163086Y0352251D01*
X0163041Y0352166D01*
X0162992Y0352082D01*
X0162940Y0352001D01*
X0162885Y0351922D01*
X0162826Y0351845D01*
X0162765Y0351771D01*
X0162700Y0351699D01*
X0166600Y0359100D02*
X0166600Y0369100D01*
X0163000Y0369100D01*
X0163000Y0370600D02*
X0164500Y0370600D01*
X0164500Y0388600D01*
X0164500Y0396100D01*
X0148500Y0396100D01*
X0144800Y0396100D01*
X0128800Y0396100D01*
X0126600Y0392100D02*
X0124600Y0393100D01*
X0124600Y0386600D01*
X0126600Y0387600D01*
X0128800Y0388600D02*
X0144800Y0388600D01*
X0144800Y0370600D01*
X0143300Y0370600D01*
X0143300Y0369100D02*
X0150000Y0369100D01*
X0150000Y0370600D02*
X0148500Y0370600D01*
X0148500Y0388600D01*
X0164500Y0388600D01*
X0163000Y0386100D02*
X0163000Y0373600D01*
X0166600Y0369100D02*
X0166600Y0396100D01*
X0164500Y0396100D01*
X0163000Y0386100D02*
X0150000Y0386100D01*
X0150000Y0373600D01*
X0143300Y0373600D02*
X0143300Y0386100D01*
X0130300Y0386100D01*
X0130300Y0373600D01*
X0126600Y0359100D02*
X0126600Y0347100D01*
X0128800Y0348100D02*
X0128800Y0358100D01*
X0144800Y0358100D01*
X0144800Y0348100D01*
X0128800Y0348100D01*
X0131200Y0351600D02*
X0143200Y0354100D01*
X0142700Y0354600D02*
X0130700Y0352100D01*
X0130801Y0351700D02*
X0130734Y0351777D01*
X0130671Y0351856D01*
X0130611Y0351937D01*
X0130553Y0352020D01*
X0130499Y0352106D01*
X0130449Y0352194D01*
X0130401Y0352283D01*
X0130357Y0352374D01*
X0130316Y0352467D01*
X0130279Y0352561D01*
X0130246Y0352656D01*
X0130216Y0352753D01*
X0130189Y0352851D01*
X0130167Y0352950D01*
X0130148Y0353049D01*
X0130133Y0353149D01*
X0130122Y0353250D01*
X0130114Y0353351D01*
X0130110Y0353452D01*
X0130111Y0353553D01*
X0130114Y0353654D01*
X0130122Y0353755D01*
X0130134Y0353856D01*
X0130149Y0353956D01*
X0130168Y0354055D01*
X0130191Y0354154D01*
X0130217Y0354252D01*
X0130247Y0354348D01*
X0130281Y0354444D01*
X0130318Y0354538D01*
X0130359Y0354630D01*
X0130403Y0354722D01*
X0130451Y0354811D01*
X0130502Y0354898D01*
X0130556Y0354984D01*
X0130614Y0355067D01*
X0130674Y0355148D01*
X0130738Y0355227D01*
X0130804Y0355303D01*
X0130873Y0355377D01*
X0130945Y0355448D01*
X0131020Y0355517D01*
X0130782Y0351684D02*
X0130912Y0351538D01*
X0131046Y0351394D01*
X0131184Y0351254D01*
X0131325Y0351117D01*
X0131469Y0350983D01*
X0131617Y0350854D01*
X0131767Y0350727D01*
X0131921Y0350605D01*
X0132077Y0350486D01*
X0132237Y0350371D01*
X0132399Y0350260D01*
X0132564Y0350153D01*
X0132731Y0350049D01*
X0132901Y0349950D01*
X0133073Y0349856D01*
X0133247Y0349765D01*
X0133424Y0349678D01*
X0133602Y0349596D01*
X0133783Y0349519D01*
X0133965Y0349445D01*
X0134149Y0349376D01*
X0134334Y0349312D01*
X0134522Y0349252D01*
X0134710Y0349196D01*
X0134900Y0349146D01*
X0135091Y0349099D01*
X0135283Y0349058D01*
X0135476Y0349021D01*
X0135670Y0348989D01*
X0135865Y0348961D01*
X0136060Y0348939D01*
X0136255Y0348921D01*
X0136451Y0348907D01*
X0136648Y0348899D01*
X0136844Y0348895D01*
X0137041Y0348896D01*
X0137237Y0348902D01*
X0137433Y0348913D01*
X0137629Y0348928D01*
X0137825Y0348948D01*
X0138020Y0348973D01*
X0138214Y0349002D01*
X0138408Y0349036D01*
X0138600Y0349075D01*
X0138792Y0349119D01*
X0138982Y0349167D01*
X0139172Y0349220D01*
X0139360Y0349277D01*
X0139546Y0349339D01*
X0139731Y0349406D01*
X0139914Y0349476D01*
X0140096Y0349552D01*
X0140275Y0349631D01*
X0140453Y0349715D01*
X0140629Y0349804D01*
X0140802Y0349896D01*
X0140973Y0349993D01*
X0141142Y0350094D01*
X0141308Y0350199D01*
X0141472Y0350307D01*
X0141633Y0350420D01*
X0141791Y0350537D01*
X0141946Y0350657D01*
X0142098Y0350782D01*
X0142247Y0350909D01*
X0142394Y0351041D01*
X0142536Y0351176D01*
X0142676Y0351314D01*
X0142812Y0351456D01*
X0142945Y0351601D01*
X0143074Y0351749D01*
X0143199Y0351900D01*
X0143000Y0351699D02*
X0143065Y0351771D01*
X0143126Y0351845D01*
X0143185Y0351922D01*
X0143240Y0352001D01*
X0143292Y0352082D01*
X0143341Y0352166D01*
X0143386Y0352251D01*
X0143428Y0352338D01*
X0143466Y0352427D01*
X0143500Y0352517D01*
X0143530Y0352609D01*
X0143557Y0352701D01*
X0143580Y0352795D01*
X0143599Y0352890D01*
X0143614Y0352985D01*
X0143625Y0353081D01*
X0143632Y0353177D01*
X0143635Y0353274D01*
X0143634Y0353370D01*
X0143629Y0353467D01*
X0143620Y0353563D01*
X0143607Y0353658D01*
X0143591Y0353754D01*
X0143570Y0353848D01*
X0143545Y0353941D01*
X0143517Y0354033D01*
X0143485Y0354124D01*
X0143449Y0354214D01*
X0143409Y0354302D01*
X0143366Y0354388D01*
X0143319Y0354473D01*
X0143269Y0354555D01*
X0143215Y0354635D01*
X0143159Y0354713D01*
X0143099Y0354789D01*
X0143036Y0354862D01*
X0142970Y0354932D01*
X0142901Y0355000D01*
X0142829Y0355065D01*
X0142755Y0355126D01*
X0142678Y0355185D01*
X0142599Y0355240D01*
X0142518Y0355292D01*
X0142434Y0355341D01*
X0142600Y0355200D02*
X0142415Y0355344D01*
X0142227Y0355484D01*
X0142035Y0355619D01*
X0141840Y0355749D01*
X0141642Y0355875D01*
X0141441Y0355996D01*
X0141237Y0356111D01*
X0141031Y0356222D01*
X0140821Y0356328D01*
X0140610Y0356428D01*
X0140395Y0356523D01*
X0140179Y0356613D01*
X0139960Y0356698D01*
X0139740Y0356777D01*
X0139517Y0356851D01*
X0139293Y0356920D01*
X0139067Y0356983D01*
X0138840Y0357040D01*
X0138611Y0357092D01*
X0138381Y0357138D01*
X0138150Y0357179D01*
X0137918Y0357214D01*
X0137686Y0357243D01*
X0137452Y0357267D01*
X0137219Y0357285D01*
X0136984Y0357297D01*
X0136750Y0357304D01*
X0136516Y0357305D01*
X0136281Y0357300D01*
X0136047Y0357289D01*
X0135813Y0357273D01*
X0135580Y0357251D01*
X0135347Y0357223D01*
X0135115Y0357189D01*
X0134884Y0357150D01*
X0134653Y0357106D01*
X0134424Y0357055D01*
X0134197Y0356999D01*
X0133970Y0356938D01*
X0133746Y0356871D01*
X0133523Y0356799D01*
X0133301Y0356721D01*
X0133082Y0356638D01*
X0132865Y0356549D01*
X0132650Y0356455D01*
X0132438Y0356356D01*
X0132228Y0356252D01*
X0132020Y0356143D01*
X0131816Y0356029D01*
X0131614Y0355909D01*
X0131415Y0355785D01*
X0131219Y0355656D01*
X0131026Y0355522D01*
X0130837Y0355384D01*
X0115800Y0356509D02*
X0109395Y0360779D01*
X0111530Y0362954D02*
X0109395Y0365090D01*
X0115800Y0365090D01*
X0115800Y0367225D02*
X0115800Y0362954D01*
X0115800Y0360779D02*
X0109395Y0356509D01*
X0144800Y0388600D02*
X0144800Y0396100D01*
X0148500Y0396100D02*
X0148500Y0388600D01*
X0150481Y0351683D02*
X0150612Y0351537D01*
X0150746Y0351393D01*
X0150884Y0351253D01*
X0151025Y0351116D01*
X0151169Y0350982D01*
X0151317Y0350852D01*
X0151467Y0350726D01*
X0151621Y0350604D01*
X0151777Y0350485D01*
X0151937Y0350370D01*
X0152099Y0350259D01*
X0152264Y0350151D01*
X0152431Y0350048D01*
X0152601Y0349949D01*
X0152773Y0349854D01*
X0152947Y0349764D01*
X0153124Y0349677D01*
X0153302Y0349595D01*
X0153483Y0349517D01*
X0153665Y0349444D01*
X0153849Y0349375D01*
X0154035Y0349311D01*
X0154222Y0349251D01*
X0154410Y0349195D01*
X0154600Y0349145D01*
X0154791Y0349098D01*
X0154983Y0349057D01*
X0155176Y0349020D01*
X0155370Y0348988D01*
X0155565Y0348960D01*
X0155760Y0348938D01*
X0155956Y0348920D01*
X0156152Y0348906D01*
X0156348Y0348898D01*
X0156545Y0348894D01*
X0156741Y0348895D01*
X0156938Y0348901D01*
X0157134Y0348912D01*
X0157330Y0348927D01*
X0157525Y0348947D01*
X0157720Y0348972D01*
X0157915Y0349001D01*
X0158108Y0349036D01*
X0158301Y0349074D01*
X0158493Y0349118D01*
X0158683Y0349166D01*
X0158872Y0349219D01*
X0159060Y0349276D01*
X0159247Y0349338D01*
X0159432Y0349405D01*
X0159615Y0349476D01*
X0159797Y0349551D01*
X0159976Y0349631D01*
X0160154Y0349715D01*
X0160330Y0349803D01*
X0160503Y0349895D01*
X0160674Y0349992D01*
X0160843Y0350093D01*
X0161009Y0350198D01*
X0161173Y0350307D01*
X0161334Y0350420D01*
X0161492Y0350536D01*
X0161647Y0350657D01*
X0161799Y0350781D01*
X0161948Y0350909D01*
X0162095Y0351040D01*
X0162237Y0351175D01*
X0162377Y0351314D01*
X0162513Y0351455D01*
X0162646Y0351600D01*
X0162775Y0351749D01*
X0162900Y0351900D01*
X0162300Y0355200D02*
X0162116Y0355344D01*
X0161927Y0355484D01*
X0161736Y0355619D01*
X0161541Y0355749D01*
X0161343Y0355875D01*
X0161142Y0355995D01*
X0160938Y0356111D01*
X0160731Y0356222D01*
X0160522Y0356327D01*
X0160310Y0356428D01*
X0160096Y0356523D01*
X0159879Y0356613D01*
X0159660Y0356698D01*
X0159440Y0356777D01*
X0159217Y0356851D01*
X0158993Y0356920D01*
X0158767Y0356983D01*
X0158540Y0357040D01*
X0158311Y0357092D01*
X0158081Y0357138D01*
X0157850Y0357179D01*
X0157619Y0357214D01*
X0157386Y0357243D01*
X0157153Y0357267D01*
X0156919Y0357285D01*
X0156685Y0357297D01*
X0156450Y0357304D01*
X0156216Y0357305D01*
X0155982Y0357300D01*
X0155747Y0357289D01*
X0155513Y0357273D01*
X0155280Y0357251D01*
X0155047Y0357223D01*
X0154815Y0357190D01*
X0154584Y0357150D01*
X0154354Y0357106D01*
X0154125Y0357055D01*
X0153897Y0357000D01*
X0153671Y0356938D01*
X0153446Y0356871D01*
X0153223Y0356799D01*
X0153002Y0356721D01*
X0152783Y0356638D01*
X0152566Y0356549D01*
X0152351Y0356455D01*
X0152138Y0356356D01*
X0151928Y0356252D01*
X0151721Y0356143D01*
X0151516Y0356029D01*
X0151314Y0355909D01*
X0151115Y0355785D01*
X0150919Y0355656D01*
X0150727Y0355523D01*
X0150537Y0355384D01*
X0150720Y0355517D02*
X0150645Y0355448D01*
X0150573Y0355377D01*
X0150504Y0355303D01*
X0150438Y0355227D01*
X0150374Y0355148D01*
X0150314Y0355067D01*
X0150256Y0354984D01*
X0150202Y0354898D01*
X0150151Y0354811D01*
X0150103Y0354722D01*
X0150059Y0354630D01*
X0150018Y0354538D01*
X0149981Y0354444D01*
X0149947Y0354348D01*
X0149917Y0354252D01*
X0149891Y0354154D01*
X0149868Y0354055D01*
X0149849Y0353956D01*
X0149834Y0353856D01*
X0149822Y0353755D01*
X0149814Y0353654D01*
X0149811Y0353553D01*
X0149810Y0353452D01*
X0149814Y0353351D01*
X0149822Y0353250D01*
X0149833Y0353149D01*
X0149848Y0353049D01*
X0149867Y0352950D01*
X0149889Y0352851D01*
X0149916Y0352753D01*
X0149946Y0352656D01*
X0149979Y0352561D01*
X0150016Y0352467D01*
X0150057Y0352374D01*
X0150101Y0352283D01*
X0150149Y0352194D01*
X0150199Y0352106D01*
X0150253Y0352020D01*
X0150311Y0351937D01*
X0150371Y0351856D01*
X0150434Y0351777D01*
X0150501Y0351700D01*
X0170812Y0034805D02*
X0168677Y0032670D01*
X0170812Y0034805D02*
X0170812Y0028400D01*
X0168677Y0028400D02*
X0172948Y0028400D01*
X0156600Y0029100D02*
X0156600Y0034100D01*
D13*
X0171796Y0127196D02*
X0175633Y0127196D01*
X0176400Y0127963D01*
X0176400Y0129498D01*
X0175633Y0130265D01*
X0171796Y0130265D01*
X0172563Y0131800D02*
X0171796Y0132567D01*
X0171796Y0134102D01*
X0172563Y0134869D01*
X0173331Y0134869D01*
X0176400Y0131800D01*
X0176400Y0134869D01*
X0086973Y0291800D02*
X0083904Y0291800D01*
X0085439Y0291800D02*
X0085439Y0296404D01*
X0083904Y0294869D01*
X0082369Y0294102D02*
X0082369Y0295637D01*
X0081602Y0296404D01*
X0079300Y0296404D01*
X0079300Y0291800D01*
X0079300Y0293335D02*
X0081602Y0293335D01*
X0082369Y0294102D01*
X0080835Y0293335D02*
X0082369Y0291800D01*
X0082369Y0306800D02*
X0080835Y0308335D01*
X0081602Y0308335D02*
X0079300Y0308335D01*
X0079300Y0306800D02*
X0079300Y0311404D01*
X0081602Y0311404D01*
X0082369Y0310637D01*
X0082369Y0309102D01*
X0081602Y0308335D01*
X0083904Y0306800D02*
X0086973Y0309869D01*
X0086973Y0310637D01*
X0086206Y0311404D01*
X0084671Y0311404D01*
X0083904Y0310637D01*
X0083904Y0306800D02*
X0086973Y0306800D01*
X0037171Y0263137D02*
X0037171Y0260067D01*
X0036404Y0259300D01*
X0034102Y0259300D01*
X0034102Y0263904D01*
X0036404Y0263904D01*
X0037171Y0263137D01*
X0032567Y0263904D02*
X0032567Y0259300D01*
X0029498Y0263904D01*
X0029498Y0259300D01*
X0027963Y0260067D02*
X0027963Y0261602D01*
X0026429Y0261602D01*
X0027963Y0263137D02*
X0027196Y0263904D01*
X0025661Y0263904D01*
X0024894Y0263137D01*
X0024894Y0260067D01*
X0025661Y0259300D01*
X0027196Y0259300D01*
X0027963Y0260067D01*
X0056400Y0199473D02*
X0056400Y0196404D01*
X0056400Y0197939D02*
X0051796Y0197939D01*
X0053331Y0196404D01*
X0051796Y0194869D02*
X0055633Y0194869D01*
X0056400Y0194102D01*
X0056400Y0192567D01*
X0055633Y0191800D01*
X0051796Y0191800D01*
X0037171Y0191602D02*
X0036404Y0190835D01*
X0034102Y0190835D01*
X0035637Y0190835D02*
X0037171Y0189300D01*
X0037171Y0191602D02*
X0037171Y0193137D01*
X0036404Y0193904D01*
X0034102Y0193904D01*
X0034102Y0189300D01*
X0031033Y0189300D02*
X0031033Y0193904D01*
X0032567Y0193904D02*
X0029498Y0193904D01*
X0027963Y0193137D02*
X0027963Y0190067D01*
X0027196Y0189300D01*
X0024894Y0189300D01*
X0024894Y0193904D01*
X0027196Y0193904D01*
X0027963Y0193137D01*
D14*
X0026600Y0285300D02*
X0046600Y0285300D01*
D15*
X0024850Y0285101D02*
X0020346Y0285101D01*
X0020346Y0285851D02*
X0020346Y0284350D01*
X0021097Y0287419D02*
X0024099Y0287419D01*
X0024850Y0288170D01*
X0024850Y0289671D01*
X0024099Y0290422D01*
X0024850Y0292023D02*
X0024850Y0295026D01*
X0024850Y0293524D02*
X0020346Y0293524D01*
X0021847Y0292023D01*
X0021097Y0290422D02*
X0020346Y0289671D01*
X0020346Y0288170D01*
X0021097Y0287419D01*
X0024850Y0285851D02*
X0024850Y0284350D01*
X0023399Y0208760D02*
X0021898Y0208760D01*
X0021147Y0208010D01*
X0021147Y0207259D01*
X0021898Y0205758D01*
X0019646Y0205758D01*
X0019646Y0208760D01*
X0020397Y0204156D02*
X0019646Y0203406D01*
X0019646Y0201154D01*
X0024150Y0201154D01*
X0022649Y0201154D02*
X0022649Y0203406D01*
X0021898Y0204156D01*
X0020397Y0204156D01*
X0023399Y0205758D02*
X0024150Y0206508D01*
X0024150Y0208010D01*
X0023399Y0208760D01*
X0019646Y0199553D02*
X0019646Y0198051D01*
X0019646Y0198802D02*
X0023399Y0198802D01*
X0024150Y0198051D01*
X0024150Y0197301D01*
X0023399Y0196550D01*
X0036600Y0171600D02*
X0036600Y0091600D01*
X0166600Y0091600D01*
X0166600Y0171600D01*
X0036600Y0171600D01*
X0105346Y0285350D02*
X0105346Y0286851D01*
X0105346Y0286101D02*
X0109850Y0286101D01*
X0109850Y0286851D02*
X0109850Y0285350D01*
X0109099Y0288419D02*
X0109850Y0289170D01*
X0109850Y0290671D01*
X0109099Y0291422D01*
X0109850Y0293023D02*
X0106847Y0296026D01*
X0106097Y0296026D01*
X0105346Y0295275D01*
X0105346Y0293774D01*
X0106097Y0293023D01*
X0106097Y0291422D02*
X0105346Y0290671D01*
X0105346Y0289170D01*
X0106097Y0288419D01*
X0109099Y0288419D01*
X0109850Y0293023D02*
X0109850Y0296026D01*
X0139946Y0361850D02*
X0142949Y0364853D01*
X0142949Y0365603D01*
X0142198Y0366354D01*
X0140697Y0366354D01*
X0139946Y0365603D01*
X0139946Y0361850D02*
X0142949Y0361850D01*
X0159946Y0361850D02*
X0162949Y0361850D01*
X0161447Y0361850D02*
X0161447Y0366354D01*
X0159946Y0364853D01*
X0162100Y0169100D02*
X0162102Y0169189D01*
X0162108Y0169278D01*
X0162118Y0169367D01*
X0162132Y0169455D01*
X0162149Y0169542D01*
X0162171Y0169628D01*
X0162197Y0169714D01*
X0162226Y0169798D01*
X0162259Y0169881D01*
X0162295Y0169962D01*
X0162336Y0170042D01*
X0162379Y0170119D01*
X0162426Y0170195D01*
X0162477Y0170268D01*
X0162530Y0170339D01*
X0162587Y0170408D01*
X0162647Y0170474D01*
X0162710Y0170538D01*
X0162775Y0170598D01*
X0162843Y0170656D01*
X0162914Y0170710D01*
X0162987Y0170761D01*
X0163062Y0170809D01*
X0163139Y0170854D01*
X0163218Y0170895D01*
X0163299Y0170932D01*
X0163381Y0170966D01*
X0163465Y0170997D01*
X0163550Y0171023D01*
X0163636Y0171046D01*
X0163723Y0171064D01*
X0163811Y0171079D01*
X0163900Y0171090D01*
X0163989Y0171097D01*
X0164078Y0171100D01*
X0164167Y0171099D01*
X0164256Y0171094D01*
X0164344Y0171085D01*
X0164433Y0171072D01*
X0164520Y0171055D01*
X0164607Y0171035D01*
X0164693Y0171010D01*
X0164777Y0170982D01*
X0164860Y0170950D01*
X0164942Y0170914D01*
X0165022Y0170875D01*
X0165100Y0170832D01*
X0165176Y0170786D01*
X0165250Y0170736D01*
X0165322Y0170683D01*
X0165391Y0170627D01*
X0165458Y0170568D01*
X0165522Y0170506D01*
X0165583Y0170442D01*
X0165642Y0170374D01*
X0165697Y0170304D01*
X0165749Y0170232D01*
X0165798Y0170157D01*
X0165843Y0170081D01*
X0165885Y0170002D01*
X0165923Y0169922D01*
X0165958Y0169840D01*
X0165989Y0169756D01*
X0166017Y0169671D01*
X0166040Y0169585D01*
X0166060Y0169498D01*
X0166076Y0169411D01*
X0166088Y0169322D01*
X0166096Y0169234D01*
X0166100Y0169145D01*
X0166100Y0169055D01*
X0166096Y0168966D01*
X0166088Y0168878D01*
X0166076Y0168789D01*
X0166060Y0168702D01*
X0166040Y0168615D01*
X0166017Y0168529D01*
X0165989Y0168444D01*
X0165958Y0168360D01*
X0165923Y0168278D01*
X0165885Y0168198D01*
X0165843Y0168119D01*
X0165798Y0168043D01*
X0165749Y0167968D01*
X0165697Y0167896D01*
X0165642Y0167826D01*
X0165583Y0167758D01*
X0165522Y0167694D01*
X0165458Y0167632D01*
X0165391Y0167573D01*
X0165322Y0167517D01*
X0165250Y0167464D01*
X0165176Y0167414D01*
X0165100Y0167368D01*
X0165022Y0167325D01*
X0164942Y0167286D01*
X0164860Y0167250D01*
X0164777Y0167218D01*
X0164693Y0167190D01*
X0164607Y0167165D01*
X0164520Y0167145D01*
X0164433Y0167128D01*
X0164344Y0167115D01*
X0164256Y0167106D01*
X0164167Y0167101D01*
X0164078Y0167100D01*
X0163989Y0167103D01*
X0163900Y0167110D01*
X0163811Y0167121D01*
X0163723Y0167136D01*
X0163636Y0167154D01*
X0163550Y0167177D01*
X0163465Y0167203D01*
X0163381Y0167234D01*
X0163299Y0167268D01*
X0163218Y0167305D01*
X0163139Y0167346D01*
X0163062Y0167391D01*
X0162987Y0167439D01*
X0162914Y0167490D01*
X0162843Y0167544D01*
X0162775Y0167602D01*
X0162710Y0167662D01*
X0162647Y0167726D01*
X0162587Y0167792D01*
X0162530Y0167861D01*
X0162477Y0167932D01*
X0162426Y0168005D01*
X0162379Y0168081D01*
X0162336Y0168158D01*
X0162295Y0168238D01*
X0162259Y0168319D01*
X0162226Y0168402D01*
X0162197Y0168486D01*
X0162171Y0168572D01*
X0162149Y0168658D01*
X0162132Y0168745D01*
X0162118Y0168833D01*
X0162108Y0168922D01*
X0162102Y0169011D01*
X0162100Y0169100D01*
X0160194Y0054154D02*
X0157942Y0054154D01*
X0157942Y0049650D01*
X0157942Y0051151D02*
X0160194Y0051151D01*
X0160945Y0051902D01*
X0160945Y0053403D01*
X0160194Y0054154D01*
X0162546Y0052653D02*
X0164047Y0054154D01*
X0164047Y0049650D01*
X0162546Y0049650D02*
X0165549Y0049650D01*
X0155590Y0050401D02*
X0155590Y0054154D01*
X0154839Y0054154D02*
X0156341Y0054154D01*
X0155590Y0050401D02*
X0154839Y0049650D01*
X0154089Y0049650D01*
X0153338Y0050401D01*
X0154839Y0024154D02*
X0156341Y0024154D01*
X0155590Y0024154D02*
X0155590Y0020401D01*
X0154839Y0019650D01*
X0154089Y0019650D01*
X0153338Y0020401D01*
X0157942Y0021151D02*
X0160194Y0021151D01*
X0160945Y0021902D01*
X0160945Y0023403D01*
X0160194Y0024154D01*
X0157942Y0024154D01*
X0157942Y0019650D01*
X0162546Y0019650D02*
X0165549Y0022653D01*
X0165549Y0023403D01*
X0164798Y0024154D01*
X0163297Y0024154D01*
X0162546Y0023403D01*
X0162546Y0019650D02*
X0165549Y0019650D01*
D16*
X0066600Y0196600D03*
D17*
X0040982Y0324006D02*
X0102218Y0324006D01*
X0102218Y0339006D02*
X0102218Y0369738D01*
X0102218Y0386506D02*
X0102218Y0397238D01*
X0040982Y0397238D01*
X0040982Y0386506D01*
X0040982Y0369738D02*
X0040982Y0339006D01*
D18*
X0038350Y0388300D02*
X0104850Y0388300D01*
D19*
X0173445Y0363657D02*
X0173445Y0361555D01*
X0174496Y0360504D01*
X0173445Y0358263D02*
X0179750Y0354059D01*
X0179750Y0358263D02*
X0173445Y0354059D01*
X0179750Y0360504D02*
X0175546Y0364708D01*
X0174496Y0364708D01*
X0173445Y0363657D01*
X0179750Y0364708D02*
X0179750Y0360504D01*
M02*
